<?xml version="1.0" encoding="utf-8"?>
<!-- Generator: Adobe Illustrator 25.4.1, SVG Export Plug-In . SVG Version: 6.00 Build 0)  -->
<svg version="1.1" id="圖層_1" xmlns="http://www.w3.org/2000/svg" xmlns:xlink="http://www.w3.org/1999/xlink" x="0px" y="0px"
	 viewBox="0 0 309 109.3" style="enable-background:new 0 0 309 109.3;" xml:space="preserve">
<style type="text/css">
	.st0{fill:#1D2A5A;}
	.st1{fill:#45BDCF;}
	.st2{fill:url(#XMLID_00000100364259432099296270000013886699970744473768_);}
</style>
<g id="XMLID_51_">
	<path id="XMLID_52_" class="st0" d="M133.5,43c0.7,0,1.1,0.4,1.1,1.1c0,3.8-0.3,7.4-0.8,10.7c-0.2,0.7-0.6,1-1.4,1
		c-0.6,0-0.9-0.3-0.9-0.9c0-0.3,0-0.6,0.1-0.9c0.6-2.7,0.9-6.1,1-10.2C132.7,43.3,133,43,133.5,43z M137.1,37c0.8,0,1.1,0.3,1.1,1
		v26.4c0,0.7-0.4,1-1.1,1c-0.7,0-1-0.3-1-1V38C136.1,37.3,136.4,37,137.1,37z M140,41.9c0.5,0,0.8,0.2,1,0.6c0.3,1,0.6,2.6,0.9,4.8
		c0.1,0.5,0.1,0.8,0.1,1c0,0.6-0.3,0.8-1,0.8c-0.6,0-0.9-0.3-1-0.8c-0.2-2-0.5-3.8-0.8-5.2l-0.1-0.5C139.2,42.2,139.5,41.9,140,41.9
		z M159,37.6c0.7,0,1,0.3,1,1c0,0.7-0.3,1.1-1,1.1h-12.2c-0.1,1.4-0.3,2.6-0.4,3.8h10.4c1.1,0,1.7,0.5,1.7,1.6
		c0,0.5-0.8,6.3-2.5,17.2h3.7c0.7,0,1.1,0.4,1.1,1.1c0,0.8-0.4,1.1-1.1,1.1H141c-0.7,0-1.1-0.4-1.1-1.1c0-0.7,0.4-1.1,1.1-1.1h12.7
		c1.6-10.7,2.4-16.1,2.4-16.4c0-0.3-0.2-0.5-0.6-0.5h-9.3c-0.3,2.7-0.6,4.9-0.9,6.5c-0.4,2.4-0.9,5.1-1.5,8c-0.2,0.5-0.5,0.7-1,0.7
		c-0.8,0-1.2-0.3-1.2-0.8c0-0.1,0-0.3,0.1-0.6c0.6-2.8,1.1-5.3,1.5-7.7c0.4-2.6,0.9-6.5,1.4-11.8H142c-0.7,0-1-0.4-1-1.1
		c0-0.6,0.3-1,1-1H159z M147.5,53.4c0.2,0,0.4,0.1,0.7,0.2c0.7,0.5,1.4,1.1,2,1.6c0.9,0.7,1.8,1.6,2.6,2.6c0.2,0.3,0.3,0.5,0.3,0.6
		c0,0.7-0.3,1.1-1,1.1c-0.4,0-0.8-0.1-1.1-0.3c-0.9-1-1.7-1.8-2.4-2.4c-0.6-0.5-1.2-1-1.8-1.5c-0.3-0.3-0.4-0.6-0.4-0.9
		C146.5,53.7,146.9,53.4,147.5,53.4z M148.3,47.6c0.2,0,0.4,0.1,0.7,0.2c0.8,0.5,1.4,0.9,2.1,1.3c0.9,0.6,1.8,1.3,2.6,2.2
		c0.2,0.3,0.4,0.5,0.4,0.6c0,0.7-0.3,1.1-1,1.1c-0.4,0-0.8-0.1-1.1-0.3c-0.9-0.8-1.7-1.5-2.4-2c-0.6-0.4-1.2-0.8-1.9-1.2
		c-0.2-0.3-0.3-0.6-0.3-0.9C147.3,47.9,147.6,47.6,148.3,47.6z"/>
	<path id="XMLID_59_" class="st0" d="M165.1,43c0.7,0,1.1,0.4,1.1,1.2c0,3.7-0.3,7.2-1,10.4c-0.2,0.6-0.6,1-1.4,1
		c-0.6,0-0.9-0.3-0.9-0.8c0-0.3,0-0.6,0.1-0.9c0.6-2.6,0.9-6,1-9.9C164.2,43.4,164.5,43,165.1,43z M168.9,36.9
		c0.7,0,1.1,0.4,1.1,1.1v26.3c0,0.7-0.4,1.1-1.1,1.1c-0.7,0-1.1-0.4-1.1-1.1V38C167.8,37.2,168.2,36.9,168.9,36.9z M172.5,41.7
		c0.5,0,0.9,0.2,1.1,0.6c0.3,1.1,0.6,3,0.9,5.4c0.1,0.5,0.1,0.9,0.1,1.1c0,0.7-0.4,1-1.1,1c-0.7,0-1.1-0.3-1.1-1
		c-0.2-2.2-0.5-4.1-0.8-5.7l-0.1-0.5C171.5,42,171.8,41.7,172.5,41.7z M189.5,37c0.8,0,1.2,0.4,1.2,1.1c0,0.6-0.3,1-1,1.1
		c-1.9,0.7-5.3,1-10.3,1c-0.6,0-1,0.4-1,1.1v4.8h12.4c0.7,0,1.1,0.4,1.1,1.1c0,0.7-0.4,1.1-1.1,1.1h-3.6v16.2c0,0.7-0.4,1.1-1.1,1.1
		c-0.7,0-1.1-0.4-1.1-1.1V48.3h-6.6v0.8c0,4-0.4,7.4-1.1,10.2c-0.7,2.4-1.4,4.2-2.2,5.3c-0.3,0.3-0.6,0.5-1.1,0.5
		c-0.8,0-1.2-0.4-1.2-1.1c0-0.1,0.1-0.4,0.4-0.9c0.9-1.4,1.5-3.1,2-5.2c0.7-2.5,1-5.5,1-8.9v-9.3c0-1.1,0.6-1.7,1.7-1.7
		C183.1,38.1,186.9,37.7,189.5,37z"/>
	<path id="XMLID_70_" class="st1" d="M195.9,51.2h3.2c1.1,0,1.6,0.5,1.6,1.6v5.8c0,1.1,0.5,2.1,1.6,2.8c1.3,0.9,3,1.4,5.2,1.4h14.7
		c0.7,0,1.1,0.4,1.1,1.1c0,0.7-0.4,1.1-1.1,1.1h-13.7c-1.7,0-3.2-0.2-4.6-0.7c-1.3-0.5-2.5-1.1-3.5-2.1l-0.4-0.3
		c-0.1,0-0.2,0.1-0.3,0.3c-0.7,1-1.6,1.8-2.5,2.4c-0.5,0.3-0.8,0.5-1,0.5c-0.8,0-1.2-0.4-1.2-1.1c0-0.5,0.3-0.8,0.8-1
		c1-0.6,1.7-1.1,2.1-1.5c0.5-0.5,0.7-1.5,0.7-2.9v-4.7c0-0.3-0.2-0.5-0.5-0.5h-2.1c-0.7,0-1.1-0.4-1.1-1.1
		C194.8,51.5,195.2,51.2,195.9,51.2z M196.2,43.7c0.2,0,0.5,0.1,0.8,0.3c1,0.6,1.8,1.3,2.6,2c0.3,0.3,0.5,0.6,0.5,1c0,0.7-0.3,1-1,1
		c-0.3,0-0.6-0.1-0.8-0.3c-0.7-0.6-1.5-1.3-2.5-1.9c-0.5-0.3-0.8-0.6-0.8-0.9C195,44.1,195.4,43.7,196.2,43.7z M197.4,37.6
		c0.2,0,0.5,0.1,0.8,0.2c0.9,0.7,1.7,1.3,2.5,1.9c0.3,0.3,0.5,0.6,0.5,1c0,0.7-0.3,1-1,1c-0.3,0-0.6-0.1-0.8-0.2
		c-0.7-0.7-1.5-1.3-2.3-2c-0.5-0.3-0.8-0.5-0.8-0.8C196.2,38,196.6,37.6,197.4,37.6z M207.3,37.1c0.7,0,1.1,0.4,1.1,1.1v2.4h3.1
		c0.7,0,1,0.3,1,1c0,0.7-0.3,1.1-1,1.1h-4.7v2.8c0,0.1,0,0.2,0,0.2h2.6c1.4,0,2.1,0.6,2.1,1.9c0,4-0.1,7.2-0.4,9.5
		c-0.2,1.5-0.5,2.5-1,3.1c-0.5,0.6-1.2,0.9-2.2,0.9c-0.5,0-1.2-0.2-2.1-0.6c-0.5-0.2-0.7-0.6-0.7-1.1c0-0.7,0.3-1.1,1-1.1
		c0.9,0.4,1.5,0.6,1.8,0.6c0.4,0,0.7-0.2,0.9-0.6c0.2-0.5,0.3-1.2,0.4-2.1c0.1-1.4,0.2-4,0.2-7.7c0-0.4-0.2-0.6-0.7-0.6h-1.9
		c-0.1,1.9-0.4,3.8-0.8,5.5c-0.5,2.1-1.2,3.9-2.2,5.6c-0.3,0.4-0.6,0.6-0.9,0.6c-0.9,0-1.3-0.4-1.4-1.1c0-0.2,0.2-0.5,0.4-0.7
		c1.2-2.2,2-4.5,2.4-6.8c0.4-1.8,0.5-3.6,0.5-5.4v-2.8H203c-0.6,0-1-0.4-1-1.1c0-0.7,0.3-1,1-1h3.2v-2.4
		C206.2,37.5,206.6,37.1,207.3,37.1z M216.5,37.1c0.2,0,0.5,0.1,0.6,0.2c0.2,0.2,0.3,0.4,0.3,0.7c0,0.2,0,0.4-0.1,0.6
		c-0.2,0.7-0.4,1.3-0.6,1.8h5.5c0.7,0,1,0.3,1,1c0,0.7-0.3,1.1-1,1.1h-6.5c-0.2,0.5-0.5,0.9-0.8,1.3c-0.5,0.6-1,1.2-1.7,1.6
		c-0.2,0.2-0.5,0.2-0.7,0.2c-0.3,0-0.5-0.1-0.7-0.3c-0.2-0.2-0.3-0.5-0.3-0.8c0-0.3,0.1-0.5,0.3-0.7c0.6-0.4,1-1,1.4-1.5
		c0.5-0.6,0.9-1.3,1.2-2.1c0.4-0.7,0.7-1.6,0.9-2.5C215.5,37.4,215.9,37.1,216.5,37.1z M222,52.4c0.7,0,1,0.3,1,1c0,0.6-0.3,1-1,1
		h-2.3c0.3,1.2,0.4,2.3,0.4,3.5c0,0.7-0.2,1.5-0.6,2.2c-0.3,0.6-0.7,1.1-1.2,1.4c-0.5,0.3-1,0.4-1.7,0.4c-0.7,0-1.4-0.2-2.2-0.5
		c-0.5-0.2-0.8-0.6-0.8-1.1c0-0.7,0.3-1.1,0.8-1.1c1.1,0.4,1.8,0.6,2.1,0.6c0.2,0,0.4-0.1,0.6-0.2c0.3-0.1,0.5-0.4,0.6-0.7
		c0.2-0.3,0.2-0.7,0.2-1c0-1.3-0.1-2.5-0.4-3.5h-4.2c-0.6,0-1-0.3-1-1c0-0.7,0.3-1,1-1h3.4c-0.1-0.2-0.3-0.5-0.4-0.7
		c-0.5-0.6-1-1.2-1.6-1.6c-0.2-0.1-0.3-0.3-0.3-0.4c0-0.7,0.4-1.1,1.1-1.1c0.2,0,0.4,0.1,0.8,0.3c0.2,0.2,0.4,0.4,0.6,0.6
		c0,0,0.1-0.1,0.2-0.1c0.6-0.3,1-0.6,1.2-0.9c0.4-0.3,0.7-0.7,1-1.1c0.2-0.3,0.3-0.4,0.3-0.5c0-0.1-0.1-0.1-0.3-0.1h-4.4
		c-0.6,0-0.9-0.3-0.9-1c0-0.6,0.3-0.9,0.9-0.9h6c0.9,0,1.4,0.4,1.4,1.1c0,0.3-0.1,0.7-0.3,1.1c-0.3,0.7-0.9,1.4-1.6,2.1
		c-0.7,0.7-1.4,1.3-2.2,1.8c0.3,0.4,0.5,0.8,0.7,1.3H222z"/>
	<path id="XMLID_77_" class="st1" d="M233.1,36.9c0.3,0,0.5,0.1,0.7,0.3c0.2,0.2,0.3,0.5,0.3,0.7c0,0.2-0.1,0.5-0.2,0.7
		c-0.3,0.4-0.6,0.8-0.9,1.2l0,0h1.6c1.2,0,1.8,0.6,1.8,1.8v8.6l0.7-0.1c0.7,0,1,0.3,1,1c0,0.7-0.3,1-1,1l-0.7,0.1v10.5
		c0,1.6-0.7,2.3-2,2.3c-0.9,0-1.7-0.1-2.6-0.4c-0.5-0.1-0.7-0.5-0.7-1.1c0-0.6,0.3-1,0.8-1l2.1,0.5c0.2,0,0.3-0.2,0.3-0.7v-10
		l-1.5,0.1v6.9c0,0.6-0.3,0.9-1,0.9c-0.6,0-0.8-0.3-0.8-0.9v-6.7l-1.5,0.1v0.9c0,2.3-0.1,4.3-0.4,6.3c-0.2,1.7-0.4,3.2-0.7,4.7
		c-0.2,0.6-0.6,0.9-1.2,0.9c-0.8,0-1.1-0.3-1.1-1c0,0,0-0.2,0.1-0.5c0.5-1.6,0.8-3.1,1-4.6c0.3-1.8,0.4-3.7,0.4-5.8v-0.7l-0.5,0
		c-0.7,0-1-0.3-1-1c0-0.7,0.3-1,1-1l0.5-0.1v-9.4c0-1.2,0.6-1.8,1.7-1.8h1.4c0.1-0.2,0.3-0.3,0.4-0.5c0.4-0.6,0.8-1.3,1.1-1.9
		C232.3,37,232.7,36.9,233.1,36.9z M229.5,50.8l4.8-0.4v-8.1c0-0.4-0.1-0.6-0.3-0.6h-4.2c-0.2,0-0.2,0.2-0.2,0.6V50.8z M231.4,43.2
		c0.2,0,0.4,0.1,0.6,0.3c0.5,1.3,1,2.7,1.4,4.3c0.1,0.2,0.1,0.5,0.1,0.6c0,0.6-0.4,0.9-1.1,0.9c-0.3,0-0.6-0.2-0.8-0.6
		c-0.3-1.8-0.6-3.2-1-4.3c-0.1-0.2-0.1-0.4-0.1-0.5C230.5,43.4,230.8,43.2,231.4,43.2z M237.9,38.7h3.6c0.9,0,1.4,0.4,1.4,1.2
		c0,0.4-0.2,1-0.6,1.9l-2.1,4.4c-0.1,0.2-0.1,0.4-0.1,0.5c0,0.2,0.2,0.2,0.5,0.2h1.5c1,0,1.4,0.5,1.4,1.6c0,0.9-0.1,2.2-0.3,4
		c-0.3,2.7-0.8,4.8-1.3,6.5c-0.1,0.4-0.3,0.8-0.4,1.2c0.5,0.6,1,1,1.6,1.4c0.9,0.5,1.9,0.8,3.1,0.9h8.3c0.6,0,0.8,0.4,0.8,1.1
		c0,0.7-0.4,1.1-1.1,1.1h-7.8c-1.4,0-2.6-0.3-3.6-0.6c-0.9-0.4-1.7-0.9-2.4-1.5c-0.6,1-1.2,1.9-2,2.7c-0.2,0.3-0.4,0.4-0.6,0.4
		c-0.7,0-1.1-0.4-1.1-1c0-0.3,0.2-0.7,0.5-1c0.8-1,1.5-1.9,2-2.8c-0.5-0.9-0.9-1.9-1.2-3.1c-0.5-2-0.7-3.3-0.7-3.7
		c0-0.8,0.4-1.1,1.1-1.1c0.5,0,0.8,0.3,0.9,0.8c0.3,1.8,0.6,3.2,1,4.4c0.3-1.2,0.6-2.6,0.8-4.1c0.3-1.6,0.4-3,0.4-4.1
		c0-0.4-0.2-0.6-0.7-0.6h-2c-0.9,0-1.4-0.3-1.4-1c0-0.4,0.1-0.9,0.4-1.6l2.3-4.9c0.1-0.2,0.2-0.5,0.2-0.6c0-0.1-0.2-0.2-0.5-0.2
		h-1.7c-0.7,0-1-0.3-1-1C236.9,39.1,237.2,38.7,237.9,38.7z M252.6,38.1c0.8,0,1.3,0.4,1.3,1.3c0,0.4-0.2,0.7-0.7,1
		c-1,0.3-2.1,0.6-3.2,0.9v6h3.2c0.6,0,1,0.3,1,1c0,0.7-0.3,1.1-1,1.1h-3.2v8h2.7c0.7,0,1,0.3,1,1c0,0.7-0.3,1.1-1,1.1h-7.2
		c-0.7,0-1-0.4-1-1.1c0-0.6,0.3-1,1-1h2.5v-8h-3.1c-0.6,0-1-0.4-1-1.1c0-0.7,0.3-1,1-1h3.1v-5.6c-1.1,0.2-2.2,0.3-3.2,0.3
		c-0.8,0-1.2-0.4-1.2-1.2c0-0.6,0.4-0.9,1-0.9c1.1-0.1,2.3-0.2,3.5-0.4C249.5,39.1,251,38.7,252.6,38.1z"/>
	<path id="XMLID_83_" class="st1" d="M284.7,37.8c0.7,0,1.1,0.3,1.1,1c0,0.7-0.4,1.1-1.1,1.1H262c-0.6,0-1,0.3-1,1v20.7
		c0,0.7,0.3,1,1,1h22.6c0.7,0,1.1,0.3,1.1,1c0,0.8-0.4,1.1-1.1,1.1h-23.5c-1.6,0-2.3-0.8-2.3-2.4V39.9c0-1.5,0.8-2.2,2.3-2.2H284.7z
		 M262.6,47.1c0.2,0,0.5,0.1,0.9,0.2c1.1,0.6,2.1,1.2,3,1.8c0.3,0.3,0.5,0.6,0.5,1c0,0.7-0.3,1-1,1c-0.3,0-0.6-0.1-0.8-0.2
		c-0.9-0.7-1.9-1.3-3-2c-0.4-0.3-0.6-0.5-0.6-0.8C261.5,47.4,261.9,47.1,262.6,47.1z M267.4,52.7c0.6,0,1,0.4,1,1
		c0,0.1-0.1,0.4-0.2,0.7c-0.8,1.8-1.7,3.2-2.5,4.3c-0.8,1.1-1.5,1.8-2,2.3c-0.3,0.2-0.6,0.3-0.8,0.3c-0.7,0-1.1-0.4-1.1-1.1
		c0-0.2,0.1-0.3,0.3-0.6c0.8-0.8,1.5-1.5,2-2.2c0.8-1,1.6-2.4,2.4-4.1C266.6,52.9,267,52.7,267.4,52.7z M263.1,41
		c0.3,0,0.6,0.1,0.9,0.2c1.3,0.9,2.4,1.7,3.4,2.6c0.3,0.3,0.5,0.6,0.5,0.9c0,0.7-0.3,1-1,1c-0.3,0-0.5-0.1-0.7-0.2
		c-1-0.9-2.2-1.7-3.4-2.6c-0.4-0.3-0.6-0.6-0.6-0.9C262.1,41.4,262.4,41,263.1,41z M273.1,40.6c0.7,0,1.1,0.3,1.1,1
		c0,0.2,0,0.5-0.1,0.7c-0.3,0.7-0.6,1.3-0.9,1.9h3.8c0.2-0.2,0.3-0.5,0.5-0.7c0.5-0.7,0.9-1.5,1.4-2.3c0.2-0.3,0.6-0.5,1-0.5
		c0.2,0,0.5,0.1,0.7,0.3c0.2,0.2,0.3,0.4,0.3,0.7c0,0.2-0.1,0.5-0.3,0.7c-0.3,0.6-0.6,1.1-0.9,1.6c0,0-0.1,0.1-0.1,0.2h4.8
		c0.7,0,1,0.3,1,1c0,0.7-0.3,1-1,1h-5.5v2.7h4.9c0.7,0,1,0.3,1,1c0,0.7-0.3,1-1,1h-4.9v3h5c0.7,0,1,0.3,1,1c0,0.6-0.3,1-1,1h-5v3
		h5.6c0.7,0,1.1,0.3,1.1,1c0,0.7-0.4,1-1.1,1h-13c-1.3,0-2-0.6-2-1.9V48.4c-0.3,0.2-0.6,0.4-1,0.6c-0.1,0.1-0.3,0.1-0.4,0.1
		c-0.8,0-1.2-0.4-1.2-1.2c0-0.4,0.2-0.7,0.7-1c1.4-0.9,2.4-1.9,3.1-2.9c0.6-0.7,1.1-1.8,1.7-3.2C272.5,40.7,272.8,40.6,273.1,40.6z
		 M271.3,46.7v2.1h5.1v-2.7h-4.7c0,0,0,0.1-0.1,0.1C271.6,46.3,271.5,46.5,271.3,46.7z M271.3,50.8v3h5.1v-3H271.3z M271.3,55.7v2
		c0,0.7,0.3,1,1,1h4.2v-3H271.3z"/>
</g>
<g id="XMLID_448_">
	<g id="XMLID_123_">
		
			<radialGradient id="XMLID_00000009586895923834406580000016765320244246119604_" cx="64.9195" cy="55.0053" r="44.0101" gradientUnits="userSpaceOnUse">
			<stop  offset="0" style="stop-color:#D4ECEA"/>
			<stop  offset="5.736902e-02" style="stop-color:#CAE7E7"/>
			<stop  offset="0.3204" style="stop-color:#9AD4D8"/>
			<stop  offset="0.4518" style="stop-color:#83CCD2"/>
			<stop  offset="0.527" style="stop-color:#80C9D2"/>
			<stop  offset="0.6262" style="stop-color:#78BED0"/>
			<stop  offset="0.7389" style="stop-color:#6CABCB"/>
			<stop  offset="0.8615" style="stop-color:#5D91C3"/>
			<stop  offset="0.9908" style="stop-color:#4D6FB5"/>
			<stop  offset="1" style="stop-color:#4B6CB3"/>
		</radialGradient>
		<path id="XMLID_124_" style="fill:url(#XMLID_00000009586895923834406580000016765320244246119604_);" d="M90.6,72.9
			c-9.4,14.4-25,23.6-41,23.4c4.8,1.8,10,2.7,15.3,2.7h0.4c4.8-0.8,9.5-2.1,14.2-3.6c0.8-0.2,1.5-0.1,2,0.3
			c5.8-2.3,10.9-5.9,15.2-10.4c0.2-5,1.8-10.3-2.1-14.1C93.3,69.8,91.4,71.5,90.6,72.9z M45,74c3.1-0.4,7.6-2.9,5.8-6
			c-7.2-12.6-10.8-28.7,2-39.2c16.4-13.5,38.8-7.3,52.1,7.7c-1.7-3.8-4-7.3-6.7-10.4c-12.8-7.9-28.3-11.7-42.5-4.3
			c-0.1-1.4-0.8-2.9-2.2-3.7c9.9-4.3,21-5.2,31.8-2.1C79.1,12.8,72.2,11,64.9,11c-17.4,0-32.5,10.2-39.7,24.9
			c0.5,1.3,1.3,2.5,2.7,3.4c1.5,1.2,3.1-0.9,3.9-2.3c3.9-6.3,8.9-11.4,14.6-15.1c1.8,0,3.7,1.1,4.6,2.7
			c-11.5,8.1-13.8,21.8-15.1,34.9C35.6,63,31,62,28.7,60.3c-3.5-2.8-5.9-6.3-7.5-10.2c-0.2,1.6-0.3,3.3-0.3,4.9
			c0,2.1,0.2,4.1,0.4,6.1c0.5,0.8,1.1,1.6,1.7,2.4C28.5,70.4,36.3,75,45,74z M108,45.8C97.3,29.5,76.3,17.5,58,30.6
			c-4.7,3.5-7.4,8-8.1,13.6c-1.4,9.1,4.4,12.9,11.6,17c4,2.4,3.6,7,2.2,9.9c-2.9,5.6-9.1,8.5-15.2,9.1c-10.2,1-18.6-3.6-25-10.4
			c1.1,3,2.5,5.8,4.1,8.5c2,1.5,4.1,2.7,6.5,3.7c11.3,4.7,25.4,3.7,34-6.2c8.7-9.9,4-20.6-6.3-26.3c-3.3-1.8-4.6-5.5-4-8
			c1.4-5.5,5.9-8.9,10.9-10.3c18.3-5.7,33.3,9.1,40.2,24.7c0-0.3,0-0.6,0-0.8C108.9,51.9,108.6,48.8,108,45.8z M81.5,36.2
			c-3.5-0.4-7.8-0.7-10.3,2.3c-1.4,1.7-0.3,4.7,1,6.5c7.4,10.1,9,23.3,0.6,33C62.4,90,46.2,91,32.8,85.1c2.1,2.2,4.3,4.1,6.7,5.8
			c11.8,3,24.7,1.1,34.6-7.8c9.1-8.1,11-20.2,11.8-31.6c0-1.7,1.9-3.7,3.9-3.1c8.3,2.8,11.2,10.1,12.7,18
			c-3.3-3.8-10.5-9.1-14.1-0.6v3.4c1.2-7.3,11.5-7.9,15.3,5.7c0,0.2,0.1,0.4,0.1,0.7c1.5-2.8,2.7-5.8,3.5-8.9
			c-0.3-0.7-0.5-1.5-0.6-2.2C104.4,51.1,95.7,38,81.5,36.2z"/>
	</g>
</g>
<g id="XMLID_1_">
	<path id="XMLID_2_" d="M148.4,78l-7.8,13.4h-4.1l3.7-6.3h-6.6l-3.7,6.3h-4.1l7.8-13.4h4l-3.5,6h6.6l3.5-6H148.4z"/>
	<path id="XMLID_4_" d="M163.6,79h-8.7c-0.9,0-2,0.6-2.4,1.3l-2.1,3.5h10.3l-2.8,4.8c-0.9,1.5-3,2.7-4.8,2.7h-11.1l0.6-1.1h8.6
		c0.9,0,2-0.6,2.4-1.3l2.3-3.9h-10.3l2.5-4.4c0.9-1.5,3-2.7,4.8-2.7h11.1L163.6,79z"/>
	<path id="XMLID_6_" d="M173,78l0.9,4.2l5.9-4.2h3.8l-9.1,6.6l-3.9,6.7h-4.1l3.9-6.7L169,78H173z"/>
	<path id="XMLID_8_" d="M191,88.7c-0.9,1.5-3,2.7-4.8,2.7h-9.2l3.1-5.3h8.4l1.3-2.2h-8.4l0.6-1.1h12.4L191,88.7z M181.6,90.3h2.8
		c0.9,0,2-0.6,2.4-1.3l1.1-1.9h-4.4L181.6,90.3z"/>
	<path id="XMLID_11_" d="M195.8,90.3h7.2l-0.6,1.1h-11.2l5.1-8.7h11.2l-0.6,1.1h-7.2L195.8,90.3z"/>
	<path id="XMLID_13_" d="M203.6,91.4l7.8-13.3h4.1l-3,5.2h8.6l-4.7,8.1h-4l4.1-7h-4.6l-4.1,7H203.6z"/>
	<path id="XMLID_15_" d="M230.6,79.5l-1.8,3.1h3l-0.6,1.1h-3l-3.9,6.6h3l-0.6,1.1h-7.1l4.5-7.7h-2.7l0.6-1.1h2.7l1.8-3.1H230.6z"/>
	<path id="XMLID_17_" d="M236.7,90.2h9.3l-0.6,1.1h-13.4l7.8-13.3h13.4l-0.6,1.1h-9.3L236.7,90.2z"/>
	<path id="XMLID_19_" d="M258.3,78.1l-7.7,13.3h-4.1l7.8-13.3H258.3z"/>
	<path id="XMLID_21_" d="M270.5,82.7l-5,8.6h-4.1l0.3-0.4c-0.6,0.3-1.2,0.4-2,0.4h-7.3l5-8.6h4l-4.4,7.6h2.5c1.1,0,2-0.3,3-1
		l3.9-6.6H270.5z"/>
	<path id="XMLID_23_" d="M276.3,82.7h8.8l-3.5,6c-0.9,1.5-3,2.7-4.8,2.7h-9.6l7.8-13.4h4.1L276.3,82.7z M271.9,90.3h3.2
		c0.9,0,2-0.6,2.4-1.3l3.1-5.2h-4.8L271.9,90.3z"/>
</g>
</svg>
