<svg width="1075" height="276" viewBox="0 0 1075 276" fill="none" xmlns="http://www.w3.org/2000/svg">
<path d="M128.52 14.24C192.24 14.24 244.44 62.59 249.49 124.07C247.53 126.62 244.73 128.03 241.65 128.68C230.84 130.97 227.51 121.61 218.54 115.71C209.52 109.77 201.25 107.48 192.9 99.11C189.55 95.76 188.69 90.06 185.36 86.55C180.92 81.85 178.2 80.53 172.18 78.18C161.6 74.08 152.52 71.03 143.72 63.76C142.24 62.51 138.74 60.89 135.48 60.3C134.08 60.05 133.45 60.25 132.97 60.82C131.67 62.46 130.47 64.49 129.32 66.43C128.99 66.97 127.91 68.51 127.02 69.32C125.32 70.88 123.2 72.8 121.57 73.79C112.74 79.14 101.07 83.76 96.05 92.82C95.1 94.53 85.45 98.97 83.22 100.77C79.72 103.61 76.27 106.45 72.67 109.14C69.3 111.64 64.63 115.54 61.13 118.14C59.26 117.45 57.37 116.83 55.61 116.49C51.45 115.67 47.97 112.53 44.42 110.31C39.83 107.45 40.19 107.12 38.74 106.3C37.49 105.59 36.86 105.2 36.36 104.92C32.97 102.96 32.77 104.95 27.96 107.9C23.93 110.39 19.3 114.5 15.84 117.75C13.08 120.32 10.26 123.08 7.4 125.94C11.53 63.57 64.16 14.24 128.52 14.24ZM30.31 204.1C20.96 191.45 14.07 176.91 10.33 161.2C11.4 161.43 12.7 161.77 14.88 162.48C22.03 164.81 35.48 169.23 45.19 164.72C51.36 161.86 62.08 159.52 66.2 157.87C70.09 156.29 78.34 159.91 68.61 153.53C68.59 153.51 68.57 153.5 68.57 153.5C68.44 153.42 68.29 153.33 68.06 153.24C67.75 153.12 67.42 153.04 67.07 152.95C66.1 152.69 58.32 154.29 56.59 154.03C56.05 153.89 55.52 153.7 55.03 153.43C50.78 151.12 68.83 137.05 69.42 133.49C64.25 134.04 59.96 137.33 55.33 139.37C49.88 141.78 43.92 141.84 38.08 141.86C31.41 141.88 26.21 147.07 20.34 149.46C17.28 150.71 12.24 151.88 8.85 154.12C8.6 152.67 8.38 151.21 8.18 149.75C8.28 147.2 8.57 144.15 9.18 140.67C10.51 133.02 13.62 127.12 20.51 117.94C20.51 117.94 27.23 109.85 31.14 107.26C32.66 106.25 34.33 104.74 35.93 105.76C37.62 106.84 35.45 113.45 40.02 114.56C42.79 115.23 40.35 119.79 41.3 122.46C42.32 125.31 29.91 136.14 33.19 137.47C35.02 138.22 43.24 134.06 47.6 132.66C51.46 131.44 55.54 131.36 59.76 127.4C64.1 123.34 68.43 121.1 68.43 121.1C71.94 118.15 75.38 115.09 78.87 112.08C82.26 109.13 85.51 106.06 88.8 102.97C90.86 101.01 100.19 95.89 101.02 94.1C105.36 84.71 116.67 79.26 125.09 73.29C126.64 72.2 128.32 69.93 129.26 68.62C130.22 67.3 131.22 65.36 131.77 64.73C132.86 63.49 133.12 62.57 134.32 62C134.81 61.77 136.69 61.75 137.53 62.65C140.26 65.58 143.99 68.08 144.14 71.15C144.35 75.89 157.58 80.01 160.58 83.68C161.82 85.21 162.56 86.62 163.07 88.06C160.75 87.09 158.49 86.02 156.47 84.54C155.13 83.57 152.02 83.84 150.42 83.54C145.87 82.69 146.92 84.89 149.45 87.49C152.04 90.18 155.03 92.52 157.41 95.44C160.14 98.81 159.89 101.55 160.62 105.56C161.42 109.89 163.99 113.61 166.08 117.39C168.22 121.23 168.06 125.31 169.25 129.4C170.51 133.5 174.01 136.95 176.91 139.95C179.4 142.57 185.03 148.95 188.1 147.57C191.37 146.11 195.42 150.09 196.65 149.01C197.87 147.93 193.37 142.69 195.1 141.06C196.84 139.45 204.35 141.95 205.88 146.79C207.63 152.36 207.47 152.86 207.18 156.91C207 159.53 205.94 161.75 204.13 163.58C201.92 165.85 196.76 169.55 197.78 173.32C202.52 170.75 207.66 170.5 212.95 170.7C218.1 170.88 221.86 168.75 225.3 165.06C226.82 163.45 231.18 158.34 233.67 160.88C235.17 162.43 230.76 168.71 235.58 167.41C238.81 166.52 241.69 164.05 244.6 162.45C245.39 162.02 246.09 161.57 246.72 161.1C242.92 177.09 235.88 191.86 226.29 204.67L229.81 207.56C246.85 185.76 257.03 158.34 257.03 128.52C257.03 57.55 199.49 0 128.51 0C57.53 0 0 57.55 0 128.52C0 158.07 10 185.27 26.76 206.99L30.31 204.1ZM82.52 204.2C82.31 205.66 80.42 217.44 78.33 230.45C74.51 229.62 70.69 228.18 66.41 225.84C62.17 223.45 58.96 220.98 56.25 218.2C66.21 209.55 75.21 201.72 76.32 200.75C79 198.47 80.31 197.95 81.56 198.64C82.79 199.32 83.04 200.72 82.52 204.2ZM89.92 185.11C89.88 185.07 89.62 184.93 89.27 184.74C88.92 184.55 88.66 184.39 88.63 184.38C88.65 184.39 88.66 184.39 88.66 184.39C82.64 181.05 76.63 181.21 69.77 186.21C60.28 193.13 14.63 231.78 14.63 231.78L27.78 242.99C27.78 242.99 35.11 236.61 44.09 228.78C48.47 232.66 53.45 236.21 59.01 239.29C64.54 242.35 70.19 244.7 75.77 246.35C73.88 258.12 72.34 267.74 72.34 267.74L88.78 272.98C88.78 272.98 97.48 213.78 98.33 202.08C98.95 193.65 95.93 188.45 89.92 185.11ZM119.45 275.22H136.45V190.84H119.45V275.22ZM188.83 225.91C184.56 228.24 180.75 229.66 176.96 230.48C174.9 217.46 173.04 205.67 172.79 204.21C172.28 200.73 172.54 199.34 173.78 198.65C175.02 197.95 176.34 198.49 179 200.77C180.14 201.74 189.13 209.58 199.06 218.24C196.33 221.02 193.1 223.51 188.83 225.91ZM166.73 184.38C166.7 184.39 166.43 184.55 166.09 184.74C165.72 184.93 165.46 185.09 165.44 185.11C165.46 185.09 165.48 185.07 165.46 185.08C159.45 188.41 156.38 193.6 156.99 202.05C157.84 213.77 166.43 272.97 166.43 272.97L182.91 267.75C182.91 267.75 181.39 258.15 179.5 246.39C185.12 244.72 190.76 242.38 196.33 239.3C201.84 236.24 206.83 232.69 211.19 228.83C220.17 236.66 227.5 243.07 227.5 243.07L240.68 231.88C240.68 231.88 195.07 193.15 185.61 186.22C178.78 181.24 172.77 181.07 166.73 184.38ZM170.3 160.19C167.33 154.38 156.85 158.91 151.55 154.03C150.09 152.68 146.99 149.9 145.41 145.07C143.9 140.49 141.62 136.84 137.77 133.87C130.95 128.57 114.84 120.45 115.94 109.6C116.45 104.74 122.32 103.69 124.74 100.15C126.19 98.04 126.38 95.25 128.11 93.31C130.03 91.14 127.32 91.08 125.43 90.99C121.36 90.82 118.33 95.24 114.97 97.04C109.45 99.98 104.48 104.1 98.26 105.46C96.44 105.85 87.11 108.75 93.19 110.26C97.34 111.3 101.99 111.02 105.43 113.99C109.86 117.77 113.45 122.64 117.89 126.45C120.15 128.41 122.34 130.24 124.18 132.63C126.28 135.35 126.01 138.46 127.58 141.34C129.09 144.08 132.07 141.56 133.93 143.11C139.99 148.15 131.54 150.62 129.37 152.96C126.51 156.04 125.98 158.06 120.73 160.19C118.43 161.12 103.47 162.91 101.63 164.31C99.81 165.71 100.76 166.11 101.24 166.64C101.72 167.17 104.31 168.01 105.43 168.12C111.71 168.71 131.08 172.37 135.03 167.41C137.73 164.02 141.76 163.64 146.22 164.86C149.33 165.71 155.56 165.08 160.94 162.88C164.06 161.6 172.7 161.46 170.3 160.19Z" fill="#D31045"/>
<path d="M456.403 126.43L380.983 126.04C386.353 146.36 399.483 164.5 420.393 180.53C432.993 170.41 442.163 159.87 447.863 148.96C453.563 138.05 456.403 130.53 456.403 126.43ZM370.413 138.81V139.01C365.593 153.05 360.583 165.12 355.353 175.24C350.143 185.36 344.853 193.99 339.503 201.09C334.143 208.2 330.713 212.29 329.213 213.34C327.713 214.4 326.143 214.92 324.553 214.92C322.693 214.92 321.123 214.25 319.843 212.95C318.573 211.65 317.923 210.02 317.923 208.1C317.923 205.8 319.423 202.98 322.453 199.65C342.813 176.72 357.933 140.74 367.803 91.7202L321.193 90.9702C318.693 89.2302 317.453 87.0201 317.453 84.3301C317.453 82.3401 318.153 80.4201 319.553 78.5701C319.993 78.0501 336.953 77.8102 370.403 77.8102C372.113 61.9102 373.393 53.1601 374.193 51.5701C374.983 49.9601 376.833 49.1602 379.723 49.1602C384.513 49.1602 386.913 51.3701 386.913 55.7901C386.913 57.6401 386.113 64.7901 384.513 77.2301L493.413 77.9801C495.833 79.8401 497.043 82.1501 497.043 84.8901C497.043 86.7001 496.473 88.5202 495.313 90.4102C491.353 90.7602 488.913 90.9702 488.013 90.9702H382.803C381.013 99.9602 379.493 106.72 378.283 111.22L461.303 111.81C467.513 114.32 470.643 118.6 470.643 124.68C470.643 131.17 467.843 140.38 462.273 152.37C456.703 164.35 446.733 176.56 432.383 188.98C446.733 198.02 466.873 206.9 492.833 215.61C493.543 217.91 493.893 219.79 493.893 221.28C493.893 224.61 491.943 226.84 488.033 228.01C459.393 219.48 436.783 209.55 420.203 198.21C396.093 213.79 368.803 223.56 338.303 227.53C335.293 226.06 333.793 223.77 333.793 220.7C333.793 219.21 334.163 217.73 334.943 216.18C338.213 214.63 343.783 213.14 351.673 211.67C372.423 207.62 391.273 200.07 408.173 188.98C390.233 174.57 377.623 157.86 370.413 138.81Z" fill="#D31045"/>
<path d="M623.305 78.0195L623.485 195.88C624.455 193.44 625.985 192.23 628.085 192.23C629.555 192.23 633.535 193.99 640.005 197.52C646.505 201.06 652.415 202.84 657.765 202.84C663.255 202.84 667.535 200.75 670.595 196.62C673.645 192.47 675.195 186.96 675.195 180.08C675.195 172.52 672.585 165 667.355 157.58C662.135 150.16 656.595 143.99 650.675 139.03C649.065 137.17 648.275 134.94 648.275 132.37C648.275 130.05 648.945 127.21 650.285 123.79L670.175 73.2895C670.565 72.4395 669.965 71.5695 668.375 70.6795L629.395 70.8795C625.345 71.2595 623.305 73.6495 623.305 78.0195ZM609.565 82.8995C609.565 84.1895 604.815 84.7995 595.275 84.7995L570.345 85.0995V120.66H601.755C603.535 121.33 605.255 122.98 606.975 125.52C607.245 131.24 604.195 134.11 597.845 134.11H569.765C568.305 150.33 566.535 161.73 564.485 168.33L607.265 169.09C608.025 169.73 608.725 170.47 609.365 171.3L609.565 82.8995ZM684.705 72.3095V72.5095C681.625 83.0095 675.475 99.5395 666.255 122.08C664.515 126.7 663.655 129.68 663.655 131.01C663.655 132.5 665.675 135.08 669.705 138.8C682.445 150.59 688.835 164.41 688.835 180.31C688.835 191.79 685.875 200.67 679.945 206.99C674.025 213.3 666.735 216.45 658.085 216.45C651.875 216.45 644.685 214.75 636.505 211.36C628.335 207.97 623.925 205.43 623.305 203.77V222.99C623.305 224.79 622.355 226.37 620.445 227.69C618.565 229.03 617.095 229.73 616.095 229.73C614.745 229.73 613.305 229.03 611.815 227.69C610.305 226.37 609.555 224.33 609.555 221.64L609.745 181.29L609.165 181.85C605.325 182.62 588.985 182.97 560.155 182.92C554.905 195.66 547.835 206.51 538.965 215.49C530.085 224.44 523.735 228.94 519.885 228.94C517.705 228.94 515.985 228.16 514.745 226.58C513.495 225 512.935 223.88 513.055 223.16L514.315 217.31C527.695 209.03 537.735 197.64 544.405 183.09L518.075 182.42C515.705 180.31 514.525 178 514.525 175.51C514.525 173.59 515.225 171.7 516.615 169.85C518.355 169.27 529.305 169.01 549.505 169.07C552.845 159.25 554.945 147.8 555.845 134.66L522.595 134.09C520.275 132.12 519.135 129.87 519.135 127.38C519.135 125.31 519.955 123.36 521.625 121.5C522.085 120.92 533.415 120.64 555.645 120.64V84.7795H519.415C516.145 82.8895 514.525 80.4495 514.525 77.5295C514.525 73.0795 517.065 70.8595 522.185 70.8595H555.835L556.625 51.1495C558.475 48.3995 560.565 47.0195 562.935 47.0195C564.915 47.0195 566.655 47.9995 568.115 49.9595C569.605 51.9195 570.335 54.2395 570.335 56.9295V70.4795L607.285 71.2395C608.285 72.1495 609.045 73.0095 609.545 73.8395V70.4695C609.415 66.7595 610.495 63.6395 612.785 61.1095C615.075 58.5595 618.095 57.3195 621.825 57.3195H667.565C672.895 57.3195 677.085 58.7895 680.115 61.7295C683.195 64.6895 684.705 68.2195 684.705 72.3095Z" fill="#D31045"/>
<path d="M795.564 120.84C792.224 132.3 787.704 143.4 781.954 154.1C776.224 164.81 769.524 174.93 761.874 184.48C754.224 194.01 744.594 203.91 732.984 214.15C721.394 224.41 714.304 229.54 711.664 229.54C709.184 229.54 707.164 228.73 705.664 227.13C704.164 225.54 703.414 224.15 703.414 223.01L704.854 217.92C717.854 209 729.644 199.11 740.174 188.22C750.704 177.33 759.684 165.43 767.074 152.52C774.484 139.61 779.584 126.94 782.414 114.5C785.244 102.07 786.644 86.5998 786.644 68.0898C786.644 58.6598 787.304 53.0798 788.614 51.2498C789.924 49.4498 791.454 48.5898 793.184 48.5898C798.174 48.5898 800.664 54.7598 800.664 67.1198L800.374 83.1698C800.374 90.0998 801.304 96.2398 803.124 101.59C804.964 106.95 808.084 114.99 812.504 125.72C816.924 136.46 822.434 147.23 829.074 158.09C835.704 168.96 842.744 178.5 850.234 186.73C857.684 194.98 864.744 201.5 871.414 206.35C878.074 211.17 882.114 214.48 883.574 216.23C885.014 218 885.734 219.94 885.734 222.04C885.734 226.33 883.814 228.48 879.974 228.48C873.424 228.48 860.584 218.09 841.374 197.28C822.164 176.51 806.904 151.03 795.564 120.84Z" fill="#D31045"/>
<path d="M1013.78 207.33V207.05C1001.61 199.94 994.275 195.24 991.775 192.93C991.385 189.78 991.935 187.43 993.405 185.86C994.875 184.29 996.215 183.5 997.445 183.5C998.735 183.5 1002.03 184.84 1007.35 187.48C1012.68 190.16 1017.18 193.78 1020.92 198.41C1020.91 202.82 1018.53 205.79 1013.78 207.33ZM961.985 181.11L925.475 180.73L924.605 181.11L924.015 204.18L924.805 205.13L959.865 204.77H962.165C962.625 201.55 962.835 197.94 962.835 193.91C962.835 190.95 962.715 186.81 962.455 181.51L961.985 181.11ZM967.735 218.49H967.925L940.245 219.07C935.955 219.07 931.285 218.92 926.265 218.64C921.225 218.35 918.025 217.69 916.605 216.66C915.205 215.65 913.985 214.25 912.915 212.53C911.855 210.78 911.165 208.98 910.795 207.05C910.445 205.12 910.275 202.97 910.275 200.51L910.455 190.72L910.275 180.15C910.275 177.07 911.575 174.23 914.165 171.63C916.765 169.03 918.475 167.73 919.305 167.73L940.735 168.14C955.465 168.32 963.505 168.34 964.865 168.19C966.205 168.02 968.045 168.85 970.395 170.68C972.725 172.49 974.385 174.86 975.335 177.74C976.295 180.61 976.785 184.39 976.785 188.98C976.785 199.17 976.195 206.45 975.005 210.78C973.795 215.16 971.395 217.72 967.735 218.49ZM1054.15 144.88H909.685C906.155 143.39 904.405 141.15 904.405 138.14C904.405 133.72 907.075 131.51 912.375 131.51H975.815L976.205 126.81L928.735 126.62C925.085 125.08 923.245 122.78 923.245 119.75C923.245 117.88 923.945 116.24 925.325 114.81C926.695 113.39 927.645 112.69 928.155 112.69H1029.36C1032.19 113.79 1033.59 115.87 1033.59 118.87C1033.59 124.04 1030.74 126.63 1025.03 126.63H989.955L990.325 131.52H1059.42C1061.67 133.8 1062.8 136.18 1062.8 138.64C1062.8 140.52 1062.06 142.28 1060.59 143.9C1057.39 144.55 1055.24 144.88 1054.15 144.88ZM990.325 72.31V77.61L1050.02 78.18C1052.33 80.04 1053.49 82.4 1053.49 85.18C1053.49 87.2 1052.78 89.02 1051.36 90.71C1047.45 91.51 1045.28 91.9 1044.84 91.9H919.865C916.875 89.99 915.365 88.16 915.365 86.44C915.365 80.92 917.945 78.18 923.055 78.18H975.815V73.07L905.175 72.31C902.685 70.72 901.435 68.56 901.435 65.88C901.435 63.7 902.255 61.77 903.925 60.11C910.135 59.39 934.105 59.06 975.815 59.06C975.815 54.44 975.885 51.71 976.015 50.87C976.145 50.05 976.845 48.94 978.065 47.56C979.275 46.18 980.985 45.5 983.235 45.5C985.525 45.5 987.315 46.12 988.595 47.36C989.885 48.62 990.465 52.38 990.325 58.67L1060.01 59.7C1062.18 61.45 1063.28 63.5 1063.28 65.86C1063.28 67.86 1062.45 69.72 1060.77 71.46C1051.16 72.17 1039.43 72.51 1025.6 72.51L990.325 72.31ZM1050.39 130.18V129.98C1048.09 128.19 1046.94 125.98 1046.94 123.35C1046.94 121.37 1048.44 119.16 1051.45 116.72C1054.46 114.28 1056.06 112.01 1056.26 109.9L1055.12 109.11L900.765 109.32C897.735 107.26 896.235 104.88 896.235 102.21C896.235 100.53 896.825 99.08 897.975 97.78C899.135 96.51 900.405 95.87 901.825 95.87L1061.16 96.06C1067.95 98.75 1071.35 103.14 1071.35 109.22C1071.35 114.16 1069.29 118.92 1065.15 123.55C1061.02 128.16 1056.87 130.48 1052.71 130.48C1051.86 130.48 1051.1 130.38 1050.39 130.18ZM1050.39 182.26C1050.2 183.81 1050.11 185.71 1050.11 187.98L1050.39 201C1050.39 218.87 1044.66 227.82 1033.19 227.82C1029.67 227.82 1025.14 227.04 1019.59 225.46C1014.06 223.89 1010.01 222.62 1007.48 221.66C1004.96 220.71 1003.69 218.69 1003.69 215.62C1003.69 213.44 1004.46 211.51 1006.08 209.86C1007.48 209.59 1008.88 209.47 1010.21 209.47C1012.92 209.47 1016.42 210.22 1020.78 211.77C1025.14 213.31 1028.58 214.08 1031.06 214.08C1033.11 214.08 1034.61 213.52 1035.55 212.35C1036.46 211.18 1036.96 207.34 1037.02 200.82L1037.2 182.08L983.855 182.27C981.555 180.93 980.405 178.87 980.405 176.13C980.405 174.71 980.695 173.23 981.275 171.71L985.025 169.49H1036.65L1036.83 162.86L898.445 163.04C895.945 161.45 894.695 159.29 894.695 156.6C894.695 155.33 894.965 154.21 895.495 153.25C896.065 152.28 896.835 151.55 897.865 151.04L899.395 150.26H1067.87C1070.75 150.26 1072.2 152.12 1072.2 155.84C1072.2 160.77 1068.01 163.23 1059.62 163.23L1050.58 163.03L1050.38 169.48H1070.86C1073.29 170.83 1074.53 172.68 1074.53 174.98C1074.53 176.99 1073.61 179.1 1071.84 181.28C1068.76 181.94 1061.59 182.26 1050.39 182.26Z" fill="#D31045"/>
</svg>
