<?xml version="1.0" encoding="utf-8"?>
<!-- Generator: Adobe Illustrator 25.0.1, SVG Export Plug-In . SVG Version: 6.00 Build 0)  -->
<svg version="1.1" id="圖層_1" xmlns="http://www.w3.org/2000/svg" xmlns:xlink="http://www.w3.org/1999/xlink" x="0px" y="0px"
	 viewBox="0 0 150 150" style="enable-background:new 0 0 150 150;" xml:space="preserve">
<style type="text/css">
	.st0{display:none;}
	.st1{display:inline;}
	.st2{display:none;fill-rule:evenodd;clip-rule:evenodd;}
</style>
<path d="M46.3,68.3c-14.2,2.8-20.8,4.6-20.8,7.8c0,1.9,0,11.8,0,11.8c0,1.4,2.7,4.5,4.7,5.9c1.5,5.3,6.4,9.1,12.1,9.1
	c5.4,0,10.1-3.5,11.8-8.4h39.2c1.7,4.9,6.3,8.4,11.8,8.4c5.4,0,10.1-3.5,11.8-8.4h2.8c1.7,0,6.3-4.8,6.3-6.6c0,0,0-12.6,0-14.5
	c0-3.4-1.6-5.6-12.9-7.9c-1.7-3-9.3-12.1-10.7-14.4s-2.9-2.8-5.6-2.8c-2.7,0-26,0-26.9,0c-1,0-2.8,0.2-5.6,2.8
	C60.4,54.7,54.4,60.5,46.3,68.3z M98.8,90.2c0-3.5,2.8-6.3,6.3-6.3s6.3,2.8,6.3,6.3s-2.8,6.3-6.3,6.3
	C101.7,96.5,98.8,93.7,98.8,90.2z M85.1,54.9c4.8,0,9.1,0,10,0c2.1,0,2.8,0.6,4,2.2c0.9,1.3,4.8,6.3,6.4,8.5c1.8,2.6,0.9,3.7-1,3.7
	c-1.1,0-9.7,0-19.4,0V54.9z M56,66.6c2.5-2.4,8.9-8.5,10.5-9.9c1.2-1,2.9-1.7,4.5-1.7c0,0,6.2,0,12.3,0v14.3c-12.9,0-26.9,0-26.9,0
	C54.7,69.3,53.7,68.8,56,66.6z M42.3,83.9c3.5,0,6.3,2.8,6.3,6.3s-2.8,6.3-6.3,6.3S36,93.7,36,90.2C36,86.8,38.8,83.9,42.3,83.9z"/>
<g class="st0">
	<path class="st1" d="M108.5,92.7c0,0.3,0,0.6,0.1,0.9c0.4,5.2,4.8,9.2,10.1,9.2c5.1,0,9.4-3.8,10-8.8c0.1-0.4,0.1-0.8,0.1-1.3
		c0-5.6-4.5-10.1-10.1-10.1C113.1,82.6,108.5,87.1,108.5,92.7z M124.9,91.9H122c-0.1-0.3-0.2-0.6-0.4-0.9l2-2.1
		C124.3,89.8,124.8,90.8,124.9,91.9z M123.7,96.5l-2.1-2.1c0.2-0.3,0.3-0.5,0.4-0.9h2.9C124.8,94.7,124.3,95.7,123.7,96.5z
		 M119.5,96.1c0.3-0.1,0.6-0.2,0.9-0.4l2.1,2c-0.8,0.6-1.8,1.1-2.9,1.2L119.5,96.1L119.5,96.1z M119.5,86.4c1.1,0.2,2.1,0.6,2.9,1.2
		l-2.1,2c-0.3-0.2-0.6-0.3-0.9-0.4L119.5,86.4L119.5,86.4z M117.8,86.4v2.9c-0.3,0.1-0.6,0.2-0.9,0.4l-2-2
		C115.7,87,116.7,86.6,117.8,86.4z M114.8,97.8l2.1-2c0.3,0.2,0.6,0.3,0.9,0.4V99C116.7,98.8,115.7,98.4,114.8,97.8z M112.4,93.6
		h2.9c0.1,0.3,0.2,0.6,0.4,0.9l-2.1,2.1C113,95.7,112.5,94.7,112.4,93.6z M112.4,91.9c0.2-1.1,0.6-2.1,1.2-2.9l2.1,2.1
		c-0.2,0.3-0.3,0.6-0.4,0.9l0,0L112.4,91.9L112.4,91.9z"/>
	<path class="st1" d="M24.7,92.7c0,0.3,0,0.6,0,0.9c0.5,5.2,4.8,9.2,10.1,9.2c5.1,0,9.4-3.8,10-8.8c0-0.4,0.1-0.8,0.1-1.3
		c0-5.6-4.5-10.1-10.1-10.1C29.2,82.6,24.7,87.1,24.7,92.7z M41.1,91.9h-2.9c-0.1-0.3-0.2-0.6-0.4-0.9l2.1-2.1
		C40.5,89.8,40.9,90.8,41.1,91.9z M39.9,96.5l-2.1-2.1c0.2-0.3,0.3-0.5,0.4-0.9h2.9C40.9,94.7,40.5,95.7,39.9,96.5z M35.7,96.1
		c0.3-0.1,0.6-0.2,0.9-0.4l2.1,2c-0.8,0.6-1.8,1.1-2.9,1.2L35.7,96.1L35.7,96.1z M35.7,86.4c1.1,0.2,2.1,0.6,2.9,1.2l-2,2
		c-0.3-0.2-0.6-0.3-0.9-0.4V86.4z M33.9,89.3c-0.3,0.1-0.6,0.2-0.9,0.4l-2.1-2c0.8-0.7,1.8-1.1,2.9-1.2v2.8H33.9z M31,97.8l2.1-2
		c0.3,0.2,0.6,0.3,0.9,0.4V99C32.8,98.8,31.9,98.4,31,97.8z M28.6,93.6h2.9c0.1,0.3,0.2,0.6,0.4,0.9l-2.1,2.1
		C29.1,95.7,28.7,94.7,28.6,93.6z M28.6,91.9c0.1-1.1,0.6-2.1,1.2-2.9l2.1,2.1c-0.2,0.3-0.3,0.6-0.4,0.9l0,0L28.6,91.9L28.6,91.9z"
		/>
	<path class="st1" d="M46.7,94.7l60.2,1.2l0,0c-0.2-0.7-0.3-1.4-0.4-2.2c0-0.3-0.1-0.7-0.1-1c0-6.7,5.4-12.1,12.1-12.1
		s12.1,5.4,12.1,12.1c0,0.5,0,1-0.1,1.5c0,0.3-0.1,0.5-0.1,0.8c4.1-0.5,7.7-1.2,9.6-2.2c0.5-0.9,0.9-1.8,1.2-2.8h-1.5
		c-0.6,0-1.1-0.5-1.1-1.1s0.5-1.1,1.1-1.1h2c0.2-1.5,0.2-2.7,0.1-3.2c-0.1-0.5-0.3-1.2-0.7-2.3h-1.5c-0.6,0-1.1-0.5-1.1-1.1
		s0.5-1.1,1.1-1.1h0.7c-0.2-0.5-0.4-1-0.6-1.6c-1.3-3.5-25.8-8.6-28.3-8.7c-8.4-3.5-22.7-10.4-25.9-11.5
		c-18.8-6.5-38.4-1.2-42.8-0.2c-4.3,1-16.9,6.3-20.2,7.3c-2.3,0.7-7.3,1.5-10.2,2c-1.2,0.2-2.1,1.2-2.1,2.4v7.5c0,0-0.2,0.2-0.5,0.4
		c0.1,0.2,0.2,0.4,0.2,0.6c0,0.6-0.5,1.1-1.1,1.1H9c-0.4,0.9-0.8,2-0.8,3.5c0,5.8,3.9,7.9,3.9,7.9l10.3,1.9h0.2c0,0,0,0,0-0.1
		c0-6.7,5.5-12.1,12.1-12.1c6.7,0,12.1,5.4,12.1,12.1c0,0.5,0,1-0.1,1.5C46.8,94.4,46.8,94.5,46.7,94.7z M44.9,61.4l-5.7,7.8h-5.7
		c-0.2-1.4,0.4-2.7,1.7-3.4C37.2,64.7,40.6,63.1,44.9,61.4z M70.4,74.3c0-0.6,0.5-1.1,1.1-1.1h4.7c0.6,0,1.1,0.5,1.1,1.1
		s-0.5,1.1-1.1,1.1h-4.7C70.9,75.4,70.4,74.9,70.4,74.3z M67.4,58.5c0,0,18,0.3,26.9,8.4c1.3,1.6,2,4.1-1.6,4.1l-22.5-0.7L67.4,58.5
		z M65.5,70L45,69.3c-4.1,0.1-0.7-5.1,2-8.6c0,0,6-2.4,16.6-2.2L65.5,70z"/>
</g>
<path class="st2" d="M17,97.1c1,0.1,1.3-0.4,1.1-1.3c-0.2-1-0.4-2.1-0.4-3.2c0-7.3,5.9-13.1,13.1-13.1c7.3,0,13.1,5.9,13.1,13.1
	c0,1.2-0.1,2.3-0.4,3.3c-0.3,1.3-0.5,2-0.3,2.3s0.8,0.3,1.8,0.3l63.5,0.1c2.7,0,2.6-0.2,2-2.6c-0.3-1.1-0.4-2.2-0.4-3.4
	c0-7.3,5.9-13.1,13.1-13.1c7.3,0,13.1,5.9,13.1,13.1c0,0.5,0,1.1-0.1,1.6c-0.3,2.3-0.9,2.6,0.9,2.7l4.1-0.1c0.8,0,1.4-0.4,2-0.8
	c0.7-0.6,1.1-1.4,1.5-3c0.4-1.7,0.5-4.2,0.3-6.1c-0.1-0.8,0.1-1.5-0.2-2c-0.3-0.7-1.7-0.2-1.9-0.8c-0.3-0.9-0.1-2.7-0.1-5.4
	c0-1.9,0-4.5-0.2-6.1c-0.3-1.9-1.7-2.3-3.3-2.8c-6.4-2.3-13.4-4.4-18-6c-2.1-4.1-5.6-11.3-10.5-14.8c-4.7-3.4-8.6-3.5-14.2-3.5
	L17.4,45c-3.9,0-5.6-0.1-7.4,0.1c-1.5,0.1-2.9,1-3.1,2.7C6.3,63.6,6.1,72.3,6.1,85.1c0,0.6-1.4,0.6-1.4,1.2c0,2.5-0.2,7.3,1.3,8.8
	c0.5,0.5,1.6,0.8,3,1.1C11.4,96.7,14.7,96.9,17,97.1L17,97.1z M112.4,66.5c0.1,0.3-9.4-0.9-15.2-2c-1.5-0.3-2.4-0.7-2.8-2.3
	c-0.7-3.4-1.1-9.8-1.4-12.3c-0.1-0.7,0.2-1.1,1-1.1h6.4c3.9,0,7,0.5,9.8,3.4c2.9,3,5.2,7.6,6.8,10.9c-2-0.1-5.1-1.2-5,0.7
	C112,65.1,112.4,66.2,112.4,66.5L112.4,66.5z M123.2,82.6c5.6,0,10.1,4.5,10.1,10.1s-4.5,10.1-10.1,10.1s-10.1-4.5-10.1-10.1
	C113.1,87.1,117.6,82.6,123.2,82.6L123.2,82.6z M30.9,82.6c5.6,0,10.1,4.5,10.1,10.1s-4.5,10.1-10.1,10.1s-10.1-4.5-10.1-10.1
	S25.3,82.6,30.9,82.6L30.9,82.6z"/>
</svg>
