<?xml version="1.0" encoding="utf-8"?>
<!-- Generator: Adobe Illustrator 25.0.1, SVG Export Plug-In . SVG Version: 6.00 Build 0)  -->
<svg version="1.1" id="圖層_1" xmlns="http://www.w3.org/2000/svg" xmlns:xlink="http://www.w3.org/1999/xlink" x="0px" y="0px"
	 viewBox="0 0 150 150" style="enable-background:new 0 0 150 150;" xml:space="preserve">
<style type="text/css">
	.st0{display:none;}
	.st1{display:none;fill-rule:evenodd;clip-rule:evenodd;}
</style>
<path class="st0" d="M89.2,51.1c-2.8-2.6-4.6-2.8-5.6-2.8c-0.9,0-24.2,0-26.9,0s-4.2,0.5-5.6,2.8c-1.4,2.3-9,11.4-10.7,14.4
	c-11.3,2.3-12.9,4.5-12.9,7.9c0,1.9,0,14.5,0,14.5c0,1.8,4.6,6.6,6.3,6.6h2.8c1.7,4.9,6.4,8.4,11.8,8.4c5.5,0,10.1-3.5,11.8-8.4
	h39.2c1.7,4.9,6.4,8.4,11.8,8.4c5.7,0,10.6-3.8,12.1-9.1c2-1.4,4.7-4.5,4.7-5.9c0,0,0-9.9,0-11.8c0-3.2-6.6-5-20.8-7.8
	C99.1,60.5,93.1,54.7,89.2,51.1z M48.4,96.5c-3.5,0-6.3-2.8-6.3-6.3s2.8-6.3,6.3-6.3s6.3,2.8,6.3,6.3S51.8,96.5,48.4,96.5z
	 M68.4,69.3c-9.7,0-18.3,0-19.4,0c-1.9,0-2.8-1.1-1-3.7c1.6-2.2,5.5-7.2,6.4-8.5c1.2-1.6,1.9-2.2,4-2.2c0.9,0,5.2,0,10,0V69.3z
	 M97.1,69.3c0,0-14,0-26.9,0V55c6.1,0,12.3,0,12.3,0c1.6,0,3.3,0.7,4.5,1.7c1.6,1.4,8,7.5,10.5,9.9C99.8,68.8,98.8,69.3,97.1,69.3z
	 M117.5,90.2c0,3.5-2.8,6.3-6.3,6.3s-6.3-2.8-6.3-6.3s2.8-6.3,6.3-6.3C114.7,83.9,117.5,86.8,117.5,90.2z"/>
<g>
	<path d="M31.4,82.6c-5.6,0-10.1,4.5-10.1,10.1c0,0.5,0,0.9,0.1,1.3c0.6,5,4.9,8.8,10,8.8c5.3,0,9.7-4,10.1-9.2
		c0.1-0.3,0.1-0.6,0.1-0.9C41.6,87.1,37,82.6,31.4,82.6z M26.5,88.9l2,2.1c-0.2,0.3-0.3,0.6-0.4,0.9h-2.9
		C25.3,90.8,25.8,89.8,26.5,88.9z M25.2,93.5h2.9c0.1,0.4,0.2,0.6,0.4,0.9l-2.1,2.1C25.8,95.7,25.3,94.7,25.2,93.5z M30.5,96.1v2.8
		c-1.1-0.1-2.1-0.6-2.9-1.2l2.1-2C30,95.9,30.3,96,30.5,96.1L30.5,96.1z M30.7,86.4v2.8c-0.3,0.1-0.6,0.2-0.9,0.4l-2.1-2
		C28.5,87,29.5,86.6,30.7,86.4L30.7,86.4z M35.2,87.7l-2,2c-0.3-0.2-0.6-0.3-0.9-0.4v-2.9C33.4,86.6,34.4,87,35.2,87.7z M32.3,99
		v-2.8c0.3-0.1,0.6-0.2,0.9-0.4l2.1,2C34.4,98.4,33.4,98.8,32.3,99z M36.5,96.6l-2.1-2.1c0.2-0.3,0.3-0.6,0.4-0.9h2.9
		C37.6,94.7,37.1,95.7,36.5,96.6z M37.7,92h-2.9l0,0c-0.1-0.3-0.2-0.6-0.4-0.9l2.1-2.1C37.1,89.8,37.5,90.8,37.7,92L37.7,92z"/>
	<path d="M115.3,82.6c-5.6,0-10.1,4.5-10.1,10.1c0,0.5,0.1,0.9,0.1,1.3c0.6,5,4.9,8.8,10,8.8c5.3,0,9.6-4,10.1-9.2
		c0-0.3,0-0.6,0-0.9C125.4,87.1,120.9,82.6,115.3,82.6z M110.2,88.9l2.1,2.1c-0.2,0.3-0.3,0.6-0.4,0.9H109
		C109.2,90.8,109.6,89.8,110.2,88.9z M109,93.5h2.9c0.1,0.4,0.2,0.6,0.4,0.9l-2.1,2.1C109.6,95.7,109.2,94.7,109,93.5z M114.3,96.1
		v2.8c-1.1-0.1-2.1-0.6-2.9-1.2l2.1-2C113.8,95.9,114.1,96,114.3,96.1L114.3,96.1z M114.4,89.2c-0.3,0.1-0.6,0.2-0.9,0.4l-2-2
		c0.8-0.6,1.8-1,2.9-1.2V89.2z M116.3,89.3v-2.8c1.1,0.1,2.1,0.5,2.9,1.2l-2.1,2C116.8,89.5,116.5,89.4,116.3,89.3L116.3,89.3z
		 M116.1,99v-2.8c0.3-0.1,0.6-0.2,0.9-0.4l2.1,2C118.2,98.4,117.3,98.8,116.1,99z M120.3,96.6l-2.1-2.1c0.2-0.3,0.3-0.6,0.4-0.9h2.9
		C121.4,94.7,121,95.7,120.3,96.6z M121.5,92h-2.9l0,0c-0.1-0.3-0.2-0.6-0.4-0.9l2.1-2.1C120.9,89.8,121.4,90.8,121.5,92L121.5,92z"
		/>
	<path d="M103.4,94.1c-0.1-0.5-0.1-1-0.1-1.5c0-6.7,5.4-12.1,12.1-12.1c6.6,0,12.1,5.4,12.1,12.1c0,0.1,0,0.1,0,0.1h0.2l10.3-1.9
		c0,0,3.9-2.1,3.9-7.9c0-1.5-0.4-2.6-0.8-3.5h0.2c-0.6,0-1.1-0.5-1.1-1.1c0-0.2,0.1-0.4,0.2-0.6c-0.3-0.2-0.5-0.4-0.5-0.4v-7.5
		c0-1.2-0.9-2.2-2.1-2.4c-2.9-0.5-7.9-1.3-10.2-2c-3.3-1-15.9-6.3-20.2-7.3c-4.4-1-24-6.3-42.8,0.2c-3.2,1.1-17.5,8-25.9,11.5
		c-2.5,0.1-27,5.2-28.3,8.7c-0.2,0.6-0.4,1.1-0.6,1.6h0.7c0.6,0,1.1,0.5,1.1,1.1s-0.5,1.1-1.1,1.1H9c-0.4,1.1-0.6,1.8-0.7,2.3
		c-0.1,0.5-0.1,1.7,0.1,3.2h2c0.6,0,1.1,0.5,1.1,1.1S11,90,10.4,90H8.9c0.3,1,0.7,1.9,1.2,2.8c1.9,1,5.5,1.7,9.6,2.2
		c0-0.3-0.1-0.5-0.1-0.8c-0.1-0.5-0.1-1-0.1-1.5c0-6.7,5.4-12.1,12.1-12.1S43.7,86,43.7,92.7c0,0.3-0.1,0.7-0.1,1
		c-0.1,0.8-0.2,1.5-0.4,2.2l0,0l60.2-1.2C103.3,94.5,103.3,94.4,103.4,94.1z M114.9,65.8c1.3,0.7,1.9,2,1.7,3.4h-5.7l-5.7-7.8
		C109.5,63.1,112.9,64.7,114.9,65.8z M78.6,75.4h-4.7c-0.6,0-1.1-0.5-1.1-1.1s0.5-1.1,1.1-1.1h4.7c0.6,0,1.1,0.5,1.1,1.1
		S79.2,75.4,78.6,75.4z M79.9,70.3L57.4,71c-3.6,0-2.9-2.5-1.6-4.1c8.9-8.1,26.9-8.4,26.9-8.4L79.9,70.3z M86.5,58.5
		c10.6-0.2,16.6,2.2,16.6,2.2c2.7,3.5,6.1,8.7,2,8.6L84.6,70L86.5,58.5z"/>
</g>
<path class="st1" d="M130.8,97.1c2.4-0.2,5.6-0.4,8-0.9c1.4-0.3,2.6-0.6,3-1.1c1.5-1.5,1.3-6.4,1.3-8.8c0-0.6-1.4-0.6-1.4-1.2
	c0-12.8-0.2-21.4-0.9-37.3c-0.2-1.6-1.5-2.5-3.1-2.7c-1.7-0.2-3.4-0.1-7.4-0.1L51,45.4c-5.6,0-9.4,0.2-14.2,3.5
	c-4.8,3.5-8.4,10.7-10.5,14.8c-4.6,1.6-11.6,3.7-18,6c-1.6,0.6-3,0.9-3.3,2.8c0,1.6,0,4.2,0,6.2c0,2.6,0.2,4.5-0.1,5.4
	c-0.2,0.6-1.6,0.1-1.9,0.8c-0.2,0.5-0.1,1.2-0.2,2c-0.1,1.9-0.1,4.4,0.3,6.1c0.4,1.6,0.8,2.4,1.5,3c0.6,0.5,1.2,0.8,2,0.8l4.1,0.1
	c1.8-0.1,1.2-0.4,0.9-2.7c-0.1-0.5-0.1-1-0.1-1.6c0-7.3,5.9-13.1,13.1-13.1c7.3,0,13.1,5.9,13.1,13.1c0,1.2-0.2,2.3-0.4,3.4
	c-0.6,2.3-0.7,2.6,2,2.6l63.5-0.1c1,0,1.6,0,1.8-0.3c0.2-0.3,0.1-1-0.3-2.3c-0.3-1.1-0.4-2.2-0.4-3.3c0-7.3,5.9-13.1,13.1-13.1
	c7.3,0,13.1,5.9,13.1,13.1c0,1.1-0.1,2.1-0.4,3.2C129.5,96.8,129.9,97.2,130.8,97.1L130.8,97.1z M35.4,66.5c0.1-0.3,0.4-1.4,0.5-2.6
	c0.1-2-3-0.9-5-0.7c1.6-3.3,4-7.9,6.8-10.9c2.8-2.9,5.8-3.4,9.8-3.4h6.4c0.8,0,1.1,0.4,1,1.1c-0.3,2.4-0.7,8.9-1.4,12.3
	c-0.3,1.6-1.3,2-2.8,2.3C44.8,65.6,35.3,66.8,35.4,66.5L35.4,66.5z M24.6,82.6c5.6,0,10.1,4.5,10.1,10.1s-4.5,10.1-10.1,10.1
	s-10.1-4.5-10.1-10.1S19,82.6,24.6,82.6L24.6,82.6z M116.9,82.6c5.6,0,10.1,4.5,10.1,10.1s-4.5,10.1-10.1,10.1s-10.1-4.5-10.1-10.1
	S111.3,82.6,116.9,82.6L116.9,82.6z"/>
</svg>
