<?xml version="1.0" encoding="utf-8"?>
<!-- Generator: Adobe Illustrator 25.0.1, SVG Export Plug-In . SVG Version: 6.00 Build 0)  -->
<svg version="1.1" id="圖層_1" xmlns="http://www.w3.org/2000/svg" xmlns:xlink="http://www.w3.org/1999/xlink" x="0px" y="0px"
	 viewBox="0 0 150 150" style="enable-background:new 0 0 150 150;" xml:space="preserve">
<style type="text/css">
	.st0{display:none;}
	.st1{display:inline;}
	.st2{fill-rule:evenodd;clip-rule:evenodd;}
</style>
<path class="st0" d="M89.2,51.1c-2.8-2.6-4.6-2.8-5.6-2.8c-0.9,0-24.2,0-26.9,0s-4.2,0.5-5.6,2.8c-1.4,2.3-9,11.4-10.7,14.4
	c-11.3,2.3-12.9,4.5-12.9,7.9c0,1.9,0,14.5,0,14.5c0,1.8,4.6,6.6,6.3,6.6h2.8c1.7,4.9,6.4,8.4,11.8,8.4c5.5,0,10.1-3.5,11.8-8.4
	h39.2c1.7,4.9,6.4,8.4,11.8,8.4c5.7,0,10.6-3.8,12.1-9.1c2-1.4,4.7-4.5,4.7-5.9c0,0,0-9.9,0-11.8c0-3.2-6.6-5-20.8-7.8
	C99.1,60.5,93.1,54.7,89.2,51.1z M48.4,96.5c-3.5,0-6.3-2.8-6.3-6.3s2.8-6.3,6.3-6.3s6.3,2.8,6.3,6.3S51.8,96.5,48.4,96.5z
	 M68.4,69.3c-9.7,0-18.3,0-19.4,0c-1.9,0-2.8-1.1-1-3.7c1.6-2.2,5.5-7.2,6.4-8.5c1.2-1.6,1.9-2.2,4-2.2c0.9,0,5.2,0,10,0V69.3z
	 M97.1,69.3c0,0-14,0-26.9,0V55c6.1,0,12.3,0,12.3,0c1.6,0,3.3,0.7,4.5,1.7c1.6,1.4,8,7.5,10.5,9.9C99.8,68.8,98.8,69.3,97.1,69.3z
	 M117.5,90.2c0,3.5-2.8,6.3-6.3,6.3s-6.3-2.8-6.3-6.3s2.8-6.3,6.3-6.3C114.7,83.9,117.5,86.8,117.5,90.2z"/>
<g class="st0">
	<path class="st1" d="M108.5,92.7c0,0.3,0,0.6,0.1,0.9c0.4,5.2,4.8,9.2,10.1,9.2c5.1,0,9.4-3.8,10-8.8c0.1-0.4,0.1-0.8,0.1-1.3
		c0-5.6-4.5-10.1-10.1-10.1C113.1,82.6,108.5,87.1,108.5,92.7z M124.9,91.9H122c-0.1-0.3-0.2-0.6-0.4-0.9l2-2.1
		C124.3,89.8,124.8,90.8,124.9,91.9z M123.7,96.5l-2.1-2.1c0.2-0.3,0.3-0.5,0.4-0.9h2.9C124.8,94.7,124.3,95.7,123.7,96.5z
		 M119.5,96.1c0.3-0.1,0.6-0.2,0.9-0.4l2.1,2c-0.8,0.6-1.8,1.1-2.9,1.2L119.5,96.1L119.5,96.1z M119.5,86.4c1.1,0.2,2.1,0.6,2.9,1.2
		l-2.1,2c-0.3-0.2-0.6-0.3-0.9-0.4L119.5,86.4L119.5,86.4z M117.8,86.4v2.9c-0.3,0.1-0.6,0.2-0.9,0.4l-2-2
		C115.7,87,116.7,86.6,117.8,86.4z M114.8,97.8l2.1-2c0.3,0.2,0.6,0.3,0.9,0.4V99C116.7,98.8,115.7,98.4,114.8,97.8z M112.4,93.6
		h2.9c0.1,0.3,0.2,0.6,0.4,0.9l-2.1,2.1C113,95.7,112.5,94.7,112.4,93.6z M112.4,91.9c0.2-1.1,0.6-2.1,1.2-2.9l2.1,2.1
		c-0.2,0.3-0.3,0.6-0.4,0.9l0,0L112.4,91.9L112.4,91.9z"/>
	<path class="st1" d="M24.7,92.7c0,0.3,0,0.6,0,0.9c0.5,5.2,4.8,9.2,10.1,9.2c5.1,0,9.4-3.8,10-8.8c0-0.4,0.1-0.8,0.1-1.3
		c0-5.6-4.5-10.1-10.1-10.1C29.2,82.6,24.7,87.1,24.7,92.7z M41.1,91.9h-2.9c-0.1-0.3-0.2-0.6-0.4-0.9l2.1-2.1
		C40.5,89.8,40.9,90.8,41.1,91.9z M39.9,96.5l-2.1-2.1c0.2-0.3,0.3-0.5,0.4-0.9h2.9C40.9,94.7,40.5,95.7,39.9,96.5z M35.7,96.1
		c0.3-0.1,0.6-0.2,0.9-0.4l2.1,2c-0.8,0.6-1.8,1.1-2.9,1.2L35.7,96.1L35.7,96.1z M35.7,86.4c1.1,0.2,2.1,0.6,2.9,1.2l-2,2
		c-0.3-0.2-0.6-0.3-0.9-0.4V86.4z M33.9,89.3c-0.3,0.1-0.6,0.2-0.9,0.4l-2.1-2c0.8-0.7,1.8-1.1,2.9-1.2v2.8H33.9z M31,97.8l2.1-2
		c0.3,0.2,0.6,0.3,0.9,0.4V99C32.8,98.8,31.9,98.4,31,97.8z M28.6,93.6h2.9c0.1,0.3,0.2,0.6,0.4,0.9l-2.1,2.1
		C29.1,95.7,28.7,94.7,28.6,93.6z M28.6,91.9c0.1-1.1,0.6-2.1,1.2-2.9l2.1,2.1c-0.2,0.3-0.3,0.6-0.4,0.9l0,0L28.6,91.9L28.6,91.9z"
		/>
	<path class="st1" d="M46.7,94.7l60.2,1.2l0,0c-0.2-0.7-0.3-1.4-0.4-2.2c0-0.3-0.1-0.7-0.1-1c0-6.7,5.4-12.1,12.1-12.1
		s12.1,5.4,12.1,12.1c0,0.5,0,1-0.1,1.5c0,0.3-0.1,0.5-0.1,0.8c4.1-0.5,7.7-1.2,9.6-2.2c0.5-0.9,0.9-1.8,1.2-2.8h-1.5
		c-0.6,0-1.1-0.5-1.1-1.1s0.5-1.1,1.1-1.1h2c0.2-1.5,0.2-2.7,0.1-3.2c-0.1-0.5-0.3-1.2-0.7-2.3h-1.5c-0.6,0-1.1-0.5-1.1-1.1
		s0.5-1.1,1.1-1.1h0.7c-0.2-0.5-0.4-1-0.6-1.6c-1.3-3.5-25.8-8.6-28.3-8.7c-8.4-3.5-22.7-10.4-25.9-11.5
		c-18.8-6.5-38.4-1.2-42.8-0.2c-4.3,1-16.9,6.3-20.2,7.3c-2.3,0.7-7.3,1.5-10.2,2c-1.2,0.2-2.1,1.2-2.1,2.4v7.5c0,0-0.2,0.2-0.5,0.4
		c0.1,0.2,0.2,0.4,0.2,0.6c0,0.6-0.5,1.1-1.1,1.1H9c-0.4,0.9-0.8,2-0.8,3.5c0,5.8,3.9,7.9,3.9,7.9l10.3,1.9h0.2c0,0,0,0,0-0.1
		c0-6.7,5.5-12.1,12.1-12.1c6.7,0,12.1,5.4,12.1,12.1c0,0.5,0,1-0.1,1.5C46.8,94.4,46.8,94.5,46.7,94.7z M44.9,61.4l-5.7,7.8h-5.7
		c-0.2-1.4,0.4-2.7,1.7-3.4C37.2,64.7,40.6,63.1,44.9,61.4z M70.4,74.3c0-0.6,0.5-1.1,1.1-1.1h4.7c0.6,0,1.1,0.5,1.1,1.1
		s-0.5,1.1-1.1,1.1h-4.7C70.9,75.4,70.4,74.9,70.4,74.3z M67.4,58.5c0,0,18,0.3,26.9,8.4c1.3,1.6,2,4.1-1.6,4.1l-22.5-0.7L67.4,58.5
		z M65.5,70L45,69.3c-4.1,0.1-0.7-5.1,2-8.6c0,0,6-2.4,16.6-2.2L65.5,70z"/>
</g>
<path class="st2" d="M132.8,97.1c2.3-0.2,5.6-0.4,8-0.9c1.4-0.3,2.5-0.6,3-1.1c1.5-1.5,1.3-6.3,1.3-8.8c0-0.6-1.4-0.6-1.4-1.2
	c0-12.8-0.2-21.5-0.8-37.3c-0.2-1.7-1.6-2.6-3.1-2.7c-1.8-0.2-3.5-0.1-7.4-0.1l-79.2,0.5c-5.6,0-9.5,0.1-14.2,3.5
	c-4.9,3.5-8.4,10.7-10.5,14.8c-4.6,1.6-11.6,3.7-18,6c-1.6,0.5-3,0.9-3.3,2.8C7,74.2,7,76.8,7,78.7c0,2.7,0.2,4.5-0.1,5.4
	c-0.2,0.6-1.6,0.1-1.9,0.8c-0.3,0.5-0.1,1.2-0.2,2c-0.2,1.9-0.1,4.4,0.3,6.1c0.4,1.6,0.8,2.4,1.5,3c0.6,0.4,1.2,0.8,2,0.8l4.1,0.1
	c1.8-0.1,1.2-0.4,0.9-2.7c-0.1-0.5-0.1-1.1-0.1-1.6c0-7.2,5.8-13.1,13.1-13.1c7.2,0,13.1,5.8,13.1,13.1c0,1.2-0.1,2.3-0.4,3.4
	c-0.6,2.4-0.7,2.6,2,2.6l63.5-0.1c1,0,1.6,0,1.8-0.3c0.2-0.3,0-1-0.3-2.3c-0.3-1-0.4-2.1-0.4-3.3c0-7.2,5.8-13.1,13.1-13.1
	c7.2,0,13.1,5.8,13.1,13.1c0,1.1-0.2,2.2-0.4,3.2C131.5,96.7,131.8,97.2,132.8,97.1L132.8,97.1z M37.4,66.5c0-0.3,0.4-1.4,0.4-2.7
	c0.1-1.9-3-0.8-5-0.7c1.6-3.3,3.9-7.9,6.8-10.9c2.8-2.9,5.9-3.4,9.8-3.4h6.4c0.8,0,1.1,0.4,1,1.1c-0.3,2.5-0.7,8.9-1.4,12.3
	c-0.4,1.6-1.3,2-2.8,2.3C46.8,65.6,37.3,66.8,37.4,66.5L37.4,66.5z M26.6,82.6c5.6,0,10.1,4.5,10.1,10.1c0,5.6-4.5,10.1-10.1,10.1
	s-10.1-4.5-10.1-10.1S21,82.6,26.6,82.6L26.6,82.6z M118.9,82.6c5.6,0,10.1,4.5,10.1,10.1s-4.5,10.1-10.1,10.1
	c-5.6,0-10.1-4.5-10.1-10.1S113.3,82.6,118.9,82.6L118.9,82.6z"/>
</svg>
