<?xml version="1.0" encoding="utf-8"?>
<!-- Generator: Adobe Illustrator 25.2.0, SVG Export Plug-In . SVG Version: 6.00 Build 0)  -->
<svg version="1.1" id="圖層_1" xmlns="http://www.w3.org/2000/svg" xmlns:xlink="http://www.w3.org/1999/xlink" x="0px" y="0px"
	 viewBox="0 0 140.7 36.9" style="enable-background:new 0 0 140.7 36.9;" xml:space="preserve">
<style type="text/css">
	.st0{fill:#888988;}
	.st1{fill:#CA171D;}
</style>
<g>
	<g>
		<path class="st0" d="M49.8,24.5v-3.9c0-0.2,0.1-0.3,0.3-0.3h10.5c0.2,0,0.3,0.1,0.3,0.3v3.9H49.8z M61.8,16.2
			c0.6,0.6,1.1,1.2,1.6,1.8l1.6-1.4c-1.6-1.9-3.7-3.9-6.1-6.1L57.4,12c0.4,0.3,1.3,1.1,2.5,2.3l-9.4,0.5c1.3-1.8,2.3-3.3,3-4.6
			l-1.8-1.2c-1.3,2.2-2.6,4.2-4,6l-1.7,0.1c0.2,0.8,0.4,1.5,0.5,2.1L61.8,16.2z M49.8,26.6h11.1v1.1H63V19c0-0.5-0.2-0.7-0.8-0.7
			H48.4c-0.5,0-0.7,0.2-0.7,0.7v8.6h2.1V26.6z"/>
		<path class="st0" d="M73.7,9.6h2.1v1.2h3.2v1.9H70v-1.9h3.7V9.6z M75.5,27.9h-2v-4.8c-0.8,1.3-1.8,2.4-2.8,3.3l-1.7-1.1
			c1.5-1.3,2.8-2.7,3.7-4.1h-3.2v-1.9h3.9V18h-3.8v-1.9H72c-0.4-1-0.8-1.8-1.1-2.3l1.7-0.8c0.4,0.7,0.9,1.6,1.3,2.7l-1.2,0.5H75
			c0.6-1.3,1-2.3,1.3-3.2l1.8,0.7c-0.2,0.8-0.5,1.6-0.9,2.5H79V18h-3.5v1.4H79v1.9h-2.7c0.8,0.8,1.6,1.6,2.3,2.4L77.2,25
			c-0.5-0.6-1-1.3-1.7-2V27.9z M81.8,17v2.7c0,1.5-0.3,2.9-0.7,4c-0.6,1.4-1.5,2.8-2.8,4.3l-1.6-1.5c1.4-1.4,2.2-2.7,2.7-3.8
			c0.3-0.9,0.5-1.9,0.5-3v-9c0-0.4,0.2-0.7,0.5-0.7c2.4,0,4.6-0.2,6.5-0.5l0.7,2c-1.7,0.3-3.5,0.4-5.4,0.5c-0.2,0-0.3,0.1-0.3,0.3
			V15h5.9v2H86v11H84V17H81.8z"/>
		<path class="st0" d="M108.4,15.5v1.3c0,0.3-0.2,0.5-0.5,0.5h-4.6v-1.9H108.4z M92.7,20.9c0.4,0.9,0.7,2.2,1.1,3.9l1.9-0.5
			c-0.3-1.6-0.7-2.9-1.1-3.9L92.7,20.9z M99.1,20.3c-0.4,1.3-0.8,2.3-1,2.9l1.5,0.7c0.3-0.9,0.8-1.9,1.1-3L99.1,20.3z M96,25.3
			c-1.1,0.2-2.1,0.3-2.9,0.5l0.2,1.9c0.3,0,2.6-0.5,6.7-1.4l0.5,1.9c2.4-0.5,4.5-1.1,6.1-1.8l-0.6-1.9c-0.8,0.3-1.6,0.6-2.7,1v-6.3
			h1.4c0.2,2.8,1.1,5.1,2.7,6.7c0.6,0.6,1.5,1.3,2.6,2.1l1.7-1.4c-1.5-0.9-2.7-1.8-3.6-2.8c1.3-1,2.3-2,3.1-2.9l-1.3-1.4
			c-0.7,0.7-1.6,1.6-2.7,2.6c-0.2-0.7-0.4-1.7-0.5-2.9h3.1c0.4,0,0.6-0.2,0.6-0.6v-8.3c0-0.4-0.2-0.6-0.6-0.6h-7.9
			c-0.4,0-0.6,0.2-0.6,0.6v15.6c-0.3,0.1-0.7,0.1-1,0.2c0.1-0.1,0.2-0.1,0.4-0.1l-0.4-1.9c-0.4,0.1-1.2,0.3-2.4,0.6v-5.1h2.6v-1.9
			H98v-1.7h1.9v-1.9h-5.4c1.1-0.7,2.1-1.5,3-2.6l2.6,2.2l1.3-1.6l-3.4-2.5h-1.5c-1.1,1.4-2.4,2.4-3.8,3.1l1.3,1.6c0,0,0,0,0.1,0v1.7
			h2v1.7h-2.8v1.9H96V25.3z M103.3,13.7v-1.5c0-0.3,0.1-0.5,0.5-0.5h4.2c0.3,0,0.4,0.1,0.4,0.4v1.5H103.3z"/>
		<path class="st0" d="M121.1,10.3c-1.1,2.4-2.3,4.3-3.7,5.5l-1.7-1.2c1.6-1.4,2.8-3.1,3.5-5.1L121.1,10.3z M117.1,21.6l-1.6-1.3
			c1.9-1.4,3.4-3.3,4.5-5.5l1.8,0.9c-0.5,0.9-0.9,1.7-1.4,2.4v9.7h-2v-7.2C117.9,20.9,117.5,21.3,117.1,21.6z M133.6,10.3v2h-10.5
			v-2H133.6z M122.4,17V15h11.8V17h-2.5v9c0,0.3-0.1,0.6-0.2,0.8c-0.2,0.3-0.5,0.5-0.8,0.7c-1.2,0.6-3.2,0.5-6-0.1v-2.1
			c0.4,0.1,0.8,0.2,1.1,0.3c1.8,0.4,3,0.5,3.7,0.1c0.1-0.1,0.2-0.3,0.2-0.5V17H122.4z"/>
	</g>
	<g>
		<path class="st1" d="M22.6,4c-4.9,0-8.2,4.1-8.3,7.9c0,3.3,1.4,6.5,5,8c2.1,0.9,5.9,1.6,5.9,5c-0.1,2.7-3.2,4.7-6.2,4.7h-5.1V14.8
			H9.6V7.7h4.3V4H5.9v14.5h4.3v14.8H20c4.8,0,9-3.8,9-8.6c0-4.2-3.3-6.4-7.4-7.7C19,16.1,18,14.1,18,12c0.1-2.2,2.1-4.3,4.5-4.3
			h11.3v6.9h3.6V4H22.6z"/>
		<path class="st1" d="M30.5,12.7c-1.7-1.1-3.9-2-5.9-2.2l0,0c-0.1,0-0.1,0-0.2,0c-1,0-1.8,0.8-1.8,1.8c0,0.6,0.3,1.1,0.7,1.4l0,0
			c0.2,0.2,0.7,0.4,1.4,0.6c4.4,1.2,8,5.3,8.3,9.2c0.4,6.4-4.1,9.7-4.1,9.7h4.6c2-2,3.4-5.3,3.3-9.5C36.6,19.5,34.2,15.2,30.5,12.7z
			"/>
	</g>
</g>
</svg>
