<?xml version="1.0" encoding="UTF-8"?><svg id="uuid-a25e987b-aec6-43db-9f64-ac055a205695" xmlns="http://www.w3.org/2000/svg" viewBox="0 0 498.15 54.72"><path d="M117.79,35.15v.87c0,1.23,1.19,2.22,2.65,2.22,1.47,0,2.65-1,2.65-2.22v-.87c0-1.23-1.19-2.22-2.65-2.22-1.46,0-2.65.99-2.65,2.22" style="fill:#ff8300; stroke-width:0px;"/><path d="M74.25,26.85v.87c0,1.23,1.14,2.22,2.55,2.22,1.41,0,2.55-.99,2.55-2.22v-.87c0-1.22-1.15-2.22-2.56-2.22-1.41,0-2.55,1-2.55,2.22" style="fill:#ff8300; stroke-width:0px;"/><path d="M80.17,26.85v.87c0,1.23,1.15,2.22,2.55,2.22,1.41,0,2.56-.99,2.56-2.22v-.87c0-1.22-1.15-2.22-2.56-2.22-1.41,0-2.55,1-2.55,2.22" style="fill:#ff8300; stroke-width:0px;"/><path d="M86.08,26.85v.87c0,1.23,1.14,2.22,2.56,2.22,1.41,0,2.55-.99,2.55-2.22v-.87c0-1.22-1.15-2.22-2.56-2.22-1.41,0-2.55,1-2.55,2.22" style="fill:#ff8300; stroke-width:0px;"/><path d="M175.13,35.05l-.7.51c-.98.72-1.1,2.22-.27,3.35.83,1.13,2.3,1.45,3.28.73l.7-.51c.98-.72,1.1-2.23.27-3.35-.83-1.13-2.3-1.45-3.27-.73" style="fill:#ff8300; stroke-width:0px;"/><path d="M159.59,10.74l-3.32-4.22c-.81-1.08-2.44-1.21-3.64-.31-1.2.9-1.52,2.5-.7,3.59l3.32,4.22c.81,1.08,2.44,1.22,3.64.32,1.19-.9,1.51-2.51.7-3.59" style="fill:#403f41; stroke-width:0px;"/><path d="M177.97,44.25l3.32,4.22c.81,1.08,2.45,1.22,3.64.31,1.2-.9,1.51-2.51.7-3.59l-3.32-4.36c-.81-1.08-2.44-1.22-3.64-.31-1.2.9-1.51,2.65-.7,3.73" style="fill:#403f41; stroke-width:0px;"/><path d="M154.21,5.61c-1.51,0-2.73,1.22-2.73,2.73v38.31c0,1.51,1.23,2.73,2.73,2.73s2.73-1.22,2.73-2.73V8.34c0-1.51-1.23-2.73-2.73-2.73" style="fill:#403f41; stroke-width:0px;"/><path d="M183.35,5.61c-1.51,0-2.74,1.22-2.74,2.73v38.31c0,1.51,1.23,2.73,2.74,2.73s2.73-1.22,2.73-2.73V8.34c0-1.51-1.22-2.73-2.73-2.73" style="fill:#403f41; stroke-width:0px;"/><path d="M159.39,19.45l10.72,14.45c.8,1.08,2.43,1.24,3.63.36,1.21-.89,1.54-2.49.74-3.58l-10.82-14.51c-.8-1.09-2.43-1.25-3.64-.36-1.21.88-1.43,2.55-.64,3.64" style="fill:#403f41; stroke-width:0px;"/><path d="M208.41,30.59h0s0,0,0,0Z" style="fill:#403f41; stroke-width:0px;"/><path d="M126.32,38.33h10.41c1.36,0,2.46-1.23,2.46-2.74,0-1.51-1.1-2.74-2.46-2.74h-10.4c-1.36,0-2.46,1.22-2.46,2.73,0,1.51,1.1,2.74,2.45,2.74" style="fill:#403f41; stroke-width:0px;"/><path d="M59.98,30.02h11.07c1.36,0,2.46-1.23,2.46-2.73,0-1.51-1.1-2.74-2.46-2.74h-11.06c-1.36,0-2.46,1.22-2.47,2.73,0,1.51,1.1,2.74,2.46,2.74" style="fill:#403f41; stroke-width:0px;"/><path d="M88.73,43.84h-1.82s-15.7,0-15.7,0V11.03h15.7s3.27,0,3.27,0c1.15,0,2.01.21,2.98.87,1.59,1.09,2.4,3.02,2.41,5.75.01,4.97-1.53,6.68-2.47,7.41-.36.28-1.18.94-1.18,2.38h0c0,1.73,1.19,2.38,1.72,2.64.33.15,3.24,1.02,3.24,6.04,0,7.22-6.23,7.74-8.14,7.74M98.49,27.43c1.18-1.86,2.63-5.72,2.63-9.8,0-8.53-5.76-12.15-10.58-12.15h-22.08c-1.52,0-2.76,1.24-2.76,2.77v38.35c0,1.53,1.23,2.77,2.76,2.77h20.27c9.47,0,13.71-6.62,13.71-13.28,0-4.88-2.18-6.91-3.95-8.67" style="fill:#403f41; stroke-width:0px;"/><path d="M211.12,21.06l.61.63c.85.88,2.4.76,3.45-.26,1.05-1.02,1.2-2.57.35-3.44l-.6-.63c-.86-.88-2.4-.76-3.45.27-1.05,1.02-1.21,2.56-.35,3.44" style="fill:#ff8300; stroke-width:0px;"/><path d="M227.21,49.34c-.77,0-1.54-.33-2.09-.96l-14.28-16.94c-.99-1.15-.86-2.9.3-3.88,1.16-.99,2.9-.86,3.89.3l14.27,16.94c.99,1.15.86,2.89-.3,3.88-.52.45-1.16.66-1.79.66" style="fill:#403f41; stroke-width:0px;"/><path d="M197.75,5.48c-1.52,0-2.76,1.23-2.76,2.75v38.35c0,1.52,1.23,2.75,2.76,2.75s2.75-1.23,2.75-2.75V8.23c0-1.52-1.23-2.75-2.75-2.75" style="fill:#403f41; stroke-width:0px;"/><path d="M219.45,17.38l7.45-7.27c.97-.94.9-2.59-.15-3.67-1.05-1.08-2.7-1.2-3.67-.25l-7.45,7.26c-.98.94-.91,2.59.15,3.68,1.05,1.08,2.69,1.19,3.67.25" style="fill:#403f41; stroke-width:0px;"/><path d="M211.03,25.59l-7.45,7.27c-.97.95-2.61.84-3.67-.24-1.05-1.08-1.13-2.73-.15-3.68l7.45-7.27c.97-.95,2.62-.84,3.67.24,1.06,1.08,1.13,2.73.16,3.68" style="fill:#403f41; stroke-width:0px;"/><path d="M27.37,40.15c4.02,0,9.56-1.96,10.32-6.17.05-.24.1-.62.09-.8-.19-.85-1.02-.28-1.42-.1-.59.26-5.17,1.46-8.99,1.46s-8.4-1.19-8.99-1.46c-.4-.18-1.23-.75-1.42.1,0,.18.05.56.09.8.76,4.2,6.3,6.16,10.32,6.17" style="fill:#ff8300; stroke-width:0px;"/><path d="M22.21,24.29v-1.19c0-1.68-1.56-3.04-3.5-3.03-1.92,0-3.49,1.36-3.49,3.03v1.2c0,1.68,1.56,3.04,3.49,3.04,1.93,0,3.49-1.36,3.49-3.04" style="fill:#403f41; stroke-width:0px;"/><path d="M39.52,24.29v-1.19c0-1.68-1.57-3.04-3.5-3.03-1.92,0-3.49,1.36-3.49,3.03v1.2c0,1.68,1.56,3.04,3.49,3.04,1.93,0,3.49-1.36,3.49-3.04" style="fill:#403f41; stroke-width:0px;"/><path d="M44.7,7.19c-.79,0-1.56.3-2.09.83-1.16,1.15-1.16,3.03-.02,4.19,4.34,4.38,6.6,10.42,6.19,16.58-.39,5.72-2.98,10.94-7.3,14.71-3.92,3.41-8.93,5.29-14.12,5.29-.48,0-.97-.02-1.45-.05-8.1-.57-15.1-5.55-18.29-12.99-1.02-2.4-1.59-4.94-1.7-7.56-.06-1.6-1.36-2.85-2.96-2.85h-.12C1.22,25.42-.06,26.81,0,28.44c.13,3.34.86,6.59,2.18,9.65,4.06,9.49,12.97,15.83,23.25,16.56h.09c.62.05,1.26.07,1.89.07,6.59,0,12.97-2.4,17.96-6.76,5.51-4.81,8.82-11.47,9.31-18.77.53-7.85-2.34-15.56-7.89-21.15-.53-.54-1.3-.85-2.1-.85" style="fill:#ff8300; stroke-width:0px;"/><path d="M26.7,2.81c-.03.26-.02.53.03.8.02.08.03.15.05.23.3,1.29,1.4,2.24,2.72,2.37,2.56.25,5.05.97,7.38,2.12.74.37,1.58.43,2.38.17.79-.26,1.42-.82,1.79-1.56.32-.65.41-1.4.24-2.1-.21-.9-.81-1.66-1.65-2.07C36.63,1.27,33.42.34,30.1.02c-.82-.08-1.63.16-2.27.68-.64.53-1.04,1.28-1.13,2.11" style="fill:#403f41; stroke-width:0px;"/><path d="M11.25,8.84c.15.22.33.42.53.6.06.05.12.1.18.14,1.06.8,2.5.85,3.6.11,2.14-1.44,4.51-2.47,7.05-3.06.81-.19,1.5-.68,1.94-1.38.44-.7.58-1.54.39-2.34-.16-.71-.57-1.34-1.15-1.78-.74-.56-1.68-.76-2.59-.55-3.27.76-6.34,2.09-9.11,3.95-.69.46-1.16,1.16-1.32,1.97-.16.82,0,1.65.47,2.35" style="fill:#403f41; stroke-width:0px;"/><path d="M3.17,23.33c.25.08.52.12.79.12.08,0,.16,0,.23,0,1.32-.05,2.47-.94,2.85-2.22.74-2.47,1.91-4.77,3.49-6.84.5-.66.72-1.48.61-2.3-.11-.82-.53-1.56-1.19-2.06-.58-.44-1.29-.67-2.01-.64-.93.03-1.79.48-2.35,1.22-2.04,2.67-3.56,5.65-4.51,8.85-.24.79-.15,1.63.24,2.36.4.73,1.05,1.27,1.86,1.51" style="fill:#403f41; stroke-width:0px;"/><path d="M145.39,45.55l-17.29-38.31c-.43-1.04-1.45-1.71-2.57-1.71,0,0,0,0-.01,0s-.01,0-.02,0c-1.13,0-2.14.68-2.57,1.71l-17.29,38.31c-.59,1.42.09,3.04,1.51,3.62.35.14.7.21,1.05.21,1.1,0,2.13-.65,2.58-1.72l14.73-33.24,14.74,33.24c.45,1.07,1.48,1.72,2.57,1.72.35,0,.71-.07,1.05-.21,1.43-.58,2.1-2.2,1.51-3.62" style="fill:#403f41; stroke-width:0px;"/><path d="M390.32,33.35c0-.77.7-1.2,1.62-1.2s1.54.43,1.54,1.2v7.65c0,.78-.62,1.21-1.54,1.21s-1.62-.43-1.62-1.21v-7.65Z" style="fill:#403f41; stroke-width:0px;"/><path d="M402.9,33.35c0-.77.7-1.2,1.62-1.2s1.54.43,1.54,1.2v7.65c0,.78-.61,1.21-1.54,1.21s-1.62-.43-1.62-1.21v-7.65Z" style="fill:#403f41; stroke-width:0px;"/><path d="M359.44,24.82h-17.73v-2.78c0-.99.44-1.24,1.41-1.24h14.95c.93,0,1.37.25,1.37,1.24v2.78h0ZM359.44,31.96h-17.73v-4.17h17.73v4.17h0ZM359.44,38.11c0,.94-.44,1.24-1.37,1.24h-14.95c-.97,0-1.41-.3-1.41-1.24v-3.17h17.73v3.17h0ZM358.9,17.72h-8.71s0-.01.01-.02h-3.75s0,.01-.01.02h-4.3c-2.68,0-3.94,1.1-3.94,3.72v17.32c0,2.68,1.21,3.77,3.94,3.77h16.75c2.77,0,4.03-1.09,4.03-3.77v-17.32c0-2.63-1.26-3.72-4.03-3.72" style="fill:#403f41; stroke-width:0px;"/><path d="M329.95,29.88v11.58c-.37.41-.77.83-1.19,1.24h5.64c-.28-.4-.55-.82-.81-1.3v-12.32c0-2.58-1.07-3.92-3.54-3.92h-1.48v3.53h.22c.87,0,1.17.25,1.17,1.19" style="fill:#403f41; stroke-width:0px;"/><path d="M412.73,25.62v-6.05h14.31v4.76c0,.99-.53,1.29-1.61,1.29h-12.7ZM412.73,11.48c0-1.04.54-1.29,1.56-1.29h11.14c1.08,0,1.61.25,1.61,1.29v4.77h-14.31v-4.77ZM426.26,28.9c3.02,0,4.33-1.09,4.33-3.92v-14.35c0-2.78-1.31-3.87-4.28-3.87h-12.84c-2.96,0-4.27,1.09-4.27,3.87v37.08s.19,2.09,2.68,1.21l.86-3.74v-16.29h13.52Z" style="fill:#403f41; stroke-width:0px;"/><path d="M493.75,9.84h-19.64c-.97,0-1.75-.78-1.75-1.75s.79-1.75,1.75-1.75h19.64c.97,0,1.75.78,1.75,1.75s-.79,1.75-1.75,1.75" style="fill:#403f41; stroke-width:0px;"/><path d="M456.45,16c-.53,0-1.05-.24-1.39-.69-.59-.77-.44-1.87.32-2.46l9.18-7.03c.77-.59,1.87-.44,2.46.33.59.77.44,1.87-.33,2.46l-9.18,7.03c-.32.24-.69.36-1.06.36" style="fill:#403f41; stroke-width:0px;"/><path d="M456.45,28.35c-.53,0-1.05-.24-1.39-.69-.59-.77-.44-1.87.32-2.46l9.18-7.03c.77-.59,1.87-.44,2.46.33.59.77.44,1.87-.33,2.46l-9.18,7.03c-.32.24-.69.36-1.06.36" style="fill:#403f41; stroke-width:0px;"/><path d="M422.46,39.56c-.54,0-1.07-.24-1.41-.71-.58-.78-.42-1.88.36-2.45l7.64-5.7c.78-.58,1.88-.42,2.46.36.57.78.42,1.87-.36,2.45l-7.64,5.69c-.31.24-.68.35-1.04.35" style="fill:#403f41; stroke-width:0px;"/><path d="M496.4,22.85h-24.93c-.97,0-1.76-.78-1.76-1.75s.79-1.76,1.76-1.76h24.93c.97,0,1.76.79,1.76,1.76s-.79,1.75-1.76,1.75" style="fill:#403f41; stroke-width:0px;"/><path d="M486.01,21.32v22.69c0,1.07-.24,1.61-1.29,1.61h-2.95v3.54h3.79c2.78,0,3.87-1.31,3.87-4.27v-23.57h-3.43Z" style="fill:#403f41; stroke-width:0px;"/><path d="M481.66,49.16h-5.7c-.97,0-1.76-.78-1.76-1.75s.78-1.76,1.76-1.76h5.7c.97,0,1.75.79,1.75,1.76s-.79,1.75-1.75,1.75" style="fill:#403f41; stroke-width:0px;"/><path d="M462.36,49.28c-.97,0-1.76-.78-1.76-1.75v-25.33c0-.97.79-1.76,1.76-1.76s1.75.79,1.75,1.76v25.33c0,.97-.78,1.75-1.75,1.75" style="fill:#403f41; stroke-width:0px;"/><path d="M406.17,47.3l-15.58,1.96c-.91.11-1.73-.53-1.85-1.44s.52-1.73,1.44-1.85l15.58-1.96c.9-.11,1.73.53,1.85,1.44.11.91-.53,1.73-1.44,1.85" style="fill:#403f41; stroke-width:0px;"/><path d="M404.71,29.01h-13.06c-.91,0-1.65-.74-1.65-1.66s.74-1.65,1.65-1.65h13.06c.91,0,1.65.74,1.65,1.65s-.74,1.66-1.65,1.66" style="fill:#403f41; stroke-width:0px;"/><path d="M404.71,19.57h-13.06c-.91,0-1.65-.74-1.65-1.65s.74-1.66,1.65-1.66h13.06c.91,0,1.65.74,1.65,1.66s-.74,1.65-1.65,1.65" style="fill:#403f41; stroke-width:0px;"/><path d="M398.17,47.3c-.91,0-1.66-.74-1.66-1.65v-26.08c0-.92.74-1.66,1.66-1.66s1.65.74,1.65,1.66v26.08c0,.91-.74,1.66-1.65,1.66" style="fill:#403f41; stroke-width:0px;"/><path d="M411.16,49.04c-.75,0-1.44-.47-1.67-1.23-.29-.92.22-1.91,1.15-2.2l8.73-2.74c.92-.29,1.91.22,2.2,1.15.29.92-.22,1.91-1.15,2.2l-8.73,2.74c-.17.06-.35.08-.52.08" style="fill:#403f41; stroke-width:0px;"/><path d="M431,49.28c-.35,0-.71-.1-1.02-.33-10.98-7.91-12.57-20.31-12.63-20.84-.12-.96.57-1.83,1.53-1.95.97-.12,1.83.57,1.95,1.53.02.11,1.5,11.42,11.2,18.41.79.57.96,1.66.4,2.45-.34.48-.88.73-1.43.73" style="fill:#403f41; stroke-width:0px;"/><path d="M389.68,16.12c-.31,0-.62-.08-.9-.25-.83-.5-1.09-1.58-.59-2.41l3.6-5.96c.32-.52.89-.85,1.5-.85h9c.6,0,1.16.31,1.48.82l3.78,5.96c.52.82.27,1.9-.54,2.42-.82.52-1.9.28-2.42-.54l-3.26-5.15h-7.05l-3.09,5.11c-.33.55-.91.85-1.5.85" style="fill:#403f41; stroke-width:0px;"/><path d="M297,12.42h-35.23c-1.02,0-1.85-.83-1.85-1.85s.83-1.85,1.85-1.85h35.23c1.02,0,1.85.83,1.85,1.85s-.83,1.85-1.85,1.85" style="fill:#403f41; stroke-width:0px;"/><path d="M294.83,29.68h-30.89c-1.02,0-1.85-.83-1.85-1.85s.83-1.85,1.85-1.85h30.89c1.02,0,1.85.83,1.85,1.85,0,1.03-.83,1.85-1.85,1.85" style="fill:#403f41; stroke-width:0px;"/><path d="M299.58,48.42h-40.37c-1.02,0-1.85-.83-1.85-1.85s.83-1.85,1.85-1.85h40.37c1.02,0,1.85.83,1.85,1.85,0,1.02-.83,1.85-1.85,1.85" style="fill:#403f41; stroke-width:0px;"/><path d="M279.39,48.42c-1.02,0-1.85-.83-1.85-1.85V10.57c0-1.02.83-1.85,1.85-1.85s1.85.83,1.85,1.85v36c0,1.02-.83,1.85-1.85,1.85" style="fill:#403f41; stroke-width:0px;"/><path d="M345.78,13.66c-.57,0-1.13-.3-1.44-.83l-2.81-4.9c-.45-.79-.18-1.8.61-2.26.8-.45,1.81-.18,2.26.61l2.81,4.91c.45.79.18,1.81-.61,2.26-.26.15-.54.22-.82.22" style="fill:#403f41; stroke-width:0px;"/><path d="M355.37,13.66c-.28,0-.56-.07-.82-.22-.79-.45-1.07-1.47-.61-2.26l2.81-4.91c.45-.79,1.47-1.07,2.26-.61.79.46,1.06,1.47.61,2.26l-2.81,4.9c-.31.53-.86.83-1.44.83" style="fill:#403f41; stroke-width:0px;"/><path d="M364.31,14.54h-27.47c-.92,0-1.65-.74-1.65-1.65s.74-1.65,1.65-1.65h27.47c.91,0,1.65.74,1.65,1.65,0,.92-.74,1.65-1.65,1.65" style="fill:#403f41; stroke-width:0px;"/><path d="M350.58,20.2c-.91,0-1.65-.74-1.65-1.65v-5.66c0-.91.74-1.65,1.65-1.65s1.65.74,1.65,1.65v5.66c0,.91-.74,1.65-1.65,1.65" style="fill:#403f41; stroke-width:0px;"/><path d="M331.66,18.13c-.53,0-1.06-.24-1.4-.69-3.89-5.14-4.66-5.9-5.64-6.86l-.16-.15c-.69-.68-.69-1.79-.01-2.48.68-.69,1.8-.69,2.48-.01l.15.15c1.07,1.06,1.92,1.9,5.97,7.24.58.77.43,1.87-.34,2.46-.32.24-.69.36-1.06.36" style="fill:#403f41; stroke-width:0px;"/><path d="M330.89,28.68h-6.62c-.97,0-1.75-.78-1.75-1.76s.79-1.75,1.75-1.75h6.62c.97,0,1.75.78,1.75,1.75s-.79,1.76-1.75,1.76" style="fill:#403f41; stroke-width:0px;"/><path d="M350.41,49.28c-3.88,0-7.58-.08-9.94-.31-4.99-.48-7.83-3.29-9.25-5.34l-5.24,4.87c-.71.66-1.82.62-2.48-.08-.66-.71-.62-1.82.09-2.48l6.87-6.4c.43-.4,1.02-.56,1.6-.43.57.14,1.04.55,1.24,1.1.07.19,1.9,4.72,7.52,5.27,6.64.64,24.27,0,24.46,0,.95-.04,1.78.72,1.81,1.69.04.97-.72,1.78-1.69,1.81-.51.02-7.54.3-14.99.3" style="fill:#403f41; stroke-width:0px;"/></svg>