<?xml version="1.0" encoding="utf-8"?>
<!-- Generator: Adobe Illustrator 25.0.1, SVG Export Plug-In . SVG Version: 6.00 Build 0)  -->
<svg version="1.1" id="圖層_1" xmlns="http://www.w3.org/2000/svg" xmlns:xlink="http://www.w3.org/1999/xlink" x="0px" y="0px"
	 viewBox="0 0 61 66" style="enable-background:new 0 0 61 66;" xml:space="preserve">
<style type="text/css">
	.st0{fill:#CB5517;}
	.st1{fill-rule:evenodd;clip-rule:evenodd;fill:#F15920;}
</style>
<rect x="6.2" y="24.1" class="st0" width="2.3" height="20.7"/>
<path class="st1" d="M45.1,2.8v2.5c2.9-1,5.2-0.6,5.2-0.6h0.2v40.1h-2.3V6.7c-1.1,0-2.2,0.2-3.1,0.6v37.5h-2.3V8.4
	c-3.7,2.5-6.3,7.5-8,12.7c0.9,4.7,1.5,10.3,1.6,17.2H36c0,0-0.4-6.8-2.1-14.5C31.7,32,31.2,40,31.2,40h-0.1h-0.3h-0.1
	c0,0-0.5-8-2.7-16.1C26.4,31.5,26,38.4,26,38.4h-0.4c0.1-6.9,0.7-12.6,1.6-17.2c-1.7-5.2-4.3-10.2-8-12.7v36.4H17V7.3
	c-1-0.3-2-0.6-3.1-0.6v38.1h-2.3V4.7h0.2c0,0,0,0,0,0c0.2,0,2.4-0.4,5.2,0.6V2.8h0l0-0.6V0.4h0.3c1.3-0.2,8.5-0.6,13.8,9.3
	c5.2-9.9,12.5-9.5,13.8-9.3h0.3v1.8V2.8L45.1,2.8z M19.2,2.6v3.7c3,1.7,6.3,5.1,8.7,11.8c0.6-2.4,1.4-4.5,2.2-6.4
	C27.6,6.6,24.1,2.7,19.2,2.6z M31,35.4c-0.3-5.9-1.2-10.7-2.2-14.6c0.6-2.4,1.4-4.7,2.2-6.9c0.9,2.2,1.6,4.6,2.2,6.9
	C32.2,24.7,31.4,29.5,31,35.4z M32,11.8c0.8,1.8,1.5,3.9,2.2,6.4c2.4-6.6,5.7-10,8.7-11.8V2.6C37.9,2.8,34.5,6.6,32,11.8z"/>
<rect x="53.6" y="24.1" class="st0" width="2.3" height="20.7"/>
<path class="st0" d="M40.7,60.4c-1-1.2-1.7-2.7-2.1-4.5h5.7c0.2,0,0.2-1.4,0.2-1.4h-3h-3.2c0.1-1,0.1-3,0.1-3
	C38.3,51,36.3,51,36.3,51s0,2.7-0.1,3.5h-5v1.4h4.9c-0.2,2-0.7,3.7-1.5,5.2c-0.9,1.6-1.7,2.7-3.8,4.3l0.1,0.2
	c0.9-0.4,1.2-0.5,1.7-0.8c1.1-0.6,2.2-1.4,3.1-2.4c1.4-1.6,2.2-3.5,2.4-6.2c0.2,1.5,0.5,2.5,0.8,3.5c0.8,2.2,1.8,3.7,3.3,5
	c0.5,0.4,0.8,0.6,0.9,0.6c0.1,0,0.2-0.1,0.2-0.3c0.2-0.8,0.8-1.2,1.6-1.6v-0.2c-0.7-0.2-1.1-0.4-1.7-0.6
	C42.4,62,41.4,61.2,40.7,60.4z"/>
<path class="st0" d="M51.8,51.8c0.3-0.5-1.7-1.7-1.7-1.7c0,0-0.5,2.3-1.2,4.1C48.2,55.8,48,57,47,58.5l0.1,0.1
	c0.9-0.9,1.3-1.3,1.8-2v8.9c0.1,0.6,1.6-0.2,1.8-0.2h0V54.1C51.2,53.3,51.4,52.9,51.8,51.8z"/>
<path class="st0" d="M60.7,56.6h-4.2v-2h4c0.2,0,0.4-1.1,0.4-1.1h-4.6H55c0.3-0.6,0.4-1.1,0.8-2c0.3-0.5-1.6-1.3-1.6-1.3
	c0,0-0.5,2.3-1.2,4.1c-0.7,1.6-1,2.3-2,3.9l0.1,0.1c1-0.9,1.3-1.3,1.9-2l0.8-1.1c0.3-0.4,0.5-0.8,0.7-1.1v11.2
	c0,0.8,1.9,0.1,1.9,0.1v-4.6h4c0.2,0,0.2-1.1,0.2-1.1h-4.2v-2h4C60.6,57.7,60.7,56.6,60.7,56.6z"/>
<path class="st0" d="M27.7,57.2c0-0.6-1.7-0.6-1.7-0.6v2h-4.7v1.2H26v4c0,0.2-0.1,0.3-0.3,0.3c-0.3,0-1.1,0-1.3-0.1v0.1
	c0.9,0.3,1.1,1.1,1.1,1.4c0,0.3,0.1,0.4,0.3,0.4c0.2,0,0.6-0.1,0.8-0.2c0.8-0.3,1.2-0.7,1.2-1.6c0,0,0-0.1,0-0.1c0-0.4,0-0.4,0-1
	c0-0.5,0-0.9,0-1.2v-1.9h1.9c0.2,0,0.2-1.2,0.2-1.2h-2.1L27.7,57.2L27.7,57.2z"/>
<path class="st0" d="M21.8,60.1l-0.1,0.1c0.6,1,0.9,1.6,1.4,2.9c0.2,0.5,0.2,0.6,0.4,0.6c0.4,0,1-0.8,1-1.5
	C24.5,61.5,23.5,60.7,21.8,60.1z"/>
<path class="st0" d="M20.6,51.5c0-0.5-1.7-0.6-1.7-0.6v4.9l-1,0v-3.5c0-0.5-1.8-0.6-1.8-0.6v5.1c0,0.6,0.9,0.4,1.4,0.2H19v1.9h-1.3
	c-0.4-0.3-1.3-0.3-1.3-0.3v0.5c0,0.5,0,0.5,0,0.8c0,2.4-0.3,4.1-1,5.7l0.1,0.1c0.5-0.4,0.9-0.6,1.2-1.1c0.6-0.8,1-1.8,1.2-2.7
	c0.1-0.6,0.2-1.1,0.2-2H19v5.5c0,0.8,1.7,0.1,1.7,0.1v-6.9v-0.3V51.5z"/>
<path class="st0" d="M28.8,53.4c0.6-0.5-1.1-1.7-1.1-1.7l0,0c0,0.1-0.2,0.1-0.4,0.4h-2.8c0.1-0.1,0.1,0,0.4-0.3
	c0.6-0.7-1.4-1.1-1.4-1.1c-0.2,0.7-0.5,1.2-0.9,2c-0.5,0.8-0.9,1.5-1.3,2v0.6c0.3-0.2,0.5-0.4,0.8-0.6c0.2,0.2,0.7,0.7,0.8,1.3
	c0.2,0.3,0.1,0.6,0.6,0.5c0.2,0,0.6-0.5,0.5-1c0-0.4-0.7-0.8-1.6-1c0.4-0.4,0.6-0.6,1.1-1.1c0.5,0.5,0.5,0.5,0.9,1.2
	c0.2,0.3,0.1,0.6,0.6,0.5c0.2,0,0.6-0.5,0.5-1c-0.1-0.5-0.8-0.8-1.7-1c0.2-0.2,0.1-0.1,0.2-0.2h2.8c-1,1.6-1.8,2.5-3.1,3.5
	c-0.6,0.5-1.2,0.8-2.3,1.4v0.5c2.1-0.6,3.8-1.4,5.3-2.7C27.3,55.1,28,54.4,28.8,53.4z"/>
<path class="st0" d="M10.5,55.8c0.2,0.4,0.4,0.5,0.7,1.1c0.3,0.5,0.4,0.5,0.6,0.5c0.4,0,0.8-0.7,0.8-1.4c0-1.2-0.9-1.8-4.2-3
	l-0.1,0.2c0.9,0.7,1.3,1.2,1.8,2c-2,0.2-3.5,0.3-5.6,0.3c0.9-1,0.8-1.1,2-2.7l0.3-0.4c0,0,0.5-0.6-1.8-1.1c-0.2,1.2-0.6,2.7-1.3,4.3
	c-1.4,0-1.9,0-2.7-0.1c0.3,2.2,1.1,2,1.1,2c0.7-0.1,1.3-0.2,2-0.3c-0.1,7.3-3.9,8.8-3.9,8.8L0.2,66c6.1-1.6,5.7-8.6,5.7-9.2
	C7.7,56.4,9.3,56.1,10.5,55.8z"/>
<path class="st0" d="M12.9,62.1h-0.2c0,2-0.1,1.9-2.7,1.9c-0.8,0-0.8,0-0.8-0.4v-5.6c0-0.3-0.3-0.8-1.8-0.9c0.1,0.6,0.1,1,0.1,2.1
	v2.6c0,0.4,0,0.4,0,2.6c0.1,1,0.4,1.2,1.6,1.2c0.3,0,0.7,0,1.2,0c0.1,0,0.2,0,0.2,0c1.1,0,2-0.1,2.4-0.3c0.4-0.2,0.6-0.5,0.6-0.9
	c0-0.4-0.1-0.6-0.2-1C13.2,63.1,12.9,62.1,12.9,62.1z"/>
</svg>
