<?xml version="1.0" encoding="utf-8"?>
<!-- Generator: Adobe Illustrator 25.4.1, SVG Export Plug-In . SVG Version: 6.00 Build 0)  -->
<svg version="1.1" id="圖層_1" xmlns="http://www.w3.org/2000/svg" xmlns:xlink="http://www.w3.org/1999/xlink" x="0px" y="0px"
	 viewBox="0 0 33.8 34" style="enable-background:new 0 0 33.8 34;" xml:space="preserve">
<style type="text/css">
	.st0{fill:#FFFFFF;}
	.st1{fill:#006FCF;}
</style>
<desc>Created with Sketch.</desc>
<g id="Symbols">
	<g>
		<polygon class="st0" points="32.1,32.2 16.8,32.2 1.6,32.2 1.6,17.1 1.6,1.8 16.8,1.8 32.1,1.8 32.1,17 		"/>
		<g>
			<path class="st1" d="M30.9,23.3h-10l-0.6-0.8v0.8h-2.2V22c-0.3,0.1-0.6,0.2-0.9,0.2h-0.4v1.2h-3.2l-0.5-0.7l-0.5,0.7H7.4v-5h5.3
				l0.5,0.7l0.5-0.7h18.4V1.8H1.6v12.4l1.1-2.5h2.1l0.5,1.3v-1.3h2.6l0.3,1l0.3-1h11.2v0.5c0.4-0.3,1-0.5,1.6-0.5h3.5l0.5,1.3v-1.3
				h2.1l0.6,0.9v-0.9h2.2v5H28l-0.6-0.9v0.9h-3.1L24,16h-0.7l-0.3,0.7h-1.9c-0.5,0-1.1-0.1-1.5-0.4v0.4h-3.2l-0.6-0.8v0.8H4.3L4,16
				H3.4l-0.3,0.7H1.6v15.5h30.5v-9.3C31.7,23.2,31.3,23.3,30.9,23.3L30.9,23.3z"/>
			<path class="st1" d="M30.9,21.7H29v0.8h1.9c0.8,0,1.2-0.5,1.2-1.2c0-0.7-0.4-1-1.1-1h-0.9c-0.2,0-0.3-0.1-0.3-0.3
				c0-0.2,0.1-0.3,0.3-0.3h1.5l0.4-0.8h-1.9c-0.8,0-1.2,0.5-1.2,1.1c0,0.7,0.4,1.1,1.1,1.1h0.8c0.2,0,0.3,0.1,0.3,0.3
				C31.2,21.6,31.1,21.7,30.9,21.7 M27.6,21.7h-1.9v0.8h1.9c0.8,0,1.2-0.5,1.2-1.2c0-0.7-0.4-1-1.1-1h-0.9c-0.2,0-0.3-0.1-0.3-0.3
				c0-0.2,0.1-0.3,0.3-0.3h1.5l0.4-0.8h-1.9c-0.8,0-1.2,0.5-1.2,1.1c0,0.7,0.4,1.1,1.1,1.1h0.8c0.2,0,0.3,0.1,0.3,0.3
				C27.9,21.6,27.8,21.7,27.6,21.7 M25.4,19.8V19h-2.9v3.6h2.9v-0.8h-2v-0.6h2v-0.8h-2v-0.6H25.4L25.4,19.8z M20.7,19.8
				c0.3,0,0.4,0.2,0.4,0.4c0,0.2-0.1,0.4-0.4,0.4h-1v-0.7H20.7L20.7,19.8z M19.7,21.3h0.4l1.1,1.3h1.1l-1.2-1.3
				c0.6-0.1,0.9-0.6,0.9-1.1c0-0.7-0.5-1.2-1.2-1.2h-2v3.6h0.9V21.3L19.7,21.3z M17.5,20.2c0,0.2-0.1,0.4-0.4,0.4h-1v-0.8h1
				C17.4,19.8,17.5,19.9,17.5,20.2 M15.2,19v3.6h0.9v-1.2h1.1c0.8,0,1.3-0.5,1.3-1.2c0-0.7-0.5-1.2-1.2-1.2H15.2L15.2,19z
				 M13.9,22.5h1.1l-1.4-1.8l1.4-1.8H14l-0.8,1.1L12.3,19h-1.1l1.4,1.8l-1.4,1.8h1.1l0.8-1.1L13.9,22.5L13.9,22.5z M11.1,19.8V19
				H8.1v3.6h2.9v-0.8h-2v-0.6h2v-0.8h-2v-0.6H11.1L11.1,19.8z"/>
			<path class="st1" d="M28.3,16h1.1v-3.6h-0.9v2.2l-1.4-2.2h-1.2V16h0.9v-2.3L28.3,16L28.3,16z M23.2,14.5l0.5-1.2l0.5,1.2H23.2
				L23.2,14.5z M24.8,16h1l-1.5-3.6h-1.2L21.6,16h1l0.3-0.7h1.6L24.8,16L24.8,16z M21.1,16L21.1,16l0.4-0.8h-0.3
				c-0.6,0-0.9-0.3-0.9-1v-0.1c0-0.5,0.3-0.9,0.9-0.9h1v-0.8h-1c-1.1,0-1.7,0.7-1.7,1.8v0.1C19.4,15.3,20.1,16,21.1,16 M18.1,16H19
				v-1.8v-1.8h-0.9v1.8V16L18.1,16z M16.4,13.2c0.3,0,0.4,0.2,0.4,0.4c0,0.2-0.1,0.4-0.4,0.4h-1v-0.7H16.4L16.4,13.2z M15.4,14.7
				h0.4l1.1,1.3h1.1l-1.2-1.3c0.6-0.1,0.9-0.6,0.9-1.1c0-0.7-0.5-1.2-1.2-1.2h-2V16h0.9V14.7L15.4,14.7z M14,13.2v-0.8H11V16H14
				v-0.8h-2v-0.6h2v-0.8h-2v-0.6H14L14,13.2z M7.8,16h0.8l0.9-2.7V16h0.9v-3.6H9l-0.8,2.3l-0.8-2.3H6V16h0.9v-2.7L7.8,16L7.8,16z
				 M3.2,14.5l0.5-1.2l0.5,1.2H3.2L3.2,14.5z M4.8,16h1l-1.5-3.6H3.1L1.6,16h1l0.3-0.7h1.6L4.8,16L4.8,16z"/>
		</g>
	</g>
</g>
</svg>
