<?xml version="1.0" encoding="utf-8"?>
<!-- Generator: Adobe Illustrator 26.5.0, SVG Export Plug-In . SVG Version: 6.00 Build 0)  -->
<svg version="1.1" id="圖層_1" xmlns="http://www.w3.org/2000/svg" xmlns:xlink="http://www.w3.org/1999/xlink" x="0px" y="0px"
	 viewBox="0 0 99.7 31.9" style="enable-background:new 0 0 99.7 31.9;" xml:space="preserve">
<style type="text/css">
	.st0{fill:#35308E;}
	.st1{fill:#E50012;}
	.st2{fill:#009844;}
</style>
<g>
	<g>
		<g>
			<path class="st0" d="M16.4,5.1c-5.9,0-10.7,4.8-10.7,10.7c0,5.9,4.8,10.7,10.7,10.7c5.9,0,10.7-4.8,10.7-10.7
				C27.1,9.9,22.3,5.1,16.4,5.1z M16.4,24.8c-5,0-9-4-9-9s4-9,9-9c5,0,9,4,9,9S21.4,24.8,16.4,24.8z"/>
			<path class="st1" d="M17.1,9.7v4.2h5.4V9.7H17.1z M21.3,12.6h-3v-1.5h3V12.6z M14,13.6v1.9l1.1-1.1l1.6,1.5l-0.8,0.9l-0.7-0.7
				l-0.7,0.7L14,16.5v1.1h2.2v1.3H14v1.4h2.2v1.3h-5.7v-1.3h2.2v-1.4h-2.2v-1.3h2.2v-1.1l-0.4,0.4l-0.7-0.7l-0.7,0.7L10.1,16
				l1.6-1.5l1.1,1.1v-1.8l-0.4,0.4l-0.7-0.7l-0.7,0.7l-0.8-0.9l1.6-1.5l1.1,1.1V9.7h0h3.6v1.3H14v1.7l1.1-1.1l1.6,1.5L15.8,14
				l-0.7-0.7L14.4,14L14,13.6z M17.1,14.8v1.3h1.5v1.4h-1.5v4v0.1h5.4v-1.3h-4.2v-1.4l4.2,0v-4.1H17.1z M21.3,16.1v1.4h-1.5v-1.4
				H21.3z"/>
		</g>
	</g>
	<g>
		<g>
			<path class="st2" d="M60.9,11.5v-1h-3.6V9.2h-1.5v1.3h-3.9V9.2h-1.5v1.3h-3.6v1h3.6v1.2h-2.9v1h1.8v1.4h-2.5v1h2.5v1.6h-1.8v1
				h5.6V20h-6.3v1h6.3v1.3h1.5V21h6.3v-1h-6.3v-1.3h5.6v-1h-1.8v-1.6h2.5v-1h-2.5v-1.4h1.8v-1h-2.9v-1.2H60.9z M53.1,17.7h-2.3v-1.6
				h2.3V17.7z M53.1,15.1h-2.3v-1.4h2.3V15.1z M51.8,12.7v-1.2h3.9v1.2H51.8z M56.8,17.7h-2.3v-1.6h2.3V17.7z M56.8,15.1h-2.3v-1.4
				h2.3V15.1z"/>
			<path class="st2" d="M45,10.8h-6.1V9.2h-1.5v1.6h-6.1v8.8h1.5h4.7v2.6h1.5v-2.6h4v0c1.2-0.1,2.2-1.1,2.2-2.4V10.8L45,10.8z
				 M37.3,18.4h-4.7v-6.2h4.7V18.4z M43.5,17.3c0,0.5-0.4,1.1-0.9,1.1h-3.8v-6.2h4.7V17.3z"/>
			<g>
				<path class="st2" d="M67.2,11c1-0.1,2-0.2,3.1-0.3V9.4c0,0-2.1,0.8-7.5,0.8v1c0,0,1.2,0,2.9-0.1v1.3h-3.3v1h0.9v1.8h-0.9v1h0.9
					V18h-0.9v1h3.3v1.8c-1,0-2,0.1-3.3,0.1v1.5c0,0,4.6,0.2,8.5-1v-1c0,0-1.2,0.2-3.8,0.4v-1.7h3.8v-1h-1.4v-1.8h1.4v-1h-1.4v-1.8
					h1.4v-1h-3.8V11z M64.8,13.4h0.9v1.8h-0.9V13.4z M64.8,18v-1.8h0.9V18H64.8z M68.1,18h-0.9v-1.8h0.9V18z M68.1,13.4v1.8h-0.9
					v-1.8H68.1z"/>
				<path class="st2" d="M76.8,18.6c0-1.8-1.6-4.4-1.6-4.4c1.4-2.3,1.5-4.5,1.5-4.5h-0.1h-5.2v0v12.6H73v-1h1.5
					C77,21.2,76.8,18.6,76.8,18.6z M74,20.3h-1v-9.7h2.3c-0.2,2.4-1.4,4.1-1.4,4.1s1.1,1.9,1.4,3.1C75.8,20.1,74.2,20.3,74,20.3z"/>
			</g>
			<g>
				<path class="st2" d="M85.3,20.1c-3.4,1.9-6.9,2.2-6.9,2.2v-7.7h1.5v6.1c0.4-0.1,0.8-0.1,1.2-0.2v-9.8h-2.7v-1h6.9v1h-2.7v3.9h2
					v1h-2v4.5c1.6-0.5,2.7-1,2.7-1V20.1z"/>
				<path class="st2" d="M92.8,11h-4.9c0.4-0.9,0.4-1.6,0.4-1.6h-1.6c-0.3,2.5-2.1,3.6-2.1,3.6v1c0.6-0.1,1.1-0.3,1.5-0.6
					c0.1,2.8,0.9,4.7,1.9,6.1c-0.7,0.6-1.9,1.3-3.4,2v1c0.2,0,2.4-0.5,4.2-2c1.6,1.5,3.3,1.9,3.9,2v-1c-1.2-0.5-2.2-1.1-2.9-1.9
					C91,18,92.1,15.1,92,12h0.8V11z M88.9,18.4c-1.6-2.5-1.4-5.6-1.4-6.4h3C90.5,12.9,90.3,16.3,88.9,18.4z"/>
			</g>
		</g>
	</g>
</g>
</svg>
