<?xml version="1.0" encoding="UTF-8"?>
<svg width="40px" height="40px" viewBox="0 0 40 40" version="1.1" xmlns="http://www.w3.org/2000/svg" xmlns:xlink="http://www.w3.org/1999/xlink">
    <!-- Generator: Sketch 55.2 (78181) - https://sketchapp.com -->
    <title>icon/app</title>
    <desc>Created with Sketch.</desc>
    <defs>
        <path d="M7.772,17.193 L3.761,17.193 C3.454,17.193 3.311,17.064 3.311,16.792 L3.311,16.792 L3.383,2.92 L0.902,2.84 L0.902,18.218 C0.902,19.138 1.365,19.604 2.276,19.604 L2.276,19.604 L7.84,19.675 L7.767,22.019 L10.454,22.019 L10.526,19.604 L11.631,19.604 L12.191,19.595 L13.923,17.193 L11.644,17.193 L10.457,17.125 L10.529,0.928 L7.844,0.85" id="path-1"></path>
        <path d="M0.829,18.235 C0.829,20.4 3.069,22.019 5.073,22.019 L5.073,22.019 L8.462,22.019 L8.462,2.515 C8.462,1.459 7.87,0.924 6.702,0.924 L6.702,0.924 L0.829,0.851 L0.829,18.235 Z M3.327,17.24 L3.327,3.174 L5.422,3.174 C5.676,3.174 5.849,3.244 5.937,3.381 L5.937,3.381 C5.986,3.457 6.012,3.553 6.012,3.668 L6.012,3.668 L5.938,19.572 C4.372,19.513 3.327,18.585 3.327,17.24 L3.327,17.24 Z" id="path-3"></path>
    </defs>
    <g id="icon/app" stroke="none" stroke-width="1" fill="none" fill-rule="evenodd">
        <g id="Group-9" transform="translate(3.000000, 4.000000)">
            <g id="Group-3" transform="translate(15.000000, 5.017600)">
                <mask id="mask-2" fill="white">
                    <use xlink:href="#path-1"></use>
                </mask>
                <g id="Clip-2"></g>
                <polyline id="Fill-1" fill="#4C7EBF" mask="url(#mask-2)" points="22.3398 22.5 0.7398 22.5 0.7398 0.952 22.3398 0.952"></polyline>
            </g>
            <g id="Group-6" transform="translate(5.000000, 5.017600)">
                <mask id="mask-4" fill="white">
                    <use xlink:href="#path-3"></use>
                </mask>
                <g id="Clip-5"></g>
                <polygon id="Fill-4" fill="#4C7EBF" mask="url(#mask-4)" points="-5 27.849 14.291 27.849 14.291 -4.904 -5 -4.904"></polygon>
            </g>
            <path d="M4.9219,2.3936 C3.7489,2.3936 2.7959,3.3456 2.7959,4.5186 L2.7959,28.4986 C2.7959,29.6706 3.7489,30.6236 4.9219,30.6236 L28.9029,30.6236 C30.0759,30.6236 31.0279,29.6706 31.0279,28.4986 L31.0279,4.5186 C31.0279,3.3456 30.0759,2.3936 28.9029,2.3936 L4.9219,2.3936 Z M28.9029,33.0176 L4.9219,33.0176 C2.4309,33.0176 0.4029,30.9896 0.4029,28.4986 L0.4029,4.5186 C0.4029,2.0286 2.4309,-0.0004 4.9219,-0.0004 L28.9029,-0.0004 C31.3939,-0.0004 33.4219,2.0286 33.4219,4.5186 L33.4219,28.4986 C33.4219,30.9896 31.3939,33.0176 28.9029,33.0176 L28.9029,33.0176 Z" id="Fill-7" fill="#4E5E7F"></path>
        </g>
    </g>
</svg>