<?xml version="1.0" encoding="UTF-8"?>
<svg width="40px" height="40px" viewBox="0 0 40 40" version="1.1" xmlns="http://www.w3.org/2000/svg" xmlns:xlink="http://www.w3.org/1999/xlink">
    <!-- Generator: Sketch 55.2 (78181) - https://sketchapp.com -->
    <title>icon/calendargoogle</title>
    <desc>Created with Sketch.</desc>
    <defs>
        <polygon id="path-1" points="0.0003 0.299 33.084 0.299 33.084 32.9998 0.0003 32.9998"></polygon>
    </defs>
    <g id="icon/calendargoogle" stroke="none" stroke-width="1" fill="none" fill-rule="evenodd">
        <g id="Group-12" transform="translate(3.000000, 3.000000)">
            <g id="Group-3" transform="translate(0.000000, 0.701200)">
                <mask id="mask-2" fill="white">
                    <use xlink:href="#path-1"></use>
                </mask>
                <g id="Clip-2"></g>
                <path d="M4.7783,2.7988 C3.5223,2.7988 2.5003,3.8978 2.5003,5.2468 L2.5003,28.0508 C2.5003,29.4018 3.5223,30.4998 4.7783,30.4998 L23.0803,30.4998 L30.5843,22.9948 L30.5843,5.2468 C30.5843,3.8978 29.5613,2.7988 28.3043,2.7988 L4.7783,2.7988 Z M24.1153,32.9998 L4.7783,32.9998 C2.1433,32.9998 0.0003,30.7798 0.0003,28.0508 L0.0003,5.2468 C0.0003,2.5188 2.1433,0.2988 4.7783,0.2988 L28.3043,0.2988 C30.9403,0.2988 33.0843,2.5188 33.0843,5.2468 L33.0843,24.0298 L24.1153,32.9998 Z" id="Fill-1" fill="#4E5E7F" mask="url(#mask-2)"></path>
            </g>
            <path d="M10.3511,6.5791 C9.4271,6.5791 8.6751,7.3311 8.6751,8.2561 C8.6751,9.1791 9.4271,9.9301 10.3511,9.9301 C11.2741,9.9301 12.0251,9.1791 12.0251,8.2561 C12.0251,7.3311 11.2741,6.5791 10.3511,6.5791" id="Fill-4" fill="#4C7EBF"></path>
            <path d="M23.126,6.5791 C22.201,6.5791 21.448,7.3311 21.448,8.2561 C21.448,9.1791 22.201,9.9301 23.126,9.9301 C24.049,9.9301 24.8,9.1791 24.8,8.2561 C24.8,7.3311 24.049,6.5791 23.126,6.5791" id="Fill-6" fill="#4C7EBF"></path>
            <path d="M12.2695,24.753 C11.6445,24.753 11.1545,24.582 10.7675,24.225 C10.3375,23.853 10.1145,23.318 10.0845,22.592 L10.0765,22.399 L7.9085,22.399 L7.9245,22.614 C8.0235,23.944 8.4995,24.977 9.3395,25.683 C10.0835,26.308 11.0755,26.625 12.2855,26.625 C13.5455,26.625 14.5965,26.264 15.4155,25.547 C16.1795,24.834 16.5675,23.912 16.5675,22.808 C16.5675,22.083 16.3565,21.478 15.9435,21.014 C15.6565,20.674 15.2745,20.399 14.8045,20.191 C15.8135,19.695 16.3435,18.839 16.3435,17.686 C16.3435,16.66 15.9745,15.833 15.2435,15.225 C14.5025,14.635 13.5555,14.348 12.3495,14.348 C11.1725,14.348 10.2065,14.683 9.4825,15.34 C8.6975,16.009 8.2485,16.948 8.1485,18.133 L8.1305,18.35 L10.2435,18.35 L10.2595,18.168 C10.3175,17.528 10.5275,17.039 10.8845,16.713 C11.2275,16.398 11.7265,16.237 12.3655,16.237 C13.0055,16.237 13.4825,16.376 13.7805,16.647 C14.0685,16.919 14.2145,17.313 14.2145,17.814 C14.2145,18.322 14.0545,18.718 13.7395,18.99 C13.4205,19.267 12.9315,19.406 12.2855,19.406 L11.2695,19.406 L11.2695,21.119 L12.3015,21.119 C13.0075,21.119 13.5405,21.265 13.8925,21.558 C14.2595,21.841 14.4385,22.276 14.4385,22.888 C14.4385,23.393 14.2645,23.812 13.9105,24.166 C13.4905,24.556 12.9385,24.753 12.2695,24.753" id="Fill-8" fill="#4C7EBF"></path>
            <path d="M21.5566,17.3106 L21.5566,26.4016 L23.7016,26.4016 L23.7016,14.5726 L22.1016,14.5726 L22.0416,14.6366 C21.6896,15.0186 21.2326,15.3786 20.6516,15.7346 C20.0746,16.0536 19.5616,16.2676 19.0836,16.3866 L18.9316,16.4246 L18.9316,18.5756 L19.1866,18.5016 C20.1106,18.2366 20.9056,17.8356 21.5566,17.3106" id="Fill-10" fill="#4C7EBF"></path>
        </g>
    </g>
</svg>