<?xml version="1.0" encoding="UTF-8"?>
<svg width="40px" height="40px" viewBox="0 0 40 40" version="1.1" xmlns="http://www.w3.org/2000/svg" xmlns:xlink="http://www.w3.org/1999/xlink">
    <!-- Generator: Sketch 55.2 (78181) - https://sketchapp.com -->
    <title>icon/calendar</title>
    <desc>Created with Sketch.</desc>
    <defs>
        <polygon id="path-1" points="0.0005 0.136 32.867 0.136 32.867 32.9997 0.0005 32.9997"></polygon>
    </defs>
    <g id="icon/calendar" stroke="none" stroke-width="1" fill="none" fill-rule="evenodd">
        <g id="Group-22" transform="translate(4.000000, 3.000000)">
            <polygon id="Fill-1" fill="#4C7EBF" points="1.25 14.1603 31.073 14.1603 31.073 11.9613 1.25 11.9613"></polygon>
            <g id="Group-21" transform="translate(0.000000, 0.864300)">
                <g id="Group-4">
                    <mask id="mask-2" fill="white">
                        <use xlink:href="#path-1"></use>
                    </mask>
                    <g id="Clip-3"></g>
                    <path d="M4.5635,2.6357 C3.4255,2.6357 2.5005,3.5607 2.5005,4.6977 L2.5005,28.4387 C2.5005,29.5747 3.4255,30.4997 4.5635,30.4997 L28.3035,30.4997 C29.4415,30.4997 30.3675,29.5747 30.3675,28.4387 L30.3675,4.6977 C30.3675,3.5607 29.4415,2.6357 28.3035,2.6357 L4.5635,2.6357 Z M28.3035,32.9997 L4.5635,32.9997 C2.0475,32.9997 0.0005,30.9537 0.0005,28.4387 L0.0005,4.6977 C0.0005,2.1817 2.0475,0.1357 4.5635,0.1357 L28.3035,0.1357 C30.8195,0.1357 32.8675,2.1817 32.8675,4.6977 L32.8675,28.4387 C32.8675,30.9537 30.8195,32.9997 28.3035,32.9997 L28.3035,32.9997 Z" id="Fill-2" fill="#4E5E7F" mask="url(#mask-2)"></path>
                </g>
                <path d="M14.6636,21.7803 C15.6726,21.2853 16.2026,20.4283 16.2026,19.2753 C16.2026,18.2513 15.8336,17.4243 15.1026,16.8143 C14.3626,16.2243 13.4156,15.9383 12.2086,15.9383 C11.0306,15.9383 10.0646,16.2733 9.3416,16.9303 C8.5566,17.5983 8.1076,18.5383 8.0086,19.7233 L7.9896,19.9403 L10.1016,19.9403 L10.1186,19.7593 C10.1776,19.1183 10.3876,18.6293 10.7436,18.3023 C11.0866,17.9873 11.5856,17.8273 12.2256,17.8273 C12.8656,17.8273 13.3426,17.9663 13.6396,18.2353 C13.9276,18.5093 14.0736,18.9033 14.0736,19.4033 C14.0736,19.9123 13.9136,20.3083 13.5986,20.5813 C13.2796,20.8563 12.7906,20.9963 12.1446,20.9963 L11.1286,20.9963 L11.1286,22.7093 L12.1606,22.7093 C12.8666,22.7093 13.3996,22.8543 13.7516,23.1473 C14.1196,23.4303 14.2976,23.8653 14.2976,24.4773 C14.2976,24.9823 14.1226,25.4023 13.7696,25.7563 C13.3506,26.1453 12.7976,26.3423 12.1286,26.3423 C11.5036,26.3423 11.0136,26.1723 10.6266,25.8143 C10.1976,25.4423 9.9746,24.9083 9.9436,24.1803 L9.9356,23.9893 L7.7676,23.9893 L7.7836,24.2043 C7.8826,25.5343 8.3596,26.5663 9.1986,27.2723 C9.9426,27.8973 10.9346,28.2153 12.1446,28.2153 C13.4046,28.2153 14.4556,27.8533 15.2746,27.1363 C16.0386,26.4233 16.4266,25.5023 16.4266,24.3973 C16.4266,23.6723 16.2156,23.0673 15.8026,22.6043 C15.5166,22.2643 15.1346,21.9893 14.6636,21.7803" id="Fill-5" fill="#4C7EBF"></path>
                <path d="M21.9014,16.2266 C21.5474,16.6086 21.0904,16.9686 20.5104,17.3246 C19.9374,17.6436 19.4234,17.8566 18.9424,17.9766 L18.7904,18.0146 L18.7904,20.1646 L19.0464,20.0916 C19.9704,19.8266 20.7654,19.4256 21.4154,18.9006 L21.4154,27.9916 L23.5614,27.9916 L23.5614,16.1626 L21.9614,16.1626 L21.9014,16.2266 Z" id="Fill-7" fill="#4C7EBF"></path>
                <polygon id="Fill-9" fill="#4C7EBF" points="8.354 6.1992 9.355 8.9362 9.865 8.9362 10.865 6.2022 10.865 8.9362 11.565 8.9362 11.565 5.2972 10.531 5.2972 9.61 7.6872 8.699 5.2972 7.655 5.2972 7.655 8.9362 8.354 8.9362"></polygon>
                <path d="M13.98,7.6865 C13.98,7.7755 13.965,7.8585 13.935,7.9405 C13.906,8.0195 13.862,8.0905 13.805,8.1525 C13.749,8.2145 13.681,8.2635 13.599,8.3015 C13.44,8.3745 13.207,8.3745 13.051,8.3015 C12.968,8.2635 12.9,8.2145 12.844,8.1525 C12.787,8.0905 12.744,8.0195 12.714,7.9395 C12.684,7.8585 12.669,7.7755 12.669,7.6865 C12.669,7.5995 12.685,7.5145 12.714,7.4335 C12.743,7.3545 12.786,7.2845 12.844,7.2205 C12.901,7.1585 12.971,7.1085 13.051,7.0715 C13.129,7.0355 13.221,7.0165 13.325,7.0165 C13.427,7.0165 13.52,7.0355 13.599,7.0715 C13.679,7.1085 13.749,7.1585 13.805,7.2205 C13.864,7.2845 13.906,7.3545 13.935,7.4345 C13.965,7.5145 13.98,7.5995 13.98,7.6865 M13.852,6.4695 C13.519,6.3455 13.126,6.3475 12.797,6.4695 C12.631,6.5325 12.486,6.6225 12.366,6.7355 C12.244,6.8495 12.147,6.9885 12.076,7.1485 C12.006,7.3085 11.97,7.4895 11.97,7.6865 C11.97,7.8835 12.006,8.0645 12.076,8.2245 C12.147,8.3855 12.245,8.5245 12.365,8.6375 C12.486,8.7515 12.631,8.8415 12.797,8.9035 C12.959,8.9645 13.137,8.9965 13.325,8.9965 C13.511,8.9965 13.689,8.9645 13.852,8.9035 C14.018,8.8415 14.164,8.7515 14.284,8.6375 C14.405,8.5245 14.502,8.3845 14.573,8.2245 C14.644,8.0635 14.679,7.8825 14.679,7.6865 C14.679,7.4905 14.644,7.3095 14.573,7.1485 C14.502,6.9895 14.405,6.8495 14.284,6.7355 C14.164,6.6225 14.018,6.5325 13.852,6.4695" id="Fill-11" fill="#4C7EBF"></path>
                <path d="M17.0981,6.6855 C17.0251,6.5935 16.9281,6.5185 16.8081,6.4615 C16.6911,6.4055 16.5471,6.3765 16.3791,6.3765 C16.1681,6.3765 15.9981,6.4245 15.8751,6.5195 C15.8001,6.5765 15.7361,6.6385 15.6841,6.7085 L15.6841,6.4365 L15.0141,6.4365 L15.0141,8.9365 L15.7141,8.9365 L15.7141,7.5775 C15.7141,7.5005 15.7241,7.4275 15.7431,7.3595 C15.7611,7.2925 15.7901,7.2335 15.8301,7.1825 C15.8701,7.1315 15.9221,7.0915 15.9831,7.0615 C16.0441,7.0325 16.1221,7.0165 16.2141,7.0165 C16.3061,7.0165 16.3761,7.0375 16.4281,7.0785 C16.4811,7.1225 16.5211,7.1755 16.5461,7.2375 C16.5721,7.3035 16.5871,7.3735 16.5941,7.4535 C16.6011,7.5395 16.6051,7.6105 16.6051,7.6715 L16.6051,8.9365 L17.3041,8.9365 L17.3041,7.3725 C17.3041,7.2435 17.2881,7.1195 17.2581,7.0035 C17.2251,6.8835 17.1721,6.7775 17.0981,6.6855" id="Fill-13" fill="#4C7EBF"></path>
                <path d="M18.5137,8.1523 C18.4567,8.0903 18.4137,8.0193 18.3847,7.9393 C18.3537,7.8583 18.3397,7.7753 18.3397,7.6863 C18.3397,7.5993 18.3547,7.5143 18.3847,7.4333 C18.4127,7.3543 18.4557,7.2843 18.5137,7.2203 C18.5707,7.1583 18.6407,7.1083 18.7207,7.0713 C18.7987,7.0353 18.8907,7.0163 18.9947,7.0163 C19.0967,7.0163 19.1897,7.0353 19.2687,7.0713 C19.3487,7.1083 19.4187,7.1583 19.4747,7.2203 C19.5337,7.2843 19.5757,7.3543 19.6047,7.4343 C19.6347,7.5143 19.6497,7.5993 19.6497,7.6863 C19.6497,7.7753 19.6357,7.8583 19.6047,7.9393 C19.5757,8.0193 19.5327,8.0903 19.4747,8.1523 C19.4187,8.2143 19.3507,8.2633 19.2687,8.3003 C19.1097,8.3763 18.8767,8.3763 18.7207,8.3003 C18.6387,8.2633 18.5707,8.2143 18.5137,8.1523 M19.3697,8.8923 C19.4827,8.8413 19.5797,8.7673 19.6597,8.6713 L19.6597,8.9363 L20.3297,8.9363 L20.3297,5.0563 L19.6297,5.0563 L19.6297,6.6753 C19.6147,6.6613 19.5987,6.6463 19.5817,6.6313 C19.5337,6.5883 19.4727,6.5473 19.4037,6.5073 C19.3357,6.4703 19.2577,6.4393 19.1627,6.4143 C19.0727,6.3893 18.9667,6.3773 18.8487,6.3773 C18.6727,6.3773 18.5077,6.4113 18.3587,6.4783 C18.2107,6.5453 18.0817,6.6393 17.9747,6.7583 C17.8697,6.8763 17.7857,7.0153 17.7277,7.1733 C17.6697,7.3293 17.6397,7.5023 17.6397,7.6863 C17.6397,7.8683 17.6677,8.0403 17.7217,8.1983 C17.7777,8.3583 17.8607,8.4993 17.9677,8.6163 C18.0747,8.7333 18.2057,8.8273 18.3567,8.8953 C18.5077,8.9623 18.6817,8.9963 18.8747,8.9963 C19.0507,8.9963 19.2177,8.9613 19.3697,8.8923" id="Fill-15" fill="#4C7EBF"></path>
                <path d="M22.1743,7.8613 L22.2493,7.8613 L22.2493,7.9463 C22.2493,8.1043 22.2063,8.2243 22.1163,8.3143 C22.0273,8.4023 21.8853,8.4473 21.6953,8.4473 C21.6483,8.4473 21.6023,8.4413 21.5553,8.4303 C21.5123,8.4213 21.4723,8.4033 21.4373,8.3803 C21.4033,8.3573 21.3753,8.3303 21.3533,8.2973 C21.3343,8.2663 21.3233,8.2283 21.3233,8.1813 C21.3233,8.1113 21.3483,8.0573 21.4003,8.0193 C21.4583,7.9743 21.5283,7.9413 21.6153,7.9173 C21.7013,7.8933 21.7973,7.8783 21.8973,7.8713 C21.9993,7.8653 22.0923,7.8613 22.1743,7.8613 L22.1743,7.8613 Z M22.9243,8.9363 L22.9243,7.5073 C22.9243,7.4493 22.9223,7.3823 22.9193,7.3063 C22.9153,7.2263 22.9033,7.1453 22.8853,7.0663 C22.8673,6.9833 22.8353,6.8993 22.7913,6.8153 C22.7473,6.7313 22.6833,6.6573 22.6003,6.5923 C22.5203,6.5293 22.4173,6.4763 22.2953,6.4363 C22.1723,6.3963 22.0223,6.3773 21.8493,6.3773 C21.6553,6.3773 21.4643,6.4083 21.2813,6.4693 C21.0943,6.5323 20.9303,6.6353 20.7943,6.7763 L20.7593,6.8113 L21.1433,7.1973 L21.1783,7.1633 C21.2533,7.0913 21.3433,7.0333 21.4483,6.9903 C21.5513,6.9483 21.6653,6.9263 21.7843,6.9263 C21.9353,6.9263 22.0543,6.9613 22.1503,7.0293 C22.2403,7.0953 22.2843,7.1923 22.2843,7.3273 L22.2843,7.3413 L22.1843,7.3413 C22.0843,7.3413 21.9763,7.3443 21.8623,7.3493 C21.7473,7.3543 21.6313,7.3663 21.5193,7.3843 C21.4103,7.4023 21.2993,7.4303 21.1873,7.4693 C21.0783,7.5083 20.9823,7.5603 20.9013,7.6253 C20.8183,7.6903 20.7503,7.7733 20.7003,7.8723 C20.6503,7.9703 20.6243,8.0903 20.6243,8.2263 C20.6243,8.3543 20.6523,8.4683 20.7053,8.5663 C20.7593,8.6633 20.8303,8.7443 20.9173,8.8063 C21.0043,8.8713 21.1043,8.9193 21.2133,8.9493 C21.3203,8.9803 21.4333,8.9963 21.5493,8.9963 C21.7163,8.9963 21.8713,8.9643 22.0103,8.8993 C22.1143,8.8513 22.2063,8.7813 22.2843,8.6893 L22.2843,8.9363 L22.9243,8.9363 Z" id="Fill-17" fill="#4C7EBF"></path>
                <path d="M24.9741,6.4365 L24.4021,8.0235 L23.7631,6.4365 L22.9941,6.4365 L24.0401,8.9065 L23.9321,9.1715 C23.9071,9.2345 23.8821,9.2885 23.8601,9.3315 C23.8401,9.3705 23.8161,9.4005 23.7861,9.4245 C23.7541,9.4505 23.7191,9.4675 23.6761,9.4785 C23.5971,9.4985 23.4731,9.5055 23.3581,9.4805 C23.3091,9.4695 23.2621,9.4565 23.2171,9.4395 L23.1591,9.4175 L23.0691,10.0635 L23.1121,10.0745 C23.2691,10.1165 23.4241,10.1365 23.5841,10.1365 C23.7201,10.1365 23.8401,10.1225 23.9411,10.0915 C24.0421,10.0615 24.1311,10.0145 24.2061,9.9525 C24.2801,9.8905 24.3451,9.8145 24.3991,9.7255 C24.4531,9.6365 24.5021,9.5345 24.5461,9.4195 L25.6811,6.5045 L25.7071,6.4365 L24.9741,6.4365 Z" id="Fill-19" fill="#4C7EBF"></path>
            </g>
        </g>
    </g>
</svg>