<?xml version="1.0" encoding="UTF-8"?>
<svg width="40px" height="40px" viewBox="0 0 40 40" version="1.1" xmlns="http://www.w3.org/2000/svg" xmlns:xlink="http://www.w3.org/1999/xlink">
    <!-- Generator: Sketch 55.2 (78181) - https://sketchapp.com -->
    <title>icon/call-out</title>
    <desc>Created with Sketch.</desc>
    <defs>
        <polygon id="path-1" points="0 0.0381430668 18.8776843 0.0381430668 18.8776843 18.8786 0 18.8786"></polygon>
        <polygon id="path-3" points="0.389373754 0.841 33.734 0.841 33.734 35 0.389373754 35"></polygon>
    </defs>
    <g id="icon/call-out" stroke="none" stroke-width="1" fill="none" fill-rule="evenodd">
        <g id="Group-25" transform="translate(1.000000, 2.000000)">
            <path d="M20.0928,12.5938 C15.4218,12.5938 10.9408,11.6288 7.1328,9.8048 C7.0088,9.7448 6.9558,9.5958 7.0158,9.4708 C7.0748,9.3478 7.2248,9.2948 7.3498,9.3538 C11.0888,11.1468 15.4958,12.0938 20.0928,12.0938 C25.1378,12.0938 30.0698,10.9128 33.9808,8.7698 C34.0998,8.7018 34.2538,8.7468 34.3198,8.8678 C34.3858,8.9898 34.3418,9.1418 34.2208,9.2068 C30.2378,11.3918 25.2208,12.5938 20.0928,12.5938" id="Fill-1" fill="#4C7EC0"></path>
            <path d="M33.5234,26.7676 C33.4874,26.7676 33.4504,26.7596 33.4164,26.7436 C29.6704,24.9546 25.2634,24.0086 20.6704,24.0086 C17.0604,24.0086 13.4814,24.6086 10.3224,25.7436 C10.1924,25.7876 10.0484,25.7226 10.0024,25.5926 C9.9554,25.4616 10.0224,25.3196 10.1524,25.2726 C13.3664,24.1196 17.0034,23.5086 20.6704,23.5086 C25.3374,23.5086 29.8194,24.4716 33.6304,26.2916 C33.7554,26.3516 33.8084,26.5006 33.7494,26.6246 C33.7064,26.7146 33.6164,26.7676 33.5234,26.7676" id="Fill-3" fill="#4C7EC0"></path>
            <path d="M20.8535,34.0362 C20.7155,34.0362 20.6035,33.9242 20.6035,33.7862 C20.6035,33.6482 20.7155,33.5362 20.8535,33.5362 C25.5665,33.5362 29.4015,26.4812 29.4015,17.8092 C29.4015,9.1372 25.5665,2.0802 20.8535,2.0802 C16.1425,2.0802 12.3105,9.1372 12.3105,17.8092 C12.3105,20.1992 12.5945,22.4942 13.1565,24.6302 C13.1915,24.7642 13.1115,24.9002 12.9775,24.9352 C12.8385,24.9662 12.7075,24.8902 12.6715,24.7572 C12.1005,22.5802 11.8105,20.2422 11.8105,17.8092 C11.8105,8.8602 15.8675,1.5802 20.8535,1.5802 C25.8425,1.5802 29.9015,8.8602 29.9015,17.8092 C29.9015,26.7572 25.8425,34.0362 20.8535,34.0362" id="Fill-5" fill="#4C7EC0"></path>
            <path d="M20.8535,34.0362 C20.7155,34.0362 20.6035,33.9242 20.6035,33.7862 L20.6035,23.9372 C20.6035,23.8002 20.7155,23.6872 20.8535,23.6872 C20.9915,23.6872 21.1035,23.8002 21.1035,23.9372 L21.1035,33.7862 C21.1035,33.9242 20.9915,34.0362 20.8535,34.0362" id="Fill-7" fill="#4C7EC0"></path>
            <path d="M20.8535,12.583 C20.7155,12.583 20.6035,12.471 20.6035,12.333 L20.6035,1.68 C20.6035,1.542 20.7155,1.43 20.8535,1.43 C20.9915,1.43 21.1035,1.542 21.1035,1.68 L21.1035,12.333 C21.1035,12.471 20.9915,12.583 20.8535,12.583" id="Fill-9" fill="#4C7EC0"></path>
            <path d="M12.0791,18.169 L8.2121,18.169 C8.0741,18.169 7.9621,18.057 7.9621,17.919 C7.9621,17.781 8.0741,17.669 8.2121,17.669 L12.0791,17.669 C12.2171,17.669 12.3291,17.781 12.3291,17.919 C12.3291,18.057 12.2171,18.169 12.0791,18.169" id="Fill-11" fill="#4C7EC0"></path>
            <path d="M36.1465,18.169 L29.6335,18.169 C29.4965,18.169 29.3835,18.057 29.3835,17.919 C29.3835,17.781 29.4965,17.669 29.6335,17.669 L36.1465,17.669 C36.2845,17.669 36.3965,17.781 36.3965,17.919 C36.3965,18.057 36.2845,18.169 36.1465,18.169" id="Fill-13" fill="#4C7EC0"></path>
            <path d="M17.0166,20.2588 C17.4406,19.9248 17.8726,19.5778 18.3176,19.2218 C18.7776,18.8488 19.1696,18.4428 19.4836,18.0148 C19.8606,17.5018 20.0516,16.9098 20.0516,16.2558 C20.0516,15.8138 19.9676,15.4298 19.7956,15.0828 C19.6256,14.7388 19.3956,14.4518 19.1136,14.2318 C18.8316,14.0068 18.5006,13.8338 18.1276,13.7168 C17.7566,13.6018 17.3696,13.5448 16.9416,13.5448 C16.1306,13.5448 15.4186,13.7778 14.8226,14.2378 C14.5256,14.4748 14.2806,14.7488 14.0936,15.0548 C13.9126,15.3598 13.7786,15.7348 13.6946,16.1698 L13.6576,16.3618 L15.6546,16.7998 L15.6946,16.5998 C15.7636,16.2558 15.9036,15.9658 16.1096,15.7378 C16.3016,15.5288 16.5786,15.4258 16.9536,15.4258 C17.2386,15.4258 17.4566,15.4928 17.6236,15.6308 C17.7806,15.7618 17.8566,15.9578 17.8566,16.2308 C17.8566,16.3768 17.8056,16.5298 17.7026,16.6908 C17.5916,16.8718 17.4566,17.0488 17.2906,17.2328 C17.1306,17.4098 16.9576,17.5788 16.7776,17.7338 C16.5926,17.8888 16.4376,18.0168 16.3026,18.1158 C15.9876,18.3628 15.6946,18.5978 15.4236,18.8288 C15.1776,19.0338 14.9436,19.2338 14.7196,19.4218 L14.6556,19.4778 C14.3896,19.6978 14.1816,19.9078 14.0186,20.1208 C13.8536,20.3378 13.7406,20.5698 13.6786,20.8548 L13.6786,22.5448 L20.0416,22.5448 L20.0416,20.5968 L16.5836,20.5968 C16.5846,20.5968 16.5846,20.5968 16.5856,20.5958 C16.7226,20.4868 16.8676,20.3718 17.0166,20.2588" id="Fill-15" fill="#4C7EBF"></path>
            <path d="M23.041,18.8389 L24.717,16.4899 L24.717,18.8389 L23.041,18.8389 Z M26.843,18.8389 L26.843,13.6339 L24.675,13.6339 L20.943,18.6889 L20.904,18.7419 L20.904,20.6519 L24.717,20.6519 L24.717,22.5449 L26.843,22.5449 L26.843,20.6519 L28.025,20.6519 L28.025,18.8389 L26.843,18.8389 Z" id="Fill-17" fill="#4C7EBF"></path>
            <g id="Group-21" transform="translate(0.000000, 16.159200)">
                <mask id="mask-2" fill="white">
                    <use xlink:href="#path-1"></use>
                </mask>
                <g id="Clip-20"></g>
                <path d="M4.0859,2.3066 L6.6259,4.8476 C6.6759,4.8966 6.7059,4.9546 6.7379,4.9736 L5.0919,6.6196 C4.5509,7.1676 4.4869,8.0366 4.9389,8.6866 C5.6349,9.6906 6.4419,10.6556 7.3399,11.5526 C8.2369,12.4526 9.1999,13.2586 10.1969,13.9496 C10.8109,14.3806 11.7489,14.3146 12.2709,13.7966 L13.8749,12.1806 C13.9179,12.1806 13.9879,12.2076 14.0479,12.2666 L16.5809,14.8016 C16.6349,14.8566 16.6669,14.9186 16.7019,14.9366 L15.2899,16.3326 L15.2369,16.3656 C14.9289,16.5676 14.5109,16.6696 13.9959,16.6696 C11.8919,16.6696 8.9009,15.0366 6.3779,12.5096 C2.5559,8.6936 1.6989,4.8976 2.4929,3.6946 L3.9029,2.2216 L3.9119,1.7216 L3.9119,2.2216 C3.9679,2.2216 4.0319,2.2526 4.0859,2.3066 M18.1449,13.2426 L15.6079,10.7076 C14.7209,9.8126 13.1859,9.7546 12.3529,10.5896 L11.0789,11.8636 C10.3169,11.3056 9.5859,10.6756 8.8989,9.9896 C8.2189,9.3136 7.5889,8.5806 7.0249,7.8096 L8.2989,6.5376 C8.7329,6.1076 8.9569,5.4946 8.9129,4.8576 C8.8719,4.2676 8.6129,3.7086 8.1859,3.2836 L5.6509,0.7496 C4.7689,-0.1424 3.2359,-0.2094 2.3949,0.6266 L0.9829,2.0406 C0.8439,2.1746 0.7319,2.3306 0.6599,2.4846 C-1.0551,5.1456 0.6559,9.9116 4.8179,14.0746 C7.7849,17.0376 11.3019,18.8786 13.9959,18.8786 C14.9299,18.8786 15.7459,18.6596 16.3839,18.2466 C16.5649,18.1526 16.7169,18.0416 16.8419,17.9136 L18.2579,16.4966 C18.6899,16.0686 18.9139,15.4556 18.8729,14.8166 C18.8349,14.2336 18.5759,13.6746 18.1449,13.2426" id="Fill-19" fill="#4E5E7F" mask="url(#mask-2)"></path>
            </g>
            <g id="Group-24" transform="translate(4.000000, 0.159200)">
                <mask id="mask-4" fill="white">
                    <use xlink:href="#path-3"></use>
                </mask>
                <g id="Clip-23"></g>
                <path d="M17.4561,35 C16.7951,35 16.2421,34.481 16.2091,33.813 C16.1741,33.124 16.7041,32.536 17.3941,32.502 C25.1551,32.109 31.2341,25.709 31.2341,17.93 C31.2341,9.886 24.6891,3.341 16.6441,3.341 C10.3861,3.341 4.8321,7.318 2.8231,13.238 C2.6021,13.892 1.8921,14.241 1.2381,14.021 C0.5841,13.799 0.2341,13.089 0.4561,12.436 C2.8091,5.5 9.3141,0.841 16.6441,0.841 C26.0681,0.841 33.7341,8.507 33.7341,17.93 C33.7341,27.042 26.6121,34.539 17.5201,34.998 C17.4991,34.999 17.4771,35 17.4561,35" id="Fill-22" fill="#4E5E7F" mask="url(#mask-4)"></path>
            </g>
        </g>
    </g>
</svg>