<?xml version="1.0" encoding="UTF-8"?>
<svg width="40px" height="40px" viewBox="0 0 40 40" version="1.1" xmlns="http://www.w3.org/2000/svg" xmlns:xlink="http://www.w3.org/1999/xlink">
    <!-- Generator: Sketch 55.2 (78181) - https://sketchapp.com -->
    <title>icon/call-in</title>
    <desc>Created with Sketch.</desc>
    <defs>
        <polygon id="path-1" points="0 0.0370418931 18.8779026 0.0370418931 18.8779026 18.8786 0 18.8786"></polygon>
    </defs>
    <g id="icon/call-in" stroke="none" stroke-width="1" fill="none" fill-rule="evenodd">
        <g id="Group-10" transform="translate(1.000000, 3.000000)">
            <path d="M17.0166,19.2588 C17.4406,18.9248 17.8726,18.5778 18.3176,18.2218 C18.7766,17.8488 19.1686,17.4438 19.4836,17.0148 C19.8606,16.5018 20.0516,15.9098 20.0516,15.2558 C20.0516,14.8128 19.9686,14.4288 19.7966,14.0828 C19.6246,13.7378 19.3946,13.4508 19.1136,13.2318 C18.8286,13.0038 18.5056,12.8358 18.1276,12.7178 C17.7576,12.6018 17.3696,12.5448 16.9416,12.5448 C16.1316,12.5448 15.4196,12.7778 14.8226,13.2378 C14.5256,13.4738 14.2806,13.7478 14.0936,14.0548 C13.9126,14.3608 13.7776,14.7358 13.6946,15.1698 L13.6586,15.3618 L15.6546,15.7998 L15.6946,15.5998 C15.7636,15.2548 15.9036,14.9658 16.1096,14.7378 C16.3026,14.5288 16.5786,14.4258 16.9536,14.4258 C17.2376,14.4258 17.4576,14.4928 17.6236,14.6308 C17.7806,14.7628 17.8566,14.9588 17.8566,15.2308 C17.8566,15.3768 17.8066,15.5298 17.7026,15.6908 C17.5926,15.8698 17.4576,16.0468 17.2916,16.2328 C17.1326,16.4078 16.9596,16.5768 16.7776,16.7328 C16.5926,16.8888 16.4366,17.0168 16.3026,17.1158 C15.9876,17.3628 15.6936,17.5988 15.4236,17.8288 C15.1996,18.0168 14.9846,18.1988 14.7786,18.3728 L14.6566,18.4768 C14.3916,18.6958 14.1836,18.9058 14.0196,19.1208 C13.8546,19.3368 13.7416,19.5678 13.6786,19.8548 L13.6786,21.5448 L20.0416,21.5448 L20.0416,19.5968 L16.5846,19.5968 C16.5856,19.5968 16.5856,19.5958 16.5866,19.5958 C16.7236,19.4868 16.8676,19.3718 17.0166,19.2588" id="Fill-1" fill="#4C7EBF"></path>
            <path d="M23.041,17.8389 L24.717,15.4899 L24.717,17.8389 L23.041,17.8389 Z M26.842,17.8389 L26.842,12.6339 L24.674,12.6339 L20.943,17.6889 L20.904,17.7419 L20.904,19.6519 L24.717,19.6519 L24.717,21.5449 L26.842,21.5449 L26.842,19.6519 L28.025,19.6519 L28.025,17.8389 L26.842,17.8389 Z" id="Fill-3" fill="#4C7EBF"></path>
            <g id="Group-7" transform="translate(0.000000, 15.159200)">
                <mask id="mask-2" fill="white">
                    <use xlink:href="#path-1"></use>
                </mask>
                <g id="Clip-6"></g>
                <path d="M4.0859,2.3066 L6.6259,4.8466 C6.6759,4.8956 6.7059,4.9536 6.7379,4.9736 L5.0909,6.6196 C4.5499,7.1686 4.4869,8.0376 4.9389,8.6866 C5.6359,9.6926 6.4439,10.6576 7.3399,11.5526 C8.2389,12.4526 9.2009,13.2586 10.1969,13.9496 C10.8129,14.3806 11.7479,14.3136 12.2709,13.7966 L13.8749,12.1806 C13.9179,12.1806 13.9879,12.2076 14.0479,12.2666 L16.5819,14.8036 C16.6359,14.8576 16.6679,14.9186 16.7019,14.9366 L15.2909,16.3326 L15.2369,16.3656 C14.9289,16.5676 14.5109,16.6696 13.9959,16.6696 C11.8919,16.6696 8.9019,15.0366 6.3779,12.5096 C2.5559,8.6936 1.6999,4.8976 2.4939,3.6946 L3.9039,2.2216 L3.9129,1.7216 L3.9129,2.2216 C3.9669,2.2216 4.0329,2.2536 4.0859,2.3066 M18.1449,13.2426 L15.6079,10.7076 C14.7179,9.8126 13.1889,9.7546 12.3529,10.5896 L11.0789,11.8636 C10.3159,11.3046 9.5849,10.6746 8.8989,9.9896 C8.2199,9.3146 7.5909,8.5816 7.0249,7.8096 L8.2979,6.5376 C8.7329,6.1076 8.9569,5.4946 8.9129,4.8576 C8.8719,4.2676 8.6129,3.7076 8.1849,3.2836 L5.6509,0.7496 C4.7669,-0.1444 3.2379,-0.2104 2.3939,0.6266 L0.9819,2.0416 C0.8439,2.1756 0.7319,2.3306 0.6589,2.4846 C-1.0541,5.1456 0.6559,9.9116 4.8179,14.0746 C7.7849,17.0376 11.3009,18.8786 13.9959,18.8786 C14.9289,18.8786 15.7449,18.6596 16.3859,18.2456 C16.5669,18.1506 16.7179,18.0406 16.8419,17.9136 L18.2589,16.4956 C18.6909,16.0666 18.9149,15.4536 18.8729,14.8156 C18.8339,14.2326 18.5759,13.6736 18.1449,13.2426" id="Fill-5" fill="#4E5E7F" mask="url(#mask-2)"></path>
            </g>
            <path d="M21.4556,34.1592 C20.7936,34.1592 20.2416,33.6402 20.2076,32.9722 C20.1736,32.2832 20.7046,31.6952 21.3936,31.6612 C29.1546,31.2682 35.2336,24.8682 35.2336,17.0892 C35.2336,9.0452 28.6886,2.5002 20.6436,2.5002 C14.3866,2.5002 8.8326,6.4772 6.8236,12.3972 C6.6016,13.0512 5.8916,13.4012 5.2376,13.1802 C4.5836,12.9582 4.2336,12.2482 4.4556,11.5952 C6.8096,4.6592 13.3146,0.0002 20.6436,0.0002 C30.0676,0.0002 37.7336,7.6662 37.7336,17.0892 C37.7336,26.2012 30.6116,33.6982 21.5196,34.1572 C21.4976,34.1582 21.4766,34.1592 21.4556,34.1592" id="Fill-8" fill="#4E5E7F"></path>
        </g>
    </g>
</svg>