<?xml version="1.0" encoding="UTF-8"?>
<svg width="40px" height="40px" viewBox="0 0 40 40" version="1.1" xmlns="http://www.w3.org/2000/svg" xmlns:xlink="http://www.w3.org/1999/xlink">
    <!-- Generator: Sketch 55.2 (78181) - https://sketchapp.com -->
    <title>icon/driver</title>
    <desc>Created with Sketch.</desc>
    <defs>
        <polygon id="path-1" points="0.0001 0.9024 24.708 0.9024 24.708 21 0.0001 21"></polygon>
        <polygon id="path-3" points="0.416 0.459 16.294 0.459 16.294 16.3356 0.416 16.3356"></polygon>
    </defs>
    <g id="icon/driver" stroke="none" stroke-width="1" fill="none" fill-rule="evenodd">
        <g id="Group-13" transform="translate(8.000000, 3.000000)">
            <path d="M16.1753,27.1181 C15.8793,27.1181 15.5823,27.0121 15.3483,26.7941 C14.8563,26.3371 14.8273,25.5671 15.2843,25.0751 L21.0893,18.8211 C21.5463,18.3291 22.3163,18.3011 22.8073,18.7581 C23.3003,19.2151 23.3283,19.9841 22.8733,20.4761 L17.0673,26.7301 C16.8273,26.9881 16.5023,27.1181 16.1753,27.1181" id="Fill-1" fill="#4C7EBF"></path>
            <path d="M18.6548,7.9072 L6.0538,7.9072 C5.3828,7.9072 4.8378,7.3622 4.8378,6.6902 C4.8378,6.0192 5.3828,5.4742 6.0538,5.4742 L18.6548,5.4742 C19.3258,5.4742 19.8708,6.0192 19.8708,6.6902 C19.8708,7.3622 19.3258,7.9072 18.6548,7.9072" id="Fill-3" fill="#4C7EBF"></path>
            <path d="M19.2772,33.325 C19.2772,29.507 16.1712,26.403 12.3552,26.403 C8.5382,26.403 5.4322,29.507 5.4322,33.325 C5.4322,33.996 4.672,34.0378 4,34.0378 C3.328,34.0378 3.0002,33.996 3.0002,33.325 C3.0002,28.167 7.1972,23.971 12.3552,23.971 C17.5132,23.971 21.7112,28.167 21.7112,33.325 C21.7112,33.996 21.1642,34.0378 20.4932,34.0378 C19.8212,34.0378 19.2772,33.996 19.2772,33.325 Z" id="Fill-5" fill="#4C7EBF"></path>
            <g id="Group-9" transform="translate(0.000000, 13.541000)">
                <mask id="mask-2" fill="white">
                    <use xlink:href="#path-1"></use>
                </mask>
                <g id="Clip-8"></g>
                <path d="M2.4321,18.5674 L22.2761,18.5674 L22.2761,9.4464 C22.2761,6.1344 17.7321,3.3364 12.3551,3.3364 C6.9761,3.3364 2.4321,6.1344 2.4321,9.4464 L2.4321,18.5674 Z M24.7081,21.0004 L0.0001,21.0004 L0.0001,9.4464 C0.0001,4.6564 5.4271,0.9024 12.3551,0.9024 C19.2821,0.9024 24.7081,4.6564 24.7081,9.4464 L24.7081,21.0004 Z" id="Fill-7" fill="#4E5E7F" mask="url(#mask-2)"></path>
            </g>
            <g id="Group-12" transform="translate(4.000000, 0.541000)">
                <mask id="mask-4" fill="white">
                    <use xlink:href="#path-3"></use>
                </mask>
                <g id="Clip-11"></g>
                <path d="M8.355,2.8916 C5.319,2.8916 2.848,5.3626 2.848,8.3986 C2.848,11.4336 5.319,13.9026 8.355,13.9026 C11.391,13.9026 13.862,11.4336 13.862,8.3986 C13.862,5.3626 11.391,2.8916 8.355,2.8916 M8.355,16.3356 C3.978,16.3356 0.416,12.7756 0.416,8.3986 C0.416,4.0206 3.978,0.4586 8.355,0.4586 C12.733,0.4586 16.294,4.0206 16.294,8.3986 C16.294,12.7756 12.733,16.3356 8.355,16.3356" id="Fill-10" fill="#4E5E7F" mask="url(#mask-4)"></path>
            </g>
        </g>
    </g>
</svg>