<?xml version="1.0" encoding="utf-8"?>
<!-- Generator: Adobe Illustrator 26.3.1, SVG Export Plug-In . SVG Version: 6.00 Build 0)  -->
<svg  width="40px" height="40px" viewBox="0 0 40 40" version="1.1"  id="圖層_1" xmlns="http://www.w3.org/2000/svg" xmlns:xlink="http://www.w3.org/1999/xlink" style="enable-background:new 0 0 40 40;" xml:space="preserve">
<style type="text/css">
	.st0{fill:#4E5E7F;}
	.st1{fill:#4C7EBF;}
</style>
<g>
	<path class="st0" d="M19.6,1.6C9.7,1.6,1.6,9.3,1.6,18.9c0,5.1,2.4,9.6,6,12.8c0,0-1.1,5.2,0.5,6.2c1.7,1,6.1-2.6,6.1-2.6
		c1.7,0.5,3.5,0.9,5.4,0.9c9.9,0,18.1-7.7,18.1-17.3S29.6,1.6,19.6,1.6z M19.6,33.2c-1.8,0-3.5-0.3-5.1-0.9l-0.6-0.2
		c0,0-2.3,1.8-3.1,1.3c-0.6-0.3-0.2-3-0.2-3L10,29.9c-3.3-2.6-5.5-6.6-5.5-11c0-7.9,6.7-14.3,15.1-14.3S34.7,11,34.7,18.9
		S28,33.2,19.6,33.2z"/>
	<polygon class="st1" points="17.9,14.1 8.9,23.7 17,19.2 21.3,23.9 30.3,14.1 22.4,18.6 	"/>
</g>
</svg>
