<svg width="167" height="44" viewBox="0 0 167 44" fill="none" xmlns="http://www.w3.org/2000/svg">
<path d="M102.005 3.86261C103.483 2.91495 104.824 1.74492 105.987 0.379883L107.034 1.27622C105.953 2.696 104.598 4.0063 102.997 5.16949L102.005 3.86261Z" fill="#323232"/>
<path d="M104.403 16.3732V9.45904L104.28 9.59247C103.887 10.0167 103.428 10.4683 102.843 11.0157L101.8 9.63352C103.408 8.30269 104.828 6.67423 106.141 4.66602L107.243 5.65131C106.856 6.30475 106.412 6.96503 105.922 7.62531L105.909 16.3766H104.403V16.3732Z" fill="#323232"/>
<path d="M117.397 1.33789H108.7V2.83978H117.397V1.33789Z" fill="#323232"/>
<path d="M110.743 16.2262L110.411 14.6559C111.639 14.7517 112.542 14.7961 113.247 14.7961C113.893 14.7961 114.03 14.519 114.03 14.2864V7.55699H107.766V6.12695H118.331V7.55699H115.679V14.5806C115.679 15.1588 115.529 15.5967 115.248 15.843C114.961 16.0962 114.444 16.2262 113.76 16.2262H110.743Z" fill="#323232"/>
<path d="M89.1038 7.35206C88.9704 7.051 88.8575 6.79782 88.7343 6.52071L88.5291 6.05544C90.2362 5.79885 91.2797 5.48068 92.3676 5.12146L92.4907 5.08041C92.4907 5.08041 92.1589 4.81356 92.0597 4.73487C91.9297 4.63224 91.8168 4.54329 91.7005 4.44749C91.9297 4.18749 92.2307 3.81117 92.4873 3.45879C92.9184 3.81459 93.5137 4.21828 94.061 4.52276L94.0987 4.54329L94.1329 4.51934C94.9403 4.00616 95.5732 3.41773 96.1377 2.85324L96.2608 2.73008H91.916L91.8168 2.87035C91.6149 3.15773 91.3891 3.48616 90.8725 4.01644C90.5373 4.36197 90.3799 4.52277 90.0036 4.87172C89.8907 4.74172 89.7709 4.60829 89.6478 4.47487C89.4322 4.23881 89.2099 3.99248 89.0183 3.753C90.3491 2.49744 91.2762 1.33767 92.0152 0L93.4316 0.578175C93.37 0.68081 93.2263 0.916866 92.9081 1.43004L92.8397 1.53952H97.773V2.80535C97.2701 3.70853 96.5585 4.31749 95.4979 5.05646L95.3919 5.13172L95.5116 5.18304C96.3977 5.55252 97.8893 5.85701 99.2509 6.10333L98.8472 7.35206C96.774 6.91415 95.4192 6.58229 94.2321 6.0828L94.2047 6.07254L94.1774 6.0828C93.1989 6.50018 91.9981 6.74651 90.6091 7.03388C90.1336 7.12968 89.6307 7.23232 89.1038 7.35206Z" fill="#323232"/>
<path d="M83.582 16.1748V0.94043H88.7274V2.1481C88.6282 2.46968 88.5188 2.83232 88.4093 3.20523C88.0774 4.32737 87.7011 5.60346 87.2871 6.77007L87.2769 6.80086L87.2906 6.82823C87.7285 7.6322 88.0637 8.38485 88.2895 9.06566C88.5393 9.79095 88.6556 10.3589 88.6522 10.7968C88.6488 10.9849 88.6317 11.1765 88.5974 11.3681L88.5666 11.5289L88.529 11.6623C88.3066 12.4321 87.684 13.3763 86.0008 13.5337L85.6313 11.9839H85.6347C86.7021 11.9839 87.0819 11.3715 87.0819 10.8002C87.0819 10.2631 86.9963 9.74647 86.8219 9.22303C86.6269 8.62433 86.2711 7.89906 85.7374 7.00956C86.4626 5.11424 86.9348 3.3455 87.1537 2.45942L87.1742 2.37047H85.1626V16.1782H83.582V16.1748ZM88.7377 15.8772V14.4129H93.2981V13.3763H90.3149V12.1652H93.2981V10.9405H90.8178L90.7972 10.9747C90.332 11.7889 89.8564 12.3671 89.5417 12.7502L88.5906 11.5528L88.7172 11.4331C89.1448 11.0294 89.6717 10.1194 89.9488 9.61305H89.9454L89.9522 9.60278C90.1335 9.27435 90.2875 8.96987 90.3901 8.75092L91.6457 9.03487C91.5875 9.20935 91.5294 9.38041 91.4678 9.54462L91.4302 9.64041H93.2947V8.5046H90.462V7.29351H97.3624V8.5046H94.8205V9.64041H98.5154V10.9405H94.8205V12.1652H97.6943V13.3763H94.8205V14.4129H99.0354V15.8772H88.7377Z" fill="#323232"/>
<path d="M65.8435 16.1722V0.568359H67.3591V3.89714L67.4514 3.97925C67.6875 4.17083 68.0604 4.44794 68.5599 4.81058C69.032 5.15612 69.3844 5.41613 69.6136 5.60087L68.8541 6.99328L67.3556 5.85062V16.1654H65.8435V16.1722Z" fill="#323232"/>
<path d="M63.2981 8.6043C63.8044 7.0682 64.0815 5.58685 64.15 4.07812L65.3747 4.19102C65.2516 5.86738 64.9642 7.47532 64.516 8.97037L63.2981 8.6043Z" fill="#323232"/>
<path d="M74.5743 13.4416C73.8079 12.8224 72.6003 11.9705 71.1155 11.3342L71.0402 11.3034L71.0197 11.3821C70.8521 12.0116 70.6742 12.6547 70.486 13.3184L69.0046 12.8361C70.0515 9.54834 70.7357 6.49667 71.2831 2.64446L71.2934 2.56235H69.1073V1.14941H79.4597V2.56235H72.7405L72.7337 2.62393C72.679 3.08921 72.6174 3.54079 72.5524 3.98554L72.1418 6.49667L72.0802 6.83536L72.1418 6.85247C73.6129 7.3109 75.1285 7.97118 76.2164 8.62804L75.3098 10.0034C74.2835 9.30202 73.2982 8.72383 71.8852 8.19698L71.81 8.16961L71.7929 8.2483C71.6766 8.77858 71.5534 9.30885 71.42 9.84597L71.4029 9.90755L71.4644 9.92809C72.7029 10.3592 74.5298 11.365 75.5048 12.0526L74.5743 13.4416Z" fill="#323232"/>
<path d="M68.3169 15.8772V14.5224H75.8161L75.8263 14.4643C76.3463 11.9668 76.7363 9.6952 77.0887 6.07904L77.0956 6.00035H73.4041L73.606 4.57031H78.7309C78.3374 9.19229 77.8174 12.0421 77.3111 14.4335L77.294 14.519H79.6683V15.8738H68.3169V15.8772Z" fill="#323232"/>
<path d="M103.432 21.5234H100.503V37.9176H103.432V21.5234Z" fill="#323232"/>
<path d="M94.2049 33.0318C94.2049 34.6774 93.1101 35.8132 91.0985 35.7345C89.1655 35.6558 88.406 34.4242 88.406 32.652V25.6182H85.4775V32.652C85.4775 35.1255 86.2302 36.7266 88.2692 37.7017C89.9319 38.4954 92.8262 38.492 94.2083 37.1748V37.9172C94.2083 39.7852 92.354 40.702 90.6264 40.5481C88.6797 40.3736 87.6842 39.402 87.6842 39.402L86.5757 41.961C86.5757 41.961 89.6206 43.7434 92.9972 42.9942C96.4321 42.2313 97.1368 39.7544 97.1368 37.9172V25.6182H94.2083V33.0318H94.2049Z" fill="#323232"/>
<path d="M57.6531 27.0212C56.6405 25.9367 55.2823 25.2695 53.7872 25.2695C50.6569 25.2695 48.1252 27.7464 48.1252 31.7663C48.1252 35.7861 50.6603 38.2631 53.7872 38.2631C55.2823 38.2631 56.6405 37.5959 57.6531 36.5114V37.9141C57.6531 39.782 55.7989 40.6989 54.0712 40.545C52.1246 40.3705 51.129 39.3989 51.129 39.3989L50.024 41.9579C50.024 41.9579 53.0654 43.7403 56.4421 42.9911C59.8803 42.2282 60.5817 39.7513 60.5817 37.9141V25.6151H57.6531V27.0212ZM54.297 35.5056C52.5385 35.5056 51.1153 34.079 51.1153 31.7663C51.1153 29.4536 52.5385 28.027 54.297 28.027C56.0555 28.027 57.4787 29.4057 57.4787 31.7663C57.4787 34.1269 56.0521 35.5056 54.297 35.5056Z" fill="#323232"/>
<path d="M80.64 35.642C79.9831 35.358 79.8531 34.7764 79.8531 34.1025V27.8349H83.1032V25.6283H79.8531V22.084H76.9246V25.6283H74.7556V27.8349H76.9246V34.1025C76.9246 36.0765 77.7662 37.5989 79.4015 38.0265C80.9137 38.42 82.8706 37.9034 83.5822 37.2842L82.8056 35.3923C81.9708 35.796 81.2079 35.8849 80.64 35.642Z" fill="#323232"/>
<path d="M40.421 25.4881C38.6112 25.4573 37.4206 26.2989 36.7193 27.0584V25.6181H33.7908V37.9172H36.7193V30.808C37.0032 29.2001 38.2246 28.0916 39.7538 28.0916C41.3755 28.0916 42.4668 29.2856 42.4668 31.0817V37.9206H45.3987V30.7396C45.3953 28.5261 44.0508 25.5531 40.421 25.4881Z" fill="#323232"/>
<path d="M109.716 34.2125C109.306 33.5864 109.066 32.8954 109.012 32.1051H117.777C117.725 30.2782 117.373 28.5129 116.237 27.1034C114.8 25.3175 112.371 24.8283 110.055 25.6665C108.143 26.3576 106.141 28.4513 106.258 31.8964C106.391 35.8855 109.275 38.1229 112.217 38.1571C115.416 38.1947 117.181 36.3507 117.181 36.3507L116.056 34.4212C113.274 36.5799 110.684 35.6904 109.716 34.2125ZM111.971 27.4763C113.397 27.4113 114.581 28.2871 114.999 30.0319H109.234C109.655 28.441 110.661 27.5344 111.971 27.4763Z" fill="#323232"/>
<path d="M29.6648 27.1034C28.2279 25.3175 25.7989 24.8283 23.4827 25.6665C21.5703 26.3576 19.5689 28.4513 19.6853 31.8964C19.8187 35.8855 22.7027 38.1229 25.6449 38.1571C28.8437 38.1947 30.6056 36.3507 30.6056 36.3507L29.4834 34.4212C26.702 36.5799 24.1156 35.6904 23.1509 34.2125C22.7403 33.5864 22.4974 32.8954 22.4427 32.1051H31.2077C31.1564 30.2782 30.804 28.5163 29.6648 27.1034ZM25.402 27.4763C26.8286 27.4113 28.0123 28.2871 28.4297 30.0319H22.6685C23.0859 28.441 24.0917 27.5344 25.402 27.4763Z" fill="#323232"/>
<path d="M70.1576 30.8147C67.9509 30.0586 66.3498 29.9115 66.0419 29.0391C65.7375 28.1667 66.8254 27.4585 68.0741 27.4346C69.8121 27.4004 71.1087 28.1051 71.9469 28.7175L73.0929 26.7298C73.0929 26.7298 70.9958 25.0945 67.8175 25.2861C64.6256 25.4743 63.1579 27.2054 63.24 29.0596C63.3153 30.7873 64.8445 31.8308 66.9862 32.4671C68.8883 33.0316 70.5202 33.4627 70.4963 34.6601C70.4689 35.8198 68.5496 36.1585 66.8733 35.7719C65.5151 35.4572 64.3827 34.5164 64.3827 34.5164L63.2024 36.5656C63.2024 36.5656 65.4946 38.2454 68.2896 38.1941C71.0881 38.1428 72.8158 36.9317 73.2435 35.0843C73.6779 33.2198 72.6106 31.6563 70.1576 30.8147Z" fill="#323232"/>
<path d="M12.3264 25.4883C10.4858 25.4575 9.285 26.3299 8.59051 27.0962V23.5348C8.65551 23.5211 8.72051 23.5143 8.78551 23.5006C12.6719 22.6898 15.5902 20.0657 16.0418 16.9662C16.3428 14.9101 15.7031 13.1276 14.2901 12.0739C12.9696 11.0955 11.2179 10.9552 9.60659 11.7113C7.25968 12.8061 5.86043 15.649 5.70648 19.5697C6.53782 19.6518 7.58811 19.6073 8.63156 19.1626C8.81972 16.6788 9.61001 14.9135 10.8348 14.3387C11.1324 14.2019 11.4266 14.13 11.7038 14.13C12.0219 14.13 12.3161 14.2224 12.559 14.4037C13.0893 14.7972 13.3151 15.5806 13.1748 16.5488C12.9491 18.078 11.2966 20.0178 8.19707 20.6644C5.65174 21.1947 2.90456 20.8526 0 19.6552V22.7616C1.94663 23.4424 3.84879 23.7914 5.69621 23.8051V37.9173H8.59735V31.0682C8.78893 29.3199 10.0582 28.0918 11.6661 28.0918C13.2912 28.0918 14.3791 29.2857 14.3791 31.0818V37.9207H17.3042V30.7397C17.3008 28.5262 15.9562 25.5533 12.3264 25.4883Z" fill="#323232"/>
<path d="M142.566 29.8353C138.529 29.8353 134.356 29.021 130.072 27.4062V37.9331H142.775V29.8318C142.707 29.8318 142.638 29.8353 142.566 29.8353Z" fill="#E62D37"/>
<path d="M167 1.00879H130.072V22.0044C136.251 24.6695 142.084 25.4495 147.486 24.3239C153.935 22.9794 157.38 18.9014 157.849 15.6787C158.156 13.5713 157.647 11.8504 156.446 10.9609C155.416 10.1946 153.959 10.1296 152.546 10.7864C149.908 12.018 148.211 15.7916 147.852 21.0601C146.066 21.7341 144.287 21.847 142.802 21.7444C143.103 13.9955 145.844 8.38821 150.425 6.24999C153.531 4.79943 156.901 5.05601 159.433 6.94449C162.156 8.96981 163.381 12.4183 162.799 16.404C161.91 22.4765 156.165 27.6287 148.502 29.2264C148.259 29.2743 148.02 29.3222 147.777 29.3667V37.9333H166.993V1.00879H167Z" fill="#E62D37"/>
</svg>
