<?xml version="1.0" encoding="utf-8"?>
<!-- Generator: Adobe Illustrator 27.3.1, SVG Export Plug-In . SVG Version: 6.00 Build 0)  -->
<svg version="1.1" id="圖層_1" xmlns="http://www.w3.org/2000/svg" xmlns:xlink="http://www.w3.org/1999/xlink" x="0px" y="0px"
	 viewBox="0 0 153.6 28" style="enable-background:new 0 0 153.6 28;" xml:space="preserve">
<style type="text/css">
	.st0{fill-rule:evenodd;clip-rule:evenodd;fill:#231F20;}
	.st1{filter:url(#Adobe_OpacityMaskFilter);}
	.st2{fill-rule:evenodd;clip-rule:evenodd;fill:#FFFFFF;}
	.st3{mask:url(#b_00000153668948960926848120000009624569020526461361_);fill-rule:evenodd;clip-rule:evenodd;fill:#00A9A1;}
	.st4{filter:url(#Adobe_OpacityMaskFilter_00000137121073406496424460000015806981449799604627_);}
	.st5{mask:url(#d_00000121241942753107335950000012775811017273859724_);fill-rule:evenodd;clip-rule:evenodd;fill:#0094C2;}
	.st6{filter:url(#Adobe_OpacityMaskFilter_00000098913260731230360640000005344038544668136365_);}
	.st7{mask:url(#f_00000015347509153104245090000011466296580777037706_);fill-rule:evenodd;clip-rule:evenodd;fill:#231F20;}
</style>
<g transform="translate(11 10)">
	<path class="st0" d="M112.9-1.3v2.5c0.2-0.4,0.7-0.7,1.2-0.7c1.4,0,2.1,1.2,2.1,2.4c0,1.2-0.6,2.4-1.9,2.4c-0.5,0-1.1-0.2-1.3-0.8
		v0.6h-1.3l0.1-0.9v-5.6L112.9-1.3L112.9-1.3z M119.1,0.7c1.5,0,2.3,0.9,2.3,2.3s-0.9,2.3-2.3,2.3s-2.3-0.9-2.3-2.3
		S117.7,0.7,119.1,0.7z M107.8,1.1v2.5c0,0.5,0.2,0.9,0.7,0.9c0.4,0,0.7-0.4,0.7-0.9V1.1h1.2v3.4l0.1,0.8h-1.2l-0.1-0.5
		c-0.2,0.4-0.6,0.6-1.2,0.6c-0.4,0-1.2-0.3-1.3-0.9l-0.1-0.7V1.1H107.8L107.8,1.1z M124.6,1.1c0.4,0,1.2,0.3,1.4,0.9l0.1,0.7v2.7
		h-1.2V2.8c0-0.5-0.2-0.9-0.8-0.9c-0.4,0-0.7,0.4-0.8,0.9v2.6H122V1.2h1.2v0.5C123.5,1.4,123.9,1.1,124.6,1.1z M106-1.6v1.1h-2.6
		v1.6h2.5v1.1h-2.5v2.9H102v-6.7H106z M119.1,1.6c-0.8,0-0.9,0.8-0.9,1.5s0.2,1.5,0.9,1.5s0.9-0.8,0.9-1.5S119.9,1.6,119.1,1.6z
		 M113.9,1.5c-0.7,0-0.9,0.9-0.9,1.5s0.2,1.5,0.9,1.5c0.9,0,0.9-0.8,0.9-1.5S114.7,1.5,113.9,1.5z M106,7.7v1.2h-2.6v1.7h2.5v1.2
		h-2.5v2.9H102v-7H106z M111.5,10.1c0.4,0,1.2,0.3,1.4,0.9l0.1,0.7v2.9h-1.2v-2.6c0-0.5-0.2-1-0.8-1c-0.4,0-0.7,0.4-0.8,1v2.6H109
		v-4.4h1.2v0.5C110.5,10.4,110.9,10.2,111.5,10.1z M116.1,9.8c0.9,0,1.9,0.3,1.9,1.7V14l0.1,0.5h-1.2l-0.1-0.6
		c-0.3,0.5-0.8,0.8-1.3,0.8c-0.9,0-1.4-0.5-1.4-1.4c0-0.3,0.2-1.1,0.9-1.5c0.5-0.2,1.2-0.2,1.7-0.2v-0.5c0-0.2-0.2-0.5-0.6-0.5
		c-0.5,0-0.6,0.5-0.6,0.7h-1.2c0-0.5,0.2-0.9,0.6-1.2C115.2,9.9,115.6,9.8,116.1,9.8L116.1,9.8z M121.5,10.1c0.4,0,1.2,0.3,1.4,0.9
		l0.1,0.7v2.9h-1.2v-2.6c0-0.5-0.2-1-0.8-1c-0.4,0-0.7,0.4-0.8,1v2.6H119v-4.4h1.2v0.5C120.5,10.4,120.9,10.2,121.5,10.1z M126,9.8
		c1.2,0,2,0.7,2,1.8h-1.3c0-0.4-0.2-0.9-0.7-0.9s-0.6,1.1-0.6,1.5s0.1,1.5,0.6,1.5s0.7-0.5,0.7-0.9h1.3c-0.1,1.2-0.8,1.8-2,1.8
		c-1.3,0-2-1.2-2-2.4S124.6,9.8,126,9.8z M133.4,9.8c0.9,0,1.9,0.3,1.9,1.7V14l0.1,0.5h-1.2l-0.1-0.6c-0.3,0.5-0.8,0.8-1.3,0.8
		c-0.9,0-1.4-0.5-1.4-1.4c0-0.3,0.2-1.1,0.9-1.5c0.5-0.2,1.2-0.2,1.7-0.2v-0.5c0-0.2-0.2-0.5-0.6-0.5s-0.6,0.5-0.6,0.7h-1.2
		c0-0.5,0.2-0.9,0.6-1.2C132.5,9.9,132.9,9.8,133.4,9.8L133.4,9.8z M137.6,7.7v7h-1.3v-7H137.6z M108,9.8v4.9h-1.2V9.8H108z
		 M130.3,9.8v4.9H129V9.8H130.3z M115.3,13.1c0,0.4,0.2,0.7,0.6,0.7c0.7,0,0.8-0.9,0.8-1.4C116.2,12.4,115.3,12.4,115.3,13.1z
		 M133.9,12.4c-0.5,0-1.4,0-1.4,0.7c0,0.4,0.2,0.7,0.6,0.7C133.9,13.8,133.9,12.9,133.9,12.4z M108,7.7V9h-1.3V7.7H108L108,7.7z
		 M130.3,7.7V9H129V7.7H130.3z"/>
	<defs>
		<filter id="Adobe_OpacityMaskFilter" filterUnits="userSpaceOnUse" x="-1" y="-7" width="13.9" height="21.7">
			<feColorMatrix  type="matrix" values="1 0 0 0 0  0 1 0 0 0  0 0 1 0 0  0 0 0 1 0"/>
		</filter>
	</defs>
	
		<mask maskUnits="userSpaceOnUse" x="-1" y="-7" width="13.9" height="21.7" id="b_00000153668948960926848120000009624569020526461361_">
		<g class="st1">
			<path class="st2" d="M-8,14.7h145.6V-7H-8V14.7z"/>
		</g>
	</mask>
	<path class="st3" d="M7.7,3.8l0.2,0.2c1.2,0.8,1.9,2.2,1.8,3.6c0,2.3-2,4-4.3,4v3.2c4,0,7.5-2.8,7.5-6.8c0-1.4-0.4-2.9-1.4-4.2
		l0.4-0.6c0.2-0.4,0.3-0.9,0.3-2.6V-7H2.1v6H-1v3.3h6.5v-5.9h3.6v5C9.1,1.4,9.3,2.8,7.7,3.8"/>
	<defs>
		
			<filter id="Adobe_OpacityMaskFilter_00000048471734563854618410000000844751165218140320_" filterUnits="userSpaceOnUse" x="-8" y="-7" width="13.2" height="21.7">
			<feColorMatrix  type="matrix" values="1 0 0 0 0  0 1 0 0 0  0 0 1 0 0  0 0 0 1 0"/>
		</filter>
	</defs>
	
		<mask maskUnits="userSpaceOnUse" x="-8" y="-7" width="13.2" height="21.7" id="d_00000121241942753107335950000012775811017273859724_">
		<g style="filter:url(#Adobe_OpacityMaskFilter_00000048471734563854618410000000844751165218140320_);">
			<path class="st2" d="M-8,14.7h145.6V-7H-8V14.7z"/>
		</g>
	</mask>
	<path class="st5" d="M-1.2-7h-0.9c-1.7,0.1-3.4,0.6-4.6,1.9C-7.8-3.7-8-2.4-8-0.3v15H2V8.8h3.2V5.6h-6.4v5.9h-3.6V-1
		c0,0-0.2-2.7,2.9-2.8h0.7C-1.2-3.7-1.2-7-1.2-7z"/>
	<defs>
		
			<filter id="Adobe_OpacityMaskFilter_00000147191211188999607650000017778735721460009872_" filterUnits="userSpaceOnUse" x="19.1" y="-1.6" width="75.9" height="16.3">
			<feColorMatrix  type="matrix" values="1 0 0 0 0  0 1 0 0 0  0 0 1 0 0  0 0 0 1 0"/>
		</filter>
	</defs>
	
		<mask maskUnits="userSpaceOnUse" x="19.1" y="-1.6" width="75.9" height="16.3" id="f_00000015347509153104245090000011466296580777037706_">
		<g style="filter:url(#Adobe_OpacityMaskFilter_00000147191211188999607650000017778735721460009872_);">
			<path class="st2" d="M-8,14.7h145.6V-7H-8V14.7z"/>
		</g>
	</mask>
	<path class="st7" d="M82.4-0.8v2.5h1.2v1.9h-1.2v2.7l1.2-0.8v2.2l-1.2,0.9v3.2c0,1.1-0.2,1.7-0.5,2c-0.2,0.2-0.7,0.8-2.1,1
		l-0.7-1.6c0.6-0.1,1.2-0.5,1.3-0.7l0.2-0.7V9.4l-1.3,0.8l-0.1-0.1L79.2,10l-0.5-1.6c0,0,0.9-0.4,1.9-1.1V3.5h-1.7V1.7h1.7v-2.5
		H82.4L82.4-0.8z M90.3,2.5c0.5,0,0.7,0.2,0.9,0.6C92,5.1,93.3,7,95,8.3c-0.2,0.5-0.7,0.9-1.1,1.2c-0.5-0.2-1.2-0.9-1.3-0.9v1.1
		h-2.6v2.9h4.3v1.7H84v-1.7h4.4V9.7h-2.5V8.3c-0.5,0.5-0.9,1.1-1.5,1.5l-1.1-1.4c1.1-1,1.9-2.3,2.3-3.6h1.6c0.2,0,0.2,0.2,0.2,0.2
		c-0.3,1.2-0.8,2.2-1.5,3.2h6.2c-1-1.1-1.7-2.3-2.2-3.6l-0.2-0.1h-2.2V2.6L90.3,2.5C90.2,2.6,90.3,2.5,90.3,2.5z M89.8-0.8v1.1h3.1
		c0.5,0,1,0.5,1,1v2.9h-1.7V2.1c0-0.2-0.1-0.2-0.2-0.2h-6.4v2H84V0.4h4.1v-1.2C88.1-0.8,89.8-0.8,89.8-0.8z M66.6,0.7h0.3
		c0.8,0.9,2,1.8,3.7,2.8h-7.7C64.6,2.5,65.8,1.5,66.6,0.7 M70.9,8.6c-0.3,0.7-1.1,2.2-1.7,3l1,0.5h-2.6V8.6H70.9 M62.4,8.6h3.4v3.6
		h-2.7l0.9-0.5C63.7,10.6,63.1,9.6,62.4,8.6 M71.7,5.2V4.1l2.2,1l0.9-1.6c-6-2.5-7.5-5-7.5-5h-1.2c0,0-1.5,2.6-7.5,5l0.9,1.6
		l2.2-0.9v1.1h4.2v1.7h-6v1.7h1.7l-0.8,0.5c0,0,1.4,2,1.8,3h-2.7v1.7h13.9v-1.7H71c0.8-1.1,1.6-3,1.6-3l-0.9-0.5h1.9V6.9h-6V5.2
		L71.7,5.2 M31.8,8.1l0.6,0.2c0.5,0.2,0.8,0.7,0.8,1.2v5.2h-2v-0.5h-9.4v0.5h-2V8.1H31.8z M25.5,11.9h-3.7v0.9h3.7V11.9z M31.1,11.9
		h-3.7v0.9h3.7V11.9z M25.5,9.6h-3.7v0.9h3.7V9.6z M31.1,9.6h-3.7v0.9h3.7V9.6z M30,3.9c1.2,0,1.2,0.9,1.2,1v2.8h-9.5V3.9
		C21.7,3.9,30,3.9,30,3.9z M29.3,5.3h-5.9v1.2h5.9C29.3,6.5,29.3,5.3,29.3,5.3z M27.5-1.6v1h5c0,0,1.3,0.1,1.3,1.2v2.9h-1.8V1.3H21
		v2.3h-1.9v-4.1h6.4v-1.1H27.5z M31.2,1.9v1.4h-9.5V1.9H31.2z M53.4-0.9c0.7,0,1.3,0.7,1.1,1.4l-1.2,4.2c1.1,1.4,1.7,3.1,1.5,4.8
		c-0.2,1.4-1.1,2.6-2.3,3.3c-0.5,0.2-0.9,0.4-1.5,0.4l-0.9-1.3v2.9H48V-0.9H53.4z M44.5-1.6v1.9h2.7v1.9h-2.7v1.5h2.8v2h-2.8v1.5
		h2.8v2.1h-2.8c0,0-0.2,3.7-2.9,5.3l-1.2-1.5c0,0,1.8-1.5,1.9-3.7h-3v-2h3.2V5.8h-3.3V3.8h3.2V2.3h-3.2v-2h3.2v-1.9H44.5z M49.9,1.1
		v10.3c0.5,0.1,0.8,0.1,1.2-0.1c0.7-0.2,1.4-0.9,1.7-1.6c0.3-1.4-0.4-2.7-1.1-3.8c-0.2-0.2-0.5-0.5-0.5-0.8l1.2-4
		C52.4,1.1,49.9,1.1,49.9,1.1z"/>
</g>
</svg>
