<?xml version="1.0" encoding="utf-8"?>
<!-- Generator: Adobe Illustrator 27.2.0, SVG Export Plug-In . SVG Version: 6.00 Build 0)  -->
<svg version="1.1" id="圖層_1" xmlns="http://www.w3.org/2000/svg" xmlns:xlink="http://www.w3.org/1999/xlink" x="0px" y="0px"
	 viewBox="0 0 169 30.9" style="enable-background:new 0 0 169 30.9;" xml:space="preserve">
<style type="text/css">
	.st0{fill:#009E9C;}
	.st1{fill:#008FC7;}
</style>
<g>
	<g>
		<path class="st0" d="M22.2,15.2C22.2,15.2,22.3,15.2,22.2,15.2c0,0,0,0.1,0.2,0.2c1.4,1.1,2.1,2.2,2.1,4.3c0,2.7-2.4,4.7-5,4.7
			v3.7c4.6,0,8.8-3.3,8.8-8c0-1.7-0.5-3.3-1.6-5c0.1-0.1,0.3-0.4,0.5-0.7c0.3-0.5,0.3-1.1,0.3-3.1V2.6H15.7v7h-3.8v3.9h7.7V6.6h4.3
			v6C23.9,12.5,24,14.1,22.2,15.2"/>
		<path class="st1" d="M12,2.6h-1.1l0,0c-2,0.1-4.1,0.7-5.5,2.3c-1.5,1.7-1.6,3.2-1.6,5.7c0,1.7,0,17.7,0,17.7h12.1v-6.9h3.8v-3.9
			H12v7H7.5V9.7c0,0-0.3-3.2,3.5-3.3h0.9L12,2.6z"/>
	</g>
	<g>
		<g>
			<path d="M95.8,17.1v3H84V16h10.4C95.9,16,95.8,17.1,95.8,17.1 M93.5,18.7v-1.3h-7.4v1.3H93.5z"/>
			<path d="M81.8,28.2V21h14.6c0.3,0,0.7,0.2,0.7,0.2c0.6,0.3,0.9,0.8,0.9,1.4v5.6h-2.5v-0.5H84.2v0.5H81.8 M95.6,23.6v-1H91v1H95.6
				 M88.8,23.6v-1h-4.6v1H88.8 M95.6,26.1v-1H91v1H95.6 M88.8,26.1v-1h-4.6v1H88.8z"/>
			<rect x="84" y="13.7" width="11.8" height="1.5"/>
			<path d="M80.9,15.6v-4.7h7.8V9.7h2.4v1.1h6.2c0,0,1.6,0.1,1.6,1.4v3.4h-2.2v-2.7H83.1v2.7H80.9z"/>
		</g>
		<g>
			<path d="M119.6,16.6l1.5-4.9c0.2-0.8-0.5-1.6-1.3-1.6h-6.2v18.2h2.3V25c0,0,0.7,1,1,1.5c0.7,0,1.2-0.2,1.8-0.5
				c1.5-0.7,2.5-2.2,2.7-3.8C121.5,20,120.8,18.2,119.6,16.6 M119.1,22.4c-0.3,0.8-1.1,1.7-2,1.9c-0.5,0.1-0.8,0.2-1.3,0.1v-12h2.9
				c-0.4,1.6-1,3.2-1.5,4.7c0.2,0.3,0.5,0.5,0.7,0.9C118.7,19.2,119.5,20.7,119.1,22.4z"/>
			<path d="M112.7,18.1v-2.4h-3.3v-1.8h3.2v-2.3h-3.2V9.5H107v2.1h-3.7v2.3h3.7v1.7h-3.7v2.5h3.7v1.7h-3.7v2.3h3.6
				c-0.1,2.6-2.2,4.3-2.2,4.3l1.3,1.8c3.3-1.9,3.5-6.1,3.5-6.1h3.2v-2.4h-3.3v-1.6H112.7z"/>
		</g>
		<g>
			<path d="M37,28.1v-8.7h14.1c0.3,0,0.7,0.2,0.7,0.2c0.5,0.3,0.9,0.8,0.9,1.4v7.1H50v-0.5H39.6v0.5H37 M39.7,25.4h10.4v-3.6H39.7
				V25.4"/>
			<path d="M40.2,18.1h-4v-2.4l4.6-5.7h3L39,15.8h10.8c0.4,0,0.5-0.2,0.4-0.7L48,11.7h2.8l2.4,3.9c0.8,1.6,0.4,2.5-1.2,2.5H40.2z"/>
		</g>
		<g>
			<path d="M63.1,10.2h2.5v15.7c0,1.2-0.6,1.9-1.9,1.9h-5.9v-2.4h4.8c0.3,0,0.5-0.2,0.5-0.5V18h-5.3v-2.4h5.3
				C63.1,15.6,63.1,10.2,63.1,10.2z"/>
			<path d="M70.8,24.9v-4.8c2.3-1.7,4.2-3.3,5.6-4.8l-1.6-1.8c-1,1.1-2.3,2.3-4,3.6v-6.9h-2.5v15.7c0,1.2,0.6,1.9,1.9,1.9H76v-2.4
				h-4.7C71,25.4,70.8,25.2,70.8,24.9z"/>
		</g>
		<g>
			<path d="M144.4,26.3c-1.2-0.8-2.3-1.8-3.2-2.9c1.1-0.9,2.1-1.7,2.8-2.5l0.1-0.1l-1.3-1.4l-0.2,0.2c-0.6,0.6-1.4,1.4-2.4,2.2
				c-0.2-0.7-0.4-1.5-0.5-2.5c0.4,0,2.8,0,2.8,0c0.4,0,0.7-0.3,0.7-0.7v-8c0-0.4-0.3-0.7-0.7-0.7h-7.4c-0.4,0-0.7,0.2-0.7,0.7
				c0,0,0,14.8,0,15.1c-0.2,0.1-1.3,0.3-1.3,0.3l0.1,0.2l0.5,1.7h0.2c2.2-0.5,4.1-1.1,5.6-1.7l0.2-0.1l-0.6-1.9l-0.2,0.1
				c-0.7,0.3-1.5,0.6-2.4,0.9c0-0.5,0-5.5,0-5.9c0.3,0,1,0,1.3,0c0.2,2.4,0.9,4.4,2.3,6.1c0.4,0.5,1.2,1.3,2.6,2.5l0.1,0.1l1.7-1.4
				L144.4,26.3z M141.2,17.3c0,0-4.2,0-4.6,0c0-0.3,0-1.5,0-1.8c0.4,0,4.4,0,4.8,0c0,0.3,0,1.6,0,1.6
				C141.3,17.3,141.3,17.3,141.2,17.3z M136.6,13.6c0-0.3,0-1.6,0-1.6l0,0v-0.1h0.1h4.5c0.1,0,0.2,0,0.2,0.2c0,0,0,1.3,0,1.6
				C141,13.6,136.9,13.6,136.6,13.6z"/>
			<path d="M133.4,26.7l-7.4,1.4l-0.7-2.1l3.1-0.5v-0.9c0,0-1.4,0.2-1.6-0.2c-0.5-1.1-1-2.2-1.4-3.4h2.1c0.2,0.3,0.8,1.8,0.9,2.1
				v-3.2h-3.1v-1.8h3.1v-1.2h-2.1v-1.6l-0.4,0.3l-1.4-1.6c1.4-0.9,3.3-2.7,4.3-4.1h1.2c1,1.5,2.7,3.2,4.4,4.1l-1.5,1.6l-0.3-0.3v1.6
				h-2.1v1.2h2.9V20h-2.9v2.5c0.5-0.5,1.1-1.5,1.1-1.5h2c-0.4,0.9-1.1,2.1-1.6,2.7c-0.4,0.4-1.5,0.6-1.5,0.6v0.8l2.5-0.4l0.3,1.4
				 M129.5,12.3c0,0-1.4,1.8-2.7,2.7h5.6C131.6,14.5,129.5,12.3,129.5,12.3"/>
		</g>
		<g>
			<rect x="156.1" y="10.3" width="9.5" height="2.2"/>
			<path d="M166.3,17.5v-2.2h-11.2v2.3h6.6v7c0,0.1-0.1,0.6-0.2,0.8c-0.1,0.2-0.3,0.7-2.3,0.7l1,1.9c2.1,0.6,3.3-1.3,3.1-1.1
				c-0.2,0.3,0.6-0.7,0.6-1.7v-7.6L166.3,17.5L166.3,17.5z"/>
			<path d="M150.8,20.7c-0.5,0.4-0.9,0.8-1.4,1.1l-1.8-1.4c2.1-1.5,3.8-3.4,5-5.6l2,0.9c-0.5,0.9-1.1,1.7-1.6,2.4V28h-2.3v-7.3
				 M151.9,9.4l2.1,0.8c-1.2,2.5-2.6,4.4-4.1,5.6l-1.9-1.3C149.7,13.2,151,11.4,151.9,9.4z"/>
		</g>
	</g>
</g>
</svg>
