<svg width="192" height="58" viewBox="0 0 192 58" fill="none" xmlns="http://www.w3.org/2000/svg">
<g clip-path="url(#clip0_521_2630)">
<path d="M171.444 41.125C171.129 41.0225 170.996 40.703 170.996 40.2086V31.0564C170.996 28.5784 171.008 25.4011 166.672 24.7681C161.033 23.9421 158.35 27.5354 157.836 28.2649L161.306 30.6705C161.451 29.6878 161.839 28.3674 162.554 27.5595C163.117 26.9265 165.146 25.9799 166.272 27.2098C166.751 27.7283 166.811 28.5242 166.811 29.4406V31.171C165.212 31.3096 161.421 31.2071 158.296 33.8298C157.339 34.6377 156.715 35.6928 156.467 37.0976C156.182 38.8882 156.77 40.504 157.866 41.6676C159.065 42.9639 160.918 43.7356 162.899 43.7718C164.704 43.7718 166.581 43.2111 167.926 42.156C168.386 43.0001 169.197 43.4643 170.142 43.5005C170.736 43.5246 171.335 43.404 171.886 42.5901C172.195 42.1319 171.826 41.8787 173.921 41.2938V40.8597C173.921 40.8597 171.759 41.2275 171.438 41.125H171.444ZM166.811 40.5462C165.975 41.1069 165.461 41.5651 164.473 41.6737C163.486 41.8123 162.632 41.529 161.96 40.7572C161.009 39.7021 160.876 37.7728 161.306 36.4344C161.591 35.4516 162.233 34.7462 163.014 34.294C163.965 33.7394 165.455 33.3716 166.817 33.1365V40.5523L166.811 40.5462Z" fill="white"/>
<path d="M188.99 24.6533C187.615 27.7342 184.805 33.498 182.721 37.5013C180.808 33.5282 178.882 28.2226 177.773 24.6714L173.019 27.1735C175.272 31.9666 178.876 37.429 181.655 39.3463C181.655 39.3463 177.034 49.0953 176.047 50.7594H179.287L191.994 25.5155L188.984 24.6533H188.99Z" fill="white"/>
<path d="M111.334 29.3262C110.456 32.7386 108.96 36.0908 106.786 38.8642L110.808 42.2465C111.91 39.232 112.497 34.6016 111.807 29.3623L111.334 29.3322V29.3262Z" fill="white"/>
<path d="M107.55 22.4045L107.198 22.6939C108.397 23.755 108.379 24.3097 108.785 26.6309C108.9 27.3182 109.693 27.6498 110.342 27.6498C111.22 27.6498 112.419 27.0288 112.346 25.9194C112.158 23.2003 109.094 22.9109 107.556 22.3984L107.55 22.4045Z" fill="white"/>
<path d="M116.864 35.7646H132.09V34.5166H113.757L113.261 38.2667H129.001C128.814 40.2443 128.68 40.9195 127.209 40.8954C125.997 40.8833 120.989 40.8833 119.717 40.8411L119.626 41.2752C122.036 41.5465 123.514 41.8239 125.156 42.1615C126.191 42.3725 126.409 43.0418 127.784 43.1382C128.892 43.2226 131.315 43.1684 131.969 41.2632C132.314 40.2563 132.381 38.2667 132.556 37.0187H116.737L116.864 35.7707V35.7646Z" fill="white"/>
<path d="M107.785 16.7793L107.495 17.0687C108.179 17.7078 108.942 18.4132 109.463 20.0169C109.699 21.2107 110.02 21.7111 111.34 21.7111C112.37 21.7111 113.018 20.9273 113.042 19.9325C113.133 17.744 109.142 17.0988 107.791 16.7793H107.785Z" fill="white"/>
<path d="M156.806 26.0459C156.734 24.0322 156.182 22.1451 154.856 20.8247C153.633 19.643 151.428 18.6904 149.436 18.6904H137.947V30.3507H142.549V20.3545H147.231C149.43 20.3545 150.574 22.1994 151.113 23.4474C151.67 24.7316 151.846 27.517 151.18 29.0424C150.586 30.4653 149.121 31.7012 147.443 31.7012H113.261V33.2628H137.947V42.843H142.549V33.2628H149.751C152.197 33.2628 154.293 32.5152 155.516 30.9476C156.497 29.7297 156.879 27.9089 156.806 26.0339V26.0459Z" fill="white"/>
<path d="M127.069 19.5225H124.847C125.198 19.2391 125.41 19.0824 125.41 18.6302C125.44 16.0558 121.467 16.0618 119.832 16.4838L119.88 16.8094C120.207 17.0325 120.807 17.4967 121.037 17.8223C121.413 18.4011 121.455 19.0703 121.927 19.5225H119.117V20.7705H127.069V19.5225Z" fill="white"/>
<path d="M125.809 23.9844H120.371V25.2324H125.809V23.9844Z" fill="white"/>
<path d="M125.809 21.7832H120.371V23.0312H125.809V21.7832Z" fill="white"/>
<path d="M127.202 25.009C127.984 24.8644 128.541 24.7076 129.037 24.5508C128.632 25.3829 127.687 27.1795 127.445 27.4327C127.245 27.6438 126.984 27.698 126.851 27.7161L127.16 30.5197C128.71 30.2303 130.594 29.2656 131.508 28.1984C131.508 28.1984 131.745 29.6213 132.362 29.5369C132.762 29.4766 133.271 29.3802 133.301 28.5421C133.368 26.7816 130.824 25.618 130.824 25.618C131 26.2269 131.103 26.4741 131.284 27.1554C129.994 27.481 128.959 27.7221 128.329 27.7221C130.479 26.2149 131.611 23.9419 132.677 21.6026H130.231C130.152 22.0186 130.037 22.2357 129.897 22.5853C129.334 22.5974 129.51 22.5853 128.898 22.5853C130.037 21.7955 131.327 18.998 131.726 18.1178L128.65 18.0273C128.359 20.5957 127.826 21.687 127.602 22.1211C127.426 22.4648 127.293 22.4949 126.978 22.5733L127.202 25.003V25.009Z" fill="white"/>
<path d="M113.745 27.7163L114.054 30.5198C115.604 30.2304 117.488 29.2658 118.402 28.1986C118.402 28.1986 118.639 29.6215 119.256 29.5371C119.493 29.5009 119.765 29.4527 119.953 29.2477V30.351H126.227V26.1849H119.953V27.5475C119.329 26.3537 117.718 25.6121 117.718 25.6121C117.894 26.2211 117.997 26.4683 118.172 27.1496C116.882 27.4751 115.847 27.7163 115.217 27.7163C117.367 26.209 118.499 23.936 119.565 21.5967H117.119C117.04 22.0128 116.925 22.2298 116.785 22.5795C116.222 22.5915 116.398 22.5795 115.78 22.5795C116.925 21.7897 118.209 18.9922 118.614 18.1119L115.538 18.0215C115.247 20.5899 114.714 21.6812 114.49 22.1152C114.314 22.4589 114.181 22.4891 113.866 22.5674L114.09 24.9972C114.872 24.8525 115.429 24.6957 115.925 24.5389C115.52 25.371 114.575 27.1676 114.339 27.4209C114.139 27.6319 113.878 27.6861 113.751 27.7042L113.745 27.7163ZM122.048 27.4389H124.144V29.103H122.048V27.4389Z" fill="white"/>
<path d="M95.3639 19.5043L95.0368 19.7334C97.0476 21.1322 97.7138 21.8617 98.8887 24.008C95.1035 24.1166 84.8379 24.2613 82.8574 24.1588C86.5882 22.7299 90.7731 20.891 93.5349 17.4182L87.3149 17.3398C84.5956 21.1382 82.2942 23.1037 81.2888 23.6644C80.7801 23.9477 80.0957 24.008 79.7202 24.0322L80.3198 27.7461C87.0606 27.3542 94.0557 26.5583 99.2279 24.6833C99.882 25.865 100.264 27.4386 102.183 27.722C103.346 27.8908 104.491 27.1371 104.394 25.66C104.121 21.6929 99.7427 20.6317 95.3578 19.5043H95.3639Z" fill="white"/>
<path d="M82.3364 42.8488H101.026V29.9043H82.3364V42.8488ZM86.6062 31.3211H96.7628V41.4319H86.6062V31.3211Z" fill="white"/>
<path d="M65.8391 42.4324C65.8391 39.2189 62.2235 36.3068 56.373 34.1846C50.898 37.1268 43.4607 39.038 35.1816 39.3395V51.9463C52.3031 51.6087 65.8391 47.4787 65.8391 42.4384V42.4324Z" fill="url(#paint0_radial_521_2630)"/>
<path d="M9.46615 34.1847C3.61567 36.307 0 39.219 0 42.4326C0 49.1369 21.3851 52.4469 35.1877 51.9405V39.3336C24.8736 39.6712 15.4378 37.3862 9.46615 34.1787V34.1847Z" fill="url(#paint1_radial_521_2630)"/>
<path d="M41.5106 56.2093C34.9879 56.2093 26.7088 43.6266 23.0204 28.1077C19.5804 13.6378 21.3367 1.72429 26.8723 0.174805L20.5131 1.98354C15.026 3.60537 13.2938 15.4887 16.7218 29.8983C20.4162 45.4172 28.6953 58 35.212 58C35.6783 58 36.1204 57.9336 36.5383 57.8131C37.8707 57.4212 42.8127 56.0284 42.8127 56.0284C42.8127 56.0284 42.8127 56.0284 42.8127 56.0224C42.4009 56.143 41.9648 56.2093 41.5106 56.2093Z" fill="url(#paint2_linear_521_2630)"/>
<path d="M46.6341 28.1017C42.9457 12.5827 34.6666 0 28.1378 0C21.609 0 19.3258 12.5827 23.0141 28.1017C26.7025 43.6206 34.9876 56.2033 41.5043 56.2033C48.021 56.2033 50.3164 43.6206 46.628 28.1017H46.6341Z" fill="url(#paint3_linear_521_2630)"/>
<path d="M35.1879 20.3662L35.1758 30.3866L40.3116 36.7171V27.8845L35.1879 20.3662Z" fill="url(#paint4_linear_521_2630)"/>
<path d="M45.5928 18.6965V31.5746C46.8343 31.7615 48.0335 31.9726 49.1903 32.2077V19.3235C48.0335 19.0884 46.8343 18.8773 45.5928 18.6904V18.6965Z" fill="url(#paint5_radial_521_2630)"/>
<path d="M42.9521 18.3467V31.2249C43.3882 31.2731 43.8182 31.3273 44.2482 31.3876V18.5034C43.8182 18.4492 43.3882 18.3949 42.9521 18.3467Z" fill="url(#paint6_radial_521_2630)"/>
<path d="M63.5986 25.2804V38.1586C65.0461 39.485 65.8456 40.926 65.8456 42.4333V29.5491C65.8456 28.0418 65.0461 26.6008 63.5986 25.2744V25.2804Z" fill="url(#paint7_radial_521_2630)"/>
<path d="M56.8457 21.4756V34.3538C58.9897 35.1617 60.8126 36.0841 62.248 37.0849V24.2068C60.8126 23.2059 58.9897 22.2835 56.8457 21.4756Z" fill="url(#paint8_radial_521_2630)"/>
<path d="M50.541 19.6191V32.5033C52.3155 32.9013 53.9689 33.3655 55.4891 33.878V20.9938C53.9689 20.4813 52.3095 20.0231 50.541 19.6191Z" fill="url(#paint9_radial_521_2630)"/>
<path d="M2.39209 25.1471V38.0252C2.91294 37.567 3.51858 37.1209 4.19084 36.6928V23.8086C3.51858 24.2367 2.91294 24.6828 2.39209 25.141V25.1471Z" fill="url(#paint10_radial_521_2630)"/>
<path d="M0 29.5551V42.4393C0 41.4265 0.363384 40.4437 1.0417 39.5092V26.625C0.363384 27.5655 0 28.5483 0 29.5612V29.5551Z" fill="url(#paint11_radial_521_2630)"/>
<path d="M30.615 23.7728L20.4887 16.4896C20.0769 16.1942 19.4955 16.4896 19.4955 16.9961V18.8229C18.7324 18.9435 17.9814 19.0761 17.2485 19.2148V32.099C17.9814 31.9603 18.7324 31.8277 19.4955 31.7071V33.1119C19.4955 33.6485 20.1253 33.9319 20.5311 33.5822L30.6635 24.7556C30.9663 24.4903 30.9421 24.014 30.6211 23.7788L30.615 23.7728Z" fill="url(#paint12_radial_521_2630)"/>
<path d="M10.0415 21.102V33.9862C11.81 33.3712 13.7722 32.8346 15.892 32.3764V19.4922C13.7722 19.9504 11.81 20.493 10.0415 21.102Z" fill="url(#paint13_radial_521_2630)"/>
<path d="M5.5415 23.0256V35.9098C6.49236 35.4033 7.54012 34.927 8.69083 34.4809V21.5967C7.54012 22.0428 6.4863 22.5191 5.5415 23.0256Z" fill="url(#paint14_radial_521_2630)"/>
</g>
<defs>
<radialGradient id="paint0_radial_521_2630" cx="0" cy="0" r="1" gradientUnits="userSpaceOnUse" gradientTransform="translate(61.8441 37.1889) rotate(148.655) scale(17.6403 13.7594)">
<stop offset="0.03" stop-color="#A30000"/>
<stop offset="0.3" stop-color="#B30004"/>
<stop offset="0.54" stop-color="#BE0008"/>
<stop offset="0.85" stop-color="#E06650"/>
<stop offset="1" stop-color="#F19975"/>
</radialGradient>
<radialGradient id="paint1_radial_521_2630" cx="0" cy="0" r="1" gradientUnits="userSpaceOnUse" gradientTransform="translate(24.8415 47.2181) rotate(-161.797) scale(25.807 15.9601)">
<stop stop-color="#00388A"/>
<stop offset="0.16" stop-color="#004193"/>
<stop offset="0.41" stop-color="#004DA0"/>
<stop offset="0.52" stop-color="#1A5FAB"/>
<stop offset="0.85" stop-color="#6894CC"/>
<stop offset="1" stop-color="#87AAD9"/>
</radialGradient>
<linearGradient id="paint2_linear_521_2630" x1="17.8846" y1="3.33406" x2="35.4431" y2="58.0403" gradientUnits="userSpaceOnUse">
<stop stop-color="#7C5531"/>
<stop offset="0.04" stop-color="#977042"/>
<stop offset="0.08" stop-color="#AC8450"/>
<stop offset="0.13" stop-color="#BB935A"/>
<stop offset="0.18" stop-color="#C49C60"/>
<stop offset="0.27" stop-color="#C79F62"/>
<stop offset="0.4" stop-color="#C29A5F"/>
<stop offset="0.55" stop-color="#B48D57"/>
<stop offset="0.71" stop-color="#9D7749"/>
<stop offset="0.88" stop-color="#7D5936"/>
<stop offset="1" stop-color="#624027"/>
</linearGradient>
<linearGradient id="paint3_linear_521_2630" x1="23.8984" y1="-5.73971" x2="43.5713" y2="55.7246" gradientUnits="userSpaceOnUse">
<stop offset="0.01" stop-color="#C79F62"/>
<stop offset="0.02" stop-color="#C8A166"/>
<stop offset="0.14" stop-color="#DBC29C"/>
<stop offset="0.24" stop-color="#EBDCC7"/>
<stop offset="0.34" stop-color="#F5EFE5"/>
<stop offset="0.42" stop-color="#FCFAF8"/>
<stop offset="0.47" stop-color="white"/>
<stop offset="0.54" stop-color="#FCFBF8"/>
<stop offset="0.62" stop-color="#F6F0E6"/>
<stop offset="0.72" stop-color="#EBDDC8"/>
<stop offset="0.83" stop-color="#DCC49F"/>
<stop offset="0.95" stop-color="#CAA46B"/>
<stop offset="0.97" stop-color="#C79F62"/>
</linearGradient>
<linearGradient id="paint4_linear_521_2630" x1="34.9214" y1="20.5833" x2="40.2738" y2="36.9485" gradientUnits="userSpaceOnUse">
<stop stop-color="#7C5531"/>
<stop offset="0.04" stop-color="#977042"/>
<stop offset="0.08" stop-color="#AC8450"/>
<stop offset="0.13" stop-color="#BB935A"/>
<stop offset="0.18" stop-color="#C49C60"/>
<stop offset="0.27" stop-color="#C79F62"/>
<stop offset="0.4" stop-color="#C29A5F"/>
<stop offset="0.55" stop-color="#B48D57"/>
<stop offset="0.71" stop-color="#9D7749"/>
<stop offset="0.88" stop-color="#7D5936"/>
<stop offset="1" stop-color="#624027"/>
</linearGradient>
<radialGradient id="paint5_radial_521_2630" cx="0" cy="0" r="1" gradientUnits="userSpaceOnUse" gradientTransform="translate(65.1702 35.0935) scale(29.5753 29.442)">
<stop stop-color="#FFE9B3"/>
<stop offset="0.36" stop-color="#F9BF2C"/>
<stop offset="0.48" stop-color="#F0B126"/>
<stop offset="0.72" stop-color="#DA8E16"/>
<stop offset="1" stop-color="#BB5D00"/>
</radialGradient>
<radialGradient id="paint6_radial_521_2630" cx="0" cy="0" r="1" gradientUnits="userSpaceOnUse" gradientTransform="translate(65.1754 35.0934) scale(29.5805 29.4472)">
<stop stop-color="#FFE9B3"/>
<stop offset="0.36" stop-color="#F9BF2C"/>
<stop offset="0.48" stop-color="#F0B126"/>
<stop offset="0.72" stop-color="#DA8E16"/>
<stop offset="1" stop-color="#BB5D00"/>
</radialGradient>
<radialGradient id="paint7_radial_521_2630" cx="0" cy="0" r="1" gradientUnits="userSpaceOnUse" gradientTransform="translate(65.1757 35.0937) scale(29.5753 29.442)">
<stop stop-color="#FFE9B3"/>
<stop offset="0.36" stop-color="#F9BF2C"/>
<stop offset="0.48" stop-color="#F0B126"/>
<stop offset="0.72" stop-color="#DA8E16"/>
<stop offset="1" stop-color="#BB5D00"/>
</radialGradient>
<radialGradient id="paint8_radial_521_2630" cx="0" cy="0" r="1" gradientUnits="userSpaceOnUse" gradientTransform="translate(65.1703 35.0932) scale(29.5753 29.442)">
<stop stop-color="#FFE9B3"/>
<stop offset="0.36" stop-color="#F9BF2C"/>
<stop offset="0.48" stop-color="#F0B126"/>
<stop offset="0.72" stop-color="#DA8E16"/>
<stop offset="1" stop-color="#BB5D00"/>
</radialGradient>
<radialGradient id="paint9_radial_521_2630" cx="0" cy="0" r="1" gradientUnits="userSpaceOnUse" gradientTransform="translate(65.1756 35.0937) scale(29.5806 29.4472)">
<stop stop-color="#FFE9B3"/>
<stop offset="0.36" stop-color="#F9BF2C"/>
<stop offset="0.48" stop-color="#F0B126"/>
<stop offset="0.72" stop-color="#DA8E16"/>
<stop offset="1" stop-color="#BB5D00"/>
</radialGradient>
<radialGradient id="paint10_radial_521_2630" cx="0" cy="0" r="1" gradientUnits="userSpaceOnUse" gradientTransform="translate(28.5235 25.0219) scale(30.1601 30.0242)">
<stop stop-color="#B3D796"/>
<stop offset="0.59" stop-color="#40B15D"/>
<stop offset="0.68" stop-color="#3AAB59"/>
<stop offset="0.8" stop-color="#2A9D4F"/>
<stop offset="0.93" stop-color="#10863D"/>
<stop offset="1" stop-color="#007733"/>
</radialGradient>
<radialGradient id="paint11_radial_521_2630" cx="0" cy="0" r="1" gradientUnits="userSpaceOnUse" gradientTransform="translate(28.5711 25.0175) scale(30.197 30.0609)">
<stop stop-color="#B3D796"/>
<stop offset="0.59" stop-color="#40B15D"/>
<stop offset="0.68" stop-color="#3AAB59"/>
<stop offset="0.8" stop-color="#2A9D4F"/>
<stop offset="0.93" stop-color="#10863D"/>
<stop offset="1" stop-color="#007733"/>
</radialGradient>
<radialGradient id="paint12_radial_521_2630" cx="0" cy="0" r="1" gradientUnits="userSpaceOnUse" gradientTransform="translate(28.5236 25.0223) scale(30.1601 30.0242)">
<stop stop-color="#B3D796"/>
<stop offset="0.59" stop-color="#40B15D"/>
<stop offset="0.68" stop-color="#3AAB59"/>
<stop offset="0.8" stop-color="#2A9D4F"/>
<stop offset="0.93" stop-color="#10863D"/>
<stop offset="1" stop-color="#007733"/>
</radialGradient>
<radialGradient id="paint13_radial_521_2630" cx="0" cy="0" r="1" gradientUnits="userSpaceOnUse" gradientTransform="translate(28.5236 25.0223) scale(30.1601 30.0242)">
<stop stop-color="#B3D796"/>
<stop offset="0.59" stop-color="#40B15D"/>
<stop offset="0.68" stop-color="#3AAB59"/>
<stop offset="0.8" stop-color="#2A9D4F"/>
<stop offset="0.93" stop-color="#10863D"/>
<stop offset="1" stop-color="#007733"/>
</radialGradient>
<radialGradient id="paint14_radial_521_2630" cx="0" cy="0" r="1" gradientUnits="userSpaceOnUse" gradientTransform="translate(28.5288 25.0227) scale(30.1602 30.0242)">
<stop stop-color="#B3D796"/>
<stop offset="0.59" stop-color="#40B15D"/>
<stop offset="0.68" stop-color="#3AAB59"/>
<stop offset="0.8" stop-color="#2A9D4F"/>
<stop offset="0.93" stop-color="#10863D"/>
<stop offset="1" stop-color="#007733"/>
</radialGradient>
<clipPath id="clip0_521_2630">
<rect width="192" height="58" fill="white"/>
</clipPath>
</defs>
</svg>
