<svg xmlns="http://www.w3.org/2000/svg" xmlns:xlink="http://www.w3.org/1999/xlink" viewBox="0 0 407.2 148.3"><defs><clipPath id="a"><path d="M79.4,94.8v24.8c33.4-.7,59.9-8.8,59.9-18.7,0-6.3-7.1-12-18.5-16.2-10.7,5.8-25.2,9.5-41.4,10.1" fill="none"/></clipPath><radialGradient id="b" cx="-1360.66" cy="613.65" r="3.41" gradientTransform="matrix(-10.14, 0, 0, -7.96, -13657.58, 4991.05)" gradientUnits="userSpaceOnUse"><stop offset="0" stop-color="#a30000"/><stop offset="0.03" stop-color="#a30000"/><stop offset="0.3" stop-color="#b40005"/><stop offset="0.54" stop-color="#be0008"/><stop offset="0.85" stop-color="#e06651"/><stop offset="1" stop-color="#f19975"/></radialGradient><clipPath id="c"><path d="M10.7,100.9c0,13.2,41.7,19.6,68.7,18.7V94.8c-20.1.7-38.6-3.8-50.2-10.1-11.5,4.2-18.5,9.9-18.5,16.2" fill="none"/></clipPath><radialGradient id="d" cx="-1303.09" cy="709.77" r="3.41" gradientTransform="matrix(0, -14.81, 9.26, 0, -6531.84, -19181.39)" gradientUnits="userSpaceOnUse"><stop offset="0" stop-color="#00388a"/><stop offset="0.16" stop-color="#004194"/><stop offset="0.41" stop-color="#004da0"/><stop offset="0.52" stop-color="#1b5fab"/><stop offset="0.85" stop-color="#6895cc"/><stop offset="1" stop-color="#87aad9"/></radialGradient><clipPath id="e"><path d="M50.7,21.5C40,24.7,36.6,48,43.3,76.3c7.2,30.5,23.4,55.1,36.2,55.1a10.1,10.1,0,0,0,2.5-.3l12.3-3.5h0a10.3,10.3,0,0,1-2.6.3c-12.7,0-28.9-24.7-36.1-55.1C48.9,44.4,52.4,21,63.2,18h0Z" fill="none"/></clipPath><linearGradient id="f" x1="-1256.56" y1="597.54" x2="-1253.15" y2="597.54" gradientTransform="translate(19833.1 41591.1) rotate(90) scale(33.08)" gradientUnits="userSpaceOnUse"><stop offset="0" stop-color="#7c5430"/><stop offset="0" stop-color="#7d5530"/><stop offset="0.04" stop-color="#987042"/><stop offset="0.08" stop-color="#ad8550"/><stop offset="0.13" stop-color="#bc945a"/><stop offset="0.18" stop-color="#c49c60"/><stop offset="0.27" stop-color="#c79f62"/><stop offset="0.4" stop-color="#c29a5f"/><stop offset="0.55" stop-color="#b48d57"/><stop offset="0.71" stop-color="#9d784a"/><stop offset="0.88" stop-color="#7d5937"/><stop offset="1" stop-color="#624027"/></linearGradient><clipPath id="g"><path d="M55.6,72.8c7.2,30.4,23.4,55.1,36.1,55.1s17.3-24.7,10.1-55.1S78.4,17.6,65.6,17.6s-17.2,24.7-10,55.2" fill="none"/></clipPath><linearGradient id="h" x1="-1256.15" y1="600.87" x2="-1252.75" y2="600.87" gradientTransform="translate(22401.9 46671) rotate(90) scale(37.15)" gradientUnits="userSpaceOnUse"><stop offset="0" stop-color="#c79f62"/><stop offset="0.01" stop-color="#c79f62"/><stop offset="0.02" stop-color="#c9a267"/><stop offset="0.14" stop-color="#dcc39d"/><stop offset="0.24" stop-color="#ebddc7"/><stop offset="0.34" stop-color="#f6f0e6"/><stop offset="0.42" stop-color="#fdfbf8"/><stop offset="0.47" stop-color="#fff"/><stop offset="0.54" stop-color="#fdfbf9"/><stop offset="0.62" stop-color="#f6f0e7"/><stop offset="0.72" stop-color="#ecdec9"/><stop offset="0.83" stop-color="#ddc5a0"/><stop offset="0.95" stop-color="#caa56b"/><stop offset="0.97" stop-color="#c79f62"/><stop offset="1" stop-color="#c79f62"/></linearGradient><clipPath id="i"><polygon points="79.4 77.3 89.4 89.7 89.4 72.4 79.4 57.6 79.4 77.3" fill="none"/></clipPath><linearGradient id="j" x1="-1266.89" y1="520.25" x2="-1263.48" y2="520.25" gradientTransform="matrix(0, 9.91, -9.91, 0, 5242.04, 12614.11)" xlink:href="#f"/><clipPath id="k"><path d="M99.7,54.3V79.6l7.1,1.2h0V55.6l-7.1-1.3Z" fill="none"/></clipPath><radialGradient id="l" cx="-1287.44" cy="685.53" r="3.41" gradientTransform="translate(-11522.1 -21729.5) rotate(-90) scale(16.96)" gradientUnits="userSpaceOnUse"><stop offset="0" stop-color="#ffe9b3"/><stop offset="0.36" stop-color="#f9bf2c"/><stop offset="0.48" stop-color="#f1b226"/><stop offset="0.72" stop-color="#da8e16"/><stop offset="1" stop-color="#bb5d00"/></radialGradient><clipPath id="m"><path d="M94.6,78.9l2.5.3V54l-2.5-.3Z" fill="none"/></clipPath><radialGradient id="n" cx="-1287.44" cy="685.55" r="3.41" gradientTransform="translate(-11522.3 -21718.2) rotate(-90) scale(16.96)" xlink:href="#l"/><clipPath id="o"><path d="M134.9,67.2V92.5c2.8,2.6,4.4,5.5,4.4,8.4V75.6C139.3,72.7,137.7,69.8,134.9,67.2Z" fill="none"/></clipPath><radialGradient id="p" cx="-1287.4" cy="685.47" r="3.41" gradientTransform="matrix(0, -16.98, 16.98, 0, -11504.17, -21768.15)" xlink:href="#l"/><clipPath id="q"><path d="M121.7,85.1a55,55,0,0,1,10.6,5.3V65.1a55,55,0,0,0-10.6-5.3Z" fill="none"/></clipPath><radialGradient id="r" cx="-1287.39" cy="685.54" r="3.41" gradientTransform="translate(-11500.4 -21743.9) rotate(-90) scale(16.96)" xlink:href="#l"/><clipPath id="s"><path d="M109.4,56.1V81.4c3.5.8,6.7,1.7,9.7,2.7h0V58.8C116.1,57.8,112.9,56.9,109.4,56.1Z" fill="none"/></clipPath><radialGradient id="t" cx="-1287.39" cy="685.5" r="3.4" gradientTransform="matrix(0, -16.96, 16.96, 0, -11512.02, -21732.71)" xlink:href="#l"/><clipPath id="u"><path d="M15.3,67V92.3a37.5,37.5,0,0,1,3.6-2.7V64.4h0A25.6,25.6,0,0,0,15.3,67" fill="none"/></clipPath><radialGradient id="v" cx="-1313.15" cy="637.15" r="3.41" gradientTransform="matrix(-17.31, 0, 0, -17.31, -22663.28, 11118.15)" gradientUnits="userSpaceOnUse"><stop offset="0" stop-color="#b3d796"/><stop offset="0.59" stop-color="#40b15d"/><stop offset="0.68" stop-color="#3aac59"/><stop offset="0.8" stop-color="#2b9e4f"/><stop offset="0.93" stop-color="#11863e"/><stop offset="1" stop-color="#073"/></radialGradient><clipPath id="w"><path d="M10.7,75.6v25.3a9.6,9.6,0,0,1,2-5.7V69.9h0a9.6,9.6,0,0,0-2,5.7" fill="none"/></clipPath><radialGradient id="x" cx="-1313.16" cy="637.16" r="3.41" gradientTransform="matrix(-17.3, 0, 0, -17.3, -22649.17, 11104.13)" xlink:href="#v"/><clipPath id="y"><path d="M48.7,51v3.6l-4.4.7V80.6l4.4-.8v2.8a1.3,1.3,0,0,0,2.1.9L70.6,66.2a1.3,1.3,0,0,0-.1-1.9L50.7,50a1,1,0,0,0-.7-.2A1.2,1.2,0,0,0,48.7,51" fill="none"/></clipPath><radialGradient id="z" cx="-1313.15" cy="637.18" r="3.41" gradientTransform="matrix(-17.31, 0, 0, -17.31, -22664.16, 11100.36)" xlink:href="#v"/><clipPath id="aa"><path d="M30.3,59.1V84.3a98.3,98.3,0,0,1,11.4-3.1V55.9a97.7,97.7,0,0,0-11.4,3.2" fill="none"/></clipPath><radialGradient id="ab" cx="-1313.15" cy="637.18" r="3.4" gradientTransform="matrix(-17.3, 0, 0, -17.3, -22648.33, 11094.34)" xlink:href="#v"/><clipPath id="ac"><path d="M21.5,62.8V88.1h0a58.2,58.2,0,0,1,6.1-2.8V60h0a58.2,58.2,0,0,0-6.1,2.8" fill="none"/></clipPath><radialGradient id="ad" cx="-1313.08" cy="637.18" r="3.41" gradientTransform="translate(-22672.1 11119.3) rotate(180) scale(17.32)" xlink:href="#v"/></defs><path d="M362.7,97.6c-.7-.2-1-.9-1-2V75.7c0-5.4.1-12.3-9.3-13.6-12.2-1.8-18,6-19.1,7.6l7.5,5.2a13.4,13.4,0,0,1,2.7-6.8c1.2-1.4,5.6-3.4,8-.7,1.1,1.1,1.2,2.8,1.2,4.8V76c-3.5.3-11.7.1-18.4,5.8a11.5,11.5,0,0,0-4,7.1,11.6,11.6,0,0,0,3.1,9.9,15.2,15.2,0,0,0,10.8,4.6,18.1,18.1,0,0,0,10.9-3.6,5.6,5.6,0,0,0,4.8,3,4,4,0,0,0,3.8-2c.7-1-.1-1.6,4.4-2.8V97s-4.7.8-5.4.6m-10-1.3c-1.8,1.3-2.9,2.3-5.1,2.5a5.7,5.7,0,0,1-5.4-2c-2.1-2.3-2.3-6.5-1.4-9.4a8,8,0,0,1,3.7-4.7c2-1.2,5.3-2,8.2-2.5Z" fill="#f45197"/><path d="M400.7,61.8c-3,6.7-9.1,19.2-13.6,27.9a228.8,228.8,0,0,1-10.7-27.9l-10.3,5.5c4.9,10.4,12.7,22.3,18.7,26.4,0,0-10,21.2-12.1,24.8h7l27.5-54.8Z" fill="#f45197"/><path d="M232.7,72a56.7,56.7,0,0,1-9.9,20.7l8.7,7.3c2.4-6.5,3.7-16.6,2.2-28Z" fill="#f45197"/><path d="M224.5,56.9l-.8.7c2.6,2.3,2.6,3.5,3.5,8.5.2,1.5,1.9,2.2,3.3,2.2s4.5-1.3,4.4-3.7c-.5-5.9-7.1-6.6-10.4-7.7" fill="#f45197"/><path d="M244.6,86h33V83.2H237.9l-1.1,8.2h34.1c-.4,4.3-.7,5.7-3.9,5.7H250.8l-.2.9a102.5,102.5,0,0,1,12,2c2.2.4,2.7,1.9,5.7,2.1s7.6,0,9-4.1c.8-2.2.9-6.5,1.3-9.2H244.4Z" fill="#f45197"/><path d="M225,44.7l-.6.6a13.6,13.6,0,0,1,4.2,6.4c.5,2.6,1.2,3.7,4.1,3.7s3.6-1.7,3.7-3.9c.2-4.7-8.5-6.1-11.4-6.8" fill="#f45197"/><path d="M331,64.8c-.1-4.4-1.3-8.4-4.2-11.3a17.9,17.9,0,0,0-11.7-4.7H290.2V74.2h10V52.5h10.1c4.8,0,7.3,4,8.4,6.7s1.6,8.8.2,12.2-4.5,5.7-8.1,5.7h-74v3.4h53.4v20.8h10V80.5h15.6c5.3,0,9.8-1.6,12.5-5s2.9-6.6,2.7-10.7" fill="#f45197"/><path d="M266.7,50.7h-4.8c.8-.7,1.2-1,1.2-2,.1-5.6-8.5-5.6-12-4.6v.7a13.1,13.1,0,0,1,2.5,2.2c.8,1.2.9,2.7,1.9,3.7h-6.1v2.7h17.2Z" fill="#f45197"/><rect x="252.2" y="60.4" width="11.8" height="2.72" fill="#f45197"/><rect x="252.2" y="55.6" width="11.8" height="2.71" fill="#f45197"/><path d="M267,62.6a38.5,38.5,0,0,0,4-1,57,57,0,0,1-3.5,6.2,2.4,2.4,0,0,1-1.3.7l.7,6.1a18.8,18.8,0,0,0,9.4-5.1s.5,3.1,1.9,2.9a1.9,1.9,0,0,0,2-2.1c.2-3.9-5.4-6.4-5.4-6.4l1,3.3a27.4,27.4,0,0,1-6.4,1.3c4.7-3.3,7.1-8.2,9.4-13.3h-5.2a10.2,10.2,0,0,1-.8,2.1h-2.1c2.4-1.7,5.2-7.8,6.1-9.7l-6.7-.2c-.6,5.6-1.8,8-2.2,8.9s-.7.8-1.4,1Z" fill="#f45197"/><path d="M237.9,68.5l.7,6.1c3.3-.7,7.4-2.8,9.4-5.1,0,0,.5,3.1,1.8,2.9a2.2,2.2,0,0,0,1.5-.6v2.4h13.6V65.1H251.3v3c-1.3-2.6-4.8-4.2-4.8-4.2l1,3.3a28.4,28.4,0,0,1-6.4,1.3c4.6-3.3,7.1-8.2,9.4-13.3h-5.3a10.3,10.3,0,0,1-.7,2.1h-2.2c2.5-1.7,5.3-7.8,6.1-9.7l-6.6-.2c-.6,5.6-1.8,8-2.3,8.9s-.6.8-1.3,1l.5,5.3a35.9,35.9,0,0,0,3.9-1,59.6,59.6,0,0,1-3.4,6.2,2.4,2.4,0,0,1-1.3.7m18-.6h4.5v3.6h-4.5Z" fill="#f45197"/><path d="M198,50.5l-.7.5c4.4,3,5.9,4.6,8.5,9.2-8.2.4-30.4,1-34.7.8,8-3.2,17.1-7.3,22.9-14.9H180.6c-5.8,8.3-10.7,12.6-12.9,13.9a9.7,9.7,0,0,1-3.4.8l1.4,8c14.6-1,29.7-2.9,40.9-7.1,1.4,2.5,2.3,5.9,6.4,6.5a4.1,4.1,0,0,0,4.8-4.5c-.8-8.6-10.3-10.8-19.8-13.2" fill="#f45197"/><path d="M169.9,101.3h40.5V73.2H169.9Zm9.3-25h22v22h-22Z" fill="#f45197"/><g clip-path="url(#a)"><rect x="74.7" y="71.7" width="69.3" height="60.98" transform="translate(-37.2 72.1) rotate(-31.5)" fill="url(#b)"/></g><g clip-path="url(#c)"><rect x="17.2" y="64.4" width="55.6" height="76.5" transform="translate(-66.5 113.2) rotate(-71.7)" fill="url(#d)"/></g><g clip-path="url(#e)"><rect x="20.6" y="11.9" width="89.7" height="125.69" transform="translate(-19.8 23.7) rotate(-17.9)" fill="url(#f)"/></g><g clip-path="url(#g)"><rect x="33" y="11" width="91.4" height="123.53" transform="translate(-18.5 27.6) rotate(-17.8)" fill="url(#h)"/></g><g clip-path="url(#i)"><rect x="74.6" y="56.9" width="19.5" height="33.6" transform="translate(-18.8 30) rotate(-18.2)" fill="url(#j)"/></g><g clip-path="url(#k)"><rect x="90.1" y="57.6" width="26.3" height="19.9" transform="translate(-8.5 120) rotate(-58.4)" fill="url(#l)"/></g><g clip-path="url(#m)"><rect x="84.3" y="58.7" width="23.1" height="15.57" transform="translate(-11 113.2) rotate(-58.4)" fill="url(#n)"/></g><g clip-path="url(#o)"><rect x="121.6" y="73.4" width="31" height="21.39" transform="matrix(0.52, -0.85, 0.85, 0.52, -6.41, 156.67)" fill="url(#p)"/></g><g clip-path="url(#q)"><rect x="111.2" y="62.6" width="31.6" height="25.05" transform="translate(-3.6 143.8) rotate(-58.4)" fill="url(#r)"/></g><g clip-path="url(#s)"><rect x="99.8" y="58.7" width="28.9" height="22.91" transform="translate(-5.4 130.6) rotate(-58.4)" fill="url(#t)"/></g><g clip-path="url(#u)"><rect x="10.7" y="64.6" width="12.9" height="27.4" transform="translate(-25.8 10.6) rotate(-20)" fill="url(#v)"/></g><g clip-path="url(#w)"><rect x="5.4" y="70.5" width="12.5" height="29.83" transform="translate(-28.6 9.2) rotate(-20.1)" fill="url(#x)"/></g><g clip-path="url(#y)"><rect x="39.3" y="46.2" width="37" height="41.55" transform="translate(-19.5 23.9) rotate(-20.1)" fill="url(#z)"/></g><g clip-path="url(#aa)"><rect x="25.8" y="54.8" width="20.5" height="30.63" transform="translate(-21.9 16.6) rotate(-20.1)" fill="url(#ab)"/></g><g clip-path="url(#ac)"><rect x="16.9" y="59.8" width="15.4" height="28.49" transform="translate(-23.9 12.9) rotate(-20)" fill="url(#ad)"/></g></svg>