<svg width="1414" height="322" viewBox="0 0 1414 322" fill="none" xmlns="http://www.w3.org/2000/svg">
<path d="M443.356 48.7188C414.144 26.0353 346.645 8.73911 271.206 3.63532C257.876 2.50115 243.98 1.93407 230.366 1.93407C217.604 1.93407 205.125 2.50115 192.647 3.35178C115.789 8.17203 46.5888 25.4682 17.0936 48.7188C5.46569 57.7922 0.0771484 70.5516 0.0771484 83.8782C0.0771484 94.9364 2.0624 105.427 12.2723 114.501C39.4986 139.453 118.909 162.987 192.93 170.926C205.693 172.344 218.455 172.911 230.65 172.911C243.696 172.911 257.876 171.777 271.49 170.643C344.66 163.27 421.801 139.169 448.461 114.501C458.67 105.427 460.939 94.9364 460.939 83.8782C460.372 70.5516 454.984 57.7922 443.356 48.7188ZM376.424 114.784C359.408 134.632 320.554 151.645 270.922 158.167C258.16 159.868 244.263 160.718 230.083 160.718C217.037 160.718 204.275 159.868 192.363 158.45C141.03 152.496 101.041 135.483 83.1741 114.784C76.3676 106.562 73.5315 94.9364 73.5315 86.7136C73.5315 77.6402 77.2184 63.1795 91.3988 52.4048C110.117 37.9441 146.702 23.1998 192.363 16.6783C203.991 14.9771 216.753 14.41 230.083 14.1264C244.263 14.41 257.876 15.5442 270.922 17.529C314.881 24.0505 350.332 38.2276 368.767 52.4048C382.947 63.1795 386.634 77.6402 386.634 86.7136C386.351 95.2199 383.514 106.845 376.424 114.784Z" fill="white"/>
<path fill-rule="evenodd" clip-rule="evenodd" d="M264.683 63.463C266.952 63.1795 268.937 62.8959 271.206 61.7618C274.326 60.9111 277.162 59.2099 280.565 56.9415C282.834 54.9567 284.819 52.9719 287.088 50.1365C288.222 45.3162 288.222 42.1973 287.088 37.9441C284.819 35.9593 283.117 34.258 279.998 32.8403C276.878 32.2732 274.326 31.7061 271.206 32.8403C269.504 33.4074 267.803 34.8251 266.101 36.8099C259.011 45.3162 254.757 51.8377 254.757 63.7466C257.876 64.3137 261.563 64.0301 264.683 63.463ZM192.363 58.6428C194.915 60.0605 198.035 60.9111 200.02 62.0453C202.006 62.6124 206.26 63.7466 207.394 62.0453C209.096 58.6428 207.961 54.3896 207.394 50.7036C206.26 45.5998 203.707 41.3466 200.588 37.0935C198.602 34.5416 195.483 31.4226 192.079 30.0049C191.796 30.0049 191.512 29.7213 190.945 29.7213C187.825 28.8707 183.855 28.8707 181.586 30.8555C177.899 34.258 174.212 39.9289 176.197 45.5998C178.75 51.5542 186.124 56.0909 192.363 58.6428ZM270.922 123.007H270.355C268.37 122.157 267.235 120.739 266.952 117.62V95.2199H287.655V71.1187H270.922L244.263 70.8352L244.547 28.3036H217.32V70.8352L192.079 71.1187H172.51V95.2199H193.214C192.93 100.04 192.647 105.427 192.647 109.681C192.363 111.098 192.363 112.233 192.079 113.65C190.945 117.62 189.811 121.589 187.825 125.843C184.138 131.513 180.452 136.617 176.765 142.288C176.481 145.407 179.601 145.407 180.735 144.84C185.556 142.572 188.676 140.587 192.079 138.035C195.483 135.767 198.886 133.215 202.857 130.379C208.245 126.41 213.634 119.321 216.47 114.217C219.589 109.397 221.858 106.562 224.127 99.7566L225.262 95.2199L236.039 94.9364L238.591 96.6376L238.307 133.782C239.442 139.169 243.412 142.855 245.965 143.422L262.414 143.989L270.639 143.706L275.46 143.422C284.252 138.035 286.521 132.931 288.222 122.157L270.922 123.007Z" fill="white"/>
<path d="M395.426 219.412C395.426 218.561 396.56 217.144 397.411 217.144H432.862C433.713 217.144 434.847 218.561 434.847 219.412V231.037H445.908V217.427C445.908 213.174 443.356 208.07 436.265 208.07H421.234C419.816 205.235 418.398 201.832 417.547 198.713H404.218C405.069 201.549 406.77 205.235 407.905 208.07H393.441C386.634 208.07 384.082 213.174 384.082 217.427V231.037H395.142V219.412H395.426ZM386.067 250.318H401.098C407.621 245.498 412.442 235.007 412.726 223.949H401.098C399.68 240.111 388.903 248.05 386.067 250.318ZM417.831 223.665V239.544C417.831 246.632 422.652 249.751 428.892 249.751H443.072L445.624 240.961H432.011C430.31 240.961 429.459 240.111 429.459 238.693V223.665C429.742 223.665 417.831 223.665 417.831 223.665ZM382.664 239.26C380.395 240.394 377.275 241.812 374.723 242.946V226.501H380.962V217.144H374.723V198.997H362.244V217.144H352.318V226.501H362.244V248.333C358.841 249.751 354.87 251.169 351.183 252.02V262.227C354.303 261.093 358.557 259.675 362.244 258.257V281.508C362.244 283.209 361.109 283.776 359.691 283.776H352.318L355.154 292.566H364.796C371.036 292.566 374.439 287.462 374.439 283.209V252.303C376.991 251.452 379.828 250.318 382.38 248.901L382.664 239.26ZM420.667 283.776V263.645H443.639V254.855H385.783V263.645H406.77V283.776H381.529V292.566H446.192V283.776H420.667Z" fill="white"/>
<path d="M312.896 279.807C315.732 273.002 318.285 266.48 319.986 259.392H307.224C305.239 266.48 302.686 273.569 298.999 279.807H312.896ZM265.534 259.108H252.488C254.757 266.197 257.309 273.002 260.145 279.523H274.042C270.639 273.002 267.803 266.48 265.534 259.108ZM293.894 254.855H329.913V245.498H293.894V233.022H309.777V225.366C314.031 230.47 316.016 232.739 318.001 234.44H335.301C326.509 225.934 318.001 216.293 311.478 206.936C310.344 205.235 307.508 200.698 301.268 200.698H271.49C265.534 200.698 262.414 205.518 261.28 206.936C255.04 216.293 246.248 225.934 237.457 234.44H254.473C256.175 232.739 258.444 230.47 262.698 225.366V233.306H278.58V245.782H242.562V255.139H278.58V283.776H239.725V293.133H333.032V283.776H293.894V254.855ZM264.116 223.949C266.668 220.83 269.788 216.86 274.326 211.473C275.176 210.339 276.027 209.772 278.012 209.772H295.313C297.298 209.772 297.865 210.339 298.999 211.473C303.254 216.86 306.373 220.83 308.926 223.949H264.116Z" fill="white"/>
<path d="M13.6903 289.447H25.0346C28.1543 279.523 30.1395 269.032 31.5576 258.541H20.7805C19.6461 266.48 15.9592 282.642 13.6903 289.447ZM64.1724 245.498H47.156V238.409H64.1724V229.336H55.6642C56.7986 225.366 58.2167 220.546 58.7839 216.293H63.038V207.22H46.3052C45.1707 204.668 44.0363 200.982 43.1855 198.43H30.7068C31.5576 200.982 32.4084 204.384 33.5428 207.22H17.3772V216.293H21.9149C22.7657 220.263 23.9002 225.083 25.0346 229.336H16.5264V238.409H34.3937V245.498H16.5264V254.571H34.3937V292.566H46.8724V254.571H63.8888L64.1724 245.498ZM45.1707 229.336H35.8117C34.6773 225.366 33.5428 219.979 32.9756 216.293H48.574C47.7232 220.263 46.3052 225.366 45.1707 229.336ZM81.7561 229.62V216.009C81.7561 214.875 82.6069 214.025 83.7414 213.741C92.5332 212.607 99.6234 211.189 108.132 208.637V199.848C97.9217 202.116 86.0102 204.101 75.5167 205.802C73.8151 206.085 72.3971 206.936 70.979 208.07C69.8446 209.772 68.9938 211.473 68.9938 213.458V257.123C68.9938 269.883 66.7249 283.776 60.7691 292.566H74.0987C80.0545 281.225 81.1889 264.779 81.1889 250.602V238.693H91.1152V292.566H103.594V238.693H109.55V229.62H81.7561ZM60.2019 258.825H49.9921C50.5593 265.63 51.6937 275.837 53.1117 282.642H63.8888C62.1872 275.837 60.7692 265.63 60.2019 258.825Z" fill="white"/>
<path d="M215.052 203.817H201.722C198.602 213.741 195.199 223.382 188.96 231.888H203.424C208.812 223.098 212.499 213.458 215.052 203.817ZM160.032 231.888C154.36 223.098 150.389 213.458 146.986 203.817H133.656C137.06 213.174 140.463 223.098 145.851 231.888H160.032ZM200.02 282.926C198.035 282.926 196.617 281.508 196.617 279.523V246.916H221.007V237.559H181.302V198.713H167.122V237.559H127.133V246.916H151.524C153.225 275.837 134.507 286.895 124.864 292.566H145.851C152.942 287.462 166.271 277.255 165.704 246.916H182.437V280.941C182.437 289.164 187.258 292.566 192.363 292.566H219.873L224.127 282.926H200.02Z" fill="white"/>
<path d="M571.263 2.21761H545.738V292.566H571.263V2.21761Z" fill="white"/>
<path d="M733.202 107.696H715.052C716.186 119.888 717.888 137.468 720.44 149.66H739.158C736.322 138.035 734.053 120.172 733.202 107.696ZM770.922 32.5568C770.922 30.572 772.34 28.8707 774.326 28.5872C789.924 26.6024 802.403 24.0505 817.434 19.7973V4.20241C799.567 8.17202 778.58 11.8581 760.145 14.41C757.025 14.6935 754.473 16.1112 752.488 18.3796C750.219 21.215 749.085 24.334 749.085 28.0201V104.86C749.085 127.26 745.114 151.645 734.621 167.524H758.444C768.937 147.675 771.206 118.754 771.206 93.2351V72.2529H787.939V167.24H809.776V72.2529H819.986V56.3744H771.206V32.5568H770.922ZM740.009 84.4452H709.947V71.9693H740.009V56.0909H724.978C726.963 49.0023 729.232 40.496 730.65 33.4074H738.307V17.529H709.379C707.394 12.9923 705.125 6.18722 703.991 1.93406H681.87C683.288 6.7543 684.989 12.7087 686.974 17.529H658.33V33.4074H666.271C667.689 40.496 669.674 49.0023 671.66 56.0909H656.912V71.9693H688.109V84.4452H656.912V100.324H688.109V167.524H709.947V100.324H740.009V84.4452ZM706.827 56.0909H690.094C688.109 49.0023 686.124 39.6454 684.989 33.4074H712.216C710.797 39.9289 708.812 49.0023 706.827 56.0909ZM1005.75 11.0075H982.493C977.105 28.3036 971.149 45.3162 960.088 60.6276H985.613C994.972 45.0327 1001.21 28.0201 1005.75 11.0075ZM908.755 60.6276C898.829 45.0327 891.455 28.0201 885.783 11.0075H862.527C868.483 27.7365 874.723 44.7491 883.798 60.6276H908.755ZM650.956 162.136H671.092C676.481 144.556 680.168 126.126 682.72 107.979H664.002C661.45 121.589 655.21 149.944 650.956 162.136ZM973.134 144.556V86.9971H1015.96V70.2681H946.475V1.93406H921.234V70.5516H851.183V87.2807H894.292C897.128 138.319 864.513 157.883 847.213 167.524H884.082C896.844 158.734 920.1 140.303 918.965 87.2807H948.461V147.392C948.461 162.136 956.685 167.524 966.044 167.524H1014.54L1021.63 150.794H979.657C975.687 150.511 973.134 147.959 973.134 144.556ZM1152.09 72.5364H1133.66C1138.48 52.6884 1141.03 29.1542 1140.18 1.36697H1115.51C1117.77 95.787 1079.49 133.215 1042.05 167.524H1074.67C1096.79 148.526 1117.77 124.708 1129.97 86.9971C1138.19 105.144 1155.49 138.035 1185.27 167.524H1221.01C1188.96 139.169 1165.7 107.412 1152.09 72.5364ZM1361.96 139.169H1331.33L1337.57 151.645H1368.2L1361.96 139.169ZM1413.58 116.202V102.592H1245.96V116.202H1379.26V121.873H1330.48V134.916H1379.54V151.078C1379.54 153.63 1377.56 155.615 1375.29 155.615H1352.6L1358.27 167.24H1385.22C1394.58 167.24 1399.96 160.151 1399.96 153.63V134.916H1413.58V121.873H1399.96V116.202H1413.58ZM1316.87 30.572H1255.61V43.8985H1403.93V30.572H1341.82V24.334H1408.76V11.0075H1341.82V0.516342H1316.87V11.0075H1249.94V24.334H1316.87V30.572ZM1394.29 67.7162V75.0883H1413.29V64.5972C1413.29 59.4934 1411.88 55.5238 1409.04 52.6884C1405.92 49.8529 1401.67 48.1517 1395.99 48.1517H1245.96V62.0453H1389.75C1392.59 62.0453 1394.29 65.1643 1394.29 67.7162ZM1256.17 84.4452V98.0553H1403.93V84.4452H1341.82V79.3415H1387.48V66.582H1262.98V79.3415H1316.58V84.4452H1256.17ZM1310.06 121.306H1264.4C1260.71 121.306 1257.59 122.44 1255.32 124.425C1252.49 126.693 1250.79 129.812 1250.79 133.782V151.362C1250.79 154.481 1251.92 157.599 1253.91 159.868C1255.89 162.703 1259.29 164.688 1263.26 164.688H1310.63C1314.6 164.688 1317.72 163.27 1319.7 161.286C1322.26 158.734 1323.39 155.331 1323.39 151.645V134.632C1323.39 130.663 1321.97 127.26 1319.42 124.992C1317.15 122.724 1313.75 121.306 1310.06 121.306ZM1305.24 146.541C1305.24 149.377 1303.25 150.794 1300.98 150.794H1273.76C1271.49 150.794 1268.94 148.81 1268.94 145.974V139.453C1268.94 136.334 1270.92 134.916 1273.19 134.916H1301.55C1304.1 134.916 1305.52 136.901 1305.52 138.886V146.541H1305.24Z" fill="white"/>
<path d="M1285.39 221.397C1283.68 224.799 1283.97 229.336 1283.97 239.26L1294.46 238.977V244.647L1283.97 244.364V254.288C1283.97 261.376 1283.97 268.182 1284.25 274.136C1284.54 280.09 1284.54 286.328 1284.82 292.283H1268.09C1268.37 286.328 1268.65 280.374 1268.65 274.136C1268.94 268.182 1268.94 261.376 1268.94 254.288V244.364H1261.28V238.693L1268.94 238.977C1268.94 217.144 1272.06 209.204 1285.1 209.204C1290.21 209.204 1293.89 210.339 1297.58 212.04V219.696L1297.01 219.979C1293.33 215.442 1287.09 215.726 1285.39 221.397Z" fill="white"/>
<path d="M1182.72 230.754C1182.44 225.934 1182.44 221.113 1182.15 216.293C1183.29 216.577 1184.71 216.577 1186.41 216.577C1188.11 216.577 1189.53 216.86 1191.51 216.86C1193.21 216.86 1194.92 216.86 1196.33 216.577C1197.75 216.577 1199.17 216.293 1200.59 216.293C1200.3 221.113 1200.02 225.934 1200.02 230.754C1199.74 235.574 1199.74 240.961 1199.74 247.199V262.227C1199.74 266.48 1199.74 270.45 1199.74 274.419C1199.74 278.389 1199.74 281.792 1200.02 284.627C1204.27 284.627 1208.53 284.627 1212.78 284.344C1217.04 284.06 1221.29 283.776 1225.55 283.209C1225.26 284.06 1225.26 284.911 1225.26 285.478C1225.26 286.045 1225.26 287.179 1225.26 288.313C1225.26 289.447 1225.26 290.298 1225.26 291.149C1225.26 291.716 1225.55 292.283 1225.55 292.85C1223.56 292.85 1221.01 292.85 1218.17 292.566C1215.34 292.566 1211.36 292.566 1206.26 292.566C1201.72 292.566 1198.04 292.566 1195.2 292.566C1192.65 292.566 1190.38 292.566 1188.68 292.566C1186.97 292.566 1185.84 292.566 1184.99 292.566C1184.14 292.566 1183.29 292.566 1182.72 292.85C1183 288.313 1183.29 283.493 1183.29 278.956C1183.57 274.136 1183.57 268.749 1183.57 262.511V247.483C1183 240.961 1182.72 235.574 1182.72 230.754Z" fill="white"/>
<path d="M1237.46 212.323C1239.16 210.622 1241.14 209.772 1243.7 209.772C1246.25 209.772 1248.23 210.622 1249.94 212.323C1251.64 214.025 1252.49 216.009 1252.49 218.561C1252.49 221.113 1251.64 223.098 1249.94 224.799C1248.23 226.501 1246.25 227.351 1243.7 227.351C1241.14 227.351 1239.16 226.501 1237.46 224.799C1235.75 223.098 1234.9 221.113 1234.9 218.561C1234.9 216.009 1235.75 214.025 1237.46 212.323ZM1235.47 292.566C1235.75 288.88 1236.04 284.911 1236.32 280.941C1236.32 276.971 1236.61 272.718 1236.61 268.182V263.645C1236.61 259.108 1236.61 254.855 1236.32 250.885C1236.32 246.916 1236.04 242.946 1235.47 238.977H1252.2C1251.92 242.946 1251.64 246.916 1251.35 250.885C1251.35 254.855 1251.07 259.108 1251.07 263.645V268.182C1251.07 272.718 1251.07 276.971 1251.35 280.941C1251.35 284.911 1251.64 288.88 1252.2 292.566H1235.47Z" fill="white"/>
<path d="M1329.06 287.179C1334.45 287.179 1339.56 285.478 1343.81 282.075L1344.38 282.642L1341.82 289.447C1339.84 290.865 1337.57 291.999 1335.02 292.85C1332.47 293.7 1329.06 293.984 1324.81 293.984C1321.12 293.984 1317.72 293.417 1314.31 292.566C1311.19 291.432 1308.07 290.014 1305.81 287.746C1303.25 285.478 1301.27 282.642 1299.85 278.956C1298.43 275.554 1297.58 271.3 1297.58 266.48C1297.58 261.66 1298.15 257.407 1299.57 254.004C1300.98 250.318 1302.69 247.483 1304.96 245.214C1307.22 242.946 1309.78 240.961 1313.18 239.827C1316.3 238.693 1319.7 238.126 1323.39 238.126C1330.76 238.126 1336.44 240.394 1340.12 244.647C1344.09 248.901 1346.08 254.855 1346.08 262.794V265.063C1346.08 265.63 1346.08 266.197 1346.08 266.48H1314.31C1314.31 269.316 1314.6 272.151 1315.16 274.703C1315.73 277.255 1316.58 279.523 1318 281.508C1319.14 283.209 1320.84 284.911 1322.82 286.045C1324.24 286.612 1326.51 287.179 1329.06 287.179ZM1329.06 247.766C1327.93 244.364 1325.94 242.946 1322.82 242.946C1321.12 242.946 1319.99 243.513 1318.57 244.647C1317.43 245.782 1316.58 247.199 1316.02 248.901C1315.45 250.602 1314.88 252.587 1314.6 254.855C1314.31 257.123 1314.03 259.108 1314.03 261.376H1331.05C1330.76 255.706 1330.2 251.169 1329.06 247.766Z" fill="white"/>
<path d="M952.998 273.002C949.879 268.749 946.759 264.495 943.356 260.242C940.52 256.556 937.116 251.736 934.564 248.333C937.683 244.647 940.803 240.961 941.938 239.544C944.49 236.425 947.043 233.589 949.879 230.754C952.715 227.635 955.267 224.799 957.82 222.247C960.372 219.696 962.074 217.711 963.208 216.577H948.177C947.326 217.994 946.475 218.845 944.49 221.397C942.221 223.949 939.952 226.501 937.4 229.62C934.847 232.455 932.011 235.574 929.175 238.977C926.906 241.528 924.638 243.797 922.085 246.632V241.245C922.085 235.858 922.085 231.037 922.369 226.501C922.369 222.247 922.652 218.845 923.219 216.577H906.203C906.487 221.397 906.487 226.217 906.77 231.037C906.77 235.858 907.054 241.245 907.054 247.483V262.511C907.054 268.465 907.054 273.852 906.77 278.956C906.487 283.776 906.487 288.313 906.203 292.85H923.219C922.652 289.447 922.652 284.911 922.369 279.24C922.369 273.569 922.369 266.48 922.369 258.541V256.84L922.652 257.123C926.056 261.944 930.31 267.614 935.982 275.837C939.952 281.792 944.206 287.462 948.461 293.133H968.597C967.179 291.432 964.91 288.88 962.074 285.194C959.238 281.225 956.118 277.255 952.998 273.002ZM768.937 276.688C768.937 273.852 768.937 271.017 769.221 267.898C769.504 265.063 769.504 261.66 769.504 257.974C769.504 250.885 768.086 245.498 765.25 242.379C762.414 239.26 758.444 237.559 752.771 237.559C749.084 237.559 745.965 238.409 743.129 240.111C740.293 241.812 738.024 244.08 736.039 247.199L735.755 246.916C735.755 239.544 735.755 233.022 736.039 227.068C736.322 221.113 736.322 214.875 736.606 208.637H719.873C720.157 214.875 720.44 221.113 720.44 227.068C720.724 233.022 720.724 239.827 720.724 247.199V254.288C720.724 261.66 720.724 268.182 720.44 274.419C720.157 280.374 720.157 286.612 719.873 292.566H736.606C736.322 290.865 736.322 288.597 736.322 286.328C736.322 284.06 736.039 281.508 736.039 279.24C736.039 276.971 735.755 274.703 735.755 272.718C735.755 270.733 735.755 269.316 735.755 268.182V263.928C735.755 258.825 736.606 254.855 738.024 252.02C739.442 249.184 741.994 247.766 745.398 247.766C748.234 247.766 750.503 248.901 752.204 250.885C753.906 253.154 754.757 256.556 754.757 261.093C754.757 267.898 754.757 273.852 754.473 278.956C754.189 284.06 753.906 288.597 753.339 292.566H769.504C769.504 290.014 769.221 287.462 769.221 284.627C768.937 281.792 768.937 279.24 768.937 276.688ZM861.109 276.688C861.109 273.852 861.109 271.017 861.393 267.898C861.677 265.063 861.677 261.66 861.677 257.974C861.677 250.885 860.259 245.498 857.423 242.379C854.587 239.26 850.616 237.559 844.944 237.559C841.257 237.559 838.137 238.409 835.301 240.111C832.465 241.812 829.913 244.08 827.927 247.199H827.644L828.211 238.977H812.329C812.613 242.946 812.896 246.916 812.896 250.885C812.896 254.855 813.18 259.108 813.18 263.645V267.898C813.18 272.435 813.18 276.688 812.896 280.657C812.896 284.627 812.613 288.597 812.329 292.283H829.062C828.778 288.597 828.495 284.627 828.495 280.657C828.495 276.688 828.211 272.435 828.211 267.898V263.645C828.211 258.541 829.062 254.571 830.48 251.736C832.182 248.901 834.45 247.483 837.854 247.483C840.69 247.483 842.959 248.617 844.66 250.602C846.362 252.87 847.213 256.273 847.213 260.809C847.213 267.614 847.213 273.569 846.929 278.673C846.645 283.776 846.362 288.313 845.795 292.283H861.96C861.677 289.731 861.677 287.179 861.677 284.343C861.109 281.792 861.109 279.24 861.109 276.688ZM790.775 209.488C788.222 209.488 786.237 210.339 784.535 212.04C782.834 213.741 781.983 215.726 781.983 218.278C781.983 220.83 782.834 222.815 784.535 224.516C786.237 226.217 788.506 227.068 790.775 227.068C793.327 227.068 795.313 226.217 797.014 224.516C798.716 222.815 799.567 220.83 799.567 218.278C799.567 215.726 798.716 213.741 797.014 212.04C795.596 210.339 793.327 209.488 790.775 209.488ZM798.716 251.169C798.716 247.199 798.999 243.23 799.567 239.26H782.55C782.834 243.23 783.117 247.199 783.401 251.169C783.401 255.138 783.685 259.392 783.685 263.928V268.182C783.685 272.718 783.685 276.971 783.401 280.941C783.117 284.911 783.117 288.88 782.55 292.566H799.567C799.283 288.88 798.999 285.194 798.716 280.941C798.716 276.971 798.432 272.718 798.432 268.182V263.928C798.432 259.392 798.432 255.138 798.716 251.169ZM1114.94 284.06C1111.82 284.06 1109.83 283.493 1108.42 282.359C1107 281.225 1106.43 279.807 1106.43 278.106C1106.43 276.971 1106.71 276.121 1107.28 275.27C1107.85 274.419 1108.7 273.852 1109.55 273.852C1110.4 273.852 1111.53 273.852 1112.1 273.852C1112.95 273.852 1113.8 273.852 1114.65 273.852C1117.77 273.852 1120.89 273.285 1123.73 272.435C1126.28 271.584 1128.55 270.166 1130.54 268.749C1132.24 267.047 1133.66 265.346 1134.79 263.078C1135.64 260.809 1136.21 258.257 1136.21 255.706C1136.21 252.87 1135.64 250.602 1134.79 248.617C1133.66 246.632 1132.24 244.931 1130.54 243.513L1130.82 243.23L1140.18 243.797V238.409C1138.19 238.409 1136.49 238.409 1134.51 238.409C1132.52 238.409 1130.82 238.409 1128.83 238.409C1127.7 238.409 1126.57 238.409 1125.72 238.409C1124.58 238.409 1123.73 238.409 1122.6 238.126C1121.18 238.126 1119.76 237.842 1118.34 237.842C1116.92 237.842 1115.51 237.559 1114.09 237.559C1110.68 237.559 1107.28 237.842 1104.44 238.693C1101.61 239.544 1099.06 240.678 1097.07 242.096C1095.09 243.513 1093.67 245.498 1092.53 247.766C1091.4 250.035 1090.83 252.587 1090.83 255.139C1090.83 259.959 1091.97 263.645 1094.52 266.764C1096.79 269.599 1100.19 271.584 1105.01 272.718V273.002C1101.89 273.852 1099.34 275.554 1097.35 277.822C1095.65 280.09 1094.52 282.642 1094.52 284.911C1094.52 286.612 1094.8 288.313 1095.65 289.447C1096.5 290.581 1097.64 291.716 1099.34 292.283V292.566C1096.22 293.7 1094.23 295.402 1092.53 297.67C1090.83 299.938 1089.98 303.057 1089.98 306.46C1089.98 310.997 1091.97 314.683 1095.65 317.518C1099.34 320.07 1105.01 321.488 1112.1 321.488C1124.01 321.488 1141.03 316.951 1141.03 302.49C1140.46 288.03 1131.67 284.06 1114.94 284.06ZM1113.52 242.379C1115.51 242.379 1117.21 243.513 1118.63 245.498C1120.04 247.483 1120.61 251.169 1120.61 255.989C1120.61 261.093 1120.04 264.779 1118.91 266.764C1117.77 269.032 1115.79 269.883 1113.52 269.883C1112.67 269.883 1111.82 269.599 1110.97 269.316C1110.12 268.749 1109.27 268.181 1108.7 267.047C1108.13 265.913 1107.28 264.779 1107 263.078C1106.43 261.376 1106.43 259.392 1106.43 256.84C1105.86 247.199 1108.42 242.379 1113.52 242.379ZM1127.13 308.445C1126.57 309.862 1125.72 311.28 1124.58 312.131C1123.45 313.265 1122.03 314.116 1120.33 314.683C1118.63 315.25 1116.92 315.533 1114.94 315.533C1112.95 315.533 1111.25 315.25 1109.55 314.683C1107.85 314.116 1106.43 313.548 1105.3 312.414C1104.16 311.564 1103.03 310.146 1102.46 308.728C1101.61 307.311 1101.33 305.326 1101.33 303.341C1101.33 300.505 1101.89 298.237 1102.74 296.252C1103.59 294.551 1105.01 293.417 1105.86 293.133C1107.28 292.566 1109.27 291.716 1112.95 291.716C1115.22 291.716 1117.49 291.999 1119.48 291.999C1121.46 292.283 1122.88 292.85 1124.3 293.7C1125.72 294.551 1126.57 295.685 1127.42 297.103C1127.98 298.521 1128.55 300.505 1128.55 302.774C1128.27 305.326 1127.98 307.027 1127.13 308.445ZM994.405 237.842C986.18 237.842 979.374 240.394 974.552 245.214C969.731 250.035 967.179 256.84 967.179 265.063C967.179 269.599 967.746 273.569 969.164 277.255C970.582 280.941 972.284 284.06 974.836 286.612C977.389 289.164 980.225 291.149 983.628 292.283C986.748 293.417 990.434 294.268 994.121 294.268C997.808 294.268 1001.5 293.7 1004.61 292.283C1008.02 291.149 1010.85 289.164 1013.41 286.612C1015.96 284.06 1017.66 280.941 1019.08 277.255C1020.5 273.569 1021.06 269.599 1021.06 265.063C1021.06 256.556 1018.51 250.035 1013.69 245.214C1009.44 240.111 1002.63 237.842 994.405 237.842ZM994.405 289.447C987.598 289.447 984.195 280.657 984.195 263.361C984.195 256.84 985.046 251.736 986.464 248.333C988.166 244.647 990.718 242.946 994.405 242.946C998.092 242.946 1000.93 244.647 1002.35 248.333C1003.76 252.02 1004.61 256.84 1004.61 263.361C1004.61 280.657 1001.21 289.447 994.405 289.447ZM1080.34 276.688C1080.34 273.852 1080.34 271.017 1080.62 267.898C1080.91 265.063 1080.91 261.66 1080.91 257.974C1080.91 250.885 1079.49 245.498 1076.37 242.379C1073.25 239.26 1068.99 237.559 1063.32 237.559C1059.63 237.559 1056.52 238.409 1053.68 240.111C1050.84 241.812 1048.57 244.08 1046.59 247.199H1046.31L1046.87 238.977H1031.27C1031.56 242.946 1031.84 246.916 1032.12 250.885C1032.12 254.855 1032.41 259.108 1032.41 263.645V267.898C1032.41 272.435 1032.41 276.688 1032.12 280.657C1032.12 284.627 1031.84 288.597 1031.27 292.283H1047.72C1047.44 288.597 1047.16 284.627 1047.16 280.657C1047.16 276.688 1046.87 272.435 1046.87 267.898V263.645C1046.87 258.541 1047.72 254.571 1049.14 251.736C1050.56 248.901 1053.11 247.483 1056.52 247.483C1059.35 247.483 1061.62 248.617 1063.32 250.602C1065.02 252.87 1065.87 256.273 1065.87 260.809C1065.87 267.614 1065.87 273.569 1065.59 278.673C1065.31 283.776 1065.02 288.313 1064.46 292.283H1081.47C1081.19 289.731 1081.19 287.179 1081.19 284.343C1080.34 281.792 1080.34 279.24 1080.34 276.688ZM707.111 258.541C705.125 255.989 702.573 253.721 699.737 251.736C696.901 250.035 693.781 248.333 690.378 247.199C686.974 246.065 683.855 244.364 681.019 242.946C678.183 241.528 675.63 240.111 673.645 238.409C671.66 236.425 670.525 234.44 670.525 231.604C670.242 229.052 671.376 226.501 673.645 224.516C675.914 222.531 679.033 221.397 682.72 221.397C691.512 221.397 697.752 224.516 701.438 231.037H702.573L706.26 219.979C703.424 218.278 700.02 217.144 696.05 216.009C692.363 215.159 687.825 214.592 682.72 214.592C679.033 214.592 675.347 215.159 672.227 216.009C668.824 217.144 665.987 218.561 663.719 220.546C661.166 222.531 659.465 225.083 658.046 227.918C656.628 231.037 656.061 234.44 656.345 238.409C656.628 242.663 657.763 246.065 659.748 248.617C661.733 251.169 664.286 253.721 667.122 255.422C669.958 257.123 673.078 258.825 676.197 259.959C679.601 261.376 682.72 262.794 685.556 264.212C688.393 265.63 690.661 267.047 692.647 269.032C694.632 270.733 695.766 273.002 695.766 275.837C696.05 278.956 694.915 281.792 692.647 283.776C690.378 286.045 686.974 287.746 681.87 287.462C679.033 287.179 676.481 286.895 674.212 286.045C671.943 285.194 669.958 284.06 668.256 282.926C666.555 281.792 664.853 279.807 663.719 278.389C662.584 276.971 661.733 274.987 661.166 273.285H660.032L656.061 285.478C658.046 286.895 662.584 290.014 666.555 291.432C670.525 292.85 674.779 294.551 679.601 294.551C684.706 294.835 688.96 293.984 692.93 292.85C696.901 291.716 700.02 289.447 702.857 287.462C705.693 285.194 707.678 282.642 709.096 279.523C710.514 276.404 711.081 273.002 710.797 269.316C710.23 264.779 709.096 261.376 707.111 258.541Z" fill="white"/>
</svg>
