<svg xmlns="http://www.w3.org/2000/svg" width="134" height="70"><g fill="none" fill-rule="evenodd"><g fill-rule="nonzero"><path fill="#38D200" d="M34.498 54.818l-17.11-11.139s-2.146-1.233-2.638-3.532c-.69-3.227 1.585-5.993 1.585-5.993l22.207 14.463c1.713 1.117 2.18 3.401 1.08 5.124-1.131 1.768-3.456 2.158-5.124 1.077z"/><path fill="#0473EA" d="M18.29 31.766s-2.62-1.582-2.62-5.242c0-3.649 2.62-5.211 2.62-5.211l9.354-6.123a3.704 3.704 0 015.715 2.909 3.702 3.702 0 01-1.68 3.3l-7.882 5.133 13.434 8.748s2.417 1.386 2.894 3.724c.665 3.262-1.58 5.95-1.58 5.95L18.29 31.766z"/><path fill="#38D200" d="M35.898 22.884c-.879 0-1.503.277-2.113.674l-4.565 2.975 4.567 2.973c.615.397 1.261.675 2.113.675a3.65 3.65 0 000-7.297"/><path fill="#0473EA" d="M18.242 55.408c.879 0 1.504-.278 2.114-.673l4.566-2.975-4.566-2.974c-.616-.396-1.262-.674-2.114-.674a3.649 3.649 0 000 7.296"/><g fill="#525455"><path d="M55.715 44.802c.971 0 1.877-.263 2.585-.872v1.366c-.79.543-1.729.773-2.716.773-2.487 0-4.214-1.727-4.214-4.213 0-2.47 1.778-4.198 4.247-4.198.97 0 1.876.28 2.6.823v1.499c-.642-.691-1.53-1.054-2.518-1.054-1.728 0-2.946 1.202-2.946 2.93 0 1.729 1.234 2.946 2.962 2.946zm5.399 1.12h-1.333V35.236l1.333.824v3.13c.61-.936 1.58-1.531 2.814-1.531 2.041 0 3.128 1.498 3.128 3.49v4.775h-1.35V41.38c0-1.58-.691-2.42-2.107-2.42-1.497 0-2.486 1.284-2.486 2.897l.001 4.067zm14.221-1.383c-.675.955-1.712 1.53-2.979 1.53-2.37 0-4.066-1.76-4.066-4.163 0-2.452 1.695-4.247 4.066-4.247 1.267 0 2.304.593 2.979 1.564v-1.416h1.348v8.116h-1.35l.002-1.384zm-5.662-2.65c0 1.68 1.169 2.914 2.815 2.914 1.662 0 2.847-1.235 2.847-2.914 0-1.712-1.185-2.963-2.847-2.963-1.646 0-2.815 1.251-2.815 2.963zm10.419 4.033h-1.334v-8.115h1.334v1.728c.642-1.201 1.679-1.876 2.962-1.876v1.53c-1.613-.23-2.962.857-2.962 2.865v3.869zm16.623-3.539h-6.402c.197 1.465 1.35 2.436 2.962 2.436a4.953 4.953 0 002.897-.905v1.284a5.08 5.08 0 01-2.897.872c-2.55 0-4.377-1.646-4.377-4.132 0-2.437 1.547-4.28 4-4.28 2.337 0 3.867 1.728 3.867 4.05a4.5 4.5 0 01-.05.675zm-6.386-1.086h5.02c-.131-1.382-1.004-2.403-2.436-2.403-1.481 0-2.37 1.036-2.584 2.403zm9.234 4.625h-1.334v-8.115h1.334v1.728c.642-1.201 1.679-1.876 2.962-1.876v1.53c-1.613-.23-2.962.857-2.962 2.865v3.869zm10.88-3.539h-6.403c.197 1.465 1.35 2.436 2.962 2.436a4.953 4.953 0 002.897-.905v1.284a5.08 5.08 0 01-2.897.872c-2.55 0-4.377-1.646-4.377-4.132 0-2.437 1.547-4.28 4-4.28 2.337 0 3.868 1.728 3.868 4.05a4.5 4.5 0 01-.05.675zm-6.386-1.086h5.02c-.131-1.382-1.004-2.403-2.436-2.403-1.482 0-2.37 1.036-2.585 2.403zm14.389 3.231c-.659.971-1.712 1.564-2.98 1.564-2.37 0-4.065-1.761-4.065-4.164 0-2.452 1.695-4.247 4.066-4.247 1.267 0 2.32.61 2.979 1.597v-4.04l1.35.824v9.86h-1.35v-1.394zm-5.662-2.617c0 1.68 1.168 2.914 2.814 2.914 1.663 0 2.848-1.235 2.848-2.914 0-1.712-1.185-2.962-2.848-2.962-1.646 0-2.814 1.25-2.814 2.962zm-27.4 1.315c0 1.136.691 1.58 1.564 1.58.677.007 1.338-.2 1.89-.592v1.3c-.56.412-1.332.576-2.007.576-1.729 0-2.782-.774-2.782-2.962v-7.894l1.333.824.002 7.168z"/><path d="M87.54 37.702a1.03 1.03 0 10-1.121 1.726l.029.019c.338.216.77.216 1.109 0l1.326-.85-1.343-.896zm-33.388-4.6c.954 0 1.646-.412 1.646-1.153 0-.444-.23-.79-.84-1.037l-1.928-.774c-.987-.428-1.529-.986-1.529-2.04-.001-1.416 1.134-2.306 2.78-2.306.955 0 1.843.263 2.469.74v1.4c-.74-.659-1.646-1.037-2.452-1.037-.855 0-1.464.395-1.464 1.053 0 .494.23.79.872 1.037l1.926.774c1.037.444 1.514 1.07 1.514 1.942 0 1.547-1.25 2.502-3.011 2.502-1.07 0-2.041-.296-2.75-.823v-1.447c.856.806 1.811 1.168 2.766 1.168zm5.53-1.762c0 1.136.691 1.58 1.564 1.58a3.22 3.22 0 001.89-.592v1.3c-.56.411-1.332.576-2.007.576-1.728 0-2.782-.774-2.782-2.963v-7.074l1.333-.825.002 7.998zm10.912 1.333c-.674.955-1.711 1.531-2.978 1.531-2.37 0-4.066-1.761-4.066-4.164 0-2.452 1.695-4.247 4.066-4.247 1.267 0 2.304.593 2.978 1.564v-1.416h1.35v8.115h-1.35v-1.384zm-5.661-2.65c0 1.68 1.168 2.914 2.814 2.914 1.663 0 2.847-1.235 2.847-2.913 0-1.712-1.184-2.963-2.847-2.963-1.646 0-2.814 1.25-2.814 2.963zm10.42 4.033h-1.334v-8.115h1.334v1.383c.609-.938 1.58-1.53 2.814-1.53 2.041 0 3.128 1.497 3.128 3.489v4.773h-1.35v-4.544c0-1.58-.691-2.42-2.107-2.42-1.498 0-2.486 1.284-2.486 2.897v4.066zm14.218-1.416c-.658.971-1.711 1.564-2.979 1.564-2.37 0-4.065-1.761-4.065-4.164 0-2.452 1.695-4.247 4.065-4.247 1.268 0 2.321.61 2.979 1.597v-3.224l1.35-.824v10.714H89.57V32.64zm-5.66-2.616c0 1.678 1.168 2.913 2.814 2.913 1.662 0 2.847-1.235 2.847-2.913 0-1.712-1.185-2.963-2.847-2.963-1.646 0-2.815 1.25-2.815 2.963zm30.349 2.616c-.658.971-1.711 1.564-2.978 1.564-2.37 0-4.066-1.761-4.066-4.164 0-2.452 1.695-4.247 4.066-4.247 1.267 0 2.32.61 2.978 1.597v-3.224l1.35-.824v10.714h-1.35V32.64zm-5.66-2.616c0 1.678 1.168 2.913 2.814 2.913 1.663 0 2.848-1.235 2.848-2.913 0-1.712-1.185-2.963-2.848-2.963-1.646 0-2.814 1.25-2.814 2.963zm-9.185 2.649c-.675.955-1.712 1.531-2.979 1.531-2.37 0-4.065-1.761-4.065-4.164 0-2.452 1.695-4.247 4.065-4.247 1.267 0 2.304.593 2.979 1.564v-1.416h1.35v8.115h-1.35v-1.384zm-5.662-2.65c0 1.68 1.169 2.914 2.815 2.914 1.662 0 2.847-1.235 2.847-2.913 0-1.712-1.185-2.963-2.847-2.963-1.646 0-2.815 1.25-2.815 2.963zm10.419 4.033h-1.333v-8.115h1.333v1.728c.642-1.201 1.679-1.876 2.963-1.876v1.53c-1.614-.23-2.963.857-2.963 2.865v3.868z"/><path d="M61.562 27.671a1.028 1.028 0 101.116-1.73l-.028-.019a1.03 1.03 0 00-1.11.005l-1.323.853 1.345.89z"/></g></g><path d="M18.242 62.705c.878 0 1.503-.279 2.113-.674l4.567-2.974-4.567-2.974c-.616-.396-1.262-.675-2.113-.675a3.649 3.649 0 000 7.296"/><path d="M18.242 70c.878 0 1.503-.279 2.113-.674l4.567-2.974-4.567-2.974c-.616-.396-1.262-.674-2.113-.674a3.649 3.649 0 000 7.296M7.297 18.24c0 .878.278 1.503.673 2.112l2.975 4.567 2.974-4.567c.396-.615.673-1.261.673-2.113a3.648 3.648 0 10-7.296.001"/><path d="M0 18.24c0 .88.279 1.503.674 2.112L3.65 24.92l2.974-4.567c.396-.615.674-1.261.674-2.113a3.65 3.65 0 10-7.298 0m125.915 33.52c0-.878-.279-1.503-.674-2.113l-2.974-4.567-2.975 4.567c-.396.615-.673 1.262-.673 2.113a3.65 3.65 0 001.813 3.19 3.654 3.654 0 003.67 0 3.65 3.65 0 001.813-3.19"/><path d="M133.211 51.76c0-.878-.278-1.503-.674-2.113l-2.974-4.567-2.974 4.567c-.397.615-.674 1.262-.674 2.113a3.65 3.65 0 005.483 3.19 3.649 3.649 0 001.813-3.19M114.97 7.297c-.878 0-1.503.278-2.113.673l-4.566 2.975 4.566 2.974c.616.396 1.262.674 2.113.674a3.65 3.65 0 003.19-5.483 3.649 3.649 0 00-3.19-1.813"/><path d="M114.97 0c-.878 0-1.503.279-2.113.674l-4.566 2.975 4.566 2.974c.616.396 1.262.674 2.113.674a3.649 3.649 0 100-7.297"/></g></svg>