<?xml version="1.0" encoding="utf-8"?>
<!-- Generator: Adobe Illustrator 25.4.1, SVG Export Plug-In . SVG Version: 6.00 Build 0)  -->
<svg version="1.1" xmlns="http://www.w3.org/2000/svg" xmlns:xlink="http://www.w3.org/1999/xlink" x="0px" y="0px"
	 viewBox="0 0 3824 1652.5" style="enable-background:new 0 0 3824 1652.5;" xml:space="preserve">
<style type="text/css">
	.st0{fill:#38D200;}
	.st1{fill:#0473EA;}
	.st2{fill:#525355;}
</style>
<g id="Wordmark">
</g>
<g id="Trustmark">
	<g>
		<path class="st0" d="M811.8,1395.3l-491.3-319.9c0,0-61.6-35.4-75.7-101.4c-19.8-92.7,45.5-172.1,45.5-172.1L928,1217.2
			c49.2,32.1,62.6,97.6,31,147.1C926.5,1415.1,859.7,1426.3,811.8,1395.3z"/>
		<path class="st1" d="M346.5,733.4c0,0-75.3-45.4-75.3-150.5c0-104.8,75.2-149.6,75.2-149.6L615,257.4c49.2-32,115.1-18,147.1,31.2
			c32,49.2,18,115.1-31.2,147.1L504.5,583.1l385.7,251.2c0,0,69.4,39.8,83.1,106.9c19.1,93.7-45.4,170.9-45.4,170.9L346.5,733.4z"/>
		<path class="st0" d="M852,478.3c-25.2,0-43.2,8-60.7,19.4l-131.1,85.4l131.1,85.4c17.7,11.4,36.2,19.4,60.7,19.4
			c57.9,0,104.8-46.9,104.8-104.8C956.8,525.2,909.9,478.3,852,478.3"/>
		<path class="st1" d="M345.1,1412.2c25.2,0,43.2-8,60.7-19.4l131.1-85.4l-131.1-85.4c-17.7-11.4-36.2-19.4-60.7-19.4
			c-57.9,0-104.8,46.9-104.8,104.8C240.3,1365.3,287.2,1412.3,345.1,1412.2"/>
	</g>
	<g>
		<path class="st2" d="M3499.8,1104.7c-53.9,0-87.2,40.2-87.2,92.7c0,53.6,38.7,90.5,94.5,90.5c23.5,0,46-6.5,64.8-20.3v-22.1
			c-18.8,14.5-41.3,21.7-64.8,21.7c-40.2,0-67.3-25.7-71-62.3h147c0.4-3.6,0.7-7.2,0.7-10.9
			C3583.8,1142.8,3551.2,1104.7,3499.8,1104.7z M3436.5,1186.6c3.6-34.8,26.1-61.2,63.4-61.2c36.2,0,58.3,26.4,60.5,61.2H3436.5z"/>
		<g>
			<path class="st2" d="M1394.3,952.6c28.2,0,55-6.6,77.6-22.1v-39c-20.2,17.4-46.1,24.9-73.8,24.9c-49.4,0-84.6-34.8-84.6-84.1
				s34.8-83.7,84.1-83.7c28.2,0,53.6,10.3,71.9,30.1v-42.8c-20.7-15.5-46.5-23.5-74.3-23.5c-70.5,0-121.3,49.4-121.3,119.9
				C1273.9,903.2,1323.3,952.6,1394.3,952.6z"/>
			<path class="st2" d="M1683.4,818.6v129.7h38.5V812c0-56.9-31-99.7-89.3-99.7c-35.3,0-63,16.9-80.4,43.7l0-89.4l-38.1-23.5v305.2
				h38.1V832.2c0-46.1,28.2-82.7,71-82.7C1663.6,749.5,1683.4,773.5,1683.4,818.6z"/>
			<path class="st2" d="M1757.2,833.6c0,68.6,48.4,118.9,116.1,118.9c36.2,0,65.8-16.5,85.1-43.7v39.5h38.5V716.6h-38.5V757
				c-19.3-27.7-48.9-44.7-85.1-44.7C1805.6,712.3,1757.2,763.6,1757.2,833.6z M1877,748.5c47.5,0,81.3,35.7,81.3,84.6
				c0,47.9-33.8,83.2-81.3,83.2c-47,0-80.4-35.3-80.4-83.2C1796.6,784.3,1830,748.5,1877,748.5z"/>
			<path class="st2" d="M2056.1,716.6v231.7h38.1V837.9c0-57.3,38.5-88.4,84.6-81.8v-43.7c-36.7,0-66.3,19.3-84.6,53.6v-49.4H2056.1
				z"/>
			<path class="st2" d="M2570.4,828c0-66.3-43.7-115.6-110.5-115.6c-70,0-114.2,52.6-114.2,122.2c0,71,52.2,118,125,118
				c29.6,0,57.8-8,82.7-24.9V891c-24.4,17.4-53.1,25.9-82.7,25.9c-46.1,0-79-27.7-84.6-69.6H2569
				C2569.9,841.1,2570.4,834.6,2570.4,828z M2386.6,816.2c6.1-39,31.5-68.6,73.8-68.6c40.9,0,65.8,29.1,69.6,68.6H2386.6z"/>
			<path class="st2" d="M2650.3,765.9v-49.4h-38.1v231.7h38.1V837.9c0-57.3,38.5-88.4,84.6-81.8v-43.7
				C2698.2,712.3,2668.6,731.6,2650.3,765.9z"/>
			<path class="st2" d="M2862.8,952.6c29.6,0,57.8-8,82.7-24.9V891c-24.4,17.4-53.1,25.9-82.7,25.9c-46.1,0-79-27.7-84.6-69.6H2961
				c0.9-6.1,1.4-12.7,1.4-19.3c0-66.3-43.7-115.6-110.5-115.6c-70,0-114.2,52.6-114.2,122.2C2737.7,905.5,2789.9,952.6,2862.8,952.6
				z M2852.4,747.6c40.9,0,65.8,29.1,69.6,68.6h-143.4C2784.7,777.2,2810.1,747.6,2852.4,747.6z"/>
			<path class="st2" d="M2988.4,834.3c0,68.6,48.4,118.9,116.1,118.9c36.2,0,66.3-16.9,85.1-44.7l0,39.8h38.5l0-281.6l-38.5-23.5
				v115.4c-18.8-28.2-48.9-45.6-85.1-45.6C3036.8,713,2988.4,764.2,2988.4,834.3z M3189.6,833.8c0,47.9-33.8,83.2-81.3,83.2
				c-47,0-80.4-35.3-80.4-83.2c0-48.9,33.4-84.6,80.4-84.6C3155.7,749.2,3189.6,784.9,3189.6,833.8z"/>
			<path class="st2" d="M2207.3,643.1v225.4c0,62.5,30.1,84.6,79.4,84.6c19.3,0,41.4-4.7,57.3-16.5v-37.1
				c-16.5,11.8-35.3,16.9-54.1,16.9c-24.9,0-44.7-12.7-44.7-45.1V666.6L2207.3,643.1z"/>
			<path class="st2" d="M2306.9,713.6c-9.7-6.4-22.2-6.5-32-0.3c-18.2,11.5-18.2,38,0,49.6l0.8,0.5c9.7,6.2,22,6.1,31.7,0l37.9-24.3
				L2306.9,713.6z"/>
			<path class="st2" d="M1438.9,542.2c0-24.9-13.6-42.8-43.2-55.5l-55-22.1c-18.3-7-24.9-15.5-24.9-29.6c0-18.8,17.4-30.1,41.8-30.1
				c23,0,48.9,10.8,70,29.6v-40c-17.9-13.6-43.2-21.2-70.5-21.2c-47,0-79.4,25.4-79.4,65.8c0,30.1,15.5,46.1,43.7,58.3l55,22.1
				c17.4,7.1,24,16.9,24,29.6c0,21.2-19.7,32.9-47,32.9c-27.3,0-54.5-10.3-79-33.4v41.4c20.2,15,47.9,23.5,78.5,23.5
				C1403.2,613.7,1438.9,586.4,1438.9,542.2z"/>
			<path class="st2" d="M1552.7,613.7c19.3,0,41.4-4.7,57.3-16.5v-37.1c-16.5,11.8-35.3,16.9-54.1,16.9c-24.9,0-44.7-12.7-44.7-45.1
				V303.4l-38.1,23.6v202.1C1473.2,591.6,1503.3,613.7,1552.7,613.7z"/>
			<path class="st2" d="M1737.9,613.7c36.2,0,65.8-16.5,85.1-43.7v39.5h38.5V377.7H1823v40.4c-19.3-27.7-48.9-44.7-85.1-44.7
				c-67.7,0-116.1,51.2-116.1,121.3C1621.8,563.4,1670.2,613.7,1737.9,613.7z M1741.7,409.7c47.5,0,81.3,35.7,81.3,84.6
				c0,47.9-33.8,83.2-81.3,83.2c-47,0-80.4-35.3-80.4-83.2C1661.3,445.4,1694.6,409.7,1741.7,409.7z"/>
			<path class="st2" d="M1958.8,493.3c0-46.1,28.2-82.7,71-82.7c40.4,0,60.2,24,60.2,69.1v129.7h38.5V473.1
				c0-56.9-31-99.7-89.3-99.7c-35.3,0-63,16.9-80.4,43.7v-39.5h-38.1v231.7h38.1V493.3z"/>
			<path class="st2" d="M2279.9,613.7c36.2,0,66.3-16.9,85.1-44.7v40.4h38.5v-306L2365,327v92.1c-18.8-28.2-48.9-45.6-85.1-45.6
				c-67.7,0-116.1,51.2-116.1,121.3C2163.8,563.4,2212.2,613.7,2279.9,613.7z M2283.6,409.7c47.5,0,81.3,35.7,81.3,84.6
				c0,47.9-33.8,83.2-81.3,83.2c-47,0-80.4-35.3-80.4-83.2C2203.3,445.4,2236.6,409.7,2283.6,409.7z"/>
			<path class="st2" d="M2985,613.7c36.2,0,66.3-16.9,85.1-44.7v40.4h38.5v-306l-38.5,23.5v92.1c-18.8-28.2-48.9-45.6-85.1-45.6
				c-67.7,0-116.1,51.2-116.1,121.3C2868.9,563.4,2917.3,613.7,2985,613.7z M2988.8,409.7c47.5,0,81.3,35.7,81.3,84.6
				c0,47.9-33.8,83.2-81.3,83.2c-47,0-80.4-35.3-80.4-83.2C2908.4,445.4,2941.7,409.7,2988.8,409.7z"/>
			<path class="st2" d="M2561,613.7c36.2,0,65.8-16.5,85.1-43.7v39.5h38.5V377.7h-38.5v40.4c-19.3-27.7-48.9-44.7-85.1-44.7
				c-67.7,0-116.1,51.2-116.1,121.3C2444.9,563.4,2493.3,613.7,2561,613.7z M2564.7,409.7c47.5,0,81.3,35.7,81.3,84.6
				c0,47.9-33.8,83.2-81.3,83.2c-47,0-80.4-35.3-80.4-83.2C2484.4,445.4,2517.7,409.7,2564.7,409.7z"/>
			<path class="st2" d="M2781.9,499c0-57.3,38.5-88.4,84.6-81.8v-43.7c-36.7,0-66.3,19.3-84.6,53.6v-49.4h-38.1v231.7h38.1V499z"/>
			<path class="st2" d="M1597,427.3c18.1-11.6,18.1-38.1-0.1-49.6l-0.8-0.5c-9.7-6.1-22-6.1-31.7,0.1l-37.8,24.4l38.4,25.4
				C1574.7,433.4,1587.2,433.5,1597,427.3z"/>
			<path class="st2" d="M1303.6,1243.8c12.3,26.8,38,44.2,70.6,44.2c51.4,0,88.7-38.7,88.7-92c0-52.5-37.3-91.2-88.7-91.2
				c-32.6,0-58.3,17.4-70.6,44.2v-41.3h-22.4v241.7h22.4V1243.8z M1372,1126.1c39.8,0,67.7,29.7,67.7,70.2
				c0,40.9-27.9,70.6-67.7,70.6c-39.8,0-68.4-29.7-68.4-70.6C1303.6,1155.8,1332.2,1126.1,1372,1126.1z"/>
			<path class="st2" d="M1500.9,1107.6V1285h22.4v-85.4c0-46,31.1-73.1,66.6-69.5v-25.3c-29.7,0-54.3,18.5-66.6,48.5v-45.6H1500.9z"
				/>
			<rect x="1619.2" y="1107.6" class="st2" width="22.8" height="177.4"/>
			<path class="st2" d="M1639.5,1051.5c-3.3-2.2-6.5-3.3-10.5-3.3c-8.7,0-15.2,7.2-15.2,15.9c0,8.3,6.5,15.6,15.2,15.6
				c4,0,7.2-1.4,10.5-3.6l17.4-12.3L1639.5,1051.5z"/>
			<path class="st2" d="M1772.7,1287.9c53.2,0,90.9-38.7,90.9-92c0-52.9-37.6-91.2-90.9-91.2c-53.6,0-92,38.7-92,91.2
				C1680.8,1249.2,1719.2,1287.9,1772.7,1287.9z M1772.4,1126.1c39.8,0,68.1,29.7,68.1,70.2c0,40.9-28.2,70.6-68.1,70.6
				c-40.2,0-68.4-29.7-68.4-70.6C1704,1155.8,1732.2,1126.1,1772.4,1126.1z"/>
			<path class="st2" d="M1902.7,1107.6V1285h22.4v-85.4c0-46,31.1-73.1,66.6-69.5v-25.3c-29.7,0-54.3,18.5-66.6,48.5v-45.6H1902.7z"
				/>
			<rect x="2021.1" y="1107.6" class="st2" width="22.8" height="177.4"/>
			<path class="st2" d="M2049.6,1064.2c0-8.7-6.5-15.9-15.2-15.9c-4,0-7.2,1.1-10.5,3.3l-17.4,12.3l17.4,12.3
				c3.3,2.2,6.5,3.6,10.5,3.6C2043.1,1079.8,2049.6,1072.5,2049.6,1064.2z"/>
			<path class="st2" d="M2152.5,1287.9c11.8,0,25.9-2.7,37.5-8.6v-21.6c-11.4,6.1-24.1,8.8-35.3,8.8c-22.1,0-38-10.9-38-38v-99.9
				h67.2v-21h-67.2v-57.9h-22.1v177C2094.6,1271.3,2116.6,1287.9,2152.5,1287.9z"/>
			<polygon class="st2" points="2380.2,1107.6 2356.6,1107.6 2295.5,1233.6 2231,1107.6 2204.6,1107.6 2283.2,1259 2239.7,1349.3 
				2263.3,1349.3 			"/>
			<path class="st2" d="M2514.8,1243.8c12.3,26.8,38,44.2,70.6,44.2c51.4,0,88.7-38.7,88.7-92c0-52.5-37.3-91.2-88.7-91.2
				c-32.6,0-58.3,17.4-70.6,44.2v-41.3h-22.4v241.7h22.4V1243.8z M2583.3,1126.1c39.8,0,67.7,29.7,67.7,70.2
				c0,40.9-27.9,70.6-67.7,70.6s-68.4-29.7-68.4-70.6C2514.8,1155.8,2543.4,1126.1,2583.3,1126.1z"/>
			<path class="st2" d="M2801.2,1130.1v-25.3c-29.7,0-54.3,18.5-66.6,48.5v-45.6h-22.4V1285h22.4v-85.4
				C2734.6,1153.6,2765.7,1126.5,2801.2,1130.1z"/>
			<rect x="2830.5" y="1107.6" class="st2" width="22.8" height="177.4"/>
			<path class="st2" d="M2850.8,1051.5c-3.3-2.2-6.5-3.3-10.5-3.3c-8.7,0-15.2,7.2-15.2,15.9c0,8.3,6.5,15.6,15.2,15.6
				c4,0,7.2-1.4,10.5-3.6l17.4-12.3L2850.8,1051.5z"/>
			<polygon class="st2" points="2974.6,1243 2910.5,1107.6 2884.4,1107.6 2973.5,1290.5 3062.5,1107.6 3038.3,1107.6 			"/>
			<path class="st2" d="M3228.7,1148.9c-12.7-26.8-38-44.2-70.6-44.2c-51.8,0-88.7,38.7-88.7,92.3c0,52.5,36.9,90.9,88.7,90.9
				c32.6,0,57.9-17,70.6-43.8v40.9h22.4v-177.4h-22.4V1148.9z M3160.3,1266.9c-39.8,0-67.7-29.7-67.7-70.2
				c0-40.9,27.9-70.6,67.7-70.6c39.8,0,68.4,29.7,68.4,70.6C3228.7,1237.2,3200.1,1266.9,3160.3,1266.9z"/>
			<path class="st2" d="M3358.4,1287.9c11.8,0,25.9-2.7,37.5-8.6v-21.6c-11.4,6.1-24.1,8.8-35.3,8.8c-22.1,0-38-10.9-38-38v-99.9
				h67.2v-21h-67.2v-57.9h-22.1v177C3300.5,1271.3,3322.6,1287.9,3358.4,1287.9z"/>
		</g>
	</g>
</g>
</svg>
