<?xml version="1.0" encoding="utf-8"?>
<!-- Generator: Adobe Illustrator 27.8.1, SVG Export Plug-In . SVG Version: 6.00 Build 0)  -->
<svg version="1.1" id="b" xmlns="http://www.w3.org/2000/svg" xmlns:xlink="http://www.w3.org/1999/xlink" x="0px" y="0px"
	 viewBox="0 0 258 251.5" style="enable-background:new 0 0 258 251.5;" xml:space="preserve">
<style type="text/css">
	.st0{fill:#8F7C47;}
	.st1{font-family:'HelveticaNeue-Medium';}
	.st2{font-size:8.5187px;}
	.st3{font-size:8.5184px;}
	.st4{font-size:8.519px;}
	.st5{fill:#97694C;}
	.st6{font-size:7.7381px;}
	.st7{font-size:7.7375px;}
	.st8{font-size:7.7378px;}
	.st9{font-size:7.7374px;}
	.st10{fill-rule:evenodd;clip-rule:evenodd;fill:#97694C;}
	.st11{fill-rule:evenodd;clip-rule:evenodd;fill:#8F7C47;}
	.st12{fill:url(#SVGID_1_);}
</style>
<text transform="matrix(0.3665 0.9304 -0.9304 0.3665 90.6802 164.5079)" class="st0 st1 st2">W</text>
<text transform="matrix(0.4741 0.8805 -0.8805 0.4741 94.3724 173.4541)" class="st0 st1 st2">E</text>
<text transform="matrix(0.5563 0.831 -0.831 0.5563 97.7075 179.4169)" class="st0 st1 st2">L</text>
<text transform="matrix(0.6307 0.776 -0.776 0.6307 101.3288 184.7403)" class="st0 st1 st2">F</text>
<text transform="matrix(0.6984 0.7157 -0.7157 0.6984 105.1613 189.4262)" class="st0 st1 st2">A</text>
<text transform="matrix(0.7694 0.6388 -0.6388 0.7694 110.2727 194.6077)" class="st0 st1 st2">R</text>
<text transform="matrix(0.831 0.5563 -0.5563 0.831 116.165 199.2926)" class="st0 st1 st2">E</text>
<text transform="matrix(0.9085 0.4179 -0.4179 0.9085 125.18 204.9007)" class="st0 st1 st2">C</text>
<text transform="matrix(0.95 0.3123 -0.3123 0.95 132.2785 208.0954)" class="st0 st1 st2">O</text>
<text transform="matrix(0.9813 0.1925 -0.1925 0.9813 140.0174 210.5813)" class="st0 st1 st2">M</text>
<text transform="matrix(0.9981 6.105067e-02 -6.105067e-02 0.9981 149.0324 212.2121)" class="st0 st1 st3">M</text>
<text transform="matrix(0.9996 -2.966505e-02 2.966505e-02 0.9996 158.1197 212.5677)" class="st0 st1 st4">I</text>
<text transform="matrix(0.9947 -0.1028 0.1028 0.9947 161.9518 212.496)" class="st0 st1 st2">T</text>
<text transform="matrix(0.9806 -0.1959 0.1959 0.9806 168.4825 211.7147)" class="st0 st1 st2">T</text>
<text transform="matrix(0.9573 -0.289 0.289 0.9573 174.8724 210.3672)" class="st0 st1 st2">E</text>
<text transform="matrix(0.9239 -0.3827 0.3827 0.9239 181.4756 208.3104)" class="st0 st1 st2">E</text>
<text transform="matrix(0.9888 -0.1495 0.1495 0.9888 78.0417 44.1076)" class="st5 st1 st6">S</text>
<text transform="matrix(0.9981 -6.105067e-02 6.105067e-02 0.9981 83.935 43.2602)" class="st5 st1 st7">T</text>
<text transform="matrix(0.9998 1.919745e-02 -1.919745e-02 0.9998 88.762 42.9737)" class="st5 st1 st8">A</text>
<text transform="matrix(0.9932 0.1167 -0.1167 0.9932 94.8685 43.1178)" class="st5 st1 st6">R</text>
<text transform="matrix(0.9781 0.2079 -0.2079 0.9781 101.1864 43.9703)" class="st5 st1 st9">L</text>
<text transform="matrix(0.9542 0.299 -0.299 0.9542 106.508 45.1029)" class="st5 st1 st9">U</text>
<text transform="matrix(0.9198 0.3923 -0.3923 0.9198 112.6854 47.0928)" class="st5 st1 st7">X</text>
<text transform="matrix(0.8545 0.5195 -0.5195 0.8545 120.922 50.927)" class="st5 st1 st8">E</text>
<text transform="matrix(0.7944 0.6074 -0.6074 0.7944 125.8889 53.9785)" class="st5 st1 st8">M</text>
<text transform="matrix(0.723 0.6909 -0.6909 0.723 132.0645 58.8049)" class="st5 st1 st6">P</text>
<text transform="matrix(0.6587 0.7524 -0.7524 0.6587 136.3955 63.0642)" class="st5 st1 st8">L</text>
<text transform="matrix(0.5835 0.8121 -0.8121 0.5835 139.946 67.111)" class="st5 st1 st8">O</text>
<text transform="matrix(0.4985 0.8669 -0.8669 0.4985 143.8512 72.7213)" class="st5 st1 st8">Y</text>
<text transform="matrix(0.4163 0.9092 -0.9092 0.4163 146.8322 77.9025)" class="st5 st1 st8">E</text>
<text transform="matrix(0.3305 0.9438 -0.9438 0.3305 149.1726 83.1534)" class="st5 st1 st8">E</text>
<path id="c" class="st0" d="M222.5,209.7c-8.8,0-16-7.2-16-16s7.2-16,16-16c8.8,0,16,7.2,16,16S231.3,209.7,222.5,209.7z
	 M222.5,186.3c-4.1,0-7.5,3.3-7.5,7.5c0,4.1,3.3,7.5,7.5,7.5s7.5-3.3,7.5-7.5S226.6,186.3,222.5,186.3z"/>
<path id="d" class="st5" d="M25.2,72.7c-8.8,0-16-7.1-16-16s7.2-16,16-16s16,7.2,16,16S34,72.7,25.2,72.7z M25.2,49.3
	c-4.1,0-7.5,3.3-7.5,7.5s3.3,7.5,7.5,7.5s7.5-3.3,7.5-7.5S29.3,49.3,25.2,49.3z"/>
<path id="e" class="st10" d="M70.7,164c-24-8.1-41.3-30.8-41.3-57.5s27.2-60.8,60.7-60.8s42.2,12.3,52.7,30.5c1.6,2.7,2.9,5.5,4,8.4
	c0.4,1,0.7,1.9,1.1,2.9H87c-8.6,0-15.6,7-15.6,15.6s7,15.6,15.6,15.6h73.5c14.9,0,27,12.1,27,27s-12.1,27-27,27h-42.2
	c9,11.6,23.1,19.2,39,19.2c27.3,0,49.3-22.1,49.3-49.3s-14.1-40.3-33.8-46.9l3.8-10.7c24,8.1,41.3,30.8,41.3,57.5
	s-27.2,60.7-60.7,60.7S115,191,104.5,172.7c-1.6-2.7-2.9-5.5-4-8.4c-0.4-1-0.7-1.9-1.1-2.9h60.9c8.7,0,15.6-7,15.6-15.6
	s-7-15.6-15.6-15.6H86.8c-14.9,0-27-12.1-27-27s12.1-27,27-27H129C120,64.6,105.9,57,90,57c-27.3,0-49.3,22.1-49.3,49.3
	s14.1,40.3,33.8,46.9L70.7,164L70.7,164z"/>
<g id="f">
	<path class="st11" d="M176.6,85.1l-3.8,10.7c19.6,6.5,33.8,25,33.8,46.9S184.5,192,157.3,192s-30-7.5-39-19.2h42.2
		c14.9,0,27-12.1,27-27s-12.1-27-27-27h-32.7l-7.4,11.4h40.1c8.7,0,15.6,7,15.6,15.6c0,8.7-7,15.6-15.6,15.6h-60.3l-0.4,0.6
		c0.3,0.8,0.5,1.6,0.9,2.3c1.1,2.9,2.5,5.8,4,8.4c10.4,18.2,30.2,30.5,52.7,30.5c33.5,0,60.7-27.2,60.7-60.7S200.6,93.3,176.6,85.1
		L176.6,85.1z"/>
	
		<linearGradient id="SVGID_1_" gradientUnits="userSpaceOnUse" x1="86.3447" y1="666.6784" x2="160.5282" y2="674.4872" gradientTransform="matrix(1 0 0 1 0 -546)">
		<stop  offset="0" style="stop-color:#97694C"/>
		<stop  offset="1" style="stop-color:#8F7C47"/>
	</linearGradient>
	<rect x="86.3" y="118.9" class="st12" width="74.6" height="11.4"/>
</g>
</svg>
