<svg width="205" height="157" viewBox="0 0 205 157" fill="none" xmlns="http://www.w3.org/2000/svg">
<path d="M63.7631 48.5067C101.631 31.0119 140.011 25.7104 169.691 32.0721C166.621 30.4817 163.039 27.831 160.992 24.1199C155.363 14.0471 145.128 7.68537 132.847 9.27581C127.729 9.80596 122.612 8.74567 119.542 6.09493C114.936 2.91405 109.819 0.793457 103.678 0.793457C97.5373 0.793457 92.42 2.91405 87.8144 6.09493C84.744 8.21552 79.6267 9.80596 74.5095 9.27581C62.228 7.68537 51.4816 14.0471 46.3643 24.1199C43.8057 28.8913 39.7119 31.542 35.618 33.1324V33.1324C25.8952 36.8435 17.7075 45.856 16.684 57.5192C16.1723 63.3508 13.1019 67.592 10.5433 70.2428C3.8908 77.1347 1.33215 85.0869 1.33215 93.0391V93.5692C16.684 76.0744 38.1767 60.17 63.7631 48.5067Z" fill="url(#paint0_linear_755_785)"/>
<path d="M27.4296 124.318C43.805 104.173 67.8563 85.0876 97.0248 71.3037C129.264 56.4596 162.014 50.0978 189.648 52.7486C187.089 43.2059 180.437 35.7839 171.737 32.603V32.603C171.226 32.603 170.714 32.0728 169.69 32.0728C140.01 25.7111 101.63 31.0125 63.7624 48.5074C38.176 60.1706 16.6833 76.0751 0.819702 93.0398C1.33143 108.944 12.5895 122.198 27.4296 124.318Z" fill="#009043"/>
<path d="M27.4296 124.318C43.805 104.173 67.8563 85.0876 97.0248 71.3037C129.264 56.4596 162.014 50.0978 189.648 52.7486C187.089 43.2059 180.437 35.7839 171.737 32.603V32.603C171.226 32.603 170.714 32.0728 169.69 32.0728C140.01 25.7111 101.63 31.0125 63.7624 48.5074C38.176 60.1706 16.6833 76.0751 0.819702 93.0398C1.33143 108.944 12.5895 122.198 27.4296 124.318Z" fill="url(#paint1_linear_755_785)"/>
<path d="M97.0253 71.3025C67.8567 85.0863 43.8054 103.641 27.4301 124.317C28.9652 124.317 29.9887 124.847 31.5239 124.847H75.5326C79.6265 124.847 83.2086 128.558 83.2086 132.8V134.39C83.2086 141.812 76.0444 142.872 76.0444 142.872L40.2233 149.234C39.1998 149.234 37.6646 150.294 37.6646 151.885V156.656H168.156V151.885C168.156 150.825 167.132 149.234 165.597 149.234L129.776 142.872C129.776 142.872 122.612 141.812 122.612 134.39V132.8C122.612 128.558 126.194 124.847 130.288 124.847H174.296C191.183 124.847 205 110.533 205 93.0385C205 85.0863 202.442 77.1341 195.789 70.2422C193.23 67.5914 190.16 63.3503 189.648 57.5186C189.648 55.9282 189.137 54.3378 189.137 53.2775C162.527 50.6267 129.776 56.4583 97.0253 71.3025Z" fill="#009043"/>
<defs>
<linearGradient id="paint0_linear_755_785" x1="16.1672" y1="-32.4133" x2="-17.0259" y2="107.429" gradientUnits="userSpaceOnUse">
<stop stop-color="#6FBA2C"/>
<stop offset="0.3125" stop-color="#30A938"/>
<stop offset="0.7712" stop-color="#009641"/>
<stop offset="1" stop-color="#009043"/>
</linearGradient>
<linearGradient id="paint1_linear_755_785" x1="11.8386" y1="-38.5688" x2="-20.7052" y2="126.486" gradientUnits="userSpaceOnUse">
<stop stop-color="#45B035"/>
<stop offset="0.27" stop-color="#00A13D"/>
<stop offset="0.5437" stop-color="#009741"/>
<stop offset="0.7948" stop-color="#009243"/>
<stop offset="1" stop-color="#009043"/>
</linearGradient>
</defs>
</svg>
