<svg width="120" height="31" viewBox="0 0 120 31" fill="none" xmlns="http://www.w3.org/2000/svg">
<g clip-path="url(#clip0_98_2087)">
<path d="M46.3855 27.7221H44.543V25.0185H42.138V27.7221H40.3096V20.8301H42.138V23.4216H44.543V20.8301H46.3855V27.7221Z" fill="white"/>
<path d="M53.5025 20.8301V25.4248C53.5025 27.2598 52.6305 27.7781 50.6052 27.7781C47.8344 27.7781 47.5391 27.0777 47.5391 25.4248V20.8301H49.3815V25.3828C49.3815 26.1672 49.8175 26.1812 50.5911 26.1812C51.3647 26.1812 51.646 26.1112 51.646 25.3127V20.8441H53.4884L53.5025 20.8301Z" fill="white"/>
<path d="M56.2166 26.5314L55.879 27.7221H53.9521L56.0337 20.8301H58.8326L60.9423 27.7221H59.0576L58.6919 26.5314H56.2166ZM57.4683 22.2029H57.4543L56.6244 25.1866H58.3403L57.4824 22.2029H57.4683Z" fill="white"/>
<path d="M66.5686 27.7221H64.7261V20.8301H67.8484L69.8316 26.1252H69.9019L69.7894 20.8301H71.6318V27.7221H68.4954L66.5404 22.427H66.456L66.5686 27.7221Z" fill="white"/>
<path d="M74.3323 26.5314L73.9807 27.7221H72.0679L74.1354 20.8301H76.9343L79.044 27.7221H77.1593L76.8077 26.5314H74.3182H74.3323ZM75.584 22.2029H75.57L74.7261 25.1866H76.442L75.584 22.2029Z" fill="white"/>
<path d="M81.3503 27.7221H79.5078V20.8301H82.6302L84.6133 26.1252H84.6836L84.5711 20.8301H86.4136V27.7221H83.2772L81.3222 22.427H81.2518L81.3503 27.7221Z" fill="white"/>
<path d="M90.8579 20.8301H94.5007C95.8649 20.8301 96.6807 21.0963 96.6807 22.5951C96.6807 23.4636 96.5119 24.038 95.5977 24.1921V24.2621C96.6104 24.3181 96.7932 24.9345 96.7932 25.803C96.7932 27.498 96.0056 27.7221 94.5429 27.7221H90.872V20.8301H90.8579ZM92.7004 23.5897H94.0225C94.6694 23.5897 94.8242 23.4776 94.8242 22.9173C94.8242 22.5111 94.7679 22.343 94.2475 22.329H92.7004V23.5897ZM92.7004 26.2092H94.0928C94.6976 26.2092 94.9367 26.0691 94.9367 25.5088C94.9367 24.9485 94.7257 24.8645 94.1209 24.8645H92.7004V26.2092Z" fill="white"/>
<path d="M99.2547 26.5314L98.9172 27.7221H97.0044L99.086 20.8301H101.885L103.995 27.7221H102.11L101.758 26.5314H99.2688H99.2547ZM100.507 22.2029L99.6626 25.1866H101.379L100.521 22.2029H100.507Z" fill="white"/>
<path d="M106.273 27.7221H104.431V20.8301H107.539L109.536 26.1252H109.606L109.494 20.8301H111.336V27.7221H108.186L106.231 22.427H106.161L106.273 27.7221Z" fill="white"/>
<path d="M114.332 23.4216H114.881L116.667 20.8301H118.903L116.47 24.2061L119.1 27.7081H116.808L114.881 25.0045H114.332V27.7081H112.49V20.8161H114.332V23.4076V23.4216Z" fill="white"/>
<path d="M54.1772 10.6602H51.2517L50.8579 10.5061V10.1139L51.1814 9.83372L51.7721 9.74967L52.1659 9.55356L52.3207 9.20335L52.405 8.81112L52.3207 8.4189H51.3783L51.2517 8.13873L50.9845 7.74651L50.3938 7.46634L49.7609 7.66246L49.4796 8.36286L47.6231 8.32084L47.5809 7.52238L47.9747 7.5644L48.6498 7.52238L49.3671 7.45234L49.8453 7.17217L50.0422 6.77995L49.9156 6.34569L50 6.14958L50.2813 5.95347L50.6329 5.44917H51.0267L52.0956 5.36512L52.5316 4.93087L52.7285 4.30051L52.1378 3.99233L50.872 3.79621L50.9142 3.05378L50.9423 2.53548L50.3938 2.0592H49.6484L49.2546 2.68957L49.0155 3.79621L47.8621 3.83824L47.2292 3.88026L46.7088 4.55265L46.7792 5.02893L47.4121 5.30909C47.4121 5.30909 48.5232 5.22504 48.6357 5.22504C48.7482 5.22504 49.0717 5.46318 49.0717 5.46318L49.1842 6.0095L48.9029 6.28966L47.834 6.33168L47.0886 6.24764L46.4557 5.96747L46.09 6.24764L43.9522 6.1776L43.9803 5.89743L44.2616 5.57525L44.571 5.22504H45.0914L45.4852 5.11298L45.7665 4.72075L45.879 4.30051L45.4008 3.90828L44.8523 3.86625L44.3319 3.62811L44.2475 3.0818L43.9662 2.60552L43.5724 2.21329L42.9817 2.17127L42.5457 2.60552L42.5035 3.58609L42.0675 3.67014C42.0675 3.67014 41.4768 3.71216 41.3643 3.74018C41.2517 3.7822 40.8579 4.14642 40.8579 4.14642L40.6188 4.53864L40.6892 5.08496L41.2517 5.39314H41.8847L42.5598 5.3231L42.7145 5.51921L43.1083 5.82739L43.474 5.98148C43.474 5.98148 43.3896 6.26164 43.2771 6.30367C43.1505 6.34569 42.9254 6.65387 42.9254 6.65387L42.9958 7.48035L42.5176 7.43833L42.0112 7.67647L41.7721 8.34886L41.1392 8.54497L40.661 9.67963L41.1674 10.0018H42.1659L42.0394 10.6322L40.8579 10.7583L39.8171 10.9964C39.8171 10.9964 39.1842 11.2345 38.9451 11.7528C38.706 12.2711 38.9451 12.4532 38.9451 12.4532L39.6202 13.1256L40.6892 13.3217L41.3643 12.6634L42.4613 12.3412C42.4613 12.3412 44.4444 11.991 44.5569 11.991C44.6695 11.991 45.5837 12.117 45.5837 12.117L45.6681 12.6634L45.1055 12.7754H43.3614C43.2489 12.7754 42.7285 13.2517 42.7285 13.2517L42.6863 13.9941L43.2771 14.2743H45.654L45.7384 16.3615L45.7665 16.9919L45.8368 17.4261L46.2728 17.5802H46.7932L47.187 17.1179L47.3418 16.5996L47.3839 15.8152L47.3418 14.9467L47.4543 14.1622L47.8903 14.1202C47.8903 14.1202 48.5654 14.2323 48.7201 14.2323C48.8748 14.2323 49.353 14.3583 49.353 14.3583L49.9859 14.3163L50.3797 13.798L50.2672 13.1256L49.6765 12.9715L48.8889 12.8595L47.5809 12.8174L47.5387 12.2291H49.0014L49.9437 12.3412L50.6892 12.5373L51.4487 12.7754L52.2363 13.0556L52.9536 12.9715L53.5443 12.6494L54.0647 12.061L54.2616 11.3886L54.1069 10.6742L54.1772 10.6602ZM44.2897 7.52238L44.8101 7.59242L45.5977 7.67647L45.7103 8.11072L45.5555 8.39088H45.007L44.2897 8.43291L43.8115 8.27881L43.7693 7.69047L44.2757 7.52238H44.2897ZM45.6399 10.6322C45.6399 10.6322 45.3586 10.6742 45.1617 10.7162C44.9648 10.7583 44.4444 10.7162 44.4444 10.7162L43.8537 10.6742L43.8256 10.1699L43.9803 9.81971L44.6554 9.69364L45.3164 9.58157L45.6399 9.81971L45.8087 10.296L45.6399 10.6462V10.6322ZM49.2827 10.282L49.0436 10.6742H47.8903L47.609 10.6042L47.5246 10.2119L47.609 9.81971L48.0872 9.77769L49.0858 9.73566L49.3108 9.9738L49.2686 10.282H49.2827Z" fill="white"/>
<path d="M70.1265 6.14957L71.5893 6.5418C71.5893 6.5418 72.8551 6.892 73.052 6.93402C73.2489 6.97605 73.7271 7.0601 73.924 7.01807C74.1209 6.97605 74.5569 6.62584 74.5569 6.62584L75.5414 5.32309L75.3023 4.91685H74.1912L71.7862 4.84681L69.0998 4.73475V3.83823C69.0998 3.83823 68.5091 3.16583 68.0731 3.12381C67.6371 3.08179 66.8354 3.12381 66.8354 3.12381L66.5682 3.53005L66.5119 4.62268C66.5119 4.62268 61.8846 4.30049 61.4627 4.45458C61.0267 4.62268 60.2812 5.40714 60.2812 5.40714L60.436 6.19159L60.8016 6.62584L61.3924 7.01807L61.8706 6.77993C61.8706 6.77993 62.5035 6.34568 62.6582 6.38771C62.8129 6.42973 64.1631 6.23362 64.1631 6.23362L65.1898 6.0375H66.3291L66.8354 6.23362L66.962 7.01807L66.6807 7.34026L66.2447 7.25621C66.2447 7.25621 66.0478 7.10212 65.9353 7.0601C65.8087 7.01807 65.5274 6.97605 65.5274 6.97605L64.782 7.4103L64.2334 7.60641L63.6427 7.4103L63.0098 7.34026L62.3769 7.62042L62.0112 8.05467L62.0534 10.5761L62.5738 15.3109L62.9676 15.7031L63.5161 15.507L63.9521 15.2829L63.9943 13.5038L66.7229 13.5459L66.8776 14.9187L66.962 15.7872L67.2011 16.5716C67.2011 16.5716 67.5527 16.5296 67.6793 16.5296C67.8059 16.5296 68.2841 16.3615 68.2841 16.3615L68.481 15.7311L68.6357 14.9467L68.7201 13.5319L71.2517 13.4478L71.8424 13.0136L71.8846 13.798C71.8846 13.798 71.7721 14.5825 71.8143 14.7786C71.8565 14.9747 71.6877 15.6891 71.6877 15.6891C71.6877 15.6891 71.969 16.1934 72.0815 16.1934C72.194 16.1934 73.1083 15.8852 73.1083 15.8852L73.4317 14.9747L73.699 13.6299L74.1772 8.51694L73.5302 7.84455L72.6301 7.80253H71.0126L70.225 7.38228H69.5921L68.6779 7.25621L68.6357 6.82196L69.0295 6.10754L70.1406 6.14957H70.1265ZM63.8818 10.0859L63.8396 9.60958L63.8818 9.34342L63.9099 9.03524L64.585 8.90917L65.007 9.18933L65.443 9.77767L65.007 9.84772L64.4585 9.88974L64.0225 10.1279L63.8677 10.0859H63.8818ZM66.7932 12.103C66.7932 12.103 66.2447 12.2291 66.1181 12.2571C66.0056 12.2991 64.9789 12.3412 64.9789 12.3412L64.1912 12.3832L64.0365 12.103V11.5567L64.0787 11.2765L65.1054 11.3466H66.8073V12.103H66.7932ZM70.2812 9.37144L70.6751 8.89516L71.2236 8.93719L71.8987 9.06326L71.9831 9.58156L71.9549 10.0859L71.5189 10.1279L70.4922 10.0438L70.0562 9.84772L70.2953 9.37144H70.2812ZM69.8874 11.4306L70.8016 11.4727L71.4767 11.3886L71.9831 11.1505L72.0253 11.6968L71.8987 12.4112L71.3502 12.145L68.8185 12.061L68.7482 11.3886L69.0998 11.3046L69.9015 11.4306H69.8874ZM68.7482 8.71306L68.706 9.14731L68.3825 9.66561L68.0731 9.97379L67.6652 10.0158L67.1589 9.94577L66.9198 9.31541L66.8073 8.68504L67.2433 8.64302L67.7215 8.60099H68.4388L68.7623 8.71306H68.7482Z" fill="white"/>
<path d="M97.9467 14.7646C95.7526 13.4478 93.8961 10.7722 93.8961 10.7722L93.8257 10.2399L94.1914 10.1979L94.9087 10.0718L95.5557 9.55354C95.5557 9.55354 95.9917 4.45458 95.9214 4.3285C95.837 4.21644 95.6823 3.96429 95.3588 3.85223C95.0353 3.72615 94.529 4.04834 94.529 4.04834L92.363 4.02032C92.363 4.02032 91.4347 3.89425 91.2378 3.82421C91.0409 3.74016 90.5065 3.69814 90.5065 3.69814L89.6626 4.58065L89.5501 5.57523L88.3124 4.58065L87.9889 4.13239L87.7498 3.58607L87.3841 3.26389L86.5965 3.34793L85.9495 4.03433L85.3025 5.42114L84.6556 6.10754L83.2913 7.06009L82.2927 7.49434L82.2505 7.85855L82.4896 8.53094L83.0522 8.85313L83.882 8.76908L84.4446 8.48892L85.9214 8.57297V9.04925L84.6415 9.20333L84.1211 9.59556L84.0367 10.0018V10.4361L84.529 10.6322L85.8932 10.5901V11.8229C85.8932 11.8229 85.4854 11.8789 85.3729 11.8789C85.2603 11.8789 84.9368 11.7528 84.9368 11.7528L84.5712 11.6267L84.0508 12.117L83.7835 12.5933L84.093 13.1116L84.5712 13.5178L85.1759 13.0696L85.6963 12.5933L86.0198 12.3131V13.6719L85.6963 13.8821H85.1338L84.3321 13.84L83.8961 13.8821L83.4601 14.3583L83.3053 14.7926L83.5022 15.437L83.9523 15.8292L84.5571 15.7872L85.1197 15.465L85.9214 15.1428L89.0015 15.0587L89.1984 15.3389L89.3532 15.8992L89.6766 16.2214H90.1267L92.4615 14.8206L93.1366 14.2182L93.2491 13.8961L92.8834 13.4618L92.4052 13.4198L91.9973 13.742L91.4066 13.6999L91.3644 13.0276L91.8426 12.9155L92.3208 12.6353L92.799 12.3552H93.1225L93.4741 13.3918L93.9101 14.0782L94.318 14.7926L94.7962 15.3949L95.19 15.9272L95.7948 16.1654H96.4277L97.0325 16.0393L97.6373 15.521L98.0029 15.2408L97.9608 14.7646H97.9467ZM89.2828 13.77L87.5107 13.6859L87.6654 12.7614L88.5796 12.9575L89.1422 12.8034L89.3391 12.2431L89.2969 11.7248C89.2969 11.7248 88.7343 11.6127 88.6218 11.6127C88.5093 11.6127 87.7779 11.5287 87.7779 11.5287V11.0104L87.9326 10.6602L88.5374 10.6182L89.0578 10.5061L89.325 10.0298L89.0859 9.42746L87.9186 9.34342L88.0029 8.54495L88.6781 8.47491L89.0437 8.32082L89.1563 7.91459L88.875 7.39629C88.875 7.39629 88.3546 7.31224 88.2421 7.31224C88.1295 7.31224 87.4404 7.27021 87.4404 7.27021L86.5543 7.2422L85.9214 7.11612L86.3152 6.70989L86.92 6.14956L87.4826 5.95345H87.9186L88.3686 6.3877L88.9312 6.86398L89.2969 6.77993L89.6626 6.62584L89.7751 13.77H89.2547H89.2828ZM91.491 5.26705L93.8961 5.22502L94.0648 5.61725L93.9804 6.17758L93.3897 6.2196L91.6176 6.13555L91.3785 5.7013L91.491 5.26705ZM92.4474 10.422L91.5754 11.6267L91.2519 11.6548L91.2238 10.2259L91.4207 10.0999H92.5177L92.4615 10.422H92.4474ZM93.4179 8.69904L91.8426 8.58698L91.491 8.37685L91.5332 7.74649H93.7413L93.8961 8.41888L93.4179 8.69904Z" fill="white"/>
<path d="M104.923 5.01491V5.60325L105.64 6.09353H107.089L108.537 5.88341L109.93 5.40713L110.296 4.80478L110.267 3.93628L109.649 3.22186L109.17 3.17984L108.819 3.65612L108.242 4.09037L105.921 4.86082L104.923 5.01491Z" fill="white"/>
<path d="M112.743 3.57208L112.18 4.17443L112.335 4.93087L113.024 5.3231L114.234 5.40715L116.189 5.53322L117.398 5.44917L118.031 5.01492V4.25848L117.314 3.85225L115.106 3.65613L112.743 3.57208Z" fill="white"/>
<path d="M104.881 7.45231L104.36 7.88656L104.445 8.72705L104.965 9.28738L105.654 9.24535C105.654 9.24535 106.133 9.04924 106.245 9.00721C106.372 8.9792 107.005 8.76908 107.005 8.76908L107.919 8.8111L108.13 9.56754V11.2065L107.891 12.3692L107.328 13.2097L106.653 13.5599H105.134L104.614 13.9521L104.487 14.5124C104.487 14.5124 104.614 15.0307 104.726 15.0307C104.839 15.0307 105.922 15.1148 105.922 15.1148L107.047 15.0027L107.891 14.7225L108.692 14.2042L109.494 13.3637L109.93 12.047L110.042 10.2119L110.197 8.78308L110.479 8.50292L110.366 7.46632L109.649 7.18616L108.608 7.27021L107.891 7.4243L106.723 7.34025L104.881 7.46632V7.45231Z" fill="white"/>
<path d="M112.222 6.92001C112.222 6.92001 111.66 7.15815 111.618 7.28422C111.575 7.39629 111.463 8.08269 111.463 8.08269L111.702 8.64301L112.096 8.7971L112.743 8.75508L113.263 8.7971L113.544 11.0244C113.544 11.0244 113.587 12.1871 113.629 12.4252C113.671 12.6633 113.741 13.9381 113.741 13.9381L113.868 15.1428L113.952 16.0253L114.388 16.3475L114.951 16.3055L115.514 15.9833L115.71 15.507L115.795 13.5599L115.598 11.2485L115.471 9.04925H116.118L116.765 9.37144L117.525 9.69362L118.326 9.73565L119.213 9.37144L119.522 8.7831L119.972 7.98463L120.014 7.25621L112.236 6.93402L112.222 6.92001Z" fill="white"/>
<path d="M17.9747 0C17.7918 0 17.6371 0.154089 17.6231 0.336195V12.075C17.6231 12.075 17.609 12.1451 17.5668 12.1591L14.1913 14.1062C14.1491 14.1342 14.1069 14.1342 14.0506 14.1342C13.8678 14.1342 13.7131 13.9941 13.699 13.798V13.2657L13.4459 6.41573C13.4459 6.35969 13.4037 6.31767 13.3474 6.31767C13.2911 6.31767 13.2489 6.35969 13.2489 6.41573L12.8973 13.7L12.6442 6.86399C12.6442 6.86399 12.602 6.76593 12.5457 6.76593C12.4895 6.76593 12.4473 6.80795 12.4473 6.87799L12.0816 14.1622L11.8425 7.34026C11.8425 7.34026 11.8003 7.24221 11.73 7.24221C11.6737 7.24221 11.6315 7.29824 11.6315 7.34026L11.2658 14.6245L11.0267 7.80253C11.0267 7.80253 10.9845 7.70447 10.9283 7.70447C10.872 7.70447 10.8298 7.7465 10.8298 7.80253L10.4641 15.0027L10.225 8.2648C10.225 8.2648 10.1828 8.16674 10.1266 8.16674C10.0703 8.16674 10.0281 8.20877 10.0281 8.2648L9.66245 15.563V24.9765C9.66245 25.1726 9.50774 25.3267 9.31083 25.3267C9.24051 25.3267 9.17018 25.2987 9.11392 25.2707C5.96343 23.1554 3.88186 19.5694 3.88186 15.493C3.88186 9.73565 8.01688 4.95888 13.5021 3.90827C13.6146 3.85224 13.699 3.74017 13.7131 3.6141V0.37822C13.7131 0.182106 13.5584 0.0280163 13.3615 0.0280163H13.3052C5.76653 1.17668 0 7.66245 0 15.507C0 23.3516 5.78059 29.8373 13.3333 30.986H13.3615C13.5584 30.986 13.7131 30.8319 13.7131 30.6358V19.1211C13.7131 19.1211 13.7412 19.0511 13.7693 19.023L17.1449 17.0899C17.1449 17.0899 17.2433 17.0619 17.2855 17.0619C17.4824 17.0619 17.6371 17.216 17.6371 17.3981V17.4261V17.7203L17.8762 24.5703C17.8762 24.6263 17.9184 24.6683 17.9747 24.6683C18.0309 24.6683 18.0731 24.6263 18.0731 24.5703L18.4388 17.272L18.6779 24.108C18.6779 24.108 18.7201 24.2061 18.7764 24.2061C18.8326 24.2061 18.8748 24.164 18.8748 24.108L19.2405 16.8238L19.4796 23.6457C19.4796 23.7018 19.5218 23.7438 19.5781 23.7438C19.6343 23.7438 19.6765 23.7018 19.6765 23.6457L20.0422 16.3615L20.2813 23.1835C20.2813 23.1835 20.3235 23.2815 20.3797 23.2815C20.436 23.2815 20.4782 23.2395 20.4782 23.1835L20.8439 15.9833L21.083 22.7212C21.083 22.7212 21.1252 22.8193 21.1814 22.8193C21.2377 22.8193 21.2799 22.7772 21.2799 22.7212L21.6315 15.423V5.95346C21.6315 5.75734 21.8003 5.61726 21.9831 5.61726C22.0534 5.61726 22.1238 5.63127 22.166 5.6733C25.3868 7.77452 27.5246 11.4166 27.5246 15.535C27.5246 21.2924 23.3615 26.0972 17.8762 27.1198C17.7075 27.1478 17.5949 27.2738 17.5809 27.4559V27.484V30.6918C17.5809 30.8739 17.7356 31.028 17.9325 31.028H17.9466C25.5556 29.9214 31.4065 23.4076 31.4065 15.521C31.4065 7.63443 25.5977 1.09263 17.9747 0Z" fill="white"/>
</g>
<defs>
<clipPath id="clip0_98_2087">
<rect width="120" height="31" fill="white"/>
</clipPath>
</defs>
</svg>
