<svg width="332" height="29" viewBox="0 0 332 29" fill="none" xmlns="http://www.w3.org/2000/svg">
<g clip-path="url(#clip0_169_3298)">
<path d="M65.4212 15.9894H60.7262L60.0916 15.7397V15.1103L60.603 14.6702L61.5522 14.5448L62.1855 14.2316L62.4406 13.6647L62.571 13.033L62.4406 12.4088H60.9183L60.7262 11.9652L60.2851 11.3362L59.328 10.8953L58.313 11.2108L57.8718 12.3461L54.8875 12.2824L54.8247 11.0187L55.461 11.0817L56.5368 11.0187L57.6832 10.8953L58.4406 10.4551L58.7596 9.82409L58.5658 9.12908L58.6938 8.81288L59.1401 8.49972L59.7105 7.67729H60.3464L62.0596 7.55154L62.7579 6.85751L63.0759 5.84901L62.1233 5.35049L60.0916 5.03533L60.1574 3.83402L60.2168 3.01354L59.328 2.25586H58.1274L57.4894 3.26707L57.1083 5.03533L55.2703 5.09702L54.2546 5.16211L53.4276 6.22927L53.5542 6.98667L54.5705 7.42551C54.5705 7.42551 56.3475 7.30182 56.5368 7.30182C56.7292 7.30182 57.2363 7.67729 57.2363 7.67729L57.4276 8.55733L56.9844 9.00235L55.2703 9.06572L54.0646 8.93864L53.0496 8.49972L52.475 8.93864L49.0502 8.81288L49.112 8.3703L49.5572 7.86976L50.0659 7.30182H50.8923L51.5228 7.11104L51.9718 6.47794L52.157 5.79106L51.3968 5.16211L50.5074 5.09702L49.6845 4.71579L49.5572 3.83402L49.112 3.07898L48.4764 2.44797L47.5248 2.38426L46.8308 3.07898L46.7643 4.65208L46.0683 4.77777C46.0683 4.77777 45.117 4.84322 44.9243 4.90318C44.7325 4.97029 44.1017 5.53385 44.1017 5.53385L43.7178 6.16688L43.8424 7.04733L44.7325 7.55154H45.7499L46.8308 7.42551L47.0822 7.74303L47.7172 8.24322L48.2887 8.49972C48.2887 8.49972 48.1611 8.93864 47.9721 9.00235C47.7783 9.06572 47.4013 9.57131 47.4013 9.57131L47.5248 10.8953L46.7643 10.83L45.9383 11.2108L45.5606 12.2824L44.5445 12.5945L43.7833 14.413L44.607 14.9213H46.1952L46.0041 15.9264L44.1017 16.1172L42.4486 16.4913C42.4486 16.4913 41.433 16.8722 41.0519 17.6917C40.6704 18.5141 41.0519 18.8249 41.0519 18.8249L42.133 19.8994L43.8424 20.2133L44.9243 19.142L46.7002 18.6378C46.7002 18.6378 49.8748 18.0698 50.0659 18.0698C50.2536 18.0698 51.7128 18.262 51.7128 18.262L51.8411 19.142L50.9503 19.3325H48.1611C47.9721 19.3325 47.1454 20.0906 47.1454 20.0906L47.0822 21.2831L48.0339 21.7301H51.8411L51.9718 25.0665L52.0321 26.0797L52.157 26.7673L52.8585 27.0224H53.6804L54.3161 26.2637L54.5705 25.4483L54.6334 24.187L54.5705 22.7996L54.7599 21.541L55.461 21.4739C55.461 21.4739 56.5368 21.6664 56.7927 21.6664C57.0435 21.6664 57.806 21.8531 57.806 21.8531L58.8224 21.7904L59.4574 20.9696L59.2704 19.8994L58.313 19.6436L57.0435 19.4633L54.9503 19.3942L54.8875 18.4487H57.2363L58.7596 18.6378L59.9657 18.9513L61.1735 19.3325L62.4406 19.7751L63.583 19.6436L64.5352 19.142L65.3605 18.1955L65.6751 17.1227L65.4212 15.9894ZM49.5572 10.9563L50.3835 11.0817L51.6528 11.2108L51.8411 11.9035L51.5896 12.3461H50.7005L49.5572 12.4088L48.7967 12.1567L48.7329 11.2108L49.5572 10.9563ZM51.7128 15.9264C51.7128 15.9264 51.2693 15.9894 50.9503 16.0552C50.635 16.1172 49.8087 16.0552 49.8087 16.0552L48.8575 15.9894L48.7967 15.171L49.0502 14.6085L50.1287 14.413L51.2082 14.2316L51.7128 14.6085L51.9718 15.3578L51.7128 15.9264ZM57.5543 15.3578L57.1718 15.9894H55.3338L54.8875 15.8671L54.7599 15.2364L54.8875 14.6085L55.6514 14.5448L57.2363 14.4821L57.615 14.8619L57.5543 15.3578Z" fill="white"/>
<path d="M90.9816 8.76137L93.3334 9.3978C93.3334 9.3978 95.3614 9.96205 95.6791 10.0281C95.9964 10.0888 96.7586 10.2169 97.0755 10.1505C97.3945 10.0888 98.0926 9.52148 98.0926 9.52148L99.6784 7.44077L99.299 6.80739H97.5204L93.6507 6.68267L89.3361 6.49424V5.04788C89.3361 5.04788 88.3808 3.9733 87.6838 3.91126C86.9854 3.84726 85.7162 3.91126 85.7162 3.91126L85.2774 4.54227L85.2071 6.30824C85.2071 6.30824 77.7955 5.80125 77.0999 6.05471C76.4022 6.30824 75.1978 7.56715 75.1978 7.56715L75.4492 8.82849L76.0221 9.52148L76.9733 10.1505L77.7355 9.77563C77.7355 9.77563 78.7498 9.07958 79.0023 9.14233C79.2599 9.20667 81.4152 8.89324 81.4152 8.89324L83.059 8.57537H84.8901L85.7162 8.89324L85.9048 10.1505L85.4627 10.6598L84.7639 10.5328C84.7639 10.5328 84.447 10.2799 84.2617 10.2169C84.0682 10.1505 83.6261 10.0888 83.6261 10.0888L82.4265 10.7812L81.5438 11.1001L80.595 10.7812L79.5769 10.6598L78.5577 11.1001L77.986 11.7947L78.0545 15.8159L78.8754 23.3825L79.5141 24.0112L80.4005 23.6943L81.0989 23.3181L81.1606 20.481L85.5247 20.5477L85.7789 22.7525L85.9048 24.1406L86.2856 25.3989C86.2856 25.3989 86.8605 25.3379 87.0485 25.3379C87.2382 25.3379 88.002 25.0857 88.002 25.0857L88.3191 24.0752L88.5715 22.8186L88.6974 20.5477L92.7589 20.4186L93.7108 19.7246L93.777 20.988C93.777 20.988 93.5828 22.2473 93.6507 22.5583C93.7108 22.8773 93.459 24.0112 93.459 24.0112C93.459 24.0112 93.9045 24.8303 94.0946 24.8303C94.284 24.8303 95.7449 24.3273 95.7449 24.3273L96.2499 22.8773L96.6921 20.7341L97.4559 12.5488L96.4382 11.4741L94.9793 11.4138H92.3808L91.1099 10.7218H90.0959L88.637 10.5328L88.5715 9.83803L89.2061 8.7041L90.9816 8.76137ZM80.9747 15.066L80.9105 14.3039L80.9747 13.8684L81.0327 13.3655L82.1139 13.174L82.8072 13.6186L83.5022 14.5597L82.8072 14.6847L81.9239 14.7474L81.2292 15.1263L80.9747 15.066ZM85.6517 18.2746C85.6517 18.2746 84.7639 18.4667 84.5776 18.5263C84.3899 18.5867 82.7434 18.652 82.7434 18.652L81.479 18.7188L81.2292 18.2746V17.3938L81.2886 16.9535L82.9314 17.0766H85.6517V18.2746ZM91.2386 13.9277L91.8708 13.174L92.7589 13.2371L93.8364 13.4258L93.9674 14.2456L93.9046 15.066L93.2038 15.1263L91.5508 14.9996L90.853 14.6847L91.2386 13.9277ZM90.6022 17.205L92.0642 17.2711L93.1396 17.1362L93.9674 16.76L94.0291 17.6405L93.8364 18.7811L92.9503 18.3372L88.8953 18.2102L88.7663 17.1362L89.3361 17.0129L90.6022 17.205ZM88.7663 12.8639L88.6974 13.5546L88.1897 14.3651L87.6838 14.8745L87.0485 14.9338L86.2245 14.8108L85.8424 13.805L85.6517 12.7972L86.349 12.7348L87.1099 12.6718H88.2542L88.7663 12.8639Z" fill="white"/>
<path d="M135.593 22.5476C132.062 20.4414 129.102 16.1627 129.102 16.1627L128.975 15.3267L129.552 15.2677L130.708 15.0708L131.741 14.2486C131.741 14.2486 132.442 6.07889 132.318 5.89011C132.186 5.69626 131.931 5.31434 131.42 5.12217C130.899 4.93242 130.072 5.43976 130.072 5.43976L126.598 5.37972C126.598 5.37972 125.116 5.18456 124.794 5.05914C124.474 4.93242 123.641 4.86836 123.641 4.86836L122.292 6.27544L122.1 7.86714L120.109 6.27544L119.592 5.5678L119.208 4.67417L118.627 4.16211L117.347 4.29398L116.316 5.37972L115.288 7.61132L114.26 8.69942L112.079 10.2309L110.469 10.9357L110.407 11.5101L110.794 12.5905L111.69 13.1012L113.043 12.9745L113.94 12.5258L116.316 12.659V13.4174L114.26 13.6719L113.424 14.3151L113.291 14.9478V15.6483L114.07 15.9682L116.255 15.9038V17.8811C116.255 17.8811 115.604 17.9503 115.415 17.9503C115.227 17.9503 114.709 17.7561 114.709 17.7561L114.132 17.5647L113.291 18.3332L112.845 19.0987L113.358 19.9263L114.132 20.5641L115.095 19.863L115.931 19.0987L116.445 18.6504V20.8227L115.931 21.1419H115.035L113.743 21.0792L113.043 21.1419L112.332 21.9085L112.079 22.6089L112.396 23.6368L113.105 24.2718L114.07 24.2054L114.962 23.6947L116.255 23.1833L121.199 23.0552L121.522 23.5032L121.774 24.4006L122.292 24.9093H122.998L126.729 22.6754L127.822 21.7112L128.009 21.2035L127.433 20.501L126.66 20.4414L126.013 20.9484L125.055 20.8837L124.993 19.7965L125.763 19.6081L126.529 19.1618L127.308 18.7175H127.822L128.396 20.373L129.102 21.4601L129.751 22.6089L130.517 23.568L131.16 24.4006L132.121 24.7778H133.153L134.113 24.5887L135.08 23.7581L135.655 23.3117L135.593 22.5476ZM121.712 20.9484L118.886 20.8227L119.141 19.3499L120.618 19.6715L121.522 19.416L121.841 18.523L121.774 17.6951C121.774 17.6951 120.875 17.5006 120.682 17.5006C120.49 17.5006 119.338 17.3721 119.338 17.3721V16.5429L119.592 15.9682L120.554 15.9038L121.393 15.7144L121.841 14.9478L121.456 13.9901L119.592 13.8634L119.719 12.5905L120.814 12.4658L121.393 12.2103L121.586 11.5705L121.131 10.7415C121.131 10.7415 120.299 10.6138 120.109 10.6138C119.914 10.6138 118.819 10.5525 118.819 10.5525L117.409 10.4888L116.383 10.2946L117.021 9.65677L117.984 8.76078L118.886 8.44291H119.592L120.299 9.14472L121.199 9.91127L121.774 9.78385L122.355 9.53004L122.547 20.9484H121.712ZM125.246 7.35813L129.102 7.2904L129.362 7.93016L129.234 8.82789L128.267 8.88889L125.437 8.76078L125.055 8.05897L125.246 7.35813ZM126.792 15.5873L125.378 17.5006L124.857 17.5647L124.794 15.2677L125.116 15.0708H126.859L126.792 15.5873ZM128.335 12.8454L125.82 12.659L125.246 12.335L125.307 11.3184H128.848L129.102 12.3987L128.335 12.8454Z" fill="white"/>
<path d="M146.791 6.94106V7.90078L147.948 8.6656H150.264L152.576 8.34642L154.832 7.57951L155.41 6.61911L155.346 5.21916L154.383 4.06971L153.602 4.00391L153.035 4.76812L152.128 5.47707L148.399 6.68788L146.791 6.94106Z" fill="white"/>
<path d="M159.333 4.64062L158.431 5.59833L158.683 6.81255L159.784 7.45029L161.711 7.57911L164.86 7.77226L166.792 7.64282L167.821 6.94065V5.73013L166.665 5.091L163.124 4.76771L159.333 4.64062Z" fill="white"/>
<path d="M146.729 10.8366L145.892 11.5378L146.022 12.8744L146.859 13.7697L147.948 13.7046C147.948 13.7046 148.723 13.3847 148.917 13.321C149.107 13.2596 150.134 12.9408 150.134 12.9408L151.614 13.0018L151.941 14.2099V16.8311L151.556 18.6831L150.648 20.0228L149.558 20.5972H147.118L146.281 21.2329L146.085 22.1283C146.085 22.1283 146.281 22.9585 146.473 22.9585C146.665 22.9585 148.399 23.0855 148.399 23.0855L150.199 22.8954L151.556 22.444L152.843 21.6141L154.122 20.2775L154.832 18.1694L155.022 15.2343L155.277 12.9408L155.731 12.4975L155.539 10.8366L154.383 10.3906L152.704 10.5194L151.556 10.7716L149.691 10.6445L146.729 10.8366Z" fill="white"/>
<path d="M158.495 10.0059C158.495 10.0059 157.594 10.3915 157.529 10.584C157.463 10.7724 157.272 11.863 157.272 11.863L157.662 12.7515L158.304 13.0026L159.333 12.9416L160.166 13.0026L160.617 16.5734C160.617 16.5734 160.684 18.4291 160.749 18.8104C160.814 19.1954 160.937 21.2337 160.937 21.2337L161.131 23.1504L161.261 24.5541L161.969 25.0675L162.867 25.0059L163.766 24.4921L164.093 23.7239L164.218 20.598L163.897 16.8967L163.707 13.3855H164.733L165.763 13.8915L166.985 14.408L168.266 14.471L169.686 13.8915L170.194 12.9416L170.903 11.6691L170.969 10.5203L158.495 10.0059Z" fill="white"/>
<path d="M16.8664 0H16.8634C16.686 0 16.5413 0.140623 16.5341 0.31552L16.5436 11.2919C16.5436 11.293 16.5436 11.293 16.5436 11.2953C16.5436 11.3302 16.5222 11.3618 16.4908 11.378V11.3787L13.3202 13.1958C13.2792 13.2148 13.2349 13.225 13.1857 13.225C13.0097 13.225 12.8691 13.0891 12.8592 12.9159V12.4096L12.8643 12.4079L12.6316 6.00368C12.6289 5.95489 12.5883 5.91422 12.5368 5.91422C12.487 5.91422 12.4443 5.95586 12.444 6.00639L12.1032 12.8292L11.8732 6.43842C11.8708 6.38762 11.8299 6.34966 11.7787 6.34966C11.7265 6.34966 11.6842 6.39066 11.6842 6.44488L11.3454 13.2649L11.3396 13.2659L11.1107 6.87629C11.1082 6.82479 11.0673 6.78717 11.0158 6.78717C10.9636 6.78717 10.9219 6.82986 10.9219 6.8817L10.5838 13.6994L10.5821 13.7011L10.3509 7.31511C10.3509 7.26363 10.3092 7.22164 10.2567 7.22164C10.2068 7.22164 10.1656 7.26363 10.1632 7.31511L9.82778 14.0582L9.6009 7.75063H9.59922V7.74758C9.59922 7.69705 9.55722 7.65368 9.50608 7.65368C9.45416 7.65368 9.41426 7.69365 9.41154 7.74348L9.07244 14.5662L9.07174 14.5669V23.3749C9.07034 23.3762 9.07034 23.3813 9.07034 23.385C9.07034 23.565 8.92297 23.7117 8.74046 23.7117C8.67254 23.7117 8.61042 23.69 8.55858 23.6537C5.59744 21.6733 3.64892 18.314 3.64892 14.5011C3.64892 9.11663 7.53058 4.63866 12.6655 3.66805C12.7766 3.61926 12.8545 3.5125 12.8605 3.38474V0.352095L12.8592 0.347711C12.8592 0.168454 12.7112 0.0210411 12.5296 0.0210411H12.4825C5.41318 1.10644 0 7.17486 0 14.5011C0 21.8336 5.42205 27.9057 12.501 28.9824H12.5316C12.7128 28.9824 12.8592 28.8366 12.8605 28.6573L12.8592 17.8805V17.8757C12.8592 17.8422 12.8804 17.8114 12.9087 17.7944L16.0773 15.9777C16.121 15.9583 16.1646 15.9475 16.2154 15.9475C16.3949 15.9475 16.5392 16.0909 16.5436 16.2671V16.2823C16.5433 16.2841 16.5433 16.2864 16.5433 16.2884L16.5436 16.5629L16.5392 16.567L16.7688 22.9719C16.7723 23.0217 16.8132 23.0607 16.864 23.0607C16.9152 23.0607 16.9571 23.0183 16.9585 22.9688L17.2983 16.1458L17.5279 22.5354C17.5317 22.5869 17.573 22.6259 17.6221 22.6259C17.6754 22.6259 17.7163 22.5835 17.7163 22.5313L18.0561 15.711L18.0603 15.7083L18.2908 22.0969C18.2933 22.1481 18.3352 22.1881 18.3843 22.1881C18.4369 22.1881 18.4796 22.147 18.4796 22.0949V22.0928L18.8203 15.2749L19.0493 21.6594C19.0497 21.7106 19.0926 21.753 19.1441 21.753C19.1943 21.753 19.2366 21.7106 19.2376 21.6605L19.5747 14.9176L19.8013 21.226L19.8016 21.2267C19.8016 21.2782 19.8443 21.3212 19.8961 21.3212C19.9467 21.3212 19.9889 21.2802 19.99 21.2314L20.3301 14.407V5.53535C20.339 5.36149 20.4829 5.22324 20.6601 5.22324C20.7255 5.22324 20.7863 5.24219 20.8371 5.27474C23.8583 7.246 25.8563 10.6406 25.8563 14.5011C25.8563 19.8918 21.9583 24.3813 16.8091 25.34C16.6556 25.3658 16.5392 25.4946 16.5341 25.6535V25.6684C16.5351 25.6728 16.5365 25.6765 16.5365 25.6806H16.5341V28.6835C16.5399 28.857 16.6846 29 16.8634 29H16.8835C24.0187 27.9714 29.5032 21.8736 29.5032 14.5011C29.5032 7.12267 24.0108 1.01871 16.8664 0Z" fill="white"/>
<path d="M189.991 6.64844H189.357V22.353H189.991V6.64844Z" fill="white"/>
<path d="M323.732 6.32812C325.037 6.4722 326.246 6.4722 327.406 6.71234C328.47 6.95247 328.905 7.57681 328.567 8.82548C328.18 10.1702 328.228 11.611 328.035 12.9557C327.648 15.4531 327.02 15.9334 324.457 15.6452H323.587C323.587 16.2215 323.538 16.7978 323.49 17.5662C324.505 17.5662 325.472 17.4702 326.391 17.5662C326.971 17.6623 327.793 18.0945 327.89 18.5268C328.035 19.4873 327.116 19.4393 326.439 19.4873H323.635C323.49 21.0722 324.07 21.8886 325.424 21.9366H332C331.71 24.2899 329.921 25.6346 328.277 24.9623C324.409 23.4254 320.54 23.4735 316.624 24.53C316.044 24.6741 315.463 24.8662 314.883 24.8662C314.303 24.8662 313.819 25.0103 313.433 24.1458C313.288 23.1373 313.819 22.8972 314.206 22.7531C315.173 22.3208 316.285 22.0807 317.349 21.9366C318.51 21.7926 319.718 21.9366 321.024 21.9366C321.121 21.1202 321.217 20.4478 321.314 19.5353C320.202 19.6314 319.283 19.7274 318.316 19.7755C317.591 19.7755 316.624 19.8715 316.721 18.863C316.769 18.3827 317.591 17.9024 318.171 17.6623C318.655 17.4702 319.235 17.5663 319.815 17.5663C320.927 17.5663 321.362 16.9419 321.121 15.6452C320.589 15.6452 320.009 15.7413 319.477 15.8373C318.123 16.1255 317.494 15.8373 317.252 14.4446C316.962 12.9077 316.866 11.3229 316.672 9.738C316.672 9.49787 316.672 9.25774 316.576 9.06564C315.754 6.80841 316.479 6.80841 318.558 6.56828C320.25 6.37618 321.943 6.42418 323.732 6.32812ZM321.362 9.73798C321.846 9.73798 321.846 9.4018 321.894 9.16167C321.991 8.63338 322.039 7.86497 321.121 7.96102C320.395 7.96102 319.428 7.81694 319.332 8.92154C319.187 10.0742 319.863 9.78601 320.589 9.78601M326.294 13.1478C326.536 12.7636 326.536 12.5715 326.536 12.2353C326.536 11.8992 326.439 11.8031 326.198 11.7071C325.666 11.563 324.747 11.4669 324.312 11.611C324.022 11.7071 324.07 11.9952 324.07 12.7156C324.07 13.436 324.263 13.1959 324.505 13.1959H325.762M324.457 8.15312V9.35377C324.457 9.5939 324.65 9.78601 324.844 9.73798L326.536 9.64193C326.681 9.64193 326.778 9.54588 326.778 9.4018C326.778 7.81694 326.246 7.96102 324.505 8.15312M321.894 12.6676C321.798 11.7071 321.798 11.563 319.912 11.8031C319.38 11.8992 319.525 12.0432 319.525 12.2353C319.477 13.532 320.062 13.4582 321.507 13.1478C321.918 13.0598 321.894 12.9077 321.894 12.6676Z" fill="white"/>
<path d="M248.495 25.6838C246.368 25.9239 245.933 25.5877 245.788 23.6186C245.691 22.1298 245.643 20.641 245.594 19.1522C245.594 18.1917 245.981 17.4713 247.093 17.4233C250.961 17.4233 254.829 17.2312 258.698 17.2792C261.357 17.2792 261.696 17.9996 261.405 20.6891C261.115 23.3785 261.309 22.2739 261.26 23.0904C261.164 24.8673 260.39 25.4917 258.553 25.3956C256.425 25.2996 254.298 25.2515 252.122 25.2996C250.961 25.2996 249.753 25.5397 248.495 25.6838ZM248.35 22.0818C248.012 22.3219 248.012 22.466 248.012 22.8022C248.012 23.1384 248.109 23.4265 248.399 23.4746H251.3C252.17 23.4746 252.89 22.9524 252.315 22.2259C252.116 21.9742 252.025 22.0338 251.928 22.0338H248.592M255.893 18.9121C254.636 18.72 254.588 19.2483 254.781 20.1608C255.216 20.3529 257.348 20.3029 258.746 20.1608C259.452 20.089 259.253 18.9456 258.846 18.8917C258.394 18.8537 258.408 18.9121 258.021 18.9121H255.893ZM256.667 22.0818H255.506C255.168 22.0818 254.829 22.0818 254.733 22.37C254.733 22.6581 254.491 23.3785 255.071 23.3785H257.586C258.263 23.3785 258.456 23.3785 258.794 23.2344C259.133 23.0904 258.794 22.1298 258.649 22.0818C258.504 22.0338 257.972 22.0818 257.586 22.0818L256.667 22.0818ZM248.012 19.3443C247.77 19.7766 247.673 20.3048 248.399 20.3529C249.366 20.3529 250.865 20.4489 251.88 20.3529C252.073 20.3529 252.122 20.2568 252.218 20.0167C252.315 19.7766 252.364 19.4884 252.218 19.2003C252.073 18.9121 251.977 18.9121 251.832 18.9121C250.816 18.9121 248.302 18.9121 248.06 19.2963L248.012 19.3443Z" fill="white"/>
<path d="M218.227 19.0068C215.761 20.0153 213.247 19.487 210.733 19.487C208.218 19.487 209.331 18.4785 209.282 17.8541C209.089 14.6364 209.089 11.4667 209.089 8.2489C209.089 5.03115 209.814 6.56798 210.878 6.56798C212.909 6.56798 214.988 6.66404 217.018 6.76009C217.937 6.76009 218.566 7.24035 218.566 8.29692V18.4785C218.421 18.6706 218.421 18.8146 218.372 18.9587M211.216 9.92981C211.265 10.266 211.506 10.314 211.748 10.314H216.148C216.438 9.11337 216.003 8.6331 214.891 8.48902C212.135 8.15284 211.361 8.29692 211.168 9.01731M215.81 17.1337C216.487 15.9331 216.39 15.6929 215.181 15.5969C214.214 15.5008 212.763 15.5008 211.845 15.5969C211.458 15.5969 211.506 15.8851 211.458 16.3173C211.458 16.7015 211.458 17.2298 211.845 17.2778C212.909 17.3739 214.504 17.2778 215.81 17.1337ZM211.313 13.6758C212.618 13.6758 213.827 13.7719 215.133 13.8199C216.293 13.8199 216.535 13.3397 216.1 12.187H212.087C211.216 12.187 211.071 12.6673 211.313 13.6278V13.6758Z" fill="white"/>
<path d="M286.065 18.8157C284.856 18.7196 284.083 18.7196 283.164 18.9597C283.116 19.2479 283.019 19.6321 283.164 19.8242C283.648 19.9203 284.131 19.8242 284.615 19.8242C286.549 19.8242 288.531 19.8242 290.465 19.9683C292.061 19.9683 292.593 20.5446 292.544 21.8413C292.544 24.0505 291.868 24.915 290.175 24.963C289.063 24.963 287.999 24.7709 286.887 24.8189C285.63 24.915 284.373 25.1551 283.116 25.3952C281.617 25.6834 280.892 25.2031 280.843 23.7143V15.9821C280.843 14.9736 281.182 14.1571 282.391 14.2051C285.098 14.3012 287.854 14.4453 290.562 14.6374C291.432 14.6374 292.351 14.8295 292.254 16.0782C292.109 18.1433 291.577 19.0078 290.175 19.0078C288.773 19.0078 287.468 18.9117 285.969 18.8157M289.595 21.6012C287.854 21.6012 286.162 21.6012 284.421 21.6972C284.035 21.6972 283.358 21.6012 283.358 22.4176C283.406 23.2341 284.083 23.09 284.47 23.09H289.402C290.514 23.09 290.659 22.5137 289.643 21.6492M289.643 16.1262C287.758 16.1262 285.872 15.9821 283.938 15.9341C283.696 15.9341 283.358 16.0301 283.309 16.5104C283.309 16.8946 283.696 17.1347 283.938 17.1347C285.63 17.1347 288.338 17.2788 290.03 17.1347C290.32 17.1347 290.32 16.1262 289.595 16.0782H289.643V16.1262Z" fill="white"/>
<path d="M218.711 18.5265C218.953 18.5265 219.001 18.5265 219.194 18.4784C221.032 17.3738 222.869 16.3173 224.658 15.1646C225.867 14.3962 225.964 13.1956 225.529 11.6587C224.32 11.9469 223.159 12.2831 221.999 12.4752C221.274 12.5712 220.5 12.4752 219.823 12.3791C219.678 12.3791 219.436 11.3706 219.63 11.1785C220.21 10.6021 220.887 10.0258 221.66 9.83372C222.579 9.59359 223.546 9.68964 224.513 9.83372C225.577 9.92978 225.915 9.44951 225.77 8.48899V7.28834C225.77 6.56795 225.577 5.60742 226.786 5.60742C227.994 5.60742 228.526 6.51992 228.43 7.5765C228.43 7.91268 228.285 8.29689 228.236 8.63307V9.88175H231.427C231.718 9.88175 232.104 10.0739 232.201 10.266C232.298 10.4581 232.104 10.9864 231.911 11.0824C231.089 11.4666 230.219 11.9469 229.348 11.9469C228.478 11.9469 227.898 12.2831 227.946 13.3396C228.14 16.2212 228.236 19.1028 228.381 22.0324C228.381 22.6567 228.526 23.3291 228.381 23.9054C228.285 24.3376 227.849 24.962 227.463 25.01C227.076 25.01 226.351 24.6738 226.205 24.2896C225.915 23.5212 225.867 22.6087 225.819 21.7922V17.3258C224.658 18.2863 223.836 19.0067 222.918 19.6311C222.096 20.1594 221.225 20.7357 220.306 20.9758C218.856 21.408 218.372 20.8317 218.421 19.1988V18.9587C218.421 18.8626 218.421 18.7666 218.517 18.6705L218.566 18.5745H218.614L218.711 18.5265Z" fill="white"/>
<path d="M241.871 11.5635L241.968 11.1793C242.065 10.507 242.113 10.4589 242.258 9.93064C242.838 7.24117 243.032 7.04907 245.836 6.90499H250.865C251.638 6.90499 251.638 6.56881 251.638 6.13657C251.638 5.32012 251.832 4.64775 253.041 4.69578C254.008 4.69578 254.346 5.22407 254.346 6.08854C254.346 6.953 254.684 6.85696 255.12 6.85696H259.471C260.535 6.85696 261.647 7.09709 262.663 7.38525C263.678 7.67341 264.21 8.3938 264.21 9.4984C264.21 10.603 264.5 11.4675 264.403 12.476C264.403 12.8122 264.161 13.1004 263.871 13.3885C263.581 13.6767 263.098 13.7247 262.759 13.3885L262.179 12.8122C262.034 12.6201 261.986 12.2839 261.937 12.0438C261.309 9.11418 261.309 8.97011 258.263 8.92208C254.491 8.82603 250.72 8.92208 246.948 9.06616C244.772 9.16221 244.385 9.73852 244.337 11.8997C244.337 12.1879 244.337 12.9563 244.144 13.1484C243.95 13.4365 243.902 13.3885 243.563 13.5806C243.225 13.7727 242.645 13.6767 242.258 13.4365C241.871 13.1964 241.919 13.1964 241.774 13.0523C241.629 12.9082 241.774 12.2359 241.774 11.8517V11.7076L241.871 11.5635Z" fill="white"/>
<path d="M292.883 11.1797C293.753 11.2757 294.623 11.2757 295.445 11.5158C296.654 11.852 297.38 12.6204 297.331 14.0132C297.331 14.7336 297.525 15.454 297.525 16.1744C297.525 16.8948 297.621 17.5191 296.509 17.7112C295.784 17.8073 295.445 16.9908 295.3 16.5106C294.188 13.3408 294.237 13.2448 290.804 13.1968C287.274 13.1968 283.696 13.1968 280.166 13.3889C278.184 13.4849 277.749 14.0612 277.7 16.0303C277.7 16.9908 277.458 17.9033 276.346 17.8553C275.283 17.8553 275.138 16.7987 275.283 15.9823C275.476 14.7816 275.669 13.581 276.153 12.4283C276.346 11.9961 277.12 11.5639 277.652 11.5158C279.054 11.3237 280.456 11.2757 282.1 11.2277H282.922C283.696 10.9876 285.05 11.5158 285.001 10.027C285.001 9.69085 285.146 9.54677 285.146 9.54677C285.678 9.40269 285.823 9.35467 286.21 9.30664C286.5 9.30664 286.887 9.30664 286.984 9.40269C286.984 10.027 287.081 10.4112 287.129 10.9395C287.226 11.1316 287.274 11.1797 287.467 11.1797H292.931H292.883Z" fill="white"/>
<path d="M315.56 20.1125C313.142 20.6888 310.87 21.2651 308.5 21.7453C308.21 21.7453 307.727 21.7453 307.63 21.5532C307.485 21.2651 307.533 20.8329 307.678 20.5927C308.355 19.3921 309.177 18.2875 310.918 18.4315C310.966 17.8552 311.015 17.3269 311.063 16.7987C311.16 15.8381 310.87 15.3579 309.758 15.55C309.032 15.646 308.065 15.646 308.114 14.6855C308.114 14.2533 308.984 13.773 309.564 13.4368C309.903 13.2447 310.435 13.2927 310.966 13.2447V10.6513C310.338 10.7954 309.806 10.9875 309.274 10.9395C308.791 10.9395 308.065 10.7474 307.92 10.4112C307.775 10.075 308.017 9.30657 308.307 9.01842C308.791 8.58619 309.467 8.25 310.096 8.25C311.643 8.25 313.191 8.39408 314.689 8.63421C315.173 8.73026 316.043 8.77829 316.043 9.59473C316.043 10.4112 315.173 10.5072 314.593 10.5553C314.013 10.6033 313.916 10.6513 313.432 10.6513C313.384 11.2276 313.191 11.8039 313.287 12.2842C313.384 12.6684 313.771 13.0526 314.158 13.3408C314.593 13.725 315.608 13.3408 315.56 14.3013C315.56 15.2618 314.593 14.8776 314.158 15.2618C313.819 15.55 313.336 15.9342 313.287 16.2704C313.191 17.471 313.094 18.7677 314.98 18.7197C315.657 18.7197 316.188 19.248 315.608 20.0644H315.56V20.1125Z" fill="white"/>
<path d="M248.399 12.4765C249.801 12.3804 251.203 12.2363 252.557 12.2363C253.911 12.2363 256.087 12.2363 257.876 12.3324C258.795 12.3324 259.762 12.5725 259.81 13.8212C259.81 14.7817 258.746 16.2705 257.828 16.3186C254.83 16.5107 251.832 16.6067 248.834 16.7028C248.641 16.7028 248.351 16.7028 248.206 16.5107C247.529 15.9824 247.335 13.2929 248.06 12.5725M253.911 13.5811C252.847 13.5811 251.348 13.6771 250.236 13.7732C249.946 13.7732 249.85 14.0133 249.801 14.3975C249.801 14.6376 249.898 14.9258 250.236 14.9258C252.074 14.9258 254.491 14.7817 256.329 14.6857C256.667 14.6857 256.957 14.5896 257.199 14.3495C257.199 14.1094 257.199 13.9173 257.054 13.7732C256.812 13.5811 255.555 13.6291 253.911 13.5811Z" fill="white"/>
<path d="M248.447 12.3804C248.302 12.4765 248.254 12.3804 248.109 12.3804C247.964 12.2844 246.223 12.3804 246.465 11.0837C246.658 9.83503 247.722 9.54688 248.737 9.54688H258.795C259.085 9.54688 259.617 9.54688 259.762 9.78701C259.762 11.3238 258.505 11.3238 257.392 11.3238C255.265 11.3238 253.137 11.1798 251.01 11.3238C250.14 11.3238 249.463 11.8041 248.592 12.2363L248.447 12.3804Z" fill="white"/>
<path d="M286.79 9.11361C286.21 8.10506 286.452 7.6248 287.661 7.04848C288.628 6.61625 289.353 5.65573 290.223 5.03139C290.562 4.83929 291.432 4.79126 291.481 4.93534C292.206 6.47217 293.705 6.47217 295.059 6.76033C295.397 6.85638 295.784 6.85638 296.122 6.95243C297.041 7.19256 297.234 7.81691 296.606 8.5373C295.881 9.35374 294.527 9.54585 293.511 8.92151C293.076 8.68138 292.689 8.3452 292.206 8.05704H292.109C291.432 7.28861 290.9 7.6248 290.175 8.05704C289.16 8.58533 288.289 9.06559 287.226 9.44979L286.79 9.11361Z" fill="white"/>
<path d="M282.439 7.19302C281.859 7.3371 281.327 7.43315 280.891 7.72131C280.118 8.2496 279.441 8.96999 278.619 9.45025C277.7 10.0266 276.636 9.5463 276.298 8.58578C275.96 7.52921 276.733 7.3371 277.507 7.00091C278.619 6.47262 279.683 5.75223 280.746 5.1279C281.085 4.9358 281.52 4.64764 281.81 4.74369C282.922 5.1279 284.034 5.56013 285.05 6.13644C285.437 6.32854 286.113 6.80881 285.823 7.38513C285.437 7.86539 284.856 7.72131 284.421 7.67329C283.793 7.67329 283.212 7.3371 282.487 7.145H282.439V7.19302Z" fill="white"/>
<path d="M207.831 24.1952C207.396 22.9945 207.735 22.3702 208.943 21.986C209.765 21.7458 210.442 21.0735 211.264 20.6412C211.7 20.4011 212.231 20.3531 212.715 20.209C212.715 20.7373 212.908 21.4577 212.667 21.7938C211.845 22.7544 210.974 23.6669 209.911 24.3873C209.475 24.6754 208.605 24.3873 207.88 24.1952H207.831Z" fill="white"/>
<path d="M217.018 20.9291C217.598 21.6495 218.13 22.2738 218.565 22.9462C218.759 23.2344 219.097 23.7146 218.855 24.0508C218.517 24.435 217.937 24.2909 217.598 24.1468C216.776 23.8107 215.954 23.3304 215.229 22.8021C214.891 22.562 214.407 21.9376 214.504 21.6975C214.649 21.2653 215.181 20.8811 215.616 20.689C215.954 20.5449 216.486 20.785 216.97 20.9291L217.018 20.9291Z" fill="white"/>
<path d="M282.777 11.0353C282.632 11.1314 282.439 11.1314 282.149 11.1794C281.907 10.7952 281.713 10.411 281.617 9.97877C281.472 9.40246 281.423 8.82614 281.423 8.24983C281.423 7.67351 282.39 7.96167 282.439 8.05772C282.68 8.53799 282.826 9.06628 282.874 9.59456C282.874 10.0268 282.777 10.459 282.729 11.0353H282.777Z" fill="white"/>
<path d="M291.819 11.0359C291.626 11.1319 291.432 11.1319 291.191 11.0359C290.079 8.44246 290.175 8.29838 292.158 8.1543C292.061 9.06679 291.916 10.0273 291.868 11.0839L291.819 11.0359Z" fill="white"/>
<path d="M287.081 11.0352C287.081 11.0352 287.177 11.0352 287.226 11.1312C287.226 11.1312 287.177 11.1312 287.081 11.0352Z" fill="white"/>
</g>
<defs>
<clipPath id="clip0_169_3298">
<rect width="332" height="29" fill="white"/>
</clipPath>
</defs>
</svg>
