<svg width="431" height="71" viewBox="0 0 431 71" fill="none" xmlns="http://www.w3.org/2000/svg">
<g clip-path="url(#clip0_1237_9700)">
<path d="M56.6165 1.29004V3.60004C52.3365 3.77004 49.5265 4.47004 48.1565 5.60004C46.7865 6.73004 46.1565 9.25004 46.1565 13.27V50.42C46.1565 57.11 43.9265 62.22 39.5065 65.72C35.0865 69.22 28.5465 71 19.9965 71C14.1565 71 9.34648 69.92 5.61648 67.66C1.88648 65.4 -0.00351683 62.57 -0.00351683 59.21C-0.0399209 58.2484 0.15549 57.2922 0.566231 56.422C0.976971 55.5518 1.59099 54.7931 2.35648 54.21C4.10185 52.8664 6.26595 52.1828 8.46648 52.28C10.6826 52.1763 12.8745 52.7786 14.7265 54C15.4603 54.51 16.0594 55.1904 16.4722 55.983C16.885 56.7755 17.0992 57.6564 17.0965 58.55C17.0614 59.9719 16.5589 61.3426 15.6665 62.45C15.0327 63.1223 14.5397 63.9145 14.2165 64.78C14.2071 65.2197 14.3223 65.653 14.5488 66.0299C14.7753 66.4068 15.1039 66.712 15.4965 66.91C16.6755 67.4171 17.9544 67.6497 19.2365 67.59C21.9965 67.59 23.9765 66.93 25.2365 65.69C26.4965 64.45 26.9965 62.31 26.9965 59.34V13.24C26.9965 9.48004 26.1665 6.99004 24.4965 5.76004C22.8265 4.53004 19.5965 3.84004 14.7965 3.60004V1.29004H56.6165Z" fill="#02328D"/>
<path d="M72.6541 11.66C72.6541 8.75004 71.8741 6.73004 70.3441 5.57004C68.8141 4.41004 66.0941 3.77004 62.1641 3.57004V1.29004H102.524V3.67004C98.2941 3.76004 95.4341 4.34004 94.0341 5.35004C92.6341 6.36004 91.9141 8.48004 91.9141 11.65V40.38C91.9141 47.54 93.1541 52.49 95.6641 55.18C98.1741 57.87 102.514 59.31 108.664 59.31C115.664 59.31 120.904 57.75 124.424 54.73C127.944 51.71 129.634 47.12 129.634 40.99V11.75C129.634 8.75004 128.864 6.75004 127.304 5.62004C125.744 4.49004 122.724 3.85004 118.304 3.68004V1.29004H144.194V3.67004C140.704 3.95004 138.284 4.67004 136.984 5.83004C135.684 6.99004 134.984 8.92004 134.984 11.74V38.05C135.091 41.4614 134.806 44.8738 134.134 48.22C133.575 50.3457 132.614 52.3449 131.304 54.11C128.864 57.35 125.304 59.77 120.634 61.51C115.225 63.2688 109.56 64.1104 103.874 64C93.1141 64 85.1541 62.22 80.1741 58.6C75.1941 54.98 72.6541 49.29 72.6541 41.52V11.66Z" fill="#02328D"/>
<path d="M149.875 62.22V60C154.025 59.85 156.875 59.18 158.435 58C159.995 56.82 160.785 54.72 160.785 51.66V11.21C160.785 8.34004 160.035 6.40004 158.575 5.43004C157.115 4.46004 154.235 3.87004 149.995 3.60004V1.29004H180.315L204.025 43.29L227.645 1.29004H257.575V3.67004C253.705 3.94004 251.045 4.61004 249.575 5.75004C248.105 6.89004 247.385 8.91004 247.385 11.75V50.91C247.385 54.68 248.055 57.09 249.385 58.16C250.715 59.23 253.385 59.84 257.495 59.97V62.23H218.075V60C222.285 59.8 225.075 59.16 226.505 58C227.935 56.84 228.585 54.57 228.585 51.15V8.92004L198.845 62.22H195.555L166.245 10.3V51.57C166.245 54.89 167.005 57.1 168.625 58.25C170.245 59.4 173.165 59.96 177.625 59.96V62.22H149.875Z" fill="#02328D"/>
<path d="M263.37 62.22V60C267.404 59.8467 270.164 59.16 271.65 57.94C273.11 56.79 273.85 54.6 273.85 51.31V13C273.85 9.24004 273.14 6.71004 271.67 5.49004C270.2 4.27004 267.43 3.65004 263.32 3.65004V1.29004H299.88C310.15 1.29004 317.96 2.50004 323.25 4.91004C328.54 7.32004 331.18 10.72 331.18 15.32C331.195 17.1084 330.757 18.8714 329.908 20.445C329.058 22.0186 327.824 23.3517 326.32 24.32C323.11 26.6 318.16 28.19 311.58 29.14C319.58 30.26 325.48 32.14 329.34 34.69C333.2 37.24 335.19 40.55 335.19 44.69C335.19 50.22 332.39 54.55 326.69 57.62C320.99 60.69 313.09 62.28 302.91 62.28L263.37 62.22ZM293.1 28.49H294.16C300.51 28.49 304.95 27.57 307.47 25.78C309.99 23.99 311.21 20.67 311.21 16.04C311.21 11.9534 310.244 8.95337 308.31 7.04004C306.4 5.20004 303.31 4.22004 299.11 4.22004C296.77 4.22004 295.19 4.58004 294.34 5.22004C293.49 5.86004 293.1 7.46004 293.1 9.91004V28.49ZM293.1 31.33V51.82C293.1 54.92 293.59 56.89 294.54 57.73C295.49 58.57 297.41 59 300.16 59C305.21 59 308.82 57.9 310.97 55.82C313.12 53.74 314.24 50.12 314.24 45.08C314.24 40.04 312.84 36.49 310.03 34.38C307.22 32.27 302.47 31.2 295.83 31.2C295.392 31.1984 294.955 31.2251 294.52 31.28C293.87 31.28 293.42 31.28 293.11 31.28" fill="#02328D"/>
<path d="M346.719 31.8798C346.685 27.1819 347.948 22.5657 350.369 18.5398C353.033 14.139 356.669 10.4069 360.999 7.62978C364.939 5.05719 369.278 3.15479 373.839 1.99978C378.828 0.637636 383.979 -0.035277 389.149 -0.000223437C394.422 -0.0421587 399.673 0.678634 404.739 2.13978C409.376 3.51679 413.765 5.62315 417.739 8.37978C421.694 11.1436 424.997 14.7372 427.419 18.9098C429.624 22.8851 430.761 27.3641 430.719 31.9098C430.733 36.6049 429.471 41.2156 427.069 45.2498C424.388 49.6213 420.767 53.3412 416.469 56.1398C412.546 58.6998 408.228 60.5984 403.689 61.7598C398.676 63.1136 393.503 63.7863 388.309 63.7598C383.012 63.7862 377.736 63.0658 372.639 61.6198C367.937 60.2746 363.499 58.1336 359.519 55.2898C355.594 52.5573 352.339 48.9708 349.999 44.7998C347.816 40.8457 346.686 36.3965 346.719 31.8798ZM409.509 31.8198C409.509 22.6198 407.679 15.5198 403.919 10.4798C400.159 5.43978 394.949 2.99978 388.239 2.99978C381.529 2.99978 376.299 5.38978 372.879 10.2498C369.459 15.1098 367.719 22.2498 367.719 31.8598C367.719 41.0198 369.569 48.0998 373.329 53.0998C377.089 58.0998 382.329 60.6398 389.069 60.6398C395.809 60.6398 400.929 58.2598 404.349 53.4198C407.769 48.5798 409.519 41.4198 409.519 31.8598" fill="#02328D"/>
</g>
<defs>
<clipPath id="clip0_1237_9700">
<rect width="430.76" height="70.96" fill="white"/>
</clipPath>
</defs>
</svg>
