<?xml version="1.0" encoding="utf-8"?>
<!-- Generator: Adobe Illustrator 25.4.1, SVG Export Plug-In . SVG Version: 6.00 Build 0)  -->
<svg version="1.1" xmlns="http://www.w3.org/2000/svg" xmlns:xlink="http://www.w3.org/1999/xlink" x="0px" y="0px"
	 viewBox="0 0 134.9 37.1" style="enable-background:new 0 0 134.9 37.1;" xml:space="preserve">
<style type="text/css">
	.st0{display:none;}
	.st1{display:inline;}
	.st2{fill:#006FBC;}
	.st3{fill:#E7310E;}
	.st4{fill-rule:evenodd;clip-rule:evenodd;fill:#006FBC;}
	.st5{fill:url(#SVGID_1_);}
	.st6{fill:url(#SVGID_00000034079471328893574440000016555083168360023683_);}
	.st7{fill:url(#SVGID_00000165222070332123333880000010222879920204740777_);}
	.st8{fill:#006EBB;}
</style>
<g id="圖層_1" class="st0">
	<g class="st1">
		<g>
			<g>
				<g>
					<path class="st2" d="M55.4,14.2v-1.9l1.6,0.1c0.3,0,0.5,0.1,0.5,0.3c0,0.1-0.1,0.3-0.3,0.5v1.1h7.7v1.6h-7.7v1.8h7V28
						c0,0.9-0.5,1.4-1.3,1.7c-0.7,0.2-1.4,0.3-2,0.3l-0.7-1.8h1.6c0.5,0,0.7-0.3,0.7-0.7v-8.4H50.2v11h-1.8V17.5h7v-1.8h-7.8v-1.6
						h7.8V14.2z M55.6,21.6l-0.9,0.6H57l1.6-2.8l1.3,0.6c0.2,0.1,0.3,0.2,0.3,0.3c0,0.2-0.1,0.3-0.3,0.4l-1,1.5H61v1.5h-3.9v1.7h4.2
						V27h-4.2v2.7h-1.7V27h-4.2v-1.6h4.2v-1.7h-3.9v-1.5H54c-0.4-0.7-0.9-1.3-1.4-1.8l1.2-0.9C54.3,20.1,55,20.8,55.6,21.6z"/>
					<path class="st2" d="M78.4,12.6c0.3,0,0.5,0.1,0.5,0.3c0,0.1-0.1,0.3-0.4,0.5v12.8h5v-9.9l1.7,0.1c0.3,0,0.5,0.1,0.5,0.3
						c0,0.1-0.1,0.3-0.4,0.5V30h-1.9v-2H71v2h-1.9V16.3l1.8,0.1c0.3,0,0.5,0.1,0.5,0.3c0,0.1-0.1,0.3-0.4,0.5v9h5.5V12.5L78.4,12.6z
						"/>
					<path class="st2" d="M98.8,12.6c0.3,0,0.5,0.1,0.5,0.2c0,0.2-0.2,0.4-0.5,0.6v1.1c0,1.5-0.1,2.9-0.3,4.1
						c0.7,1.8,1.5,3.4,2.5,4.7c1.3,1.7,3.2,3.5,5.7,5.2l-2.2,1.4c-2.4-2.2-4.1-4.1-5.2-5.8c-0.5-0.8-1-1.8-1.5-2.8
						c-0.1,0.2-0.1,0.4-0.2,0.6c-0.6,1.6-1.7,3.2-3.3,4.8c-1.1,1.1-2.5,2.2-4.1,3.2l-1.6-1.5c1.6-0.9,2.9-1.8,3.8-2.6
						c1.5-1.3,2.5-2.6,3.1-3.9c0.9-2,1.4-4.4,1.4-7.3V14c0-0.4-0.1-0.9-0.1-1.5L98.8,12.6z"/>
					<path class="st2" d="M127.2,22.7v1.4h-2.5v1.1h1.8v1.4h-1.8v1.7c0,0.7-0.2,1.1-0.5,1.4s-1,0.5-2.2,0.5l-0.7-1.7h1.1
						c0.4,0,0.6-0.2,0.6-0.6v-1.4h-5.2v-1.4h5.2V24h-13.5v-1.4h17.7V22.7z M127.2,16.9v2.8h-1.8v-1.5h-15.2v-1.3H127.2z M117.5,13.1
						v-1l1.6,0.1c0.3,0,0.5,0.1,0.5,0.3c0,0.1-0.1,0.3-0.3,0.5v0.1h6.7v1.3h-6.7V15h5.6v1.2H112V15h5.6v-0.6h-6.7v-1.3
						C110.9,13.1,117.5,13.1,117.5,13.1z M124.4,18.7v1.2h-5.2v0.8h6.4V22H111v-1.3h6.4v-0.8H112v-1.2H124.4z M116.7,24.8v4.9H115
						V29h-2.2v0.5h-1.7v-4.8L116.7,24.8L116.7,24.8z M115,27.6v-1.5h-2.2v1.5H115z M120.8,28.3l-1.2,1c-0.5-0.7-1-1.3-1.5-1.7
						l1.1-0.9C119.8,27.1,120.3,27.6,120.8,28.3z"/>
				</g>
			</g>
		</g>
		<g>
			<g>
				<path class="st3" d="M11.6,16.2L9,13.9l0.4-0.5l2.6,0.5l-1.7-1.5l0.4-0.5l2.6,2.3l-0.5,0.5l-2.6-0.4l1.7,1.5L11.6,16.2z"/>
				<path class="st3" d="M16.7,11.7l-0.6,0.4l-0.7-0.5l-1.1,0.8l0.2,0.8l-0.6,0.4L13.1,10l0.6-0.4L16.7,11.7z M14.9,11.3l-1.1-0.8
					l0.3,1.3L14.9,11.3z"/>
				<path class="st3" d="M17.4,11.5l-1.1-3.2L16.9,8L19,9.7l-0.7-2.2l0.6-0.2l1.1,3.2l-0.7,0.2l-2-1.7l0.7,2.1L17.4,11.5z"/>
				<path class="st3" d="M22.6,9.1h0.7c0,0.2,0.1,0.4,0.2,0.5s0.3,0.2,0.5,0.2s0.4,0,0.5-0.1s0.2-0.2,0.2-0.3s0-0.2-0.1-0.2
					c0-0.1-0.1-0.1-0.2-0.2c-0.1,0-0.3-0.1-0.5-0.2c-0.4-0.1-0.6-0.2-0.8-0.4c-0.2-0.2-0.3-0.4-0.3-0.7c0-0.2,0.1-0.3,0.2-0.5
					c0.1-0.1,0.3-0.3,0.4-0.3c0.2-0.1,0.4-0.1,0.7-0.1c0.4,0,0.7,0.1,1,0.3c0.2,0.2,0.3,0.5,0.3,0.8h-0.7c0-0.2-0.1-0.3-0.2-0.4
					s-0.2-0.1-0.4-0.1c-0.2,0-0.4,0-0.5,0.1c-0.1,0-0.1,0.1-0.1,0.2s0,0.2,0.1,0.2c0.1,0.1,0.3,0.2,0.6,0.3c0.3,0.1,0.6,0.2,0.7,0.3
					c0.2,0.1,0.3,0.2,0.4,0.4s0.1,0.3,0.1,0.5s-0.1,0.4-0.2,0.5c-0.1,0.2-0.3,0.3-0.5,0.4c-0.2,0.1-0.5,0.1-0.8,0.1
					c-0.4,0-0.8-0.1-1-0.4C22.7,9.8,22.6,9.5,22.6,9.1z"/>
				<path class="st3" d="M26.2,10.6l1.1-3.2L28,7.6l-0.4,1.3l1.3,0.4L29.2,8l0.7,0.2l-1.1,3.2l-0.7-0.2l0.5-1.4l-1.3-0.4l-0.5,1.4
					L26.2,10.6z"/>
				<path class="st3" d="M32.3,13.6l-0.6-0.4l0.2-0.8l-1.1-0.8L30,12.1l-0.6-0.4l3-2.1L33,10L32.3,13.6z M32,11.8l0.3-1.3l-1.1,0.8
					L32,11.8z"/>
				<path class="st3" d="M32.8,14.1l2.6-2.2l0.4,0.5L35,14.9l1.7-1.5l0.4,0.5l-2.6,2.2L34,15.6l0.8-2.5l-1.7,1.5L32.8,14.1z"/>
			</g>
			<path class="st4" d="M19.9,19.4l-2.1-2.3l-12,13c0.5,0,1,0,1.5,0l10.6-11.4L20,21l5.1-5.5l13.6,14.7c0.5,0,1,0,1.5,0L25,13.8
				L19.9,19.4z"/>
			
				<linearGradient id="SVGID_1_" gradientUnits="userSpaceOnUse" x1="13.639" y1="13.0017" x2="32.4702" y2="10.667" gradientTransform="matrix(1 0 0 -1 0 37.89)">
				<stop  offset="0" style="stop-color:#00A0E9"/>
				<stop  offset="0.2354" style="stop-color:#0080C6"/>
				<stop  offset="0.4929" style="stop-color:#005FA2"/>
				<stop  offset="0.7156" style="stop-color:#00478A"/>
				<stop  offset="0.892" style="stop-color:#00397D"/>
				<stop  offset="1" style="stop-color:#003378"/>
			</linearGradient>
			<polygon class="st5" points="27.2,25.2 22.5,20.2 17.5,25.5 15.4,23.2 9,30.1 36.6,30.1 29.6,22.6 			"/>
		</g>
	</g>
</g>
<g id="圖層_2">
	<g>
		<g>
			
				<linearGradient id="SVGID_00000022546292104967522530000015052553164221771416_" gradientUnits="userSpaceOnUse" x1="18.0177" y1="14.678" x2="25.4947" y2="32.8186">
				<stop  offset="3.358998e-03" style="stop-color:#F9BE00"/>
				<stop  offset="5.570622e-02" style="stop-color:#E7BD06"/>
				<stop  offset="0.1613" style="stop-color:#B7BC15"/>
				<stop  offset="0.3" style="stop-color:#6FB92C"/>
				<stop  offset="0.5181" style="stop-color:#44975F"/>
				<stop  offset="0.7342" style="stop-color:#1F7A8B"/>
				<stop  offset="0.9016" style="stop-color:#0869A6"/>
				<stop  offset="1" style="stop-color:#0062B0"/>
			</linearGradient>
			<polygon style="fill:url(#SVGID_00000022546292104967522530000015052553164221771416_);" points="17.8,13.8 20.2,16.4 26.4,9.7 
				44.5,29.2 46.4,29.2 26.4,7.7 20.2,14.4 17.8,11.8 1.7,29.2 3.5,29.2 			"/>
			
				<linearGradient id="SVGID_00000154387771287158950470000000873335162610015105_" gradientUnits="userSpaceOnUse" x1="17.1386" y1="18.7242" x2="25.2728" y2="31.1545">
				<stop  offset="0" style="stop-color:#E0E200"/>
				<stop  offset="0.21" style="stop-color:#7FBE26"/>
				<stop  offset="0.319" style="stop-color:#5FA749"/>
				<stop  offset="0.4578" style="stop-color:#3D8E6E"/>
				<stop  offset="0.5967" style="stop-color:#227B8B"/>
				<stop  offset="0.7342" style="stop-color:#0F6D9F"/>
				<stop  offset="0.8695" style="stop-color:#0465AC"/>
				<stop  offset="1" style="stop-color:#0062B0"/>
			</linearGradient>
			<polygon style="fill:url(#SVGID_00000154387771287158950470000000873335162610015105_);" points="32.6,18.5 29.5,21.8 23.6,15.4 
				17.3,22.2 14.6,19.3 5.4,29.2 42.6,29.2 			"/>
		</g>
		<g>
			<path class="st8" d="M64.7,25.4c0.3,0,0.6-0.3,0.6-0.6v-0.5h-4.8V22h3.9c0.3,0,0.6-0.3,0.6-0.6v-0.5h-2.5l1.1-2.3h-1.4
				c-0.4,0-0.7,0.2-0.8,0.5l-0.9,1.8h-2.1l-0.9-1.8c-0.2-0.3-0.5-0.5-0.8-0.5h-1.4l1.1,2.3H54V22h4.5v2.2h-4.8v1.2h4.8v3.8H60
				c0.3,0,0.5-0.2,0.5-0.5v-3.3H64.7z"/>
			<path class="st8" d="M60.5,12.5h-1.4c-0.3,0-0.5,0.2-0.5,0.5v1.1h-7.7v1.3h7.7v1.3h-6c-0.7,0-1.2,0.5-1.2,1.2v11.4h1.4
				c0.3,0,0.5-0.2,0.5-0.5V18c0-0.1,0.1-0.2,0.2-0.2h12.2c0.1,0,0.2,0.1,0.2,0.2l0,8.6c0,0.6-0.5,1.1-1.5,1.7l1,1
				c0.1,0.1,0.3,0.2,0.4,0.2c0.1,0,0.2,0,0.3-0.1c1.2-0.6,1.7-1.3,1.7-2.5v-8.9c0-0.7-0.6-1.2-1.2-1.2h-6v-1.3h7.1
				c0.3,0,0.6-0.3,0.6-0.6v-0.7h-7.7V12.5z"/>
			<path class="st8" d="M87.3,16.1v11.4c0,0.1-0.1,0.3-0.3,0.3h-4.8V12.8h-1.3c-0.4,0-0.8,0.3-0.8,0.8v14.1h-4.8
				c-0.1,0-0.3,0-0.3-0.2V15.3h-1.3c-0.4,0-0.8,0.3-0.8,0.8v11.7c0,0.8,0.7,1.5,1.5,1.5h13.2c0.8,0,1.5-0.7,1.5-1.5V15.3h-1.2
				C87.7,15.3,87.3,15.7,87.3,16.1z"/>
			<path class="st8" d="M104.6,22.1c-1.2-2-1.8-4.2-1.8-6.4v-3h-1.3c-0.5,0-0.8,0.4-0.8,0.8v2.3c0,3.8-2.1,9-7.6,12.4l0.6,0.6
				c0.1,0.2,0.3,0.2,0.5,0.2c0.1,0,0.3,0,0.4-0.1c3.1-1.9,5.2-4,6.6-6.3c0.4-0.6,0.7-1.3,0.9-1.9c0.3,1,0.8,2,1.4,3
				c1,1.7,2.8,4,5.5,5.3c0.1,0,0.2,0.1,0.3,0.1c0.2,0,0.4-0.1,0.6-0.3l1-1.2C108.1,26.2,106,24.3,104.6,22.1z"/>
			<path class="st8" d="M113.8,23.9h13l0,0.8h-5v1h5l0,1.1c0,0.5-0.2,0.8-1.1,1.4l1,0.9c0.1,0.1,0.2,0.1,0.4,0.1
				c0.1,0,0.2,0,0.3-0.1c1.1-0.5,1.3-1.1,1.3-2.2v-1.3h1.2c0.3,0,0.6-0.3,0.6-0.6v-0.4h-1.8v-0.8h1.2c0.3,0,0.6-0.3,0.6-0.6v-0.5
				h-16.7V23.9z"/>
			<path class="st8" d="M114.4,20.9V22h15c0.3,0,0.6-0.3,0.6-0.6v-0.5h-6.8v-1h4c0.3,0,0.6-0.3,0.6-0.6v-0.5H116v1.1h5.4v1H114.4z"
				/>
			<path class="st8" d="M121.4,15.4h-5.5v1.1H128c0.3,0,0.6-0.3,0.6-0.6v-0.5h-5.5v-0.9h6.1c0.3,0,0.6-0.3,0.6-0.6v-0.5h-6.7v-0.9
				h-1c-0.4,0-0.8,0.4-0.8,0.8v0.1h-6.7v1.1h6.7V15.4z"/>
			<path class="st8" d="M120.3,24.7h-4.8c-0.5,0-0.9,0.4-0.9,0.9v2.7c0,0.5,0.4,0.9,0.9,0.9h4.8c0.5,0,0.9-0.4,0.9-0.9v-2.7
				C121.2,25.1,120.8,24.7,120.3,24.7z M119.5,28.2h-3.1v-2.5h3.1V28.2z"/>
			<path class="st8" d="M123.6,26.4h-1.1l1,2.2c0.2,0.3,0.5,0.6,0.9,0.6h1.1l-1-2.2C124.3,26.6,124,26.4,123.6,26.4z"/>
			<path class="st8" d="M130.4,17.4c-0.2-0.2-0.4-0.3-0.7-0.3h-15.5v1.1h14.5l-0.4,1.8h1.1c0.4,0,0.7-0.2,0.8-0.6l0.3-1.3
				C130.6,17.9,130.6,17.6,130.4,17.4z"/>
		</g>
	</g>
</g>
</svg>
