<svg width="180" height="49" viewBox="0 0 180 49" fill="none" xmlns="http://www.w3.org/2000/svg">
<g clip-path="url(#clip0_533_3967)">
<path d="M47.9 42.23L48.71 42.57C48.83 42.62 48.9 42.69 48.9 42.76C48.9 42.86 48.83 42.93 48.68 42.98C48.5 42.98 48.38 43.05 48.33 43.21C48.3 43.27 48.27 43.33 48.24 43.4H51.52V42.24C51.52 42.13 51.59 42.08 51.74 42.08C52.4 42.08 52.73 42.14 52.73 42.24C52.73 42.37 52.69 42.43 52.61 42.44C52.52 42.44 52.48 42.54 52.48 42.71V43.4H56.52C56.62 43.4 56.67 43.47 56.67 43.61V44.03C56.67 44.17 56.62 44.24 56.52 44.24H52.48V45.49H56.04C56.15 45.49 56.2 45.56 56.2 45.71V46.13C56.2 46.27 56.15 46.34 56.04 46.34H52.48V47.65H57.62C57.72 47.65 57.77 47.72 57.77 47.85V48.27C57.77 48.41 57.72 48.49 57.62 48.49H45.97C45.87 48.49 45.82 48.42 45.82 48.27V47.85C45.82 47.72 45.87 47.65 45.97 47.65H51.53V46.34H47.92C47.81 46.34 47.76 46.27 47.76 46.13V45.71C47.76 45.57 47.81 45.49 47.92 45.49H51.53V44.24H47.84C47.5 44.86 47.16 45.37 46.83 45.77C46.71 45.9 46.62 45.97 46.55 45.97C46.49 45.97 46.41 45.93 46.32 45.86C46.13 45.77 45.95 45.69 45.78 45.6C45.7 45.57 45.66 45.55 45.66 45.53C45.66 45.49 45.69 45.45 45.74 45.4C46.25 44.87 46.64 44.41 46.89 44.02C47.27 43.5 47.54 42.98 47.71 42.46C47.77 42.31 47.84 42.23 47.91 42.23H47.9ZM47.68 37.03H55.82C55.95 37.03 56.02 37.08 56.02 37.19V41.49C56.02 41.6 55.95 41.65 55.82 41.65H47.68C47.55 41.65 47.48 41.6 47.48 41.49V37.19C47.48 37.08 47.55 37.03 47.68 37.03ZM48.42 38.92H55.08V37.82H48.42V38.92ZM55.08 40.87V39.77H48.42V40.87H55.08Z" fill="black"/>
<path d="M63.18 39.92V41.18C63.18 42.19 63.15 43.06 63.09 43.8H65.86V42.39H64.03C63.92 42.39 63.87 42.32 63.87 42.18V41.76C63.87 41.62 63.92 41.55 64.03 41.55H65.86V40.5C65.86 40.4 65.93 40.35 66.08 40.35C66.74 40.35 67.07 40.4 67.07 40.5C67.07 40.63 67.03 40.69 66.95 40.7C66.86 40.7 66.82 40.8 66.82 40.97V41.55H69.44V40.5C69.44 40.4 69.51 40.35 69.65 40.35C70.31 40.35 70.64 40.4 70.64 40.5C70.64 40.63 70.6 40.69 70.51 40.7C70.42 40.7 70.38 40.8 70.38 40.97V41.55H72.43C72.53 41.55 72.58 41.62 72.58 41.76V42.18C72.58 42.32 72.53 42.39 72.43 42.39H70.38V43.8H73.07C73.17 43.8 73.22 43.87 73.22 44.01V44.43C73.22 44.57 73.17 44.64 73.07 44.64H68.8C69.01 45.06 69.2 45.39 69.38 45.63C69.61 45.99 69.91 46.31 70.27 46.61C70.29 46.63 70.31 46.65 70.32 46.66C70.87 46.25 71.34 45.85 71.73 45.48C71.82 45.41 71.9 45.37 71.97 45.37C72.02 45.37 72.08 45.4 72.14 45.46C72.65 45.83 72.91 46.06 72.91 46.14C72.91 46.25 72.86 46.3 72.75 46.3L72.44 46.25C72.35 46.25 72.25 46.29 72.13 46.37C71.82 46.58 71.44 46.85 71.02 47.17C71.1 47.22 71.18 47.28 71.26 47.33C71.57 47.5 71.93 47.66 72.33 47.83C72.52 47.88 72.74 47.95 73 48.02C73.08 48.02 73.12 48.04 73.12 48.09C73.12 48.16 73.08 48.22 73 48.28C72.87 48.45 72.73 48.61 72.6 48.76C72.55 48.83 72.48 48.87 72.39 48.87C71.76 48.66 71.21 48.41 70.72 48.12C70.29 47.84 69.94 47.58 69.67 47.34C69.31 47.01 69 46.65 68.74 46.25C68.44 45.83 68.14 45.29 67.83 44.63H66.14V47.38C66.96 47.25 67.74 47.1 68.48 46.95C68.5 46.95 68.52 46.94 68.56 46.94C68.62 46.94 68.65 46.98 68.65 47.05C68.65 47.49 68.64 47.73 68.61 47.78C67.16 48.06 65.69 48.3 64.19 48.52C64.06 48.76 63.96 48.88 63.88 48.88C63.8 48.88 63.62 48.51 63.36 47.78C63.89 47.73 64.5 47.64 65.2 47.54V44.64H63.01C62.99 44.77 62.97 44.9 62.96 45.02C62.85 45.81 62.64 46.59 62.33 47.37C62.17 47.84 61.94 48.3 61.63 48.74C61.57 48.74 61.52 48.74 61.5 48.71C61.36 48.57 61.2 48.44 61.02 48.33C60.98 48.29 60.95 48.23 60.95 48.16C61.22 47.76 61.46 47.21 61.66 46.52C61.88 45.79 62.03 45.02 62.12 44.22C62.22 43.39 62.27 42.37 62.27 41.17V37.18C62.27 37.04 62.34 36.98 62.48 36.98H72.28C72.42 36.98 72.5 37.03 72.5 37.13V39.71C72.5 39.84 72.43 39.91 72.28 39.91H63.2L63.18 39.92ZM63.18 37.83V39.09H71.52V37.83H63.18ZM66.8 43.81H69.42V42.4H66.8V43.81Z" fill="black"/>
<path d="M78.36 44.0201H87.11C87.25 44.0201 87.32 44.0701 87.32 44.1801V46.2801C87.32 46.3901 87.25 46.4401 87.11 46.4401H85.16L85.71 46.6501C85.84 46.7101 85.9 46.7801 85.9 46.8501C85.9 46.8901 85.86 46.9301 85.79 46.9401C85.69 46.9401 85.63 46.9801 85.62 47.0501C85.49 47.3101 85.35 47.5401 85.22 47.7401H88.58C88.65 47.7401 88.69 47.7901 88.69 47.9001V48.3201C88.69 48.4601 88.65 48.5301 88.58 48.5301H76.74C76.67 48.5301 76.63 48.4601 76.63 48.3201V47.9001C76.63 47.7901 76.67 47.7401 76.74 47.7401H80.33C80.33 47.7401 80.28 47.6701 80.26 47.6301C80.08 47.3301 79.85 47.0401 79.58 46.7401C79.58 46.7001 79.74 46.5901 80.05 46.4301H78.37C78.23 46.4301 78.16 46.3801 78.16 46.2701V44.1701C78.16 44.0601 78.23 44.0101 78.37 44.0101L78.36 44.0201ZM78.31 37.5201H79.52V36.8401C79.52 36.7701 79.59 36.7301 79.72 36.7301C80.28 36.7301 80.57 36.7701 80.57 36.8401C80.57 36.9501 80.53 37.0101 80.46 37.0201C80.39 37.0201 80.35 37.1101 80.35 37.2601V37.5301H81.67C81.74 37.5301 81.78 37.5801 81.78 37.6801V38.0001C81.78 38.1301 81.74 38.2001 81.67 38.2001H80.35V38.7201H81.67C81.74 38.7201 81.78 38.7701 81.78 38.8801V39.2001C81.78 39.3301 81.74 39.4001 81.67 39.4001H80.35V39.9801H81.67C81.74 39.9801 81.78 40.0301 81.78 40.1401V40.4501C81.78 40.5901 81.74 40.6601 81.67 40.6601H80.35V41.1801H82.19V36.6701C82.19 36.6001 82.24 36.5601 82.35 36.5601C82.98 36.5601 83.29 36.6101 83.29 36.7201C83.29 36.8301 83.25 36.8801 83.18 36.8901C83.11 36.8901 83.07 36.9801 83.07 37.1301V41.1701H84.75V40.6501H83.7C83.63 40.6501 83.59 40.5801 83.59 40.4401V40.1301C83.59 40.0201 83.63 39.9701 83.7 39.9701H84.75V39.3901H83.7C83.63 39.3901 83.59 39.3201 83.59 39.1901V38.8701C83.59 38.7601 83.63 38.7101 83.7 38.7101H84.75V38.1901H83.7C83.63 38.1901 83.59 38.1201 83.59 37.9901V37.6701C83.59 37.5701 83.63 37.5201 83.7 37.5201H84.75V36.8401C84.75 36.7701 84.82 36.7301 84.97 36.7301C85.53 36.7301 85.8 36.7701 85.8 36.8401C85.8 36.9501 85.77 37.0101 85.71 37.0201C85.64 37.0201 85.6 37.1101 85.6 37.2601V37.5301H86.9C86.97 37.5301 87.01 37.5801 87.01 37.6801V38.0001C87.01 38.1301 86.97 38.2001 86.9 38.2001H85.6V38.7201H86.9C86.97 38.7201 87.01 38.7701 87.01 38.8801V39.2001C87.01 39.3301 86.97 39.4001 86.9 39.4001H85.6V39.9801H86.9C86.97 39.9801 87.01 40.0301 87.01 40.1401V40.4501C87.01 40.5901 86.97 40.6601 86.9 40.6601H85.6V41.1801H87.39V37.0301C87.39 36.9701 87.44 36.9401 87.54 36.9401C88.18 36.9401 88.49 36.9901 88.49 37.0901C88.49 37.2001 88.45 37.2601 88.38 37.2801C88.31 37.2801 88.27 37.3701 88.27 37.5201V41.7601C88.27 41.9001 88.2 41.9801 88.05 41.9801H77.11C77 41.9801 76.95 41.9101 76.95 41.7601V37.0301C76.95 36.9701 77 36.9401 77.11 36.9401C77.73 36.9401 78.04 36.9901 78.04 37.0901C78.04 37.2001 78 37.2601 77.93 37.2801C77.87 37.2801 77.84 37.3701 77.84 37.5201V41.1901H79.52V40.6701H78.31C78.24 40.6701 78.2 40.6001 78.2 40.4601V40.1501C78.2 40.0401 78.24 39.9901 78.31 39.9901H79.52V39.4101H78.31C78.24 39.4101 78.2 39.3401 78.2 39.2101V38.8901C78.2 38.7801 78.24 38.7301 78.31 38.7301H79.52V38.2101H78.31C78.24 38.2101 78.2 38.1401 78.2 38.0101V37.6901C78.2 37.5901 78.24 37.5401 78.31 37.5401V37.5201ZM77.1 42.6101H88.27C88.34 42.6101 88.38 42.6601 88.38 42.7601V43.1801C88.38 43.3201 88.34 43.4001 88.27 43.4001H77.1C77.03 43.4001 76.99 43.3301 76.99 43.1801V42.7601C76.99 42.6601 77.03 42.6101 77.1 42.6101ZM86.38 45.7001V44.7601H79.09V45.7001H86.38ZM81.28 47.7401H84.03C84.21 47.5401 84.35 47.3601 84.45 47.2001C84.62 46.9501 84.75 46.6901 84.83 46.4401H80.34C80.59 46.7201 80.8 46.9801 80.96 47.2201C81.08 47.3901 81.19 47.5701 81.28 47.7401Z" fill="black"/>
<path d="M93.48 44.7H102.56C102.7 44.7 102.77 44.75 102.77 44.85V47.68H104.02C104.13 47.68 104.18 47.75 104.18 47.89V48.31C104.18 48.45 104.13 48.52 104.02 48.52H92.23C92.12 48.52 92.07 48.45 92.07 48.31V47.89C92.07 47.75 92.12 47.68 92.23 47.68H93.28V44.9C93.28 44.76 93.35 44.7 93.48 44.7ZM94.11 38.82V40.08H97.57C97.68 40.08 97.73 40.15 97.73 40.29C97.71 41.18 97.67 41.81 97.6 42.2C97.52 42.67 97.41 43.01 97.26 43.23C97.13 43.47 96.78 43.59 96.2 43.59C95.62 43.59 95.36 43.51 95.34 43.35C95.3 43.16 95.19 42.94 95 42.69V42.6H96.2C96.41 42.6 96.55 42.52 96.62 42.37C96.68 42.25 96.74 42.03 96.78 41.7C96.82 41.52 96.84 41.26 96.86 40.92H94.09C94.05 41.48 93.99 41.95 93.9 42.33C93.82 42.81 93.65 43.29 93.4 43.77C93.27 44.06 93.08 44.33 92.84 44.59C92.79 44.59 92.74 44.59 92.71 44.56C92.57 44.43 92.41 44.3 92.23 44.2C92.19 44.16 92.18 44.09 92.18 44.01C92.38 43.78 92.56 43.46 92.72 43.07C92.88 42.66 93 42.22 93.07 41.77C93.14 41.3 93.18 40.71 93.18 40.03V38.19C93.18 38.06 93.25 37.99 93.38 37.99H98.56C98.53 37.57 98.52 37.09 98.52 36.57C98.52 36.44 98.57 36.37 98.68 36.37L99.75 36.49C99.88 36.51 99.94 36.55 99.94 36.62C99.94 36.77 99.86 36.85 99.71 36.85C99.55 36.91 99.47 37.19 99.47 37.67V37.99H101.83C101.67 37.87 101.5 37.76 101.33 37.65C101.04 37.46 100.81 37.33 100.62 37.25C100.62 37.21 100.75 37.01 101.02 36.66C101.06 36.6 101.1 36.57 101.14 36.57C101.52 36.78 101.84 36.97 102.08 37.15C102.37 37.36 102.61 37.56 102.82 37.73C102.82 37.75 102.8 37.79 102.75 37.85C102.71 37.9 102.67 37.95 102.64 38H103.75C103.86 38 103.91 38.07 103.91 38.2V38.63C103.91 38.76 103.86 38.83 103.75 38.83H99.49C99.53 39.2 99.57 39.52 99.64 39.81C99.74 40.3 99.92 40.78 100.18 41.23C100.3 41.48 100.44 41.71 100.62 41.93C100.89 41.64 101.13 41.32 101.33 40.95C101.58 40.57 101.77 40.15 101.89 39.72C101.92 39.66 101.97 39.63 102.06 39.63C102.76 39.86 103.11 40.02 103.11 40.1C103.11 40.19 103.06 40.26 102.95 40.31C102.82 40.31 102.73 40.35 102.68 40.43C102.42 40.99 102.12 41.51 101.77 41.97C101.6 42.19 101.43 42.38 101.26 42.56C101.52 42.78 101.81 42.96 102.15 43.12C102.35 43.19 102.48 43.23 102.54 43.23C102.68 43.23 102.8 43.18 102.88 43.07C103.01 42.91 103.18 42.57 103.39 42.06C103.39 42.01 103.43 41.98 103.48 41.98C103.52 41.98 103.56 42 103.6 42.05C103.78 42.16 103.93 42.25 104.06 42.33C104.13 42.37 104.17 42.42 104.17 42.51C103.99 43.05 103.77 43.48 103.51 43.8C103.26 44.13 102.99 44.3 102.7 44.3C102.35 44.3 101.99 44.22 101.61 44.05C101.19 43.82 100.82 43.57 100.51 43.27C100 43.65 99.4 43.99 98.71 44.32C98.64 44.34 98.57 44.35 98.49 44.35C98.39 44.35 98.31 44.3 98.25 44.2C98.15 44.07 98.04 43.95 97.93 43.85C97.85 43.81 97.81 43.75 97.81 43.67C97.81 43.64 97.85 43.62 97.92 43.6C98.21 43.53 98.49 43.41 98.78 43.25C99.19 43.05 99.56 42.82 99.89 42.56C99.68 42.27 99.48 41.94 99.31 41.58C99.01 40.89 98.79 40.12 98.65 39.28C98.63 39.14 98.61 38.99 98.6 38.82H94.09H94.11ZM94.22 47.68H96.11V45.53H94.22V47.68ZM97.05 47.68H98.94V45.53H97.05V47.68ZM99.88 47.68H101.81V45.53H99.88V47.68Z" fill="black"/>
<path d="M112.86 37.61C112.39 37.83 111.82 38.02 111.13 38.16V40.19H113.55C113.66 40.19 113.71 40.26 113.71 40.39V40.82C113.71 40.96 113.66 41.02 113.55 41.02H111.43C111.67 41.55 111.89 41.96 112.09 42.27C112.36 42.71 112.81 43.21 113.45 43.77C113.52 43.81 113.56 43.85 113.56 43.9C113.56 43.93 113.53 43.97 113.47 44.02C113.37 44.14 113.24 44.28 113.08 44.42C113.03 44.49 112.98 44.53 112.93 44.53C112.88 44.53 112.82 44.5 112.73 44.45C112.29 44.02 111.91 43.54 111.58 43C111.44 42.75 111.29 42.48 111.15 42.2V48.63C111.15 48.73 111.08 48.78 110.95 48.78H110.43C110.29 48.78 110.21 48.73 110.21 48.63V42.66C110.12 42.88 110.03 43.08 109.94 43.25C109.68 43.8 109.4 44.32 109.09 44.79C108.75 45.31 108.41 45.75 108.06 46.11C107.96 46.11 107.88 46.08 107.82 46.03C107.65 45.87 107.48 45.72 107.31 45.57C107.28 45.51 107.27 45.46 107.27 45.42C107.6 45.13 107.87 44.84 108.09 44.56C108.39 44.18 108.72 43.67 109.06 43.02C109.27 42.63 109.54 41.96 109.89 41.02H107.8C107.7 41.02 107.65 40.95 107.65 40.82V40.39C107.65 40.26 107.7 40.19 107.8 40.19H110.22V38.32C109.58 38.41 108.91 38.46 108.23 38.46C108.1 38.46 108.03 38.4 108 38.28C107.89 38.08 107.79 37.91 107.7 37.77C107.7 37.64 107.75 37.57 107.85 37.57C109.02 37.57 109.86 37.52 110.35 37.42C111.15 37.33 111.84 37.11 112.42 36.78C112.48 36.74 112.55 36.73 112.64 36.73C112.68 36.73 112.74 36.77 112.81 36.84C113.18 37.25 113.36 37.48 113.36 37.52C113.36 37.62 113.33 37.67 113.27 37.67L112.89 37.62L112.86 37.61ZM115.91 36.62C116.75 36.89 117.17 37.06 117.17 37.14C117.17 37.26 117.11 37.31 116.98 37.31C116.85 37.31 116.79 37.36 116.79 37.46C116.45 39.27 116.01 41.32 115.47 43.61C115.17 44.9 114.86 46.09 114.53 47.18C115.79 47.02 117.05 46.8 118.32 46.53C118.04 45.64 117.67 44.74 117.21 43.84C117.21 43.78 117.46 43.62 117.95 43.37C118.41 44.35 118.79 45.24 119.08 46.07C119.36 46.81 119.59 47.61 119.79 48.46C119.79 48.5 119.49 48.58 118.89 48.73C118.85 48.34 118.75 47.91 118.61 47.43C117.09 47.75 115.4 48.05 113.55 48.32C113.47 48.32 113.4 48.39 113.34 48.52C113.3 48.63 113.21 48.68 113.08 48.68C112.97 48.68 112.74 48.26 112.39 47.42C112.77 47.38 113.16 47.34 113.54 47.3C114.18 45.04 114.75 42.66 115.26 40.16C115.48 39.01 115.66 37.88 115.78 36.79C115.78 36.67 115.83 36.62 115.9 36.62H115.91Z" fill="black"/>
<path d="M128.57 36.56C129.55 36.65 130.03 36.72 130.03 36.78C130.03 36.85 129.97 36.92 129.86 36.98C129.68 37.05 129.58 37.21 129.56 37.46C129.54 38.13 129.51 38.76 129.47 39.34C129.5 40.16 129.58 40.91 129.73 41.57C129.91 42.31 130.15 43.01 130.44 43.66C130.7 44.21 131.02 44.74 131.41 45.23C131.91 45.86 132.43 46.35 132.95 46.72C133.58 47.18 134.3 47.56 135.13 47.83C135.13 47.91 135.09 47.98 135 48.03C134.83 48.22 134.67 48.41 134.53 48.59C134.44 48.68 134.38 48.72 134.34 48.72C133.22 48.16 132.5 47.72 132.16 47.4C131.61 47.02 131.13 46.53 130.7 45.91C130.28 45.37 129.92 44.79 129.61 44.15C129.37 43.68 129.16 43.12 128.99 42.5C128.95 42.63 128.91 42.76 128.87 42.89C128.67 43.6 128.44 44.2 128.17 44.7C127.87 45.37 127.47 45.97 126.97 46.5C126.59 46.89 126.18 47.24 125.72 47.56C125.16 48 124.47 48.38 123.64 48.71C123.57 48.71 123.51 48.66 123.45 48.56C123.31 48.4 123.14 48.23 122.95 48.05C122.88 47.98 122.84 47.93 122.84 47.92C122.84 47.87 122.87 47.84 122.93 47.84C123.75 47.5 124.33 47.22 124.65 46.99C125.12 46.71 125.58 46.36 126.02 45.92C126.49 45.47 126.89 44.94 127.22 44.32C127.55 43.74 127.8 43.13 127.97 42.48C128.17 41.93 128.29 41.31 128.33 40.64C128.45 39.91 128.5 38.77 128.5 37.21C128.5 36.99 128.48 36.79 128.45 36.63C128.45 36.56 128.49 36.52 128.56 36.52L128.57 36.56Z" fill="black"/>
<path d="M144.27 36.62C144.94 36.62 145.28 36.67 145.28 36.78C145.28 36.9 145.24 36.96 145.14 36.98C145.05 36.98 145.01 37.08 145.01 37.25V37.83H149.83C149.97 37.83 150.04 37.88 150.04 37.99V40.39C150.04 40.5 149.97 40.55 149.83 40.55H149.31C149.18 40.55 149.11 40.5 149.11 40.39V38.67H143.24L143.99 39.02C144.08 39.08 144.12 39.14 144.12 39.2C144.12 39.3 144.03 39.35 143.85 39.35C143.71 39.35 143.6 39.4 143.54 39.48C143.45 39.61 143.37 39.72 143.3 39.82H147.52C147.62 39.82 147.7 39.85 147.76 39.91C147.96 40.14 148.06 40.29 148.06 40.35C147.66 41.02 147.28 41.54 146.92 41.89C146.54 42.3 146.14 42.65 145.74 42.94C146.43 43.24 147.16 43.49 147.94 43.66C148.63 43.84 149.47 43.99 150.46 44.1C150.64 44.1 150.73 44.14 150.73 44.22C150.73 44.27 150.7 44.34 150.64 44.42C150.49 44.61 150.35 44.8 150.24 44.98C150.21 45.06 150.15 45.1 150.05 45.1C148.74 44.86 147.72 44.62 147.02 44.39C146.25 44.16 145.59 43.91 145.03 43.64C144.93 43.6 144.84 43.55 144.75 43.51C144.5 43.64 144.22 43.78 143.9 43.9C143.15 44.2 142.31 44.46 141.39 44.68C140.78 44.84 139.98 44.99 138.99 45.11C138.86 45.11 138.77 45.07 138.71 44.98C138.6 44.81 138.49 44.64 138.39 44.47C138.34 44.42 138.31 44.37 138.31 44.32C138.31 44.28 138.35 44.26 138.44 44.25C139.06 44.18 139.67 44.09 140.27 43.98C141.4 43.78 142.33 43.54 143.06 43.24C143.32 43.14 143.57 43.04 143.8 42.93C143.66 42.83 143.52 42.73 143.4 42.63C143 42.34 142.52 41.89 141.98 41.27C141.72 41.5 141.46 41.71 141.2 41.89C140.92 42.09 140.69 42.23 140.52 42.32C140.44 42.32 140.37 42.28 140.32 42.2C140.21 42.01 140.08 41.85 139.93 41.73C139.83 41.67 139.78 41.62 139.78 41.58C139.78 41.56 139.8 41.55 139.83 41.54C140.22 41.36 140.54 41.19 140.8 41.02C141.16 40.78 141.51 40.47 141.86 40.11C142.1 39.88 142.3 39.65 142.45 39.43C142.62 39.2 142.77 38.94 142.91 38.66H139.78V40.38C139.78 40.49 139.71 40.54 139.58 40.54H139.06C138.92 40.54 138.84 40.49 138.84 40.38V38.03C138.84 37.89 138.91 37.82 139.06 37.82H144.1V36.77C144.1 36.66 144.17 36.61 144.3 36.61L144.27 36.62ZM141.07 45.07H148C148.13 45.07 148.2 45.12 148.2 45.23V48.75C148.2 48.85 148.13 48.9 148 48.9H147.48C147.34 48.9 147.26 48.85 147.26 48.75V48.32H141.81V48.7C141.81 48.8 141.74 48.85 141.59 48.85H141.07C140.93 48.85 140.86 48.8 140.86 48.7V45.29C140.86 45.15 140.93 45.07 141.07 45.07ZM141.81 47.49H147.26V45.92H141.81V47.49ZM142.59 40.68C142.98 41.15 143.36 41.51 143.73 41.78C144.01 42.01 144.34 42.24 144.74 42.46C144.81 42.42 144.88 42.38 144.94 42.34C145.42 42.03 145.82 41.67 146.14 41.27C146.31 41.11 146.47 40.91 146.62 40.67H142.59V40.68Z" fill="black"/>
<path d="M164.69 37.4599C164.57 37.4599 164.45 37.4599 164.35 37.4899C163.38 37.7499 162.3 37.9499 161.1 38.0799C159.73 38.2199 158.32 38.2999 156.87 38.2999V39.6699H164.85C164.99 39.6699 165.07 39.7199 165.07 39.8199V44.7099C165.07 44.8099 165 44.8599 164.85 44.8599H164.33C164.19 44.8599 164.12 44.8099 164.12 44.7099V43.9699H156.87C156.82 44.8399 156.7 45.5499 156.51 46.1199C156.35 46.7199 156.03 47.3199 155.54 47.9199C155.29 48.2799 154.94 48.6199 154.48 48.9499C154.42 48.9499 154.37 48.9499 154.35 48.9199C154.2 48.7899 154.04 48.6699 153.87 48.5599C153.82 48.5199 153.8 48.4499 153.8 48.3699C154.23 48.0699 154.62 47.6699 154.97 47.1499C155.32 46.6099 155.56 46.0499 155.71 45.4599C155.87 44.8299 155.95 44.0699 155.95 43.1799V37.6699C155.95 37.5399 156.02 37.4699 156.16 37.4699H156.25C158.1 37.4499 159.56 37.3899 160.61 37.2799C161.87 37.1599 163 36.9499 164.01 36.6499C164.14 36.5999 164.25 36.5699 164.33 36.5699C164.38 36.5699 164.44 36.5999 164.49 36.6499C164.95 37.0199 165.17 37.2499 165.17 37.3599C165.17 37.5299 165.12 37.6199 165.01 37.6199L164.69 37.4699V37.4599ZM156.88 40.4999V43.1299H164.12V40.4999H156.88Z" fill="black"/>
<path d="M28.39 5.67004H5.66V28.4H28.39V5.67004Z" fill="white"/>
<path d="M31.51 17.03C31.51 14.79 31.59 12.78 33.25 9.26C33.73 8.24 34.79 6.74 33.22 5C31.95 3.73 30.51 3.94 29.54 4.5C30.1 3.53 30.31 2.08 29.04 0.809999C27.3 -0.740001 25.81 0.309999 24.79 0.789999C21.26 2.45 19.27 2.54 17.02 2.54C14.77 2.54 12.77 2.45 9.26 0.789999C8.23 0.309999 6.73 -0.750001 5 0.809999C3.73 2.08 3.95 3.53 4.5 4.5C3.53 3.93 2.09 3.73 0.820004 5C-0.729996 6.74 0.330004 8.23 0.790004 9.26C2.46 12.78 2.55 14.78 2.55 17.03C2.55 19.27 2.46 21.28 0.790004 24.8C0.330004 25.82 -0.739996 27.32 0.820004 29.05C2.09 30.32 3.54 30.11 4.5 29.56C3.95 30.53 3.73 31.98 5 33.24C6.73 34.81 8.24 33.75 9.26 33.26C12.78 31.6 14.77 31.51 17.02 31.51C19.27 31.51 21.26 31.6 24.78 33.26C25.81 33.75 27.3 34.8 29.04 33.24C30.31 31.98 30.09 30.54 29.54 29.56C30.51 30.11 31.95 30.33 33.22 29.05C34.79 27.32 33.72 25.82 33.25 24.8C31.59 21.27 31.51 19.27 31.51 17.03ZM27.65 27.68L19.4 20.76C19.4 20.76 18.28 19.67 17.03 19.67C15.78 19.67 14.65 20.76 14.65 20.76L6.41 27.68L6.38 27.66L13.3 19.41C13.3 19.41 14.39 18.29 14.39 17.03C14.39 15.77 13.3 14.66 13.3 14.66L6.37 6.4L6.4 6.37L14.64 13.3C14.64 13.3 15.76 14.4 17.02 14.4C18.28 14.4 19.39 13.3 19.39 13.3L27.64 6.37L27.67 6.41L20.74 14.66C20.74 14.66 19.67 15.77 19.67 17.03C19.67 18.29 20.74 19.41 20.74 19.41L27.67 27.66L27.64 27.68H27.65Z" fill="#D02C25"/>
<path d="M53.51 8.66994C53.51 10.2699 53.08 11.4799 52.21 12.3299C51.34 13.1699 50.1 13.5899 48.47 13.5899H45.79V3.93994H48.75C50.25 3.93994 51.42 4.35994 52.25 5.18994C53.08 6.01994 53.5 7.18994 53.5 8.67994L53.51 8.66994ZM52.32 8.70994C52.32 7.44994 52.01 6.49994 51.37 5.85994C50.74 5.21994 49.8 4.89994 48.55 4.89994H46.92V12.6199H48.29C49.63 12.6199 50.63 12.2899 51.31 11.6299C51.98 10.9699 52.32 9.99994 52.32 8.70994Z" fill="black"/>
<path d="M58.17 3.93994H60.9C62.18 3.93994 63.11 4.12994 63.68 4.50994C64.25 4.89994 64.54 5.49994 64.54 6.32994C64.54 6.90994 64.38 7.37994 64.06 7.74994C63.74 8.11994 63.28 8.36994 62.66 8.46994V8.53994C64.13 8.78994 64.86 9.55994 64.86 10.8499C64.86 11.7199 64.57 12.3899 63.99 12.8699C63.41 13.3499 62.59 13.5899 61.54 13.5899H58.17V3.93994ZM59.29 8.07994H61.14C61.93 8.07994 62.5 7.95994 62.85 7.70994C63.2 7.45994 63.37 7.03994 63.37 6.44994C63.37 5.90994 63.18 5.51994 62.79 5.27994C62.4 5.03994 61.79 4.90994 60.94 4.90994H59.29V8.07994ZM59.29 9.02994V12.6399H61.3C62.08 12.6399 62.67 12.4899 63.06 12.1899C63.45 11.8799 63.65 11.4199 63.65 10.7699C63.65 10.1699 63.45 9.72994 63.05 9.44994C62.64 9.16994 62.03 9.02994 61.21 9.02994H59.29Z" fill="black"/>
<path d="M74.89 11.0299C74.89 11.8799 74.58 12.5399 73.97 13.0199C73.35 13.4899 72.52 13.7299 71.46 13.7299C70.32 13.7299 69.44 13.5799 68.82 13.2899V12.2099C69.22 12.3799 69.65 12.5099 70.12 12.6099C70.59 12.7099 71.05 12.7599 71.51 12.7599C72.26 12.7599 72.82 12.6199 73.2 12.3399C73.58 12.0499 73.77 11.6599 73.77 11.1499C73.77 10.8199 73.7 10.5399 73.57 10.3299C73.44 10.1199 73.21 9.91995 72.9 9.73995C72.58 9.55995 72.11 9.35995 71.46 9.11995C70.56 8.79995 69.92 8.41995 69.53 7.97995C69.14 7.53995 68.95 6.96995 68.95 6.25995C68.95 5.54995 69.23 4.91995 69.79 4.47995C70.35 4.03995 71.09 3.81995 72.01 3.81995C72.93 3.81995 73.86 3.99995 74.66 4.34995L74.31 5.31995C73.51 4.98995 72.74 4.81995 71.98 4.81995C71.39 4.81995 70.92 4.94995 70.59 5.19995C70.26 5.45995 70.09 5.80995 70.09 6.26995C70.09 6.59995 70.15 6.87995 70.28 7.08995C70.4 7.29995 70.61 7.49995 70.9 7.67995C71.19 7.85995 71.64 8.05995 72.24 8.26995C73.25 8.62995 73.95 9.01995 74.33 9.42995C74.71 9.83995 74.9 10.3799 74.9 11.0399L74.89 11.0299Z" fill="black"/>
<path d="M89.44 13.5999H88.32V4.92993H85.26V3.92993H92.5V4.92993H89.44V13.5999Z" fill="black"/>
<path d="M97.58 9.57994V13.5899H96.46V3.93994H99.11C100.29 3.93994 101.17 4.16994 101.74 4.61994C102.31 5.06994 102.59 5.74994 102.59 6.66994C102.59 7.94994 101.94 8.80994 100.65 9.25994L103.27 13.5999H101.94L99.6 9.58994H97.58V9.57994ZM97.58 8.60994H99.12C99.91 8.60994 100.5 8.44994 100.86 8.13994C101.23 7.82994 101.42 7.34994 101.42 6.71994C101.42 6.08994 101.23 5.61994 100.85 5.33994C100.47 5.05994 99.87 4.91994 99.04 4.91994H97.58V8.60994Z" fill="black"/>
<path d="M113.09 13.5999H107.71V3.93994H113.09V4.93994H108.83V8.04994H112.83V9.03994H108.83V12.5899H113.09V13.5899V13.5999Z" fill="black"/>
<path d="M124.18 13.5999L122.98 10.5299H119.11L117.92 13.5999H116.78L120.6 3.8999H121.54L125.34 13.5999H124.17H124.18ZM122.63 9.5199L121.5 6.5299C121.36 6.1499 121.21 5.6899 121.05 5.1299C120.95 5.5499 120.81 6.0199 120.63 6.5299L119.5 9.5199H122.63Z" fill="black"/>
<path d="M135.01 11.0299C135.01 11.8799 134.7 12.5399 134.09 13.0199C133.47 13.4899 132.64 13.7299 131.58 13.7299C130.43 13.7299 129.55 13.5799 128.94 13.2899V12.2099C129.34 12.3799 129.77 12.5099 130.23 12.6099C130.7 12.7099 131.16 12.7599 131.62 12.7599C132.37 12.7599 132.93 12.6199 133.31 12.3399C133.69 12.0499 133.88 11.6599 133.88 11.1499C133.88 10.8199 133.81 10.5399 133.68 10.3299C133.55 10.1199 133.32 9.91995 133.01 9.73995C132.69 9.55995 132.21 9.35995 131.57 9.11995C130.67 8.79995 130.03 8.41995 129.64 7.97995C129.26 7.53995 129.06 6.96995 129.06 6.25995C129.06 5.54995 129.34 4.91995 129.9 4.47995C130.46 4.03995 131.2 3.81995 132.12 3.81995C133.04 3.81995 133.96 3.99995 134.77 4.34995L134.42 5.31995C133.62 4.98995 132.85 4.81995 132.09 4.81995C131.5 4.81995 131.03 4.94995 130.7 5.19995C130.37 5.45995 130.2 5.80995 130.2 6.26995C130.2 6.59995 130.26 6.87995 130.38 7.08995C130.5 7.29995 130.71 7.49995 131 7.67995C131.29 7.85995 131.74 8.05995 132.34 8.26995C133.35 8.62995 134.05 9.01995 134.43 9.42995C134.81 9.83995 135 10.3799 135 11.0399L135.01 11.0299Z" fill="black"/>
<path d="M147.16 3.93994V10.1899C147.16 11.2899 146.83 12.1599 146.16 12.7899C145.49 13.4199 144.58 13.7299 143.42 13.7299C142.26 13.7299 141.36 13.4199 140.72 12.7799C140.08 12.1499 139.76 11.2799 139.76 10.1599V3.93994H140.89V10.2399C140.89 11.0499 141.11 11.6599 141.55 12.0999C141.99 12.5299 142.64 12.7499 143.49 12.7499C144.34 12.7499 144.93 12.5399 145.37 12.0999C145.81 11.6699 146.03 11.0499 146.03 10.2399V3.93994H147.16Z" fill="black"/>
<path d="M153.72 9.57994V13.5899H152.6V3.93994H155.25C156.43 3.93994 157.31 4.16994 157.87 4.61994C158.44 5.06994 158.72 5.74994 158.72 6.66994C158.72 7.94994 158.07 8.80994 156.78 9.25994L159.4 13.5999H158.07L155.73 9.58994H153.72V9.57994ZM153.72 8.60994H155.26C156.05 8.60994 156.63 8.44994 157 8.13994C157.37 7.82994 157.56 7.34994 157.56 6.71994C157.56 6.08994 157.37 5.61994 156.99 5.33994C156.61 5.05994 156.01 4.91994 155.18 4.91994H153.72V8.60994Z" fill="black"/>
<path d="M169.23 13.5999H163.85V3.93994H169.23V4.93994H164.97V8.04994H168.97V9.03994H164.97V12.5899H169.23V13.5899V13.5999Z" fill="black"/>
<path d="M179.7 11.0299C179.7 11.8799 179.39 12.5399 178.78 13.0199C178.16 13.4899 177.33 13.7299 176.27 13.7299C175.12 13.7299 174.24 13.5799 173.63 13.2899V12.2099C174.03 12.3799 174.46 12.5099 174.92 12.6099C175.39 12.7099 175.85 12.7599 176.31 12.7599C177.06 12.7599 177.62 12.6199 178 12.3399C178.38 12.0499 178.57 11.6599 178.57 11.1499C178.57 10.8199 178.5 10.5399 178.37 10.3299C178.24 10.1199 178.01 9.91995 177.7 9.73995C177.38 9.55995 176.91 9.35995 176.26 9.11995C175.36 8.79995 174.72 8.41995 174.33 7.97995C173.95 7.53995 173.75 6.96995 173.75 6.25995C173.75 5.54995 174.03 4.91995 174.59 4.47995C175.15 4.03995 175.89 3.81995 176.81 3.81995C177.73 3.81995 178.65 3.99995 179.46 4.34995L179.11 5.31995C178.31 4.98995 177.54 4.81995 176.78 4.81995C176.18 4.81995 175.72 4.94995 175.39 5.19995C175.06 5.45995 174.89 5.80995 174.89 6.26995C174.89 6.59995 174.95 6.87995 175.07 7.08995C175.19 7.29995 175.4 7.49995 175.69 7.67995C175.98 7.85995 176.43 8.05995 177.03 8.26995C178.04 8.62995 178.74 9.01995 179.12 9.42995C179.5 9.83995 179.69 10.3799 179.69 11.0399L179.7 11.0299Z" fill="black"/>
<path d="M51.92 23.3199C51.92 24.2999 51.59 25.0499 50.92 25.5799C50.25 26.1099 49.3 26.3699 48.05 26.3699H46.92V30.1699H45.79V20.5099H48.3C50.71 20.5099 51.92 21.4499 51.92 23.3299V23.3199ZM46.92 25.3999H47.93C48.93 25.3999 49.64 25.2399 50.09 24.9199C50.53 24.5999 50.76 24.0799 50.76 23.3799C50.76 22.7399 50.55 22.2599 50.13 21.9499C49.71 21.6399 49.06 21.4799 48.17 21.4799H46.92V25.4099V25.3999Z" fill="black"/>
<path d="M57.76 26.15V30.16H56.64V20.5H59.29C60.48 20.5 61.35 20.73 61.92 21.18C62.49 21.63 62.77 22.31 62.77 23.23C62.77 24.51 62.12 25.37 60.83 25.82L63.45 30.16H62.12L59.78 26.15H57.76ZM57.76 25.18H59.3C60.09 25.18 60.68 25.02 61.04 24.71C61.41 24.4 61.6 23.92 61.6 23.29C61.6 22.66 61.41 22.19 61.04 21.91C60.66 21.63 60.06 21.49 59.23 21.49H57.77V25.18H57.76Z" fill="black"/>
<path d="M67.7 30.16V20.5H68.82V30.16H67.7Z" fill="black"/>
<path d="M79.68 20.5H80.89L77.41 30.16H76.3L72.84 20.5H74.03L76.25 26.75C76.51 27.47 76.71 28.17 76.86 28.85C77.02 28.13 77.23 27.42 77.48 26.71L79.69 20.5H79.68Z" fill="black"/>
<path d="M90.98 30.16L89.78 27.09H85.91L84.72 30.16H83.58L87.4 20.46H88.35L92.15 30.16H90.99H90.98ZM89.43 26.08L88.3 23.09C88.15 22.71 88.01 22.25 87.85 21.7C87.75 22.12 87.61 22.59 87.43 23.09L86.3 26.08H89.43Z" fill="black"/>
<path d="M99.14 30.16H98.01V21.5H94.95V20.5H102.19V21.5H99.13V30.16H99.14Z" fill="black"/>
<path d="M111.73 30.16H106.34V20.5H111.73V21.5H107.47V24.61H111.47V25.6H107.47V29.15H111.73V30.15V30.16Z" fill="black"/>
<path d="M126.92 21.37C125.86 21.37 125.02 21.72 124.41 22.43C123.79 23.14 123.49 24.11 123.49 25.33C123.49 26.55 123.79 27.57 124.38 28.26C124.97 28.95 125.82 29.29 126.92 29.29C127.59 29.29 128.36 29.17 129.23 28.93V29.91C128.56 30.16 127.73 30.28 126.75 30.28C125.33 30.28 124.23 29.85 123.46 28.98C122.69 28.12 122.3 26.89 122.3 25.3C122.3 24.31 122.48 23.44 122.86 22.68C123.23 21.93 123.77 21.35 124.47 20.95C125.17 20.54 126 20.34 126.95 20.34C127.97 20.34 128.85 20.52 129.61 20.9L129.14 21.86C128.41 21.52 127.68 21.35 126.95 21.35L126.92 21.37Z" fill="black"/>
<path d="M133.89 30.16V20.5H135.01V29.14H139.27V30.16H133.89Z" fill="black"/>
<path d="M143.48 30.16V20.5H144.6V30.16H143.48Z" fill="black"/>
<path d="M155.21 30.16H149.82V20.5H155.21V21.5H150.95V24.61H154.95V25.6H150.95V29.15H155.21V30.15V30.16Z" fill="black"/>
<path d="M167.47 30.16H166.19L160.91 22.05H160.86C160.93 23 160.96 23.87 160.96 24.67V30.16H159.92V20.5H161.19L166.46 28.58H166.51C166.51 28.46 166.48 28.08 166.45 27.43C166.42 26.78 166.41 26.32 166.42 26.05V20.5H167.47V30.16Z" fill="black"/>
<path d="M175.67 30.16H174.55V21.5H171.49V20.5H178.73V21.5H175.67V30.16Z" fill="black"/>
</g>
<defs>
<clipPath id="clip0_533_3967">
<rect width="179.7" height="48.94" fill="white"/>
</clipPath>
</defs>
</svg>
