<?xml version="1.0" encoding="utf-8"?>
<!-- Generator: Adobe Illustrator 25.4.1, SVG Export Plug-In . SVG Version: 6.00 Build 0)  -->
<svg version="1.1" id="圖層_1" xmlns="http://www.w3.org/2000/svg" xmlns:xlink="http://www.w3.org/1999/xlink" x="0px" y="0px"
	 viewBox="0 0 140.7 36.9" style="enable-background:new 0 0 140.7 36.9;" xml:space="preserve">
<style type="text/css">
	.st0{fill:#FFFFFF;}
</style>
<g>
	<g>
		<path class="st0" d="M24,12.5l0,10.3c2.8,0,5.1-2.3,5.1-5.1C29,14.8,26.8,12.6,24,12.5z"/>
		<path class="st0" d="M18.7,7.7c-1.8,0-3.3,1.3-3.5,3c0,0,0,0.1,0,0.2h0l0,13.8h0c0,0.1,0,0.1,0,0.2c0.3,1.7,1.7,3,3.5,3
			c1.9,0,3.4-1.4,3.6-3.2V10.9C22,9.1,20.5,7.7,18.7,7.7z"/>
		<path class="st0" d="M8.2,17.7c0,2.8,2.3,5.1,5.1,5.1c0,0,0,0,0,0V12.5c0,0,0,0,0,0C10.5,12.5,8.2,14.8,8.2,17.7z"/>
		<path class="st0" d="M18.6,5C11.6,5,5.9,10.7,5.9,17.8c0,7.1,5.7,12.8,12.8,12.8c7.1,0,12.8-5.7,12.8-12.8
			C31.4,10.7,25.7,5,18.6,5z M24,25c-0.3,2.7-2.6,4.8-5.3,4.8c-2.7,0-5-2.1-5.3-4.8c-3.8-0.1-6.9-3.2-6.9-7.1c0-3.8,3.1-7,6.9-7.1v0
			h0C13.6,8.1,15.9,6,18.7,6c2.8,0,5,2.1,5.3,4.8c0,0,0,0,0,0c3.8,0.2,6.8,3.3,6.8,7.1C30.8,21.7,27.8,24.8,24,25z"/>
	</g>
	<g>
		<path class="st0" d="M38.1,29l0,1.2l0.3,0c0.1-0.4,0.3-0.6,0.5-0.7c0.2-0.1,0.6-0.2,1.1-0.2h0.5l0,3.5c0,0.3-0.1,0.5-0.2,0.6
			c-0.1,0.1-0.4,0.1-0.8,0.1l0,0.1l3,0l0-0.1c-0.4,0-0.7-0.1-0.8-0.1c-0.1-0.1-0.2-0.2-0.2-0.5v-3.6l0.5,0c0.6,0,1,0.1,1.1,0.2
			c0.2,0.1,0.3,0.4,0.4,0.7l0.3,0c0,0,0-1.2,0-1.2L38.1,29L38.1,29z"/>
		<path class="st0" d="M47.6,28.9l-2.1,3.5c-0.3,0.5-0.5,0.8-0.7,0.9c-0.1,0.1-0.3,0.2-0.6,0.2l0,0.1l2,0l0-0.1c0,0-0.5-0.1-0.5-0.1
			c-0.1,0-0.2-0.1-0.2-0.2l0.1-0.2l0.5-0.8c0,0,2.6,0,2.6,0c0,0,0,0,0,0c0,0,0.4,0.7,0.4,0.7c0,0,0.1,0.3,0.1,0.3l0,0.2
			c0,0.1,0,0.2-0.1,0.2l-0.6,0.1l0,0.1l2.6,0l0-0.1c0,0-0.5-0.1-0.5-0.1c-0.1-0.1-0.2-0.2-0.4-0.5l-2.5-4L47.6,28.9L47.6,28.9z
			 M47.5,29.9c0,0,1.1,1.9,1.1,1.9s-2.3,0-2.3,0C46.3,31.8,47.4,30.1,47.5,29.9z"/>
		<path class="st0" d="M52.3,29v0.1c0.4,0,0.7,0.1,0.8,0.1c0.1,0.1,0.2,0.2,0.2,0.5v3.1c0,0.3-0.1,0.4-0.2,0.5
			c-0.1,0.1-0.4,0.1-0.8,0.1l0,0.1l3,0l0-0.1c-0.4,0-0.7-0.1-0.8-0.1c-0.1-0.1-0.2-0.2-0.2-0.5v-3.1c0-0.2,0.1-0.4,0.2-0.5
			c0.1-0.1,0.4-0.1,0.8-0.1l0-0.1L52.3,29L52.3,29z"/>
		<path class="st0" d="M62.3,28.9L62.3,28.9l-0.2,0.2l-0.3,0.1L61.2,29l-1.1-0.1c-1.1,0-1.9,0.2-2.6,0.7c-0.6,0.5-1,1-1,1.7
			c0,0.7,0.3,1.2,0.9,1.7c0.6,0.5,1.5,0.7,2.6,0.7c0.7,0,1.3-0.1,1.9-0.4c0.3-0.2,0.6-0.3,0.8-0.5c0,0-0.2-0.2-0.2-0.2
			c0,0-0.9,0.4-0.9,0.4c-0.4,0.2-0.9,0.3-1.5,0.3c-0.7,0-1.3-0.2-1.8-0.6c-0.5-0.4-0.7-0.9-0.7-1.5c0-0.7,0.2-1.2,0.7-1.6
			c0.4-0.4,1-0.6,1.7-0.6c0.7,0,1.3,0.2,1.7,0.5c0.2,0.2,0.4,0.5,0.5,0.8l0.3,0c0,0-0.1-1.6-0.1-1.6L62.3,28.9L62.3,28.9z"/>
		<path class="st0" d="M68.1,29v0.1c0.4,0,0.6,0.1,0.7,0.2c0.1,0.1,0.2,0.2,0.2,0.5v1.4l-3.1,0l0-1.4c0-0.2,0.1-0.4,0.2-0.5
			c0.1-0.1,0.3-0.1,0.7-0.1l0-0.1L64,29l0,0.1c0.4,0,0.6,0.1,0.7,0.2c0.1,0.1,0.2,0.2,0.2,0.5v3c0,0.3,0,0.5-0.1,0.6
			c-0.1,0.1-0.3,0.1-0.7,0.1l0,0.1l2.8,0l0-0.1c-0.4,0-0.6-0.1-0.7-0.2c-0.1-0.1-0.2-0.2-0.2-0.5v-1.5l3.1,0l0,1.3
			c0,0.3,0,0.5-0.1,0.6c-0.1,0.1-0.3,0.1-0.7,0.1l0,0.1l2.8,0l0-0.1c-0.4,0-0.6-0.1-0.7-0.2c-0.1-0.1-0.2-0.2-0.2-0.5v-3.1
			c0-0.2,0.1-0.4,0.2-0.5c0.1-0.1,0.3-0.1,0.7-0.1l0-0.1L68.1,29L68.1,29z"/>
		<path class="st0" d="M76.7,29v0.1c0.4,0,0.6,0.1,0.8,0.2c0.1,0.1,0.2,0.3,0.2,0.7v1.8c0,0.4-0.1,0.8-0.2,1
			c-0.3,0.4-0.8,0.6-1.6,0.6c-0.7,0-1.3-0.2-1.5-0.6C74.1,32.7,74,32.4,74,32v-2.2c0-0.2,0.1-0.4,0.2-0.5c0.1-0.1,0.4-0.1,0.7-0.1
			l0-0.1l-2.9,0l0,0.1c0.4,0,0.6,0.1,0.7,0.2c0.1,0.1,0.2,0.2,0.2,0.5V32c0,0.4,0.1,0.8,0.3,1.1c0.4,0.5,1.2,0.7,2.2,0.7
			c1.1,0,1.9-0.3,2.3-0.8c0.2-0.3,0.3-0.7,0.3-1.1v-1.8c0-0.4,0.1-0.6,0.2-0.7c0.1-0.1,0.4-0.2,0.8-0.2l0-0.1L76.7,29L76.7,29z"/>
		<path class="st0" d="M84.8,29v0.1c0.4,0,0.6,0.1,0.7,0.2c0.2,0.1,0.2,0.4,0.2,0.7c0,0,0,2.3,0,2.3c0,0-3.9-3.4-3.9-3.4l-1.8,0
			l0,0.1c0,0,0.5,0.1,0.5,0.1l0.4,0.2l0.1,0.1l0,3.1c0,0.4-0.1,0.6-0.2,0.7c-0.1,0.1-0.4,0.2-0.8,0.2l0,0.1l2.4,0l0-0.1
			c-0.4,0-0.6-0.1-0.7-0.2c-0.2-0.1-0.2-0.4-0.2-0.7c0,0,0-2.7,0-2.7c0,0,4.4,3.9,4.4,3.9l0.2,0l0-3.7c0-0.4,0.1-0.6,0.2-0.7
			c0.1-0.1,0.4-0.2,0.8-0.2l0-0.1L84.8,29L84.8,29z"/>
		<path class="st0" d="M94.1,28.9L94,29.1l-0.3,0.1L93,29l-1.2-0.1c-1.1,0-2,0.3-2.6,0.8c-0.6,0.5-0.9,1-0.9,1.7
			c0,0.7,0.4,1.4,1.1,1.8c0.7,0.4,1.5,0.6,2.5,0.6c0.5,0,1.1-0.1,1.7-0.2c0.8-0.2,0.9-0.3,0.9-0.3v-1.4c0-0.2,0.1-0.3,0.2-0.4
			c0,0,0.5-0.1,0.5-0.1l0-0.1l-2.6,0l0,0.1c0.4,0,0.6,0.1,0.7,0.1c0.1,0.1,0.2,0.2,0.2,0.5v1.1c0,0.1,0,0.1-0.1,0.2L93,33.4
			l-0.5,0.1l-0.4,0c-0.7,0-1.3-0.2-1.8-0.5c-0.5-0.4-0.7-0.9-0.7-1.5c0-0.8,0.2-1.4,0.7-1.7c0.5-0.3,1.1-0.5,1.7-0.5
			c0.6,0,1.2,0.2,1.6,0.5c0.2,0.2,0.4,0.4,0.6,0.8l0.3,0c0,0-0.1-1.5-0.1-1.5L94.1,28.9L94.1,28.9z"/>
		<path class="st0" d="M99.7,29L99.7,29l0,0.1c0.4,0,0.7,0.1,0.8,0.1c0.1,0.1,0.2,0.2,0.2,0.5v3.1c0,0.3-0.1,0.4-0.2,0.5
			c-0.1,0.1-0.4,0.1-0.8,0.1l0,0.1l3.3,0c0.6,0,1-0.1,1.4-0.2c0.7-0.2,1.1-0.6,1.1-1.1c0-0.3-0.2-0.6-0.5-0.8
			c-0.3-0.2-0.7-0.3-1.2-0.4c0.4,0,0.7-0.1,0.8-0.2c0.3-0.2,0.5-0.4,0.5-0.8c0-0.4-0.2-0.8-0.7-1c-0.5-0.2-1.1-0.3-1.9-0.3H99.7z
			 M101.7,29.5c0-0.1,0-0.2,0.1-0.2c0,0,0.4,0,0.4,0c0.6,0,1,0,1.3,0.1c0.5,0.1,0.7,0.4,0.7,0.8c0,0.3-0.2,0.6-0.6,0.7l-0.8,0.1
			c0,0-1,0-1,0L101.7,29.5z M101.8,33.4c-0.1,0-0.1-0.1-0.1-0.2c0,0,0-1.8,0-1.8c0,0,0.2,0,0.2,0h0.3c0.6,0,1.2,0.1,1.6,0.2
			c0.4,0.1,0.6,0.4,0.6,0.8c0,0.4-0.2,0.7-0.5,0.8c-0.3,0.1-0.8,0.2-1.3,0.2L101.8,33.4z"/>
		<path class="st0" d="M110.5,28.9l-2.1,3.5c-0.3,0.5-0.5,0.8-0.7,0.9c-0.1,0.1-0.3,0.2-0.6,0.2l0,0.1l2,0l0-0.1
			c0,0-0.5-0.1-0.5-0.1c-0.1,0-0.2-0.1-0.2-0.2l0.1-0.2l0.5-0.8l2.6,0c0,0,0,0,0,0c0,0,0.4,0.7,0.4,0.7c0,0,0.1,0.3,0.1,0.3l0,0.2
			c0,0.1,0,0.2-0.1,0.2l-0.6,0.1l0,0.1l2.6,0l0-0.1c0,0-0.5-0.1-0.5-0.1c-0.1-0.1-0.2-0.2-0.4-0.5l-2.5-4L110.5,28.9L110.5,28.9z
			 M110.4,29.9c0,0,1.1,1.9,1.1,1.9s-2.3,0-2.3,0C109.2,31.8,110.3,30.1,110.4,29.9z"/>
		<path class="st0" d="M119.9,29v0.1c0.4,0,0.6,0.1,0.7,0.2c0.2,0.1,0.2,0.4,0.2,0.7c0,0,0,2.3,0,2.3c0,0-3.9-3.4-3.9-3.4l-1.8,0
			l0,0.1c0,0,0.5,0.1,0.5,0.1l0.4,0.2l0.1,0.1l0,3.1c0,0.4-0.1,0.6-0.2,0.7c-0.1,0.1-0.4,0.2-0.8,0.2l0,0.1l2.4,0l0-0.1
			c-0.4,0-0.6-0.1-0.7-0.2c-0.2-0.1-0.2-0.4-0.2-0.7c0,0,0-2.7,0-2.7c0,0,4.4,3.9,4.4,3.9l0.2,0l0-3.7c0-0.4,0.1-0.6,0.2-0.7
			c0.1-0.1,0.4-0.2,0.8-0.2l0-0.1L119.9,29L119.9,29z"/>
		<path class="st0" d="M127.2,29v0.1c0,0,0.5,0.1,0.5,0.1c0.1,0,0.2,0.1,0.2,0.2c0,0.1-0.2,0.3-1.1,0.9l-1.5,0.9l0-1.4
			c0-0.2,0.1-0.4,0.2-0.5c0.1-0.1,0.4-0.1,0.8-0.1l0-0.1l-2.9,0l0,0.1c0.4,0,0.6,0.1,0.8,0.2c0.1,0.1,0.2,0.2,0.2,0.5v3
			c0,0.3,0,0.5-0.1,0.6c-0.1,0.1-0.4,0.1-0.8,0.1l0,0.1l2.9,0l0-0.1c-0.4,0-0.6-0.1-0.8-0.2c-0.1-0.1-0.2-0.2-0.2-0.5
			c0,0,0-1.3,0-1.3c0,0,0.3-0.2,0.3-0.2l0,0c0,0,1.9,1.5,1.9,1.5c0,0,0.3,0.3,0.3,0.3l0.1,0.2c0,0.1,0,0.1-0.1,0.1l-0.6,0l0,0.1
			l3.1,0l0-0.1c-0.3,0-0.6-0.1-0.7-0.2l-0.9-0.6c0,0-2.4-1.8-2.4-1.8c0,0,2-1.2,2-1.2l0.8-0.4l0.8-0.1l0-0.1L127.2,29L127.2,29z"/>
	</g>
	<g>
		<g>
			<path class="st0" d="M56.4,11C56.4,11,56.4,10.9,56.4,11c-0.1-0.1-0.1-0.1-0.1-0.2c0-0.1-0.2-0.1-0.1-0.3c0,0,0.1-0.1,0-0.1
				c0,0,0,0,0,0c0,0,0,0,0-0.1c0-0.1-0.1,0-0.1,0c0,0,0,0,0-0.1c0,0,0-0.1,0.1-0.1c0,0,0,0,0-0.1c0,0-0.1,0-0.1,0c0,0-0.1,0,0-0.1
				l0,0l0-0.1c0,0,0,0-0.1,0c0-0.1-0.2-0.1-0.2-0.2c0-0.1-0.1-0.1-0.1-0.1c-0.1,0-0.1-0.1-0.2-0.2c-0.1,0,0-0.2-0.1-0.1
				c0,0-0.1,0-0.1-0.1c0-0.2-0.3-0.1-0.4-0.3c-0.1,0-0.1-0.1-0.2-0.1c-0.1,0-0.2-0.1-0.3-0.1c-0.1,0,0-0.1-0.2-0.1
				c-0.1,0-0.1,0-0.2,0c0,0-0.1-0.1-0.1,0c0,0,0,0,0-0.1c-0.1,0-0.2-0.1-0.3-0.1c0,0,0,0,0-0.1c-0.1,0-0.1-0.1-0.2-0.1
				c-0.1,0-0.3,0.1-0.4,0c-0.1,0-0.1,0-0.1,0l0,0c0,0-0.1-0.1-0.1-0.1c0,0,0,0-0.1,0c0,0-0.1,0-0.1,0c0-0.1-0.1,0-0.2,0
				c0-0.1-0.1,0-0.2-0.1c-0.1,0-0.2,0-0.3-0.1c0,0-0.1,0-0.1,0c-0.1-0.1-0.2,0-0.3,0C51.1,8,51,7.9,50.8,7.9c-0.1-0.1-0.2,0-0.3-0.1
				c-0.1,0-0.1,0-0.2,0c0,0.1,0,0.1,0.1,0.2c0,0,0,0.1,0,0.1c0.1,0.2,0.2,0.4,0.2,0.6c0,0.1,0.1,0.2,0.1,0.3c0,0.1,0.1,0.2,0.2,0.3
				c0,0,0,0,0,0.1c-0.1,0.1-0.1,0.1-0.2,0.2c0,0,0,0,0,0c-0.1,0-0.2,0.1-0.3,0.1c-0.1,0.1-0.2,0.1-0.3,0.2c-0.3,0.1-0.6,0.2-0.9,0.3
				c-0.1,0-0.1,0.1-0.2,0c-0.2,0.1-0.4,0.2-0.6,0.2l0,0c0,0.1-0.1,0-0.2,0.1c0,0-0.1,0-0.1,0l0,0c-0.5,0.2-0.9,0.3-1.4,0.5
				c-0.3,0.1-0.6,0.2-0.9,0.4c-0.1,0-0.2,0.1-0.3,0.1c-0.1,0-0.2,0.1-0.3,0.1l0,0c-0.6,0.2-1.1,0.4-1.7,0.6l0,0c0,0,0,0.1,0,0.1
				c-0.3,0.1-0.6,0.2-0.9,0.3c0.3-0.3,0.6-0.6,0.8-0.8c0,0,0.1,0,0.1-0.1c0.1-0.1,0.1-0.2,0.2-0.2c0-0.1,0.1,0,0.2-0.1l0,0l0,0l0,0
				l0.1-0.1c0,0,0,0,0-0.1c0,0,0,0,0-0.1c0.1,0,0.1-0.1,0.1-0.1c0-0.1,0.1-0.1,0.1-0.2c0.2-0.2,0.5-0.4,0.7-0.7c0,0,0-0.1,0.1-0.1
				c0.1-0.1,0.2-0.2,0.2-0.3c0.2-0.2,0.3-0.5,0.6-0.6c0.2-0.3,0.5-0.4,0.7-0.7c0,0,0.1,0,0.1,0c0.1,0,0-0.1,0.1-0.1c0,0,0.1,0,0.1,0
				c0.1,0.1,0.1-0.1,0.2,0c0,0,0,0,0-0.1c-0.1,0,0-0.1,0-0.1c0.1,0.1,0.1,0,0.2,0c0-0.1,0.1,0,0.2-0.1c0.1-0.1,0.1-0.2,0.1-0.2
				c0.1,0,0.1,0,0.2,0c0,0,0-0.1,0.1-0.1c0,0,0-0.1,0-0.1c0,0,0.1-0.1,0.1,0c0.1,0,0.3,0,0.3-0.1l-0.1,0c0-0.1,0.1,0,0.1,0
				c-0.1-0.1,0-0.1,0-0.2c0,0,0,0,0.1,0c0,0,0.1,0,0.1,0c0,0,0-0.1,0-0.1l0,0c0,0,0.1,0,0.1,0c-0.1-0.1,0.1-0.1,0-0.1
				c0,0,0.1,0,0.1,0.1c0.1,0,0.1,0,0.2-0.1c0,0,0-0.1,0-0.1c0-0.1,0.1,0,0.1-0.1c0.1,0,0-0.1,0.1-0.2c0.1-0.1,0.1,0,0.2,0
				c0.1,0,0.1-0.1,0.1-0.1c0-0.1-0.1-0.1-0.1-0.2c0.1,0,0-0.1,0.1-0.1C49.2,6,49.5,6,49.4,5.9c0,0-0.1-0.1,0-0.1c0.1,0,0-0.1,0-0.1
				c-0.1,0,0-0.1-0.1-0.2c0-0.1-0.1-0.1-0.1-0.2c0-0.1,0-0.2-0.1-0.2c-0.1,0,0-0.1-0.1-0.2c-0.1,0,0-0.1-0.1-0.1c-0.1,0,0-0.1,0-0.2
				c0,0,0,0-0.1,0c0,0-0.1,0-0.1,0c0,0,0,0,0,0c-0.1,0,0-0.1-0.2-0.1c0,0,0-0.1,0-0.1c0,0-0.1,0-0.2,0c0-0.1,0-0.1-0.1-0.2
				c0,0-0.1,0.1-0.1,0c-0.1,0-0.1-0.1-0.2-0.1c0-0.1-0.1,0-0.1,0c-0.1,0-0.1-0.1-0.2,0c0,0-0.1,0-0.1-0.1c-0.1,0-0.1,0-0.1,0
				c0,0.1-0.1,0-0.1,0.1c0,0-0.1,0-0.1-0.1c-0.1,0.1-0.2-0.1-0.3,0c-0.1,0-0.1,0-0.2-0.1c-0.1,0-0.2,0-0.3,0c-0.1,0-0.2-0.2-0.3,0
				c-0.1,0-0.2-0.1-0.3,0c-0.1,0-0.1,0-0.2,0c0,0-0.1,0-0.1,0c-0.1,0-0.1-0.1-0.2-0.1c0,0.1-0.1,0.1-0.1,0.1c0,0-0.1,0.1,0,0.1
				c0,0,0,0.1,0,0.1c0,0.1,0.1,0.1,0,0.2c0,0,0,0.1,0,0.1c0,0,0,0,0,0c0,0,0,0.1,0,0.1c0,0,0,0,0,0l0,0c0,0.1,0.1,0.1,0.1,0.1
				c0.1,0,0.1,0.1,0.2,0.1c0,0,0,0.1,0,0.1c0.1,0.1,0,0.1,0,0.2c0.1,0.1,0,0.1,0,0.2c0,0,0,0,0.1,0c0,0,0,0.1,0,0.1
				c0,0.1,0,0.1,0.1,0.2c0,0,0,0.1,0,0.1c0.1,0.1-0.1,0.2,0,0.2c0,0-0.1,0.1-0.1,0.1c0,0.1-0.1,0.1-0.1,0.1c0,0,0,0.1,0,0.1
				c0,0,0,0.1,0,0.1c0,0-0.1,0-0.1,0c-0.1,0,0,0.1-0.1,0.2c0.1,0.1,0,0.1,0,0.2c0,0.1,0,0.1,0,0.2C45,6.6,45,6.7,45,6.8
				c-0.1,0-0.1,0.1-0.1,0.1c0,0,0,0,0,0.1c0,0-0.1,0.1-0.1,0c0,0,0,0,0,0.1c0,0.1-0.1,0.1-0.1,0.1c0.1,0.1-0.1,0.1,0,0.1
				c0,0,0,0.1-0.1,0c0,0-0.1,0.1-0.1,0.2c0,0.1,0,0.1-0.1,0.1c0,0,0,0.1,0,0.1c-0.1,0.1-0.1,0.1-0.1,0.2c0,0-0.1,0.1-0.1,0.1
				C44.1,8,44.1,8.2,44,8.2c-0.1,0.3-0.3,0.4-0.5,0.6c0,0.1-0.1,0.1-0.1,0.1l0,0c0,0,0,0-0.1,0c-0.2,0.2-0.4,0.3-0.5,0.5
				c-0.1,0.1-0.2,0.3-0.3,0.3c-0.1,0.1-0.2,0.2-0.3,0.3c0,0-0.1,0-0.1,0.1c-0.1,0.1-0.1,0.2-0.2,0.2c0,0.1-0.1,0.2-0.2,0.2
				c0,0,0,0,0,0c0,0,0,0.1-0.1,0.1c0,0.1-0.2,0.1-0.1,0.2c-0.1,0.1-0.2,0.3-0.4,0.4l0,0l0,0c-0.1,0,0,0.1-0.1,0.1
				c0,0.1-0.1,0.2-0.1,0.2c-0.1,0-0.1,0.1-0.2,0.1l0,0c-0.1,0.1-0.2,0.2-0.3,0.4l0,0c0,0.1-0.1,0.1-0.1,0.2l-0.1,0.2
				c-0.1,0-0.1,0.1-0.2,0.2c-0.1,0.1-0.1,0.2-0.2,0.2c0,0.1-0.1,0.2-0.2,0.3l0,0c0,0.1-0.1,0.1-0.2,0.2c0,0,0,0-0.1,0
				c-0.1,0.1-0.3,0-0.5-0.1c-0.1-0.1-0.1-0.2-0.3-0.1c-0.1,0,0-0.1-0.1-0.1c0-0.1-0.1,0-0.1-0.1c-0.1,0-0.1,0-0.2-0.1
				c-0.1-0.1-0.2,0-0.3,0v0c-0.1,0.1-0.1,0.2-0.1,0.3c0,0,0,0.1,0,0.1c0,0,0,0.1-0.1,0.1c0,0.1,0,0.1,0,0.1c-0.1,0.1,0.1,0.1,0,0.2
				c0,0,0,0.1,0,0.1c-0.1,0.1,0,0.1-0.1,0.2c0,0.1-0.1,0.2,0,0.3c-0.1,0.1,0,0.1,0,0.2c0.1,0,0,0.1,0,0.1c0,0.1,0.1,0.1,0.1,0.2
				c-0.1,0.1,0.1,0.2,0,0.2c0,0,0,0,0,0c0,0.1,0.1,0.1,0,0.2c0.1,0,0,0.1,0,0.1c0,0.1,0,0.1,0,0.2c0,0.1,0,0,0.1,0.1
				c0,0.1,0.1,0.2,0.1,0.2c0.1,0.1,0,0.1,0,0.1c0,0,0.1,0,0.1,0c0,0,0,0,0,0.1c0,0,0,0.1,0.1,0.1c0,0.1,0.1,0,0.1,0.1
				c0,0.1,0.1,0.1,0.1,0.2c0,0,0,0,0.1,0c0,0.2,0.2,0,0.3,0.2c0.1,0,0,0.1,0.1,0.1c0,0,0.1,0,0.1,0.1c0.1,0,0.1,0,0.2,0
				c0.1-0.1,0.3,0,0.3-0.1c0-0.1,0.2-0.1,0.2-0.2c0.1,0,0.2-0.1,0.3-0.2c0.1,0,0.1,0,0.1-0.1c0.1,0,0.2-0.1,0.3-0.1
				c0.1,0,0.1-0.1,0.2-0.1c0.1,0.1,0.1,0,0.2,0c0,0,0.1-0.1,0.1-0.1c0,0,0-0.1,0.1,0c0.1,0,0.2-0.1,0.3-0.1c0.1,0.1,0.1-0.1,0.1,0
				c0.1-0.1,0.3,0,0.3-0.2c0.1,0.1,0.1-0.1,0.2-0.1c0,0,0,0,0,0c0.1,0.2,0.2-0.1,0.3-0.1c0.1-0.1,0.2,0,0.2-0.1
				c0-0.2,0.1-0.1,0.2-0.2c0.1,0,0.1,0,0.2,0c0.1-0.1,0.1-0.1,0.2-0.1c0-0.1,0.2-0.1,0.2-0.2l0,0l0.3-0.1l0,0c0,0,0.1-0.1,0.1,0
				c0.1-0.1,0.3-0.1,0.3-0.2c0.1,0,0.2-0.1,0.3-0.1c0,0,0.1,0,0.1,0c0.1,0,0.1-0.2,0.2-0.1c0.1,0.1,0.1,0,0.2,0
				c0-0.1,0.1-0.1,0.1-0.1c0.1,0.1,0.2,0,0.2,0c0-0.1,0.1-0.1,0.1-0.1c0.1,0,0.2-0.1,0.3-0.1c0.1-0.1,0.3-0.1,0.4-0.2
				c0.1,0.1,0.1-0.1,0.2,0c0-0.1,0.2-0.1,0.2-0.2c0.1,0.1,0.1-0.1,0.3,0c0-0.1,0.1,0,0.1-0.1c0,0,0,0,0,0c0,0,0,0,0.1,0
				c0,0,0,0,0-0.1c0.1,0,0.1,0,0.1,0c0,0,0.1-0.1,0-0.1l0.1-0.1c0.1,0,0.1,0,0.1-0.1l0,0c0-0.1,0.1,0,0.1,0c0.1-0.1,0.2-0.1,0.2-0.1
				c0-0.1,0.2,0,0.2-0.1c0.1,0,0.1-0.1,0.2-0.1c0.1,0,0.2,0,0.3-0.1c0,0,0.2,0,0.2-0.1c0,0,0,0,0.1,0c0,0,0,0,0-0.1
				c0.1,0,0.1-0.1,0.2,0l0-0.1c0.1,0,0.1,0,0.2-0.1c0.1,0.1,0.1,0,0.1,0c0.1-0.1,0.2-0.1,0.2-0.2c0.1,0,0.1-0.1,0.2-0.1
				c0,0,0.1,0,0.1,0c0.1,0,0.1-0.1,0.2-0.1c0.1,0,0.2-0.1,0.3-0.1c0.1,0,0.1,0,0.2,0c0-0.1,0.1-0.1,0.2-0.1c0-0.1,0.1,0,0.1,0
				c0.1,0.1,0.1-0.1,0.2-0.1c0.1,0,0.1,0,0.2,0c0-0.1,0.1,0,0.2-0.1c0.1,0.1,0.1-0.1,0.1-0.1c0.1,0,0.1,0,0.2,0c0.1-0.1,0.1,0,0.1,0
				c0,0,0.1-0.1,0.2-0.1c0-0.1,0,0,0.1,0c0.1-0.1,0.2-0.1,0.3-0.1c0.1,0,0.1-0.1,0.1,0c0.1,0.1,0.1-0.1,0.2-0.1c0.1-0.1,0.2,0,0.3,0
				c0,0.1,0.2,0,0.2,0.2c0,0.1,0.1,0.1,0.1,0.1c0,0,0.1,0.2,0.2,0.1c0,0,0,0.1,0.1,0.1c0,0,0.1,0.1,0,0.1c0,0,0.1,0.1,0.1,0.1
				c0,0.1,0.1,0.2,0.2,0.1l0,0c0,0,0,0.1,0.1,0.1c0.1,0,0.1,0.1,0.1,0.2l0,0c0,0,0,0,0,0c0,0.1,0.1,0.1,0.1,0.1c0,0,0,0,0,0
				c0,0.1,0.1,0,0.1,0.1c0,0.1,0.1,0.1,0.1,0.2c0.2,0,0.2,0.2,0.3,0.2c0,0,0.2,0,0.1,0.1c0.1,0,0.1,0.1,0.2,0.1l0,0
				c0,0,0.1,0.1,0.1,0.1c0.1,0,0.2,0.1,0.3,0.1c0.2,0.1,0.3,0.1,0.5,0.1c0.1,0.1,0.1-0.1,0.1,0c0-0.1,0.2,0,0.2-0.2
				c0.1,0,0.1-0.1,0.2-0.2c0-0.1,0.1-0.1,0.1-0.1c0.1-0.1,0-0.2,0.1-0.3c0,0-0.1,0,0-0.1c0.2,0,0.1-0.2,0.2-0.3
				c0-0.1-0.1-0.2-0.1-0.4c0,0,0,0-0.1,0c0-0.1,0.1-0.2,0.1-0.2c0.1,0,0-0.1,0.1-0.1c-0.1,0,0-0.1-0.1-0.2c-0.1-0.1,0.1-0.2,0-0.2
				l0,0c-0.1,0,0-0.1,0-0.2c-0.1-0.1,0-0.1,0-0.2C56.3,11.2,56.4,11.1,56.4,11C56.4,11.1,56.3,11,56.4,11z"/>
			<path class="st0" d="M47.9,10.7c0,0-0.1,0-0.1,0C47.8,10.7,47.8,10.7,47.9,10.7z"/>
			<path class="st0" d="M46.8,11C46.8,11,46.8,11,46.8,11L46.8,11L46.8,11z"/>
			<polygon class="st0" points="46.7,11 46.7,11 46.7,11 			"/>
			<path class="st0" d="M41.2,11.4C41.2,11.4,41.2,11.3,41.2,11.4C41.1,11.4,41.1,11.4,41.2,11.4z"/>
			<path class="st0" d="M43.4,12.4C43.4,12.4,43.4,12.4,43.4,12.4L43.4,12.4L43.4,12.4z"/>
			<path class="st0" d="M55.7,17.9c-0.1,0,0-0.1-0.1-0.1c0-0.1-0.1-0.1,0-0.2l0,0c-0.1,0-0.1-0.1-0.2-0.2c-0.1,0,0-0.1-0.1-0.1
				c0,0,0,0,0-0.1c-0.1,0-0.2-0.2-0.2-0.3c0,0-0.1,0,0-0.1c-0.1,0-0.1-0.1-0.2-0.2l0,0c0,0,0,0-0.1,0c0,0,0-0.1,0-0.1
				c0,0,0-0.1-0.1-0.1c0,0-0.1,0-0.1,0c-0.1-0.1-0.3-0.1-0.3-0.3c0,0-0.1,0-0.1,0c0.1-0.1-0.1-0.1-0.1-0.2c-0.1-0.1-0.1,0.1-0.1,0
				c0-0.1-0.1-0.1-0.1-0.2c0,0-0.1,0-0.1-0.1c0-0.1-0.2,0-0.2-0.1l0,0c-0.1-0.1-0.3,0-0.2-0.2l0,0c0-0.1-0.1,0-0.1-0.1
				c-0.1,0-0.1-0.1-0.2-0.1c0,0-0.1-0.1-0.1-0.1c-0.1-0.1-0.2-0.1-0.3-0.1c0,0,0-0.1-0.1-0.1c-0.1,0-0.1-0.1-0.2,0
				c-0.1,0-0.2-0.1-0.4-0.1c-0.1-0.1-0.3,0-0.4-0.1c-0.1,0.1-0.2-0.2-0.3,0c0,0-0.1,0-0.1-0.1c-0.1,0-0.2,0-0.3,0
				c-0.1,0-0.2,0-0.3,0c-0.1,0-0.3,0.1-0.4,0.1c-0.1,0-0.1,0.1-0.1,0c0,0-0.1,0-0.1,0.1c-0.1,0-0.1,0.1-0.2,0
				c-0.1,0.1-0.1,0-0.2,0.1c-0.1,0-0.2,0.1-0.3,0.1c-0.1,0.1-0.3,0.1-0.5,0.2c-0.1,0-0.2,0.1-0.3,0.1c-0.1,0.1-0.2,0.1-0.3,0.2
				c-0.1,0-0.1,0.1-0.2,0.1c-0.1,0.1-0.2,0.1-0.4,0.2c-0.1,0-0.2,0.1-0.3,0.1c-0.3,0.2-0.6,0.3-0.9,0.5c-0.1,0-0.2,0.1-0.3,0.1
				c-0.1,0-0.2,0.1-0.3,0.1c-0.1,0-0.1,0.1-0.2,0c-0.1,0-0.3,0-0.4,0.1c-0.1-0.1-0.2,0-0.3,0c0,0-0.1-0.1-0.1-0.2
				c-0.1,0-0.1-0.1-0.1-0.1c0-0.1,0-0.1,0-0.2c0,0-0.1,0-0.1-0.1c0-0.1-0.1-0.1-0.1-0.1c-0.1,0,0-0.1-0.1-0.1
				c-0.1,0-0.2-0.1-0.3-0.2c-0.1-0.1-0.1-0.1-0.2-0.2l0-0.1c0,0,0,0,0,0c0,0,0,0,0,0.1c-0.1,0.1-0.1,0.2-0.1,0.3
				c0,0.1-0.1,0.3-0.2,0.4c0,0,0,0.1-0.1,0.1c0,0,0,0.1,0,0.1c-0.1,0,0,0.1-0.1,0.2c0,0.1,0,0.2,0,0.2c0,0,0,0,0,0.1
				c-0.1,0.1,0,0.2-0.1,0.2l0,0.1c0,0,0,0.1-0.1,0.1c0.1,0.1,0,0.1,0,0.1c-0.1,0-0.1,0.1-0.1,0.2c0,0.1,0,0.2,0,0.2
				c-0.1,0,0,0.1-0.1,0.1c-0.1,0,0,0.1,0,0.1c0,0,0,0.1-0.1,0.2c0,0.1,0,0.1,0,0.2c0,0,0,0.1,0,0.1c0,0,0,0.1-0.1,0
				c-0.1,0.1-0.1,0.1,0,0.2c0,0.1-0.1,0-0.1,0.1c-0.1,0.1,0,0.1,0,0.2c0,0-0.1,0.1,0,0.1c0,0,0,0.1-0.1,0c-0.1,0-0.1,0.1-0.1,0.1
				c0,0,0.1,0.1,0,0.1c-0.1,0-0.1,0.2-0.1,0.2c0,0.1,0,0.1,0,0.2c0,0.1-0.1,0.1,0,0.2c0,0.1-0.1,0.1-0.1,0.1c0.1,0.1-0.1,0.2,0,0.2
				c-0.1,0.1,0.1,0.2-0.1,0.3l0,0c0,0,0,0.1,0,0.1c0,0,0,0.1,0,0.1l-0.1,0c0,0-0.1,0.1,0,0.1c-0.1,0.1,0.1,0.2,0,0.3
				c-0.1,0.1,0.1,0,0.1,0.1c0,0.1-0.1,0-0.1,0.1c0,0,0,0.1,0.1,0c0.1,0,0,0.1,0,0.1c0,0,0.2,0,0.1,0.1c-0.1,0.1,0,0.1,0,0.2
				c0,0,0,0,0,0l0,0c0,0.1,0,0.1,0,0.2c0,0,0.1,0,0.1,0c0,0,0,0.1-0.1,0.1c0.1,0.1,0,0.2,0,0.3c0.1,0,0,0.1,0,0.1l0,0
				c0,0,0,0.1,0,0.1c0.1,0,0,0.1,0.2,0.1c-0.1,0,0,0.1-0.1,0.2c0,0,0,0.1,0.1,0.1c-0.1,0,0,0.1-0.1,0.1c0,0,0,0,0,0
				c0.1,0,0.1,0.1,0.2,0.2c0,0.1,0,0.1,0,0.2c-0.1,0.1,0,0.1,0,0.1c0,0,0,0.1,0,0.1c0.1,0,0,0.1,0,0.1c-0.1,0.1,0.1,0.1,0,0.2
				c0,0,0.1,0.1,0.1,0.2l0,0c0,0,0,0.1,0,0.1c0.1,0,0,0.1,0,0.1c0.1,0,0.1,0.1,0.1,0.1c0.1,0,0,0.1,0.1,0.1c0.1,0,0,0.1,0.1,0.2
				c0.1,0.1,0.1,0.2,0.2,0.3c0.1,0,0,0.1,0.1,0.1c0.1,0.1,0.1,0.2,0.2,0.3c0.1,0,0.3,0,0.4,0c0.1-0.1,0.2-0.1,0.3-0.1
				c0,0,0.1-0.1,0.1-0.1c0-0.1,0.1-0.3,0.1-0.4c0-0.1,0-0.2,0.1-0.3c0-0.1,0-0.2,0.1-0.3c0,0,0-0.1,0-0.1c0-0.1,0-0.2,0-0.3
				c0,0-0.1-0.1-0.1-0.1c0.2,0,0.3,0.2,0.5,0.3c0,0,0,0,0.1,0c0,0.1,0.1,0,0.1,0.1c0.1,0.1,0.3,0.1,0.4,0.1c0.2,0,0.5,0.1,0.7,0.1
				c0.1,0,0.1,0,0.2,0c0.1,0,0.2,0,0.4,0c0.1-0.1,0.1,0,0.2,0c0.1,0,0.2,0,0.3-0.1c0.1,0.1,0.3,0,0.4,0c0.1-0.1,0.2,0,0.3,0
				c0,0,0.1,0,0.1,0c0.1,0,0.3,0,0.4,0c0.1,0,0.1-0.1,0.1,0c0.1-0.1,0.2,0,0.3-0.1c0,0,0.1,0.1,0.1,0c0,0,0.1,0,0.2,0l0,0
				c0,0,0,0,0,0c0,0,0.1,0,0.1-0.1l-0.1,0c0,0,0.1,0,0.2,0c0.1,0,0.1,0.1,0.2,0c0.1-0.1,0.2,0,0.2-0.1c0,0,0.1,0,0.1,0c0,0,0,0,0,0
				c0.1-0.1,0.1,0,0.2,0c0.1,0,0.1,0,0.2,0c0,0,0.1,0,0.2,0c0-0.1,0.1,0,0.2-0.1c0.1,0,0.1,0,0.2,0l0.3,0c0.1,0,0.2-0.1,0.2,0
				c0.1,0,0.1,0.1,0.2,0c0.1,0.1,0.1-0.1,0.2,0c0,0.2,0.1-0.1,0.2,0c0.1,0,0.2,0,0.2,0c0.1,0,0.1,0,0.2,0c0.1,0,0.2,0,0.2,0l0-0.1
				c0,0,0.1,0,0.1,0c0.1-0.1,0.2,0.1,0.2,0c0-0.1,0.1-0.1,0.2-0.1c0.1,0,0.2-0.1,0.2-0.1c0-0.1,0.1,0,0.1-0.1c0,0,0.1,0,0.1,0
				c0.1,0,0.1-0.1,0.2-0.2c0,0,0-0.1,0-0.1c-0.1-0.1,0.1-0.2,0-0.2c0.1-0.1,0-0.1,0-0.2c0,0-0.1,0-0.1,0c0,0-0.1-0.1,0-0.2
				c-0.1,0-0.1-0.2-0.2-0.2c0-0.1-0.1-0.1-0.2-0.2c0-0.1-0.1-0.2-0.1-0.3c-0.1,0-0.1-0.1-0.2-0.1c0,0-0.1-0.1-0.2,0
				c0,0,0-0.1-0.1-0.1c-0.1,0-0.1,0-0.1,0c0,0,0-0.1,0-0.1c0-0.1,0-0.1,0.1-0.2c0,0,0-0.1,0-0.1c-0.1-0.1,0-0.1,0.1-0.1
				c0-0.1,0.1-0.2,0.1-0.3c0.1,0,0.1-0.1,0.1-0.2c0-0.2,0.2-0.3,0.2-0.5c0-0.1,0.1-0.1,0.1-0.1c0.1-0.2,0.3-0.4,0.5-0.6
				c0-0.1,0.1-0.2,0.1-0.3c0-0.1,0.1-0.1,0.1-0.2c0.1,0,0-0.1,0.1-0.1c0-0.1,0.1-0.1,0.1-0.2c0,0,0.1,0,0.1-0.1c0,0,0,0,0,0
				c0,0,0.1,0,0.1-0.1c0.1,0,0.1-0.2,0.2-0.1c0-0.1,0.1-0.1,0.1-0.1c0.1,0,0.1-0.1,0.2,0c0.1-0.1,0.2-0.1,0.2-0.2c0,0,0,0,0,0
				c0,0,0.1-0.1,0-0.1c0,0,0-0.1,0.1-0.1c0,0,0,0,0.1,0c0.1,0,0-0.1,0-0.1C55.6,18,55.8,18,55.7,17.9z M45.9,23.9
				C45.9,23.9,45.9,23.9,45.9,23.9C45.9,23.8,45.9,23.8,45.9,23.9C46,23.8,46,23.9,45.9,23.9z M51.5,17.7c0,0.1-0.1,0.1,0,0.2
				c-0.1,0.1,0.1,0.3-0.1,0.2c0,0,0,0.1,0,0.1c-0.1,0,0,0.1-0.1,0.2c0,0.1-0.2,0.2-0.2,0.4c-0.1,0.1-0.1,0.2-0.1,0.3
				c0,0.1,0,0.1,0,0.2c-0.1,0,0,0.1-0.1,0.2c0,0,0,0.1-0.1,0.1c-0.1,0.2-0.1,0.4-0.2,0.5c0,0.1-0.1,0.1,0,0.2
				c-0.1,0.1-0.1,0.2-0.1,0.3c0,0.1-0.1,0.1-0.1,0.2c0,0,0,0.1,0,0.1l0,0c0,0.1-0.1,0.2-0.2,0.4c0,0,0,0-0.1,0c0,0.1,0,0.1,0,0.1
				c-0.1,0.1,0,0.1-0.1,0.2c0,0.1-0.1,0.1-0.1,0.2c0,0-0.1,0-0.1,0c0,0-0.1,0.1-0.2,0.1c-0.1,0.1-0.1,0-0.2,0l-0.1,0.1
				c-0.1,0.1-0.3,0-0.4,0.1l0,0c0,0-0.1,0-0.1,0c0,0.1-0.1,0.1-0.1,0.1c-0.1,0-0.2,0-0.2,0.1c0,0.1-0.2,0-0.2,0.1
				c-0.1,0-0.2,0.1-0.3,0.1c0,0-0.1,0.1-0.1,0c-0.2,0.1-0.4,0.1-0.6,0.2c-0.1,0-0.2,0.1-0.3,0.1c0,0.1-0.1,0-0.2,0.1
				c0,0.1-0.2,0-0.2,0.1c-0.1,0-0.1,0-0.2,0.1c-0.1,0-0.3,0.1-0.4,0.1l0,0c-0.1,0.2-0.4,0-0.5,0.2c-0.2,0-0.3,0-0.5,0.1
				c-0.1,0-0.2,0.1-0.3,0c0,0-0.1-0.1,0-0.1c0.1-0.1,0-0.1,0-0.1c0,0,0.1,0,0.1-0.1l0-0.1c0,0,0.1,0,0.1-0.1c0-0.1-0.1-0.1,0-0.2
				c-0.1-0.1,0.1-0.1,0-0.2c0-0.1,0-0.1-0.1-0.2c0,0,0-0.1,0-0.1c0,0,0,0,0,0c0,0,0,0,0,0c0-0.1-0.2-0.1-0.1-0.2c0,0,0.1,0,0.1-0.1
				c-0.1-0.1,0.1-0.1,0-0.1c0,0-0.1,0-0.1-0.1c0,0,0-0.1,0-0.1c0.1-0.1,0-0.2,0-0.2c0,0,0,0,0-0.1c-0.1,0,0-0.1-0.1-0.2
				c0-0.1,0-0.2,0-0.4c0,0,0-0.1,0-0.2c0,0,0-0.1,0-0.1c0,0,0.1,0,0.1-0.1l-0.1-0.1c0.1,0,0.1-0.1,0.2-0.1c0-0.1-0.2-0.1-0.1-0.1
				c0-0.1,0.1-0.1,0.1-0.2l0,0l0,0c0.1,0,0-0.1,0-0.1c0,0,0,0,0-0.1h0c0-0.1,0.1,0,0.1-0.1c0-0.1,0-0.2,0.1-0.2
				c0.1-0.1,0-0.1,0.1-0.2c0,0,0.1-0.1,0.1-0.1c0-0.1,0.2,0,0.1-0.2c0-0.1,0.1-0.1,0.2-0.1c0.1-0.1,0.2-0.1,0.3-0.1
				c0.2-0.1,0.5,0,0.7-0.1c0.1-0.1,0.3-0.1,0.5-0.1c0.1,0,0.3-0.1,0.4-0.2c0.1,0,0.1,0,0.2-0.1c0.2,0,0.3-0.1,0.5-0.2
				c0.1-0.1,0.2,0,0.2-0.1c0,0,0.1,0,0.1,0c0.3-0.2,0.7-0.3,1-0.5c0.1,0,0.2-0.1,0.3-0.1c0.1-0.1,0.3-0.1,0.4-0.2
				c0.1,0,0.1,0,0.2-0.1c0.2-0.1,0.4-0.1,0.6-0.1c0.1,0,0.1,0,0.2,0c0.1,0,0.3,0,0.4,0.2c0.1,0,0.1,0,0.1,0.1c0,0,0,0.1,0.1,0.1
				c0,0.1,0.1,0.2,0,0.3c0.1,0,0,0.1,0,0.2C51.5,17.6,51.6,17.6,51.5,17.7z M51.7,20.3C51.7,20.3,51.7,20.3,51.7,20.3
				c0-0.1,0-0.1,0-0.2C51.7,20.1,51.7,20.2,51.7,20.3C51.7,20.3,51.7,20.3,51.7,20.3z"/>
		</g>
		<g>
			<path class="st0" d="M76.6,12.8L76.6,12.8L76.6,12.8C76.6,12.7,76.6,12.8,76.6,12.8z"/>
			<g>
				<path class="st0" d="M80.2,10.1c-0.1,0,0-0.2-0.1-0.2c0.1-0.1-0.1-0.1,0-0.2c0-0.1-0.1-0.1-0.1-0.2c-0.1,0,0-0.1-0.1-0.1l0-0.1
					c0,0-0.1-0.1-0.1-0.1c0-0.1-0.2-0.2-0.2-0.3c-0.1-0.1-0.2-0.1-0.2-0.2c0-0.1-0.1-0.1-0.2-0.2c0,0,0-0.1,0-0.1l-0.1,0
					c0,0,0-0.1,0-0.1c0,0-0.1,0-0.1,0c-0.1,0-0.1-0.2-0.2-0.2c0,0-0.1,0-0.1,0l0,0c0,0,0,0-0.1,0c-0.1,0,0-0.1-0.1-0.1
					c-0.1,0-0.1-0.1-0.2-0.1c0-0.1-0.2,0-0.1-0.1c0,0-0.1-0.1-0.1,0c0,0,0,0,0,0c0,0-0.1,0-0.1-0.1c0,0,0,0,0-0.1
					c-0.1-0.1-0.2-0.1-0.2-0.1c-0.1,0-0.1-0.1-0.2,0c-0.1,0-0.1-0.1-0.1-0.1c0,0,0-0.1-0.1,0c0,0,0,0,0,0c0,0,0,0,0,0c0,0,0,0,0,0
					c-0.1,0-0.1,0-0.1,0l0,0c-0.1,0-0.1,0-0.2-0.1c-0.1,0-0.1,0-0.2,0c0,0-0.1-0.1-0.1,0c-0.1,0-0.2-0.1-0.3-0.1
					c-0.3-0.1-0.5-0.1-0.7-0.2c-0.1,0-0.2-0.1-0.3-0.1c0,0-0.1,0-0.1,0c-0.1,0-0.2-0.1-0.3-0.1c-0.2-0.1-0.4-0.2-0.6-0.2
					c-0.1,0-0.2-0.1-0.4,0c0,0,0,0-0.1,0c-0.1,0-0.2,0-0.4,0l0,0l0,0c-0.9,0-1.7,0.3-2.5,0.5c-0.1,0-0.1,0-0.2,0c0,0,0-0.1,0-0.1
					c0.1,0,0-0.1,0.1-0.2c0,0,0,0,0-0.1c0,0,0-0.1,0.1-0.1c0,0,0,0,0-0.1c0,0,0,0,0,0C71.1,6,71,6,71,5.9c-0.1,0,0,0,0-0.1
					c0,0,0-0.1,0.1-0.1c0-0.1-0.1,0-0.1-0.1c0.1,0,0.1-0.1,0.1-0.1c0,0,0,0,0,0c0,0,0-0.1-0.1-0.1c0,0,0-0.1,0-0.1l0,0
					C71.1,5.1,71,5.1,71,5c-0.1,0,0-0.1-0.1-0.1c-0.1,0,0-0.1-0.1,0c0-0.1-0.2-0.1-0.2-0.2c0,0,0,0-0.1-0.1c-0.1,0-0.1-0.1-0.1-0.1
					c0-0.1-0.1,0-0.1-0.1c0,0-0.1-0.1-0.1-0.1c0,0-0.1,0-0.1-0.1c0,0,0,0-0.1,0c0-0.1-0.1,0-0.1-0.1c-0.1,0-0.2-0.1-0.3-0.1
					c-0.1,0.1-0.1-0.1-0.1,0c0,0,0,0,0,0c-0.1,0-0.1-0.1-0.2-0.1c-0.1,0-0.1-0.1-0.2,0c-0.1-0.1-0.2,0-0.2-0.1l-0.1,0
					c-0.1-0.1-0.1,0-0.2-0.1c0,0-0.1,0-0.1,0c0-0.1-0.1,0-0.1,0c-0.1,0-0.2,0-0.3-0.1c-0.1,0-0.1,0-0.2,0c0,0-0.1,0-0.1,0
					c0,0,0,0-0.1,0c0,0.1-0.2,0-0.3,0.1c0,0,0,0,0,0l0,0c0,0-0.1,0.1,0,0.1c0,0,0,0.1,0,0.1c0,0.1,0,0.1,0.1,0.1c0,0,0,0,0,0.1
					c-0.1,0.1,0.1,0.1,0.1,0.2c0,0,0.1,0,0,0.1c0,0,0,0,0,0c0.1,0,0,0.1,0,0.1c0.1,0,0,0.1,0.1,0.1c0,0.1,0,0.1,0.1,0.1
					c0,0.1,0.1,0.1,0.1,0.2c0,0.1,0.1,0.1,0.1,0.2c0,0.1,0.1,0.1,0,0.1c0,0,0.1,0,0.1,0.1c-0.1,0.1,0.1,0.1,0.1,0.3c0,0,0.1,0,0.1,0
					c0,0.1,0,0.1,0,0.1c0,0,0,0.1,0,0.1c0,0,0,0.1,0,0.1c0.1,0.1,0,0.2,0.1,0.3c0,0,0,0.1,0,0.2c-0.1,0,0,0,0,0.1c0,0,0,0.1,0,0.1
					l0,0L68.3,7c-0.1,0.1,0.1,0.1,0,0.2c0,0,0,0,0,0.1c-0.1,0,0,0.1-0.1,0.2c0,0,0,0,0.1,0.1l0,0c-0.1,0-0.1,0.1-0.2,0.1
					c0,0.1-0.1,0.1-0.2,0.2c-0.8,0.3-1.6,0.8-2.3,1.2c-0.2,0.1-0.4,0.3-0.7,0.3c-0.2,0.1-0.3,0.1-0.5,0.2c0,0-0.1,0-0.1,0
					c-0.1,0-0.2,0.1-0.3,0.1c-0.1,0.1-0.3,0.1-0.4,0.2c0,0-0.1-0.1-0.2,0c0,0-0.1,0,0-0.1c-0.1,0,0-0.1-0.1-0.1c0-0.1,0-0.1-0.1-0.2
					c-0.1,0-0.1,0-0.1,0l0,0c0,0,0-0.1-0.1-0.1c0,0,0,0,0-0.1l0,0c0-0.1-0.1,0-0.1,0c-0.1,0-0.1-0.1-0.1,0c-0.1,0-0.1,0.1-0.2,0.2
					c0,0.1-0.1,0.1,0,0.1c0,0-0.1,0,0,0.1c-0.1,0,0,0.1,0,0.1c0,0,0,0,0,0.1c0,0-0.1,0,0,0.1c0,0.1-0.1,0.1-0.1,0.1
					c0,0-0.1,0-0.1,0.1c0,0,0.1,0,0,0.1c0.1,0.1-0.1,0.1,0,0.2l0,0c0,0,0,0.1,0,0.1c0,0,0,0,0,0.1c-0.1,0,0,0.1-0.1,0.1
					c0,0.1-0.1,0.1,0,0.1c-0.1,0.2-0.3,0.5-0.5,0.7c-0.1,0.2-0.3,0.4-0.4,0.6c0,0,0,0-0.1,0.1c-0.1,0-0.1,0.1-0.1,0.2
					c0,0.1-0.1,0.2-0.2,0.2c0,0,0,0.1,0,0.1c0,0.1,0,0.1-0.1,0.2c0,0.1,0,0.1,0,0.2c0,0,0,0.1,0,0.2c-0.1,0.1,0,0.1,0,0.2
					c0,0.1-0.1,0.1,0,0.2c0,0,0,0.1,0,0.1c0.1,0.1,0,0.2,0.1,0.2c0.1,0,0,0.1,0,0.1c0,0,0.1,0.1,0,0.1c0,0.1,0.1,0,0.1,0.1
					c0,0.1,0.1,0.1,0.1,0.2c0,0,0,0,0,0c0,0,0,0.1,0,0.1c0,0.1,0.1,0.1,0.1,0.2c0.1,0,0.1,0.1,0.1,0.2c-0.1,0.1,0.1,0.1,0,0.2l0,0
					c-0.1,0,0,0.1,0,0.1l0,0c0.1,0,0,0,0.1,0c0,0,0,0.1,0,0.1c0.1,0,0,0.2,0.1,0.2c0,0,0.1,0.1,0.1,0.1c0,0,0.1,0.1,0,0.1
					c0,0,0.1,0,0.1,0.1c0,0,0,0.1,0,0.1c0,0,0.1,0.1,0,0.1c0,0,0,0,0,0c0,0,0,0,0,0.1c0.1,0.1,0.1,0.2,0.1,0.2c0,0,0,0.1,0.1,0.1
					c0,0,0,0.1,0,0.1c0,0.1,0,0.2,0.1,0.3c0,0.1,0,0.1,0.1,0.2c0.1,0.1,0.1,0.2,0.2,0.3c0.1,0.1,0.1,0.2,0.2,0.2
					c0.1,0,0.1,0.1,0.2,0.1c0,0,0.1,0,0.1,0c0,0,0,0,0,0l0,0c0,0,0,0,0,0c0,0,0.1,0,0.1,0.1c0,0,0,0,0,0c0,0,0.1,0,0.1,0.1
					c0,0,0,0,0,0c0,0,0,0,0,0.1c0,0,0,0,0.1,0c0-0.1,0.1,0,0.1,0c0.1,0,0.1,0,0.1,0c0.1,0,0.1,0,0.2-0.1c0.1,0,0.1,0.1,0.1,0
					c0,0,0.1,0,0.1,0c0-0.1,0.1-0.3,0.2-0.4c0-0.1,0-0.2,0-0.3c0-0.1-0.1-0.2-0.1-0.3c0,0,0-0.1,0.1-0.1c0,0,0,0,0,0c0,0,0,0,0.1,0
					c0,0.1,0.1,0,0.2,0.1c0.1,0,0.2,0.1,0.3,0.1c0,0.1,0.1,0,0.2,0c0.2,0,0.4,0.1,0.7,0c0.1,0,0.2,0,0.2,0c0.2,0,0.3-0.2,0.5-0.2
					c0.2-0.1,0.4-0.2,0.6-0.3c0,0,0.1,0,0.1,0c0.3-0.1,0.5-0.3,0.8-0.3c0.1-0.1,0.3-0.1,0.4-0.2c0.1,0,0.1,0,0.1,0
					c0.1,0,0.1-0.1,0.2,0c0,0.1,0,0.1,0,0.2c0,0,0.1,0.1,0,0.1c-0.1,0.1,0,0.1,0.1,0.1c-0.1,0,0,0.1,0,0.2c0.1,0,0,0.1,0,0.1
					c0,0,0,0.1,0,0.1c0,0,0,0.1,0,0.1c0.1,0,0,0.1,0,0.2c0.1,0,0,0,0,0.1c0,0,0,0.1,0,0.1c0,0,0,0,0,0.1c0,0.1,0,0.1,0,0.2
					c0,0.1,0,0.1,0,0.2c0,0,0,0,0,0.1c0,0,0,0.1,0,0.1c0,0.1,0,0.2,0,0.3c0,0,0,0.1,0,0.1c-0.1,0.1,0.1,0.1,0,0.2c0,0.1,0,0.1,0,0.2
					c0.1,0.1,0,0.2,0,0.3c-0.1,0.1,0,0.2,0,0.3c0,0,0.1,0.1,0,0.1l0,0c0,0.1,0,0.2,0,0.4c-0.1,0.1,0,0.2,0,0.3c0,0,0,0.1,0,0.1
					c0,0.1,0,0.2,0,0.2c0,0.1,0,0.2,0,0.3c0,0.3,0,0.5,0,0.8c0,0,0,0.1,0,0.1c0,0.2,0,0.3,0,0.5c0,0.2,0,0.4,0,0.6
					c0,0.1,0,0.3,0,0.4c0,0,0,0.1,0,0.1c0,0.3,0,0.7,0.1,1.1c0,0.3,0.1,0.6,0.1,0.9c0,0.1,0,0.1,0,0.2c0,0.2,0.1,0.4,0.4,0.5
					c0,0,0.1,0,0.1,0c0.1-0.1,0.2-0.2,0.3-0.4c0.1-0.2,0.2-0.3,0.3-0.5c0-0.1,0.1-0.2,0.1-0.3c0.1-0.2,0.1-0.3,0.2-0.5
					c0,0,0-0.1,0-0.1c0-0.1,0-0.1,0-0.1c0,0,0,0,0.1,0c0,0,0,0.1,0,0.1c0-0.1,0.1-0.2,0.1-0.3c0,0,0.1-0.1,0-0.1c0-0.1,0-0.1,0-0.2
					c0-0.1-0.1-0.2,0-0.3c0-0.1,0-0.2,0.1-0.2l0.1-0.3l0,0l0,0c0.1,0,0-0.1,0-0.1c0,0,0-0.1,0-0.1c0-0.1-0.1-0.1,0-0.2
					c0.1-0.1,0-0.1,0-0.2c0,0-0.1-0.1-0.1-0.1c0,0,0-0.1,0-0.1c0,0-0.1-0.1,0-0.1c0-0.1,0-0.1,0-0.2c0-0.1-0.1-0.1,0-0.2
					c-0.1-0.1,0-0.2,0-0.3c0-0.1,0-0.2,0-0.3c0,0,0-0.1,0-0.1l0-0.1c0-0.1,0-0.1,0-0.2c0,0,0,0,0,0c-0.1-0.1-0.1-0.1,0-0.2
					c0.1,0,0-0.1,0-0.1c0,0,0,0,0-0.1c0,0,0-0.1,0-0.1c0,0,0-0.1,0-0.1c0-0.1,0.1-0.1,0-0.2c0-0.1,0.1-0.3,0-0.4c0,0,0-0.1,0.1-0.1
					c0-0.1,0-0.1,0-0.2c0.1-0.1,0-0.3,0-0.5c-0.1,0,0-0.1,0-0.1c0-0.1,0-0.1,0-0.2c-0.1-0.1,0-0.1,0-0.2c0-0.1,0-0.1,0-0.2
					c0,0,0,0,0-0.1c0.1-0.1,0-0.1,0-0.2c0,0,0,0,0,0c0,0,0-0.1,0-0.1c0-0.1,0-0.1,0-0.2c0,0,0-0.1,0-0.1c-0.1-0.1,0.1-0.1,0-0.1
					c0.1-0.1-0.1-0.1,0-0.1c0,0,0,0,0-0.1c0-0.1,0-0.1,0.1-0.1c0,0,0-0.1,0-0.1c0.1-0.1,0-0.1,0-0.2c0,0,0-0.1,0-0.1l0,0
					c0,0,0-0.1,0-0.1c0,0,0.1-0.1,0-0.1l0.1,0c0-0.1,0-0.1,0-0.1l0,0c0.1-0.1,0-0.2,0-0.2c0,0,0,0,0,0l0.1-0.1c0.1,0,0-0.1,0.1-0.1
					c0-0.1,0.1,0,0.2-0.1c0,0,0.1,0,0.1,0c0.2,0,0.5-0.1,0.7-0.2c0.1,0,0.2-0.1,0.3,0c0.1,0,0.2,0,0.2-0.1c0.3,0,0.5-0.1,0.9-0.1
					c0.1,0.1,0.2-0.1,0.3,0c0.1,0,0.1,0,0.2,0c0.1,0,0.1,0.1,0.2,0c0,0,0,0,0.1,0c0.1-0.1,0.2,0,0.2,0c0-0.1,0.1,0,0.1,0
					c0,0,0.1,0,0.2,0c0,0,0,0,0.1,0c0.1,0,0.2,0,0.3,0c0.1,0,0.1,0,0.2,0c0-0.1,0.1,0,0.2,0c0,0,0.1,0,0.1,0c0,0,0,0,0,0
					c0.1,0,0.1,0,0.2,0l0,0c0.1,0,0.1,0,0.1,0c0,0,0.1,0,0.1-0.1c0,0,0.1,0,0.1,0c0,0,0.1,0,0.1,0l0,0c0.1,0,0.2,0,0.3,0
					c0,0,0.1,0,0.1,0c0.1-0.1,0.1,0,0.2,0c0.1,0,0.2,0,0.3,0c0,0,0.1,0,0.1,0l0,0c0,0,0-0.1,0-0.1c0.1,0,0-0.1,0-0.1
					c-0.1,0,0-0.1,0-0.1l0,0c-0.1-0.1,0-0.1,0-0.2l0,0c0,0,0-0.1,0-0.1c0,0,0-0.1-0.1-0.1c0-0.1,0-0.2,0-0.3c0,0,0,0,0,0
					c0,0-0.1-0.1-0.1-0.1c-0.1,0-0.1-0.1-0.1-0.1c0-0.1-0.1-0.1-0.1-0.2c-0.1,0-0.1-0.1-0.1-0.1l-0.1,0c0,0-0.1,0.1-0.1,0
					c0,0,0-0.1,0.1-0.1c0,0,0-0.1,0-0.1l0,0c0,0,0,0,0-0.1c0,0,0,0,0.1,0c0,0,0,0,0,0l0,0c0.1-0.2,0.3-0.3,0.4-0.5
					c0-0.1,0.2-0.1,0.2-0.2c0-0.1,0.2-0.2,0.2-0.3c0.1,0,0.2-0.2,0.3-0.2c0.1,0,0.1-0.1,0.1-0.1c0.2,0,0.2-0.2,0.4-0.2
					c0-0.1,0.1,0,0.1-0.1c0.1,0,0.1,0,0.1,0c0-0.1,0.1-0.1,0.1-0.1c0-0.1,0.1,0,0.1-0.1c0.1,0,0.2-0.1,0.2-0.1c0-0.1,0.1,0,0.1,0
					c0,0,0.1,0,0.1,0c0.1-0.1,0.1,0,0.2-0.1c0.1,0,0.2,0,0.2-0.1l0.2,0c0.1,0,0.2-0.1,0.3-0.1c0-0.1,0.1,0,0-0.1
					C80.2,10.2,80.2,10.1,80.2,10.1z M71,5.6L71,5.6L71,5.6L71,5.6z M68.6,13.1C68.6,13.1,68.6,13.2,68.6,13.1c0,0.1,0,0.2,0,0.2
					l0,0.1c0,0,0,0.1,0,0.1c0,0,0,0.1,0,0.1c0,0.1,0.1,0.2,0,0.2c0,0,0,0,0,0.1l0,0c0,0.1-0.1,0-0.1,0.1c0,0-0.1,0.1-0.1,0.1
					c-0.8,0.3-1.6,0.6-2.3,1.1c-0.4,0.1-0.7,0.3-1,0.5c0,0-0.1,0-0.1,0c-0.1,0-0.2,0.1-0.4,0.1c0,0.1-0.1,0-0.1,0
					c-0.1,0-0.2,0.1-0.3,0.1c0,0,0,0-0.1,0c0,0-0.1,0-0.1,0c-0.1,0-0.1-0.1-0.2,0c0,0,0,0,0,0c0,0-0.1-0.1,0-0.2
					c-0.1-0.1,0-0.1-0.1-0.2c0,0,0,0,0,0c-0.1,0,0-0.1-0.1-0.2c0,0,0-0.1,0-0.1c0,0,0-0.1-0.1-0.1c0,0,0-0.1,0-0.2
					c-0.1,0,0-0.1,0-0.1c0,0,0-0.1,0-0.2c0-0.1,0-0.1,0-0.2c-0.1-0.1,0.1-0.1,0-0.1c0,0-0.1,0-0.1-0.1c-0.1,0,0-0.1-0.1-0.1
					c0-0.1,0-0.1,0-0.2c0-0.1,0-0.1-0.1-0.2c0,0-0.1-0.1,0-0.1c0-0.1-0.1-0.1-0.1-0.2c-0.1-0.1,0-0.2-0.1-0.3c0,0,0-0.1,0-0.1
					c-0.1-0.2,0.2-0.4,0.2-0.6c0-0.1,0-0.1,0.1-0.2c0,0,0-0.1,0-0.1c0-0.1,0-0.1,0-0.2c0-0.1,0.1-0.1,0.1-0.1c0,0,0,0,0-0.1
					c0,0,0,0,0,0c0,0,0.1,0,0.1-0.1c0.1,0,0.1-0.1,0.2-0.1c0,0,0-0.1,0.1-0.1c0,0,0.1-0.1,0.1,0c0.1-0.1,0.2-0.1,0.3-0.1
					c0.1-0.1,0.3-0.1,0.4-0.2c0.1,0,0.2-0.1,0.3-0.1c0.1-0.1,0.1,0,0.2-0.1c0.1,0,0.2-0.1,0.3-0.1c0.2-0.1,0.4-0.2,0.6-0.2
					c0.1,0,0.1-0.1,0.2-0.1c0.1-0.1,0.1-0.1,0.2-0.1c0.1-0.1,0.2-0.2,0.4-0.2c0,0,0.1,0,0.1,0c0.1,0,0.1,0,0.2,0
					c0.1-0.1,0.2-0.1,0.4-0.2c0.1,0,0.1-0.1,0.2-0.1c0.1,0,0.2,0,0.3-0.1c0.1,0,0.1,0,0.1,0c0,0,0.1-0.1,0.1-0.1
					c0.1-0.1,0.1,0,0.1,0.1c0,0.3,0.1,0.5,0,0.8c0,0.1,0,0.2,0,0.3c0,0,0,0.1,0,0.2c0,0.2,0,0.4,0.1,0.6c0,0.1,0,0.1,0,0.2
					c0,0.2,0,0.3,0.1,0.5c0,0.2,0,0.4,0,0.6c0.1,0,0,0.1,0,0.1C68.5,13,68.6,13,68.6,13.1z M73.9,12C73.9,11.9,74,11.9,73.9,12
					C74,11.9,74,11.9,73.9,12C74,11.9,74,11.9,73.9,12C74,12,73.9,12,73.9,12z M74,11.9C74,11.9,74,11.9,74,11.9
					C74,11.9,74,11.9,74,11.9z M75.9,8.9L75.9,8.9c-0.1,0.3-0.3,0.7-0.5,0.9l0,0l0,0c-0.3,0.2-0.2,0.6-0.5,0.8c0,0,0,0,0.1,0l0,0
					c0,0,0,0-0.1,0c0,0-0.1,0.1-0.1,0.1l0,0c-0.2,0.1-0.3,0.3-0.4,0.5c0,0-0.1,0.1-0.1,0.1c0,0,0,0,0,0c0,0,0,0.1-0.1,0
					c0,0.1-0.2,0.1-0.2,0.3c-0.1,0-0.1,0.1-0.2,0.1c0.1,0.1-0.1,0.1-0.1,0.2c-0.1,0-0.1,0.1-0.1,0.1c0,0-0.1,0.1-0.1,0.2
					c-0.1,0-0.1,0.1-0.1,0.1c-0.1,0-0.2,0.1-0.2,0.1c0,0-0.1,0.1-0.1,0.1c0,0-0.1,0-0.1,0c0,0,0,0.1-0.1,0.1c0,0,0,0-0.1,0
					c0,0,0,0,0,0c-0.1,0.1-0.2,0-0.3,0.1c-0.1,0.1-0.2,0.1-0.2,0.2c-0.1,0-0.1,0-0.2,0c-0.4,0.1-0.9,0.2-1.3,0.3
					c-0.1,0-0.1-0.1-0.1-0.2l0,0c0,0-0.1-0.1-0.1-0.1c0,0,0,0,0,0c0,0,0-0.1,0-0.1c0-0.1,0-0.1,0-0.2c0-0.1,0-0.1,0-0.2
					c0.1-0.1-0.1-0.2,0-0.3c0,0,0.1-0.1,0-0.2c0,0,0,0,0,0c0,0,0,0,0-0.1c0-0.1,0-0.1,0-0.2c-0.1,0,0-0.1,0-0.1c0,0,0-0.1,0-0.2
					c0,0,0,0,0,0c-0.1-0.1,0-0.2,0-0.3l0,0c-0.1,0,0-0.1,0-0.1c0-0.2,0-0.3,0-0.5c0,0,0-0.1,0-0.1c0,0,0-0.1,0-0.1
					c0.1,0,0-0.1,0-0.2c0-0.1,0-0.1,0-0.2c0-0.1,0-0.1,0-0.2c0.1-0.1-0.1-0.1,0-0.2c-0.1-0.1,0.1-0.1,0-0.1c0,0,0-0.1,0-0.1l0,0
					c0,0,0.1-0.1,0-0.1c0-0.1,0.1-0.1,0.1-0.1c0,0-0.1,0,0-0.1c0,0,0.1,0,0.1-0.1c0-0.1-0.1-0.1,0-0.2c0.1,0,0-0.1,0-0.2
					c0,0-0.1-0.1,0-0.1c0.1,0,0-0.1,0.1-0.1l0,0c-0.1-0.1,0.1,0,0-0.1c0,0,0.1-0.1,0.2-0.1c0.2-0.1,0.5,0,0.7-0.1c0.1,0,0.1,0,0.2,0
					c0.1,0,0.1,0,0.2-0.1l0.3-0.1c0.1,0,0.2,0,0.2,0c0.1,0.1,0.1-0.1,0.2,0c0,0,0.1,0,0.1,0c0-0.1,0.1,0,0.1,0c0.1,0,0.1,0,0.2,0
					c0,0.1,0.1,0,0.1,0c0.1-0.1,0.1,0,0.2-0.1c0.3,0,0.6,0,0.9,0.1c0.3,0.1,0.5,0.3,0.8,0.3c0.1,0,0.1,0.1,0.2,0.1
					c0.1,0,0.1,0.1,0.2,0.1l-0.1,0c0.1,0.1,0.3,0.1,0.3,0.2c0,0,0,0.1,0,0.1C75.9,8.8,76,8.8,75.9,8.9z"/>
				<path class="st0" d="M62.2,9.2C62.2,9.2,62.2,9.2,62.2,9.2C62.2,9.2,62.2,9.2,62.2,9.2z"/>
				<path class="st0" d="M62.9,17.9L62.9,17.9L62.9,17.9C62.8,17.8,62.9,17.8,62.9,17.9z"/>
				<path class="st0" d="M62.9,17.9L62.9,17.9C62.9,17.9,62.9,17.9,62.9,17.9C62.9,17.9,62.9,17.9,62.9,17.9z"/>
			</g>
			<path class="st0" d="M69.9,23.9C69.9,23.9,69.9,23.9,69.9,23.9C69.9,23.9,69.9,23.8,69.9,23.9z"/>
		</g>
		<g>
			<g>
				<path class="st0" d="M93,9.2c0.2,0,0.2-0.3,0.3-0.5c0-0.1,0-0.3,0-0.4c0-0.1-0.1-0.2-0.1-0.3c0-0.1-0.1-0.2-0.2-0.4
					c0-0.1-0.1-0.1,0-0.1c0,0-0.1,0-0.1,0c-0.1-0.1,0-0.2-0.2-0.2c0,0,0,0,0-0.1c-0.1,0-0.1-0.2-0.2-0.2c-0.1-0.1-0.1-0.2-0.2-0.2
					c0-0.1-0.1,0-0.2-0.1l0,0c0,0,0-0.2-0.1-0.1c0,0,0,0,0,0c-0.1,0-0.1-0.1-0.2,0c0-0.1-0.1,0-0.1-0.1c0,0,0,0-0.1,0
					c0-0.1-0.1-0.1-0.1-0.1c0,0,0,0,0-0.1c0,0,0-0.1-0.1,0c-0.1,0-0.1,0-0.2,0.1c0,0-0.1,0-0.2-0.1c0,0-0.1,0-0.1,0
					c0,0-0.1,0-0.1-0.1c-0.1,0-0.2-0.1-0.2,0c0,0,0,0,0,0c0,0-0.1,0-0.1,0c0,0-0.1,0-0.1-0.1c0-0.1,0.1-0.2,0.1-0.2
					c0,0,0-0.1,0.1-0.1l0-0.1c0.1-0.1,0-0.1,0-0.2c0,0,0,0,0-0.1c0-0.1-0.1-0.1,0-0.1l0,0c0,0,0,0,0-0.1c0,0-0.1,0,0,0
					c0,0,0-0.1-0.1-0.1c0-0.1,0-0.2-0.1-0.2c0,0-0.1-0.1,0-0.1h0l0-0.1c0,0-0.1,0-0.1,0c0-0.1-0.1-0.1-0.1-0.1
					c0-0.1-0.1-0.1-0.2-0.2c-0.1,0-0.1-0.1-0.2-0.2c-0.1,0-0.2-0.1-0.2-0.1c-0.1,0-0.2-0.1-0.3-0.1c0,0-0.1,0-0.1,0
					c0-0.1-0.1,0-0.1-0.1c-0.1,0-0.2,0-0.2,0c0,0,0,0.1,0,0.2c0,0,0,0,0,0.1c0,0.1-0.1,0.2-0.1,0.2c0,0,0,0.1,0,0.2
					c0,0.1,0,0.1,0,0.2c-0.1,0.1,0.1,0.1,0,0.1c0,0,0,0-0.1,0c0,0.1,0,0.2,0,0.2c0,0-0.1,0.1-0.1,0.1c-0.3,0.5-0.5,1-0.8,1.4
					c0,0.1-0.1,0.1-0.1,0.1c-0.3,0.4-0.7,0.9-1,1.4c0,0-0.1,0-0.1,0l0,0c-0.1,0.1-0.1,0.2-0.2,0.3c-0.2,0.4-0.5,0.7-0.7,1.1
					c-0.1,0.2-0.2,0.3-0.3,0.5c-0.1,0.1-0.1,0.3-0.2,0.4c0,0.1-0.1,0.2-0.2,0.3c-0.3,0.5-0.7,0.9-1,1.5c-0.5,0.6-0.8,1.2-1.2,1.8
					c0,0,0,0.1,0,0.1c-0.1,0.2-0.2,0.3-0.3,0.5c0,0,0,0.1,0,0.1c0,0.1-0.1,0.1,0,0.1c-0.2,0.4-0.5,0.8-0.7,1.2l0,0.1c0,0,0,0,0,0
					c-0.1,0.2-0.2,0.4-0.3,0.6c0,0,0,0,0,0l0,0.1L81.3,17l0,0c0-0.1,0.1,0,0.2,0c0.1,0,0.1-0.1,0.1-0.1c0-0.1,0.1-0.1,0.1-0.1
					c0.1,0,0.1-0.1,0.1-0.1c0.1,0,0.1-0.1,0.2-0.2c0,0,0.1,0,0.1,0c0,0,0,0,0.1-0.1c0-0.1,0.1,0,0.2-0.1c0.1-0.1,0.2-0.1,0.2-0.2
					c0.1-0.1,0.2-0.2,0.3-0.3c0.1-0.1,0.3-0.2,0.4-0.4c0,0,0-0.1,0.1-0.1c0.1-0.1,0.3-0.2,0.4-0.4c0.1-0.1,0.3-0.1,0.3-0.3
					c0.1-0.1,0.2-0.2,0.2-0.2c0.1-0.1,0.1-0.2,0.2-0.3c0.1-0.1,0.2-0.2,0.3-0.3c0.1-0.2,0.2-0.3,0.3-0.5c0.1-0.1,0.2-0.3,0.3-0.4
					c0.2-0.2,0.3-0.5,0.5-0.7c0-0.1,0.1-0.1,0.1-0.2c0.1-0.1,0.2-0.2,0.2-0.3c0.1,0,0.1-0.2,0.2-0.2c0.1,0,0.1-0.1,0.2-0.2
					c0-0.2,0.2-0.2,0.2-0.4c0.1,0,0.2-0.2,0.2-0.2c0.1-0.1,0.1-0.2,0.2-0.2c0.1-0.2,0.2-0.4,0.4-0.5c0.1-0.2,0.2-0.3,0.3-0.5
					c0.1-0.1,0.2-0.3,0.2-0.4c0-0.1,0.1-0.1,0.2-0.3c0.1-0.1,0.1-0.2,0.2-0.2c0-0.1,0.1-0.1,0.1-0.2c0.1-0.2,0.3-0.4,0.4-0.5
					c0-0.1,0.1-0.2,0.2-0.3c0.2-0.1,0.3-0.3,0.4-0.5c0,0,0.1,0,0.1-0.1c0,0,0.1-0.1,0.1-0.1l0,0l0.1,0c0,0.1,0.1,0,0.1,0.1
					c0,0.1,0.1,0.1,0.1,0.1c0.1,0.1,0.1,0.1,0.2,0.2l0,0c0,0,0.1,0.1,0.1,0.1c0,0.1,0.1,0,0.1,0.2c0.1,0,0.2,0.2,0.3,0.3
					c0,0,0,0,0.1,0c0,0.1,0.1,0,0.1,0.1c0,0,0.1,0,0.1,0.1c0,0.1,0.1,0.2,0.2,0.2v0.1c0,0,0.1,0.1,0.1,0.1c0.1-0.1,0.1,0,0.2,0
					c0.1,0,0,0.1,0.1,0.1c0,0,0.1,0.1,0.1,0.1c0,0,0,0,0,0c0,0,0.1,0.1,0.1,0.1c0,0.1,0.1,0,0.1,0.1c0.1,0,0.2,0.1,0.3,0.1
					c0,0.1,0.1,0.1,0.2,0.1c0,0.1,0.2,0,0.2,0.1C92.7,9.2,92.9,9.3,93,9.2z"/>
				<path class="st0" d="M104.2,24c0,0-0.1-0.1-0.1-0.1c0-0.1,0-0.1,0-0.2c0,0,0-0.1-0.1-0.1c0,0,0-0.1,0.1-0.1c0-0.1,0-0.2,0-0.3
					c0.1,0,0-0.1,0-0.1c-0.1,0,0-0.1-0.1-0.1l0-0.1c0,0,0-0.1,0-0.1c0,0,0-0.1-0.1-0.1l0,0c0,0,0-0.1-0.1-0.1c0,0,0,0,0.1-0.1
					c0-0.1,0-0.1-0.1-0.2c0,0,0-0.1,0-0.1c-0.1,0,0-0.1-0.1-0.1c0,0,0,0,0-0.1c0-0.1,0-0.1,0-0.2c0,0,0-0.1-0.1,0c0,0-0.1-0.1,0-0.1
					c0,0,0-0.1-0.1-0.1c0.1-0.1-0.1-0.1-0.1-0.2c0-0.1-0.1-0.1-0.1-0.1c0,0,0,0,0,0l0-0.1c0-0.1-0.1-0.1-0.1-0.1c0,0-0.1,0-0.1,0
					c0,0-0.1,0-0.1-0.1c0,0,0-0.1-0.1-0.1c0,0-0.1,0-0.1-0.1c0-0.1-0.1,0-0.1-0.1c0,0,0-0.1-0.1-0.1c0,0-0.1,0-0.1-0.1
					c-0.1,0-0.1-0.1-0.2-0.1c0-0.2-0.2,0-0.2-0.2c0-0.1-0.1,0-0.2-0.1c0,0,0-0.1-0.1-0.1c0,0-0.1-0.1-0.2-0.1
					c-0.1,0-0.1-0.1-0.1-0.1c0,0-0.1,0-0.1,0c0-0.1-0.1-0.1-0.1-0.1c-0.1,0-0.1-0.1-0.1-0.1c-0.1-0.1-0.2-0.1-0.3-0.2
					c-0.2-0.2-0.5-0.3-0.8-0.5c-0.3-0.2-0.6-0.5-1-0.7v0c-0.2-0.1-0.3-0.2-0.5-0.4c-0.1-0.1-0.2-0.1-0.3-0.2
					c0.1-0.1,0.2-0.1,0.3-0.2c0-0.1,0.1-0.1,0.2-0.2c0,0,0-0.1,0.1,0c0,0,0,0,0,0c0,0,0,0,0,0c0-0.1,0.1-0.1,0.1-0.1l0,0
					c0.1,0.1,0.1-0.1,0.2-0.1c0-0.1,0.1-0.1,0.2-0.1c0.1,0,0.1-0.1,0.2-0.1c0.1,0,0.1,0,0.2,0l0.1-0.1c0.1,0,0.2-0.1,0.2-0.2
					c0,0,0,0,0.1,0l0,0l0,0c0.1,0,0.1-0.1,0.2,0c-0.1-0.1,0.1-0.1,0.1-0.2c0,0,0.1,0,0.1-0.1c0-0.1,0-0.1,0.1-0.2
					c0.1,0,0.1-0.1,0.2-0.2c0.2,0,0.2-0.2,0.4-0.3c0-0.1,0.1,0,0.1-0.1l0,0c0,0,0,0,0,0c0.1-0.2,0.3-0.3,0.4-0.5l0,0c0,0,0,0,0.1,0
					l0,0c0,0,0,0,0,0c0,0,0-0.1,0.1,0c0-0.1,0.1-0.1,0.1-0.2c0.1-0.1,0-0.2,0-0.4c0,0,0-0.1,0-0.1c0,0,0-0.1,0-0.1
					c-0.1-0.1,0-0.2-0.1-0.2c0-0.1-0.1-0.1-0.1-0.2c0-0.1-0.2-0.1-0.1-0.2h0l0,0c0-0.1-0.1,0-0.1-0.1c-0.1,0-0.1-0.1-0.1-0.2
					c0,0-0.1,0-0.1,0c0-0.1-0.1,0-0.1-0.1c0,0,0,0,0-0.1c-0.1,0-0.1-0.1-0.1-0.1c-0.1,0-0.1-0.1-0.3-0.2c-0.1,0-0.1-0.1-0.1-0.1
					c-0.1,0-0.1-0.1-0.2-0.1c-0.1,0-0.1,0-0.2,0c-0.1,0.1,0,0.2,0,0.3c-0.1,0.1,0,0.1,0,0.1l0,0c0,0,0,0,0,0.1l0,0.2
					c0,0,0,0.1-0.1,0.2l0,0l0,0c0,0.1,0,0.1-0.1,0.2l0,0c-0.1,0.1-0.1,0.1-0.2,0.3c-0.2,0.1-0.2,0.4-0.4,0.4
					c-0.2,0.3-0.5,0.6-0.8,0.8c0,0,0,0,0,0.1c-0.1,0.1-0.1,0.2-0.2,0.2c0,0.1-0.1,0.1-0.2,0.2c0,0.1,0,0-0.1,0.1
					c-0.2,0.3-0.5,0.5-0.7,0.8c-0.1,0.1-0.1,0.2-0.2,0.2c-0.1,0.1-0.2,0.2-0.3,0.2c-0.1,0-0.2,0.3-0.4,0.2c-0.1,0.1-0.1,0-0.2,0
					C97.2,17,97,17,96.8,16.8c-0.2-0.1-0.3-0.1-0.4-0.2c-0.3,0-0.5-0.1-0.7,0.1c0,0.1,0.1,0.1,0,0.1c0.1,0-0.1,0.1,0,0.1
					c0,0.1,0.1,0.2,0.1,0.3c0,0.1,0.1,0.1,0.1,0.2h0c0,0,0,0.1,0,0.1c0,0,0.1,0.1,0.1,0.1c0,0.1,0.1,0.2,0.2,0.3
					c0,0,0.1,0.1,0.1,0.1c0,0,0,0.1,0.1,0.1c0,0,0,0.1,0,0.1c0.1,0,0.1,0.1,0.2,0.1c0,0,0.1,0.1,0.1,0.1c0.1,0.1,0.3,0.2,0.5,0.3v0
					c0.1,0,0.2,0.1,0.2,0.2c0.2,0.1,0.3,0.3,0.5,0.4c0.1,0.1,0.3,0.2,0.4,0.3c0.1,0.1,0.1,0.1,0.2,0.2c0.1,0.1,0.2,0.2,0.2,0.3
					c-0.2,0.2-0.4,0.3-0.6,0.5c0,0-0.1,0-0.1,0.1c-0.2,0.1-0.4,0.4-0.7,0.5c0,0.1-0.1,0.1-0.1,0.1c-0.2,0.1-0.4,0.2-0.6,0.3
					c-0.2,0.2-0.5,0.2-0.7,0.3c-0.1,0-0.1,0.1-0.2,0.1c-0.1,0.1-0.1,0-0.2,0.1c-0.1,0-0.3,0-0.4,0c0,0,0,0-0.1,0c0,0-0.1,0-0.1,0
					c0-0.1-0.1,0-0.2,0c0-0.1-0.1,0-0.1-0.1c0-0.1-0.1-0.1-0.1-0.1c0-0.1,0-0.1,0-0.2h0c0,0,0-0.1,0-0.1c-0.1,0,0-0.1-0.1-0.1
					c0,0,0-0.1,0-0.1c0-0.1,0-0.2-0.1-0.3c0-0.1-0.1-0.1,0-0.2c0-0.1,0-0.3,0-0.4c0-0.1,0-0.2,0-0.3c0.1-0.1,0-0.2,0.1-0.3
					c0-0.3,0-0.5,0.1-0.8c0-0.5,0.1-0.9,0.2-1.4c0-0.3,0-0.5,0.1-0.8c0.1-0.1,0-0.1,0-0.2c0-0.1,0-0.3,0-0.4c0-0.2,0-0.4,0.1-0.5
					c0-0.1,0-0.2,0-0.2c0.1-0.1,0-0.3,0.1-0.4c0,0,0,0,0-0.1c0.1,0,0.1-0.1,0.2-0.1c0,0.1,0.1,0,0.2,0c0.1,0,0.1-0.1,0.2,0
					c0-0.1,0.1,0.1,0.2,0c0.1,0,0.2,0,0.2-0.1c0.1,0,0.2,0.1,0.3,0l0,0c0-0.1,0.1,0,0.2-0.1c0-0.1,0.1,0,0.1-0.1
					c0.2-0.1,0.3-0.1,0.5-0.2c0.1-0.1,0.2-0.1,0.3-0.2c0.1,0,0.2-0.1,0.3,0c0,0,0.1,0,0.1-0.1c0.2,0,0.4-0.1,0.5-0.2
					c0,0,0.1,0,0.1,0c0,0,0.1,0,0.1-0.1c0.1,0,0.2-0.1,0.4,0c0,0,0,0,0.1,0c0.1,0.1,0.2-0.1,0.3-0.1c0.1,0,0.1,0,0.2,0
					c0.1,0,0.1-0.1,0.2,0c0,0,0.1,0,0.1-0.1c0.1,0.1,0.1,0,0.2,0c0.1,0,0.1-0.2,0.2-0.2c0,0,0.1-0.1,0-0.1c0-0.1,0-0.2,0.1-0.2
					c0-0.1,0-0.2,0-0.3c0-0.1,0.1-0.2,0.1-0.3c0-0.1,0.1-0.2,0.1-0.2c0-0.1,0.1-0.1,0.1-0.2c0.1,0,0-0.1,0.1-0.1l0,0
					c0.1-0.1,0.1-0.2,0.2-0.3c0,0,0.1,0,0.1-0.1c0,0,0.1-0.1,0.1-0.1c0-0.1,0.1-0.1,0.1-0.2c0,0,0-0.1,0.1-0.1c0-0.1,0-0.1,0-0.1
					c0-0.1,0.1-0.1,0.1-0.1c0,0,0.1-0.1,0-0.1c0,0,0-0.1,0.1-0.1c0,0,0-0.1,0-0.2c0,0,0.1,0,0-0.1c0,0,0.1-0.1,0.1-0.1
					c0,0,0-0.1,0.1-0.1l0,0c0,0,0-0.1,0.1-0.1c0-0.1,0.1-0.2,0-0.2c0-0.1,0.1-0.1,0.1-0.2c0,0,0-0.1,0.1-0.2l0,0
					c0-0.1,0.1-0.1,0.1-0.2c0.1,0,0.1-0.1,0.1-0.2c0-0.2,0.1-0.3,0.2-0.5c0.1-0.1,0.1-0.3,0.2-0.4c0-0.1,0.1-0.2,0.1-0.3l0,0
					c0-0.1,0-0.1,0-0.2c0-0.1,0-0.1,0-0.2c0,0,0-0.1,0-0.1c0-0.2,0.1-0.3,0-0.5c0-0.1-0.1-0.2-0.1-0.2c0-0.1-0.1-0.1-0.1-0.1
					c0.1-0.1,0-0.1,0-0.1h0c0-0.1-0.1-0.1-0.1-0.2c0,0-0.1,0-0.1,0c0-0.1-0.1-0.1-0.1-0.2c0,0-0.1,0-0.1,0c0-0.1-0.1-0.1-0.2-0.2
					c0-0.1-0.1-0.1-0.1-0.2c-0.1,0-0.1-0.1-0.2-0.1l0,0c0,0-0.1,0-0.1-0.1c-0.1-0.2-0.3-0.3-0.5-0.5c-0.1,0-0.1-0.1-0.2-0.1
					c-0.1-0.1-0.2-0.2-0.3-0.2c-0.1-0.1-0.1,0-0.2-0.1c-0.2,0-0.3,0-0.4,0c-0.1-0.1-0.2,0-0.4,0l0,0c-0.1,0-0.1,0-0.2,0
					c-0.2,0-0.4,0-0.7,0.1c0,0-0.1,0.1-0.2,0.1c-0.2,0-0.3,0.1-0.4,0.2c0,0.1-0.1,0.1-0.2,0.1c0,0-0.1,0-0.1,0l0,0
					c0,0-0.1,0-0.1,0.1c0,0,0,0,0,0.1c0,0-0.1,0-0.1,0c-0.1,0.1-0.3,0.1-0.4,0.2c-0.1,0-0.2,0.1-0.2,0.1c-0.1,0-0.2,0.1-0.3,0.1
					c0,0.1-0.1,0-0.1,0.1c0,0,0,0,0,0c0,0-0.1,0-0.1,0c-0.2,0-0.4,0.2-0.5,0.2C95,6,94.9,6,94.8,6c-0.1,0.1-0.1,0-0.2,0
					c0,0,0,0.1-0.1,0.1c0,0-0.1,0-0.1-0.1c-0.1,0-0.2-0.1-0.3-0.1c0,0,0,0.1,0,0.1C94,5.8,94,6,93.9,5.9c-0.1,0.1-0.1-0.1-0.2,0
					c-0.1,0-0.3,0-0.4,0c0,0,0,0-0.1,0c0,0-0.1,0-0.1,0.1c0.1,0,0,0.1,0.1,0.2c0.1,0.1,0,0.2,0.1,0.3c0,0.1,0.1,0.2,0.1,0.4
					c0,0,0.1,0.1,0,0.1c0,0.1,0.1,0,0.1,0.1c0,0-0.1,0,0,0.1c0.1,0,0,0.2,0.1,0.2c0,0.1,0.1,0.1,0,0.2c0,0,0,0.1,0,0.2
					c0,0.1,0.1,0.1,0.1,0.1c-0.1,0,0,0.1,0,0.1c0,0.1,0.1,0.1,0.1,0.2c-0.1,0.1,0,0.1,0,0.3c-0.1,0.1,0.1,0.1,0,0.2c0,0,0,0.1,0,0.2
					c0,0.1,0.1,0.2,0,0.3c0,0.1,0,0.1,0,0.2c0,0,0,0.1,0,0.1c0,0.1,0.1,0.1,0,0.2c0,0.1,0,0.3,0,0.4c0,0-0.1,0.1,0,0.1
					c0,0.1,0,0.2,0,0.2c0,0,0,0.1-0.1,0.1c0,0,0,0,0,0.1c-0.1,0.1,0,0.3-0.1,0.5c0,0,0,0,0,0.1c0,0.1,0,0.3,0,0.4l0,0
					c0,0,0,0.1,0,0.1c0,0.1,0,0.1,0,0.2h0c0,0.2,0,0.4-0.1,0.6c0,0-0.1,0.1,0,0.2c0,0,0,0.1-0.1,0.1c0.1,0.1,0,0.1,0,0.2
					c-0.1,0.1,0,0.2-0.1,0.3c0,0.1,0,0.1,0,0.2c0,0.2-0.1,0.4-0.1,0.6c-0.1,0.2-0.1,0.4-0.1,0.6l0,0l0,0c-0.1,0,0,0.1,0,0.1l0,0.2
					l0,0c0,0.2-0.1,0.3,0,0.4c0,0.1,0,0.2,0,0.3c0,0.1,0,0.2,0,0.3c-0.1,0.4-0.1,0.7-0.1,1.1c0,0.2,0,0.4,0,0.6c0,0.1,0,0.1,0,0.2
					c-0.1,0.4-0.1,0.8-0.1,1.2c0,0.3-0.1,0.6,0,0.9c0,0.1,0,0.2,0,0.3c0,0.1,0,0.2,0,0.3c0.1,0.1,0,0.1,0,0.2c0,0,0,0.1,0,0.1
					c0,0.1,0.1,0.1,0,0.2c0.1,0.1,0,0.1,0,0.2c-0.1,0.1,0.1,0.1,0,0.2c0,0,0,0.1,0,0.1c0.1,0.1,0,0.2,0,0.3c0,0,0,0.1,0,0.2
					c0,0,0,0.1,0,0.1c0,0,0,0.1,0,0.1c0,0.1,0,0.1,0,0.2h0c0,0,0,0.1,0,0.1c0,0,0,0.2,0.1,0.2l0,0c0,0,0,0.1,0,0.1
					c0,0.1,0.1,0.1,0.1,0.2c0,0,0,0.1,0,0.1c0,0.1,0.1,0.1,0,0.2c0,0.1,0.1,0.2,0.1,0.2c-0.1,0.1,0.1,0.1,0,0.2
					c0,0.1,0.1,0.1,0.1,0.2l0,0c0,0,0.1,0,0.1,0.1c0.1,0,0,0.1,0.1,0.1c0.1,0,0.1,0.1,0.1,0.1c0,0,0.1,0.1,0.1,0.1
					c0,0.1,0.1,0.2,0.2,0.2c0.1,0.1,0.1,0.1,0.2,0.1c0.1,0,0.2,0.1,0.3,0c0.1,0,0.2,0,0.3,0c0.1,0,0.1,0,0.2,0c0-0.1,0.1,0,0.2,0
					c0,0,0.1-0.1,0.1-0.1c0.2,0,0.3-0.3,0.6-0.3c0,0,0.1-0.1,0.2-0.1c0.1,0,0.1-0.1,0.2-0.1c0.1,0,0.2-0.1,0.2-0.2
					c0-0.1,0.1,0,0.2-0.1c0-0.1,0.1,0,0.1,0c0-0.1,0.1-0.1,0.2-0.2c0-0.1,0-0.1,0.1-0.1c0,0,0.1,0,0.1,0c0-0.1,0.1-0.1,0.2-0.2
					c0.1-0.1,0.1-0.1,0.2-0.2c0,0,0,0,0.1-0.1c0-0.1,0.1-0.2,0.2-0.3l0-0.1c0,0,0-0.1,0.1-0.1c0-0.1,0.1-0.2,0.2-0.3
					c0-0.1,0.1,0,0.1-0.1c0.1-0.1,0.1-0.2,0.2-0.2c0,0,0-0.1,0.1-0.1c0-0.1,0.1,0,0-0.1h0c0,0,0,0,0,0c0.1,0,0.1-0.1,0.1-0.1
					c-0.1-0.1,0.1-0.2,0-0.3c0.2-0.2,0.3-0.5,0.3-0.8c0.1-0.1,0.1-0.2,0.2-0.2c0.2,0.1,0.2,0.3,0.4,0.4c0.1,0.1,0.2,0.2,0.3,0.3
					c0,0.1,0.1,0,0.1,0.1c0.1,0.1,0.1,0.1,0.2,0.2c0,0.1,0.1,0.1,0.1,0.2c0.1,0,0.1,0.2,0.3,0.3c0,0.1,0.1,0.1,0.1,0.2
					c0,0.1,0.1,0.1,0.1,0.2c0,0,0,0,0,0c0.1,0.1,0.2,0.2,0.2,0.3c0,0,0,0,0.1,0c0,0.1,0.1,0.1,0.1,0.1c0,0,0,0,0,0.1
					c0,0,0,0.1,0,0.1c0,0,0.1,0,0.1,0.1c0,0,0,0,0,0c0,0,0,0,0.1,0c0,0,0.1,0.1,0.1,0.1c0,0,0.1,0.1,0.1,0.1c0.1,0,0,0.2,0.1,0.2
					c0,0,0.1,0.1,0.1,0.2c0,0,0,0.1,0.1,0.2c-0.1,0.1,0.1,0.1,0.2,0.2c-0.1,0.1,0,0.1,0,0.2c0.1,0,0.1,0.1,0.2,0.1
					c0,0.1-0.1,0.1,0,0.2c0,0.1,0.1,0,0.1,0.1c0,0.1,0.1,0.1,0.1,0.2l0,0c0,0,0,0,0,0.1c0,0,0,0.1,0.1,0.1l0,0.1
					c0.1,0,0.1,0.2,0.2,0.2c-0.1,0.1,0.1,0.1,0.1,0.2c0,0.1,0,0.1,0.1,0.2c0.1,0,0,0.1,0.1,0.1c0.1,0,0.1,0.1,0.1,0.1
					c0,0,0.1,0,0.1,0c0,0,0,0.1,0.1,0.1c0.1-0.1,0.1,0.1,0.2,0.1c0.1,0,0.2,0,0.2,0v0c0.1,0,0.2,0,0.3-0.1c0-0.1,0.1,0,0.1-0.1
					c0.1,0,0.2-0.1,0.2-0.2c0.2-0.1,0.1-0.2,0.2-0.3c0-0.1,0-0.1,0-0.2c0,0,0-0.1,0.1-0.1c0-0.1,0-0.2,0.1-0.2l0-0.1
					c0.1-0.1,0-0.2,0-0.3c0,0,0-0.1,0-0.1C104.3,24.1,104.2,24,104.2,24L104.2,24z M100.8,16.3c-0.1,0,0,0.1-0.1,0.1
					C100.7,16.4,100.8,16.3,100.8,16.3z M96.4,12.9L96.4,12.9C96.4,12.9,96.4,12.8,96.4,12.9C96.4,12.9,96.4,12.9,96.4,12.9z
					 M99.3,13.5L99.3,13.5C99.3,13.5,99.2,13.4,99.3,13.5C99.3,13.4,99.3,13.4,99.3,13.5z M95.2,10L95.2,10c0-0.1,0-0.2,0-0.4
					c0,0,0-0.1,0-0.2c0-0.1,0-0.2,0-0.3c-0.1-0.1,0-0.1,0-0.2c0-0.1,0-0.2,0-0.3c-0.1-0.1,0-0.1,0-0.2c0-0.1,0.1-0.1,0-0.2
					c0,0,0,0,0-0.1c0,0,0,0,0,0c0-0.1,0-0.1,0-0.2c0.1,0,0.1-0.1,0.1-0.2c0.1,0,0.2-0.1,0.3-0.1c0.2-0.1,0.3-0.1,0.5-0.2l0,0
					l-0.1-0.1c0.1,0.1,0.1,0.1,0.2,0.1c0.1-0.1,0.2,0,0.3-0.1c0.1-0.1,0.2-0.1,0.3-0.2c0,0,0.1,0,0.1-0.1c0.1-0.1,0.3-0.1,0.4-0.2
					c0.1-0.1,0.2-0.1,0.3-0.2c0.1-0.1,0.2-0.1,0.3-0.1c0.1,0,0.2-0.1,0.3-0.1c0-0.1,0.1-0.1,0.2-0.1c0.2-0.1,0.3-0.1,0.5-0.2
					c0.1,0,0.3-0.1,0.4,0.1c0.1,0,0.1,0.1,0.1,0.1c0,0,0,0,0,0.1c0.1,0.1,0.1,0.2,0.2,0.2c0,0,0,0.1,0,0.1c0,0.1,0,0.2,0.1,0.3
					c0,0,0,0.1,0,0.1c0,0.1,0,0.1,0,0.1c0,0.1,0,0.2-0.1,0.4c0.1,0,0,0.1,0,0.1c0,0,0,0.1,0,0.1c-0.1,0.1,0,0.2-0.1,0.2
					c0,0.1-0.1,0.2,0,0.2c0,0.1-0.1,0.2-0.1,0.2c-0.1,0,0,0.1-0.1,0.1c-0.1-0.1-0.3-0.1-0.4-0.1c-0.1-0.1-0.2-0.1-0.3,0
					c0,0-0.1,0-0.1,0.1c-0.1,0-0.1,0.1-0.2,0c-0.1,0-0.2,0-0.3,0.1c-0.3,0.1-0.7,0.2-1,0.4c0,0-0.1,0-0.1,0.1
					c-0.2,0.1-0.4,0.2-0.6,0.3c-0.4,0.2-0.7,0.4-1.1,0.6C95.3,10.1,95.2,10.1,95.2,10z M95.1,12.3c0,0,0-0.1,0-0.1
					c0-0.1,0-0.2,0.1-0.3c0-0.1,0-0.1,0.1-0.1c0.1-0.1,0.2,0,0.3-0.1c0.3,0,0.6-0.1,1-0.3c0.1,0,0.2-0.1,0.2,0
					c0.1-0.1,0.2-0.1,0.3-0.2c0.1,0,0.2,0,0.2-0.1c0.1,0,0.2-0.1,0.3-0.1c0.1-0.1,0.2-0.1,0.3-0.2c0.1-0.1,0.1-0.1,0.2-0.1
					c0-0.1,0.1-0.1,0.1-0.1c0.1,0,0.1-0.1,0.2,0c0.1,0,0.3-0.1,0.4-0.2c0,0,0,0,0,0.1c-0.1,0.4-0.3,0.8-0.5,1.1c0,0-0.1,0-0.1,0.1
					l0,0c-0.1,0,0,0.2-0.2,0.1c0,0.1-0.1,0-0.1,0.1c0,0.1-0.1,0.2-0.2,0.2c-0.1,0-0.1,0.1-0.1,0.1c0,0-0.1,0-0.1,0.1
					c-0.2,0.1-0.4,0.2-0.6,0.3l0,0c0,0-0.1,0-0.1,0c-0.2,0.1-0.3,0.2-0.5,0.3c0,0,0,0.1-0.1,0c-0.4,0.2-0.8,0.5-1.2,0.6l-0.1,0
					c0,0,0,0,0,0C95,13.1,95.1,12.7,95.1,12.3z M100.2,21.5L100.2,21.5L100.2,21.5L100.2,21.5z M100.3,21.3
					C100.3,21.3,100.3,21.3,100.3,21.3L100.3,21.3C100.3,21.4,100.3,21.4,100.3,21.3C100.3,21.4,100.3,21.4,100.3,21.3L100.3,21.3
					L100.3,21.3C100.3,21.3,100.3,21.3,100.3,21.3C100.3,21.3,100.3,21.3,100.3,21.3C100.3,21.3,100.3,21.3,100.3,21.3z"/>
				<path class="st0" d="M92.4,17.1c0-0.1-0.1-0.2-0.1-0.3c-0.1-0.1,0-0.3-0.1-0.4c0-0.1,0-0.1-0.1-0.2c0-0.1-0.1-0.1-0.1-0.2
					C92,16,92,16,92,15.9c0,0-0.1-0.1-0.1-0.1c0,0,0-0.1-0.1-0.1c0-0.1-0.1-0.2-0.1-0.3c0,0-0.1,0-0.1-0.1c-0.1,0-0.1-0.1-0.2-0.1
					c0,0,0-0.1,0-0.1c-0.1,0-0.1-0.1-0.2,0c0,0,0,0,0,0c0,0-0.1,0-0.1-0.1c-0.1,0-0.2-0.1-0.2,0c0,0-0.1,0.1-0.1,0.1
					c0,0.1,0,0.1-0.1,0.1l0,0l0,0c0,0,0,0.1,0.1,0.1c0.1,0,0.1,0.1,0.1,0.2c0,0.1,0,0.2,0.1,0.2c0,0,0,0.1,0,0.1c0,0.1,0,0.1,0,0.2
					c-0.1,0,0,0.1,0,0.2c0,0,0,0.1,0,0.1c-0.1,0.1,0,0.2-0.1,0.3c0,0.1-0.1,0.1-0.1,0.2c-0.1,0.1-0.1,0.2-0.2,0.3
					c0,0.1-0.1,0.1-0.1,0.2c-0.1,0.2-0.2,0.3-0.3,0.5c0,0,0,0,0,0c0,0,0-0.1,0-0.1l0,0c0.1-0.2,0-0.3,0.1-0.5c0-0.1,0-0.1,0-0.2
					c0,0,0.1-0.1,0-0.1c0-0.1,0-0.2,0-0.3c0.1,0,0-0.1,0.1-0.1c0.1,0,0.1-0.1,0.1-0.2c0.1,0,0-0.1,0.1-0.1c0,0,0-0.1,0-0.1
					c0,0,0-0.1,0-0.1c0,0,0,0,0-0.1l0,0c0-0.1,0-0.2,0-0.3c0.1-0.1,0.1-0.2,0.1-0.3c0.1,0,0-0.1,0.1-0.1c0.1,0,0-0.1,0.1-0.2
					c0.1,0,0.1-0.1,0.2-0.1c0.1,0,0.1-0.1,0.2-0.2l0,0c0-0.1,0.1,0,0.1-0.1c0.1,0,0.2-0.1,0.3-0.1c0-0.1,0.1,0,0.2-0.1l0,0
					c0,0,0.1,0,0.2-0.1c0-0.1,0.1,0,0.2-0.1c0.1,0,0.1-0.1,0.1-0.1l0,0c0-0.1,0.1,0,0.1-0.1c0-0.1-0.1-0.2-0.1-0.3c0,0,0-0.1,0-0.1
					c0,0,0-0.1-0.1-0.1c0-0.1-0.1-0.1-0.1-0.1c0.1,0,0-0.1,0-0.1c0,0-0.1,0-0.1,0c0-0.1-0.1-0.1-0.2-0.1c0,0-0.1-0.1-0.1,0
					c0-0.1-0.1-0.1-0.2-0.1c-0.1,0-0.2,0-0.2-0.1c0,0-0.1,0-0.1,0c0,0-0.1,0-0.1,0c-0.1-0.1-0.2,0-0.2,0c-0.1-0.1-0.2,0.1-0.3-0.1
					c0-0.1-0.2-0.1-0.1-0.2h0c0,0-0.1-0.1,0-0.1c0-0.1-0.1-0.1-0.1-0.2c0,0-0.1-0.1,0-0.1l0,0l0.1-0.1c0.1,0,0.2-0.1,0.4-0.2
					c0.1,0,0.1-0.1,0.2-0.1c0-0.1,0.1-0.1,0.1-0.1c0,0,0,0,0.1,0c0.1-0.1,0.2-0.3,0.3-0.3c0.1,0,0.2-0.1,0.2-0.1
					c0.1,0,0.1-0.1,0.1-0.1c0.1-0.1,0.2-0.2,0.2-0.3c0-0.2-0.2-0.1-0.2-0.3c0-0.1-0.1-0.3-0.2-0.4l0,0C91,10,91,10,91,10
					c0,0,0,0,0,0c-0.1,0-0.1-0.1-0.2-0.1c-0.1,0-0.1-0.1-0.2-0.1c-0.1,0-0.1,0-0.2,0c0,0-0.1-0.1-0.1,0c0,0-0.1,0.1-0.1,0
					c0,0-0.1,0-0.1,0c-0.1,0-0.1,0.1-0.1,0.1c0,0.1-0.1,0-0.1,0.1l0,0l0,0c-0.1,0.1-0.1,0.1-0.2,0.2c-0.1,0.1-0.2,0.1-0.2,0.2
					c-0.1,0-0.2,0.2-0.4,0.2c-0.2,0.1-0.3,0.1-0.4,0.3c0,0,0,0-0.1,0c0,0.1-0.1,0-0.1,0.1c-0.1,0-0.1,0-0.2,0c0,0.1-0.1,0-0.1,0.1
					c-0.1,0-0.1,0-0.1,0c-0.1-0.1-0.1,0-0.2,0c0,0,0,0-0.1,0c-0.1,0-0.1,0.1-0.2,0c-0.1,0-0.1,0-0.2,0c0,0.1-0.1,0-0.1,0.1
					C87.1,11,87.1,11,87,11c-0.1,0-0.1,0-0.1,0.1c0,0.1-0.1,0.1-0.1,0.1c0,0,0,0.1,0,0.1c0,0,0,0.1,0,0.1c0,0.1,0.1,0.2,0.1,0.3
					c0,0,0.1,0,0.1,0.1c0.1,0,0,0.1,0.1,0.1c0,0.1,0.1,0.1,0.2,0.1c0,0.1,0.1,0,0.1,0.1c0.1,0.1,0.1,0.2,0.3,0.2
					c0,0.1,0.1,0,0.1,0.1c0.1,0,0,0.1,0.1,0.1c0,0,0,0,0,0c0.1,0,0.1,0.1,0.2,0.1c0,0.1,0.1,0,0.2,0.1c0,0.1,0.1,0.1,0.2,0.1
					c0,0.1,0.1,0.1,0.1,0.2c0.1,0,0,0.1,0.1,0.1c0,0,0,0,0,0c0,0,0.1,0.1,0.1,0.1c0,0,0,0.1,0,0.1c0,0.1,0,0.1,0,0.2
					c0,0,0,0.1,0,0.1c0,0.1-0.1,0.1-0.1,0.3c-0.1,0,0,0.1-0.1,0.2c-0.2,0.1-0.4,0.3-0.6,0.5c-0.2,0.1-0.4,0.3-0.6,0.4
					c-0.1,0.1-0.2,0.2-0.3,0.2c-0.1,0.1-0.3,0.2-0.5,0.2c0,0-0.1-0.2-0.2-0.1c0-0.1-0.1,0-0.1,0c0,0.1-0.2,0-0.1,0.1
					c-0.1,0,0,0.2,0,0.2c0,0,0,0.1,0,0.1c0,0.1,0,0.1,0,0.2l0,0c0,0-0.1,0.1,0,0.2l0,0c0,0.1,0,0.2,0,0.2c0,0,0,0.1,0,0.1
					c0,0.1,0.1,0.2,0.2,0.3c0,0,0,0.1,0.1,0.1c0,0.1,0.1,0,0.1,0c0.1,0,0.2-0.1,0.4,0c0.1-0.1,0.3-0.1,0.4-0.1c0.1,0,0.2,0,0.2-0.1
					c0-0.1,0.2-0.1,0.2-0.1c0.1,0,0.1-0.1,0.2-0.1c0.1-0.1,0.2-0.1,0.3-0.2c0.1,0,0.2-0.1,0.2-0.1c0.1-0.1,0.2-0.1,0.3-0.2
					c0.1,0,0,0.1,0,0.1c0,0.1,0,0.1,0,0.2c0,0.1,0,0.2,0,0.3c0,0.1,0,0.2,0,0.3c0,0,0,0.1,0,0.1c-0.1,0,0,0.1,0,0.1
					c-0.1,0,0,0.2-0.1,0.2c-0.1,0.2-0.3,0.2-0.5,0.3c-0.4,0.3-0.9,0.6-1.3,0.7c-0.1-0.1-0.1,0-0.2-0.1c0-0.1,0-0.1-0.1-0.1
					c-0.1,0-0.1,0.1-0.1,0.1c0,0,0,0.1,0,0.1c0,0,0,0.1-0.1,0c0,0.1,0,0.2-0.1,0.2c0,0,0,0.1,0,0.2l0,0l0,0c0,0,0,0.1,0,0.1l0,0
					c0,0.1,0,0.2,0,0.2c0,0,0,0.1,0.1,0.1c-0.1,0.1,0,0.1,0,0.2c0,0,0,0.1,0,0.1c0,0,0,0,0,0.1c0,0.1,0,0.2,0,0.2
					c0.1,0.1,0,0.2,0.1,0.3c0.1,0,0,0.1,0.1,0.2c0.1,0,0.1,0.2,0.1,0.2c0,0.1,0.2,0.2,0.2,0.3c0.1,0.1,0.2,0.1,0.3,0.1
					c0.1,0,0.1-0.2,0.1-0.2c0.1-0.1,0.2-0.2,0.3-0.3c0.1,0,0.1-0.1,0.2-0.1c0.1,0,0.1-0.2,0.2-0.2c0.1-0.1,0.1-0.2,0.1-0.3
					c0,0,0-0.1,0.1-0.1c0.2-0.2,0.1-0.4,0.3-0.6c0-0.1,0.2-0.2,0.2-0.3l0,0c0,0,0-0.1,0-0.1c0-0.1,0.1-0.1,0.1-0.1
					c0-0.1,0.1-0.1,0.1-0.1c0,0,0,0.1,0,0.1c0,0,0,0.1,0,0.1l0,0c0,0.1,0,0.2,0,0.2c0,0.1,0,0.2,0,0.3c0,0,0,0.1,0,0.1c0,0,0,0,0,0
					c-0.1,0,0,0.1,0,0.1c0,0,0,0.1-0.1,0.1c0,0-0.1,0.1,0,0.1c0.1,0,0,0.1,0,0.1c0,0,0,0.1,0,0.2c0,0,0,0,0,0c0,0,0,0,0,0v0.1
					c-0.1,0.2-0.2,0.4-0.3,0.6c-0.2,0.2-0.4,0.5-0.6,0.7c-0.1,0.1-0.2,0.1-0.3,0.2c-0.1,0-0.1,0-0.2,0.1c-0.1,0.1-0.3,0.1-0.4,0.2
					c0,0-0.1,0-0.1,0c0,0-0.1-0.1-0.1-0.1c-0.1,0-0.2-0.1-0.2-0.1l0,0c0,0-0.1,0-0.1,0c0,0,0,0-0.1,0c0,0.1-0.1,0.1,0,0.1
					c-0.1,0,0,0.1-0.1,0.2c0.1,0.1,0,0.1,0,0.1h0c0,0.1,0,0.2,0,0.2c0,0,0,0.1,0,0.1c0,0,0,0.1,0,0.1c0,0,0,0.1,0,0.1
					c0,0,0.1,0.1,0,0.1l0,0c0,0,0,0.1,0,0.1c0,0,0.1,0.1,0,0.1c0,0.1,0,0.2,0.1,0.3c0,0,0,0,0,0c0,0.1,0,0.1,0,0.2
					c0.1,0.2,0.2,0.3,0.4,0.5c0.1,0,0.2,0.1,0.3,0.1c0.2-0.1,0.4-0.3,0.6-0.4c0.1-0.1,0.3-0.2,0.5-0.3c0.4-0.2,0.7-0.5,1.1-0.7
					c0.2-0.1,0.2-0.3,0.3-0.3c0.1,0,0.1-0.1,0.2-0.1c0-0.1,0.2-0.2,0.3-0.3c0.1,0,0.1-0.2,0.2-0.3c0,0,0,0,0-0.1l0,0
					c0.2-0.1,0.2-0.2,0.3-0.3c0,0,0-0.1,0.1-0.1c0.1-0.2,0.3-0.2,0.3-0.3c0.1-0.1,0.1-0.2,0.2-0.3c0.1-0.2,0.2-0.4,0.4-0.6
					c0.1-0.1,0.1-0.3,0.2-0.4c0.1-0.1,0.1-0.2,0.3-0.3c0,0,0-0.1,0.1-0.1c0-0.1,0.1-0.1,0.1-0.1c0-0.1,0.1-0.1,0-0.2c0,0,0,0,0,0
					c0,0,0,0,0-0.1c0,0-0.1,0-0.1,0c-0.1,0-0.1,0-0.2,0c-0.1,0.1-0.3,0.2-0.4,0.3c0,0-0.1,0-0.1,0.1c-0.1,0-0.1,0.1-0.2,0.1
					c0,0,0,0.1-0.1,0c-0.1,0.1-0.2,0.1-0.2,0.1c-0.2,0-0.3,0.2-0.4,0.3c0,0.1-0.1,0.1-0.2,0.1l0,0l0,0c0-0.1,0.1-0.2,0.2-0.3
					c0.1,0,0.1-0.1,0.1-0.1c0-0.1,0.1-0.1,0.1-0.2c0,0,0,0,0,0c0-0.1,0.1-0.1,0.1-0.1c0,0,0.1,0,0.1-0.1c0.1,0,0.1-0.2,0.2-0.1
					c0.1-0.1,0.2-0.3,0.3-0.4c0.1,0,0.2-0.2,0.3-0.2c0,0,0.1,0,0.1-0.1c0.1,0,0.2-0.1,0.3-0.2c0.1-0.1,0.2-0.1,0.2-0.2
					c0.1-0.1,0.3-0.1,0.4-0.3l0-0.1C92.3,17.2,92.5,17.1,92.4,17.1z"/>
				<path class="st0" d="M100.8,16.4C100.8,16.5,100.7,16.4,100.8,16.4C100.8,16.5,100.8,16.5,100.8,16.4z"/>
				<polygon class="st0" points="100.7,16.5 100.7,16.5 100.7,16.5 				"/>
				<path class="st0" d="M100.7,16.6L100.7,16.6C100.6,16.6,100.7,16.6,100.7,16.6z"/>
			</g>
			<g>
				<path class="st0" d="M123.8,3.7c0.2-0.1,0.3,0.1,0.5,0c0.1,0.1,0.1,0.1,0.2,0.2c0.1,0.2,0.4,0.2,0.5,0.3c0,0,0,0.1,0,0.1
					c0.1,0,0,0.1,0.1,0.1c0,0.1,0,0.1,0.1,0.1c0.1,0,0.1,0.1,0.1,0.1c0,0,0,0.1,0,0.1c0.1,0,0,0.2,0.1,0.2c0,0,0.1,0.1,0,0.1
					c0,0,0.1,0.1,0.1,0.1c0,0,0,0.1,0,0.1c0,0.1,0,0.2,0,0.3c0,0.1,0,0.1,0,0.2c-0.1,0.1-0.1,0.2-0.3,0.3l0,0c-0.1,0-0.1,0.1-0.1,0
					l0,0l0,0c-0.1,0.1-0.1,0-0.2,0.1c-0.1,0-0.1,0-0.2,0c-0.1,0.1-0.2,0-0.2,0.1c-0.1,0-0.2,0.1-0.2,0.2c-0.1,0-0.2,0.1-0.3,0.1
					c-0.1,0-0.2,0.1-0.3,0.2c-0.1,0-0.2,0-0.2,0.1c0,0,0,0,0,0c0,0-0.1,0.1-0.1,0.1c0,0-0.1,0.1-0.1,0c-0.1,0.1-0.2,0-0.2,0.1
					c-0.1,0-0.2,0-0.2,0.1c-0.1,0-0.3,0.1-0.4,0.1c0,0-0.1,0-0.1,0c-0.1,0.1-0.3,0.1-0.4,0.3c-0.1,0-0.1,0.1-0.1,0.1
					c-0.1,0.1-0.2,0.2-0.3,0.2c0,0.1-0.1,0.1-0.2,0.2c-0.1,0.1-0.1,0.1-0.2,0c0.1-0.2,0.3-0.4,0.5-0.5c0,0,0,0,0,0
					c-0.1,0.1-0.2,0-0.2,0.1c0,0-0.1,0.1-0.2,0.1c-0.1,0-0.1,0.1-0.2,0.1c0,0.1-0.1,0.1-0.2,0.1c0,0.1-0.1,0-0.1,0.1
					c-0.1,0-0.1,0.1-0.2,0c-0.1,0.1-0.2-0.1-0.2,0c-0.1,0-0.1-0.1-0.2,0c-0.1,0-0.2,0-0.2,0c-0.1,0-0.2,0-0.3-0.1c0,0-0.1,0-0.1,0
					c0-0.1-0.2,0-0.2-0.1c-0.1-0.1-0.1,0-0.2-0.1c0-0.1-0.1-0.1-0.1-0.1c-0.1,0-0.1-0.1-0.2-0.1c-0.1-0.1-0.1,0-0.1-0.1c0,0,0,0,0,0
					c0-0.1-0.1-0.2-0.2-0.2l0,0c0-0.1-0.2-0.1-0.2-0.2c-0.1,0,0-0.1-0.1-0.1c0,0,0-0.1-0.1-0.1c0,0,0-0.1-0.1-0.2
					c0-0.1-0.1-0.1,0-0.2c0.1,0,0.2,0,0.2,0c0.1,0,0.1,0,0.2,0c0-0.1,0.1,0,0.1,0c0.1,0.1,0.1,0,0.1,0c0.1,0,0.1-0.1,0.2-0.1
					c0,0.1,0.1,0,0.1,0c0,0,0-0.1,0.1-0.1c0.1,0.1,0.2,0,0.3,0c0.1,0,0.1,0,0.2,0c0,0,0,0,0,0c0-0.1,0.2-0.1,0.2-0.1
					c0.1-0.1,0.2-0.1,0.3-0.2c0.1,0,0.2,0,0.2-0.1c0,0,0.1,0,0.1,0c0.1-0.1,0.2-0.1,0.3-0.2c0.3-0.2,0.7-0.4,1-0.7
					c0.1,0,0.2-0.1,0.3-0.2c0.2-0.1,0.5-0.2,0.7-0.4c0.1-0.1,0.3-0.2,0.4-0.3c0.1,0,0.2-0.1,0.2-0.1c0.1,0,0.2,0,0.3-0.1
					c0.1,0,0.2-0.1,0.2,0C123.7,3.6,123.8,3.7,123.8,3.7z"/>
				<path class="st0" d="M113.5,4.2c0.1,0,0.1,0,0.2,0c0.1,0,0,0.1,0.1,0.1c0.1,0,0.1-0.2,0.2-0.1c0.1,0,0.1,0,0.2,0
					c0,0.1,0.2,0,0.2,0.1c0-0.1,0.1,0.1,0.1,0c0,0,0,0,0.1,0c0,0.1,0.1,0.1,0.1,0.1c0.1,0,0.1,0.1,0.2,0.1l0,0c0,0,0,0.1,0,0.1
					c0.1,0,0.1,0.1,0.1,0.1c-0.1,0.1,0.1,0.1,0.1,0.2c0.1,0,0.1,0.1,0.1,0.1l0,0c0,0,0.1,0.1,0.1,0.1c0,0,0.1,0.1,0.1,0.1
					c0.1,0,0,0.1,0.1,0.1c0,0,0,0.1,0,0.1c0,0,0,0.1,0,0.2c0,0,0.1,0.1,0,0.1c-0.1,0.1,0.1,0.1,0,0.2c0,0.1,0,0.1,0,0.1
					c0,0,0,0.1,0,0.1c0,0.1-0.1,0.2-0.1,0.3c0,0.2-0.2,0.2-0.3,0.4c-0.1,0-0.1,0.1-0.1,0.2l0,0.1c0,0.1-0.1,0.1-0.2,0.1
					c0,0,0,0,0,0.1c0,0-0.1,0-0.1,0c0,0.1,0.1,0,0.1,0.1c-0.1,0-0.2,0.1-0.2,0.1c0,0-0.1,0-0.1,0.1c-0.1,0-0.1,0.1-0.2,0.1
					c-0.1,0.1-0.1,0.1-0.2,0.2l-0.3,0.4c0,0.1-0.1,0-0.1,0.1c0,0.1-0.1,0.1-0.1,0.2c0,0-0.1,0.1,0,0.1c0.1,0.1,0.2,0.1,0.2,0.2
					c0,0,0.1,0,0.1,0.1c0,0.1,0.1,0.1,0,0.1c0.1-0.1,0.1,0.1,0.2,0.1c0,0.1,0.1,0,0.1,0.1c0,0,0,0.1,0.1,0.1l0,0
					c0.1,0.1,0.1,0.2,0.2,0.3c0,0,0,0.2,0.1,0.2c0,0,0.1,0.1,0.1,0.1c0,0.1,0.1,0,0.1,0.1l0,0c0,0,0,0.1,0,0.1l0,0
					c0.1,0.1,0,0.2,0,0.2c0,0.1-0.1,0.1,0,0.1c0,0.1-0.1,0.2-0.1,0.3c0,0.1-0.1,0.1-0.1,0.2c-0.1,0.1-0.2,0.2-0.2,0.3
					c-0.1,0-0.1,0.2-0.2,0.2c-0.2,0.2-0.3,0.4-0.4,0.6c0,0.1-0.1,0.1-0.1,0.2c-0.1,0.1-0.1,0.3-0.2,0.4c0,0.2-0.2,0.2-0.3,0.3
					c-0.1,0-0.1,0.2-0.1,0.2c0,0.1-0.1,0.2-0.1,0.3c0.1,0,0,0.2,0.1,0.1c0,0.1,0.1,0.2,0.2,0.2c0,0,0,0.1,0,0.1c0,0,0.1,0,0.1,0
					c0,0.1,0.1,0.1,0.1,0.2l0,0c0,0.1,0.1,0.1,0.1,0.2c0.1,0,0,0.1,0,0.1c0,0.1,0.1,0,0.1,0.1c0,0.1,0.1,0.1,0.1,0.1
					c-0.1,0,0,0.1-0.1,0.1c0,0.1,0.1,0.1,0,0.2c0,0.1,0.1,0.1,0.1,0.2c-0.1,0,0,0,0,0.1c0,0.1,0.1,0.2,0,0.2l0,0c0,0,0,0,0,0
					c0,0,0,0,0,0.1l0,0.1l0,0c-0.1,0.1,0,0.1,0,0.1l0,0c0.1,0,0,0,0,0.1c0,0.1-0.1,0.2,0,0.3c0,0-0.1,0.1,0,0.1c0,0.1-0.1,0.1,0,0.2
					c0,0,0,0.1,0,0.1c0.1,0.1,0,0.1,0,0.2c0,0,0,0.1,0,0.1c0,0.1,0,0.2,0,0.2c0,0.1,0,0.2,0,0.3c0.1,0.1,0,0.2,0,0.3
					c-0.1,0,0,0.1,0,0.2c0.1,0.1,0,0.2,0.1,0.2c-0.1,0.1,0,0.2,0,0.4c0.1,0.1,0,0.2,0,0.2c0,0.2,0,0.4,0,0.6l0,0c0,0.1,0,0.1,0,0.2
					c0,0,0,0.1,0,0.1c0,0,0,0.1,0,0.1l0,0c0,0,0,0.1,0,0.1c0,0,0,0.1,0,0.2c-0.1,0,0,0.1,0,0.2l0,0c0,0.1,0,0.2,0,0.3
					c-0.1,0,0.1,0.1,0,0.1c0,0.1-0.1,0.1,0,0.1c0,0.1-0.1,0.1,0,0.2c0,0,0,0.1,0,0.1c0,0,0,0.1,0,0.1c0.1,0,0,0.1,0,0.2
					c0,0.1,0,0.2,0,0.2c0,0,0,0.1,0,0.2l0,0c0.1,0.1,0,0.2,0.1,0.3c0,0,0,0,0,0.1c0.1,0,0,0.1,0,0.2c0,0.1-0.1,0.1,0,0.2
					c0,0,0,0.1,0,0.1c0,0,0,0.1-0.1,0.2c0,0-0.1,0.1,0,0.1c0,0.1-0.1,0.2,0,0.3c-0.1,0,0,0.1-0.1,0.1c0,0,0.1,0,0,0
					c-0.1,0.1-0.1,0.2-0.2,0.2c-0.1,0,0,0.1,0,0.1c-0.1,0-0.1,0.1-0.1,0.1c-0.1,0-0.1,0.2-0.2,0.2c-0.1,0-0.1,0.1-0.2,0.1
					c-0.1,0-0.2,0-0.3,0c0-0.1-0.1-0.1-0.2-0.1c0,0,0,0,0-0.1c0.1,0,0-0.1,0-0.1l0,0c-0.1-0.1-0.2-0.2-0.2-0.3c-0.1,0,0,0-0.1-0.1
					c0,0-0.1,0-0.1,0c0,0,0-0.1,0-0.1c0,0,0,0,0-0.1l0,0c0.1,0,0-0.1,0-0.1c0-0.1-0.1,0-0.1-0.1c0-0.1,0-0.1-0.1-0.1
					c0,0,0-0.1,0-0.1c-0.1,0,0-0.1-0.1-0.1c0,0,0,0-0.1,0l0-0.1c0,0,0,0,0,0c0-0.1-0.1,0-0.1-0.1c0,0,0,0,0,0c0.1-0.1-0.1-0.1,0-0.2
					c0-0.1-0.1-0.1-0.1-0.2c0,0,0-0.1,0-0.1c0,0,0.1-0.1,0.1-0.1c-0.1,0,0-0.1-0.1-0.1c0.1,0,0-0.1,0-0.2c0,0,0,0,0,0
					c-0.1,0,0-0.1,0-0.1l0,0c0,0,0,0,0,0c-0.1-0.1,0-0.1-0.1-0.2c0,0,0.1,0,0.1,0c0,0,0,0,0,0c0.1-0.1,0.1-0.2,0.1-0.3c0,0,0,0,0,0
					c0,0,0-0.1,0-0.1c0,0,0-0.1,0.1-0.2c0,0,0-0.1,0-0.1c0-0.1,0.1,0,0-0.1c0-0.1,0.2-0.2,0.1-0.2c0-0.1,0-0.1,0-0.2c0,0,0,0,0-0.1
					c0,0,0-0.1,0.1-0.1c0-0.1,0-0.1,0-0.2l0-0.1c0.1,0,0-0.1,0-0.1c0,0,0,0,0-0.1c-0.1,0,0-0.1,0-0.1l0,0c0,0,0-0.1,0-0.1
					c0.1,0,0-0.1,0.1-0.1c0-0.1,0-0.2,0-0.3c0-0.1,0-0.2,0.1-0.3c-0.1-0.1,0.1-0.1,0-0.2c0-0.1,0.1-0.2,0-0.4c0-0.1,0-0.1,0-0.2
					c0,0-0.1,0,0-0.1c0.1,0,0,0,0-0.1c0,0,0,0,0,0c0,0,0.1-0.1,0-0.1c0,0,0-0.1,0-0.1c-0.1,0,0-0.1,0-0.1c0.1,0,0,0,0-0.1
					c0,0,0,0,0,0c0,0-0.1,0,0-0.1c0-0.1,0-0.1,0-0.2c0-0.1,0-0.1,0-0.2c0-0.1,0-0.1,0-0.1c0-0.1-0.1-0.1,0-0.1c0,0,0-0.1,0-0.1
					c0-0.1,0-0.1,0-0.1l0,0c0,0,0-0.1,0-0.2c0,0,0-0.1-0.1-0.1c0,0,0,0,0-0.1c-0.1,0,0-0.1-0.1-0.1c0,0,0-0.1,0-0.1
					c-0.1,0-0.1,0-0.1-0.1c0,0,0-0.1,0.1-0.1l-0.1-0.1c0,0,0-0.1,0-0.1c-0.2,0.2-0.3,0.4-0.5,0.6l0,0l0,0c-0.1,0.1-0.2,0.3-0.3,0.4
					c-0.1,0.1-0.2,0.3-0.3,0.4c-0.1,0.1-0.2,0.3-0.3,0.4c-0.1,0.1-0.2,0.2-0.3,0.4c0,0.1-0.1,0.1-0.1,0.2c-0.1,0-0.1,0.1-0.2,0.2
					c-0.1,0.1-0.2,0.2-0.4,0.2c-0.1,0-0.2,0.1-0.2,0.2c-0.1,0-0.1,0.1-0.2,0.1c-0.1,0.1-0.2,0.2-0.3,0.2c0,0-0.1,0-0.1,0
					c0,0,0-0.1-0.1-0.1c-0.1,0.1-0.1-0.1-0.2,0c0,0-0.1,0-0.1,0c-0.1,0-0.1-0.1-0.2-0.1c-0.1,0-0.2-0.1-0.3-0.2
					c-0.1-0.1,0-0.1,0-0.1c-0.1,0,0-0.1,0-0.1c0.1-0.1,0-0.2,0-0.2c0-0.1,0.1-0.1,0.1-0.1c0.1,0,0-0.2,0.1-0.2c0.1,0,0-0.2,0.1-0.2
					c0.1,0,0-0.1,0.1-0.1c0.1-0.1,0.1-0.1,0.2-0.2c0.2-0.3,0.5-0.6,0.7-0.9c0.1-0.1,0.2-0.2,0.2-0.3c0.1,0,0.1-0.1,0.1-0.1
					c0.1-0.1,0.1-0.2,0.2-0.2c0.3-0.4,0.5-0.7,0.8-1.1c0.1-0.1,0.2-0.2,0.2-0.4c0,0,0,0,0.1,0c0-0.1,0.1-0.1,0.1-0.2
					c0.3-0.5,0.7-1,1-1.5c0.2-0.4,0.5-0.8,0.6-1.2c0-0.1,0.1-0.1,0-0.2c0,0,0-0.1,0.1-0.1c0,0,0-0.1-0.1-0.1c0-0.1,0.1-0.1,0-0.1
					c-0.1,0-0.2,0-0.3,0c0,0,0,0,0,0c0,0,0,0,0,0c-0.1,0-0.2,0.2-0.3,0.3c0,0.1-0.2,0.2-0.2,0.3c-0.1,0.1-0.1,0.2-0.2,0.2
					c-0.1,0.1-0.1,0.2-0.2,0.2c0,0.1-0.1,0.1-0.1,0.2c-0.1,0,0,0.1-0.1,0.1c0,0.1,0,0.1-0.1,0.1c-0.1,0-0.1,0.1-0.1,0.1l0,0
					l-0.1,0.1c0,0,0,0,0,0c-0.1,0-0.1,0.2-0.2,0.2c0,0.1,0,0.1-0.1,0.2c0,0.1-0.1,0.2-0.3,0.3c0,0.1-0.1,0.1-0.1,0.2
					c-0.1,0.1-0.2,0-0.2,0.1c0,0-0.1,0.1-0.1,0c0,0-0.1,0-0.1,0.1l0,0c0,0,0,0,0,0c-0.1,0-0.1,0-0.2,0.1c-0.1,0-0.1,0-0.2,0
					c-0.1,0-0.2,0-0.3,0c-0.1,0-0.1,0-0.1,0c-0.1,0.1-0.2,0-0.3,0.1c-0.1,0-0.2-0.1-0.3-0.2c-0.1,0,0-0.1-0.1-0.2
					c0-0.1-0.1-0.2,0-0.3c0-0.1,0-0.1,0-0.2c0.1-0.3,0.3-0.5,0.5-0.8c0.1-0.2,0.3-0.4,0.5-0.6c0.1-0.1,0.2-0.3,0.3-0.3
					c0,0,0,0,0-0.1c0.2-0.2,0.3-0.4,0.5-0.6l0,0c0.3-0.3,0.5-0.6,0.8-1c0,0,0.1,0,0,0c0.2-0.3,0.4-0.5,0.6-0.7l0,0
					c0.1-0.2,0.3-0.3,0.4-0.6c0.1,0,0-0.1,0.1-0.1c0.3-0.3,0.5-0.7,0.8-1.1l0,0c0.2-0.1,0.2-0.3,0.3-0.5l0,0c0,0,0.1-0.1,0-0.2
					c0-0.1,0.1-0.1,0-0.2l0,0c0,0,0-0.1,0-0.1l0,0c0-0.1,0-0.1,0-0.1c0.1-0.1,0-0.2,0.1-0.3c0,0,0,0,0,0l0,0l0,0l0,0c0,0,0,0,0,0
					c0,0,0,0,0,0c0,0,0-0.1,0-0.1c0.1,0,0.1-0.1,0.2-0.1C113.4,4.2,113.5,4.1,113.5,4.2z"/>
				<path class="st0" d="M126.3,7.9c0,0,0.1,0,0.1,0.1c0.1-0.1,0.2,0.1,0.2,0c0,0.1,0.1-0.1,0.1,0l0.1,0c0,0.1,0.1,0,0.1,0.1
					c0,0,0.1,0,0.1,0.1c0.2,0,0.4,0.1,0.5,0.2c0.1,0,0.1,0.1,0.2,0.1c0.1,0,0.1,0.1,0.2,0.1c0.1,0,0,0.1,0.1,0.1c0,0,0.1,0,0.1,0
					c0,0.1,0.2,0.1,0.2,0.2c0.1,0,0.1,0.1,0.2,0.1c0,0,0,0,0,0.1c0,0,0.1,0,0.1,0c0,0,0,0,0,0.1c0.1,0,0,0.1,0,0.1
					c0.1,0.1,0.2,0.1,0.2,0.2c0,0,0.1,0.1,0.1,0.1l0,0c0,0.1,0.1,0.1,0.1,0.2c0,0,0,0.1,0,0.1c0,0,0.1,0.1,0,0.2l0,0.1c0,0,0,0,0,0
					c0,0,0,0,0,0c0,0,0,0.1,0,0.1c0,0,0,0.1,0,0.1c0,0.1-0.2,0.1-0.2,0.2c-0.1,0-0.2,0.1-0.2,0.1c0,0.1-0.1,0.1-0.1,0.1
					c-0.1,0-0.1,0.1-0.2,0.1c0,0-0.1,0-0.1,0c-0.1-0.1-0.2,0-0.3-0.1c0,0-0.1,0-0.1,0c0,0-0.1-0.1-0.1,0c0-0.1-0.1,0-0.1-0.1
					c-0.1,0-0.1-0.1-0.2,0c0,0-0.1,0-0.1-0.1c-0.1,0-0.1-0.1-0.1,0l0,0c-0.1,0-0.2,0.1-0.2,0l0,0l0,0c-0.1,0-0.1,0-0.2,0
					c-0.1,0.1-0.1-0.1-0.2,0c0,0-0.1,0.1-0.1,0c-0.1,0-0.2-0.1-0.3,0c0-0.1-0.1,0-0.2,0c-0.1,0-0.2,0-0.2,0c-0.1,0-0.2,0-0.3,0.1
					l0,0c-0.2,0-0.3,0.1-0.4,0.1c-0.2,0-0.3,0.1-0.5,0.1c-0.3,0-0.5,0.2-0.7,0.2c-0.1,0.1-0.3,0.2-0.4,0.2c0,0.1-0.1,0-0.1,0.1
					c-0.1,0-0.1,0.1-0.2,0.1c-0.1,0-0.3,0.1-0.4,0.3c-0.1-0.1-0.1,0.1-0.2,0.1c-0.1,0-0.1,0-0.1,0.1c0.1,0,0.2,0,0.2,0.1
					c0,0,0.1,0.1,0.1,0c0,0.1,0.2,0.1,0.2,0.2c0,0,0.1,0,0.1,0c0,0,0,0,0,0l0,0c0,0.2,0.2,0.3,0.3,0.3c0,0.1,0.1,0.1,0.1,0.2
					c0.1,0,0,0.1,0.1,0.2c0,0,0,0.1,0,0.1c0.1,0,0.1,0.1,0.1,0.1c0.1,0.1,0,0.2,0.1,0.2c0,0.1,0,0.1,0,0.1c0.1,0.1,0,0.2,0.1,0.2
					c-0.1,0.1,0,0.1,0,0.2c0,0.1,0.1,0.2,0.1,0.2c0.1,0,0,0.1,0,0.1l0,0l0,0c0,0.1,0,0.1,0,0.2c0,0.1,0,0.2,0,0.4c0,0,0,0.1,0,0.1
					c0,0,0.1,0.1,0,0.1c0,0.1,0,0.2,0,0.3c0,0.1,0.1,0.2,0,0.2c0,0.1,0,0.1,0,0.2c0,0.2,0,0.4,0.1,0.6c0,0.1,0,0.3,0,0.4
					c0,0.1,0,0.2,0,0.3c0,0,0,0.1,0,0.2c0,0.1,0,0.3,0,0.4c0,0.1,0,0.2,0,0.4l0,0.3c0.1,0.1-0.1,0.2,0,0.2c0,0,0,0,0,0
					c0,0.2,0,0.3,0,0.5c-0.1,0.1,0,0.3,0,0.4c0,0.1,0,0.2,0.1,0.3c0,0.1,0,0.2,0,0.4c0,0.2,0,0.5,0,0.7c0,0.3-0.1,0.6,0,0.9
					c0,0.1-0.1,0.2,0,0.3c0,0.1-0.1,0.1,0,0.2c-0.1,0,0,0.1,0,0.1c0,0.1,0.1,0.1,0,0.2c0.1,0.1,0,0.2,0,0.3c0,0,0,0.1,0,0.2l0,0
					c-0.1,0.1-0.1,0.1,0,0.2c0,0-0.1,0.1,0,0.1c0,0,0,0.1,0,0.1c0,0,0,0.1,0,0.1c0.1,0.1,0,0.2,0,0.2l0,0c-0.1,0.1,0,0.2-0.1,0.2
					c-0.1,0,0,0.1-0.1,0.2c0.1,0.1-0.1,0.1,0,0.2c-0.1,0,0,0.1-0.1,0.2c0,0.1,0,0.2,0,0.3c0,0-0.1,0.1-0.1,0.2c-0.1,0,0,0.1-0.1,0.1
					c0,0.1,0,0.1-0.1,0.2c0,0.1-0.1,0.1-0.1,0.2c0,0-0.1,0.1-0.1,0.1c0,0.1-0.1,0-0.1,0.1c0,0-0.1,0-0.1,0c-0.1,0,0,0.1-0.1,0.1
					c-0.1,0-0.1,0.1-0.2,0.1c0,0-0.1,0-0.1,0l-0.1,0.1c0,0-0.1,0.1-0.1,0c-0.1,0.1-0.1,0-0.2,0.1c0,0-0.1,0-0.1,0c0,0-0.1,0-0.2,0
					c-0.1,0-0.2-0.1-0.4,0c-0.1,0-0.2,0-0.2-0.1c-0.2,0-0.3-0.2-0.5-0.2c0-0.1-0.1-0.1-0.2-0.1c0,0-0.1-0.1-0.2-0.1
					c0-0.1-0.1-0.1-0.2-0.1c-0.1,0-0.1,0-0.2-0.1c-0.1,0-0.1-0.1-0.2-0.1c0-0.1-0.1,0-0.1-0.1c-0.4-0.3-0.8-0.4-1.2-0.5
					c-0.1-0.1-0.4-0.2-0.4-0.4c-0.1-0.1-0.1-0.2-0.2-0.3c0-0.1-0.1-0.1-0.1-0.2c0.1,0,0.1,0,0.2,0.1c0,0,0.1,0,0.1,0
					c0.2,0,0.4,0.1,0.6,0c0.1,0,0.2,0,0.3-0.1c0,0,0,0,0.1,0c0.2,0,0.3-0.1,0.4-0.1c0,0,0,0,0.1,0c0.1,0,0.2,0,0.4-0.1
					c0.2,0,0.4-0.1,0.6-0.1c0.1-0.1,0.1,0,0.2-0.1c0.1,0,0.2-0.1,0.3-0.2c0,0,0.1,0,0.1,0l0-0.1c0.1,0,0.1-0.1,0.2-0.1
					c0,0,0.1,0,0.1-0.1c0,0,0.1,0,0.1,0c0,0,0-0.1,0-0.2c0,0-0.1-0.1,0-0.2c0,0,0,0-0.1,0c0-0.1,0.2,0,0.2-0.1c0-0.1,0-0.1,0-0.2
					c0-0.1,0-0.2,0.1-0.3c0-0.1,0-0.2,0-0.2c0.1-0.1-0.1-0.1,0-0.1c0.1-0.1,0-0.2,0.1-0.2c-0.1-0.1,0.1-0.2,0-0.2c0,0,0,0,0-0.1
					c0,0,0-0.1,0-0.1c0,0,0.1-0.1,0.1-0.1l0,0c0-0.1,0.1-0.1,0.1-0.2c0,0,0-0.1,0-0.1c0,0,0-0.1,0-0.2c0,0,0-0.1,0-0.1c0,0,0,0,0,0
					c0-0.1,0-0.1,0-0.2c0,0,0-0.1,0-0.1c0,0,0,0,0,0c0-0.1,0-0.1,0-0.2l0,0c0,0,0-0.1,0-0.1c0.1,0-0.1-0.1,0-0.1c0,0,0-0.1,0-0.1
					c0,0,0-0.1,0-0.1c-0.1-0.1,0.1-0.1,0-0.2c0,0,0-0.1,0-0.2c0-0.1,0-0.1,0-0.2c0,0,0,0,0,0c0.1,0,0,0,0-0.1c0,0,0-0.1,0-0.1
					c0,0,0-0.1,0-0.2c-0.1,0,0.1-0.1,0-0.2c0-0.1,0-0.2,0-0.3c0,0,0-0.1,0-0.1c0-0.1,0-0.2,0-0.2c0-0.2,0-0.3,0-0.5c0,0,0-0.1,0-0.2
					c0-0.1,0-0.1,0-0.2c0-0.1,0-0.1,0-0.2c0,0,0-0.1,0-0.1c0-0.1,0-0.2,0-0.2c0-0.1,0-0.1,0-0.2c0,0,0-0.1,0-0.1c-0.1,0,0-0.1,0-0.1
					c-0.1-0.1,0-0.2,0-0.3c-0.1,0,0-0.2-0.1-0.2c0-0.1,0.1-0.2,0-0.2c0,0,0-0.1,0-0.1c-0.1,0,0-0.1-0.1-0.1c0-0.1,0.1-0.1,0-0.2
					c0-0.1,0-0.1,0-0.2l0,0c0,0,0.1-0.1,0-0.1c0,0,0-0.1,0-0.1c-0.1,0,0-0.1,0-0.1c0-0.1,0-0.1,0-0.2c0,0,0,0,0-0.1
					c0,0-0.1,0-0.1-0.1c0,0,0-0.1,0-0.1c0,0,0-0.1,0-0.1c0-0.1,0-0.1-0.1-0.2c0,0,0-0.1,0-0.1l-0.1-0.1c0.1-0.1-0.1-0.1-0.1-0.2
					c-0.1,0,0-0.1-0.1-0.2c-0.1,0,0-0.1-0.1-0.1c0-0.1-0.1-0.2-0.1-0.2c0-0.1-0.1-0.2-0.1-0.3c0-0.1-0.1-0.1-0.1-0.2c0,0,0,0,0,0
					c0,0-0.1,0.1-0.2,0.1c-0.2,0.1-0.4,0.3-0.6,0.4c0,0.1-0.1,0.1-0.1,0.1c-0.2,0.1-0.4,0.2-0.6,0.4c-0.1,0-0.2,0.1-0.3,0.2
					c0,0.1-0.1,0.1-0.2,0.1c-0.2,0.2-0.5,0.3-0.8,0.4c-0.1,0-0.3,0.1-0.4,0.1l-0.2,0.1c-0.1-0.1-0.2,0.1-0.2,0c-0.2,0-0.3,0-0.5,0.1
					c0,0.1-0.1,0-0.2,0c-0.1,0-0.2,0-0.3,0c-0.1,0-0.2,0-0.3-0.1c-0.2,0-0.3-0.1-0.5-0.2c-0.1-0.1-0.2-0.2-0.3-0.3
					c-0.1,0-0.1-0.1-0.2-0.2c-0.1,0,0-0.2-0.1-0.2c0,0-0.1-0.1-0.1-0.1c0,0,0-0.1-0.1-0.1c0,0,0-0.1-0.1-0.2c0,0,0,0,0.1-0.1
					c0.1,0,0.3-0.1,0.4,0c0.1,0,0.2,0,0.4,0c0.1,0,0.1-0.1,0.1,0c0.2-0.1,0.3-0.1,0.5-0.2c0.4-0.1,0.8-0.4,1.1-0.6
					c0,0,0.1-0.1,0.1-0.1c0.1,0,0.2-0.1,0.3-0.1c0.1-0.1,0.2-0.1,0.3-0.2c0.1,0,0.1-0.1,0.2-0.1c0-0.1,0.1,0,0.1,0
					c0-0.1,0.2-0.1,0.3-0.2c0.1,0,0.1-0.1,0.1-0.1c0,0,0,0,0,0.1c0.1,0,0.1-0.1,0.2-0.1c0,0.1,0.1,0,0.1,0c0.1-0.1,0.2-0.2,0.3-0.2
					l0,0c0-0.1,0.1,0,0.1,0l0,0l0,0c0.1-0.1,0.2,0,0.3-0.1c0.1-0.1,0.1-0.1,0.2-0.1c0,0,0-0.1,0.1-0.1c0.1,0,0-0.1,0.1-0.1
					c0.1,0,0.1,0,0.2-0.1c0,0,0.1,0,0.1,0c0.1-0.1,0.2-0.1,0.2-0.2c0,0,0,0,0.1,0c0,0,0.1,0,0.1-0.1c0.1,0,0.2-0.1,0.3-0.1
					c0.1-0.1,0.1-0.1,0.2-0.2l0,0.1c0.1,0,0.2-0.1,0.3-0.1c0.1,0,0-0.1,0.1-0.1l0,0c0,0,0.1,0,0.1,0c0-0.1,0.1,0,0.1-0.1
					c0,0,0,0,0.1,0l0,0c0,0,0.1,0,0.1,0l0,0c0,0,0,0,0,0c0-0.1,0.1,0,0.1,0c0,0.1,0.1,0,0.1,0c0,0,0,0,0,0l0.1,0l0,0l0,0l0,0l0,0
					c0.1,0,0.2-0.1,0.3-0.1c0-0.1,0.2-0.1,0.2-0.1c0.1,0,0.3-0.1,0.4-0.1c0,0,0-0.1,0.1-0.1c0,0,0,0,0.1,0c0,0,0.1-0.1,0.1-0.1
					c0,0,0,0,0,0l0,0l0,0c0,0,0.1,0,0.1,0c0.2,0,0.3-0.1,0.4-0.1c0.1-0.1,0.2-0.1,0.3-0.1c0.1-0.1,0.2,0,0.2-0.1c0,0,0.1,0,0.1,0
					c0,0,0,0,0-0.1c0.1,0,0.2-0.1,0.4-0.1c0.1-0.1,0.1,0,0.2-0.1c0,0,0.1,0,0.1,0c0.1,0,0.1,0.1,0.2,0C126.2,8,126.3,7.9,126.3,7.9z
					"/>
				<polygon class="st0" points="122.1,9.5 122.1,9.5 122.1,9.5 122.1,9.5 				"/>
				<polygon class="st0" points="122,9.5 122.1,9.5 122.1,9.5 				"/>
				<polygon class="st0" points="119.9,10.7 119.9,10.7 119.9,10.7 				"/>
			</g>
		</g>
	</g>
</g>
</svg>
