<svg width="175" height="44" viewBox="0 0 175 44" fill="none" xmlns="http://www.w3.org/2000/svg">
<g clip-path="url(#clip0)">
<path d="M70.1369 10.636H60.7139V12.4048H70.0929L70.1369 10.636ZM70.4667 21.6227L68.1797 22.0072L69.0373 19.4693H67.1901L66.2005 22.3478L64.4523 22.6335C64.3566 21.5505 64.1124 20.4858 63.7266 19.4693H61.8134C62.2537 20.5691 62.5494 21.7213 62.693 22.8971L60.0762 23.2707V25.468C62.6491 25.0066 67.608 23.809 70.5217 23.1938L70.4667 21.6227ZM62.0993 9.53732H70.1369V4.16481H68.1467V7.77944H66.4424V3.38477H64.4523V7.77944H62.748V4.16481H60.7139V8.19694C60.7139 8.37296 60.7486 8.54727 60.816 8.7099C60.8834 8.87252 60.9822 9.02027 61.1068 9.14473C61.2313 9.2692 61.3792 9.36793 61.542 9.43529C61.7047 9.50265 61.8792 9.53732 62.0553 9.53732H62.0993ZM62.0553 18.7222H70.0929V14.6571C70.0929 14.3016 69.9516 13.9607 69.7 13.7093C69.4484 13.458 69.1072 13.3167 68.7515 13.3167H60.7139V17.3818C60.7139 17.7373 60.8552 18.0782 61.1068 18.3296C61.3583 18.581 61.6995 18.7222 62.0553 18.7222ZM62.792 14.9318H68.0038V17.1291H62.792V14.9318ZM80.5055 23.82C80.0217 23.82 79.8567 23.5563 79.8567 23.0839V5.56014C79.8567 5.20465 79.7154 4.86372 79.4638 4.61235C79.2123 4.36098 78.8711 4.21976 78.5153 4.21976H72.9187V15.1405C72.9187 19.0518 72.6108 22.9191 70.0929 25.6658H72.3469C74.9198 22.7213 75.0078 19.4253 75.0078 15.1405V6.0106H77.5367V23.4245C77.5367 24.7209 77.9105 25.457 79.087 25.6218C80.265 25.7244 81.4496 25.7244 82.6275 25.6218L82.9904 23.6992C82.1556 23.7532 81.3182 23.7532 80.4835 23.6992" fill="#00377B"/>
<path d="M113.646 15.0306H107.841V7.49379H111.612V5.66999H107.841V3.47266H105.642V5.66999H98.3629V3.47266H96.1639V5.66999H92.3925V7.49379H96.1639V15.0306H90.4023V16.8654H95.7791C94.4637 18.7034 92.5712 20.0492 90.4023 20.6888V22.7543C92.4642 22.1935 94.3831 21.201 96.0319 19.8428V21.37H100.881V23.82H92.6014V25.6548H111.403V23.82H103.157V21.4029H107.995V19.8758C109.648 21.2337 111.57 22.226 113.635 22.7872V20.7217C111.462 20.0851 109.565 18.739 108.248 16.8984H113.635L113.646 15.0306ZM98.3959 7.49379H105.631V8.77921H98.3959V7.49379ZM98.3959 10.625H105.631V11.9104H98.3959V10.625ZM98.3959 13.7452H105.631V15.0306H98.3959V13.7452ZM103.179 19.5352V17.6455H100.859V19.5352H96.3508C97.1776 18.7896 97.8404 17.8805 98.297 16.8654H105.796C106.248 17.8829 106.911 18.7929 107.742 19.5352H103.179Z" fill="#00377B"/>
<path d="M173.988 4.28564H161.047V6.28522H173.988V4.28564Z" fill="#00377B"/>
<path d="M160.08 10.4268V12.4153H168.184V23.0725C168.184 23.5449 168.03 23.7646 167.546 23.8085C166.707 23.8569 165.867 23.8569 165.028 23.8085L165.402 25.7202C166.609 25.8275 167.823 25.8275 169.03 25.7202C170.207 25.5225 170.581 24.7864 170.581 23.5229V12.5362H174.979V10.5476L160.08 10.4268Z" fill="#00377B"/>
<path d="M151.768 14.668V16.8653C152.685 16.3878 153.551 15.8171 154.351 15.1623V25.7535H156.715V12.8332C157.88 11.3088 158.841 9.63947 159.574 7.86719H157.375C156.092 10.5558 154.185 12.8989 151.812 14.7009" fill="#00377B"/>
<path d="M158.056 3.08789H155.857C155.105 5.0674 153.751 6.76182 151.986 7.93302V10.2292C154.83 8.67316 157.007 6.13395 158.111 3.08789" fill="#00377B"/>
<path d="M139.607 19.6451L142.993 17.9531V15.9975L138.782 18.1399C138.278 17.0596 137.991 15.8915 137.935 14.7011H143.037V4.98882C143.037 4.8128 143.003 4.63852 142.935 4.4759C142.868 4.31328 142.769 4.16553 142.644 4.04107C142.52 3.9166 142.372 3.81787 142.209 3.75051C142.046 3.68314 141.872 3.64848 141.696 3.64848H132.801V23.4245C132.801 23.4245 131.459 23.7651 131.426 23.7651V25.9624C131.426 25.9624 137.408 24.1167 137.452 24.1277V22.3918C137.452 22.3918 134.648 22.9411 134.67 22.9741V14.7011H136C136.214 17.2201 137.17 19.6193 138.748 21.5961C140.325 23.5728 142.453 25.0387 144.862 25.8086V24.0398C142.766 23.0582 140.965 21.5425 139.64 19.6451H139.607ZM134.67 5.43928H141.135V8.32878H134.67V5.43928ZM134.67 10.0207H141.135V12.9102H134.67V10.0207ZM127.523 10.614H129.722V8.91108H123.949C125.051 7.7464 126.055 6.49337 126.951 5.16461C128.168 6.65191 129.526 8.01709 131.008 9.2407V6.88953C129.762 5.71084 128.635 4.41174 127.644 3.01123H126.027C124.966 5.1138 123.493 6.98188 121.695 8.50458V10.8447C122.291 10.4515 122.857 10.0145 123.389 9.53733V10.636H125.676V12.9762H122.025V14.723H125.676V22.0621C124.246 22.3588 122.828 22.6225 121.882 22.7983V24.9956L131.085 22.7214V20.9086C130.14 21.1503 128.677 21.403 127.457 21.6666V14.7011H131.085V12.9542H127.457L127.523 10.614ZM129.557 20.6559C130.149 19.2582 130.67 17.8318 131.118 16.382H129.26C128.963 17.6923 128.567 18.9779 128.073 20.2274L129.557 20.6559ZM123.795 16.382H122.08C122.689 17.8765 123.124 19.4358 123.378 21.0294L125.115 20.513C124.9 19.0741 124.455 17.6792 123.795 16.382Z" fill="#00377B"/>
<path d="M70.5438 39.7064C70.1459 39.8584 69.7161 39.908 69.2941 39.8506C68.872 39.7932 68.4711 39.6306 68.1284 39.3779C67.7857 39.1251 67.5121 38.7903 67.3327 38.4042C67.1534 38.0181 67.0742 37.5932 67.1023 37.1685C67.0772 36.818 67.1265 36.4662 67.2469 36.136C67.3674 35.8059 67.5563 35.505 67.8013 35.2529C68.0463 35.0008 68.3419 34.8034 68.6686 34.6734C68.9953 34.5434 69.3458 34.4839 69.6972 34.4987C70.2365 34.5072 70.7668 34.6387 71.2475 34.8832L71.7423 33.9604C71.1115 33.5822 70.3888 33.3846 69.6532 33.389C69.126 33.3398 68.5944 33.4011 68.0923 33.569C67.5902 33.7368 67.1288 34.0075 66.7374 34.3638C66.346 34.72 66.0333 35.1539 65.8194 35.6378C65.6054 36.1217 65.4949 36.6449 65.4949 37.174C65.4949 37.703 65.6054 38.2262 65.8194 38.7101C66.0333 39.194 66.346 39.6279 66.7374 39.9842C67.1288 40.3404 67.5902 40.6111 68.0923 40.779C68.5944 40.9468 69.126 41.0081 69.6532 40.9589C70.4848 40.9405 71.3084 40.7923 72.0941 40.5194V37.4651H70.5658L70.5438 39.7064ZM73.2816 40.8051H74.81V33.4879H73.2816V40.8051ZM65.5849 33.4879H64.0126L61.5166 36.5862V33.4879H59.9883V40.8051H61.5166V37.1685L64.1775 40.8051H66.0577L62.869 36.762L65.5849 33.4879Z" fill="#00377B"/>
<path d="M102.397 36.806L105.113 33.521H103.552L101.056 36.6302V33.521H99.5273V40.8381H101.056V37.2125L103.717 40.8381H105.597L102.397 36.806Z" fill="#00377B"/>
<path d="M96.9996 38.7839C95.6472 36.9491 94.2728 35.3121 92.8984 33.6641H91.7988V40.9812H93.0303V35.8175C94.3938 37.6742 95.7682 39.3222 97.1426 40.9702H98.2421V33.708H96.9996V38.7839Z" fill="#00377B"/>
<path d="M82.7054 37.0038C83.0957 36.896 83.4401 36.6639 83.6862 36.3426C83.9324 36.0213 84.0667 35.6285 84.0688 35.2239C84.0688 34.2241 83.1892 33.6528 81.9578 33.6528H79.2969V40.9699H81.7378C83.4531 40.9699 84.5196 40.069 84.5196 38.7726C84.4925 38.3048 84.2913 37.864 83.9557 37.5368C83.62 37.2095 83.1741 37.0194 82.7054 37.0038ZM80.8252 34.6087H81.5509C82.1777 34.6087 82.6505 34.8723 82.6505 35.4986C82.6423 35.6681 82.5998 35.8342 82.5254 35.9869C82.4511 36.1395 82.3464 36.2754 82.2179 36.3864C82.0894 36.4974 81.9396 36.5811 81.7777 36.6324C81.6158 36.6838 81.4451 36.7017 81.2761 36.6851H80.8472L80.8252 34.6087ZM81.5399 40.0141H80.8252V37.63H81.5289C82.3206 37.63 82.9253 37.9816 82.9253 38.8166C82.9253 39.6515 82.3426 40.0141 81.5399 40.0141Z" fill="#00377B"/>
<path d="M87.3677 33.708L84.377 41.0251H85.7184L86.4661 39.0475H88.995L89.6657 41.0251H91.37L88.6212 33.708H87.3677ZM86.8729 38.1027C87.2028 37.1908 87.5326 36.3338 87.8185 35.2571C88.1484 36.3558 88.4562 37.1798 88.7531 38.1027H86.8729Z" fill="#00377B"/>
</g>
<path d="M0 21.54L21.54 0H0V21.54Z" fill="#00367B"/>
<path d="M21.54 43.09L0 21.54V43.09H21.54Z" fill="#00367B"/>
<path d="M21.5391 43.09L43.0891 21.54V43.09H21.5391Z" fill="#00367B"/>
<path d="M43.0891 21.54L21.5391 0H43.0891V21.54Z" fill="#50B848"/>
<path d="M21.54 0L0 21.54H21.54V0Z" fill="url(#paint0_linear)"/>
<path d="M0 21.54L21.54 43.09V21.54H0Z" fill="url(#paint1_linear)"/>
<path d="M43.0891 21.54L21.5391 43.09V21.54H43.0891Z" fill="white"/>
<path d="M43.0891 21.54L21.5391 0V21.54H43.0891Z" fill="url(#paint2_linear)"/>
<defs>
<linearGradient id="paint0_linear" x1="10.8107" y1="10.8104" x2="21.8161" y2="21.8159" gradientUnits="userSpaceOnUse">
<stop stop-color="#EF4622"/>
<stop offset="0.2" stop-color="#F15A21"/>
<stop offset="0.52" stop-color="#F6851E"/>
<stop offset="1" stop-color="#FFE300"/>
</linearGradient>
<linearGradient id="paint1_linear" x1="10.8105" y1="32.2759" x2="21.8164" y2="21.2702" gradientUnits="userSpaceOnUse">
<stop stop-color="#EF4622"/>
<stop offset="0.2" stop-color="#F15A21"/>
<stop offset="0.52" stop-color="#F6851E"/>
<stop offset="1" stop-color="#FFE300"/>
</linearGradient>
<linearGradient id="paint2_linear" x1="32.3955" y1="10.6904" x2="21.5428" y2="21.5431" gradientUnits="userSpaceOnUse">
<stop stop-color="#073C87"/>
<stop offset="0.2" stop-color="#00408A"/>
<stop offset="0.52" stop-color="#0063AC"/>
<stop offset="1" stop-color="#00AEEF"/>
</linearGradient>
<clipPath id="clip0">
<rect width="115" height="37.97" fill="white" transform="translate(60 3)"/>
</clipPath>
</defs>
</svg>
