<svg width="459" height="114" viewBox="0 0 459 114" fill="none" xmlns="http://www.w3.org/2000/svg">
<g clip-path="url(#clip0_610_20823)">
<path d="M0 113.386H28.3462L44.2817 0H15.9351L0 113.386Z" fill="#E60012"/>
<path d="M61.2896 0L57.7041 25.5117H96.3364L60.833 113.386H89.1792L134.99 0H61.2896Z" fill="#E60012"/>
<path d="M222.52 113.386H250.866L266.801 0H238.455L222.52 113.386Z" fill="#E60012"/>
<path d="M180.344 0H151.998L136.063 113.386H206.929L210.116 90.7085H167.596L180.344 0Z" fill="#E60012"/>
<path d="M454.952 22.6772L458.139 0H387.273H387.272L371.336 113.386H371.338H442.204L445.391 90.7085H402.871L406.344 66H443.193L446.38 43.3228H409.531L412.433 22.6772H454.952Z" fill="#E60012"/>
<path d="M347.588 0L317.659 63.6553L305.068 0H278.14L303.088 113.386H320.096L375.934 0H347.588Z" fill="#E60012"/>
</g>
<defs>
<clipPath id="clip0_610_20823">
<rect width="458.139" height="113.386" fill="white"/>
</clipPath>
</defs>
</svg>
