<?xml version="1.0" encoding="utf-8"?>
<!-- Generator: Adobe Illustrator 28.0.0, SVG Export Plug-In . SVG Version: 6.00 Build 0)  -->
<svg version="1.1" id="圖層_1" xmlns="http://www.w3.org/2000/svg" xmlns:xlink="http://www.w3.org/1999/xlink" x="0px" y="0px"
	 viewBox="0 0 147.4 31.9" style="enable-background:new 0 0 147.4 31.9;" xml:space="preserve">
<style type="text/css">
	.st0{fill:#71787C;}
	.st1{fill:#E5001F;}
</style>
<g>
	<g>
		<g>
			<path class="st0" d="M121.5,1.8c0.2,0,0.4,0.5,0.9,0.5c0.5,0,0.6-0.2,1-0.2c0.4,0,1.3,0.6,1.7,1.1c0.4,0.5,0.8,0.5,0.9,0.5
				c0.1,0,0.5-0.3,0.9-0.2c0.3,0.1,0.7,0,1.2,1c0.4,1,0.6,1.2,0.5,1.5c-0.1,0.2-0.2,0.3-0.4,0.2c-0.2-0.2-0.5-0.6-1.3-0.9
				c-0.8-0.2-1.1-0.7-1.4-0.9c-0.3-0.2-0.7-0.6-1.3-0.7c-0.6-0.1-1.4-0.2-1.8-0.4c-0.4-0.2-1.1-0.5-1.1-1
				C121.2,1.8,121.5,1.8,121.5,1.8z"/>
			<path class="st0" d="M128,1.6c0.3,0,0.6,0.5,0.8,0.7c0.5,0.3,0.9,0.4,1.5,0.5c0.6,0.1,1.3,0.7,1.4,1.5c0.1,0.8-0.3,1.2-0.4,1.2
				c-0.3,0-0.3-0.4-0.8-1.1c-0.3-0.5-1.2-0.9-1.3-0.9c-0.1-0.1-1-0.6-1.3-1C127.8,2.1,127.7,1.7,128,1.6z"/>
			<path class="st0" d="M133.1,3.7c0.2,0,0.3,0.3,0.5,0.6c0.3,0.3,1.2,0.6,1.2,1.1c0,0.5-0.4,0.7-0.7,0.7c-0.3,0-0.7-0.4-0.7-0.7
				c0-0.3-0.1-0.6-0.2-0.7c-0.1-0.2-0.4-0.5-0.4-0.6C132.8,4,133,3.7,133.1,3.7z"/>
			<path class="st0" d="M134.8,12.2c0,0.2-0.8,0.2-1.2,0.6c-0.4,0.4-0.3,0.4-0.1,0.5c0.2,0.1,0.7,0.5,0.7,0.8
				c-0.1,0.3-0.4,0.5-0.8,0.6c-0.4,0-0.4-0.2-0.3-0.4c0.1-0.1,0.1-0.4-0.1-0.3c-0.2,0.1-0.4,1.3-0.5,2c-0.1,0.6,0,1.9-0.2,2.3
				c-0.2,0.5-1.1,1.1-1.3,1c-0.2,0-0.2-0.4-0.7-0.4c-0.6,0-0.4,0.4-0.9,0.3c-0.5-0.1-0.9-0.4-0.8-0.6c0.1-0.2,0.5,0.1,0.7,0.1
				c0.2-0.1,0.7-0.3,0.9-0.3c0.2,0.1,0.5,0.2,0.8,0.2c0.3,0,0.9-0.1,0.9-0.6c0-0.5-0.3-2.7-0.2-3.4c0.1-0.7,0.2-2,1.6-2.4
				C134.8,11.9,134.8,12.1,134.8,12.2z"/>
			<path class="st0" d="M129.3,11.6c0,0.2-1.5,0.1-2.5,0.4c-1,0.3-2.2,1-2.5,1.1c-0.4,0.1-0.2-0.4-0.1-0.6c0.1-0.1-0.1-0.5,0-0.6
				c0.1-0.1,0.9-0.5,1.8-0.6C126.8,11.1,129.3,11.2,129.3,11.6z"/>
			<path class="st0" d="M129.2,13.3c0,0.2-0.7-0.1-1.1,0c-0.3,0-0.1,0.3-0.1,0.4c0.1,0.2,0.1,0.4-0.6,0.7c-0.7,0.3-0.7,0-0.7-0.2
				c0-0.2,0.3-0.1,0.3-0.4c0-0.3-0.3-0.3-0.5-0.2c-0.3,0.1-0.6,0.5-0.9,0.4c-0.2-0.1-0.1-0.3-0.1-0.5c0-0.3-0.3-0.5,0.2-0.6
				c0.4-0.2,1.4-0.2,1.8-0.2C127.9,12.7,129.3,12.9,129.2,13.3z"/>
			<path class="st0" d="M135,14.6c0.2-0.1,0.3,1-0.1,2.8c-0.4,1.8-1.3,3.8-2.1,4.7c-0.7,1-1.1,2.9-2.6,3.1c-1.5,0.2-4.1-0.6-5.3-1.3
				c-1.2-0.7-2.4-1.5-2.2-1.7c0.2-0.2,3.1,2.2,6.2,2.1c1.2-0.1,1.8,0.2,3.3-2.4c1.5-2.5,1.7-3.4,2.2-4.9
				C134.9,15.6,134.8,14.7,135,14.6z"/>
			<path class="st0" d="M127.6,20.9c0-0.2,0.2,0,0.7-0.3c0.4-0.3,1.2-0.7,1.4-0.7c0.2,0,0.5,0.5,0.9,0.4c0.4-0.1,0.5-0.3,0.7-0.3
				c0.2,0,0.4,0.7,0.3,0.9c-0.1,0.2-0.3,0-0.5-0.1c-0.4-0.2-0.5,0.3-0.7,0.2c-0.2,0-0.4-0.4-0.7-0.4c-0.3,0-1.1,0.5-1.5,0.5
				C127.7,21.1,127.6,20.9,127.6,20.9z"/>
			<path class="st0" d="M128.7,21.4c0.2-0.1,0.5,0.3,1.2,0.3c0.8-0.1,0.9-0.3,1.1-0.3c0.2,0,0.4,0.4-0.3,1c-0.4,0.3-1,0.4-1.6-0.1
				C128.6,21.6,128.6,21.5,128.7,21.4z"/>
			<path class="st0" d="M141.9,10.7c0.6-0.1,1.2,0.6,1.2,1.3c0.1,0.7,0,1-0.2,1c-0.2,0-0.2-0.5-0.6-0.5c-0.5,0-2,2-3.2,5.7
				c-0.8,2.6-0.2,3.5-0.5,3.5c-0.3,0-0.7-1-0.6-2.2C138.3,18.3,139.7,11,141.9,10.7z"/>
			<path class="st0" d="M137,22.6c0.3-0.1,0.3,0.3,0.5,0.5c0.2,0.2,0.8,0.2,0.4,0.5c-0.3,0.3-0.9,0-1.2,1.5c-0.3,1.5,0,1.7-0.9,2.9
				c-0.9,1.2-1,1.1-1.1,1.5c-0.1,0.3-0.2,0.9-0.5,0.4c-0.3-0.5,0-1.9,0.4-2.4c0.4-0.4,1.5-0.8,1.5-1.7
				C136.1,24.8,135.6,22.8,137,22.6z"/>
			<path class="st0" d="M137.9,25.1c0-0.3,1.5-0.9,1.6-0.7c0,0.2-0.7,0.7-0.9,1.2c-0.2,0.6-0.4,0.1-0.4-0.1
				C138.1,25.3,137.9,25.1,137.9,25.1z"/>
			<path class="st0" d="M139.1,26.4c0.2,0.1-0.6,0.6-0.9,1.1c-0.3,0.5-0.3,1.1-0.6,1.2c-0.3,0.1-0.3-0.3-0.4-0.5
				c-0.1-0.2-0.5-0.2-0.4-0.4C136.9,27.5,138.4,25.9,139.1,26.4z"/>
			<path class="st0" d="M119.8,18.6c-0.2,0.1-1.2-2-1.4-3.8c-0.2-1.8,0.3-1.4,0.4-1.2c0.1,0.2,1.2,0.6,0.9,1.4
				C119.1,16.7,120.2,18.4,119.8,18.6z"/>
			<path class="st0" d="M117.7,14.8c0.5,0-0.3,2-1.9,3.1c-0.4,0.3-0.5-0.2-0.3-0.4c0.2-0.2,0.4-0.3,0.2-0.6
				c-0.2-0.3,0.2-0.4,0.5-0.5C117.2,16,117.6,14.8,117.7,14.8z"/>
			<path class="st0" d="M120.2,21.9c-0.1-1.4-1.5-1.9-1.7-2.1c-0.2-0.2,0-2-0.4-2.6c-0.5-1-1.2,2-1.2,2s-1.9-0.5-2,0.3
				c0,0.8,0.7,1,0.9,1.2c0.2,0.1,0.8,0,0.8,0.2c0,0.2-0.1,3-0.1,3s-2.4,1.1-2.2,2.1c0.2,1,0.9,1.2,0.9,1.7c0,0.4-0.1,0.6,0.1,0.7
				c0.2,0.1,0.6-0.3,0.5-1c0-0.5-0.4-1.2-0.2-1.5c0.2-0.3,0.6-0.8,0.9-0.9c0,0,0.1,3.5,0.3,3.5c0.2,0.1,0.8-2.6,1-4.2
				C117.9,24.4,120.3,23.3,120.2,21.9z M118.1,23.3c0-0.3,0.2-2,0.2-2s0.7,0.2,0.7,1C118.9,23.1,118.1,23.3,118.1,23.3z"/>
		</g>
		<g>
			<path class="st1" d="M135.5,8.4c0,0.3,0.1,0.4-0.4,1c-0.5,0.6-0.1,1.3-0.4,1.4c-0.2,0.1-0.3-0.2-0.2-0.5c0-0.2-0.2-0.8-1-1
				c-0.8-0.2-4-0.9-6.9-0.8c-2.9,0.1-4.9,0.7-5.7,0.7c-0.8-0.1-1.7-0.5-1.7-1.2c-0.1-0.7,0.2-0.3,0.2-0.8c0.1-0.5,0-0.9,0.3-0.9
				c0.3,0,0.4,0.9,0.9,1.2c0.5,0.3,0.8,0.8,3.2,0.1c2.4-0.7,6.1-1.1,8.3-0.7C134.3,7.1,135.5,7.4,135.5,8.4z"/>
			<path class="st1" d="M120.1,10c-0.1,0.3-0.4,0.7-0.9,0.9c-0.5,0.2-1.7,1.3-3.2,1.2c-1.5-0.1-3-0.6-4-0.2c-1,0.3-1.3,1.6-2,1.2
				c-0.2-0.1,0.3-0.4,0.3-0.9c0-0.5-0.2-0.9,0.2-1.3c0.5-0.4,2.2-1.1,4.1-0.8c1.9,0.3,3.2,0.5,3.8,0c0,0-0.9,0.1-2.2-0.7
				c-1.4-0.8-2.4-1-3.6-0.5c-1.2,0.5-2.7,1.6-4.2,1.2c-1.5-0.4-1.1-1.5-0.8-1.7c0.3-0.2,0.5-0.3,0.5-0.7c0-0.4,0.5-0.3,0.6,0
				c0.1,0.3,0.5,1.2,2.1,0.9c1.9-0.3,4-1.5,5.1-1.3c1.1,0.2,2.1,1,3.2,1.9C120.1,10.1,120.2,9.6,120.1,10z"/>
		</g>
	</g>
	<g>
		<path class="st1" d="M15.4,12.8H9.7V9.9h5.7V12.8z M6,7.6c-0.6,1.8-1.2,3.3-1.8,4.4c-0.6,1.3-1.4,2.6-2.3,3.9l1.2,1.3
			c0.5-0.7,0.9-1.3,1.3-2v9.2H6V12.2c0.4-0.9,0.8-2,1.3-3.2c0.3-0.1,0.5-0.2,0.5-0.4c0-0.1-0.1-0.2-0.3-0.3L6,7.6z M8,8.4v5.9h3.7
			v1.6H6.6v1.5h4.5c-0.8,1.2-1.4,2-2,2.6c-0.8,0.8-1.7,1.4-2.8,2l1.3,1.5c1.2-0.9,2.1-1.7,2.8-2.5c0.4-0.5,0.9-1.1,1.4-1.9v5.4h1.6
			v-5.6c0.5,0.8,1,1.5,1.5,2.1c0.8,0.9,1.8,1.8,3,2.6l1.4-1.5c-1.3-0.7-2.3-1.4-3.1-2.1c-0.7-0.6-1.4-1.5-2.2-2.6h4.6v-1.5h-5.2
			v-1.6h3.8V8.4H8z"/>
		<path class="st1" d="M30.4,8.2v1.4H35V8.2H30.4z M29.5,10.7v1.5h6.1v-1.5H29.5z M30.4,13.3v1.4H35v-1.4H30.4z M30.4,15.9v1.4H35
			v-1.4H30.4z M30.1,18.5v6h1.5v-1h2.1v0.9h1.5v-0.9l1.5,0.7c0.5-1.8,0.8-3.3,0.9-4.5c0.2-1.1,0.2-2.3,0.3-3.7h1.7
			c0,1.4-0.1,2.3-0.2,2.9c-0.1,0.7-0.3,1-0.7,1.1l-0.9,0.2l0.8,1.4c0.8-0.1,1.3-0.4,1.6-0.7c0.3-0.4,0.5-1,0.6-2
			c0.1-1,0.2-2.4,0.2-4.4h-3.1c0-0.1,0-0.2,0-0.4v-1.9h3.5c0.1,2.1,0.2,3.8,0.4,5.1c0.2,1.1,0.4,2.1,0.7,3c-0.4,0.6-0.8,1.1-1.4,1.6
			c-0.5,0.5-1.2,0.9-2,1.4l1.3,1.1c1.1-0.8,2-1.6,2.6-2.4c0.1,0.3,0.3,0.6,0.5,0.9c0.6,1,1.1,1.5,1.5,1.5c0.5,0,1.1-1,1.8-2.9
			l-1.3-1.1c-0.2,1.3-0.4,1.9-0.5,1.9c-0.2,0-0.3-0.2-0.5-0.7c-0.1-0.3-0.2-0.6-0.4-1c0.3-0.6,0.6-1.2,0.8-1.9
			c0.3-0.9,0.7-2.2,1-3.8c0.3-0.1,0.4-0.2,0.4-0.3c0-0.1-0.1-0.2-0.2-0.3l-1.6-0.5c-0.2,1.5-0.5,2.8-0.8,3.9
			c-0.1,0.2-0.1,0.3-0.1,0.5c0-0.2-0.1-0.5-0.1-0.7c-0.2-1.5-0.4-3.3-0.4-5.3h3.4v-1.5h-3.5c0-0.8,0-1.5,0-2.4
			c0.1-0.2,0.2-0.4,0.2-0.5c0-0.1-0.1-0.2-0.3-0.2l-1.5-0.3c0,1.2,0,2.3,0,3.4h-5v3.5c0,1.7-0.1,3.3-0.3,5c-0.2,1.1-0.4,2.4-0.8,3.9
			v-4.7H30.1z M31.7,22.2v-2.2h2.1v2.2H31.7z M44.5,8l-1,0.9c0.6,0.4,1.3,1,1.9,1.7l1.1-1C45.9,8.9,45.2,8.4,44.5,8z"/>
	</g>
	<path class="st0" d="M66.7,7.8c0.3,0,0.5,0.1,0.5,0.2c0,0.2-0.2,0.4-0.4,0.6v1c0,1.4-0.1,2.7-0.3,3.9c0.6,1.7,1.4,3.2,2.4,4.5
		c1.2,1.7,3,3.3,5.5,4.9l-2.1,1.3c-2.3-2.1-4-3.9-4.9-5.5c-0.5-0.8-1-1.7-1.4-2.7c-0.1,0.2-0.1,0.4-0.2,0.5
		c-0.6,1.6-1.6,3.1-3.1,4.6c-1.1,1.1-2.4,2.1-3.9,3l-1.5-1.4c1.5-0.9,2.8-1.7,3.7-2.5c1.4-1.2,2.4-2.5,2.9-3.7
		c0.9-1.9,1.3-4.2,1.3-6.9V9.1c0-0.4-0.1-0.8-0.1-1.4L66.7,7.8z"/>
	<path class="st0" d="M88.4,22.2v-1.4h2.1v1.4H88.4z M86.5,8.3v1.3h6.4v0.6h-5.3v1.2h12.3v-1.2h-5.3V9.6h6.4V8.3h-6.4V8.2
		c0.2-0.2,0.3-0.3,0.3-0.4c0-0.1-0.1-0.2-0.5-0.2l-1.5-0.1v1H86.5z M86,11.9v1.2h14.5v1.5h1.7v-2.7H86z M87.6,13.7v1.2h5.1v0.7h-6.1
		v1.2h13.9v-1.2h-6.1v-0.7h5v-1.2H87.6z M85.2,17.5v1.3h12.9v1h-4.9v1.3h4.9v1.3c0,0.3-0.2,0.5-0.6,0.5h-1l0.7,1.6
		c1.1,0,1.8-0.2,2.1-0.5c0.3-0.3,0.5-0.8,0.5-1.4v-1.6h1.7v-1.3h-1.7v-1h2.4v-1.3H85.2z M86.8,19.5v4.6h1.6v-0.5h2.1v0.6h1.6v-4.6
		H86.8z M94.6,21.3l-1,0.9c0.5,0.4,0.9,0.9,1.4,1.6l1.1-0.9C95.6,22.2,95.1,21.7,94.6,21.3z"/>
</g>
</svg>
