<svg xmlns="http://www.w3.org/2000/svg" viewBox="0 0 470.6 127"><polygon points="322.2 76.3 330.1 31.3 322 77.5 322 77.5 322.2 76.3" fill="#601434"/><path d="M719.2,1199.7c-1.5-7.3-6-13.5-12.8-18.4a49.7,49.7,0,0,0-4.5-2.9l-7.7-4.9-.5-.2a5.6,5.6,0,0,1-2.2-2.1,5.2,5.2,0,0,1-.7-2.5,6.8,6.8,0,0,1,.2-1.4,6.9,6.9,0,0,1,.7-1.5,21.7,21.7,0,0,1,5.8-5.9.4.4,0,0,0-.4-.7l-25,10.1-8.5,3.4a.8.8,0,0,0,.1,1.5,83.3,83.3,0,0,1,24.7,4.8,48.2,48.2,0,0,1,8.2,4.1c5.9,3.7,9.6,8.5,10.2,13.9s-1.3,9.3-4.8,13.6-11.8,10.4-21.1,14.2a79,79,0,0,1-11.6,4l-2.8.7-5.8,1.3h0q-4.7.9-9.6,1.5l-1.8.2.2-1.2-.2,1.2h0l-.6,3.4-4.5,25.6h0l.2-1.2h0l-.2,1.2,2.7-.5a143.8,143.8,0,0,0,28.7-9,93.6,93.6,0,0,0,11-5.4,87.8,87.8,0,0,0,7.9-4.9,44.7,44.7,0,0,0,8.9-6.6,59.3,59.3,0,0,0,5.5-5.9,44.4,44.4,0,0,0,9.4-15.8c.3-1.1.6-2.1.8-3.1A27,27,0,0,0,719.2,1199.7Zm.2,5.6v0Z" transform="translate(-327.4 -1155)" fill="#951967"/><path d="M719.4,1205.7v0Z" transform="translate(-327.4 -1155)" fill="#e61c31"/><path d="M697.6,1202.8a10.9,10.9,0,0,0-.2-4.4,12.8,12.8,0,0,0-3.7-5.7c-3.4-3-8.9-5.1-15.7-6.2a80.4,80.4,0,0,0-15.8-.6l-4.7.4-8,45-.2,1.2,1.8-.2q4.9-.6,9.6-1.5h0l5.8-1.3,2.8-.7,2.4-1.1,2.1-1.1C687.5,1219.6,696.5,1210.7,697.6,1202.8Z" transform="translate(-327.4 -1155)" fill="#e61c31"/><path d="M719.1,1210.3c-.2,1-.5,2-.8,3.1a44.4,44.4,0,0,1-9.4,15.8,59.3,59.3,0,0,1-5.5,5.9,44.7,44.7,0,0,1-8.9,6.6,87.8,87.8,0,0,1-7.9,4.9,93.6,93.6,0,0,1-11,5.4,143.8,143.8,0,0,1-28.7,9l-2.7.5.2-1.2h0l-.2,1.2h0l-.2,1-1.6,9h.1l-1.7,9.2a23.6,23.6,0,0,0,5.9,1.1h2.2a27.3,27.3,0,0,0,13-3.3h.1l.5-.3h0a127.6,127.6,0,0,1,47-15.8,116.6,116.6,0,0,1,16.8-1.1h3.9c6,.3,9.5.6,11.6.9h.3a3.1,3.1,0,0,0,3.1-2.6l15.2-90.3a1.8,1.8,0,0,0-2-2.1,75.3,75.3,0,0,0-16.4,4.3l-12.9,68.6a10.5,10.5,0,0,1-7.4,8.2l-41.6,11.6c17.3-6.8,27-17.8,32.4-28.1l-.4.9c6.3-10.1,9-21.1,7.3-31.4a27.4,27.4,0,0,1-.3,9" transform="translate(-327.4 -1155)" fill="#601434"/><path d="M719.2,1199.7c-.2-.9-.5-1.8-.7-2.7a29.8,29.8,0,0,1,.9,4.3A7.8,7.8,0,0,0,719.2,1199.7Z" transform="translate(-327.4 -1155)" fill="none"/><path d="M680.1,1259.9l1.1-.3,1.8-.9Z" transform="translate(-327.4 -1155)" fill="#e61c31"/><path d="M742,1159.2c-5.1.6-17.7,3.1-35.1,12a49.3,49.3,0,0,1-5.3,2.2,10.3,10.3,0,0,1-2.4.5,9.9,9.9,0,0,1-3.5-.1,4,4,0,0,1-1.5-.3l7.7,4.9a49.7,49.7,0,0,1,4.5,2.9c5.9,4.3,10.1,9.6,12.1,15.7.2.9.5,1.8.7,2.7a7.8,7.8,0,0,1,.2,1.6c1.7,10.3-1,21.3-7.3,31.4s-16.5,19.4-29.1,26l-1.8.9,40.5-11.3a10.5,10.5,0,0,0,7.4-8.2l12.9-68.6,1.9-10.3A1.7,1.7,0,0,0,742,1159.2Z" transform="translate(-327.4 -1155)" fill="#e61c31"/><path d="M504.7,1184.9l-2.9,5.1h-7.4a14.6,14.6,0,0,1,.7-1.9l1.1-3.2h-6.6a31.7,31.7,0,0,1-2,5.1h-1.4l-2.9-5.1H477l2.9,5.1h-3.5v4.5h8.9l-1.2,1.8h-7.7v4.5h4.5c-1.4,1.9-3,3.7-4.6,5.5h.2v18.8h28.6a29.2,29.2,0,0,1-.4,5.1l-.6,3.7h5.8l.6-3.5a39.9,39.9,0,0,0,.4-5.9v-2.9h0v-1.1h-11v-2.1h11v-2.8h-11v-2.2h11v-2.8h-11v-2h11v-3.9h-2.5l-1.9-4h4.4v-4.5H491.3a16.2,16.2,0,0,0,1-1.8h18.6V1190h-2.8l2.8-5.1Zm-11.4,35.7H483.1v-2.1h10.2Zm0-4.9H483.1v-2.2h10.2Zm0-5H483.1v-2h10.2Zm6.3-9.9,1.8,4H485.6l2.9-4Z" transform="translate(-327.4 -1155)" fill="#040000"/><path d="M585.9,1185c-2.6,5.6-7.3,10.5-12,14.5l-1.2,1h10.8c4.8-3.8,7.6-8.7,10.4-14.1l.8-1.5h-8.8Z" transform="translate(-327.4 -1155)" fill="#040000"/><path d="M585.9,1199.5c-2.6,5.4-7.3,10.2-12,14.1l-1.2,1h7.7V1234h6.4v-22.4c3-3.2,5-6.8,7.1-10.8l.8-1.5H586Z" transform="translate(-327.4 -1155)" fill="#040000"/><path d="M595.6,1206.5l-.3.6h19.6v14.3a29.3,29.3,0,0,1-2.8,12.6h7.5l.2-.5a29.6,29.6,0,0,0,2.6-12.1v-14.3h5.1v-6.9H599A29.4,29.4,0,0,1,595.6,1206.5Z" transform="translate(-327.4 -1155)" fill="#040000"/><path d="M486.9,1226.4h-4.3l.3,2.8c.1,1.6.2,3.2.2,4.8h4.3a45.3,45.3,0,0,0-.3-5.2Z" transform="translate(-327.4 -1155)" fill="#040000"/><path d="M493.7,1226.4h-4.3l.3,2.8c.1,1.6.2,3.2.2,4.8h4.3c0-1.7-.1-3.5-.2-5.2Z" transform="translate(-327.4 -1155)" fill="#040000"/><path d="M500.8,1226.4h-4.3l.3,2.8a38.5,38.5,0,0,1,.2,4.8h4.3a45.2,45.2,0,0,0-.2-5.2Z" transform="translate(-327.4 -1155)" fill="#040000"/><path d="M476.4,1226.5a45.4,45.4,0,0,1-.7,7.5h4.4a45.6,45.6,0,0,0,.6-7.5h-4.3Z" transform="translate(-327.4 -1155)" fill="#040000"/><path d="M561.4,1226.9H546.5v-19.6h20.1v-20.6h-6v13.6H546.5v-15.4h-6.9v15.4H525.5v-13.6h-6v20.6h20.1v19.6H524.7V1212h-6V1234h48.7v-22.1h-6Z" transform="translate(-327.4 -1155)" fill="#040000"/><path d="M468.1,1184.9H456.3v39.6a56.5,56.5,0,0,1-.4,5.8l-.8,3.7h6.3l.7-3.5a40.5,40.5,0,0,0,.5-6v-6.4h5.5v6.4a37.9,37.9,0,0,1-.5,5.8l-.7,3.7h6.3l.7-3.5a40.5,40.5,0,0,0,.5-6v-39.6h-6.3Zm0,6.2v7.4h-5.5v-7.4Zm-5.5,20.8v-7.2h5.5v7.2Z" transform="translate(-327.4 -1155)" fill="#040000"/><path d="M412.4,1184.9h-9.6v3.7h-9.6v5h3.3v3.5h-3.3v5h28.9v-5h-3.3v-3.5h3.3v-5h-9.7Zm0,12.2H402.3v-3.5h10.1Z" transform="translate(-327.4 -1155)" fill="#040000"/><path d="M415.9,1205.1H393.2v4.9h0v2.5h0v4.9h0v2.6h0v4.5a36.9,36.9,0,0,1-.4,5.8l-.7,3.7h5.8l.7-3.5a35.2,35.2,0,0,0,.4-5.6h16.9v9.1h6.2v-28.9h-6.2Zm0,14.9H399v-2.6h16.9Zm0-7.5H399V1210h16.9Z" transform="translate(-327.4 -1155)" fill="#040000"/><path d="M435.4,1187.9h-4.7v-3h-6.4v14.3h17.3v2.9H424.3v3h-.1v4.1h0v4.6h0v1.9h0v4.6h0v2h0v4.6h0v7.1H448v-5.2H430.5v-1.9h17.4v-4.6H430.5v-2h17.4v-4.6H430.5v-1.9h17.4v-4.6H430.5v-2H448v-5.1h0v-7.3H430.7v-2.1h4.8a26.6,26.6,0,0,0,10-2l2.5-1V1185l-3,1.1A26.4,26.4,0,0,1,435.4,1187.9Z" transform="translate(-327.4 -1155)" fill="#040000"/><path d="M599,1187a30.2,30.2,0,0,1-3.4,6.4l-.3.4h32.2V1187Z" transform="translate(-327.4 -1155)" fill="#040000"/><polygon points="178.9 114.2 166.8 95.6 163.9 95.6 158.9 95.6 157.3 95.6 157.3 119.6 163.9 119.6 163.9 103.3 174.6 119.6 178.9 119.6 182.4 119.6 185.5 119.6 185.5 95.6 178.9 95.6 178.9 114.2" fill="#060001"/><path d="M557.7,1250.5h-6.5l-10.6,24.1h6.6l2.8-6.5h12.7l2.8,6.5h6.6l-10.6-24.1Zm-5.1,11.7,3-6.7h1.5l3,6.7Z" transform="translate(-327.4 -1155)" fill="#060001"/><path d="M406.1,1250.5h-6.6l-10.6,24.1h6.6l2.9-6.5H411l2.9,6.5h6.6l-10.6-24.1Zm-5.1,11.7,2.9-6.7h1.5l3,6.7Z" transform="translate(-327.4 -1155)" fill="#060001"/><path d="M344.9,1250.6H327.4v24h17.5c6.1-.1,11.2-5.5,11.2-12S351,1250.7,344.9,1250.6Zm-1.5,19H332.6v-14h10.8a7,7,0,0,1,0,14Z" transform="translate(-327.4 -1155)" fill="#060001"/><path d="M386.1,1258.5a7.7,7.7,0,0,0-7.4-7.9H360.1v24.1h6.6v-8.1h5.9l5.4,8.1h7.5l-5.5-8.3A7.8,7.8,0,0,0,386.1,1258.5Zm-8.8,3.2H366.5v-6.4h10.8a3.2,3.2,0,0,1,3,3.2A3.1,3.1,0,0,1,377.3,1261.7Z" transform="translate(-327.4 -1155)" fill="#060001"/><path d="M543,1258.5a7.7,7.7,0,0,0-7.4-7.9H517v24.1h6.6v-8.1h12A7.7,7.7,0,0,0,543,1258.5Zm-8.8,3.2H523.4v-6.4h10.8a3.2,3.2,0,0,1,3,3.2A3.1,3.1,0,0,1,534.2,1261.7Z" transform="translate(-327.4 -1155)" fill="#060001"/><path d="M436.8,1265.3h6.9v4.3H432.9a6.9,6.9,0,0,1-6.5-7,6.7,6.7,0,0,1,6.5-7h9a12.9,12.9,0,0,0,5.1-1l1.3-.6v-5l-1.5.6a12.4,12.4,0,0,1-5,1H431.4c-6.1.1-11.2,5.5-11.2,12.1s5.1,11.9,11.2,12h17.5v-14.4H436.8Z" transform="translate(-327.4 -1155)" fill="#060001"/><path d="M466.8,1250.6c-8.2,0-14.8,5.4-14.8,12s6.6,12,14.8,12a16.6,16.6,0,0,0,9.8-3.1,10.9,10.9,0,0,0,5-8.9C481.6,1256,475,1250.6,466.8,1250.6Zm0,18.8c-4.6,0-8.4-3.1-8.4-6.8s3.8-6.8,8.4-6.8,8.4,3,8.4,6.8S471.5,1269.4,466.8,1269.4Z" transform="translate(-327.4 -1155)" fill="#060001"/><path d="M595.4,1261.4c-2.9-1.7-9.6-1.6-13.2-1.9s-4.4-1.7-3.9-2.8,4.3-1.8,8.3-1.6a27.5,27.5,0,0,1,11,3.6V1253c-5.8-2.9-11.8-2.9-16.3-2.4s-10.6,4.5-8.7,9.1,14,5.4,16,5.5,2.8.2,3.5.7,0,3.8-5.4,3.9a31.2,31.2,0,0,1-13.9-3.3l3.3,7.2a50.1,50.1,0,0,0,11.8.8c11.2-.2,10.7-7.4,10.7-8.4A5.6,5.6,0,0,0,595.4,1261.4Z" transform="translate(-327.4 -1155)" fill="#060001"/><path d="M627.1,1266.1a5.6,5.6,0,0,0-3.1-4.7c-2.9-1.7-9.6-1.6-13.2-1.9s-4.4-1.7-3.9-2.8,4.3-1.8,8.3-1.6a27.5,27.5,0,0,1,11,3.6V1253c-5.8-2.9-11.7-2.9-16.3-2.4s-10.6,4.5-8.7,9.1,14,5.4,16.1,5.5,2.7.2,3.5.7-.1,3.8-5.5,3.9-11.1-1.9-13.3-2.8l-.6-.3v6a18,18,0,0,0,3.9,1h0a45.3,45.3,0,0,0,11.2.8C627.6,1274.3,627.1,1267.1,627.1,1266.1Z" transform="translate(-327.4 -1155)" fill="#060001"/><path d="M779.1,1157.2h-4.3v14h-2.6v-14h-4.4V1155h11.3Z" transform="translate(-327.4 -1155)" fill="#231815"/><path d="M798,1171.2h-2.7v-12.7l-4.3,12.7h-2.8l-4.4-12.6v12.6h-2.3V1155h3.6l4.6,13.3,4.5-13.3H798Z" transform="translate(-327.4 -1155)" fill="#231815"/></svg>