<svg xmlns="http://www.w3.org/2000/svg" viewBox="0 0 474.6 119.6"><path d="M502.7,1188.1l-2.9,5.1h-7.4c.2-.6.5-1.2.7-1.9l1.1-3.2h-6.5a38.9,38.9,0,0,1-2.1,5.1h-1.4l-2.9-5.1h-6.2l2.8,5.1h-3.4v4.5h8.8l-1.2,1.8h-7.6v4.5H479c-1.5,1.9-3,3.7-4.6,5.5h.1v18.9h28.7a44,44,0,0,1-.5,5.1l-.6,3.7h5.8l.6-3.5a38.1,38.1,0,0,0,.5-5.9v-2.9h-.1v-1.1H497.9v-2.1H509v-2.8H497.9v-2.2H509v-2.8H497.9v-2H509V1208h-2.6c-.5-1.2-1.3-2.7-1.9-4H509v-4.5H489.4a16.2,16.2,0,0,1,1-1.8H509v-4.5h-2.9l2.9-5.1Zm-11.4,35.7H481.1v-2.1h10.2Zm0-4.9H481.1v-2.2h10.2Zm0-5H481.1v-2h10.2Zm6.3-9.9,1.8,4H483.6l2.9-4Z" transform="translate(-325.4 -1158.2)" fill="#fff"/><path d="M584,1188.2c-2.7,5.6-7.4,10.5-12.1,14.5l-1.2,1h10.9c4.8-3.8,7.6-8.6,10.4-14.1l.7-1.5H584Z" transform="translate(-325.4 -1158.2)" fill="#fff"/><path d="M584,1202.7c-2.7,5.4-7.4,10.2-12.1,14.1l-1.2,1h7.7v19.4h6.4v-22.4A47.3,47.3,0,0,0,592,1204l.7-1.4H584Z" transform="translate(-325.4 -1158.2)" fill="#fff"/><path d="M593.6,1209.8l-.3.5H613v14.3a28.7,28.7,0,0,1-2.9,12.6h7.5l.2-.5a29.6,29.6,0,0,0,2.6-12.1v-14.3h5.1v-6.9H597C596.2,1206,595,1207.5,593.6,1209.8Z" transform="translate(-325.4 -1158.2)" fill="#fff"/><path d="M484.9,1229.6h-4.3l.3,2.8a38.5,38.5,0,0,1,.2,4.8h4.3c0-1.7-.1-3.4-.2-5.2Z" transform="translate(-325.4 -1158.2)" fill="#fff"/><path d="M491.7,1229.6h-4.3l.3,2.8a38.5,38.5,0,0,1,.2,4.8h4.3a46.1,46.1,0,0,0-.2-5.2Z" transform="translate(-325.4 -1158.2)" fill="#fff"/><path d="M498.9,1229.6h-4.4l.3,2.8a25.7,25.7,0,0,1,.2,4.8h4.3a30.5,30.5,0,0,0-.2-5.2Z" transform="translate(-325.4 -1158.2)" fill="#fff"/><path d="M474.4,1229.8a59.9,59.9,0,0,1-.6,7.4h4.3a45.2,45.2,0,0,0,.6-7.4v-.2h-4.3Z" transform="translate(-325.4 -1158.2)" fill="#fff"/><path d="M559.4,1230.1H544.5v-19.6h20.1V1190h-6v13.5H544.5v-15.4h-6.9v15.4h-14V1190h-6.1v20.5h20.1v19.6H522.7v-14.9h-6v22h48.7v-22h-6Z" transform="translate(-325.4 -1158.2)" fill="#fff"/><path d="M466.1,1188.1H454.3v39.6a37.7,37.7,0,0,1-.4,5.8l-.7,3.7h6.2l.7-3.5a40.3,40.3,0,0,0,.5-5.9v-6.5h5.5v6.4a37.7,37.7,0,0,1-.4,5.8l-.7,3.7h6.2l.7-3.5a40.3,40.3,0,0,0,.5-5.9v-39.7h-6.3Zm0,6.2v7.5h-5.5v-7.5Zm-5.5,20.9V1208h5.5v7.2Z" transform="translate(-325.4 -1158.2)" fill="#fff"/><path d="M410.5,1188.1h-9.7v3.8h-9.5v4.9h3.2v3.5h-3.2v5h28.8v-5h-3.2v-3.5h3.2v-4.9h-9.6Zm-.1,12.2H400.3v-3.5h10.1Z" transform="translate(-325.4 -1158.2)" fill="#fff"/><path d="M413.9,1208.3H391.3v5h0v2.4h0v5h0v2.5h0v4.6a36.6,36.6,0,0,1-.5,5.7l-.7,3.7h5.8l.7-3.5a33.9,33.9,0,0,0,.4-5.5h16.9v9h6.2v-28.9h-6.2Zm0,14.9H397.1v-2.5h16.8Zm0-7.5H397.1v-2.4h16.8Z" transform="translate(-325.4 -1158.2)" fill="#fff"/><path d="M433.4,1191.2h-4.7v-3.1h-6.4v14.4h17.3v2.8H422.3v3h0v4.1h0v4.6h0v2h0v4.6h0v1.9h0v4.6h0v7.1H446v-5.1H428.5v-2H446v-4.6H428.5v-1.9H446V1219H428.5v-2H446v-4.6H428.5v-1.9H446v-5.2h0V1198H428.7v-2.1h4.8a26.5,26.5,0,0,0,10-1.9l2.5-1.1v-4.7l-3,1.2A26,26,0,0,1,433.4,1191.2Z" transform="translate(-325.4 -1158.2)" fill="#fff"/><path d="M597,1190.3c-.8,2.5-2,4-3.4,6.3l-.3.4h32.2v-6.7Z" transform="translate(-325.4 -1158.2)" fill="#fff"/><polygon points="178.9 114.2 166.8 95.6 163.9 95.6 158.9 95.6 157.3 95.6 157.3 119.6 163.9 119.6 163.9 103.3 174.6 119.6 178.9 119.6 182.4 119.6 185.5 119.6 185.5 95.6 178.9 95.6 178.9 114.2" fill="#fff"/><path d="M555.8,1253.8h-6.6l-10.6,24h6.6l2.8-6.5h12.7l2.9,6.5h6.5l-10.5-24Zm-5.2,11.6,3-6.7h1.5l3,6.7Z" transform="translate(-325.4 -1158.2)" fill="#fff"/><path d="M404.1,1253.8h-6.6l-10.6,24h6.6l2.9-6.5H409l2.9,6.5h6.6l-10.6-24Zm-5.1,11.6,2.9-6.7h1.6l2.9,6.7Z" transform="translate(-325.4 -1158.2)" fill="#fff"/><path d="M342.9,1253.8H325.4v24h17.5c6.2-.1,11.2-5.4,11.2-12S349.1,1253.9,342.9,1253.8Zm-1.5,19H330.6v-14h10.8a7,7,0,0,1,0,14Z" transform="translate(-325.4 -1158.2)" fill="#fff"/><path d="M384.1,1261.7a7.8,7.8,0,0,0-7.4-7.9H358.1v24h6.6v-8.1h5.9l5.4,8.1h7.6l-5.6-8.3A7.8,7.8,0,0,0,384.1,1261.7Zm-8.8,3.2H364.5v-6.4h10.8a3.3,3.3,0,0,1,3,3.2A3.1,3.1,0,0,1,375.3,1264.9Z" transform="translate(-325.4 -1158.2)" fill="#fff"/><path d="M541,1261.7a7.7,7.7,0,0,0-7.3-7.9H515v24h6.6v-8.1h12.1A7.8,7.8,0,0,0,541,1261.7Zm-8.8,3.2H521.4v-6.4h10.8a3.2,3.2,0,0,1,3,3.2A3.1,3.1,0,0,1,532.2,1264.9Z" transform="translate(-325.4 -1158.2)" fill="#fff"/><path d="M434.8,1268.6h6.9v4.2H431a7,7,0,0,1,0-14h8.9a12.6,12.6,0,0,0,5.1-1.1l1.3-.6v-5l-1.5.7a14.4,14.4,0,0,1-5,1H429.5c-6.2.1-11.2,5.4-11.2,12s5,11.9,11.1,12H447v-14.4H434.8Z" transform="translate(-325.4 -1158.2)" fill="#fff"/><path d="M464.8,1253.9c-8.2,0-14.8,5.3-14.8,11.9s6.6,12,14.8,12a17.8,17.8,0,0,0,9.9-3,11.3,11.3,0,0,0,5-9C479.7,1259.2,473,1253.9,464.8,1253.9Zm0,18.7c-4.6,0-8.4-3-8.4-6.8s3.8-6.8,8.4-6.8,8.5,3.1,8.5,6.8S469.5,1272.6,464.8,1272.6Z" transform="translate(-325.4 -1158.2)" fill="#fff"/><path d="M593.4,1264.6c-2.9-1.7-9.6-1.6-13.2-1.9s-4.4-1.7-3.9-2.7,4.3-1.9,8.3-1.6a25.9,25.9,0,0,1,11,3.6v-5.7c-5.8-3-11.7-3-16.3-2.5s-10.5,4.5-8.7,9.1,14,5.5,16.1,5.5,2.7.2,3.5.8-.1,3.7-5.5,3.8a31.2,31.2,0,0,1-13.8-3.2l3.2,7.1a50.1,50.1,0,0,0,11.8.8c11.2-.2,10.7-7.4,10.7-8.3A5.8,5.8,0,0,0,593.4,1264.6Z" transform="translate(-325.4 -1158.2)" fill="#fff"/><path d="M625.2,1269.4a6,6,0,0,0-3.1-4.8c-2.9-1.7-9.7-1.6-13.2-1.9s-4.5-1.7-4-2.7,4.3-1.9,8.3-1.6a25.9,25.9,0,0,1,11,3.6v-5.7c-5.8-3-11.7-3-16.3-2.5s-10.5,4.5-8.7,9.1,14,5.5,16.1,5.5,2.7.2,3.5.8-.1,3.7-5.4,3.8a32,32,0,0,1-13.4-2.8l-.6-.2v5.9a24.7,24.7,0,0,0,3.9,1.1h.1a48.2,48.2,0,0,0,11.1.7C625.6,1277.5,625.2,1270.3,625.2,1269.4Z" transform="translate(-325.4 -1158.2)" fill="#fff"/><path d="M781.1,1160.4h-4.3v14h-2.7v-14h-4.3v-2.2h11.3Z" transform="translate(-325.4 -1158.2)" fill="#fff"/><path d="M800,1174.4h-2.7v-12.7l-4.4,12.7h-2.7l-4.4-12.6v12.6h-2.3v-16.2h3.6l4.6,13.3,4.5-13.3H800Z" transform="translate(-325.4 -1158.2)" fill="#fff"/><polygon points="331.8 70.3 338.8 30.3 331.6 71.4 331.6 71.4 331.8 70.3" fill="#fff"/><path d="M719.1,1200.4c-1.3-6.4-5.3-12-11.4-16.3a26.5,26.5,0,0,0-3.9-2.6l-6.9-4.3-.5-.2a4.4,4.4,0,0,1-1.9-1.9,4.1,4.1,0,0,1-.6-2.3,4.9,4.9,0,0,1,.1-1.2,9.1,9.1,0,0,1,.7-1.4,21,21,0,0,1,5.1-5.2.3.3,0,0,0-.3-.6l-22.3,9-7.5,3a.7.7,0,0,0,.1,1.4,71,71,0,0,1,22,4.3,34.6,34.6,0,0,1,7.2,3.6c5.3,3.3,8.6,7.5,9.1,12.4s-1.1,8.2-4.3,12-10.5,9.3-18.7,12.7a90.5,90.5,0,0,1-10.4,3.5l-2.4.7-5.2,1.1h0a77.3,77.3,0,0,1-8.6,1.3l-1.5.2.2-1.1-.2,1.1h0l-.6,3-4,22.8h0l.2-1.1h0v1.1l2.3-.5a123.5,123.5,0,0,0,25.6-7.9c3.4-1.5,6.7-3.1,9.7-4.8s12.8-8.2,15-10.2a58,58,0,0,0,4.9-5.3,39.4,39.4,0,0,0,8.4-14.1c.2-.9.5-1.8.7-2.8A24.8,24.8,0,0,0,719.1,1200.4Z" transform="translate(-325.4 -1158.2)" fill="#fff"/><path d="M699.9,1203.2a8.6,8.6,0,0,0-.2-3.9,10.8,10.8,0,0,0-3.2-5.1c-3.1-2.7-8-4.6-14-5.5a71.3,71.3,0,0,0-14.1-.5l-4.2.3-7,40-.2,1.1,1.5-.2a77.3,77.3,0,0,0,8.6-1.3h0l5.2-1.1,2.4-.7,2.2-1,1.9-.9C690.9,1218.1,699,1210.3,699.9,1203.2Z" transform="translate(-325.4 -1158.2)" fill="#fff"/><path d="M719.1,1200.4l-.6-2.3c.3,1.2.6,2.5.8,3.7A7.8,7.8,0,0,0,719.1,1200.4Z" transform="translate(-325.4 -1158.2)" fill="#fff"/><path d="M739.4,1164.4c-4.5.6-15.8,2.7-31.2,10.7l-4.7,2-2.1.4a10.1,10.1,0,0,1-3.1-.1l-1.4-.2,6.9,4.3a26.5,26.5,0,0,1,3.9,2.6c5.3,3.8,9.1,8.5,10.8,14l.6,2.3a7.8,7.8,0,0,1,.2,1.4c1.6,9.3-1.8,18.5-6.5,28-8.3,16.6-27,23.7-27.5,23.9l36-10.1a9,9,0,0,0,6.6-7.2l11.5-61.1,1.7-9.1A1.5,1.5,0,0,0,739.4,1164.4Z" transform="translate(-325.4 -1158.2)" fill="#fff"/><path d="M755,1169.5c-4.6,18.3-8.5,47.5-12,66-1.1,5.9-2.2,11.9-3.2,17.8a3.6,3.6,0,0,1-3.8,2.9c-10.4-.8-20.9-.6-31,1.6a105.2,105.2,0,0,0-37.5,15.2c-3.9,2.8-11.1,4.4-16.9,3.4h0a24.4,24.4,0,0,0,18.3-1.2,126.9,126.9,0,0,1,37.1-12,117.9,117.9,0,0,1,31.4-.6h1.2a5.9,5.9,0,0,0,6.3-3.4,18.7,18.7,0,0,0,.8-3.2c4-25.2,7.7-61.2,9.9-86.6A.3.3,0,0,0,755,1169.5Z" transform="translate(-325.4 -1158.2)" fill="#fff"/></svg>