<?xml version="1.0" encoding="UTF-8"?><svg id="_圖層_1" xmlns="http://www.w3.org/2000/svg" viewBox="0 0 300 129.67"><defs><style>.cls-1{fill:#231815;}.cls-1,.cls-2,.cls-3{stroke-width:0px;}.cls-2{fill:#34a7ad;}.cls-3{fill:#000;}</style></defs><rect class="cls-2" x="119.4" y="47.74" width="23.1" height="8.88"/><rect class="cls-2" x="153.7" y="29.98" width="23.51" height="8.47"/><path class="cls-1" d="M153.7,0h-11.2v4.84h-41.19l6.89,9.69h34.3v6.17h-34.3v45.3h34.3v6.47h-60.91V0h-11.3v72.47h-18.16c-1.41,0-2.12-.64-2.12-1.92V8.88h-10.39v68.03c0,4.04,1.98,6.05,5.95,6.05h24.72v10.76h11.3v-10.76h60.91v10.76h11.2v-10.76h35.92l6.89-10.49h-42.81v-6.47h26.63c5.38,0,8.07-2.29,8.07-6.86V20.7h-34.71v-6.17h80.79v55.12c0,1.88-.84,2.82-2.52,2.82h-9.68V20.85h-9.58v62.08h24.11c4.84,0,7.26-3.7,7.26-8.74V4.86l-90.37-.02V0ZM142.5,56.61h-23.1v-8.88h23.1v8.88ZM142.5,38.45h-23.1v-8.47h23.1v8.47ZM177.21,54.29c0,1.55-.94,2.32-2.83,2.32h-20.68v-8.88h23.51v6.56ZM177.21,38.45h-23.51v-8.47h23.51v8.47Z"/><path class="cls-1" d="M260.85,63.86h32.8c.53,0,1.03-.03,1.49-.1,3.24-.44,4.87-2.43,4.87-5.96V14.05C300,6.29,292.11,0,284.35,0h-34.29v85.08c0,4.77,2.39,8.64,7.16,8.64h42.78v-10.76h-37.43c-1.41,0-2.12-.84-2.12-1.85v-17.25h.39ZM280.73,54.58V9.66h.04c5.63.08,9.54,3.19,9.54,8.83v34.17h0c0,1.28-.64,1.92-1.92,1.92h-7.67ZM260.85,54.58V9.66h9.8v44.92h0s-9.8,0-9.8,0h0Z"/><path class="cls-1" d="M25.83,0H0v76.99c0,9.24,9.39,16.74,18.64,16.74h14.86V6.96C33.49,2.32,30.94,0,25.83,0M22.9,83.08c-6.7-.1-12.11-3.79-12.11-10.52V9.79h9.38c1.17,0,1.96.33,2.37.97.23.35.35.8.35,1.35v70.97Z"/><path class="cls-3" d="M150.09,128.03c-.59.31-1.9.61-3.55.61-4.37,0-7.02-2.73-7.02-6.91,0-4.53,3.14-7.26,7.34-7.26,1.65,0,2.84.35,3.35.61l-.55,2c-.65-.29-1.55-.53-2.69-.53-2.79,0-4.81,1.75-4.81,5.06,0,3.02,1.77,4.96,4.79,4.96,1.02,0,2.08-.2,2.73-.51l.41,1.98Z"/><path class="cls-3" d="M157.74,128.44l-.16-1.1h-.06c-.61.78-1.65,1.33-2.94,1.33-2,0-3.12-1.45-3.12-2.96,0-2.51,2.22-3.77,5.89-3.75v-.16c0-.65-.27-1.73-2.02-1.73-.98,0-2,.31-2.67.73l-.49-1.63c.73-.45,2.02-.88,3.59-.88,3.18,0,4.1,2.02,4.1,4.18v3.59c0,.9.04,1.77.14,2.39h-2.26ZM157.42,123.58c-1.77-.04-3.47.35-3.47,1.86,0,.98.63,1.43,1.43,1.43,1,0,1.73-.65,1.96-1.37.06-.18.08-.39.08-.55v-1.37Z"/><path class="cls-3" d="M162.72,121.46c0-1.14-.02-2.1-.08-2.96h2.2l.12,1.49h.06c.43-.77,1.51-1.71,3.16-1.71,1.73,0,3.53,1.12,3.53,4.26v5.9h-2.51v-5.61c0-1.43-.53-2.51-1.9-2.51-1,0-1.69.71-1.96,1.47-.08.22-.1.53-.1.82v5.83h-2.53v-6.98Z"/><path class="cls-3" d="M174.7,114.69h2.51v11.65h5.65v2.1h-8.16v-13.75Z"/><path class="cls-3" d="M186.41,124.17c.06,1.8,1.47,2.57,3.06,2.57,1.16,0,2-.16,2.75-.45l.37,1.73c-.86.35-2.04.61-3.47.61-3.22,0-5.12-1.98-5.12-5.02,0-2.75,1.67-5.34,4.85-5.34s4.28,2.65,4.28,4.83c0,.47-.04.84-.08,1.06h-6.65ZM190.77,122.42c.02-.92-.39-2.43-2.06-2.43-1.55,0-2.2,1.41-2.3,2.43h4.36Z"/><path class="cls-3" d="M200.95,128.44l-.16-1.1h-.06c-.61.78-1.65,1.33-2.94,1.33-2,0-3.12-1.45-3.12-2.96,0-2.51,2.22-3.77,5.9-3.75v-.16c0-.65-.27-1.73-2.02-1.73-.98,0-2,.31-2.67.73l-.49-1.63c.73-.45,2.02-.88,3.59-.88,3.18,0,4.1,2.02,4.1,4.18v3.59c0,.9.04,1.77.14,2.39h-2.26ZM200.62,123.58c-1.77-.04-3.47.35-3.47,1.86,0,.98.63,1.43,1.43,1.43,1,0,1.73-.65,1.96-1.37.06-.18.08-.39.08-.55v-1.37Z"/><path class="cls-3" d="M215.09,113.96v11.69c0,1.02.04,2.12.08,2.79h-2.24l-.1-1.57h-.04c-.59,1.1-1.8,1.8-3.24,1.8-2.37,0-4.24-2.02-4.24-5.08-.02-3.32,2.06-5.3,4.45-5.3,1.37,0,2.35.57,2.79,1.31h.04v-5.63h2.51ZM212.58,122.64c0-.2-.02-.45-.06-.65-.22-.98-1.02-1.77-2.16-1.77-1.61,0-2.51,1.43-2.51,3.28s.9,3.14,2.49,3.14c1.02,0,1.92-.69,2.16-1.77.06-.22.08-.47.08-.73v-1.49Z"/><path class="cls-3" d="M225.02,114.69v13.75h-2.51v-13.75h2.51Z"/><path class="cls-3" d="M228.12,121.46c0-1.14-.02-2.1-.08-2.96h2.2l.12,1.49h.06c.43-.77,1.51-1.71,3.16-1.71,1.73,0,3.53,1.12,3.53,4.26v5.9h-2.51v-5.61c0-1.43-.53-2.51-1.9-2.51-1,0-1.69.71-1.96,1.47-.08.22-.1.53-.1.82v5.83h-2.53v-6.98Z"/><path class="cls-3" d="M247.3,128.13c-.53.24-1.57.51-2.81.51-3.1,0-5.12-1.98-5.12-5.06s2.04-5.3,5.53-5.3c.92,0,1.86.2,2.43.47l-.45,1.88c-.41-.18-1-.39-1.9-.39-1.92,0-3.06,1.41-3.04,3.22,0,2.04,1.33,3.2,3.04,3.2.88,0,1.49-.18,1.98-.39l.35,1.86Z"/><path class="cls-3" d="M248.89,127.05c0-.94.65-1.61,1.55-1.61s1.55.65,1.55,1.61-.61,1.61-1.55,1.61-1.55-.69-1.55-1.61Z"/><path class="cls-1" d="M52.65,117.12h7.5v1.55h-17.25v-1.55h2.94v-3.02h1.83v3.02h3.11v-3.82h1.87v1.16h6.4v1.49h-6.4v1.16ZM58.52,127.52c0,.82-.13,1.37-.38,1.63-.24.28-.82.42-1.72.42h-2.82l-.44-1.69,2.94.09c.4,0,.6-.19.6-.56v-1.03h-10.28v3.28h-1.83v-10.08h13.94l-.02,7.92ZM56.69,121.1h-10.28v1.18h10.28v-1.18ZM46.41,124.98h10.28v-1.29h-10.28v1.29Z"/><path class="cls-1" d="M67.72,123.59v.76c0,1.74-.09,3.15-.27,4.24l-1.01-.19c.23-1.31.35-2.91.35-4.81h.93ZM73.24,117.72h-1.63v1.3h1.63v1.11h-1.63v1.48h1.87c-.12,4.34-.28,6.71-.48,7.11-.21.39-.55.63-1.02.71-.48.08-1.08.12-1.81.12l-.42-1.41c.39.03.8.05,1.24.05.55,0,.87-.14.97-.42.1-.27.15-1.37.15-3.3v-1.55h-5.1v-9.07h6.35v1.41h-1.72v1.3h1.63l-.02,1.15ZM68.16,128.12c.06-.64.1-1.33.11-2.07v-.47c0-.65-.02-1.3-.06-1.96l.77-.04c.09,1.17.15,2.66.18,4.47l-1.01.07ZM68.45,116.57h1.79v-1.3h-1.79v1.3ZM70.24,119.02v-1.3h-1.79v1.3h1.79ZM70.24,121.61v-1.48h-1.79v1.48h1.79ZM69.75,127.03c-.05-1.24-.15-2.39-.31-3.44l.73-.09c.17,1.08.31,2.2.42,3.37l-.84.16ZM71.14,126.37c-.09-.97-.24-1.93-.46-2.88l.6-.12c.18.65.37,1.58.57,2.78l-.71.23ZM79.35,117.75v.89h3.6v1.25h-3.6v.99h4.13v1.34h-1.74c-.18.46-.4.9-.66,1.32h2.21v1.32h-3.95v1.13h3.73v1.29h-3.73v2.4h-1.54v-2.4h-3.66v-1.29h3.66v-1.13h-3.86v-1.32h2.21c-.27-.59-.49-1.03-.68-1.32h-1.57v-1.34h3.9v-.99h-3.64v-1.25h3.64v-.89h-3.93v-3.89h9.24v3.89h-3.77ZM75.33,115.09v1.44h1.24v-1.44h-1.24ZM79.48,123.54c.33-.36.59-.8.77-1.32h-3.2c.26.42.47.86.64,1.32h1.79ZM77.87,115.09v1.44h1.23v-1.44h-1.23ZM81.68,116.52v-1.44h-1.28v1.44h1.28Z"/><path class="cls-1" d="M90.29,113.74h16.22v15.93h-1.68v-.71h-12.86v.71h-1.68v-15.93ZM91.98,115.11v12.46h12.88v-12.46h-12.88ZM99.88,124.09c-.58-1.6-.95-3.48-1.1-5.63h-6.09v-1.37h6.02v-1.44h1.57v1.44h3.93v1.37h-3.91c.07,1.66.29,3.03.66,4.12.71-1.23,1.21-2.4,1.52-3.51l1.3.76c-.57,1.56-1.29,3.05-2.16,4.47,0,.07.12.3.37.68.23.37.43.56.59.56.21,0,.47-.68.79-2.05l1.28.96c-.55,1.85-1.26,2.78-2.14,2.78-.68,0-1.33-.58-1.94-1.74-.7.86-1.32,1.51-1.87,1.95l-1.15-1.18c.57-.38,1.02-.75,1.35-1.09-1.49.38-3.48.75-5.96,1.09l-.27-1.49c2.01-.1,4.17-.42,6.47-.94v1.11l.75-.83ZM93.26,119.44h4.66v4.07h-4.66v-4.07ZM96.53,120.7h-1.87v1.53h1.87v-1.53ZM102.33,117.09c-.27-.65-.58-1.16-.95-1.53l1.26-.4c.22.21.4.43.55.66.18.28.35.54.51.78l-1.37.49Z"/><path class="cls-1" d="M117.84,117.18c.23-.03.69-.44,1.37-1.22.68-.79,1.2-1.67,1.55-2.66l1.5.19-.35.8h2.74c.48,1.34,1.07,2.49,1.79,3.42.62-.66,1.08-1.34,1.39-2.05h-2.18v-1.39h3.95v1.27c-.49,1.15-1.2,2.24-2.14,3.28,0,.07.27.31.82.71.55.42,1.16.79,1.83,1.13l-.91,1.48c-.79-.48-1.49-1-2.1-1.58v.83h-5.61v-.87c-.95.74-1.71,1.29-2.29,1.63l-1.23-1.2c.96-.43,1.73-.89,2.3-1.37-.44-.35-.87-.64-1.3-.89l.88-.8c.51.3.95.61,1.32.92.16-.14.39-.4.7-.78-.26-.16-.48-.31-.68-.43-.21-.13-.45-.26-.73-.4l.71-.89c.68.35,1.12.61,1.32.8.3-.52.53-1.01.68-1.46h-1.99c-.83,1.33-1.76,2.3-2.8,2.9l-.62-1.13-.84,2.29c1.02,1.46,1.54,2.76,1.54,3.91,0,1.41-.79,2.12-2.38,2.12-.18,0-.34,0-.48-.02l-.4-1.63c.28.08.57.12.86.12.62,0,.93-.27.93-.8,0-1.02-.53-2.24-1.59-3.65.66-1.52,1.2-3.02,1.61-4.5h-1.96v14.37h-1.59v-15.72h5.1v1.03c-.45,1.47-.7,2.21-.73,2.22ZM122.08,125.29c-.99,1.36-2.2,2.5-3.64,3.44l-1.32-1.23c1.6-.96,2.79-1.95,3.57-2.95l1.39.75ZM125.07,127.43c0,.81-.13,1.35-.4,1.62-.26.28-.82.42-1.7.42h-1.21l-.4-1.62,1.43.07c.41,0,.62-.19.62-.56v-3.14h-4.33v-1.44h10.52v1.44h-4.5l-.02,3.21ZM124.26,116.66c-.49,1.44-1.22,2.55-2.19,3.35h4.41c-.87-.72-1.6-1.84-2.21-3.35ZM129.02,128.71c-.9-1.07-1.95-2.17-3.13-3.3l1.24-.78c1.06.85,2.09,1.83,3.09,2.95l-1.21,1.13Z"/></svg>