<svg xmlns="http://www.w3.org/2000/svg" viewBox="0 0 301.7 32.2"><path d="M433.9,1231.3a12.4,12.4,0,0,1-8.7,3.1c-4.4,0-7.9-1.4-10.4-4.2s-3.7-6.7-3.7-11.6,1.4-9.5,4.2-12.4a12.9,12.9,0,0,1,9.5-3.7c5.2,0,8.9,1.7,11.3,5a11.1,11.1,0,0,1,2.1,5.7h-6.4a8.5,8.5,0,0,0-1.6-3.3,6.3,6.3,0,0,0-5.1-2,6.6,6.6,0,0,0-5.5,2.8c-1.3,1.9-2,4.5-2,8s.7,6,2.1,7.7a6.6,6.6,0,0,0,5.4,2.5,6.1,6.1,0,0,0,5.1-2.2,8.2,8.2,0,0,0,1.6-3.5h6.4A14,14,0,0,1,433.9,1231.3Z" transform="translate(-411.1 -1202.3)" fill="#231815"/><path d="M463,1227.3H451.8l-2.1,6.3H443l10.9-30.5h7.2l10.8,30.5H465Zm-1.8-5.3-3.8-12-3.9,12Z" transform="translate(-411.1 -1202.3)" fill="#231815"/><path d="M502.6,1233.6h-6.4l-12.5-21.7v21.7h-5.9v-30.5h6.7l12.1,21.3v-21.3h6Z" transform="translate(-411.1 -1202.3)" fill="#231815"/><path d="M510.7,1203.1H517v25h15.2v5.5H510.7Z" transform="translate(-411.1 -1202.3)" fill="#231815"/><path d="M559.9,1220.2H545.1v7.9H562v5.5H538.9v-30.5h22.4v5.4H545.1v6.4h14.8Z" transform="translate(-411.1 -1202.3)" fill="#231815"/><path d="M587,1227.3H575.7l-2.1,6.3H567l10.8-30.5h7.3l10.8,30.5h-7Zm-1.8-5.3-3.8-12-3.9,12Z" transform="translate(-411.1 -1202.3)" fill="#231815"/><path d="M615,1233.6H601.9v-30.5H615a15.3,15.3,0,0,1,4.7.6,9.7,9.7,0,0,1,5.2,3.9,13.5,13.5,0,0,1,2.2,4.9,23.5,23.5,0,0,1,.6,5.1,19.7,19.7,0,0,1-2.5,10.3A11,11,0,0,1,615,1233.6Zm4.8-22.8c-1-1.6-3-2.4-5.9-2.4h-5.8v19.9h5.8q4.5,0,6.3-4.5a14.4,14.4,0,0,0,1-5.8A15.6,15.6,0,0,0,619.8,1210.8Z" transform="translate(-411.1 -1202.3)" fill="#231815"/><path d="M667.3,1232.8a11.4,11.4,0,0,1-6.3,1.6,12.9,12.9,0,0,1-9.9-4.2c-2.7-2.8-4-6.7-4-11.6s1.3-8.9,4-11.9a14.4,14.4,0,0,1,10.8-4.4c3.9,0,7,.9,9.4,2.9a11,11,0,0,1,4,7.4h-6.2a6,6,0,0,0-3.6-4.4,9.5,9.5,0,0,0-3.5-.7,7.6,7.6,0,0,0-6,2.8q-2.4,2.9-2.4,8.4c0,3.7.8,6.4,2.5,8a8.9,8.9,0,0,0,5.9,2.3,7.9,7.9,0,0,0,5.3-1.8,8.6,8.6,0,0,0,2.5-4.9h-7.1v-5.1h12.7v16.4h-4.2l-.6-3.8A20.2,20.2,0,0,1,667.3,1232.8Z" transform="translate(-411.1 -1202.3)" fill="#e59c3b"/><ellipse cx="697.1" cy="1219.1" rx="16.8" ry="14.3" transform="translate(-1041.3 -441.6) rotate(-41.2)" fill="#e59e3c"/><ellipse cx="696" cy="1217.8" rx="16.8" ry="14.3" transform="translate(-1040.8 -442.7) rotate(-41.2)" fill="#eabb38"/><path d="M694.4,1230h-.6a9.9,9.9,0,0,1-7.5-3.8,10.6,10.6,0,0,1-1.8-8.7,14.4,14.4,0,0,1,14.2-11,9.9,9.9,0,0,1,7.5,3.8,10.3,10.3,0,0,1,1.8,8.6h0A14.5,14.5,0,0,1,694.4,1230Zm3.7-22.6a13.4,13.4,0,0,0-12.7,10.3,9.3,9.3,0,0,0,1.6,7.9,9.1,9.1,0,0,0,6.8,3.5,13.4,13.4,0,0,0,13.3-10.4h0a9,9,0,0,0-8.5-11.3Z" transform="translate(-411.1 -1202.3)" fill="#e59c3b"/><path d="M694.2,1229.4h-.7a9.6,9.6,0,0,1-7.5-3.8,10.7,10.7,0,0,1-1.8-8.6c1.4-6.4,7.8-11.4,14.2-11a9.6,9.6,0,0,1,7.5,3.8,9.9,9.9,0,0,1,1.8,8.6h0A14.3,14.3,0,0,1,694.2,1229.4Zm3.6-22.5a13.5,13.5,0,0,0-12.7,10.3,9.9,9.9,0,0,0,1.6,7.9,9.1,9.1,0,0,0,6.9,3.4c6,.4,11.9-4.3,13.2-10.3h0a9.5,9.5,0,0,0-1.6-7.9,8.7,8.7,0,0,0-6.8-3.4Z" transform="translate(-411.1 -1202.3)" fill="#f1de99"/><path d="M693.1,1223a.8.8,0,0,1-.8.6c-.4,0-.6-.2-.5-.6l2.4-8.9a1.7,1.7,0,0,1,1.8-1.5h3.1c2.2,0,3.2,1.2,2.6,3.1a4.3,4.3,0,0,1-4.4,3.4h-3.1Zm4.5-5.1a2.6,2.6,0,0,0,2.7-2.1c.4-1.3-.2-2-1.6-2H696a.6.6,0,0,0-.6.5l-.9,3.6Z" transform="translate(-411.1 -1202.3)" fill="#e79939"/><path d="M692.8,1222.7a.8.8,0,0,1-.8.6c-.4,0-.6-.2-.5-.6l2.4-8.9c.3-1,.8-1.5,1.8-1.5h3.1c2.3,0,3.2,1.2,2.7,3.1a4.4,4.4,0,0,1-4.4,3.4h-3.2Zm4.5-5.1a2.7,2.7,0,0,0,2.8-2.1c.3-1.3-.3-2-1.7-2h-2.6c-.4,0-.5.2-.6.5l-1,3.6Z" transform="translate(-411.1 -1202.3)" fill="#f0df99"/></svg>