<?xml version="1.0" encoding="utf-8"?>
<!-- Generator: Adobe Illustrator 27.6.1, SVG Export Plug-In . SVG Version: 6.00 Build 0)  -->
<svg version="1.1" id="圖層_1" xmlns="http://www.w3.org/2000/svg" xmlns:xlink="http://www.w3.org/1999/xlink" x="0px" y="0px"
	 viewBox="0 0 99 37.5" style="enable-background:new 0 0 99 37.5;" xml:space="preserve">
<style type="text/css">
	.st0{fill:#231815;}
	.st1{fill:#E50012;}
	.st2{fill:#E50012;stroke:#E50012;stroke-linecap:round;stroke-linejoin:round;stroke-miterlimit:10;}
</style>
<g>
	<g>
		<path d="M31.06,11.29h5.33v1.11H24.12v-1.11h2.09V9.12h1.31v2.17h2.21V8.54h1.33v0.83h4.54v1.08h-4.54V11.29z M35.23,18.76v0.17
			c0,0.44-0.08,0.77-0.25,0.99c-0.17,0.21-0.59,0.32-1.25,0.32h-2.01l-0.31-1.21l2.09,0.06c0.28,0,0.43-0.13,0.43-0.4v-0.74h-7.3
			v2.37h-1.31v-7.24h9.91V18.76z M33.93,14.16h-7.3V15h7.3V14.16z M26.63,16.94h7.3v-0.92h-7.3V16.94z"/>
		<path d="M40.1,15.94c0,0.09,0,0.26-0.01,0.49c0,0.23-0.01,0.55-0.01,0.95v0.33c0,0.77-0.06,1.37-0.17,1.82l-0.72-0.13
			c0.12-0.6,0.19-1.13,0.19-1.61c0-0.73,0.02-1.34,0.05-1.85H40.1z M44.03,11.72h-1.16v0.93h1.16v0.81h-1.16v1.06h1.33l-0.12,3.9
			c0,0.51-0.06,0.89-0.18,1.14c-0.12,0.25-0.29,0.42-0.51,0.51c-0.22,0.09-0.74,0.15-1.58,0.17l-0.29-1.01c0.1,0,0.29,0,0.59,0.01
			c0.3,0.01,0.52,0.01,0.66,0.01c0.27,0,0.4-0.23,0.4-0.69c0-1.3,0.01-2.33,0.04-3.1h-3.64V8.94h4.52v1.01h-1.23v0.95h1.16V11.72z
			 M40.42,19.2c0.04-0.43,0.07-0.92,0.07-1.48c0-0.67-0.01-1.26-0.03-1.75l0.55-0.03l0.08,1.66l0.04,1.55L40.42,19.2z M40.62,10.9
			h1.28V9.95h-1.28V10.9z M41.9,12.65v-0.93h-1.28v0.93H41.9z M41.9,14.52v-1.06h-1.28v1.06H41.9z M41.55,18.42
			c-0.01-0.18-0.02-0.41-0.03-0.69c-0.01-0.28-0.07-0.81-0.17-1.6c0-0.05-0.01-0.11-0.03-0.19l0.52-0.06l0.16,1.21l0.13,1.22
			L41.55,18.42z M42.54,17.93c-0.02-0.26-0.07-0.61-0.15-1.06l-0.19-1.01l0.44-0.09c0.03,0.12,0.05,0.21,0.07,0.28
			c0.07,0.27,0.12,0.49,0.15,0.65l0.19,1.08L42.54,17.93z M48.38,11.74v0.64h2.57v0.9h-2.57v0.72h2.94v0.96h-1.24l-0.21,0.49
			l-0.25,0.46h1.57v0.95h-2.81v0.82h2.65v0.92h-2.65v1.73h-1.09v-1.73h-2.6v-0.92h2.6v-0.82h-2.75V15.9h1.57l-0.23-0.51
			c-0.09-0.2-0.17-0.34-0.25-0.44h-1.12v-0.96h2.77v-0.72H44.7v-0.9h2.59v-0.64h-2.8v-2.8h6.57v2.8H48.38z M45.51,9.84v1.04h0.89
			V9.84H45.51z M48.47,15.9c0.2-0.22,0.36-0.49,0.49-0.82c0.01-0.03,0.03-0.08,0.05-0.13h-2.28l0.24,0.44
			c0.04,0.1,0.1,0.24,0.17,0.41c0.01,0.02,0.02,0.06,0.04,0.1H48.47z M47.32,9.84v1.04h0.88V9.84H47.32z M50.03,10.86V9.82h-0.91
			v1.04H50.03z"/>
		<path d="M56.04,17.59c-0.24,1.08-0.55,1.97-0.93,2.67l-1.13-0.41c0.38-0.66,0.73-1.49,1.05-2.51L56.04,17.59z M58.04,8.88v8.28
			h-3.59V8.88H58.04z M56.92,9.85h-1.35v1.41h1.35V9.85z M55.57,13.67h1.35v-1.52h-1.35V13.67z M55.57,16.19h1.35v-1.64h-1.35V16.19
			z M58.34,19.48l-0.96,0.4c-0.05-0.15-0.09-0.27-0.12-0.36c-0.1-0.28-0.19-0.52-0.28-0.73l-0.48-1.13l0.89-0.29
			c0.04,0.06,0.07,0.11,0.09,0.15c0.25,0.42,0.48,0.92,0.69,1.5C58.22,19.13,58.27,19.28,58.34,19.48z M61.78,14.01v-0.63H58.3
			v-0.93h1.84v-0.73h-1.43v-0.87h1.43v-0.66h-1.69V9.27h1.69V8.54h1.08v0.73h2.13V8.54h1.08v0.73h1.66v0.91h-1.66v0.66h1.43v0.87
			h-1.43v0.73h1.8v0.93h-3.38v0.63h2.84v3.3h0.56v0.93h-0.56v0.45v0.17c0,0.44-0.08,0.76-0.25,0.98c-0.17,0.22-0.5,0.33-1.01,0.33
			h-1.35l-0.29-1l1.36,0.06c0.3,0,0.45-0.14,0.45-0.41v-0.58h-4.52v2.07h-1.08v-2.07h-0.83v-0.93h0.83v-3.3H61.78z M61.78,15.69
			v-0.74h-1.69v0.74H61.78z M61.78,17.31V16.5h-1.69v0.81H61.78z M63.35,10.85v-0.66h-2.13v0.66H63.35z M61.22,11.72v0.73h2.13
			v-0.73H61.22z M64.61,15.69v-0.74h-1.76v0.74H64.61z M64.61,17.31V16.5h-1.76v0.81H64.61z"/>
	</g>
	<g>
		<path class="st0" d="M14.41,25.16l-1.63,1.4c-1.11-1.06-2.36-1.58-3.75-1.58c-1.17,0-2.16,0.36-2.96,1.08
			c-0.8,0.72-1.2,1.61-1.2,2.66c0,0.74,0.18,1.39,0.53,1.96c0.36,0.57,0.86,1.02,1.51,1.34c0.65,0.33,1.37,0.49,2.16,0.49
			c0.68,0,1.3-0.11,1.86-0.34c0.56-0.23,1.18-0.64,1.85-1.24l1.58,1.49c-0.91,0.8-1.76,1.35-2.57,1.65
			c-0.81,0.31-1.72,0.46-2.76,0.46c-1.91,0-3.46-0.54-4.68-1.63c-1.21-1.09-1.82-2.48-1.82-4.18c0-1.1,0.28-2.08,0.83-2.93
			c0.55-0.86,1.34-1.54,2.37-2.06c1.03-0.52,2.14-0.78,3.33-0.78c1.01,0,1.98,0.19,2.92,0.58C12.93,23.9,13.74,24.45,14.41,25.16z"
			/>
		<path class="st0" d="M21.19,26.09h2.27v8.16h-2.27v-0.86c-0.44,0.38-0.89,0.65-1.34,0.82c-0.45,0.17-0.93,0.25-1.45,0.25
			c-1.17,0-2.18-0.41-3.04-1.23c-0.85-0.82-1.28-1.83-1.28-3.05c0-1.26,0.41-2.29,1.24-3.1c0.83-0.8,1.83-1.21,3.01-1.21
			c0.54,0,1.05,0.09,1.53,0.28c0.48,0.18,0.92,0.46,1.32,0.83V26.09z M18.8,27.77c-0.7,0-1.29,0.22-1.75,0.67
			c-0.47,0.45-0.7,1.02-0.7,1.72c0,0.7,0.24,1.28,0.71,1.74c0.47,0.46,1.06,0.68,1.75,0.68c0.71,0,1.31-0.22,1.78-0.67
			c0.47-0.45,0.71-1.03,0.71-1.76c0-0.71-0.24-1.28-0.71-1.72C20.11,27.99,19.52,27.77,18.8,27.77z"/>
		<path class="st0" d="M24.06,26.09h2.27v0.84c0.52-0.39,0.98-0.66,1.4-0.82c0.42-0.15,0.85-0.23,1.29-0.23
			c0.9,0,1.66,0.28,2.29,0.85c0.53,0.48,0.79,1.19,0.79,2.13v5.39h-2.25v-3.57c0-0.97-0.05-1.62-0.15-1.94
			c-0.1-0.32-0.27-0.56-0.51-0.73c-0.24-0.17-0.54-0.25-0.89-0.25c-0.46,0-0.85,0.14-1.18,0.42c-0.33,0.28-0.56,0.66-0.69,1.15
			c-0.07,0.25-0.1,0.81-0.1,1.66v3.27h-2.27V26.09z"/>
		<path class="st1" d="M32.84,23.22h2.33v9.03h3.4v2h-5.73V23.22z"/>
		<path class="st1" d="M47.48,30.76h-7.31c0.11,0.58,0.39,1.04,0.85,1.38c0.46,0.34,1.04,0.51,1.75,0.51c0.85,0,1.58-0.27,2.19-0.8
			l1.92,0.81c-0.48,0.61-1.05,1.06-1.72,1.35c-0.67,0.29-1.46,0.44-2.37,0.44c-1.42,0-2.58-0.4-3.47-1.21
			c-0.89-0.81-1.34-1.82-1.34-3.03c0-1.24,0.45-2.28,1.34-3.1c0.89-0.82,2.01-1.23,3.35-1.23c1.43,0,2.59,0.41,3.48,1.23
			c0.89,0.82,1.34,1.91,1.34,3.26L47.48,30.76z M45.2,29.15c-0.15-0.45-0.45-0.82-0.89-1.11c-0.44-0.29-0.96-0.43-1.54-0.43
			c-0.63,0-1.19,0.16-1.67,0.48c-0.3,0.2-0.58,0.55-0.83,1.06H45.2z"/>
		<path class="st1" d="M54.3,26.09h2.27v8.16H54.3v-0.86c-0.44,0.38-0.89,0.65-1.34,0.82c-0.45,0.17-0.93,0.25-1.45,0.25
			c-1.17,0-2.18-0.41-3.04-1.23c-0.85-0.82-1.28-1.83-1.28-3.05c0-1.26,0.41-2.29,1.24-3.1c0.83-0.8,1.83-1.21,3.01-1.21
			c0.54,0,1.05,0.09,1.53,0.28c0.48,0.18,0.92,0.46,1.32,0.83V26.09z M51.91,27.77c-0.7,0-1.29,0.22-1.75,0.67
			c-0.47,0.45-0.7,1.02-0.7,1.72c0,0.7,0.24,1.28,0.71,1.74c0.47,0.46,1.06,0.68,1.75,0.68c0.71,0,1.31-0.22,1.78-0.67
			c0.47-0.45,0.71-1.03,0.71-1.76c0-0.71-0.24-1.28-0.71-1.72C53.22,27.99,52.63,27.77,51.91,27.77z"/>
		<path class="st1" d="M63.86,22.94h2.27v11.31h-2.27v-0.86c-0.44,0.38-0.89,0.65-1.34,0.82c-0.45,0.17-0.93,0.25-1.45,0.25
			c-1.17,0-2.18-0.41-3.04-1.23c-0.85-0.82-1.28-1.83-1.28-3.05c0-1.26,0.41-2.29,1.24-3.1c0.83-0.8,1.83-1.21,3.01-1.21
			c0.54,0,1.05,0.09,1.53,0.28c0.48,0.18,0.92,0.46,1.32,0.83V22.94z M61.47,27.77c-0.7,0-1.29,0.22-1.75,0.67
			c-0.47,0.45-0.7,1.02-0.7,1.72c0,0.7,0.24,1.28,0.71,1.74c0.47,0.46,1.06,0.68,1.75,0.68c0.71,0,1.31-0.22,1.78-0.67
			c0.47-0.45,0.71-1.03,0.71-1.76c0-0.71-0.24-1.28-0.71-1.72C62.78,27.99,62.19,27.77,61.47,27.77z"/>
	</g>
	<polygon class="st2" points="96.46,2.97 95.57,4.16 95.57,32.41 96.46,31.23 	"/>
	<g>
		<path class="st1" d="M86.05,21.36c-1.97,0-3.57,1.6-3.57,3.57c0,1.97,1.6,3.57,3.57,3.57c1.97,0,3.57-1.6,3.57-3.57
			C89.61,22.95,88.02,21.36,86.05,21.36z"/>
		<path class="st1" d="M93.38,3.88h-23.5c-0.52,0-0.93,0.42-0.93,0.93v22.2c0.62-1.8,2.16-3.23,4.28-3.72
			c2.43-0.56,4.66,0.2,5.96,2.05l0.21,0.3l-2.61,0.61l-0.1-0.11c-0.73-0.82-1.76-1.1-2.98-0.82c-0.99,0.23-1.76,0.75-2.24,1.51
			c-0.48,0.78-0.61,1.73-0.37,2.77c0.24,1.04,0.78,1.85,1.56,2.33c0.76,0.48,1.69,0.61,2.68,0.38c1.67-0.39,2.59-1.51,2.57-3.11
			l-3.97,0.92L73.5,28.3l6.38-1.48l0.36,1.57c0.27,2.81-1.61,5.3-4.45,5.96c-0.24,0.06-0.48,0.1-0.72,0.12h18.3
			c0.52,0,0.93-0.42,0.93-0.93V4.82C94.31,4.3,93.9,3.88,93.38,3.88z M75.01,6.64c0-0.23,0.19-0.42,0.42-0.42s0.42,0.19,0.42,0.42
			c0,3.17,2.58,5.75,5.75,5.75s5.75-2.58,5.75-5.75c0-0.23,0.19-0.42,0.42-0.42c0.23,0,0.42,0.19,0.42,0.42
			c0,3.63-2.95,6.58-6.58,6.58S75.01,10.27,75.01,6.64z M87.31,30.37c-0.48,0.11-0.96,0.17-1.42,0.17c-2.6,0-4.82-1.69-5.43-4.33
			c-0.35-1.52-0.09-3.05,0.74-4.31c0.81-1.22,2.08-2.09,3.58-2.44c1.51-0.35,3.04-0.14,4.3,0.61c1.29,0.76,2.2,2.02,2.55,3.54
			C92.36,26.72,90.5,29.63,87.31,30.37z"/>
		<path class="st1" d="M68.95,30.61v2.93c0,0.52,0.42,0.93,0.93,0.93h3.86C71.51,34.26,69.65,32.82,68.95,30.61z"/>
	</g>
</g>
</svg>
