<?xml version="1.0" encoding="utf-8"?>
<!-- Generator: Adobe Illustrator 25.2.0, SVG Export Plug-In . SVG Version: 6.00 Build 0)  -->
<svg version="1.1" id="圖層_1" xmlns="http://www.w3.org/2000/svg" xmlns:xlink="http://www.w3.org/1999/xlink" x="0px" y="0px"
	 viewBox="0 0 326.9 75" style="enable-background:new 0 0 326.9 75;" xml:space="preserve">
<style type="text/css">
	.st0{fill:#E50020;}
	.st1{fill:#E50012;}
	.st2{fill:#FFFFFF;}
	.st3{fill:#221815;}
</style>
<g>
	<g>
		<g>
			<g>
				<rect x="10.4" y="13.9" class="st0" width="78.1" height="36.4"/>
				<g>
					<path class="st1" d="M14.7,54.6c-0.2-1-1.1-1.1-1.6-1.1c-1,0-1.9,0.7-1.9,2.1c0,1.3,0.5,2.3,1.9,2.3c0.5,0,1.4-0.2,1.7-1.5h0.7
						c-0.3,2-2.1,2.1-2.5,2.1c-1.3,0-2.6-0.8-2.6-2.9c0-1.7,1-2.8,2.7-2.8c1.5,0,2.2,0.9,2.3,1.8C15.4,54.6,14.7,54.6,14.7,54.6z"/>
					<path class="st1" d="M20.5,52.9h0.8v5.4h-0.8v-2.5h-3v2.5h-0.8v-5.4h0.8v2.3h3V52.9z"/>
					<path class="st1" d="M24.1,56.1l0.9-2.3l0,0l0.8,2.3H24.1z M26.1,56.8l0.6,1.6h0.8L25.4,53h-0.9l-2.1,5.4h0.8l0.6-1.6H26.1z"/>
					<path class="st1" d="M32.6,52.9h0.7v5.4h-0.9l-2.9-4.4l0,0v4.4h-0.8v-5.4h0.9l2.8,4.4l0,0v-4.4H32.6z"/>
					<path class="st1" d="M37.4,55.4h2.5v2.9h-0.5l-0.2-0.7c-0.4,0.5-1.1,0.9-1.9,0.9c-1,0-1.5-0.3-1.8-0.6
						c-0.9-0.8-0.9-1.7-0.9-2.3c0-1.3,0.8-2.8,2.7-2.8c1.1,0,2.3,0.6,2.4,1.8H39c-0.2-0.9-1.1-1.1-1.7-1.1c-1,0-1.9,0.7-1.9,2.2
						c0,1.1,0.4,2.2,1.9,2.2c0.3,0,0.8,0,1.2-0.3c0.5-0.4,0.6-0.9,0.6-1.5h-1.8v-0.7C37.3,55.4,37.4,55.4,37.4,55.4z"/>
					<path class="st1" d="M47.5,52.9h0.8v5.4h-0.8v-2.5h-3v2.5h-0.8v-5.4h0.8v2.3h3V52.9z"/>
					<path class="st1" d="M51.7,58.3h-0.8l-1.5-5.4h0.8l1.1,4.4l0,0l1.3-4.4h0.9l1.3,4.4l0,0l1.1-4.4h0.9l-1.5,5.4h-0.8l-1.3-4.5
						l0,0L51.7,58.3z"/>
					<path class="st1" d="M58.7,56.1l0.9-2.3l0,0l0.8,2.3H58.7z M60.7,56.8l0.6,1.6h0.8L60,52.9h-0.9L57,58.3h0.8l0.6-1.6L60.7,56.8
						L60.7,56.8z"/>
					<path class="st1" d="M66.3,53.6h1.4c0.9,0,1.2,0.3,1.2,0.8c0,0.7-0.5,0.9-1.2,0.9h-1.4V53.6z M65.6,58.3H68c1.3,0,2-0.7,2-1.6
						c0-0.9-0.7-1.2-1-1.3c0.6-0.3,0.8-0.8,0.8-1.1c0-0.7-0.6-1.4-1.6-1.4h-2.5v5.4C65.7,58.3,65.6,58.3,65.6,58.3z M66.3,55.8h1.5
						c0.6,0,1.3,0.1,1.3,0.9c0,0.6-0.4,1-1.2,1h-1.7L66.3,55.8L66.3,55.8z"/>
					<path class="st1" d="M72.9,56.1l0.9-2.3l0,0l0.9,2.3H72.9z M74.9,56.8l0.6,1.6h0.9L74.3,53h-0.9l-2.1,5.4H72l0.6-1.6H74.9z"/>
					<path class="st1" d="M81.4,52.9h0.7v5.4h-0.9l-2.9-4.4l0,0v4.4h-0.7v-5.4h0.9l2.9,4.4l0,0V52.9z"/>
					<path class="st1" d="M84.6,58.3h-0.8v-5.4h0.8v2.6l2.8-2.6h1.1L86,55.1l2.4,3.2h-1l-2-2.7l-0.9,0.8L84.6,58.3L84.6,58.3z"/>
				</g>
				<g>
					<path class="st2" d="M36.8,36L36.8,36c-2.6,5.2-4.5,6.2-8.2,6.7c-1.8,0.3-4.4-0.7-6.4-2.5c-2.4-2.1-3.8-5-3.8-8.1
						c-0.1-7.1,3.1-11.2,8.9-11.5c5.5-0.3,8.3,6,8.3,6.1l0.1,0.1h1.4L35,19.5l-0.2,0.1c0,0-0.8,0.1-2-0.1l-1-0.2
						c-0.9-0.2-2-0.5-4.7-0.6c-13.5,0.7-13.6,12.2-13.6,13.5c0,2.1,0.8,12.8,11.9,13s13-8.8,13-8.9l0.1-0.3C38.5,36,36.8,36,36.8,36
						z M25.5,44.7C14.8,44.5,14.1,34.2,14,32.2c0-1.2,0.1-12.4,13.2-13c2.6,0,3.6,0.3,4.5,0.6l1,0.3c0.9,0.1,1.7,0.1,2,0.1
						c0.1,0.4,1.7,5.7,2,6.2c-0.2,0-0.4,0-0.5,0c-0.5-1-3.3-6.5-8.8-6.2c-6,0.3-9.4,4.7-9.3,12c0,3.3,1.4,6.3,3.9,8.5
						c2.1,1.8,4.9,2.9,6.8,2.6c3.8-0.5,5.8-1.6,8.4-6.8c0.2,0,0.5,0,0.8,0C37.5,38,35.2,44.9,25.5,44.7z"/>
					<path class="st2" d="M21.4,21.2c0,0-5.8,4.8-4.7,12c1,7.2,6.6,10.1,8.3,10.6c0,0-9.2-0.2-10.3-10.6
						C13.7,24.9,21.4,21.2,21.4,21.2z"/>
					<path class="st2" d="M60.7,43.1c-0.8,0-1.4-0.2-1.9-0.7c-0.9-0.9-0.8-2.6-0.8-2.6V24.1c0-1.3,0.3-2.2,0.9-2.8
						c0.6-0.6,1.4-0.5,1.4-0.5h0.3v-0.3V19h-0.2H49.8v1.8H50c0.8,0,1.5,0.3,2,0.7c0.8,0.8,0.8,2,0.8,2.4c0,0.1,0,0.1,0,0.1
						s0,5.9,0,6.4c-0.4,0-7.3,0-7.8,0c0-0.5,0-6.4,0-6.4c0-3.3,2.9-3.4,3.1-3.4h0.2V19H36.6v1.6h0.3c2.8,0,3,3.2,3,3.3v15.8
						c0,2.9-2.9,3.3-3,3.3h-0.2v1.6h11.6v-1.7H48c-3,0-3-3.1-3-3.3c0,0,0-6.9,0-7.3c0.5,0,7.3,0,7.7,0c0,0.4,0,7.3,0,7.3
						c0,3-2.7,3.3-2.9,3.3h-0.2v1.7h11.2v-1.7h-0.1V43.1z M60.4,44.3c-0.5,0-9.7,0-10.2,0c0-0.2,0-0.5,0-0.7
						c0.7-0.1,3.1-0.8,3.1-3.8V32h-8.7v7.8c0,0,0.1,3.5,3.3,3.7c0,0.2,0,0.5,0,0.8c-0.5,0-10.1,0-10.6,0c0-0.2,0-0.5,0-0.7
						c0.8-0.1,3.2-0.9,3.2-3.8V24c0-0.1-0.3-3.6-3.3-3.7c0-0.2,0-0.4,0-0.7c0.5,0,10.2,0,10.7,0c0,0.2,0,0.5,0,0.7
						c-0.8,0.1-3.3,0.6-3.3,3.8V31h8.8v-6.9c0,0,0-0.1,0-0.2c0-0.4-0.1-1.8-1-2.7c-0.5-0.5-1.2-0.8-2-0.9c0-0.2,0-0.5,0-0.8
						c0.5,0,9.4,0,9.8,0c0,0.2,0,0.5,0,0.8c-0.3,0-1,0.1-1.6,0.6c-0.7,0.7-1.1,1.7-1.1,3.2v15.7c0,0,0,0.1,0,0.3
						c0,0.5,0.1,1.8,0.9,2.7c0.5,0.6,1.2,0.8,2,0.9C60.4,43.8,60.4,44.1,60.4,44.3z"/>
					<path class="st2" d="M39.5,20.4H45c0,0-1.7,1.1-1.7,2.4s0,17.2,0,18.1c0,0.9,1.2,2.2,1.6,2.2H40c0,0,1.3-1.1,1.3-2.2
						c0-1.1,0-18.1,0-18.1S40.9,20.4,39.5,20.4z"/>
					<path class="st2" d="M52.5,20.4H58c0,0-1.7,1.1-1.7,2.4s0,17.2,0,18.1c0,0.9,1.2,2.2,1.6,2.2H53c0,0,1.3-1.1,1.3-2.2
						c0-1.1,0-18.1,0-18.1S53.9,20.4,52.5,20.4z"/>
					<path class="st2" d="M70.6,19c-1.6,0.2-3.2,0.4-4.6,0.3l-3.6-0.2l0.1,0.3v1.4h0.2c0.1,0,2.3,0.3,2.3,3.5v15.6
						c0,0.1,0.3,2.1-2.3,3.2l-0.2,0.1v1.5h0.3c0.1,0,7-0.3,10.7,0.1c1.4,0.2,6.4,0.5,9.3-2.1c1.4-1.2,2.1-3,2.1-5.1
						c0-5.1-4.2-6.6-5.9-7.1c1.4-0.6,4-2.1,4-5.5c0-4.5-5.4-6.3-8.3-6.3L70.6,19z M70.7,19.4l4-0.3c2.7,0,7.8,1.7,7.8,5.9
						c0,4.1-4.3,5.3-4.5,5.3v0.5c0.3,0,6.3,0.8,6.3,6.8c0,2-0.6,3.6-1.9,4.7c-2.2,2-6.1,2.3-8.9,2c-3.4-0.4-9.5-0.2-10.5-0.1
						c0-0.3,0-0.6,0-0.7c2.1-1,2.4-2.6,2.4-3.3c0-0.2,0-0.3,0-0.3V24.3c0-3-1.9-3.7-2.5-3.9c0-0.2,0-0.6,0-0.8
						c0.4,0,3.1,0.1,3.1,0.1C67.4,19.8,69.1,19.6,70.7,19.4z"/>
					<path class="st2" d="M70.5,20.8c-0.5,0.5-0.8,1.4-0.8,2.6v7.1l0.2,0.1c0.2,0,4.3,0.9,6.6-1c1.1-0.8,1.6-2.1,1.6-3.8
						c-0.1-3.7-1.7-5.5-4.7-5.5h-0.2C72.4,20,71.3,20,70.5,20.8z M70.1,23.4L70.1,23.4c0-1,0.2-1.8,0.7-2.2c0.6-0.6,1.5-0.6,2.2-0.6
						h0.3c1,0,4.1,0,4.3,5.1c0,1.5-0.5,2.7-1.4,3.4c-2.1,1.7-5.5,1.1-6.1,1C70.1,29.7,70.1,23.4,70.1,23.4z"/>
					<path class="st2" d="M69.9,31.5h-0.2v7.7c0,0-0.1,1.6,1,2.8c0.7,0.8,1.8,1.2,3.1,1.2c4.5,0,6.1-2.9,6.1-5.7c0-2.6-0.7-6-6.7-6
						H69.9z M73.1,31.9c5.5,0,6.3,3,6.3,5.6c0,2.5-1.5,5.2-5.6,5.2c-1.2,0-2.1-0.3-2.7-1c-0.8-0.9-0.9-2.1-0.9-2.4
						c0-0.1,0-6.9,0-7.4C70.5,31.9,73.1,31.9,73.1,31.9z"/>
					<path class="st2" d="M78.2,31.9c0,0,4.5,1.3,4.5,5.8s-4.4,5.3-5,5.3C77.8,43.1,83.6,38.2,78.2,31.9z"/>
					<path class="st2" d="M76.3,20.2c0,0,4.6,0.5,4.6,4.9s-4.1,5-4.1,5s2.1-1.8,1.7-4.9C78.2,22.2,77.7,20.9,76.3,20.2z"/>
					<path class="st2" d="M64.4,20.2c0,0,3.9,0.6,5.3,0c0,0-1.5,0.8-1.5,2.4s0,18,0,18s0.3,2,1.4,2.3c0,0-3.1-0.2-4.6,0.1
						c0,0,1.2-1.1,1.2-2.3s0-18.1,0-18.1S65.8,20.9,64.4,20.2z"/>
				</g>
			</g>
		</g>
	</g>
</g>
<g>
	<g>
		<path class="st3" d="M126.4,30.7c2.7,0.2,4.3-0.2,4.5-0.5c0.2-0.4,1.3,2.2,3.3,1.1c2-1.1,12.3-7,4.8-11.8
			c-2.5-1.8-5.4,1.3-4.4,2.8c1.1,1.5-0.8,7.3-3.1,6.8c0.2-2-2.7-2.1-3.6-2c-0.9,0.1-1.7-0.1-1.6-0.8c0.1-0.6-0.1-1.7,1.8-2.3
			c2-0.7,3.2-1.8,1.1-3.3c-2.1-1.4-2.2,1.1-3-1.3c-0.9-2.4-4.9-5.7-8.4-3c-0.9,0.6,0,2.4,0.3,3.3c0.4,1,0.8,2.7-1,2.7
			c-1.7-0.2-4.3-0.5-5,1.3c-0.7,1.9,0.2,2.9,1,3.3c0.8,0.3,1.9,0.5,1.5,1.8c-0.3,1.3-0.2,2-1.7,2.3s-10.1,1-9.9,5.1s0.8,2.3,1.5,2.8
			c0.8,0.4,2.5,0.1,2.9,0.4c0.4,0.3,1.8-1.3,2.7-1.9C111.1,36.9,119.6,31,126.4,30.7z M118.9,26.7c2.4-1.3,3,0.1,3,0.5
			c0,0.3,0.3,1.7-2,1.8C117.6,29.1,118.9,26.7,118.9,26.7z"/>
		<path class="st3" d="M128.2,47.5c1,0.3,3,0,2.3-1.8c-0.8-1.8-1.8-1.6-3.3-0.8s-3.5-0.4-2.5-0.7c1.1-0.2,1-2.4,2.1-2.7
			c1.1-0.4,1-3,2-3.5c1.1-0.5,1.4-0.7,1.7-3c0.4-2.2-3.1-3.1-5.3-2.4c-2.1,0.8-12.4,5-12.4,5c0.7,7.6,4.3,7,5,7.3
			c0.6,0.2,0.8-0.2,0.8,0.8s-6.5,1.5-7,1.7c-0.5,0.1-2.9-1.4-3.7,1.5c-0.7,2.9,1.6,3.1,2.7,3.7c1.1,0.6,5.6-2,7-2.5
			c1.2-0.4,0.9,0.7,0.9,1s-0.1,4.7-0.1,4.7s1.7,2.7,2.8,2.5c1.1-0.2,2.4-4,2.4-4s0-4.6,0-5C123.6,48.8,127.2,47.4,128.2,47.5z
			 M122,39.6c0.6-0.2,1.7-0.2,1.7,0.8c0,0.9-2.9,1.6-4.3,1.6s-2.6-3.1-2.3-4.1c0.3-0.9,5.9-2.3,5.9-2.3c0.7-0.2,2-0.2,2.2,0.5
			c0.1,0.8-2.3,1.7-3.7,1.4c-1.4-0.3-1.4,0.6-1.9,1.4C118.9,39.7,121.3,39.8,122,39.6z"/>
		<path class="st3" d="M141.1,40.9c-1.2-0.9-2.2-1-2.7-1.1s-1.8-0.6-1-1.5s1.5-1.3,2.7-1.8s2.1-1.8,1.5-2.6s-1.6-1.9-2.7-2.5
			c-1.1-0.5-2-0.9-3.1,0.9c0,0-2.4,4.9-3.3,5.4c-1,0.6-1.9,2.9,0.4,3.2c2.3,0.2,3.4,0.5,2.8,1.7c-0.5,1.1-3,7-5.7,8.8
			c-2.8,1.9-2.9,3.1-2.5,4.6s0.4,2.2,1.7,1c1.3-1,7.6-6.1,8.9-8.7c1.4-2.8,3-3.2,3.3-3.7C141.8,44.1,142.3,41.7,141.1,40.9z"/>
	</g>
	<g>
		<path class="st3" d="M179,28.7c-0.5-1.4-1.5-4.3-3.2-3.8c-0.9,0.3-1-0.5-1.6-1c-0.7-0.5-2.4,1.4-2.4,1.4s-0.7,2.8-2.9,8.4
			c-1.7,2.3-4.2,8.2-7.6,10.9c-1,0.8-1.6,1.9-1.6,2.5s-0.5,3.3,0.7,3.1s6.6-5.8,7.6-7c1-1.4,2.1-1.4,1.9,0.8
			c-0.2,2.1-1.5,4.7-0.8,5.9c0.6,1.3,1.3,3.8,2.7,3.8s2.5-2.1,2.3-4.9c-0.2-2.8,0.4-10.6-0.3-11.8c0.1-0.8,1.5-2,1.5-2
			s1.5-1.4,2.9-2.3C179.5,31.8,179.5,30.2,179,28.7z"/>
		<path class="st3" d="M199.9,44.2c-0.7-0.5-1-1.4-0.9-1.9c0.2-0.5-0.3-2.4-0.7-2.8c-0.4-0.4-0.3,7.7-8.2,6.9
			c-5.7,0.5-4.7-4.6-4.6-5.2c0.1-0.5-0.2-1.3,2.3-2.6s7.4-5.8,7.7-6.2c0.3-0.3,0.2-2.1-0.3-2.4c-0.6-0.3-0.9-2.2-0.9-2.6
			c0-0.5-0.3-2.5-2.8-1.4c-2.5,1.2-1.4,0.2-1.9,1.5c-0.6,1.3-1.3,4.5-2.6,5.1c-1.3,0.5-1.2,0.2-1.2-0.3c0-0.4,0.3-3.3,1.4-4.7
			c1.1-1.4,0.8-4.2-0.9-5.6c-1.6-1.4-4.2-2.3-4.7-1.5s-1.7,3.6-0.7,5c0.5,1,0.2,2,0.2,2c0.1,1,0.8,10,0,11.2s-1,2.1-2.6,3.1
			s-2.6,3.6-1,4.1s1.6,0.3,2.2-0.2c0.5-0.4,0.7-0.1,0.9,0.5c0.3,0.7,0.9,6.8,5.5,6.7c4.7-0.1,13.2-0.3,14-2.6
			c0.7-2.3,0.7-2.3,0.7-2.3S200.6,44.7,199.9,44.2z"/>
	</g>
	<path class="st3" d="M258.9,42.5c-3.8-3.1-8.4-1.3-8.2-2.4c0.1-1,3.8-1.7,4.5-2.5s3.1-3.1,0.7-4.6c-2.3-1.6-3.9,0.1-2.8-2.1
		c1.1-2.2,4.2-6.9,3-8.5c-1.1-1.6-3.3-4.8-5.3-4.2c-2,0.7-2.5,1.7-3.3,2.3c-0.9,0.6-4,0.2-4.5,1.9c-0.4,1.6-1.5,4.7,2.5,3.6
		s3.5-1,3.5-0.1c0,0.8-1,1.3-2.7,1.8s-3.6,0.9-5.1-0.1c-1.5-1.1-2.5-1.3-2.7-2.9s-1.6-6.1-5-5.8c-1.3,0.1-3,0.8-3.4,3.8
		c-0.3,3-3.3,10.2-4.5,11s-3.2,4.8-4.2,5.1c-1,0.4-1.6,1.7-1.8,2.9c-0.2,1.1-1.1,4,1.1,2.8c2.2-1.2,4.2-4,5-4.3
		c0.7-0.3,1.3,0.9,1.4,1.3c0.1,0.4,1.1,1.2,3.3,0.8c2.3-0.4,1.6,1.4,1.6,1.7c0,0.4,0.2,2.1-2.1,1.3s-3-1.7-3.6-0.1
		c-0.5,1.6-0.7,1.9,1,2.5c1.7,0.5,2.8,0.4,3.1-0.3c0.3-0.8,0.9-1.7,1.2-1.3s0.6,1.5-0.3,2c-0.8,0.5-4,2.4-4.6,2
		c-0.6-0.3-2.7-0.2-2.8,0.5c-0.1,0.8,1.5,1.9,1.6,2.2s0.5,2.1,3.5,0.8c2.9-1.3,8.7-4,8.9-4.3c0.2-0.2,2.5-3,1.3-3.6
		c-1.2-0.7-1.3-0.9-0.5-1.5c0.7-0.6,2.2-2.3,2.4-0.2c0.2,2,0.1,3-1.1,5.3c-1.3,2.4-1.5,6,0.8,6.5c2.2,0.5,3.6-0.7,5-4.1
		c1.4-3.5,1.7-2.8,1.8-5.4c0.1-2.6,0.1-2.6,0.1-2.6s-3.2,2.9-3.3,1c-0.1-1.8,0.4-2.3,2.3-2.1c1.7,0.2,6.5,3.3,7,4.2
		c0.4,0.9,3.6,5.5,4.7,5.4C259.3,51.9,262.7,45.6,258.9,42.5z M231.7,37.1c-0.6,1.2-5,3-5.3,2.3c-0.3-0.8,1.4-2.7,2.1-3.2
		c0.6-0.4,0.9-0.9,1.8-0.9C231.2,35.4,232.2,35.9,231.7,37.1z M233.4,28.1c0.3-0.6,0.9-0.9,2.2,0c1.3,0.8,1,2.1,0.5,1.8
		c-0.4-0.2-2,0.1-3.4,1C231.4,31.8,233.1,28.6,233.4,28.1z M236.5,45.4c-0.9,0.6-1-1.3-1-1.3C236.2,43.6,237.4,44.7,236.5,45.4z
		 M241.6,41.3c-0.3,0.4-1.6,0-2-0.8c-0.5-0.8-0.6-0.7-1.3-0.4c-0.8,0.3-1.5,1.8-1.7,2.3s-0.9,0.9-0.9-0.6c0-1.6,1.5-2.3,2.7-2.9
		c1.2-0.5,1.2-1.6,1.1-3.4c-0.1-1.6-1.9-0.1-2.7,0.1c-0.7,0.2-0.9,0.2-1-0.4c-0.1-0.6-0.1-1.1,1.3-1.4c1.4-0.3,1.1-2,0.9-3.1
		c-0.1-1.1,0.9-0.6,1.3-0.4c0.6,0.2,0.9,0.2,1.3,1C240.8,32,241.9,41,241.6,41.3z M245.3,31.4c0.5-0.3,2.2-1.1,2.4,0.4
		c0.2,1.7-1.4,1.7-2.5,1.4C244.1,33,244.7,31.7,245.3,31.4z M247.3,38.5c-0.8,0.2-2.4-0.1-2.3-0.7c0.1-0.5,0.1-0.7,0.6-0.8
		c1.1-0.3,1.7-0.2,2-0.5c0.3-0.4,1.2,0.1,1.1,0.7C248.6,37.8,248.2,38.3,247.3,38.5z"/>
	<g>
		<path class="st3" d="M318.4,31.6c-0.1-0.6,0-3.2-1.1-3.8c-1.1-0.5-2.8-2-3.7-1.9c-0.9,0.1-2,0.5-3.3,1.8c-1.3,1.3-1.5,0.8-2.6,1.1
			c-1.1,0.4-12.2,3.7-13.3,4.3c-1.1,0.7-1.8,0.2-1.3-0.9c0.5-1.2,1-3,0.1-3.5c-0.9-0.4-0.6-1.1,0-1.8c0.5-0.8,2.7-1.4,2-4.6
			c-0.8-3.3-1.4-3.4-3.3-3.5c-1.8-0.1-2.1-1.1-3.1-0.8c-0.9,0.1-2.2,0.7-1.9,2.9c0.2,1.5-0.7,2-0.7,2s-2.6,4.4-3.8,5.4
			c-1.2,1-1.3,1.3-0.7,2.7c0.7,1.4,0,0.7-0.1,1.6c-0.1,0.9,0.3,1.5,1.1,1.4c0.8-0.1,1.8-0.2,2.5-1.2c0.8-0.9,2.3-2.4,2.7-1.9
			c0.4,0.5,0,1.1-0.5,2.1c-0.6,0.9-5.6,8.2-6.5,9.6s-3.1,4.3-1.5,4.9c1.6,0.7,4.7-1.2,6.4-4.1c0.7-1.6,1.6-1.1,1.5,0.5
			s-1.3,8.7,1.8,8.7c3.1,0,3.4-1.4,3.3-3.2c-0.2-1.7-1-9.4-0.9-9.8c0.1-0.4,0-1.4-0.4-1.9s0.1-2,0.7-2.3c0.5-0.3,0.8-0.5,1.4,0.7
			c0.5,1.2,2.9,3.7,4.7,2.3c1.7-1.4,4.8-2.3,5.2-2.5c0.3-0.2,1.5-0.6,1.6,0.7s0.1,7.7,0.1,8.1c0,0.6,0.1,2-1.9,2s-5.7-0.9-5,0.7
			c0.8,1.5,5.4,4.7,6,6.8c0.5,2.1,1.6,3.5,3.1,2.5s5-4.2,3-16.8c-1.6-8.1,0.3-6.6,1.3-6.8s4.7,0,6.1-0.5
			C318.9,32.3,318.5,32.3,318.4,31.6z"/>
		<path class="st3" d="M300,25.2c2.5,0.3,3,0.8,4.1,0.2c1.1-0.9,1.7-1,3-1.6c1.3-0.5,3.5-1.8,4.1-1.8s0.1-1.5-0.2-2.4
			c-0.3-0.8-1.9-3.8-4.5-2.3c0,0-4.5,2-6,2.5c-1.3,0.5-2.5,0.9-2.2,2.1C298.6,23.2,297.6,24.9,300,25.2z"/>
	</g>
</g>
</svg>
