<svg width="408" height="217" viewBox="0 0 408 217" fill="none" xmlns="http://www.w3.org/2000/svg">
<g clip-path="url(#clip0_2223_1178)">
<path fill-rule="evenodd" clip-rule="evenodd" d="M321.74 44.7534C297.466 86.8159 252.544 112.751 203.967 112.751C155.392 112.751 110.485 86.8374 86.1992 44.769C110.485 96.333 155.392 128.092 203.967 128.092C252.544 128.092 297.466 96.3052 321.74 44.7534Z" fill="white"/>
<path fill-rule="evenodd" clip-rule="evenodd" d="M407.935 117.767C387.283 129.689 363.806 135.984 339.951 135.984C264.861 135.984 203.967 75.0898 203.967 0C203.967 75.0898 143.074 135.984 67.9829 135.984C44.1274 135.984 20.6528 129.689 0 117.764C66.8842 173.301 165.184 161.162 203.967 79.666C242.753 161.152 341.05 173.301 407.935 117.767Z" fill="white"/>
<path d="M34.7124 216.989V216.143C35.0996 216.044 35.3789 215.914 35.5673 215.745C35.7568 215.585 35.8466 215.357 35.8466 215.069C35.8466 214.928 35.8169 214.759 35.7568 214.551C35.6972 214.351 35.5966 214.062 35.4687 213.694L34.2138 210.31H19.6611L18.3764 213.694C18.2973 213.883 18.2373 214.062 18.1967 214.232C18.1572 214.401 18.1377 214.56 18.1377 214.71C18.1377 215.088 18.2475 215.387 18.4458 215.616C18.6547 215.854 18.9638 216.024 19.3921 216.143V216.989H8.7202V216.143C9.76661 215.596 10.6416 214.322 11.3481 212.32C11.4282 212.112 11.478 211.953 11.5175 211.852L19.77 189.286C19.9292 188.839 20.0586 188.45 20.1577 188.122C20.2475 187.793 20.2973 187.554 20.2973 187.424C20.2973 187.107 20.228 186.877 20.0991 186.738C19.9599 186.588 19.7299 186.5 19.3921 186.46V185.643H35V186.46C34.6718 186.5 34.4321 186.588 34.3032 186.738C34.1645 186.877 34.0937 187.107 34.0937 187.424C34.0937 187.534 34.1445 187.773 34.2539 188.122C34.3628 188.469 34.4922 188.859 34.6513 189.286L44.6255 214.42C44.6255 214.442 44.6372 214.471 44.6547 214.51C44.9848 215.347 45.4922 215.895 46.1689 216.143V216.989H34.7124ZM21.5522 205.094H32.0532L26.6289 191.297L21.5522 205.094Z" fill="white"/>
<path d="M140.039 216.989V216.143C140.428 216.044 140.707 215.914 140.895 215.745C141.084 215.585 141.174 215.357 141.174 215.069C141.174 214.928 141.145 214.759 141.084 214.551C141.025 214.351 140.925 214.062 140.796 213.694L139.542 210.31H124.988L123.705 213.694C123.624 213.883 123.565 214.062 123.525 214.232C123.485 214.401 123.466 214.56 123.466 214.71C123.466 215.088 123.574 215.387 123.774 215.616C123.983 215.854 124.292 216.024 124.721 216.143V216.989H114.049V216.143C115.095 215.596 115.97 214.322 116.677 212.32C116.757 212.112 116.807 211.953 116.846 211.852L125.098 189.286C125.257 188.839 125.386 188.45 125.486 188.122C125.576 187.793 125.625 187.554 125.625 187.424C125.625 187.107 125.556 186.877 125.428 186.738C125.288 186.588 125.058 186.5 124.721 186.46V185.643H140.328V186.46C139.999 186.5 139.761 186.588 139.632 186.738C139.492 186.877 139.422 187.107 139.422 187.424C139.422 187.534 139.472 187.773 139.582 188.122C139.691 188.469 139.821 188.859 139.979 189.286L149.954 214.42C149.954 214.442 149.964 214.471 149.983 214.51C150.312 215.347 150.82 215.895 151.496 216.143V216.989H140.039ZM126.88 205.094H137.381L131.956 191.297L126.88 205.094Z" fill="white"/>
<path d="M99.1323 203.491H90.2426V210.548H98.9043C101.682 210.548 103.573 210.29 104.567 209.772C105.573 209.264 106.07 208.359 106.07 207.076C106.07 205.81 105.522 204.904 104.437 204.336C103.353 203.77 101.581 203.491 99.1323 203.491ZM102.318 185.643C105.911 185.643 108.698 186.349 110.68 187.753C112.66 189.167 113.656 191.147 113.656 193.696C113.656 195.249 113.237 196.584 112.391 197.688C111.545 198.793 110.211 199.758 108.4 200.575C110.411 201.311 111.924 202.297 112.959 203.531C113.984 204.765 114.502 206.229 114.502 207.921C114.502 210.918 113.407 213.177 111.216 214.701C109.038 216.222 105.802 216.989 101.531 216.989H58.6865C54.4155 216.989 51.1801 216.222 49 214.701C46.8105 213.177 45.7158 210.918 45.7158 207.921C45.7158 206.229 46.2334 204.765 47.2588 203.531C48.2934 202.297 49.8071 201.311 51.8173 200.575C50.0053 199.758 48.6723 198.793 47.8266 197.688C46.9799 196.584 46.5615 195.249 46.5615 193.696C46.5615 191.147 47.5576 189.167 49.538 187.753C51.5195 186.349 54.3056 185.643 57.8999 185.643H102.318ZM69.9741 192.034H60.9057C58.7461 192.034 57.2529 192.233 56.4165 192.641C55.58 193.049 55.1626 193.766 55.1626 194.771C55.1626 195.707 55.58 196.404 56.4165 196.872C57.2529 197.338 58.5068 197.569 60.1792 197.569H69.9741V192.034ZM69.9741 203.491H61.0844C58.6367 203.491 56.8647 203.77 55.7793 204.336C54.6938 204.904 54.1464 205.81 54.1464 207.076C54.1464 208.359 54.6445 209.264 55.6494 209.772C56.645 210.29 58.5361 210.548 61.3139 210.548H69.9741V203.491ZM78.8144 214.42C78.8144 215.008 78.9038 215.407 79.0918 215.616C79.5649 216.191 80.6528 216.191 81.1255 215.616C81.3139 215.407 81.4033 215.008 81.4033 214.42V207.454C81.4033 202.891 84.2216 200.79 87.5058 200.575C84.2216 200.36 81.4033 198.258 81.4033 193.696V188.211C81.4033 187.624 81.3139 187.226 81.1255 187.017C80.6386 186.422 79.5786 186.422 79.0918 187.017C78.9038 187.226 78.8144 187.624 78.8144 188.211V193.696C78.8144 198.258 75.9956 200.36 72.7114 200.575C75.9956 200.79 78.8144 202.891 78.8144 207.454V214.42ZM99.312 192.034H90.2426V197.569H100.038C101.711 197.569 102.965 197.338 103.801 196.872C104.637 196.404 105.055 195.707 105.055 194.771C105.055 193.766 104.637 193.049 103.801 192.641C102.965 192.233 101.471 192.034 99.312 192.034Z" fill="white"/>
<path d="M172.005 192.824V199.305H179.023C181.255 199.305 182.872 199.043 183.861 198.525C184.851 197.999 185.35 197.171 185.35 196.037C185.35 194.848 184.887 194.022 183.953 193.542C183.026 193.06 181.31 192.824 178.813 192.824H172.005ZM162.591 215.636V214.865C163.155 214.737 163.527 214.585 163.69 214.383C163.862 214.193 163.945 213.831 163.945 213.294V189.393C163.945 188.858 163.862 188.494 163.69 188.303C163.527 188.104 163.155 187.94 162.591 187.794V187.051H182.454C186.013 187.051 188.79 187.84 190.76 189.429C192.739 191.017 193.729 193.243 193.729 196.092C193.729 198.306 193.112 200.167 191.886 201.666C190.651 203.163 188.818 204.263 186.394 204.97L190.643 211.652C191.387 212.868 191.986 213.685 192.44 214.085C192.893 214.484 193.393 214.737 193.938 214.865V215.636H182.454L182.48 214.865C182.781 214.774 183.008 214.656 183.153 214.501C183.308 214.357 183.379 214.174 183.379 213.958C183.379 213.711 183.217 213.349 182.881 212.868C182.736 212.677 182.626 212.522 182.554 212.414L177.879 205.079H172.005V213.294C172.005 213.793 172.096 214.137 172.269 214.347C172.451 214.547 172.831 214.719 173.412 214.865V215.636H162.591Z" fill="white"/>
<path d="M223.136 208.882C223.636 208.882 223.982 208.8 224.191 208.628C224.39 208.466 224.562 208.093 224.708 207.53H225.478V216.989H224.708C224.562 216.426 224.4 216.054 224.199 215.891C224.009 215.718 223.654 215.636 223.136 215.636H197.319V214.865C197.883 214.737 198.255 214.585 198.419 214.383C198.591 214.193 198.673 213.831 198.673 213.294V189.393C198.673 188.858 198.591 188.494 198.419 188.303C198.255 188.104 197.883 187.94 197.319 187.794V187.051H223.191C223.691 187.051 224.037 186.96 224.246 186.769C224.445 186.587 224.599 186.207 224.708 185.643H225.478V195.157H224.708C224.58 194.593 224.419 194.222 224.218 194.059C224.009 193.887 223.673 193.804 223.191 193.804H206.733V197.816H216.591C217.111 197.816 217.472 197.735 217.673 197.563C217.871 197.399 218.062 197.027 218.244 196.464H218.988V205.343H218.218C218.054 204.78 217.871 204.407 217.663 204.244C217.445 204.071 217.091 203.99 216.591 203.99H206.733V208.882H223.136Z" fill="white"/>
<path d="M255.175 195.883C255.193 195.756 255.22 195.62 255.265 195.465C255.31 195.321 255.339 195.22 255.339 195.166C255.339 194.385 254.267 193.66 252.142 192.997C250.019 192.334 247.65 191.999 245.044 191.999C242.902 191.999 241.177 192.28 239.888 192.85C238.589 193.414 237.945 194.149 237.945 195.057C237.962 196.382 240.441 197.171 245.388 197.418C246.187 197.454 246.804 197.481 247.222 197.5C251.833 197.745 255.166 198.551 257.216 199.923C259.261 201.285 260.285 203.344 260.285 206.114C260.285 209.001 258.933 211.37 256.22 213.204C253.505 215.037 249.937 215.954 245.525 215.954C240.423 215.954 235.765 215.192 231.564 213.667C231.083 213.485 230.8 213.404 230.71 213.404C230.574 213.404 230.429 213.45 230.292 213.557C230.146 213.666 229.919 213.902 229.621 214.275L228.904 213.958L232.898 205.233L233.587 205.579C233.552 205.632 233.525 205.696 233.497 205.778C233.47 205.859 233.443 205.951 233.423 206.06C233.423 207.14 234.658 208.147 237.128 209.091C239.589 210.027 242.384 210.497 245.525 210.497C247.705 210.497 249.429 210.18 250.699 209.545C251.962 208.901 252.597 208.047 252.597 206.967C252.597 204.979 249.955 203.889 244.671 203.699C244.281 203.681 243.982 203.664 243.773 203.645C239.333 203.482 236.029 202.737 233.841 201.393C231.654 200.059 230.556 198.107 230.556 195.529C230.556 192.87 231.835 190.71 234.396 189.039C236.956 187.377 240.341 186.543 244.544 186.543C247.15 186.543 249.892 186.942 252.787 187.741C255.675 188.539 257.199 188.939 257.353 188.939C257.726 188.939 258 188.884 258.169 188.794C258.335 188.694 258.497 188.511 258.662 188.25L259.351 188.567L255.865 196.201L255.175 195.883Z" fill="white"/>
<path d="M271.894 201.348C271.894 203.816 272.665 205.788 274.21 207.267C275.753 208.747 277.822 209.491 280.427 209.491C282.988 209.491 285.031 208.747 286.574 207.258C288.117 205.769 288.888 203.799 288.888 201.348C288.888 198.924 288.109 196.955 286.546 195.448C284.986 193.941 282.933 193.187 280.382 193.187C277.841 193.187 275.798 193.941 274.238 195.448C272.675 196.955 271.894 198.924 271.894 201.348ZM280.382 216.118C275.499 216.118 271.476 214.711 268.298 211.887C265.132 209.074 263.542 205.542 263.542 201.301C263.542 197.044 265.122 193.523 268.273 190.728C271.433 187.94 275.462 186.543 280.382 186.543C285.292 186.543 289.324 187.94 292.484 190.728C295.632 193.523 297.212 197.044 297.212 201.301C297.212 205.542 295.624 209.074 292.456 211.887C289.279 214.711 285.257 216.118 280.382 216.118Z" fill="white"/>
<path d="M353.482 194.068V213.294C353.482 213.831 353.564 214.193 353.736 214.383C353.898 214.585 354.271 214.737 354.835 214.865V215.636H343.994V214.865C344.576 214.719 344.949 214.547 345.111 214.33C345.265 214.12 345.347 213.775 345.347 213.294V194.068H336.814C336.316 194.068 335.96 194.159 335.751 194.332C335.535 194.512 335.361 194.876 335.216 195.42H334.472V185.643H335.216C335.361 186.223 335.535 186.605 335.734 186.788C335.943 186.96 336.298 187.051 336.814 187.051H362.015C362.533 187.051 362.886 186.96 363.095 186.788C363.294 186.605 363.456 186.223 363.585 185.643H364.357V195.42H363.585C363.456 194.876 363.294 194.512 363.078 194.332C362.867 194.159 362.513 194.068 362.015 194.068H353.482Z" fill="white"/>
<path d="M394.105 195.883C394.122 195.756 394.15 195.62 394.195 195.465C394.24 195.321 394.267 195.22 394.267 195.166C394.267 194.385 393.197 193.66 391.072 192.997C388.949 192.334 386.58 191.999 383.974 191.999C381.831 191.999 380.105 192.28 378.818 192.85C377.519 193.414 376.874 194.149 376.874 195.057C376.892 196.382 379.371 197.171 384.318 197.418C385.117 197.454 385.734 197.481 386.152 197.5C390.763 197.745 394.095 198.551 396.148 199.923C398.189 201.285 399.214 203.344 399.214 206.114C399.214 209.001 397.863 211.37 395.148 213.204C392.435 215.037 388.867 215.954 384.455 215.954C379.353 215.954 374.697 215.192 370.494 213.667C370.011 213.485 369.73 213.404 369.64 213.404C369.503 213.404 369.359 213.45 369.222 213.557C369.078 213.666 368.849 213.902 368.55 214.275L367.831 213.958L371.828 205.233L372.517 205.579C372.482 205.632 372.453 205.696 372.427 205.778C372.4 205.859 372.372 205.951 372.353 206.06C372.353 207.14 373.587 208.147 376.058 209.091C378.517 210.027 381.314 210.497 384.455 210.497C386.634 210.497 388.359 210.18 389.628 209.545C390.89 208.901 391.527 208.047 391.527 206.967C391.527 204.979 388.884 203.889 383.601 203.699C383.21 203.681 382.912 203.664 382.703 203.645C378.263 203.482 374.96 202.737 372.771 201.393C370.583 200.059 369.486 198.107 369.486 195.529C369.486 192.87 370.765 190.71 373.324 189.039C375.886 187.377 379.271 186.543 383.474 186.543C386.08 186.543 388.822 186.942 391.716 187.741C394.603 188.539 396.128 188.939 396.283 188.939C396.656 188.939 396.927 188.884 397.099 188.794C397.263 188.694 397.427 188.511 397.591 188.25L398.281 188.567L394.794 196.201L394.105 195.883Z" fill="white"/>
<path d="M309.158 192.824V199.305H316.177C318.408 199.305 320.025 199.043 321.015 198.525C322.003 197.999 322.503 197.171 322.503 196.037C322.503 194.848 322.04 194.022 321.105 193.542C320.179 193.06 318.462 192.824 315.966 192.824H309.158ZM299.746 215.636V214.865C300.308 214.737 300.679 214.585 300.843 214.383C301.015 214.193 301.097 213.831 301.097 213.294V189.393C301.097 188.858 301.015 188.494 300.843 188.303C300.679 188.104 300.308 187.94 299.746 187.794V187.051H319.607C323.166 187.051 325.945 187.84 327.913 189.429C329.892 191.017 330.882 193.243 330.882 196.092C330.882 198.306 330.265 200.167 329.038 201.666C327.804 203.163 325.97 204.263 323.548 204.97L327.796 211.652C328.54 212.868 329.14 213.685 329.593 214.085C330.046 214.484 330.546 214.737 331.091 214.865V215.636H319.607L319.634 214.865C319.933 214.774 320.162 214.656 320.306 214.501C320.46 214.357 320.533 214.174 320.533 213.958C320.533 213.711 320.371 213.349 320.035 212.868C319.888 212.677 319.781 212.522 319.706 212.414L315.031 205.079H309.158V213.294C309.158 213.793 309.249 214.137 309.421 214.347C309.603 214.547 309.984 214.719 310.566 214.865V215.636H299.746Z" fill="white"/>
</g>
<defs>
<clipPath id="clip0_2223_1178">
<rect width="407.935" height="216.989" fill="white"/>
</clipPath>
</defs>
</svg>
