<svg width="408" height="217" viewBox="0 0 408 217" fill="none" xmlns="http://www.w3.org/2000/svg">
<g clip-path="url(#clip0_2223_1139)">
<path fill-rule="evenodd" clip-rule="evenodd" d="M321.74 44.7534C297.466 86.8159 252.544 112.751 203.967 112.751C155.392 112.751 110.485 86.8374 86.1992 44.769C110.485 96.333 155.392 128.092 203.967 128.092C252.544 128.092 297.466 96.3052 321.74 44.7534Z" fill="#CB8F69"/>
<path fill-rule="evenodd" clip-rule="evenodd" d="M407.935 117.767C387.283 129.689 363.806 135.984 339.951 135.984C264.861 135.984 203.967 75.0898 203.967 0C203.967 75.0898 143.074 135.984 67.9829 135.984C44.1274 135.984 20.6528 129.689 0 117.764C66.8842 173.301 165.184 161.162 203.967 79.666C242.753 161.152 341.05 173.301 407.935 117.767Z" fill="#CB8F69"/>
<path d="M34.7119 216.989V216.143C35.0991 216.044 35.3784 215.915 35.5668 215.745C35.7563 215.585 35.8461 215.357 35.8461 215.069C35.8461 214.928 35.8164 214.759 35.7563 214.551C35.6967 214.351 35.5961 214.062 35.4682 213.694L34.2133 210.31H19.6606L18.3759 213.694C18.2968 213.883 18.2368 214.062 18.1962 214.232C18.1567 214.401 18.1372 214.56 18.1372 214.71C18.1372 215.088 18.247 215.387 18.4453 215.616C18.6542 215.854 18.9633 216.024 19.3916 216.143V216.989H8.71973V216.143C9.76613 215.596 10.6411 214.322 11.3476 212.32C11.4277 212.112 11.4775 211.953 11.517 211.852L19.7695 189.286C19.9287 188.839 20.0581 188.45 20.1572 188.122C20.247 187.793 20.2968 187.554 20.2968 187.424C20.2968 187.107 20.2275 186.877 20.0986 186.738C19.9594 186.588 19.7294 186.5 19.3916 186.46V185.643H34.9995V186.46C34.6713 186.5 34.4316 186.588 34.3027 186.738C34.164 186.877 34.0932 187.107 34.0932 187.424C34.0932 187.534 34.144 187.773 34.2534 188.122C34.3623 188.469 34.4917 188.859 34.6508 189.286L44.625 214.42C44.625 214.442 44.6367 214.471 44.6542 214.51C44.9843 215.347 45.4917 215.895 46.1684 216.143V216.989H34.7119ZM21.5517 205.094H32.0527L26.6284 191.297L21.5517 205.094Z" fill="#CB8F69"/>
<path d="M140.04 216.989V216.143C140.428 216.044 140.707 215.915 140.895 215.745C141.084 215.585 141.174 215.357 141.174 215.069C141.174 214.928 141.145 214.759 141.084 214.551C141.025 214.351 140.925 214.062 140.796 213.694L139.542 210.31H124.988L123.705 213.694C123.625 213.883 123.565 214.062 123.525 214.232C123.485 214.401 123.466 214.56 123.466 214.71C123.466 215.088 123.574 215.387 123.774 215.616C123.983 215.854 124.292 216.024 124.721 216.143V216.989H114.049V216.143C115.095 215.596 115.97 214.322 116.677 212.32C116.757 212.112 116.807 211.953 116.846 211.852L125.098 189.286C125.257 188.839 125.386 188.45 125.486 188.122C125.576 187.793 125.625 187.554 125.625 187.424C125.625 187.107 125.556 186.877 125.428 186.738C125.288 186.588 125.058 186.5 124.721 186.46V185.643H140.328V186.46C140 186.5 139.761 186.588 139.632 186.738C139.492 186.877 139.422 187.107 139.422 187.424C139.422 187.534 139.472 187.773 139.582 188.122C139.691 188.469 139.821 188.859 139.98 189.286L149.954 214.42C149.954 214.442 149.964 214.471 149.983 214.51C150.313 215.347 150.82 215.895 151.497 216.143V216.989H140.04ZM126.88 205.094H137.381L131.956 191.297L126.88 205.094Z" fill="#CB8F69"/>
<path d="M99.1323 203.491H90.2426V210.548H98.9043C101.682 210.548 103.573 210.29 104.567 209.772C105.573 209.264 106.07 208.359 106.07 207.076C106.07 205.81 105.522 204.904 104.438 204.336C103.353 203.77 101.581 203.491 99.1323 203.491ZM102.318 185.643C105.911 185.643 108.698 186.349 110.68 187.753C112.66 189.167 113.656 191.147 113.656 193.696C113.656 195.249 113.237 196.584 112.391 197.688C111.545 198.793 110.211 199.758 108.4 200.575C110.411 201.311 111.924 202.297 112.959 203.531C113.984 204.765 114.502 206.229 114.502 207.921C114.502 210.918 113.407 213.177 111.216 214.701C109.038 216.222 105.802 216.989 101.531 216.989H58.6865C54.4155 216.989 51.1801 216.222 49 214.701C46.8105 213.177 45.7158 210.918 45.7158 207.921C45.7158 206.229 46.2334 204.765 47.2588 203.531C48.2934 202.297 49.8071 201.311 51.8173 200.575C50.0053 199.758 48.6723 198.793 47.8266 197.688C46.9799 196.584 46.5615 195.249 46.5615 193.696C46.5615 191.147 47.5576 189.167 49.538 187.753C51.5195 186.349 54.3056 185.643 57.8999 185.643H102.318ZM69.9741 192.034H60.9057C58.7461 192.034 57.2529 192.233 56.4165 192.641C55.58 193.049 55.1626 193.766 55.1626 194.771C55.1626 195.707 55.58 196.404 56.4165 196.872C57.2529 197.338 58.5068 197.569 60.1792 197.569H69.9741V192.034ZM69.9741 203.491H61.0844C58.6367 203.491 56.8647 203.77 55.7793 204.336C54.6938 204.904 54.1464 205.81 54.1464 207.076C54.1464 208.359 54.6445 209.264 55.6494 209.772C56.645 210.29 58.5361 210.548 61.3139 210.548H69.9741V203.491ZM78.8144 214.42C78.8144 215.008 78.9038 215.407 79.0918 215.616C79.5649 216.191 80.6528 216.191 81.1255 215.616C81.3139 215.407 81.4033 215.008 81.4033 214.42V207.454C81.4033 202.891 84.2216 200.79 87.5058 200.575C84.2216 200.36 81.4033 198.258 81.4033 193.696V188.211C81.4033 187.624 81.3139 187.226 81.1255 187.017C80.6386 186.422 79.5786 186.422 79.0918 187.017C78.9038 187.226 78.8144 187.624 78.8144 188.211V193.696C78.8144 198.258 75.9956 200.36 72.7114 200.575C75.9956 200.79 78.8144 202.891 78.8144 207.454V214.42ZM99.312 192.034H90.2426V197.569H100.038C101.711 197.569 102.965 197.338 103.801 196.872C104.637 196.404 105.055 195.707 105.055 194.771C105.055 193.766 104.637 193.049 103.801 192.641C102.965 192.233 101.471 192.034 99.312 192.034Z" fill="#CB8F69"/>
<path d="M172.005 192.824V199.305H179.022C181.255 199.305 182.872 199.043 183.86 198.525C184.851 197.999 185.349 197.171 185.349 196.037C185.349 194.848 184.886 194.022 183.952 193.542C183.025 193.06 181.309 192.824 178.813 192.824H172.005ZM162.591 215.636V214.865C163.154 214.737 163.526 214.585 163.689 214.383C163.862 214.193 163.944 213.831 163.944 213.294V189.393C163.944 188.858 163.862 188.494 163.689 188.303C163.526 188.104 163.154 187.94 162.591 187.794V187.051H182.453C186.012 187.051 188.79 187.84 190.759 189.429C192.739 191.017 193.728 193.243 193.728 196.092C193.728 198.306 193.111 200.167 191.885 201.666C190.651 203.163 188.817 204.263 186.394 204.97L190.642 211.652C191.386 212.868 191.985 213.685 192.44 214.085C192.893 214.484 193.392 214.737 193.937 214.865V215.636H182.453L182.48 214.865C182.78 214.774 183.007 214.656 183.152 214.501C183.307 214.357 183.379 214.174 183.379 213.958C183.379 213.711 183.217 213.349 182.88 212.868C182.736 212.677 182.626 212.522 182.554 212.414L177.878 205.079H172.005V213.294C172.005 213.793 172.096 214.137 172.269 214.347C172.45 214.547 172.831 214.719 173.412 214.865V215.636H162.591Z" fill="#CB8F69"/>
<path d="M223.136 208.882C223.636 208.882 223.982 208.8 224.191 208.628C224.39 208.466 224.562 208.093 224.709 207.53H225.478V216.989H224.709C224.562 216.426 224.4 216.054 224.199 215.891C224.009 215.718 223.654 215.636 223.136 215.636H197.319V214.865C197.883 214.737 198.255 214.585 198.419 214.383C198.591 214.193 198.673 213.831 198.673 213.294V189.393C198.673 188.858 198.591 188.494 198.419 188.303C198.255 188.104 197.883 187.94 197.319 187.794V187.051H223.191C223.691 187.051 224.037 186.96 224.246 186.769C224.445 186.587 224.599 186.207 224.709 185.643H225.478V195.157H224.709C224.58 194.593 224.419 194.222 224.218 194.059C224.009 193.887 223.673 193.804 223.191 193.804H206.733V197.816H216.591C217.111 197.816 217.472 197.735 217.673 197.563C217.871 197.399 218.062 197.027 218.244 196.464H218.988V205.343H218.218C218.054 204.78 217.871 204.407 217.664 204.244C217.445 204.071 217.091 203.99 216.591 203.99H206.733V208.882H223.136Z" fill="#CB8F69"/>
<path d="M255.175 195.883C255.192 195.756 255.22 195.62 255.265 195.465C255.31 195.321 255.339 195.22 255.339 195.165C255.339 194.385 254.267 193.66 252.142 192.997C250.019 192.333 247.649 191.998 245.044 191.998C242.901 191.998 241.177 192.28 239.888 192.85C238.589 193.414 237.944 194.149 237.944 195.057C237.962 196.382 240.44 197.171 245.388 197.417C246.187 197.454 246.804 197.481 247.222 197.499C251.833 197.745 255.165 198.551 257.216 199.923C259.261 201.285 260.284 203.344 260.284 206.114C260.284 209 258.933 211.37 256.22 213.204C253.505 215.037 249.937 215.954 245.524 215.954C240.423 215.954 235.765 215.192 231.563 213.666C231.083 213.485 230.8 213.404 230.71 213.404C230.573 213.404 230.429 213.45 230.292 213.557C230.146 213.666 229.919 213.902 229.62 214.275L228.903 213.957L232.897 205.233L233.587 205.579C233.552 205.632 233.524 205.696 233.497 205.778C233.47 205.859 233.442 205.951 233.423 206.06C233.423 207.14 234.657 208.147 237.128 209.091C239.589 210.027 242.384 210.497 245.524 210.497C247.704 210.497 249.429 210.18 250.698 209.545C251.962 208.901 252.597 208.047 252.597 206.967C252.597 204.979 249.954 203.889 244.671 203.699C244.28 203.681 243.981 203.664 243.772 203.645C239.333 203.482 236.028 202.737 233.841 201.393C231.653 200.059 230.556 198.107 230.556 195.529C230.556 192.87 231.835 190.709 234.396 189.039C236.956 187.377 240.341 186.542 244.544 186.542C247.149 186.542 249.892 186.942 252.786 187.741C255.675 188.539 257.198 188.939 257.353 188.939C257.726 188.939 257.999 188.884 258.169 188.794C258.335 188.694 258.497 188.511 258.661 188.249L259.351 188.567L255.864 196.201L255.175 195.883Z" fill="#CB8F69"/>
<path d="M271.894 201.348C271.894 203.816 272.665 205.788 274.21 207.267C275.753 208.747 277.821 209.491 280.427 209.491C282.987 209.491 285.03 208.747 286.573 207.258C288.116 205.769 288.888 203.799 288.888 201.348C288.888 198.924 288.108 196.955 286.546 195.448C284.985 193.941 282.933 193.187 280.382 193.187C277.841 193.187 275.798 193.941 274.237 195.448C272.675 196.955 271.894 198.924 271.894 201.348ZM280.382 216.118C275.499 216.118 271.476 214.711 268.298 211.887C265.132 209.074 263.542 205.541 263.542 201.301C263.542 197.044 265.122 193.523 268.272 190.728C271.433 187.94 275.462 186.542 280.382 186.542C285.292 186.542 289.323 187.94 292.483 190.728C295.632 193.523 297.212 197.044 297.212 201.301C297.212 205.541 295.624 209.074 292.456 211.887C289.278 214.711 285.257 216.118 280.382 216.118Z" fill="#CB8F69"/>
<path d="M353.482 194.068V213.294C353.482 213.831 353.563 214.193 353.735 214.383C353.897 214.585 354.271 214.737 354.835 214.865V215.636H343.993V214.865C344.575 214.719 344.948 214.547 345.11 214.33C345.265 214.12 345.347 213.775 345.347 213.294V194.068H336.814C336.316 194.068 335.96 194.159 335.751 194.332C335.534 194.512 335.36 194.876 335.216 195.42H334.472V185.643H335.216C335.36 186.223 335.534 186.605 335.733 186.788C335.942 186.96 336.298 187.051 336.814 187.051H362.015C362.532 187.051 362.886 186.96 363.095 186.788C363.294 186.605 363.456 186.223 363.585 185.643H364.357V195.42H363.585C363.456 194.876 363.294 194.512 363.077 194.332C362.866 194.159 362.513 194.068 362.015 194.068H353.482Z" fill="#CB8F69"/>
<path d="M394.104 195.883C394.122 195.756 394.149 195.62 394.194 195.465C394.239 195.321 394.267 195.22 394.267 195.165C394.267 194.385 393.196 193.66 391.071 192.997C388.948 192.333 386.579 191.998 383.974 191.998C381.831 191.998 380.104 192.28 378.817 192.85C377.519 193.414 376.874 194.149 376.874 195.057C376.892 196.382 379.37 197.171 384.317 197.417C385.116 197.454 385.733 197.481 386.151 197.499C390.763 197.745 394.095 198.551 396.147 199.923C398.188 201.285 399.214 203.344 399.214 206.114C399.214 209 397.862 211.37 395.147 213.204C392.435 215.037 388.866 215.954 384.454 215.954C379.353 215.954 374.696 215.192 370.493 213.666C370.011 213.485 369.729 213.404 369.64 213.404C369.503 213.404 369.358 213.45 369.222 213.557C369.077 213.666 368.849 213.902 368.55 214.275L367.831 213.957L371.827 205.233L372.517 205.579C372.481 205.632 372.452 205.696 372.427 205.778C372.399 205.859 372.372 205.951 372.353 206.06C372.353 207.14 373.587 208.147 376.058 209.091C378.517 210.027 381.313 210.497 384.454 210.497C386.634 210.497 388.358 210.18 389.628 209.545C390.89 208.901 391.526 208.047 391.526 206.967C391.526 204.979 388.884 203.889 383.601 203.699C383.21 203.681 382.911 203.664 382.702 203.645C378.263 203.482 374.96 202.737 372.771 201.393C370.583 200.059 369.485 198.107 369.485 195.529C369.485 192.87 370.765 190.709 373.323 189.039C375.886 187.377 379.271 186.542 383.474 186.542C386.079 186.542 388.821 186.942 391.716 187.741C394.603 188.539 396.128 188.939 396.282 188.939C396.655 188.939 396.927 188.884 397.099 188.794C397.263 188.694 397.427 188.511 397.591 188.249L398.28 188.567L394.794 196.201L394.104 195.883Z" fill="#CB8F69"/>
<path d="M309.158 192.824V199.305H316.178C318.408 199.305 320.025 199.043 321.016 198.525C322.004 197.999 322.504 197.171 322.504 196.037C322.504 194.848 322.041 194.022 321.105 193.542C320.18 193.06 318.463 192.824 315.967 192.824H309.158ZM299.746 215.636V214.865C300.309 214.737 300.68 214.585 300.844 214.383C301.016 214.193 301.098 213.831 301.098 213.294V189.393C301.098 188.858 301.016 188.494 300.844 188.303C300.68 188.104 300.309 187.94 299.746 187.794V187.051H319.607C323.166 187.051 325.945 187.84 327.914 189.429C329.893 191.017 330.883 193.243 330.883 196.092C330.883 198.306 330.266 200.167 329.039 201.666C327.805 203.163 325.971 204.263 323.549 204.97L327.797 211.652C328.541 212.868 329.141 213.685 329.594 214.085C330.047 214.484 330.547 214.737 331.092 214.865V215.636H319.607L319.635 214.865C319.934 214.774 320.162 214.656 320.307 214.501C320.461 214.357 320.533 214.174 320.533 213.958C320.533 213.711 320.371 213.349 320.035 212.868C319.889 212.677 319.781 212.522 319.707 212.414L315.031 205.079H309.158V213.294C309.158 213.793 309.25 214.137 309.422 214.347C309.603 214.547 309.984 214.719 310.566 214.865V215.636H299.746Z" fill="#CB8F69"/>
</g>
<defs>
<clipPath id="clip0_2223_1139">
<rect width="407.935" height="216.989" fill="white"/>
</clipPath>
</defs>
</svg>
