<svg width="34" height="32" viewBox="0 0 34 32" fill="none" xmlns="http://www.w3.org/2000/svg">
<path d="M20.0139 5.6524C23.2716 5.97453 26.2376 7.41498 28.9423 9.97375L33.4459 6.09001C31.5861 4.17548 29.3312 2.65602 26.7968 1.47084C24.8762 0.680719 22.8948 0.200569 20.8526 0L20.0078 5.6524H20.0139Z" fill="white"/>
<path d="M23.8163 25.4671C22.2969 26.087 20.5465 26.4274 18.6927 26.4274C16.4378 26.4274 14.4686 25.9776 12.6635 25.0781C10.8584 24.1786 9.45439 22.9387 8.49409 21.3585C7.70397 20.0578 7.24206 18.5991 7.09619 16.9946L0.5625 16.1133C0.617201 20.7446 2.29469 24.5068 5.61927 27.4971C8.94385 30.4813 13.2774 32.0008 18.5772 32.0008C21.4521 32.0008 23.9865 31.551 26.2353 30.7062C28.4294 29.8614 30.7998 28.3419 33.3343 26.1417L28.94 22.027C27.0802 23.662 25.3905 24.8411 23.8163 25.461V25.4671Z" fill="white"/>
<path d="M12.4238 5.82412C12.7118 3.48876 11.0521 1.36211 8.71675 1.07413C6.38139 0.786139 4.25475 2.44586 3.96676 4.78122C3.67877 7.11658 5.3385 9.24323 7.67385 9.53121C10.0092 9.8192 12.1359 8.15948 12.4238 5.82412Z" fill="#C8161D"/>
</svg>
