<svg width="20" height="18" viewBox="0 0 20 18" fill="none" xmlns="http://www.w3.org/2000/svg">
<path d="M11.6831 3.18043C13.5161 3.36168 15.185 4.17218 16.7068 5.61192L19.2409 3.42666C18.1944 2.34942 16.9257 1.49446 15.4996 0.827596C14.419 0.38302 13.3041 0.112854 12.155 0L11.6797 3.18043H11.6831Z" fill="white"/>
<path d="M13.8459 14.3236C12.991 14.6725 12.0061 14.864 10.963 14.864C9.69428 14.864 8.58626 14.6109 7.57058 14.1048C6.55489 13.5986 5.76491 12.901 5.22458 12.0119C4.78 11.28 4.5201 10.4593 4.43802 9.55642L0.761719 9.06055C0.792497 11.6664 1.73637 13.7833 3.60701 15.4659C5.47765 17.145 7.91598 18 10.8981 18C12.5156 18 13.9417 17.7469 15.207 17.2715C16.4416 16.7962 17.7753 15.9412 19.2014 14.7032L16.7288 12.388C15.6824 13.308 14.7317 13.9714 13.8459 14.3202V14.3236Z" fill="white"/>
<path d="M7.43475 3.2798C7.5968 1.96576 6.66292 0.769168 5.34889 0.607127C4.03485 0.445085 2.83826 1.37896 2.67621 2.693C2.51417 4.00703 3.44805 5.20363 4.76208 5.36567C6.07612 5.52771 7.27271 4.59383 7.43475 3.2798Z" fill="white"/>
</svg>
