<svg width="123" height="39" viewBox="0 0 123 39" fill="none" xmlns="http://www.w3.org/2000/svg">
<g clip-path="url(#clip0_726_21508)">
<path d="M36.0564 6.08656H40.4566V21.8773H36.0564V20.2283C35.1916 20.9744 34.3269 21.4873 33.4621 21.801C32.5973 22.1147 31.6562 22.2716 30.6727 22.2716C28.3921 22.2716 26.4675 21.4873 24.7803 19.9146C23.1313 18.3419 22.3047 16.3792 22.3047 14.0222C22.3047 11.6653 23.0889 9.58384 24.6998 8.04927C26.3107 6.47656 28.2352 5.73047 30.5159 5.73047C31.5757 5.73047 32.5591 5.92547 33.4621 6.28156C34.365 6.6334 35.2298 7.18449 36.014 7.89243V6.08656H36.0522H36.0564ZM31.4188 9.35069C30.0453 9.35069 28.9432 9.78308 28.0402 10.6479C27.1373 11.5126 26.7049 12.6106 26.7049 13.9883C26.7049 15.366 27.1754 16.4639 28.0784 17.3669C28.9813 18.2317 30.1216 18.7022 31.457 18.7022C32.7923 18.7022 33.9708 18.2698 34.8737 17.405C35.7766 16.5403 36.2472 15.3999 36.2472 13.9883C36.2472 12.5767 35.7766 11.5126 34.8737 10.6479C33.9708 9.78308 32.8304 9.35069 31.4146 9.35069H31.4188Z" fill="white"/>
<path d="M41.6022 6.0876H46.0024V7.69847C46.9859 6.95238 47.8889 6.40129 48.7112 6.12575C49.5379 5.81205 50.3603 5.69336 51.1869 5.69336C52.9165 5.69336 54.4086 6.24445 55.6253 7.34238C56.6469 8.28347 57.1556 9.66119 57.1556 11.4671V21.8784H52.7935V14.9643C52.7935 13.0779 52.713 11.8231 52.518 11.2339C52.323 10.6065 52.0093 10.136 51.5345 9.81803C51.0597 9.5001 50.4747 9.34749 49.8049 9.34749C48.902 9.34749 48.1559 9.62303 47.5243 10.1317C46.8969 10.6828 46.4645 11.4289 46.189 12.37C46.0703 12.8787 45.994 13.9427 45.994 15.5536V21.8784H41.5938V6.0876H41.6022Z" fill="white"/>
<path d="M58.5703 0.550781H63.0892V17.9948H69.6514V21.8821H58.5745V0.550781H58.5703Z" fill="white"/>
<path d="M86.8929 15.1248H72.7512C72.9462 16.2651 73.4973 17.1299 74.4002 17.7954C75.3031 18.4652 76.4053 18.7789 77.7788 18.7789C79.4278 18.7789 80.8437 18.2702 82.0222 17.2486L85.7144 18.8213C84.7734 19.9998 83.6712 20.8645 82.4164 21.4538C81.1192 22.0049 79.5889 22.3186 77.8212 22.3186C75.07 22.3186 72.8317 21.5343 71.1022 19.9616C69.3726 18.3889 68.5078 16.4262 68.5078 14.1074C68.5078 11.7886 69.3726 9.70715 71.1022 8.09628C72.8317 6.52356 74.9894 5.70117 77.5838 5.70117C80.335 5.70117 82.5732 6.48541 84.3028 8.09628C86.0324 9.669 86.8972 11.7886 86.8972 14.3829V15.129L86.8929 15.1248ZM82.4927 12.0217C82.2172 11.1569 81.6279 10.4108 80.7631 9.85976C79.8984 9.30867 78.9149 9.03313 77.7788 9.03313C76.5622 9.03313 75.46 9.34682 74.5571 9.97422C73.9678 10.3685 73.4591 11.034 72.9462 12.0175H82.4927V12.0217Z" fill="white"/>
<path d="M100.095 6.08656H104.496V21.8773H100.095V20.2283C99.2307 20.9744 98.3659 21.4873 97.5011 21.801C96.6364 22.1147 95.6953 22.2716 94.7118 22.2716C92.4311 22.2716 90.5066 21.4873 88.8194 19.9146C87.1704 18.3419 86.3438 16.3792 86.3438 14.0222C86.3438 11.6653 87.128 9.58384 88.7389 8.04927C90.3497 6.47656 92.2743 5.73047 94.555 5.73047C95.6147 5.73047 96.5982 5.92547 97.5011 6.28156C98.4041 6.6334 99.2689 7.18449 100.053 7.89243V6.08656H100.091H100.095ZM95.4579 9.35069C94.0844 9.35069 92.9822 9.78308 92.0793 10.6479C91.1764 11.5126 90.744 12.6106 90.744 13.9883C90.744 15.366 91.2145 16.4639 92.1175 17.3669C93.0204 18.2317 94.1607 18.7022 95.496 18.7022C96.8314 18.7022 98.0098 18.2698 98.9128 17.405C99.8157 16.5403 100.286 15.3999 100.286 13.9883C100.286 12.5767 99.8157 11.5126 98.9128 10.6479C98.0098 9.78308 96.8314 9.35069 95.4536 9.35069H95.4579Z" fill="white"/>
<path d="M118.556 0H122.957V21.8824H118.556V20.2334C117.692 20.9795 116.827 21.4924 115.962 21.8061C115.097 22.1198 114.156 22.2766 113.173 22.2766C110.892 22.2766 108.968 21.4924 107.28 19.9197C105.631 18.347 104.805 16.3842 104.805 14.0273C104.805 11.6703 105.589 9.58891 107.2 8.05435C108.811 6.48163 110.735 5.73554 113.016 5.73554C114.076 5.73554 115.059 5.93054 115.962 6.28663C116.865 6.63848 117.73 7.18957 118.514 7.8975V0H118.552H118.556ZM113.961 9.35152C112.588 9.35152 111.486 9.78391 110.583 10.6487C109.68 11.5135 109.247 12.6114 109.247 13.9891C109.247 15.3668 109.718 16.4648 110.621 17.3677C111.524 18.2325 112.664 18.703 113.999 18.703C115.335 18.703 116.513 18.2707 117.416 17.4059C118.319 16.5411 118.79 15.4008 118.79 13.9891C118.79 12.5775 118.319 11.5135 117.416 10.6487C116.475 9.78391 115.335 9.35152 113.957 9.35152H113.961Z" fill="white"/>
<path d="M13.5667 3.97559C15.8389 4.20027 17.9076 5.20494 19.794 6.98962L22.9352 4.28081C21.638 2.94549 20.0653 1.8857 18.2976 1.05907C16.958 0.507986 15.5761 0.173094 14.1517 0.0332031L13.5625 3.97559H13.5667Z" fill="white"/>
<path d="M16.2189 17.7955C15.1591 18.2279 13.9383 18.4653 12.6453 18.4653C11.0726 18.4653 9.69913 18.1516 8.44011 17.5242C7.18109 16.8968 6.20185 16.032 5.53206 14.9299C4.98098 14.0227 4.6588 13.0053 4.55707 11.8862L0 11.2715C0.0381522 14.5017 1.20815 17.1257 3.52696 19.2114C5.84576 21.2928 8.86826 22.3526 12.5648 22.3526C14.5699 22.3526 16.3376 22.0389 17.9061 21.4496C19.4364 20.8604 21.0897 19.8006 22.8574 18.266L19.7925 15.3962C18.4953 16.5365 17.3168 17.3589 16.2189 17.7913V17.7955Z" fill="white"/>
<path d="M8.2779 4.09451C8.47876 2.46566 7.32115 0.982383 5.6923 0.78152C4.06346 0.580657 2.58018 1.73827 2.37932 3.36712C2.17846 4.99596 3.33607 6.47924 4.96491 6.6801C6.59376 6.88096 8.07704 5.72335 8.2779 4.09451Z" fill="#C8161D"/>
<path d="M70.9403 38.8091H6.09011C3.31348 38.8091 1.0625 36.5581 1.0625 33.7815C1.0625 31.0049 3.31348 28.7539 6.09011 28.7539H70.9446C73.7212 28.7539 75.9722 31.0049 75.9722 33.7815C75.9722 36.5581 73.7212 38.8091 70.9446 38.8091H70.9403Z" fill="#C8161D"/>
<path d="M81.9886 38.1351H82.8492V36.3632H87.6987V37.2534C87.6987 37.3212 87.6775 37.4018 87.4995 37.4018C87.4444 37.4018 87.3426 37.4018 87.19 37.406C87.0417 37.406 86.8679 37.406 86.6729 37.406C86.4779 37.406 86.2744 37.3933 86.0667 37.3806H85.9946L86.0243 37.4399C86.0709 37.5332 86.1218 37.6476 86.1811 37.7833C86.2362 37.9105 86.2701 38.0249 86.2829 38.1182V38.1521H86.3252C86.7661 38.1521 87.1307 38.1436 87.4147 38.1309C87.6987 38.1182 87.9319 38.0843 88.1057 38.0292C88.2837 37.9741 88.4067 37.8808 88.4745 37.7579C88.5381 37.6349 88.572 37.4654 88.572 37.2492V32.8574H81.9844V38.1309L81.9886 38.1351ZM82.8492 34.2775V33.5569H87.6987V34.2775H82.8492ZM87.6987 34.9346V35.6849H82.8492V34.9346H87.6987Z" fill="white"/>
<path d="M85.7287 30.624H88.8403V29.9161H85.7287V28.9453H84.8682V31.5227H83.1471V29.5473H82.295V31.5227H80.7266V32.2476H89.8068V31.5227H85.7287V30.624Z" fill="white"/>
<path d="M91.6007 35.1176C91.5795 35.338 91.5498 35.5839 91.5074 35.8467C91.4693 36.1096 91.4184 36.3724 91.3633 36.6352C91.3082 36.8896 91.2446 37.1185 91.1768 37.3135L91.1641 37.3516L91.7109 37.5721L91.7236 37.5297C91.7872 37.3347 91.8423 37.1058 91.8932 36.8302C91.9441 36.5632 91.9865 36.2876 92.0288 36.0163C92.0712 35.7408 92.1051 35.4907 92.1348 35.2702V35.2363L91.6092 35.0625V35.1134L91.6007 35.1176Z" fill="white"/>
<path d="M93.9927 33.0898H95.044V32.4115H93.9927V31.5425H95.044V30.877H93.9927V30.0673H95.2602V29.3594H91.6484V34.6456H94.6158C94.5904 35.1119 94.565 35.5104 94.5353 35.8325C94.4971 35.735 94.459 35.6333 94.4081 35.5231C94.3021 35.2814 94.1919 35.061 94.0732 34.8702L94.0563 34.8406L93.6239 34.9847L93.6493 35.0271C93.768 35.2306 93.8782 35.4552 93.9757 35.6969C94.0732 35.9385 94.141 36.1505 94.175 36.3243L94.1834 36.3751L94.4929 36.248C94.4632 36.5405 94.4293 36.7694 94.3954 36.9347C94.353 37.1509 94.3021 37.295 94.2513 37.3629C94.2216 37.401 94.1877 37.4264 94.1538 37.4392C94.1114 37.4519 94.0563 37.4561 93.9927 37.4561C93.9291 37.4561 93.8274 37.4561 93.6832 37.4519C93.5391 37.4519 93.3695 37.4392 93.1872 37.4264H93.1025L93.1533 37.49C93.2042 37.5663 93.2466 37.6596 93.272 37.7698C93.2975 37.8843 93.3144 37.986 93.3229 38.075V38.1132H93.361C93.5391 38.1217 93.7087 38.1217 93.874 38.1217C94.0393 38.1217 94.1707 38.1217 94.2725 38.1132C94.3954 38.1005 94.5014 38.075 94.5904 38.0369C94.6837 37.9987 94.7684 37.9267 94.8405 37.8334C94.9295 37.7274 95.0016 37.5494 95.0567 37.295C95.1118 37.0449 95.1627 36.6761 95.2093 36.1971C95.2559 35.7181 95.2941 35.0907 95.328 34.2852C95.3365 34.2386 95.3407 34.1369 95.3407 33.9715V33.9292H93.9884V33.0898H93.9927ZM93.3059 30.877H92.3606V30.0673H93.3059V30.877ZM93.3059 33.9292H92.3606V33.0898H93.3059V33.9292ZM93.3059 32.4115H92.3606V31.5425H93.3059V32.4115Z" fill="white"/>
<path d="M92.7795 35.21L92.771 35.1719L92.3047 35.2312L92.3132 35.2736C92.3598 35.5619 92.3979 35.8756 92.4276 36.2105C92.4531 36.5454 92.4615 36.8379 92.4488 37.088V37.1388L92.9363 37.0795V37.0413C92.9363 36.7955 92.9236 36.4987 92.8982 36.1554C92.8727 35.8077 92.8346 35.4898 92.7795 35.21Z" fill="white"/>
<path d="M93.3779 36.7865V36.8332L93.8485 36.7145V36.6806C93.8315 36.4686 93.7891 36.2058 93.7128 35.909C93.6408 35.6081 93.5518 35.3283 93.4585 35.0824L93.4458 35.0527L92.9922 35.1375L93.0091 35.1841C93.0982 35.4427 93.1787 35.7225 93.2465 36.0193C93.3144 36.316 93.361 36.5746 93.3822 36.7908L93.3779 36.7865Z" fill="white"/>
<path d="M98.5155 32.7214H100.419V32.0855H98.5155V31.5726H100.597V29.3301H95.6753V31.5726H97.6931V32.0855H95.8618V32.7214H97.6931V33.3021H95.3828V33.9592H99.1005C99.0497 34.1033 98.9818 34.2687 98.8928 34.4509C98.8123 34.6163 98.7402 34.7604 98.6681 34.8876H97.5151C97.4769 34.7646 97.4176 34.6248 97.3371 34.4637C97.248 34.2899 97.1548 34.133 97.0573 33.9931L97.0403 33.9677L96.4002 34.1712L96.4299 34.2178C96.5189 34.3619 96.5994 34.523 96.6757 34.6968C96.7054 34.7646 96.7309 34.8282 96.7521 34.8876H95.8279V35.5531H97.6889V36.1636H95.5269V36.8121H97.6889V38.139H98.5113V36.8121H100.758V36.1636H98.5113V35.5531H100.436V34.8876H99.4227C99.4566 34.8325 99.4948 34.7774 99.5287 34.718C99.6347 34.5442 99.7449 34.3662 99.8551 34.1881L99.8848 34.1415L99.2235 33.9592H100.868V33.3021H98.5071V32.7214H98.5155ZM98.4859 29.9787V30.9155H97.7143V29.9787H98.4859ZM99.0963 30.9155V29.9787H99.8678V30.9155H99.0963ZM97.0997 29.9787V30.9155H96.379V29.9787H97.0997Z" fill="white"/>
<path d="M103.689 36.0916C104.121 36.011 104.6 35.922 105.13 35.8203C105.66 35.7185 106.207 35.6168 106.749 35.5193L106.788 35.5108L106.749 34.9004L106.703 34.9089C106.131 35.0148 105.554 35.1123 104.999 35.2056C104.469 35.2946 103.986 35.3709 103.566 35.4345H103.523L103.655 36.0958L103.693 36.0873L103.689 36.0916Z" fill="white"/>
<path d="M108.612 30.9835C108.823 31.1149 108.989 31.2378 109.103 31.3523L109.133 31.3819L109.565 30.9241L109.536 30.8944C109.417 30.78 109.243 30.657 109.023 30.5299C108.807 30.4069 108.595 30.2967 108.391 30.2119L108.366 30.1992L107.938 30.6189L107.993 30.6443C108.192 30.7376 108.4 30.8478 108.612 30.9792V30.9835Z" fill="white"/>
<path d="M106.404 34.5871V32.582H104V34.5871H106.404ZM105.747 33.1204V34.0488H104.632V33.1204H105.747Z" fill="white"/>
<path d="M106.91 32.5784C106.999 33.2864 107.118 33.935 107.271 34.503C107.313 34.6556 107.355 34.7997 107.402 34.9396C106.97 35.4526 106.453 35.8765 105.855 36.2071L105.795 36.241L105.851 36.2792C105.897 36.3131 105.948 36.3597 106.003 36.4191C106.063 36.4827 106.122 36.542 106.177 36.5971C106.232 36.6522 106.27 36.6989 106.296 36.737L106.317 36.7667L106.351 36.7455C106.851 36.4403 107.3 36.0715 107.703 35.6433C107.754 35.7408 107.809 35.8299 107.868 35.9146C108.114 36.2834 108.424 36.5081 108.784 36.5802C109.077 36.6862 109.322 36.6268 109.509 36.4064C109.691 36.1902 109.818 35.8171 109.899 35.2618V35.2279L109.873 35.2152C109.827 35.1982 109.772 35.1685 109.708 35.1304C109.64 35.0922 109.581 35.0499 109.526 35.0032C109.467 34.9566 109.416 34.9142 109.365 34.876L109.305 34.8294L109.297 34.9057C109.263 35.2237 109.221 35.4822 109.174 35.673C109.136 35.8341 109.085 35.9146 109.034 35.9104C108.792 35.8722 108.576 35.6984 108.398 35.389C108.335 35.283 108.275 35.1601 108.22 35.0287C108.729 34.3419 109.119 33.5195 109.382 32.5912L109.394 32.5488L108.678 32.4131L108.67 32.4513C108.5 33.0871 108.254 33.6679 107.945 34.1893C107.945 34.1724 107.936 34.1554 107.932 34.1427C107.805 33.6297 107.703 33.0405 107.631 32.4004C107.618 32.2817 107.606 32.163 107.593 32.0401H109.81V31.4042H107.533C107.508 31.0693 107.487 30.7217 107.466 30.3741V30.3359H106.703V30.3783C106.728 30.7259 106.753 31.0651 106.783 31.4042H103.625V32.0401H106.847C106.868 32.2266 106.889 32.4089 106.91 32.5869V32.5784Z" fill="white"/>
<path d="M102.317 38.1734H103.148V37.7071H110.244V38.1734H111.096V29.3984H102.312V38.1734H102.317ZM110.244 30.1657V36.9526H103.148V30.1657H110.244Z" fill="white"/>
<path d="M121.763 34.4551H116.32V35.1715H118.618V37.2995C118.618 37.3546 118.605 37.3716 118.601 37.3801C118.597 37.3843 118.576 37.4013 118.491 37.4098C118.431 37.4182 118.308 37.4182 118.13 37.414C117.948 37.414 117.736 37.4055 117.486 37.397H117.41L117.448 37.4606C117.503 37.5496 117.554 37.6556 117.601 37.7786C117.647 37.8973 117.677 38.0032 117.69 38.1007V38.1346H117.732C118.037 38.1346 118.3 38.1304 118.508 38.1219C118.724 38.1134 118.906 38.0795 119.059 38.0244C119.207 37.9608 119.309 37.8718 119.356 37.7616C119.402 37.6556 119.428 37.503 119.428 37.3123V35.1715H121.759V34.4551H121.763Z" fill="white"/>
<path d="M122.321 33.4884C121.829 33.2552 121.397 32.9203 121.032 32.4964C120.981 32.4371 120.931 32.3777 120.884 32.3141C121.13 32.0471 121.363 31.7291 121.588 31.3603C121.85 30.9322 122.071 30.4913 122.245 30.0504L122.257 30.0165L121.761 29.741L121.626 29.7834H119.701C119.65 29.5841 119.599 29.3807 119.561 29.1729L119.553 29.1348L118.879 29.2577L118.887 29.3001C118.921 29.4654 118.959 29.6265 118.997 29.7876L118.701 29.6774L118.578 29.7071H117.548C117.628 29.5163 117.705 29.3255 117.772 29.1263L117.785 29.0839L117.09 28.9355L117.077 28.9695C116.92 29.4654 116.696 29.9445 116.416 30.3853C116.136 30.8304 115.81 31.2077 115.445 31.5172L115.398 31.5553L115.449 31.585C115.517 31.6232 115.606 31.6825 115.716 31.763C115.822 31.8394 115.903 31.9029 115.95 31.9538L115.979 31.9835L116.009 31.9538C116.369 31.6189 116.708 31.195 117.018 30.7033C117.103 30.5676 117.183 30.432 117.259 30.2921H118.306C118.226 30.5507 118.128 30.805 118.014 31.0509C117.972 31.0254 117.925 30.9958 117.878 30.9703C117.671 30.8516 117.476 30.7457 117.298 30.6524L117.268 30.6354L116.925 31.0551L116.971 31.0805C117.158 31.178 117.353 31.2925 117.552 31.4239C117.624 31.4705 117.692 31.5172 117.751 31.5596C117.628 31.7673 117.501 31.9623 117.361 32.1488C117.302 32.1022 117.242 32.0555 117.175 32.0047C116.971 31.8563 116.776 31.7249 116.59 31.6189L116.564 31.602L116.183 31.9792L116.225 32.0089C116.407 32.1276 116.602 32.2633 116.806 32.4243C116.878 32.4795 116.941 32.5346 117.001 32.5854C116.975 32.6109 116.95 32.6405 116.925 32.666C116.577 33.0263 116.204 33.3188 115.822 33.535L115.767 33.5647L115.818 33.6028C115.886 33.6537 115.958 33.7258 116.034 33.8148C116.111 33.9038 116.166 33.9844 116.2 34.0522L116.221 34.0946L116.259 34.0734C116.645 33.8402 117.014 33.5477 117.353 33.2044V33.6155H120.757V33.3018C121.07 33.6198 121.431 33.8911 121.829 34.103L121.863 34.12L121.884 34.0861C121.939 34.0013 122.011 33.9038 122.096 33.7978C122.181 33.6919 122.262 33.6071 122.334 33.552L122.385 33.5096L122.325 33.4799L122.321 33.4884ZM121.27 30.4023C121.236 30.4786 121.198 30.5591 121.155 30.6397C121.032 30.8898 120.892 31.1314 120.736 31.3646C120.651 31.4875 120.566 31.6062 120.481 31.7122C120.35 31.4917 120.231 31.2544 120.125 31.0085C120.04 30.8135 119.964 30.61 119.892 30.4023H121.265H121.27ZM119.506 31.3307C119.752 31.9284 120.057 32.4625 120.418 32.9203H117.62C117.933 32.5558 118.222 32.1403 118.472 31.6783C118.73 31.2035 118.938 30.6736 119.086 30.0971C119.205 30.5295 119.345 30.9407 119.506 31.3307Z" fill="white"/>
<path d="M115.883 34.3871C115.883 34.0734 115.824 33.7342 115.705 33.3739C115.587 33.0178 115.345 32.6321 114.985 32.2209C115.158 31.8224 115.332 31.3985 115.502 30.9534C115.676 30.4955 115.841 30.0589 115.985 29.6562L115.998 29.6223L115.455 29.3086L115.328 29.3425H112.992V38.1175H113.764V30.1013H115.002C115.002 30.1013 114.989 30.1395 114.985 30.1607C114.913 30.3896 114.836 30.6227 114.756 30.8516C114.671 31.0933 114.586 31.3349 114.497 31.585C114.408 31.8351 114.311 32.0725 114.217 32.2929L114.205 32.3184L114.222 32.3396C114.578 32.7296 114.819 33.0941 114.938 33.4248C115.057 33.7554 115.116 34.0564 115.116 34.3235C115.116 34.4719 115.099 34.6075 115.069 34.7304C115.04 34.8449 114.989 34.9254 114.913 34.9721C114.84 35.0187 114.747 35.0526 114.633 35.0653H114.357C114.255 35.0653 114.149 35.0653 114.043 35.0569H113.967L114.005 35.1204C114.06 35.2095 114.099 35.3154 114.128 35.4426C114.158 35.5655 114.179 35.6715 114.183 35.7563V35.7945H114.578C114.696 35.7945 114.811 35.7945 114.917 35.7817C115.023 35.7606 115.12 35.7394 115.209 35.7097C115.298 35.6842 115.383 35.6419 115.468 35.5867C115.612 35.4808 115.722 35.3239 115.786 35.1077C115.849 34.9 115.879 34.6584 115.879 34.3913L115.883 34.3871Z" fill="white"/>
<path d="M121.857 36.7443C121.708 36.5493 121.551 36.3458 121.39 36.1339C121.221 35.9134 121.068 35.7227 120.928 35.5489L120.907 35.5234L120.25 35.8583L120.28 35.8965C120.432 36.0872 120.585 36.2907 120.737 36.4984C120.886 36.6977 121.034 36.9054 121.191 37.1301C121.331 37.3335 121.45 37.5116 121.539 37.6557L121.56 37.6896L122.259 37.2912L122.234 37.253C122.136 37.1089 122.013 36.9351 121.861 36.7401L121.857 36.7443Z" fill="white"/>
<path d="M117.63 35.7868L116.871 35.5664L116.854 35.5961C116.701 35.8759 116.523 36.1684 116.32 36.4651C116.121 36.7576 115.917 37.0204 115.714 37.2536L115.68 37.296L115.731 37.3214C115.786 37.3468 115.853 37.385 115.926 37.4274C116.002 37.474 116.074 37.5206 116.142 37.563C116.21 37.6097 116.265 37.6478 116.307 37.6817L116.337 37.7072L116.362 37.6775C116.561 37.4401 116.778 37.1518 117.007 36.8127C117.231 36.4778 117.435 36.1472 117.604 35.8377L117.63 35.7911V35.7868Z" fill="white"/>
<path d="M11.1108 31.9115C11.4202 32.1616 11.611 32.505 11.6746 32.9331H11.043C10.9709 32.6491 10.8352 32.4329 10.6318 32.2972C10.4283 32.1616 10.1782 32.0938 9.86872 32.0938C9.4109 32.0938 9.06753 32.2506 8.83437 32.5643C8.61394 32.8483 8.50796 33.2426 8.50796 33.7343C8.50796 34.2261 8.61394 34.6372 8.83014 34.917C9.05481 35.2138 9.40666 35.3621 9.88144 35.3621C10.1909 35.3621 10.4537 35.2858 10.653 35.129C10.8692 34.9637 11.0175 34.7135 11.0981 34.3787H11.7297C11.6364 34.8704 11.416 35.2604 11.0642 35.5402C10.7377 35.803 10.3435 35.9344 9.88568 35.9344C9.19046 35.9344 8.66481 35.7097 8.3172 35.2689C8.00774 34.8874 7.85938 34.3787 7.85938 33.7343C7.85938 33.09 8.01198 32.594 8.33416 32.1955C8.69024 31.7419 9.20318 31.5215 9.88144 31.5215C10.3774 31.5215 10.7844 31.6444 11.1065 31.9072L11.1108 31.9115Z" fill="white"/>
<path d="M14.7163 33.0364C14.8985 33.2314 14.996 33.5197 14.996 33.8927V35.8554H14.411V35.423C14.2924 35.5756 14.144 35.7028 13.9659 35.7918C13.7625 35.8851 13.5251 35.9402 13.2538 35.9402C12.9316 35.9402 12.6815 35.8554 12.5034 35.6943C12.3084 35.5332 12.2109 35.3255 12.2109 35.0712C12.2109 34.7278 12.3466 34.4565 12.6221 34.2742C12.8722 34.0962 13.2283 34.0072 13.6819 33.9944L14.3729 33.9775V33.8545C14.3729 33.4264 14.1397 33.2102 13.6777 33.2102C13.4827 33.2102 13.3216 33.2441 13.2029 33.3162C13.0588 33.401 12.9697 33.5239 12.9358 33.6977L12.3127 33.6426C12.3763 33.3077 12.5458 33.0576 12.8087 32.905C13.0333 32.7609 13.3428 32.6973 13.7243 32.6973C14.1779 32.6973 14.5085 32.8117 14.7247 33.0364H14.7163ZM13.7201 34.4523C13.1435 34.465 12.8595 34.6685 12.8595 35.0457C12.8595 35.1644 12.9062 35.2619 13.0079 35.3382C13.1012 35.4145 13.2326 35.4569 13.3937 35.4569C13.6607 35.4569 13.8854 35.3722 14.0762 35.2111C14.2669 35.05 14.3687 34.8465 14.3687 34.6091V34.4311L13.7201 34.448V34.4523Z" fill="white"/>
<path d="M18.4119 33.9599V35.859H17.7803V34.015C17.7803 33.4936 17.5344 33.2307 17.0596 33.2307C16.8816 33.2307 16.7205 33.2901 16.5891 33.4215C16.445 33.5656 16.356 33.7606 16.3348 34.0107V35.859H15.7031V32.7856H16.3348V33.1671C16.4535 33.0103 16.5891 32.9001 16.746 32.8238C16.8986 32.739 17.0724 32.7051 17.2631 32.7051C18.0262 32.7051 18.4119 33.1205 18.4119 33.9641V33.9599Z" fill="white"/>
<path d="M19.8397 31.6113V35.3036H22.1754V35.8589H19.1953V31.6113H19.8397Z" fill="white"/>
<path d="M25.097 33.2102C25.3344 33.5197 25.4616 33.9478 25.4658 34.4947H23.1343C23.1597 34.7914 23.236 35.0245 23.3802 35.1856C23.5243 35.3425 23.7193 35.423 23.9694 35.423C24.1898 35.423 24.3679 35.3679 24.5035 35.2662C24.6095 35.1814 24.6985 35.0457 24.7833 34.8677H25.4149C25.3429 35.1517 25.2072 35.3976 24.991 35.5884C24.724 35.8215 24.3848 35.9402 23.9736 35.9402C23.5201 35.9402 23.1597 35.7961 22.8969 35.5163C22.6129 35.2195 22.4688 34.8211 22.4688 34.3166C22.4688 33.8588 22.6002 33.4773 22.8715 33.1678C23.1343 32.8541 23.4946 32.6973 23.9482 32.6973C24.4484 32.6973 24.8342 32.8626 25.097 33.2102ZM23.4014 33.4264C23.2699 33.562 23.1809 33.7613 23.147 34.0199H24.8045C24.7452 33.4857 24.4654 33.2187 23.9652 33.2187C23.7278 33.2187 23.5413 33.2823 23.4014 33.4264Z" fill="white"/>
<path d="M28.3881 33.0364C28.5704 33.2314 28.6679 33.5197 28.6679 33.8927V35.8554H28.0829V35.423C27.9642 35.5756 27.8159 35.7028 27.6378 35.7918C27.4343 35.8851 27.1969 35.9402 26.9256 35.9402C26.6035 35.9402 26.3534 35.8554 26.1753 35.6943C25.9803 35.5332 25.8828 35.3255 25.8828 35.0712C25.8828 34.7278 26.0185 34.4565 26.294 34.2742C26.5441 34.0962 26.9002 34.0072 27.3538 33.9944L28.0448 33.9775V33.8545C28.0448 33.4264 27.8116 33.2102 27.3495 33.2102C27.1545 33.2102 26.9935 33.2441 26.8748 33.3162C26.7306 33.401 26.6416 33.5239 26.6077 33.6977L25.9846 33.6426C26.0481 33.3077 26.2177 33.0576 26.4805 32.905C26.7052 32.7609 27.0147 32.6973 27.3962 32.6973C27.8498 32.6973 28.1804 32.8117 28.3966 33.0364H28.3881ZM27.3919 34.4523C26.8154 34.465 26.5314 34.6685 26.5314 35.0457C26.5314 35.1644 26.578 35.2619 26.6798 35.3382C26.773 35.4145 26.9044 35.4569 27.0655 35.4569C27.3326 35.4569 27.5573 35.3722 27.748 35.2111C27.9388 35.05 28.0405 34.8465 28.0405 34.6091V34.4311L27.3919 34.448V34.4523Z" fill="white"/>
<path d="M32.2323 31.5273V35.8555H31.6431V35.4867C31.4269 35.7834 31.109 35.9403 30.6935 35.9403C30.24 35.9403 29.8839 35.7792 29.6295 35.457C29.3921 35.1603 29.2734 34.7745 29.2734 34.304C29.2734 33.8334 29.3879 33.4773 29.6253 33.1806C29.8754 32.8584 30.2272 32.6973 30.6681 32.6973C31.0412 32.6973 31.3591 32.8754 31.6092 33.24V31.5273H32.2408H32.2323ZM30.1128 33.524C29.9814 33.702 29.9178 33.9648 29.9178 34.304C29.9178 34.6431 29.9771 34.9059 30.1043 35.0967C30.2484 35.3171 30.4774 35.4316 30.7868 35.4316C31.0624 35.4316 31.2701 35.3171 31.4227 35.1052C31.5541 34.9102 31.6177 34.6601 31.6177 34.3506V34.2955C31.6177 33.9606 31.5329 33.6935 31.3803 33.4943C31.2234 33.3035 31.0369 33.2145 30.8038 33.2145C30.4943 33.2145 30.2612 33.3163 30.1128 33.5282V33.524Z" fill="white"/>
<path d="M35.6365 31.6113V35.8589H34.9922V31.6113H35.6365Z" fill="white"/>
<path d="M39.1307 33.9599V35.859H38.499V34.015C38.499 33.4936 38.2532 33.2307 37.7784 33.2307C37.6004 33.2307 37.4393 33.2901 37.3079 33.4215C37.1637 33.5656 37.0747 33.7606 37.0535 34.0107V35.859H36.4219V32.7856H37.0535V33.1671C37.1722 33.0103 37.3079 32.9001 37.4647 32.8238C37.6173 32.739 37.7911 32.7051 37.9819 32.7051C38.7449 32.7051 39.1307 33.1205 39.1307 33.9641V33.9599Z" fill="white"/>
<path d="M40.782 32.781H41.4857V33.3024H40.782V35.0871C40.782 35.1719 40.799 35.2312 40.8371 35.2736C40.8711 35.3075 40.9262 35.333 41.0025 35.333H41.4052V35.8586H40.9007C40.6379 35.8586 40.4429 35.7866 40.3242 35.6509C40.2055 35.5195 40.1504 35.3372 40.1504 35.0913V33.3067H39.5781V32.7853H40.1504V32.0519L40.782 31.7891V32.781Z" fill="white"/>
<path d="M44.4329 33.2102C44.6703 33.5197 44.7975 33.9478 44.8018 34.4947H42.4702C42.4957 34.7914 42.572 35.0245 42.7161 35.1856C42.8602 35.3425 43.0552 35.423 43.3053 35.423C43.5258 35.423 43.7038 35.3679 43.8395 35.2662C43.9454 35.1814 44.0345 35.0457 44.1193 34.8677H44.7509C44.6788 35.1517 44.5432 35.3976 44.327 35.5884C44.0599 35.8215 43.7208 35.9402 43.3096 35.9402C42.856 35.9402 42.4957 35.7961 42.2328 35.5163C41.9488 35.2195 41.8047 34.8211 41.8047 34.3166C41.8047 33.8588 41.9361 33.4773 42.2074 33.1678C42.4702 32.8541 42.8306 32.6973 43.2841 32.6973C43.7844 32.6973 44.1701 32.8626 44.4329 33.2102ZM42.7373 33.4264C42.6059 33.562 42.5169 33.7613 42.4829 34.0199H44.1404C44.0811 33.4857 43.8013 33.2187 43.3011 33.2187C43.0637 33.2187 42.8772 33.2823 42.7373 33.4264Z" fill="white"/>
<path d="M47.163 32.7775V33.4091C47.0062 33.3625 46.8578 33.3455 46.7179 33.3455C46.5271 33.3455 46.3533 33.4218 46.205 33.5787C46.0439 33.744 45.9676 33.9644 45.9676 34.2315V35.8593H45.3359V32.786H45.9676V33.248C46.0439 33.0827 46.1456 32.9555 46.2643 32.875C46.4084 32.7563 46.5738 32.7012 46.7645 32.7012C46.9214 32.7012 47.057 32.7266 47.163 32.7775Z" fill="white"/>
<path d="M50.2557 33.9599V35.859H49.624V34.015C49.624 33.4936 49.3782 33.2307 48.9034 33.2307C48.7254 33.2307 48.5643 33.2901 48.4329 33.4215C48.2887 33.5656 48.1997 33.7606 48.1785 34.0107V35.859H47.5469V32.7856H48.1785V33.1671C48.2972 33.0103 48.4329 32.9001 48.5897 32.8238C48.7423 32.739 48.9161 32.7051 49.1069 32.7051C49.8699 32.7051 50.2557 33.1205 50.2557 33.9641V33.9599Z" fill="white"/>
<path d="M53.3647 33.0364C53.547 33.2314 53.6445 33.5197 53.6445 33.8927V35.8554H53.0595V35.423C52.9408 35.5756 52.7924 35.7028 52.6144 35.7918C52.4109 35.8851 52.1735 35.9402 51.9022 35.9402C51.58 35.9402 51.3299 35.8554 51.1519 35.6943C50.9569 35.5332 50.8594 35.3255 50.8594 35.0712C50.8594 34.7278 50.995 34.4565 51.2706 34.2742C51.5207 34.0962 51.8768 34.0072 52.3304 33.9944L53.0213 33.9775V33.8545C53.0213 33.4264 52.7882 33.2102 52.3261 33.2102C52.1311 33.2102 51.97 33.2441 51.8513 33.3162C51.7072 33.401 51.6182 33.5239 51.5843 33.6977L50.9611 33.6426C51.0247 33.3077 51.1943 33.0576 51.4529 32.905C51.6775 32.7609 51.987 32.6973 52.3685 32.6973C52.8221 32.6973 53.1527 32.8117 53.3689 33.0364H53.3647ZM52.3685 34.4523C51.792 34.465 51.508 34.6685 51.508 35.0457C51.508 35.1644 51.5546 35.2619 51.6563 35.3382C51.7496 35.4145 51.881 35.4569 52.0421 35.4569C52.3092 35.4569 52.5338 35.3722 52.7246 35.2111C52.9154 35.05 53.0171 34.8465 53.0171 34.6091V34.4311L52.3685 34.448V34.4523Z" fill="white"/>
<path d="M55.2898 32.781H55.9935V33.3024H55.2898V35.0871C55.2898 35.1719 55.3068 35.2312 55.345 35.2736C55.3789 35.3075 55.434 35.333 55.5103 35.333H55.913V35.8586H55.4086C55.1457 35.8586 54.9507 35.7866 54.832 35.6509C54.7133 35.5195 54.6582 35.3372 54.6582 35.0913V33.3067H54.0859V32.7853H54.6582V32.0519L55.2898 31.7891V32.781Z" fill="white"/>
<path d="M57.266 31.6714C57.3507 31.7477 57.3889 31.8495 57.3889 31.9766C57.3889 32.1038 57.3423 32.2013 57.2575 32.2861C57.1727 32.3624 57.0667 32.4048 56.948 32.4048C56.8251 32.4048 56.7233 32.3624 56.6386 32.2861C56.5538 32.2013 56.5156 32.0953 56.5156 31.9766C56.5156 31.858 56.558 31.752 56.6386 31.6714C56.7233 31.5866 56.8251 31.5527 56.948 31.5527C57.071 31.5527 57.1812 31.5866 57.2617 31.6714H57.266ZM57.266 32.7821V35.8555H56.6343V32.7821H57.266Z" fill="white"/>
<path d="M60.6459 33.1636C60.9214 33.4688 61.0613 33.8546 61.0613 34.3251C61.0613 34.7956 60.9257 35.1772 60.6501 35.4739C60.3661 35.7834 59.9888 35.9444 59.5268 35.9444C59.0647 35.9444 58.6874 35.7834 58.4034 35.4739C58.1278 35.1772 57.9922 34.7914 57.9922 34.3251C57.9922 33.8588 58.1278 33.4688 58.4076 33.1636C58.6874 32.8541 59.0604 32.6973 59.5268 32.6973C59.9931 32.6973 60.3661 32.8541 60.6459 33.1636ZM58.8485 33.562C58.7044 33.757 58.6408 34.0156 58.6408 34.3251C58.6408 34.6345 58.7044 34.8847 58.8485 35.0797C59.0096 35.3043 59.2343 35.423 59.5268 35.423C59.8193 35.423 60.0439 35.3043 60.2093 35.0797C60.3534 34.8762 60.4212 34.6261 60.4212 34.3251C60.4212 34.0241 60.3491 33.7613 60.2093 33.562C60.0439 33.3289 59.815 33.2187 59.5268 33.2187C59.2385 33.2187 59.0096 33.3331 58.8485 33.562Z" fill="white"/>
<path d="M64.3651 33.9599V35.859H63.7334V34.015C63.7334 33.4936 63.4876 33.2307 63.0128 33.2307C62.8347 33.2307 62.6736 33.2901 62.5422 33.4215C62.3981 33.5656 62.3091 33.7606 62.2879 34.0107V35.859H61.6562V32.7856H62.2879V33.1671C62.4066 33.0103 62.5422 32.9001 62.6991 32.8238C62.8517 32.739 63.0255 32.7051 63.2163 32.7051C63.9793 32.7051 64.3651 33.1205 64.3651 33.9641V33.9599Z" fill="white"/>
<path d="M67.4663 33.0364C67.6485 33.2314 67.746 33.5197 67.746 33.8927V35.8554H67.161V35.423C67.0424 35.5756 66.894 35.7028 66.7159 35.7918C66.5125 35.8851 66.2751 35.9402 66.0038 35.9402C65.6816 35.9402 65.4315 35.8554 65.2534 35.6943C65.0584 35.5332 64.9609 35.3255 64.9609 35.0712C64.9609 34.7278 65.0966 34.4565 65.3721 34.2742C65.6222 34.0962 65.9783 34.0072 66.4319 33.9944L67.1229 33.9775V33.8545C67.1229 33.4264 66.8897 33.2102 66.4277 33.2102C66.2327 33.2102 66.0716 33.2441 65.9529 33.3162C65.8088 33.401 65.7197 33.5239 65.6858 33.6977L65.0627 33.6426C65.1263 33.3077 65.2958 33.0576 65.5544 32.905C65.7791 32.7609 66.0885 32.6973 66.4701 32.6973C66.9237 32.6973 67.2543 32.8117 67.4705 33.0364H67.4663ZM66.4743 34.4523C65.8978 34.465 65.6138 34.6685 65.6138 35.0457C65.6138 35.1644 65.6604 35.2619 65.7621 35.3382C65.8554 35.4145 65.9868 35.4569 66.1479 35.4569C66.415 35.4569 66.6396 35.3722 66.8304 35.2111C67.0212 35.05 67.1229 34.8465 67.1229 34.6091V34.4311L66.4743 34.448V34.4523Z" fill="white"/>
<path d="M69.1707 31.5273V35.8555H68.5391V31.5273H69.1707Z" fill="white"/>
</g>
<defs>
<clipPath id="clip0_726_21508">
<rect width="123" height="39" fill="white"/>
</clipPath>
</defs>
</svg>
