<svg width="138" height="25" viewBox="0 0 138 25" fill="none" xmlns="http://www.w3.org/2000/svg">
<g clip-path="url(#clip0_725_28463)">
<path d="M40.5698 6.81074H45.4912V24.4744H40.5698V22.6279C39.6046 23.4634 38.6355 24.0357 37.6703 24.3867C36.7051 24.7376 35.6484 24.9131 34.5496 24.9131C32.0012 24.9131 29.8495 24.0357 27.9572 22.2769C26.1107 20.5182 25.1875 18.3207 25.1875 15.6845C25.1875 13.0483 26.065 10.7212 27.8695 9.00439C29.6702 7.24565 31.8257 6.41016 34.3741 6.41016C35.5606 6.41016 36.6593 6.63143 37.6703 7.02438C38.6813 7.42114 39.6465 8.03537 40.5278 8.82508V6.80311H40.5736L40.5698 6.81074ZM35.3851 10.4579C33.8477 10.4579 32.6154 10.9424 31.6082 11.9076C30.5972 12.8728 30.1127 14.1051 30.1127 15.6426C30.1127 17.18 30.6392 18.4123 31.6502 19.4195C32.6612 20.3847 33.9354 20.915 35.4271 20.915C36.9188 20.915 38.2388 20.4305 39.2498 19.4652C40.2607 18.5 40.7872 17.2258 40.7872 15.6426C40.7872 14.0593 40.2607 12.8728 39.2498 11.9076C38.2388 10.9424 36.9645 10.4579 35.3813 10.4579H35.3851Z" fill="#1A1A1A"/>
<path d="M46.7694 6.80973H51.6909V8.61043C52.7896 7.77494 53.8006 7.16072 54.7238 6.8517C55.6471 6.50071 56.5703 6.36719 57.4935 6.36719C59.4278 6.36719 61.0949 6.98141 62.4569 8.21367C63.5976 9.26662 64.1699 10.8079 64.1699 12.8261V24.4696H59.2942V16.7365C59.2942 14.6268 59.2065 13.2228 58.9852 12.5628C58.764 11.8609 58.413 11.3344 57.8865 10.9796C57.36 10.6248 56.7 10.4531 55.9523 10.4531C54.9413 10.4531 54.1058 10.7621 53.4038 11.3306C52.7018 11.9448 52.2173 12.7803 51.9083 13.8332C51.7748 14.4055 51.687 15.592 51.687 17.3927V24.4658H46.7656V6.80973H46.7694Z" fill="#1A1A1A"/>
<path d="M65.746 0.613281H70.7971V20.1234H78.1335V24.4726H65.7422V0.613281H65.746Z" fill="#C7161D"/>
<path d="M97.4265 16.9159H81.6093C81.8306 18.1901 82.4448 19.1553 83.4558 19.9031C84.4668 20.6508 85.6952 21.0018 87.2327 21.0018C89.0792 21.0018 90.6586 20.4295 91.9786 19.2888L96.1103 21.0476C95.0573 22.3676 93.8251 23.3328 92.4211 23.9928C90.9714 24.607 89.2585 24.958 87.2784 24.958C84.2035 24.958 81.697 24.0805 79.7666 22.3218C77.8324 20.5631 76.8672 18.3656 76.8672 15.7752C76.8672 13.1848 77.8324 10.8538 79.7666 9.05307C81.7008 7.29433 84.1158 6.37109 87.0152 6.37109C90.0901 6.37109 92.5966 7.24855 94.527 9.05307C96.4613 10.8118 97.4265 13.1848 97.4265 16.0842V16.9197V16.9159ZM92.5051 13.4442C92.196 12.479 91.5399 11.6435 90.5708 11.0293C89.6056 10.415 88.5069 10.106 87.2327 10.106C85.8707 10.106 84.6384 10.457 83.6313 11.159C82.9713 11.5977 82.4028 12.3455 81.8306 13.4442H92.5089H92.5051Z" fill="#C7161D"/>
<path d="M112.195 6.81074H117.116V24.4744H112.195V22.6279C111.23 23.4634 110.261 24.0357 109.295 24.3867C108.33 24.7376 107.273 24.9131 106.175 24.9131C103.626 24.9131 101.474 24.0357 99.5822 22.2769C97.7357 20.5182 96.8125 18.3207 96.8125 15.6845C96.8125 13.0483 97.69 10.7212 99.4945 9.00439C101.295 7.24565 103.451 6.41016 105.999 6.41016C107.186 6.41016 108.284 6.63143 109.295 7.02438C110.306 7.42114 111.272 8.03537 112.153 8.82508V6.80311H112.199L112.195 6.81074ZM107.01 10.4579C105.473 10.4579 104.24 10.9424 103.233 11.9076C102.222 12.8728 101.738 14.1051 101.738 15.6426C101.738 17.18 102.264 18.4123 103.275 19.4195C104.286 20.3847 105.56 20.915 107.052 20.915C108.544 20.915 109.864 20.4305 110.875 19.4652C111.886 18.5 112.412 17.2258 112.412 15.6426C112.412 14.0593 111.886 12.8728 110.875 11.9076C109.864 10.9424 108.548 10.4579 107.006 10.4579H107.01Z" fill="#C7161D"/>
<path d="M132.843 0H137.765V24.4735H132.843V22.627C131.878 23.4625 130.909 24.0348 129.944 24.3858C128.979 24.7368 127.922 24.9123 126.823 24.9123C124.275 24.9123 122.123 24.0348 120.231 22.2761C118.384 20.5173 117.461 18.3199 117.461 15.6837C117.461 13.0475 118.338 10.7203 120.143 9.00351C121.944 7.24477 124.099 6.40928 126.648 6.40928C127.834 6.40928 128.933 6.63055 129.944 7.0235C130.955 7.42026 131.92 8.03449 132.801 8.8242V0H132.847H132.843ZM127.704 10.457C126.167 10.457 124.935 10.9416 123.927 11.9068C122.916 12.872 122.432 14.1042 122.432 15.6417C122.432 17.1792 122.958 18.4114 123.969 19.4186C124.98 20.3838 126.255 20.9141 127.746 20.9141C129.238 20.9141 130.558 20.4296 131.569 19.4644C132.58 18.4992 133.106 17.2249 133.106 15.6417C133.106 14.0584 132.58 12.872 131.569 11.9068C130.516 10.9416 129.242 10.457 127.701 10.457H127.704Z" fill="#C7161D"/>
<path d="M15.4179 4.44925C17.9625 4.70105 20.2744 5.82649 22.3842 7.82176L25.8978 4.78879C24.4481 3.2933 22.6894 2.10682 20.7132 1.18739C19.2139 0.569354 17.6688 0.195479 16.0741 0.0390625L15.4141 4.44925H15.4179Z" fill="#1A1A1A"/>
<path d="M18.3789 19.9037C17.1924 20.3882 15.8305 20.6514 14.3808 20.6514C12.622 20.6514 11.0845 20.3004 9.68061 19.5984C8.27286 18.8965 7.17794 17.9275 6.43019 16.699C5.81597 15.6842 5.45354 14.5473 5.33909 13.296L0.242188 12.6055C0.284153 16.2183 1.59271 19.1521 4.18695 21.4869C6.78118 23.8141 10.1613 25.0006 14.293 25.0006C16.5324 25.0006 18.5124 24.6496 20.2674 23.9896C21.9803 23.3296 23.8268 22.1431 25.803 20.4301L22.3771 17.2217C20.9274 18.4959 19.6074 19.4191 18.3789 19.9037Z" fill="#1A1A1A"/>
<path d="M9.50254 4.5799C9.72714 2.75851 8.43269 1.0999 6.6113 0.875291C4.78991 0.650684 3.13129 1.94514 2.90669 3.76653C2.68208 5.58792 3.97653 7.24653 5.79792 7.47114C7.61932 7.69575 9.27793 6.4013 9.50254 4.5799Z" fill="#C7161D"/>
</g>
<defs>
<clipPath id="clip0_725_28463">
<rect width="137.521" height="25" fill="white" transform="translate(0.242188)"/>
</clipPath>
</defs>
</svg>
