<?xml version="1.0" encoding="UTF-8"?>
<svg xmlns="http://www.w3.org/2000/svg" version="1.1" viewBox="0 0 500 180.1">
  <defs>
    <style>
      .cls-1 {
        fill: #00a5a8;
      }

      .cls-2 {
        fill: #00a6c2;
      }
    </style>
  </defs>
  <!-- Generator: Adobe Illustrator 28.7.1, SVG Export Plug-In . SVG Version: 1.2.0 Build 142)  -->
  <g>
    <g id="_圖層_1" data-name="圖層_1">
      <g>
        <polygon class="cls-1" points="242.7 26.8 242.7 113.3 286.5 113.3 286.5 98 260.6 98 260.6 26.8 242.7 26.8"/>
        <path class="cls-1" d="M305.9,66.2c3.7-2.4,7.9-3.7,12.8-3.7s8.4,1.1,11.8,3.3c3.4,2.2,5.6,5,6.8,8.5h-37.7c1.8-3.9,4-6.6,6.3-8.1M292.1,58.7c-6.8,6.3-10.2,14.2-10.2,23.7s3.4,17,10.3,23.2c6.8,6.2,15.7,9.3,26.6,9.3s13.1-1.1,18.2-3.4c5.1-2.2,9.5-5.7,13.1-10.3l-14.7-6.2c-4.7,4.1-10.3,6.1-16.7,6.1s-9.9-1.3-13.4-3.9-5.7-6.1-6.5-10.6h55.9v-3c.1-10.3-3.3-18.6-10.2-24.9-6.8-6.3-15.7-9.4-26.6-9.4-10.4,0-18.9,3.1-25.8,9.4"/>
        <path class="cls-1" d="M375.2,95.3c-3.6-3.5-5.4-7.9-5.4-13.3s1.8-9.7,5.3-13.2,8-5.1,13.4-5.1,10,1.7,13.6,5.1,5.4,7.8,5.4,13.2-1.8,10-5.4,13.4-8.1,5.1-13.6,5.1c-5.3,0-9.7-1.7-13.3-5.2M361.9,58.5c-6.3,6.1-9.5,14-9.5,23.7s3.3,17.1,9.8,23.3c6.5,6.2,14.3,9.4,23.2,9.4s7.7-.6,11.1-1.9,6.8-3.4,10.2-6.3v6.6h17.4v-62.4h-17.4v6.9c-3.1-2.8-6.5-5-10.1-6.4s-7.6-2.1-11.7-2.1c-9,0-16.7,3.1-23,9.2"/>
        <path class="cls-1" d="M448.3,95.3c-3.6-3.5-5.4-7.9-5.4-13.3s1.8-9.7,5.3-13.2c3.6-3.4,8-5.1,13.4-5.1s10,1.7,13.6,5.1,5.4,7.8,5.4,13.2-1.8,10-5.4,13.4-8.1,5.1-13.6,5.1c-5.3,0-9.7-1.7-13.3-5.2M479.8,26.8v31c-3.1-2.8-6.5-5-10.1-6.4s-7.6-2.1-11.7-2.1c-9,0-16.7,3.1-23,9.2s-9.5,14-9.5,23.7,3.3,17.1,9.8,23.3c6.5,6.2,14.3,9.4,23.2,9.4s7.7-.6,11.1-1.9,6.8-3.4,10.2-6.3v6.6h17.4V26.8h-17.4Z"/>
        <path class="cls-2" d="M330.7,146.7h20v4.1h-46v-4.1h7.9v-8.1h4.9v8.1h8.3v-10.2h5v3.1h17.1v4h-17.1v3.1h0ZM346.4,174.4c0,2.2-.3,3.6-1,4.4-.7.7-2.2,1.1-4.6,1.1h-7.5l-1.2-4.5,7.9.2c1.1,0,1.6-.5,1.6-1.5v-2.7h-27.4v8.7h-4.9v-26.9h37.2v21.2ZM341.5,157.4h-27.4v3.1h27.4v-3.1ZM314.1,167.7h27.4v-3.4h-27.4v3.4Z"/>
        <path class="cls-2" d="M358.6,164v2c0,4.6-.2,8.4-.7,11.3l-2.7-.5c.6-3.5.9-7.8.9-12.8h2.5ZM373.3,148.3h-4.3v3.5h4.3v3h-4.3v3.9h5c-.3,11.6-.8,17.9-1.3,19-.6,1.1-1.5,1.7-2.7,1.9-1.3.2-2.9.3-4.8.3l-1.2-3.8c1,.1,2.1.1,3.3.1s2.3-.4,2.6-1.1c.3-.7.4-3.6.4-8.8v-4.1h-13.6v-24.2h16.9v3.8h-4.6v3.5h4.3v3ZM359.8,176.1c.2-1.7.3-3.5.3-5.5v-1.3c0-1.7,0-3.5-.1-5.2h2c.2,3,.4,7,.5,11.8l-2.7.2ZM360.5,145.3h4.8v-3.5h-4.8v3.5ZM365.3,148.3h-4.8v3.5h4.8v-3.5ZM365.3,154.8h-4.8v3.9h4.8v-3.9ZM364,173.1c-.1-3.3-.4-6.4-.8-9.2l1.9-.2c.5,2.9.8,5.9,1.1,9l-2.2.4ZM367.7,171.4c-.2-2.6-.6-5.2-1.2-7.7l1.6-.3c.5,1.7,1,4.2,1.5,7.4l-1.9.6ZM389.6,148.4v2.4h9.6v3.3h-9.6v2.6h11v3.6h-4.6c-.5,1.2-1.1,2.4-1.8,3.5h5.9v3.5h-10.5v3h9.9v3.4h-9.9v6.4h-4.1v-6.4h-9.7v-3.4h9.7v-3h-10.3v-3.5h5.9c-.7-1.6-1.3-2.7-1.8-3.5h-4.2v-3.6h10.4v-2.6h-9.7v-3.3h9.7v-2.4h-10.5v-10.4h24.6v10.4h-10ZM378.9,145.2h3.3v-3.8h-3.3v3.8ZM389.9,163.8c.9-1,1.6-2.1,2-3.5h-8.5c.7,1.1,1.3,2.3,1.7,3.5h4.8ZM385.7,145.2h3.3v-3.8h-3.3v3.8ZM395.8,141.3h-3.4v3.8h3.4v-3.8Z"/>
        <path class="cls-2" d="M26,148.5c2.6,0,4.7.6,6.4,1.7,2.7,1.8,4.1,3.8,4.1,6.2h-2.2c0-1.5-1-3-3-4.3-1.5-1-3.2-1.4-5.3-1.4s-5.1,1-7,2.9-2.8,4.4-2.8,7.4.9,5.9,2.6,7.6c1.9,1.8,4.4,2.8,7.2,2.8s4.7-.8,6.2-2.3c1.4-1.3,2-2.9,2-4.9h2.2c0,2.6-.8,4.7-2.4,6.3-2,2-4.7,3-8,3s-6.3-1-8.4-2.9c-2.4-2.3-3.6-5.5-3.6-9.5s1.3-6.9,3.8-9.3c2.2-2.2,5-3.3,8.2-3.3"/>
        <path class="cls-2" d="M54.2,170.4c.3.5.9.7,1.7.7v2.1h-1.8c-.8,0-1.5-.5-1.8-1.6-.2-.4-.3-.8-.4-1.3-.3.3-.5.7-.8,1-1.3,1.4-3.4,2-6.5,2s-3.1-.5-4.1-1.4-1.5-2.2-1.5-3.7.4-2.2,1.1-3c.9-1,2.3-1.7,4.1-2.2,2.1-.5,4.5-.9,7.4-1.2v-.8c0-1.3-.4-2.3-1.2-2.9-.8-.7-2.1-1-3.9-1s-3,.3-3.9,1-1.3,1.7-1.3,3h-2.2c0-2,.7-3.6,2.1-4.7,1.2-1,3-1.4,5.3-1.4s4.5.4,5.5,1.3c1.1.9,1.7,2.5,1.7,4.8v6.4c.1,1.5.2,2.4.5,2.9M51.6,164c-4.2.6-6.9,1.1-8.2,1.6-1.5.6-2.2,1.4-2.2,2.7s.3,1.5.8,2c.7.7,1.9,1,3.5,1,2.3,0,3.9-.5,4.9-1.4.6-.6,1-1.4,1.2-2.3h0v-3.6Z"/>
        <path class="cls-2" d="M58.1,155.4h2.2v2.2c.4-.6.8-1,1.2-1.2,1.5-.9,3.1-1.4,4.9-1.4s2.5.2,3.5.7,1.7,1.1,2.3,1.9c.6.8.9,2.3.9,4.5v11h-2.1v-11c0-1.7-.4-2.9-1.3-3.7-.9-.9-2.2-1.3-4-1.3s-2.1.3-2.8.7c-.9.6-1.6,1.3-1.9,2.1-.3.7-.5,1.6-.6,2.6v10.6h-2.2v-17.7h0Z"/>
        <polygon class="cls-2" points="79.4 148.7 79.4 171.1 93.6 171.1 93.6 173.1 77.3 173.1 77.3 148.7 79.4 148.7"/>
        <path class="cls-2" d="M99.1,169.4c1.2,1.3,2.7,1.9,4.8,1.9s2.6-.3,3.6-1c1-.6,1.4-1.4,1.4-2.4h2.2c0,1.7-.7,3-2.1,4s-3.1,1.5-5.1,1.5c-2.9,0-5.1-1-6.6-2.8-1.4-1.7-2.1-3.6-2.1-6s.8-5.5,2.4-7.2c1.5-1.5,3.5-2.3,5.9-2.3s4.3.8,5.7,2.3c1.4,1.6,2.1,3.5,2.1,5.9v1.6h-14c0,1.8.6,3.3,1.8,4.5M109.1,162.8c0-1.5-.5-2.8-1.4-3.8-1.1-1.2-2.5-1.8-4.2-1.8s-3.4.6-4.5,1.8c-.9.9-1.4,2.2-1.6,3.8h11.7Z"/>
        <path class="cls-2" d="M128.7,170.4c.3.5.9.7,1.7.7v2.1h-1.8c-.8,0-1.5-.5-1.8-1.6-.2-.4-.3-.8-.4-1.3-.3.3-.5.7-.8,1-1.3,1.4-3.4,2-6.5,2s-3.1-.5-4.1-1.4-1.5-2.2-1.5-3.7.4-2.2,1.1-3c.9-1,2.3-1.7,4.1-2.2,2.1-.5,4.5-.9,7.4-1.2v-.8c0-1.3-.4-2.3-1.2-2.9-.8-.7-2.1-1-3.9-1s-3,.3-3.9,1-1.3,1.7-1.3,3h-2.2c0-2,.7-3.6,2.1-4.7,1.2-1,3-1.4,5.3-1.4s4.5.4,5.5,1.3c1.1.9,1.7,2.5,1.7,4.8v6.4c.1,1.5.3,2.4.5,2.9M126.2,164c-4.2.6-6.9,1.1-8.2,1.6-1.5.6-2.2,1.4-2.2,2.7s.3,1.5.8,2,1.9,1,3.5,1c2.3,0,3.9-.5,4.9-1.4.6-.6,1-1.4,1.3-2.3h0v-3.6h-.1Z"/>
        <path class="cls-2" d="M133.8,157.7c1.4-1.7,3.2-2.6,5.5-2.6s4.3.8,5.6,2.4c.2.2.4.5.5.7v-9.5h2.2v24.4h-2.2v-3.1c-.2.3-.5.7-.8,1.1-1.2,1.5-3,2.3-5.5,2.3s-3.4-.7-4.9-2.2-2.5-3.9-2.5-6.8c0-2.7.7-4.9,2.1-6.7M135.4,159c-1,1.1-1.5,2.9-1.5,5.4s.6,4.1,1.7,5.3c1,1.1,2.4,1.6,4.2,1.6s3-.6,3.9-1.7c1-1.2,1.5-2.9,1.5-5.3s-.6-4.2-1.6-5.5c-.9-1.1-2.2-1.6-4-1.6-1.6,0-3.1.6-4.2,1.8"/>
        <path class="cls-2" d="M70.8,129.3c-3.5-.2-7-.7-10.6-1.5-15.6-3.5-28.4-11.9-38.1-25C2,75.4,7.1,36,33.6,14.9c2.6-2.1,5.4-4,5.4-4,1.4-1,3.5-2.2,6.2-3.6,0,0,3.2-1.6,6.7-2.9,7.1-2.6,14.2-3.9,21.2-4.1-5.5-.5-12.8-.6-21,1.3-7.5,1.7-23.4,6.6-36.1,21.3C-1.3,42.8-.2,66.1.1,70.4c.2,3.4,2.4,30.2,24,46.9,9.8,7.6,19.8,10.2,23.7,11.2,12.7,3.2,23.4,2,29.4.8-2,.2-4.2.2-6.4,0"/>
        <path class="cls-1" d="M47,103.8c-16.3-12-21.5-32.3-18.6-46.8.2.2.3.5.5.7.6,1,1.3,1.9,1.8,2.8,2.6,4,4.5,8.7,5.9,14.2.3,1.2,1,2.4,1.8,3.3.6.7,2,1,2.9.7s1.4-1.8,1.3-2.6c0-.9-.5-1.8-.8-2.7l-.3-.7c-.2-.4-.3-.8-.5-1.2.3,0,.6,0,.9.3,1.6.5,3.2,1.1,4.7,1.8.7.3,1.3.8,1.5,1.1.8,1.7,2,2.4,3.3,3.1,1,.6,1.8,1.4,2.6,2.2l.9.9.6.6c.3.3.5.7.9,1,1.5,1.2,3,1.5,4.7.8,1-.4,1.5-.4,2,.2,0,0-.3.2-.4.2-2.2,1.4-2.7,3.1-1.6,5.3,2.1,4,5.3,6.7,9.4,7.9.5,0,.9.3,1.4.4.7.2,1.3.4,1.9.6,2.3.8,3.6,2.3,3.9,4.6,0,.4,0,.7,0,1.1,0,1,.2,2,.5,2.9.3,1,.9,2.5,2,3.8.2.2.4.6.7,1,.4.6.8,1.2,1.2,1.7-2.1.3-4.1.4-6.2.4-10.2,0-20.4-3.2-29-9.6M45.8,27.4c0,0,0-.2,0-.3,1-.7,2-1.4,3.1-2.1,0,0,0,.2-.2.3-.3.5-.6,1-1,1.4s-1,.7-1.7,1c0,0-.2-.1-.3-.3M58.9,9.6c-3.2.9-6.1,2.2-6.1,2.2-2.5,1-4.4,2.1-5.7,2.8,0,0-2.6,1.5-5.1,3.2-25,17.3-32,52.2-15.7,77.8,7.9,12.4,18.8,20.7,32.5,24.7,3.2.9,6.3,1.6,9.4,2,10.8,1.5,21.2-.2,31.2-4.8l-.9-.9c-2.1-2-3.9-4.1-5.5-6.3-2.2.8-4.4,1.5-6.6,2,1.1-.8,1.9-1.7,1-3.9-.2-.5-.3-.7-.7-1.1-1.5-1.7-1.7-9.2-.7-11h0c-1.3-4.5-2-9.2-2-14.1s.7-9.7,1.9-14.2c-.9-.9-1.9-1.6-3-1.9s-2.3,0-3.3.5c-.8.5-1.4,1.1-1.9,1.8l-.7.7-1.2,1.2c-.8.9-1.6,1.7-2.4,2.3-1.3,1-2.7.8-4.7-.6-.8-.5-1.4-.9-2.1-.8s-1.1.8-1.6,1.5v.2c-.8,1.2-1.5,2.3-2.3,3.5-.6.9-.9.9-2.1.5-.8-.3-1.7-.4-2.6-.5h-1.3c-.3,0-.6,0-.8,0-1.3-.4-1.6-.7-1.6-.8,0-.4,0-1.3.5-1.7.6-.6,1.3-1.1,2-1.7.4-.3.8-.6,1.2-.9.7-.5,1.2-1,1.8-1.6.6-.7.6-1.3.5-1.7,0-.4-.5-.9-1.4-1.1-.5,0-1.1,0-1.6,0-1.2,0-2.3.2-3.5.3-1.1,0-2.1.2-3.2.2h-1.5c-.6,0-.9-.2-1-.4,0-.2,0-.5,0-1,1.8-4.4,5.5-9,12.5-6,1.1.5,2.1,1.1,3.2,1.7.9.5,1.8,1.1,2.7,1.6,1.8.9,3.6,1.5,5.3,1.8,1,.2,2.5-.4,3.2-1.3.8-1.2.4-2.7-.9-3.8-.9-.7-1.7-1.3-2.6-1.7-2-1-3.7-3.2-4.3-5.6-.6-2.3,0-4.6,1.2-6.5,1.2-1.6,2.6-3.6,2.2-6.6l-.2-1.4-1.9,1.7c-.4.4-.8.7-1.2,1-.2.2-.3.3-.5.4.2-.6.6-1.2,1.1-1.6.6-.5.5-1.1.4-1.3,0,0-.2-.4-.7-.6.3-.3.7-.8,1.1-1.2.7-.9,1.6-1.9,2.1-3,.3-.6.3-1.4.2-2v-1.2l-1.1-.3-1.4.9c-.6.4-1.1.8-1.7,1.1-.6.4-1,.6-1.2.5-.2,0-.5-.4-.8-1-.4-.7-1.2-1.2-2-1.2s-1.7.4-2.2,1.1c-.3.5-.6,1-.9,1.5-.2.3-.3.7-.5,1-.3.5-.7,1.1-1.3,1.2s-1.2-.4-1.6-.8c-.4-.4-1.1-.9-1.8-.8-.8,0-1.3.7-1.6,1.2-.2.3-.3.6-.5.9,0,.3-.3.6-.4.8-.5.8-1.2,1.7-1.9,2.4-1,1-1.5.9-1.8.7-.9-.5-.6-1.5-.3-2,.5-1.2,1.3-2.2,2-3.3l.2-.2c.5-.7.9-1.3,1.4-1.9.7-1,1.5-2,2.2-3.1,1-1.6.8-3.4-.4-4.8-.5-.6-1-.9-1.5-1h0c0,0,.3-.2.4,0,2.8,1.3,5.7,1.1,7.9.7,1-.2,1.9-.4,2.3-1.1.4-.6.2-1.3,0-2.2.2-.2.5-.4.7-.6,1.6-1.4,3.2-2.8,5.4-2.5,1.4.2,3,.5,4.8,1.1,0,0,.2.2.4,1.2,0,.4,0,.8,0,1.2s0,.9,0,1.3c.2,1,.8,1.7,1.6,2.1s1.8.4,2.7,0c.3,0,.5-.3.8-.5l.6-.3c.6-.3.8-.3.9-.3s.3.2.6.8c.4,1,.8,1.8,1.6,2.1.8.3,1.7-.3,2.6-.9.3-.2.9-.3,1.4-.3h.2c0,0,.3,0,.5,0,.2,0,.3,0,.5,0,1.8.4,2.8-.2,3.4-.7.5-.5,1-1.5.6-3.4,0-.2,0-.4-.2-.6,0-.1,0-.2,0-.3,0-.2,0-.3,0-.4q0,0,.2.1c1.5.6,3,1.2,4.6,1.9l1.3.6c-.6,2.4.5,4.3,1.5,5.5,1.2,1.6,1.5,3.5,1.5,5.2v1.1c0,1.6,0,3.2.4,4.9.3,1.6.9,2.7,1.7,3.3.3.2.6.3.9.4,4.2-3,8.8-5.2,13.8-6.7,1-1.6,2.2-3.1,3.8-4.2l.6-.5-.4-.6c-4.9-6.8-11.3-12.3-19-16.4-8.8-4.6-17.9-7-27.2-7-5.5-.1-11,.8-16.6,2.4"/>
        <path class="cls-2" d="M153.6,50.9h17.4v62.4h-17.4v-6.6c-3.4,2.9-6.8,5-10.2,6.3s-7.1,1.9-11.1,1.9c-8.9,0-16.7-3.1-23.2-9.4-6.5-6.2-9.8-14-9.8-23.3s3.2-17.5,9.5-23.7c6.3-6.1,14-9.2,23-9.2s8.1.7,11.7,2.1c3.6,1.4,7,3.5,10.1,6.4v-6.9h0ZM135.4,63.8c-5.4,0-9.8,1.7-13.4,5.1-3.5,3.4-5.3,7.8-5.3,13.1s1.8,9.8,5.4,13.3c3.6,3.5,8.1,5.2,13.4,5.2s10-1.7,13.6-5.1,5.4-7.9,5.4-13.4-1.8-9.8-5.4-13.2c-3.7-3.4-8.2-5-13.7-5"/>
        <path class="cls-2" d="M175.6,50.9h17.4v6.4c3.9-3,7.5-5.1,10.7-6.2,3.2-1.2,6.5-1.7,9.8-1.7,6.9,0,12.7,2.2,17.5,6.5,4,3.7,6,9.1,6,16.3v41.2h-17.2v-27.4c0-7.4-.4-12.4-1.1-14.8-.7-2.4-2-4.3-3.9-5.6-1.8-1.3-4.1-1.9-6.8-1.9s-6.5,1.1-9,3.2-4.3,5.1-5.2,8.8c-.5,1.9-.8,6.2-.8,12.6v25h-17.4v-62.4h0Z"/>
        <path class="cls-2" d="M423.9,146.6h-9.3c0,1.7-.1,3.7-.2,5.9h8.4c0,6.8-.2,12.3-.4,16.7-.2,4.4-.5,7-.8,7.7s-.8,1.4-1.6,1.9c-.8.5-2.4.8-5,.8s-1.1,0-1.5-.1l-1.2-4.3h4.4c.6,0,.9-.2,1-.7s.2-3,.4-7.6c.2-4.6.3-8,.3-10.2h-4.2c-.6,9.9-2.3,17.6-5.1,23l-3.5-3.4c1.6-3,2.8-6.6,3.5-10.9.7-4.3,1.1-10.6,1.1-18.9h-4v-4.4h7.3c-.6-2-1.3-3.8-2-5.3l4.1-1.3c1,2.3,1.8,4.6,2.4,6.7h6v4.4h0ZM449.2,145.5h-18.3c-1.6,2.3-3.5,4.5-5.5,6.6l-3.3-2.6c4.4-4.4,7.4-9,8.8-13.9l4,1.3c-.3,1.1-.8,2.5-1.7,4.3h15.9v4.3h.1ZM447.5,150.8c-4.7,2-10.1,3.5-16.2,4.7v18.6c1.8-.4,4-1.1,6.6-2.2l1.1,4.1c-5.9,2.1-10,3.3-12.1,3.7l-1.2-3.7c.9-.6,1.3-1.4,1.3-2.4v-21.5c6.3-1,12.2-2.5,17.7-4.7l2.8,3.4ZM449.9,177l-3.3,2.9c-6.1-5.3-9.7-13-10.8-23.1l4-.9c.4,2.6.8,4.6,1.2,5.9,1.7-2,3-4,4.2-6l3.9,2.1c-1.7,2.8-3.9,5.8-6.7,8.9,1.3,3.7,3.8,7.1,7.5,10.2"/>
        <path class="cls-2" d="M500,174.8l-1.5,4.2h-19c-7.6,0-13-1.9-16.1-5.7-1.3,2.3-2.9,4.5-4.7,6.5l-3.3-2.6c4.1-4.4,6.7-9.1,7.8-14.3h-6.6v-4.1c2.1-2.4,4-5.3,5.7-8.5h-6.4v-4h11v4c-1.6,3-3.4,5.9-5.3,8.6h5.8v4c-.6,2.5-1.4,4.7-2.2,6.7,2.7,3.6,7.3,5.4,14,5.4,9.5,0,16.4,0,20.8-.2M466.5,142.4l-3.3,2.8c-2.1-2.5-4.4-4.6-6.9-6.3l3-3.1c2.7,1.7,5.1,3.9,7.2,6.6M482.5,145.5h-7.3c0,1.5,0,3.1-.1,4.8h7.1c.1,4.6,0,8.8-.2,12.8s-.6,6.4-.9,7.2c-.4.8-1,1.4-2,1.9-.9.4-2.5.6-4.6.5l-1-3.9c1.8.1,2.9.1,3.2-.1.4-.2.6-.5.7-.8.1-.4.3-1.9.5-4.6.2-2.7.3-5.7.3-9.1h-3.2c-.2,8.3-2,14.4-5.3,18.4l-3.1-3.1c1.7-2.1,2.9-4.8,3.6-8s1-8.5,1.1-16h-3.1v-4h5.5c-.3-1.3-.9-2.8-1.8-4.5l4.1-1.3c1,2.2,1.7,4.2,2.1,5.8h4.5v4h-.1ZM499.4,162.7h-5.7v5.4c0,2.1-.6,3.5-1.8,4-1.2.5-3.4.7-6.4.6l-1.2-4h4c.8,0,1.2-.4,1.2-1.1v-5h-5.9v-4h5.9v-2c1.5-1.5,2.6-2.8,3.6-4h-7.8v-3.2c-.5.6-1,1-1.5,1.4l-2.2-3.6c2.7-2.4,5.2-6.3,7.4-11.6l3.7,1.2c-.6,1.6-1.3,3-2,4.3h8.7v4h-10.9c-.6,1.1-1.5,2.2-2.5,3.5h12.1v4c-1.4,1.8-2.8,3.5-4.2,5v1.1h5.7l-.2,4h0Z"/>
        <polygon class="cls-2" points="178.9 147.4 170.4 147.4 170.4 173 165.8 173 165.8 147.4 157.3 147.4 157.3 143.4 178.9 143.4 178.9 147.4"/>
        <path class="cls-2" d="M191.1,156.2c-.7-.4-1.6-.7-2.6-.7-1.5,0-2.6.6-3.5,1.9-.9,1.3-1.4,3-1.4,5.1v10.5h-4.5v-21.1h4.5v4.2h.1c1.1-3,2.9-4.6,5.5-4.6s1.4.1,1.9.3v4.4Z"/>
        <path class="cls-2" d="M195.1,153.3c2.1-1.3,4.7-1.9,7.5-1.9,5.3,0,8,2.8,8,8.3v13.4h-4.4v-3.2h-.1c-1.4,2.5-3.6,3.7-6.4,3.7s-3.7-.6-4.9-1.7c-1.2-1.1-1.8-2.6-1.8-4.5,0-4,2.4-6.3,7.1-7l6.1-.8c0-3.1-1.4-4.7-4.2-4.7s-4.9.8-7,2.5v-4.1h0ZM201.6,163.2c-1.5.2-2.6.6-3.2,1.2s-1,1.4-1,2.5.3,1.7,1,2.3,1.6.9,2.6.9c1.5,0,2.7-.5,3.7-1.6s1.5-2.4,1.5-4v-1.9l-4.6.6Z"/>
        <path class="cls-2" d="M234.4,151.9l-8.2,21.1h-4.8l-7.8-21.1h4.9l4.8,14.6c.4,1.3.7,2.3.7,3.2h.1c.1-1,.3-2.1.7-3.1l5-14.6h4.6Z"/>
        <path class="cls-2" d="M255.2,163.7h-14.5c.2,4.3,2.4,6.4,6.5,6.4s4.5-.7,6.4-2.1v3.7c-1.9,1.2-4.4,1.8-7.4,1.8s-5.6-1-7.4-2.9c-1.8-1.9-2.7-4.6-2.7-8s1-5.9,2.9-8.1c1.9-2.1,4.3-3.2,7.2-3.2s5.1.9,6.7,2.7,2.4,4.3,2.4,7.4v2.3h-.1ZM250.8,160.4c0-1.8-.4-3.2-1.2-4.2-.8-1-2-1.5-3.5-1.5s-2.5.5-3.6,1.5c-1,1-1.6,2.4-1.9,4.1h10.2Z"/>
        <rect class="cls-2" x="259.8" y="141.7" width="4.5" height="31.3"/>
      </g>
    </g>
  </g>
</svg>