<?xml version="1.0" encoding="utf-8"?>
<!-- Generator: Adobe Illustrator 25.4.1, SVG Export Plug-In . SVG Version: 6.00 Build 0)  -->
<svg version="1.1" id="圖層_1" xmlns="http://www.w3.org/2000/svg" xmlns:xlink="http://www.w3.org/1999/xlink" x="0px" y="0px"
	 viewBox="0 0 520 200" style="enable-background:new 0 0 520 200;" xml:space="preserve">
<style type="text/css">
	.st0{fill:#00A5A8;}
	.st1{fill:#00A6C2;}
</style>
<g>
	<polygon class="st0" points="252.7,36.7 252.7,123.2 296.5,123.2 296.5,107.9 270.6,107.9 270.6,36.7 	"/>
	<path class="st0" d="M315.9,76.1c3.7-2.4,7.9-3.7,12.8-3.7c4.5,0,8.4,1.1,11.8,3.3c3.4,2.2,5.6,5,6.8,8.5h-37.7
		C311.4,80.3,313.6,77.6,315.9,76.1 M302.1,68.6c-6.8,6.3-10.2,14.2-10.2,23.7c0,9.3,3.4,17,10.3,23.2c6.8,6.2,15.7,9.3,26.6,9.3
		c7,0,13.1-1.1,18.2-3.4c5.1-2.2,9.5-5.7,13.1-10.3l-14.7-6.2c-4.7,4.1-10.3,6.1-16.7,6.1c-5.4,0-9.9-1.3-13.4-3.9
		c-3.5-2.6-5.7-6.1-6.5-10.6h55.9l0.1-3c0-10.3-3.4-18.6-10.3-24.9c-6.8-6.3-15.7-9.4-26.6-9.4C317.5,59.2,309,62.3,302.1,68.6"/>
	<path class="st0" d="M385.2,105.2c-3.6-3.5-5.4-7.9-5.4-13.3c0-5.3,1.8-9.7,5.3-13.2s8-5.1,13.4-5.1c5.5,0,10,1.7,13.6,5.1
		c3.6,3.4,5.4,7.8,5.4,13.2c0,5.5-1.8,10-5.4,13.4c-3.6,3.4-8.1,5.1-13.6,5.1C393.2,110.4,388.8,108.7,385.2,105.2 M371.9,68.4
		c-6.3,6.1-9.5,14-9.5,23.7c0,9.3,3.3,17.1,9.8,23.3c6.5,6.2,14.3,9.4,23.2,9.4c4,0,7.7-0.6,11.1-1.9c3.4-1.3,6.8-3.4,10.2-6.3v6.6
		h17.4V60.8h-17.4v6.9c-3.1-2.8-6.5-5-10.1-6.4c-3.6-1.4-7.6-2.1-11.7-2.1C385.9,59.2,378.2,62.3,371.9,68.4"/>
	<path class="st0" d="M458.3,105.2c-3.6-3.5-5.4-7.9-5.4-13.3c0-5.3,1.8-9.7,5.3-13.2c3.6-3.4,8-5.1,13.4-5.1c5.5,0,10,1.7,13.6,5.1
		c3.6,3.4,5.4,7.8,5.4,13.2c0,5.5-1.8,10-5.4,13.4c-3.6,3.4-8.1,5.1-13.6,5.1C466.3,110.4,461.9,108.7,458.3,105.2 M489.8,36.7v31
		c-3.1-2.8-6.5-5-10.1-6.4c-3.6-1.4-7.6-2.1-11.7-2.1c-9,0-16.7,3.1-23,9.2s-9.5,14-9.5,23.7c0,9.3,3.3,17.1,9.8,23.3
		c6.5,6.2,14.3,9.4,23.2,9.4c4,0,7.7-0.6,11.1-1.9c3.4-1.3,6.8-3.4,10.2-6.3v6.6h17.4V36.7H489.8z"/>
	<path class="st1" d="M340.7,156.6h20v4.1h-46v-4.1h7.9v-8.1h4.9v8.1h8.3v-10.2h5v3.1h17.1v4h-17.1V156.6z M356.4,184.3
		c0,2.2-0.3,3.6-1,4.4c-0.7,0.7-2.2,1.1-4.6,1.1h-7.5l-1.2-4.5l7.9,0.2c1.1,0,1.6-0.5,1.6-1.5v-2.7h-27.4v8.7h-4.9v-26.9h37.2
		L356.4,184.3z M351.5,167.3h-27.4v3.1h27.4V167.3z M324.1,177.6h27.4v-3.4h-27.4V177.6z"/>
	<path class="st1" d="M368.6,173.9v2c0,4.6-0.2,8.4-0.7,11.3l-2.7-0.5c0.6-3.5,0.9-7.8,0.9-12.8H368.6z M383.3,158.2H379v3.5h4.3v3
		H379v3.9h5c-0.3,11.6-0.8,17.9-1.3,19c-0.6,1.1-1.5,1.7-2.7,1.9c-1.3,0.2-2.9,0.3-4.8,0.3L374,186c1,0.1,2.1,0.1,3.3,0.1
		c1.5,0,2.3-0.4,2.6-1.1c0.3-0.7,0.4-3.6,0.4-8.8v-4.1h-13.6v-24.2h16.9v3.8h-4.6v3.5h4.3L383.3,158.2z M369.8,186
		c0.2-1.7,0.3-3.5,0.3-5.5v-1.3c0-1.7,0-3.5-0.1-5.2l2-0.1c0.2,3.1,0.4,7.1,0.5,11.9L369.8,186z M370.5,155.2h4.8v-3.5h-4.8V155.2z
		 M375.3,158.2h-4.8v3.5h4.8V158.2z M375.3,164.7h-4.8v3.9h4.8V164.7z M374,183c-0.1-3.3-0.4-6.4-0.8-9.2l1.9-0.2
		c0.5,2.9,0.8,5.9,1.1,9L374,183z M377.7,181.3c-0.2-2.6-0.6-5.2-1.2-7.7l1.6-0.3c0.5,1.7,1,4.2,1.5,7.4L377.7,181.3z M399.6,158.3
		v2.4h9.6v3.3h-9.6v2.6h11v3.6H406c-0.5,1.2-1.1,2.4-1.8,3.5h5.9v3.5h-10.5v3h9.9v3.4h-9.9v6.4h-4.1v-6.4h-9.7v-3.4h9.7v-3h-10.3
		v-3.5h5.9c-0.7-1.6-1.3-2.7-1.8-3.5h-4.2v-3.6h10.4V164h-9.7v-3.3h9.7v-2.4H385v-10.4h24.6v10.4H399.6z M388.9,155.1h3.3v-3.8h-3.3
		V155.1z M399.9,173.7c0.9-1,1.6-2.1,2-3.5h-8.5c0.7,1.1,1.3,2.3,1.7,3.5H399.9z M395.7,155.1h3.3v-3.8h-3.3V155.1z M405.8,151.2
		h-3.4v3.8h3.4V151.2z"/>
	<path class="st1" d="M36,158.4c2.6,0,4.7,0.6,6.4,1.7c2.7,1.8,4.1,3.8,4.1,6.2h-2.2c0-1.5-1-3-3-4.3c-1.5-1-3.2-1.4-5.3-1.4
		c-2.7,0-5.1,1-7,2.9c-1.9,1.9-2.8,4.4-2.8,7.4c0,3.4,0.9,5.9,2.6,7.6c1.9,1.8,4.4,2.8,7.2,2.8c2.6,0,4.7-0.8,6.2-2.3
		c1.4-1.3,2-2.9,2-4.9h2.2c0,2.6-0.8,4.7-2.4,6.3c-2,2-4.7,3-8,3c-3.6,0-6.3-1-8.4-2.9c-2.4-2.3-3.6-5.5-3.6-9.5
		c0-3.8,1.3-6.9,3.8-9.3C30,159.5,32.8,158.4,36,158.4"/>
	<path class="st1" d="M64.2,180.3c0.3,0.5,0.9,0.7,1.7,0.7v2.1h-1.8c-0.8,0-1.5-0.5-1.8-1.6c-0.2-0.4-0.3-0.8-0.4-1.3
		c-0.3,0.3-0.5,0.7-0.8,1c-1.3,1.4-3.4,2-6.5,2c-1.8,0-3.1-0.5-4.1-1.4c-1-0.9-1.5-2.2-1.5-3.7c0-1.2,0.4-2.2,1.1-3
		c0.9-1,2.3-1.7,4.1-2.2c2.1-0.5,4.5-0.9,7.4-1.2v-0.8c0-1.3-0.4-2.3-1.2-2.9c-0.8-0.7-2.1-1-3.9-1c-1.7,0-3,0.3-3.9,1
		c-0.9,0.7-1.3,1.7-1.3,3h-2.2c0-2,0.7-3.6,2.1-4.7c1.2-1,3-1.4,5.3-1.4c2.7,0,4.5,0.4,5.5,1.3c1.1,0.9,1.7,2.5,1.7,4.8v6.4
		C63.8,178.9,63.9,179.8,64.2,180.3 M61.6,173.9c-4.2,0.6-6.9,1.1-8.2,1.6c-1.5,0.6-2.2,1.4-2.2,2.7c0,0.9,0.3,1.5,0.8,2
		c0.7,0.7,1.9,1,3.5,1c2.3,0,3.9-0.5,4.9-1.4c0.6-0.6,1-1.4,1.2-2.3v0V173.9z"/>
	<path class="st1" d="M68.1,165.3h2.2v2.2c0.4-0.6,0.8-1,1.2-1.2c1.5-0.9,3.1-1.4,4.9-1.4c1.3,0,2.5,0.2,3.5,0.7
		c1,0.5,1.7,1.1,2.3,1.9c0.6,0.8,0.9,2.3,0.9,4.5v11h-2.1v-11c0-1.7-0.4-2.9-1.3-3.7c-0.9-0.9-2.2-1.3-4-1.3c-1.1,0-2.1,0.3-2.8,0.7
		c-0.9,0.6-1.6,1.3-1.9,2.1c-0.3,0.7-0.5,1.6-0.6,2.6V183h-2.2v-9.7L68.1,165.3L68.1,165.3z"/>
	<polygon class="st1" points="89.4,158.6 89.4,181 103.6,181 103.6,183 87.3,183 87.3,158.6 	"/>
	<path class="st1" d="M109.1,179.3c1.2,1.3,2.7,1.9,4.8,1.9c1.4,0,2.6-0.3,3.6-1c1-0.6,1.4-1.4,1.4-2.4h2.2c0,1.7-0.7,3-2.1,4
		c-1.4,1-3.1,1.5-5.1,1.5c-2.9,0-5.1-1-6.6-2.8c-1.4-1.7-2.1-3.6-2.1-6c0-3.1,0.8-5.5,2.4-7.2c1.5-1.5,3.5-2.3,5.9-2.3
		c2.4,0,4.3,0.8,5.7,2.3c1.4,1.6,2.1,3.5,2.1,5.9v1.6h-14C107.4,176.6,107.9,178.1,109.1,179.3 M119.1,172.7c0-1.5-0.5-2.8-1.4-3.8
		c-1.1-1.2-2.5-1.8-4.2-1.8c-1.9,0-3.4,0.6-4.5,1.8c-0.9,0.9-1.4,2.2-1.6,3.8L119.1,172.7L119.1,172.7z"/>
	<path class="st1" d="M138.7,180.3c0.3,0.5,0.9,0.7,1.7,0.7v2.1h-1.8c-0.8,0-1.5-0.5-1.8-1.6c-0.2-0.4-0.3-0.8-0.4-1.3
		c-0.3,0.3-0.5,0.7-0.8,1c-1.3,1.4-3.4,2-6.5,2c-1.8,0-3.1-0.5-4.1-1.4c-1-0.9-1.5-2.2-1.5-3.7c0-1.2,0.4-2.2,1.1-3
		c0.9-1,2.3-1.7,4.1-2.2c2.1-0.5,4.5-0.9,7.4-1.2v-0.8c0-1.3-0.4-2.3-1.2-2.9c-0.8-0.7-2.1-1-3.9-1c-1.7,0-3,0.3-3.9,1
		c-0.9,0.7-1.3,1.7-1.3,3h-2.2c0-2,0.7-3.6,2.1-4.7c1.2-1,3-1.4,5.3-1.4c2.7,0,4.5,0.4,5.5,1.3c1.1,0.9,1.7,2.5,1.7,4.8v6.4
		C138.3,178.9,138.5,179.8,138.7,180.3 M136.2,173.9c-4.2,0.6-6.9,1.1-8.2,1.6c-1.5,0.6-2.2,1.4-2.2,2.7c0,0.9,0.3,1.5,0.8,2
		c0.7,0.7,1.9,1,3.5,1c2.3,0,3.9-0.5,4.9-1.4c0.6-0.6,1-1.4,1.3-2.3v0L136.2,173.9L136.2,173.9z"/>
	<path class="st1" d="M143.8,167.6c1.4-1.7,3.2-2.6,5.5-2.6c2.4,0,4.3,0.8,5.6,2.4c0.2,0.2,0.4,0.5,0.5,0.7v-9.5h2.2V183h-2.2v-3.1
		c-0.2,0.3-0.5,0.7-0.8,1.1c-1.2,1.5-3,2.3-5.5,2.3c-1.8,0-3.4-0.7-4.9-2.2c-1.7-1.7-2.5-3.9-2.5-6.8
		C141.7,171.6,142.4,169.4,143.8,167.6 M145.4,168.9c-1,1.1-1.5,2.9-1.5,5.4c0,2.3,0.6,4.1,1.7,5.3c1,1.1,2.4,1.6,4.2,1.6
		c1.7,0,3-0.6,3.9-1.7c1-1.2,1.5-2.9,1.5-5.3c0-2.4-0.6-4.2-1.6-5.5c-0.9-1.1-2.2-1.6-4-1.6C148,167.1,146.5,167.7,145.4,168.9"/>
	<path class="st1" d="M80.8,139.2c-3.5-0.2-7-0.7-10.6-1.5c-15.6-3.5-28.4-11.9-38.1-25C12,85.3,17.1,45.9,43.6,24.8
		c2.6-2.1,5.4-4,5.4-4c1.4-1,3.5-2.2,6.2-3.6c0,0,3.2-1.6,6.7-2.9c7.1-2.6,14.2-3.9,21.2-4.1c-5.5-0.5-12.8-0.6-21,1.3
		c-7.5,1.7-23.4,6.6-36.1,21.3C8.7,52.7,9.8,76,10.1,80.3c0.2,3.4,2.4,30.2,24,46.9c9.8,7.6,19.8,10.2,23.7,11.2
		c12.7,3.2,23.4,2,29.4,0.8C85.2,139.4,83,139.4,80.8,139.2"/>
	<path class="st0" d="M57,113.7c-16.3-12-21.5-32.3-18.6-46.8c0.2,0.2,0.3,0.5,0.5,0.7c0.6,1,1.3,1.9,1.8,2.8
		c2.6,4,4.5,8.7,5.9,14.2c0.3,1.2,1,2.4,1.8,3.3c0.6,0.7,2,1,2.9,0.7c0.9-0.3,1.4-1.8,1.3-2.6c-0.1-0.9-0.5-1.8-0.8-2.7l-0.3-0.7
		c-0.2-0.4-0.3-0.8-0.5-1.2c0.3,0.1,0.6,0.1,0.9,0.3c1.6,0.5,3.2,1.1,4.7,1.8c0.7,0.3,1.3,0.8,1.5,1.1c0.8,1.7,2,2.4,3.3,3.1
		c1,0.6,1.8,1.4,2.6,2.2c0.3,0.3,0.6,0.6,0.9,0.9c0.2,0.2,0.4,0.4,0.6,0.6c0.3,0.3,0.5,0.7,0.9,1c1.5,1.2,3,1.5,4.7,0.8
		c1-0.4,1.5-0.4,2,0.2c-0.1,0.1-0.3,0.2-0.4,0.2c-2.2,1.4-2.7,3.1-1.6,5.3c2.1,4,5.3,6.7,9.4,7.9c0.5,0.1,0.9,0.3,1.4,0.4
		c0.7,0.2,1.3,0.4,1.9,0.6c2.3,0.8,3.6,2.3,3.9,4.6c0,0.4,0.1,0.7,0.1,1.1c0.1,1,0.2,2,0.5,2.9c0.3,1,0.9,2.5,2,3.8
		c0.2,0.2,0.4,0.6,0.7,1c0.4,0.6,0.8,1.2,1.2,1.7c-2.1,0.3-4.1,0.4-6.2,0.4C75.8,123.4,65.6,120.1,57,113.7 M55.8,37.3
		c0-0.1,0.1-0.2,0.1-0.3c1-0.7,2-1.4,3.1-2.1c-0.1,0.1-0.1,0.2-0.2,0.3c-0.3,0.5-0.6,1-1,1.4c-0.4,0.4-1,0.7-1.7,1
		C56.1,37.6,55.9,37.5,55.8,37.3 M68.9,19.5c-3.2,0.9-6.1,2.2-6.1,2.2c-2.5,1-4.4,2.1-5.7,2.8c0,0-2.6,1.5-5.1,3.2
		c-25,17.3-32,52.2-15.7,77.8c7.9,12.4,18.8,20.7,32.5,24.7c3.2,0.9,6.3,1.6,9.4,2c10.8,1.5,21.2-0.2,31.2-4.8
		c-0.3-0.3-0.6-0.6-0.9-0.9c-2.1-2-3.9-4.1-5.5-6.3c-2.2,0.8-4.4,1.5-6.6,2c1.1-0.8,1.9-1.7,1-3.9c-0.2-0.5-0.3-0.7-0.7-1.1
		c-1.5-1.7-1.7-9.2-0.7-11c0,0,0,0,0,0c-1.3-4.5-2-9.2-2-14.1c0-5,0.7-9.7,1.9-14.2C95,77,94,76.3,92.9,76c-1.1-0.3-2.3-0.1-3.3,0.5
		c-0.8,0.5-1.4,1.1-1.9,1.8c-0.2,0.2-0.5,0.5-0.7,0.7c-0.4,0.4-0.8,0.8-1.2,1.2c-0.8,0.9-1.6,1.7-2.4,2.3c-1.3,1-2.7,0.8-4.7-0.6
		c-0.8-0.5-1.4-0.9-2.1-0.8c-0.7,0.1-1.1,0.8-1.6,1.5l-0.1,0.2c-0.7,1.2-1.4,2.3-2.2,3.5c-0.6,0.9-0.9,0.9-2.1,0.5
		c-0.8-0.3-1.7-0.4-2.6-0.5l-0.3,0c-0.3,0-0.7,0-1,0c-0.3,0-0.6,0.1-0.8,0c-1.3-0.4-1.6-0.7-1.6-0.8c-0.1-0.4,0.1-1.3,0.5-1.7
		c0.6-0.6,1.3-1.1,2-1.7c0.4-0.3,0.8-0.6,1.2-0.9c0.7-0.5,1.2-1,1.8-1.6c0.6-0.7,0.6-1.3,0.5-1.7c-0.1-0.4-0.5-0.9-1.4-1.1
		c-0.5-0.1-1.1-0.1-1.6-0.1c-1.2,0.1-2.3,0.2-3.5,0.3c-1.1,0.1-2.1,0.2-3.2,0.2c-0.5,0-1,0-1.5,0c-0.6-0.1-0.9-0.2-1-0.4
		c-0.1-0.2-0.1-0.5,0.1-1c1.8-4.4,5.5-9,12.5-6c1.1,0.5,2.1,1.1,3.2,1.7c0.9,0.5,1.8,1.1,2.7,1.6c1.8,0.9,3.6,1.5,5.3,1.8
		c1,0.2,2.5-0.4,3.2-1.3c0.8-1.2,0.4-2.7-0.9-3.8c-0.9-0.7-1.7-1.3-2.6-1.7c-2-1-3.7-3.2-4.3-5.6c-0.6-2.3-0.1-4.6,1.2-6.5
		c1.2-1.6,2.6-3.6,2.2-6.6l-0.2-1.4l-1.9,1.7c-0.4,0.4-0.8,0.7-1.2,1c-0.2,0.2-0.3,0.3-0.5,0.4c0.2-0.6,0.6-1.2,1.1-1.6
		c0.6-0.5,0.5-1.1,0.4-1.3c-0.1-0.1-0.2-0.4-0.7-0.6c0.3-0.3,0.7-0.8,1.1-1.2c0.7-0.9,1.6-1.9,2.1-3c0.3-0.6,0.3-1.4,0.2-2
		c0-0.2,0-0.5,0-0.7l0-0.5L80,39.9l-1.4,0.9c-0.6,0.4-1.1,0.8-1.7,1.1c-0.6,0.4-1,0.6-1.2,0.5c-0.2,0-0.5-0.4-0.8-1
		c-0.4-0.7-1.2-1.2-2-1.2c-0.9,0-1.7,0.4-2.2,1.1c-0.3,0.5-0.6,1-0.9,1.5c-0.2,0.3-0.3,0.7-0.5,1C69,44.3,68.6,44.9,68,45
		c-0.6,0.1-1.2-0.4-1.6-0.8c-0.4-0.4-1.1-0.9-1.8-0.8c-0.8,0.1-1.3,0.7-1.6,1.2c-0.2,0.3-0.3,0.6-0.5,0.9c-0.1,0.3-0.3,0.6-0.4,0.8
		c-0.5,0.8-1.2,1.7-1.9,2.4c-1,1-1.5,0.9-1.8,0.7c-0.9-0.5-0.6-1.5-0.3-2c0.5-1.2,1.3-2.2,2-3.3l0.2-0.2c0.5-0.7,0.9-1.3,1.4-1.9
		c0.7-1,1.5-2,2.2-3.1c1-1.6,0.8-3.4-0.4-4.8c-0.5-0.6-1-0.9-1.5-1c0,0,0.1-0.1,0.1-0.1c0.1,0,0.3-0.1,0.4,0
		c2.8,1.3,5.7,1.1,7.9,0.7c1-0.2,1.9-0.4,2.3-1.1c0.4-0.6,0.2-1.3,0-2.2c0.2-0.2,0.5-0.4,0.7-0.6c1.6-1.4,3.2-2.8,5.4-2.5
		c1.4,0.2,3,0.5,4.8,1.1c0,0,0.2,0.2,0.4,1.2c0.1,0.4,0.1,0.8,0.1,1.2c0,0.4,0.1,0.9,0.1,1.3c0.2,1,0.8,1.7,1.6,2.1s1.8,0.4,2.7-0.1
		c0.3-0.1,0.5-0.3,0.8-0.5c0.2-0.1,0.4-0.2,0.6-0.3c0.6-0.3,0.8-0.3,0.9-0.3c0.1,0,0.3,0.2,0.6,0.8c0.4,1,0.8,1.8,1.6,2.1
		c0.8,0.3,1.7-0.3,2.6-0.9c0.3-0.2,0.9-0.3,1.4-0.3l0.2,0c0.1,0,0.3,0,0.5,0.1c0.2,0,0.3,0.1,0.5,0.1c1.8,0.4,2.8-0.2,3.4-0.7
		c0.5-0.5,1-1.5,0.6-3.4c0-0.2-0.1-0.4-0.2-0.6c0-0.1-0.1-0.2-0.1-0.3c0-0.2-0.1-0.3-0.1-0.4c0.1,0,0.1,0,0.2,0.1
		c1.5,0.6,3,1.2,4.6,1.9l1.3,0.6c-0.6,2.4,0.5,4.3,1.5,5.5c1.2,1.6,1.5,3.5,1.5,5.2l0,1.1c0,1.6,0.1,3.2,0.4,4.9
		c0.3,1.6,0.9,2.7,1.7,3.3c0.3,0.2,0.6,0.3,0.9,0.4c4.2-3,8.8-5.2,13.8-6.7c1-1.6,2.2-3.1,3.8-4.2l0.6-0.5l-0.4-0.6
		c-4.9-6.8-11.3-12.3-19-16.4c-8.8-4.6-17.9-7-27.2-7C80,17,74.5,17.9,68.9,19.5"/>
	<path class="st1" d="M163.6,60.8H181v62.4h-17.4v-6.6c-3.4,2.9-6.8,5-10.2,6.3c-3.4,1.3-7.1,1.9-11.1,1.9c-8.9,0-16.7-3.1-23.2-9.4
		c-6.5-6.2-9.8-14-9.8-23.3c0-9.6,3.2-17.5,9.5-23.7c6.3-6.1,14-9.2,23-9.2c4.2,0,8.1,0.7,11.7,2.1c3.6,1.4,7,3.5,10.1,6.4
		L163.6,60.8L163.6,60.8L163.6,60.8z M145.4,73.7c-5.4,0-9.8,1.7-13.4,5.1c-3.5,3.4-5.3,7.8-5.3,13.1c0,5.4,1.8,9.8,5.4,13.3
		c3.6,3.5,8.1,5.2,13.4,5.2c5.5,0,10-1.7,13.6-5.1c3.6-3.4,5.4-7.9,5.4-13.4c0-5.4-1.8-9.8-5.4-13.2
		C155.4,75.3,150.9,73.7,145.4,73.7"/>
	<path class="st1" d="M185.6,60.8H203v6.4c3.9-3,7.5-5.1,10.7-6.2c3.2-1.2,6.5-1.7,9.8-1.7c6.9,0,12.7,2.2,17.5,6.5
		c4,3.7,6,9.1,6,16.3v41.2h-17.2V95.9c0-7.4-0.4-12.4-1.1-14.8c-0.7-2.4-2-4.3-3.9-5.6c-1.8-1.3-4.1-1.9-6.8-1.9
		c-3.5,0-6.5,1.1-9,3.2c-2.5,2.1-4.3,5.1-5.2,8.8c-0.5,1.9-0.8,6.2-0.8,12.6v25h-17.4L185.6,60.8L185.6,60.8z"/>
	<path class="st1" d="M433.9,156.5h-9.3c0,1.7-0.1,3.7-0.2,5.9h8.4c0,6.8-0.2,12.3-0.4,16.7c-0.2,4.4-0.5,7-0.8,7.7
		c-0.3,0.7-0.8,1.4-1.6,1.9c-0.8,0.5-2.4,0.8-5,0.8c-0.6,0-1.1,0-1.5-0.1l-1.2-4.3h4.4c0.6,0,0.9-0.2,1-0.7c0.1-0.5,0.2-3,0.4-7.6
		c0.2-4.6,0.3-8,0.3-10.2h-4.2c-0.6,9.9-2.3,17.6-5.1,23l-3.5-3.4c1.6-3,2.8-6.6,3.5-10.9c0.7-4.3,1.1-10.6,1.1-18.9h-4v-4.4h7.3
		c-0.6-2-1.3-3.8-2-5.3l4.1-1.3c1,2.3,1.8,4.6,2.4,6.7h6L433.9,156.5L433.9,156.5z M459.2,155.4h-18.3c-1.6,2.3-3.5,4.5-5.5,6.6
		l-3.3-2.6c4.4-4.4,7.4-9,8.8-13.9l4,1.3c-0.3,1.1-0.8,2.5-1.7,4.3h15.9L459.2,155.4L459.2,155.4z M457.5,160.7
		c-4.7,2-10.1,3.5-16.2,4.7v18.6c1.8-0.4,4-1.1,6.6-2.2l1.1,4.1c-5.9,2.1-10,3.3-12.1,3.7l-1.2-3.7c0.9-0.6,1.3-1.4,1.3-2.4v-21.5
		c6.3-1,12.2-2.5,17.7-4.7L457.5,160.7z M459.9,186.9l-3.3,2.9c-6.1-5.3-9.7-13-10.8-23.1l4-0.9c0.4,2.6,0.8,4.6,1.2,5.9
		c1.7-2,3-4,4.2-6l3.9,2.1c-1.7,2.8-3.9,5.8-6.7,8.9C453.7,180.4,456.2,183.8,459.9,186.9"/>
	<path class="st1" d="M510,184.7l-1.5,4.2c-1.8,0-8.2,0-19,0c-7.6,0-13-1.9-16.1-5.7c-1.3,2.3-2.9,4.5-4.7,6.5l-3.3-2.6
		c4.1-4.4,6.7-9.1,7.8-14.3h-6.6v-4.1c2.1-2.4,4-5.3,5.7-8.5h-6.4v-4h11v4c-1.6,3-3.4,5.9-5.3,8.6h5.8v4c-0.6,2.5-1.4,4.7-2.2,6.7
		c2.7,3.6,7.3,5.4,14,5.4C498.7,184.9,505.6,184.9,510,184.7 M476.5,152.3l-3.3,2.8c-2.1-2.5-4.4-4.6-6.9-6.3l3-3.1
		C472,147.4,474.4,149.6,476.5,152.3 M492.5,155.4h-7.3c0,1.5,0,3.1-0.1,4.8h7.1c0.1,4.6,0,8.8-0.2,12.8c-0.2,4-0.6,6.4-0.9,7.2
		c-0.4,0.8-1,1.4-2,1.9c-0.9,0.4-2.5,0.6-4.6,0.5l-1-3.9c1.8,0.1,2.9,0.1,3.2-0.1c0.4-0.2,0.6-0.5,0.7-0.8c0.1-0.4,0.3-1.9,0.5-4.6
		c0.2-2.7,0.3-5.7,0.3-9.1H485c-0.2,8.3-2,14.4-5.3,18.4l-3.1-3.1c1.7-2.1,2.9-4.8,3.6-8c0.7-3.2,1-8.5,1.1-16h-3.1v-4h5.5
		c-0.3-1.3-0.9-2.8-1.8-4.5l4.1-1.3c1,2.2,1.7,4.2,2.1,5.8h4.5V155.4z M509.4,172.6h-5.7v5.4c0,2.1-0.6,3.5-1.8,4
		c-1.2,0.5-3.4,0.7-6.4,0.6l-1.2-4c1.9,0,3.2,0,4,0c0.8,0,1.2-0.4,1.2-1.1v-5h-5.9v-4h5.9v-2c1.5-1.5,2.6-2.8,3.6-4h-7.8v-3.2
		c-0.5,0.6-1,1-1.5,1.4l-2.2-3.6c2.7-2.4,5.2-6.3,7.4-11.6l3.7,1.2c-0.6,1.6-1.3,3-2,4.3h8.7v4h-10.9c-0.6,1.1-1.5,2.2-2.5,3.5h12.1
		v4c-1.4,1.8-2.8,3.5-4.2,5v1.1h5.7L509.4,172.6L509.4,172.6z"/>
	<polygon class="st1" points="188.9,157.3 180.4,157.3 180.4,182.9 175.8,182.9 175.8,157.3 167.3,157.3 167.3,153.3 188.9,153.3 	
		"/>
	<path class="st1" d="M201.1,166.1c-0.7-0.4-1.6-0.7-2.6-0.7c-1.5,0-2.6,0.6-3.5,1.9c-0.9,1.3-1.4,3-1.4,5.1v10.5h-4.5v-21.1h4.5
		v4.2h0.1c1.1-3,2.9-4.6,5.5-4.6c0.8,0,1.4,0.1,1.9,0.3V166.1z"/>
	<path class="st1" d="M205.1,163.2c2.1-1.3,4.7-1.9,7.5-1.9c5.3,0,8,2.8,8,8.3v13.4h-4.4v-3.2h-0.1c-1.4,2.5-3.6,3.7-6.4,3.7
		c-2.1,0-3.7-0.6-4.9-1.7c-1.2-1.1-1.8-2.6-1.8-4.5c0-4,2.4-6.3,7.1-7l6.1-0.8c0-3.1-1.4-4.7-4.2-4.7c-2.5,0-4.9,0.8-7,2.5V163.2z
		 M211.6,173.1c-1.5,0.2-2.6,0.6-3.2,1.2c-0.6,0.6-1,1.4-1,2.5c0,0.9,0.3,1.7,1,2.3c0.7,0.6,1.6,0.9,2.6,0.9c1.5,0,2.7-0.5,3.7-1.6
		c1-1.1,1.5-2.4,1.5-4v-1.9L211.6,173.1z"/>
	<path class="st1" d="M244.4,161.8l-8.2,21.1h-4.8l-7.8-21.1h4.9l4.8,14.6c0.4,1.3,0.7,2.3,0.7,3.2h0.1c0.1-1,0.3-2.1,0.7-3.1
		l5-14.6H244.4L244.4,161.8z"/>
	<path class="st1" d="M265.2,173.6h-14.5c0.2,4.3,2.4,6.4,6.5,6.4c2.3,0,4.5-0.7,6.4-2.1v3.7c-1.9,1.2-4.4,1.8-7.4,1.8
		c-3.1,0-5.6-1-7.4-2.9c-1.8-1.9-2.7-4.6-2.7-8c0-3.3,1-5.9,2.9-8.1c1.9-2.1,4.3-3.2,7.2-3.2c2.9,0,5.1,0.9,6.7,2.7
		c1.6,1.8,2.4,4.3,2.4,7.4V173.6z M260.8,170.3c0-1.8-0.4-3.2-1.2-4.2c-0.8-1-2-1.5-3.5-1.5c-1.4,0-2.5,0.5-3.6,1.5
		c-1,1-1.6,2.4-1.9,4.1L260.8,170.3L260.8,170.3z"/>
	<rect x="269.8" y="151.6" class="st1" width="4.5" height="31.3"/>
</g>
</svg>
