<svg width="80" height="26" viewBox="0 0 80 26" fill="none" xmlns="http://www.w3.org/2000/svg">
<path fill-rule="evenodd" clip-rule="evenodd" d="M39.6105 0.457445L34.2643 25.4445H27.7988L33.1473 0.457445H39.6105ZM66.8068 16.5917L70.2099 7.20919L72.1693 16.5917H66.8068ZM74.0198 25.4445H80L74.7814 0.457445H69.2633C68.0218 0.457445 66.9756 1.17774 66.512 2.28929L56.8114 25.4445H63.5981L64.9469 21.7115H73.2389L74.0198 25.4445ZM57.1474 17.2863C57.1762 10.6924 48.0286 10.3276 48.0909 7.38028C48.1127 6.48575 48.9644 5.53288 50.8336 5.28863C51.7585 5.16884 54.3122 5.07472 57.2066 6.40641L58.3414 1.10767C56.7857 0.542165 54.7851 0 52.2952 0C45.9051 0 41.4083 3.39689 41.3718 8.26004C41.329 11.8592 44.582 13.8645 47.0322 15.06C49.5494 16.2852 50.3925 17.07 50.384 18.166C50.3653 19.8431 48.3756 20.5828 46.5142 20.6116C43.2643 20.6622 41.3788 19.7334 39.8752 19.0333L38.7053 24.5086C40.2135 25.2017 43.0029 25.8061 45.8942 25.8364C52.6857 25.8364 57.1264 22.4816 57.1474 17.2863ZM30.3729 0.457445L19.8991 25.4445H13.0672L7.91234 5.50261C7.59964 4.27516 7.32895 3.824 6.37685 3.3075C4.82348 2.46431 2.25733 1.67245 0 1.18241L0.151682 0.457445H11.1529C12.5538 0.457445 13.8147 1.38854 14.1336 3.00336L16.8553 17.4637L23.5838 0.457445H30.3729Z" fill="#FEFEFE"/>
</svg>
