<svg width="1121" height="179" viewBox="0 0 1121 179" fill="none" xmlns="http://www.w3.org/2000/svg">
<path fill-rule="evenodd" clip-rule="evenodd" d="M104.7 159.202H182.3V19.1016H104.7V159.202Z" fill="#FF5F00"/>
<path fill-rule="evenodd" clip-rule="evenodd" d="M109.6 89.1C109.6 60.7 122.8 35.4 143.5 19C128.4 7.1 109.4 0 88.7 0C39.7 0 0 39.9 0 89.1C0 138.3 39.7 178.2 88.7 178.2C109.4 178.2 128.4 171.1 143.5 159.1C122.9 142.8 109.6 117.5 109.6 89.1Z" fill="#EB001B"/>
<path fill-rule="evenodd" clip-rule="evenodd" d="M284.3 144.3V140.8H283.4L282.4 143.2L281.4 140.8H280.5V144.3H281.1V141.7L282.1 143.9H282.8L283.8 141.6V144.2H284.3V144.3ZM278.6 144.3V141.4H279.8V140.8H276.9V141.4H278.1V144.3H278.6ZM287 89.1C287 138.3 247.3 178.2 198.3 178.2C177.6 178.2 158.6 171.1 143.5 159.1C164.1 142.8 177.4 117.5 177.4 89C177.4 60.6 164.2 35.3 143.5 18.9C158.6 7.1 177.6 0 198.3 0C247.3 0 287 39.9 287 89.1Z" fill="#F79E1B"/>
<path d="M1077.63 138.471C1063.38 134.832 1053.37 126.947 1049.13 112.39C1041.85 86.3095 1060.65 62.6547 1087.03 65.3841C1093.4 65.9907 1099.16 69.9331 1105.53 72.3593C1105.53 62.0482 1105.53 50.8274 1105.53 39C1110.99 39 1115.84 39 1121 39C1121 71.7527 1121 104.202 1121 137.258C1115.84 137.258 1111.3 137.258 1106.14 137.258C1105.84 134.832 1105.84 132.709 1105.53 130.89C1100.38 133.619 1095.22 136.045 1090.07 138.775C1086.12 138.471 1081.88 138.471 1077.63 138.471ZM1107.35 101.776C1107.35 88.4323 1098.56 78.7279 1086.12 78.7279C1073.69 78.4246 1064.59 88.1291 1064.29 101.17C1064.29 114.513 1073.39 124.218 1086.12 124.218C1097.95 124.218 1107.05 114.513 1107.35 101.776Z" fill="black"/>
<path d="M933.279 138.48C932.673 138.176 932.066 137.57 931.46 137.57C905.682 131.201 897.797 100.875 910.231 80.8592C918.723 66.9089 943.287 57.2044 962.09 74.1873C962.09 71.4579 962.393 69.335 962.393 66.9089C967.548 66.9089 972.401 66.9089 977.556 66.9089C977.556 90.2604 977.556 113.309 977.556 136.963C972.704 136.963 967.852 136.963 962.696 136.963C962.393 134.537 962.393 132.414 962.09 130.898C956.934 133.627 951.779 136.357 946.623 138.783C942.074 138.48 937.525 138.48 933.279 138.48ZM963.606 101.178C963.606 87.8343 954.508 78.433 942.074 78.433C929.64 78.433 920.846 88.1376 920.846 101.481C920.846 114.825 930.247 124.226 942.984 124.226C954.811 123.923 963.909 114.218 963.606 101.178Z" fill="black"/>
<path d="M498.396 138.472C493.544 136.349 488.085 134.833 483.84 131.8C470.193 122.702 465.34 103.9 471.406 87.5236C477.168 72.3603 491.118 63.2623 507.798 65.0819C514.166 65.6884 520.232 69.6309 526.6 71.7537C526.6 70.8439 526.903 68.7211 527.207 66.2949C532.059 66.2949 536.911 66.2949 542.067 66.2949C542.067 89.6464 542.067 112.998 542.067 136.653C536.911 136.653 532.362 136.653 527.207 136.653C526.903 134.227 526.6 132.104 526.6 130.587C521.445 133.317 515.986 135.743 510.83 138.169C506.585 138.472 502.339 138.472 498.396 138.472ZM527.51 101.777C527.51 88.7366 518.715 78.7289 506.281 78.7289C493.847 78.4256 484.749 87.8268 484.446 101.171C484.143 114.514 493.241 124.219 506.281 124.219C518.109 124.219 527.51 114.514 527.51 101.777Z" fill="black"/>
<path d="M729.18 138.471C728.574 138.168 728.27 137.865 727.664 137.865C697.337 132.406 693.698 100.26 702.796 82.6704C709.771 69.3267 724.631 62.6548 740.704 65.3842C754.351 67.8103 764.359 78.7279 766.179 93.8912C766.785 98.4402 766.785 102.989 767.088 108.145C749.196 108.145 732.213 108.145 715.23 108.145C715.23 124.521 732.213 128.767 756.777 118.456C758.9 121.792 761.326 125.128 763.753 128.767C757.384 134.832 749.196 136.348 741.614 138.775C737.368 138.471 733.426 138.471 729.18 138.471ZM715.533 94.4977C727.664 94.4977 739.491 94.4977 751.319 94.4977C750.409 84.1867 744.344 78.1214 734.336 78.1214C724.025 77.8181 716.746 83.8834 715.533 94.4977Z" fill="black"/>
<path d="M579.063 138.472C571.482 136.046 564.203 133.316 555.712 130.587C558.745 125.431 561.171 121.792 562.384 119.669C572.088 121.489 580.58 123.915 589.374 124.825C593.014 125.128 597.563 123.612 600.899 121.489C605.448 118.759 604.841 113.604 599.989 111.481C596.046 109.965 591.801 109.358 587.555 108.448C583.006 107.539 578.457 106.932 573.908 105.719C566.023 102.99 560.261 98.1374 559.654 89.3427C559.048 80.2447 563.294 72.663 571.785 68.7206C581.186 63.8683 591.497 64.4749 601.505 65.9912C607.267 66.901 612.726 69.3271 618.791 71.45C616.062 76.6055 614.242 80.2447 612.119 84.1872C605.751 82.3676 599.989 80.2447 594.227 79.6382C590.284 79.0316 585.432 79.3349 581.49 80.5479C579.367 81.1545 576.334 84.4904 576.334 86.9165C576.334 88.7361 579.67 91.7688 581.793 92.3753C587.858 93.8917 594.227 94.1949 600.595 95.7112C614.242 98.7439 620.611 106.932 619.701 118.456C618.791 127.251 612.119 133.923 601.202 136.955C599.079 137.562 596.956 138.169 594.833 138.775C589.374 138.472 584.219 138.472 579.063 138.472Z" fill="black"/>
<path d="M663.067 138.468C648.51 133.01 645.174 127.854 644.871 112.388C644.871 102.076 644.871 91.7654 644.871 80.5446C640.322 80.2413 635.773 80.2413 630.921 79.9381C630.921 75.3891 630.921 71.1434 630.921 66.2911C635.167 66.2911 639.716 66.2911 644.568 66.2911C644.568 59.0127 644.568 52.3409 644.568 45.0625C650.027 45.0625 654.576 45.0625 660.034 45.0625C660.034 51.7344 660.034 58.7095 660.034 65.9879C668.526 65.9879 676.411 65.9879 684.902 65.9879C684.902 70.8401 684.902 75.0858 684.902 80.2414C677.017 80.2414 668.829 80.2414 660.641 80.2414C660.641 92.6753 660.338 104.806 660.944 116.633C661.247 121.486 666.1 124.215 671.862 123.608C673.985 123.608 675.804 123.002 677.927 122.699C679.747 122.092 681.566 121.486 683.689 120.576C684.296 121.486 684.599 122.092 684.902 122.699C686.115 126.035 687.025 129.37 688.541 133.616C683.992 135.436 679.747 136.952 675.198 138.772C671.255 138.468 667.313 138.468 663.067 138.468Z" fill="black"/>
<path d="M864.739 138.475C864.133 138.172 863.83 137.868 863.223 137.565C841.994 133.926 830.167 114.517 834.413 92.3785C837.445 77.8217 849.273 66.6009 864.436 65.0845C875.657 63.8715 886.878 64.478 896.279 72.9694C893.853 76.9119 891.427 80.8543 889.001 85.1001C881.419 80.5511 874.141 76.6086 865.649 79.6413C861.404 81.1576 856.551 83.887 853.822 87.223C846.847 95.1079 847.453 109.361 854.428 117.55C862.01 126.344 874.444 126.648 889.304 118.156C891.73 122.099 894.156 125.738 897.189 131.197C890.82 133.926 885.058 136.049 878.993 138.475C874.444 138.475 869.592 138.475 864.739 138.475Z" fill="black"/>
<path d="M341.303 66.3015C346.459 66.3015 351.008 66.3015 355.86 66.3015C356.163 68.4244 356.467 70.5472 356.77 73.8831C363.138 66.908 370.417 64.1786 379.515 64.7852C388.613 65.3917 395.588 69.3342 401.047 76.9158C408.022 68.1211 417.423 64.1786 428.341 64.7852C442.594 65.3917 452.905 73.2766 453.815 87.2269C455.028 103.603 454.118 119.98 454.118 136.659C448.659 136.659 443.504 136.659 437.439 136.659C437.439 128.168 437.439 119.676 437.439 111.488C437.439 105.423 437.439 99.3575 436.832 93.2922C435.922 84.1942 430.767 79.6452 422.275 79.6452C412.874 79.342 406.202 84.1942 405.292 92.9889C404.383 101.784 404.686 110.578 404.686 119.676C404.686 125.135 404.686 130.897 404.686 137.266C400.137 137.266 395.891 137.569 391.645 136.962C390.736 136.962 389.219 134.233 389.219 132.413C388.916 122.406 389.219 112.398 389.219 102.39C389.219 99.6608 389.219 97.2346 388.916 94.5052C388.006 84.4975 383.154 79.3419 373.753 79.3419C363.442 79.3419 357.376 84.1942 356.77 94.5052C356.163 106.029 356.467 117.553 356.163 129.078C356.163 131.504 356.163 133.93 356.163 136.659C351.008 136.659 346.156 136.659 341 136.659C341.303 113.308 341.303 89.9562 341.303 66.3015Z" fill="black"/>
<path d="M1014.25 136.65C1008.79 136.65 1004.24 136.65 999.087 136.65C999.087 112.995 999.087 89.9466 999.087 66.2919C1004.24 66.2919 1009.09 66.2919 1013.95 66.2919C1014.25 68.4147 1014.25 70.5376 1014.55 74.1768C1022.14 63.5625 1032.14 63.8658 1043.06 65.0788C1041.54 69.9311 1040.33 74.4801 1038.81 79.3323C1036.69 79.029 1034.57 78.7258 1032.75 78.4225C1022.74 76.9062 1015.46 81.4552 1014.86 91.7662C1013.95 104.2 1014.25 116.634 1014.25 129.068C1014.25 131.494 1014.25 133.92 1014.25 136.65Z" fill="black"/>
<path d="M799.235 136.657C794.08 136.657 789.531 136.657 784.375 136.657C784.375 113.306 784.375 90.2574 784.375 66.6027C789.227 66.6027 794.08 66.6027 799.235 66.6027C799.235 68.7255 799.538 70.8484 799.842 74.4876C807.423 64.1765 817.431 64.1765 828.349 65.6929C826.832 70.5451 825.619 75.0941 824.103 79.9464C822.283 79.6431 820.767 79.6431 818.947 79.3398C807.12 77.217 799.842 82.6758 799.538 94.5031C799.235 106.634 799.538 118.764 799.235 131.198C799.538 132.715 799.538 134.534 799.235 136.657Z" fill="black"/>
</svg>
