<?xml version="1.0" encoding="utf-8"?>
<!-- Generator: Adobe Illustrator 27.2.0, SVG Export Plug-In . SVG Version: 6.00 Build 0)  -->
<svg version="1.1" id="圖層_1" xmlns="http://www.w3.org/2000/svg" xmlns:xlink="http://www.w3.org/1999/xlink" x="0px" y="0px"
	 viewBox="0 0 129.1 39.7" style="enable-background:new 0 0 129.1 39.7;" xml:space="preserve">
<style type="text/css">
	.st0{fill:#29357E;}
	.st1{fill:#2A357E;}
	.st2{fill:#2B367F;}
	.st3{fill:#1A2575;}
	.st4{fill:#2E3980;}
	.st5{fill:#2C377F;}
	.st6{fill:#303A82;}
	.st7{fill:#2D3880;}
	.st8{fill:#313C82;}
	.st9{fill:#2C4286;}
	.st10{fill:#2E3880;}
	.st11{fill:#3E7EB9;}
	.st12{fill:#315999;}
	.st13{fill:#3A70AD;}
	.st14{fill:#2D4E8F;}
	.st15{fill:#355695;}
	.st16{fill:#3664A1;}
	.st17{fill:#448AC5;}
	.st18{fill:#325091;}
	.st19{fill:#407FBA;}
	.st20{fill:#3B72AF;}
	.st21{fill:#385D9A;}
	.st22{fill:#335A99;}
	.st23{fill:#4B91CA;}
	.st24{fill:#384B8C;}
</style>
<g>
	<path class="st0" d="M18.4,23.3c-0.4,0.1-0.9,0.3-1.4,0.4c0.5,1.7,1.4,3.1,2.5,4.4c2.8,3.1,6.3,4.7,10.5,4.5c0.6,0,1.2-0.1,1.9-0.2
		c0.2,0.3,0.3,0.5,0.4,0.7c-5,2.3-11.2,1.4-15.5-2.8c-1.7-1.7-2.9-3.6-3.6-5.9c-1.6,0-3.3,0.2-4.9,0c-3.4-0.5-4.3-2.9-2.1-5.6
		c0.7-0.9,1.7-1.6,2.6-2.4c0.3,0.3,0.5,0.6,0.7,0.8c-0.2,0.3-0.5,0.7-0.6,1c-0.8,1.7-0.3,2.9,1.5,3.3c0.7,0.2,1.4,0.2,2.2,0.3
		c0-0.8,0-1.4,0.1-2.1C14.6,21,16.2,22.6,18.4,23.3z"/>
	<path class="st1" d="M74.2,26.2c0.7-1.4,1.3-2.7,2-4c0.2-0.4,0.2-0.8,0-1.2c-0.5-0.8-1-1.7-1.5-2.5c-0.1-0.2-0.2-0.4-0.3-0.6
		c2.1-0.9,2.5,1,3.4,2.2c0-1.1,0-2.1,0-3.2c-0.9,0-1.9,0-2.8,0c-0.5,0-0.8,0-0.8-0.6c0-0.6,0.4-0.6,0.8-0.6c0.9,0,1.8,0,2.8,0
		c0-0.9,0-1.8,0-2.6c0-0.5,0.2-0.7,0.7-0.7c1.9,0,1.6-0.1,1.6,1.5c0,0.6,0,1.1,0,1.8c1.4,0,2.7,0,4.2,0c-1.1,1.8-2.7,1.1-4.1,1.3
		c0,1,0,2,0,3.2c0.4-0.5,0.8-0.8,1-1.3c0.6-1.3,1.6-1.4,2.9-1.1c-0.6,1-1.2,2-1.8,2.9c-0.4,0.6-0.5,1.1-0.2,1.8
		c0.7,1.6,1.3,3.3,1.9,4.9c0.1,0.3,0.2,0.6,0.3,0.9c-0.7,0-1.2,0.1-1.7,0c-0.2,0-0.5-0.3-0.6-0.6c-0.6-1.4-1.1-2.9-1.8-4.3
		c0,1,0,1.9,0,2.9c0,1.6-0.4,2-2.1,2c-0.3,0-0.6,0-0.9,0c-0.2,0-0.3-0.2-0.5-0.4c0.1-0.2,0.3-0.5,0.4-0.5c0.5-0.1,0.7-0.3,0.7-0.8
		c0-1,0-2.1-0.1-3.2c-0.6,1.2-1.1,2.3-1.7,3.5c-0.8,1.6-0.8,1.6-2.7,1.3C73.5,27.5,73.8,26.9,74.2,26.2z"/>
	<path class="st2" d="M93,12.3c2.2-0.2,2.1-0.2,2.2,1.8c0,1.7,0,3.3,0.2,5c0.4,3.4,2.4,5.6,5.4,7.1c1,0.5,1.1,0.7,0.7,2
		c-3.1-1.1-5.7-2.9-7.5-5.7c-1.9,2.8-4.4,4.6-7.5,5.7c-0.4-1.1-0.3-1.5,0.6-2c4.2-2,5.7-5.5,5.7-10c0-1,0-2.1,0-3.1
		C92.8,12.9,92.9,12.6,93,12.3z"/>
	<path class="st3" d="M64.5,18.1c-0.3,0.7-0.9,1-1.6,1c-1.4,0-2.8,0-4.3,0c0,1.1,0,2.1,0,3.2c1.9,0,3.8,0,5.9,0
		c-0.6,0.7-1.1,1.1-1.8,1.1c-1.3,0-2.7,0-4.2,0c0.1,1.3,0.2,2.5,0.3,3.8c-0.8,0.2-1.6,0.3-2.5,0.3c-0.3,0-0.6-0.2-0.9-0.4
		c0-1.2,0-2.3,0-3.6c-1.2,0-2.5,0-3.7,0c-0.5,0-1,0-1.5,0c-0.5,0-0.7-0.2-0.6-0.8c0.1-0.2,0.1-0.2,0.1-0.3c1.8,0,3.6,0,5.5,0
		c0-1.1,0-2.1,0-3.2c-1.2,0-2.5,0-3.7,0c-0.5,0-1,0-1.6,0c-0.4,0-0.8,0-0.7-0.6c0-0.6,0.4-0.6,0.8-0.6c3.7,0,7.3,0,11,0
		c1,0,2,0,3.1,0.1C64.4,18.1,64.5,18.1,64.5,18.1z"/>
	<path class="st4" d="M113.4,27.5c0.7,0,1.3,0,2,0c-0.7-0.5-1.3-1-2-1.5c0-0.1,0.3-0.4,0.6-0.7c-0.3,0-0.8,0-1,0
		c-0.5,0-0.7-0.3-0.5-0.7c0.1-0.2,0.4-0.5,0.6-0.6c1.1-0.1,2.2,0,3.3,0c0.3,0,0.5-0.2,0.8-0.3c-0.3-0.1-0.6-0.3-0.9-0.3
		c-3.8,0-7.7,0-11.5,0c-0.2,0-0.4,0.1-0.6,0c-0.2-0.1-0.5-0.4-0.5-0.6c0-0.1,0.3-0.5,0.5-0.5c0.5-0.1,1.1,0,1.6,0
		c4.9,0,9.8,0,14.7,0c0.3,0,0.6,0,0.9,0.1c0,0.1,0.1,0.2,0.1,0.3c-0.5,0.3-1,0.5-1.5,0.8c-0.2,0.1-0.3,0.2-0.4,0.4
		c0.1,0.1,0.3,0.2,0.4,0.2c0.5,0,0.9,0,1.4,0c0,0.1,0.1,0.2,0.1,0.3c-0.6,0.4-1.2,0.8-1.9,1.3c0,0.2,0,0.6,0,1.1
		c0,1-0.5,1.6-1.5,1.6c-1.4,0.1-2.8,0.1-4.2,0c-0.2,0-0.2,0-0.5,0 M117.1,25.5c-0.5,0-0.9,0-1.3,0c0.3,0.8,0.5,1,0.6,1.7
		c0.9,0.1,0.8,0.1,0.8-0.9C117.2,26.1,117.1,25.8,117.1,25.5z"/>
	<path class="st5" d="M67.9,14.3c2.1,0,4,0,6.2,0c-0.6,0.9-1.3,1.3-2.2,1.2c0,1.3,0,2.5,0,3.9c0.7,0,1.4,0,2.1,0
		c-0.2,0.8-0.8,1.2-2.1,1.6c0,1.3,0,2.5,0,3.9c0.6-0.2,1.1-0.3,1.7-0.5c0.3,0.5,0.2,0.9-0.2,1.2c-1.6,1.3-3.4,2.1-5.4,2.8
		c0-0.8,0-1.4,0-2.1c0-0.2,0.4-0.4,0.7-0.4c1.5-0.5,1.2-0.1,1.2-1.6c0-1.1,0-2.2,0-3.3c-0.5,0-0.9,0-1.3,0c-0.5,0-0.8-0.1-0.8-0.7
		c0-0.6,0.3-0.8,0.8-0.7c0.4,0,0.8,0,1.3,0c0-1.3,0-2.5,0-3.9c-0.4,0-0.8,0-1.1,0C67.7,15.5,67.6,15.4,67.9,14.3z"/>
	<path class="st5" d="M104.5,14.5c-0.4-0.8-0.3-1,0.6-1c2,0,3.9,0,5.9,0c0-0.7,0-1.3,1-1.2c1.9,0.1,1.9,0,2.2,1.3c2,0,4.1,0,6.3,0
		c-0.5,0.7-1,1.1-1.7,1.1c-1.4,0-2.7,0-4.1,0c-0.2,0-0.4,0.2-0.6,0.3c0.2,0.1,0.4,0.4,0.7,0.4c1.2,0,2.4,0,3.5,0
		c0.3,0,0.5,0,0.9,0.1c-0.4,0.7-0.9,1-1.6,1c-3.8,0-7.6,0-11.3,0c-0.2,0-0.6-0.3-0.6-0.5c-0.1-0.5,0.3-0.5,0.7-0.5
		c1.4,0,2.8,0,4.2,0c0.4,0,0.7-0.1,0.5-0.7c-2,0-4.1,0-6.3,0C104.6,14.5,104.6,14.5,104.5,14.5z"/>
	<path class="st6" d="M110,19.9c-1,0-2,0-3,0c-0.9,0-0.9-0.1-0.7-1c4.1,0,8.2,0,12.5,0c-0.5,0.7-1.1,1-1.8,1.1c-0.8,0-1.6,0-2.4,0
		c-0.2,0-0.4,0.2-0.5,0.3c0.2,0.1,0.3,0.2,0.5,0.2c1.4,0,2.8,0,4.2,0c0.2,0,0.4,0.1,0.8,0.1c-0.5,0.6-0.9,1-1.6,1c-4,0-7.9,0-11.9,0
		c-0.4,0-0.7-0.1-0.7-0.6c0-0.5,0.3-0.6,0.7-0.6c1.4,0,2.9,0,4.3,0c0.2,0,0.5-0.2,0.7-0.3c-0.3-0.1-0.5-0.2-0.8-0.2
		C110.3,19.9,110.1,19.9,110,19.9z"/>
	<path class="st7" d="M62.5,16.2c-0.4-0.2-0.7-0.4-0.9-0.6c-1.6-1.8-3.8-1.7-5.9-1.6c-1.1,0.1-2,0.5-2.8,1.2
		c-1.3,1.2-2.2,1.5-3.4,1.6c-0.3-1.3-0.2-1.5,0.8-2.1c0.1-0.1,0.3-0.2,0.4-0.3c2.1-2.2,4.8-2.2,7.6-2.1c1.8,0.1,3.3,0.6,4.5,1.8
		c0.3,0.2,0.6,0.4,0.9,0.6c1,0.6,1.1,0.8,0.8,2.2C63.8,16.6,63.2,16.4,62.5,16.2z"/>
	<path class="st8" d="M103.7,16.9c5.4,0,10.7,0,16,0c1.5,0,2,0.6,1.7,2.1c0,0.2-0.3,0.4-0.5,0.4c-0.5,0.1-1.1,0-1.6,0
		c-0.1-0.1-0.1-0.1-0.1-0.2c-0.1-1.2-0.1-1.2-1.3-1.2c-4.6,0-9.1,0-13.7,0c-0.3,0-0.7-0.1-0.8-0.3C103.4,17.6,103.5,17.2,103.7,16.9
		z"/>
	<path class="st2" d="M105.6,28c-0.2-0.2-0.5-0.4-0.5-0.5c0-1,0-1.9,0-2.9c0-0.4,0.1-0.6,0.6-0.6c1.8,0,3.5,0,5.3,0
		c0.4,0,0.6,0.2,0.6,0.6c0,0.7,0,1.3,0,2c-0.1,1-0.5,1.4-1.5,1.4C108.6,28,107.1,28,105.6,28 M107.2,26.2c0,0.2,0,0.5,0.1,0.7
		c2.1,0.2,2.5-0.2,2.1-1.8c-0.7,0-1.4,0-2.1,0C107.2,25.5,107.2,25.8,107.2,26.2z"/>
	<path class="st9" d="M18.5,23.3c-2.3-0.7-3.9-2.3-5.8-3.6c0.1-0.9,0.2-1.9,0.4-2.8c0.7,0.5,1.3,1,2,1.4c0.3,0.2,0.7,0.3,1.1,0.5
		c0,0.3,0,0.7,0,1.1c0,0.2,0,0.3,0,0.4c0.1,0.4,0.1,0.8,0.2,1.3c0.8-0.1,1.7-0.3,2.6-0.4c0.4,0.7,1.4,0.8,1.2,1.7
		C19.7,22.9,19.1,23.1,18.5,23.3z"/>
	<path class="st10" d="M55.4,27c0.4,0.1,0.7,0.4,0.9,0.4c0.8,0,1.7-0.1,2.5-0.2c1.2-0.1,2.3-0.1,3.6,0c0.2,0.4,0.3,0.8,0.4,1.1
		c-4.3,0-8.6,0-12.9,0c0-0.4,0-0.8,0.1-1.1C51.8,27.1,53.5,27.1,55.4,27z"/>
	<path class="st11" d="M38.5,23.4c0-0.5-0.1-1-0.1-1.6c-0.4,0.2-0.7,0.3-1.1,0.4c-0.4-0.2-0.8-0.4-1.1-0.6c-0.3-0.2-0.5-0.6-0.8-0.8
		c0.7-0.4,1.4-0.8,2.2-1.2c1.1,0.7,2.1,1.4,3.1,2.1c-0.1,0.7-0.1,1.5-0.3,2.3C39.8,23.8,39.2,23.6,38.5,23.4z"/>
	<path class="st12" d="M17.2,14.3c-0.2,0.7-0.4,1.5-0.7,2.2c-0.5-0.1-0.8-0.2-1.2-0.4c-0.6-0.3-1.1-0.7-1.7-1
		c0.4-0.7,0.7-1.5,1.2-2.2C15.6,13.3,16.4,13.8,17.2,14.3z"/>
	<path class="st13" d="M35.4,20.8c0.3,0.3,0.6,0.6,0.9,0.8c0.3,0.2,0.7,0.4,1,0.6c-1,0.5-2.1,0.9-3.2,1.3c-0.6-0.4-1.1-0.9-1.7-1.3
		C33.4,21.8,34.3,21.3,35.4,20.8z"/>
	<path class="st13" d="M16.1,10.9c0.7-0.7,1.5-1.4,2.2-2c0.5,0.4,1,0.8,1.5,1.2c-0.5,0.7-1.1,1.5-1.7,2.2c-0.4,0-0.7-0.1-0.9-0.2
		C16.8,11.7,16.5,11.3,16.1,10.9z"/>
	<path class="st14" d="M13.6,15.1c0.6,0.3,1.1,0.7,1.7,1c0.3,0.2,0.7,0.3,1.1,0.5c0,0.7-0.1,1.3-0.1,2.1c-0.4-0.1-0.8-0.2-1.1-0.4
		c-0.7-0.4-1.3-0.9-2-1.4C13.2,16.2,13.4,15.7,13.6,15.1z"/>
	<path class="st15" d="M30.7,24.7c-1.8,0.5-3.6,0.9-5.4,1.4c-0.2,0-0.4-0.1-0.6-0.2c0.1-0.2,0.2-0.5,0.4-0.6
		c1.4-0.6,2.8-1.1,4.3-1.6C29.9,24,30.3,24.3,30.7,24.7z"/>
	<path class="st16" d="M16.1,10.9c0.4,0.4,0.8,0.8,1.2,1.1c0.2,0.2,0.5,0.2,0.8,0.2c-0.2,0.6-0.5,1.3-0.9,1.9
		c-0.8-0.4-1.6-0.9-2.4-1.4C15.2,12.1,15.6,11.6,16.1,10.9z"/>
	<path class="st17" d="M40.8,21.6c-1-0.6-2-1.3-3.1-2.1c0.4-0.4,0.9-0.7,1.4-1c0.8-0.4,1.3-0.2,1.5,0.7C40.7,20,40.7,20.7,40.8,21.6
		z"/>
	<path class="st16" d="M30.7,24.7c-0.5-0.3-0.9-0.6-1.3-1c0.9-0.5,1.9-0.9,2.9-1.4c0.6,0.4,1.1,0.8,1.7,1.3c-0.9,0.4-1.9,0.7-2.9,1
		c-0.1,0-0.2,0-0.2,0C30.9,24.6,30.8,24.7,30.7,24.7z"/>
	<path class="st18" d="M20.3,22.8c0.1-0.9-0.9-1-1.2-1.7c1-0.3,2.1-0.5,3.2-0.7c0.2,0.3,0.3,0.6,0.4,0.8c0.1,0.2,0.3,0.4,0.5,0.6
		C22.3,22.1,21.3,22.5,20.3,22.8z"/>
	<path class="st19" d="M19.9,10c-0.5-0.3-1-0.7-1.5-1.1c0-0.1,0-0.1,0-0.1c0.1-0.1,0.1-0.1,0.1-0.2c0.8-0.5,1.6-0.9,2.4-1.4
		c0.3,0.4,0.5,0.7,0.8,1.1C21.2,8.9,20.6,9.4,19.9,10z"/>
	<path class="st20" d="M38.5,23.5c0.6,0.1,1.3,0.3,1.9,0.5c-0.2,0.8-0.4,1.7-0.7,2.6c-0.6-0.2-1.1-0.4-1.6-0.6
		C38.3,25.1,38.4,24.3,38.5,23.5z"/>
	<path class="st21" d="M38.5,28.8c-0.9,0.9-1.7,1.9-2.6,2.8c-0.1,0.1-0.5,0.1-0.7,0.1c0.1-0.2,0.1-0.5,0.2-0.7c0.6-1,1.3-2,2.1-3.1
		C37.9,28.2,38.2,28.5,38.5,28.8z"/>
	<path class="st22" d="M23.3,21.8c-0.2-0.2-0.4-0.4-0.5-0.6c-0.1-0.2-0.2-0.5-0.4-0.8c0.9-0.3,1.9-0.6,2.9-0.8
		c0.2,0.4,0.4,0.8,0.6,1.1C25,21.1,24.2,21.5,23.3,21.8z"/>
	<path class="st6" d="M82.4,14.8c-0.5-0.6-0.9-1.1-1.4-1.6c0.3-0.2,0.6-0.9,1.4-0.6c0.6,0.2,1.3,1.7,1.2,2.1
		C83.5,15.2,82.9,15.2,82.4,14.8z"/>
	<path class="st16" d="M38.5,28.8c-0.3-0.3-0.6-0.6-1-0.9c0.2-0.6,0.4-1.3,0.6-1.9c0.5,0.2,1,0.4,1.6,0.6c-0.3,0.6-0.6,1.3-1,2
		C38.6,28.6,38.5,28.7,38.5,28.8C38.5,28.8,38.5,28.8,38.5,28.8z"/>
	<path class="st23" d="M21.8,8.3c-0.3-0.3-0.5-0.7-0.7-1.1c0.8-0.4,1.7-0.7,2.5-0.9c0.2,0,0.4,0.1,0.6,0.2C24.1,6.7,24,7,23.9,7.1
		C23.2,7.5,22.5,7.9,21.8,8.3z"/>
	<path class="st16" d="M25.9,20.8c-0.2-0.4-0.4-0.7-0.6-1.2c0.8-0.3,1.6-0.6,2.4-0.8c0.1,0.4,0.2,0.6,0.3,0.9
		C27.3,20.1,26.6,20.4,25.9,20.8z"/>
	<path class="st24" d="M9.6,17.2c-0.3-0.2-0.5-0.5-0.7-0.8c0.5-0.4,1-0.8,1.5-1.1c0.2-0.1,0.5,0,0.7,0C11,15.5,11,15.8,10.9,16
		C10.5,16.4,10.1,16.8,9.6,17.2z"/>
	<path class="st20" d="M28.1,19.7c-0.1-0.3-0.2-0.6-0.3-0.9c0.4-0.3,0.9-0.5,1.3-0.6c0.2-0.1,0.4,0.1,0.6,0.1
		c-0.1,0.2-0.1,0.5-0.2,0.6C29.1,19.2,28.6,19.5,28.1,19.7z"/>
	<path class="st3" d="M62.9,28.3c-0.2-0.4-0.3-0.7-0.4-1.1c0.7-0.1,1.4-0.1,2.2-0.1C64.2,27.8,63.7,28.3,62.9,28.3z"/>
	<path class="st3" d="M50,27.1c0,0.4-0.1,0.7-0.1,1.1c-0.7,0-0.4-0.4-0.4-0.9c0.1-0.1,0.2-0.1,0.2-0.2C49.8,27.1,49.8,27.1,50,27.1z
		"/>
	<path class="st24" d="M32.4,33.1c-0.2-0.2-0.3-0.4-0.4-0.7c0.2,0,0.5,0.1,0.7,0.1C32.7,32.7,32.6,32.9,32.4,33.1z"/>
	<path class="st10" d="M49.8,22.3c0,0.1,0,0.1-0.1,0.2C49.7,22.5,49.7,22.4,49.8,22.3z"/>
	<path class="st14" d="M16.3,20.1c0,0-0.1-0.1-0.1-0.2C16.3,19.9,16.3,20,16.3,20.1z"/>
	<path class="st15" d="M31,24.6C31,24.6,31,24.5,31,24.6C31,24.6,31,24.6,31,24.6z"/>
	<path class="st10" d="M49.6,27.1c0,0,0,0.1-0.1,0.2C49.5,27.3,49.5,27.2,49.6,27.1z"/>
	<path class="st10" d="M64.5,18.1c0,0-0.1,0-0.2-0.1C64.4,18,64.4,18,64.5,18.1z"/>
	<path class="st21" d="M38.5,28.7c0,0,0-0.1,0.1-0.2C38.6,28.6,38.6,28.7,38.5,28.7z"/>
	<path class="st3" d="M104.6,14.5c0,0,0.1,0,0.1,0C104.7,14.5,104.7,14.5,104.6,14.5z"/>
	<path class="st13" d="M18.5,8.7c0,0,0,0.1-0.1,0.1C18.4,8.8,18.5,8.7,18.5,8.7z"/>
</g>
</svg>
