<?xml version="1.0" encoding="utf-8"?>
<!-- Generator: Adobe Illustrator 27.6.1, SVG Export Plug-In . SVG Version: 6.00 Build 0)  -->
<svg version="1.1" id="圖層_1" xmlns="http://www.w3.org/2000/svg" xmlns:xlink="http://www.w3.org/1999/xlink" x="0px" y="0px"
	 viewBox="0 0 129.1 39.7" style="enable-background:new 0 0 129.1 39.7;" xml:space="preserve">
<style type="text/css">
	.st0{fill:#F45197;}
	
		.st1{clip-path:url(#SVGID_00000116197703209721048980000002778265250861267873_);fill:url(#SVGID_00000153672549072423439730000003996941883174478742_);}
	
		.st2{clip-path:url(#SVGID_00000088819170029559257040000003357773824284861575_);fill:url(#SVGID_00000150825496582417099090000018319223927006069636_);}
	
		.st3{clip-path:url(#SVGID_00000065068039184345408210000003093039334548050865_);fill:url(#SVGID_00000044892454139239446590000002750683466662222261_);}
	
		.st4{clip-path:url(#SVGID_00000113342194347409764960000000417551790417297060_);fill:url(#SVGID_00000060011539404065339950000013628751160657604527_);}
	
		.st5{clip-path:url(#SVGID_00000039131351097128216340000001351255184937488777_);fill:url(#SVGID_00000026137282949362842490000003639535287966836870_);}
	
		.st6{clip-path:url(#SVGID_00000183212255224298941720000008378327695980257962_);fill:url(#SVGID_00000158013344520217048870000015005286752914107025_);}
	
		.st7{clip-path:url(#SVGID_00000147926347683330226560000004035896610354291862_);fill:url(#SVGID_00000156578054243367114700000013461392691113846691_);}
	
		.st8{clip-path:url(#SVGID_00000029024530702563355960000002073247855030841502_);fill:url(#SVGID_00000047038057227249965740000002829116853178508696_);}
	
		.st9{clip-path:url(#SVGID_00000124153802557507025200000006726587378503792294_);fill:url(#SVGID_00000045600084848212066990000006351041679480290479_);}
	
		.st10{clip-path:url(#SVGID_00000116953350155095162180000007860295457853107087_);fill:url(#SVGID_00000075130911096581114800000015292610530829827763_);}
	
		.st11{clip-path:url(#SVGID_00000036966364606225553760000018393307430589370502_);fill:url(#SVGID_00000087387857079109126480000015073944903219548578_);}
	
		.st12{clip-path:url(#SVGID_00000099663977821358162450000006772901510316450750_);fill:url(#SVGID_00000066485436000417291670000014551156574670961285_);}
	
		.st13{clip-path:url(#SVGID_00000088855051700314487120000008642297674746877844_);fill:url(#SVGID_00000169529197114868887570000003703841745531878049_);}
	
		.st14{clip-path:url(#SVGID_00000137100380515117296610000013993636850170816148_);fill:url(#SVGID_00000099646190963715310710000008369114731775948170_);}
	
		.st15{clip-path:url(#SVGID_00000029036147314728428540000006870998348246876084_);fill:url(#SVGID_00000032635022291321407390000015328040287170323886_);}
</style>
<g>
	<g>
		<path class="st0" d="M113.2,26.8c-0.2-0.1-0.3-0.3-0.3-0.6v-6.3c0-1.7,0-3.9-2.9-4.3c-3.8-0.6-5.7,1.9-6,2.4l2.4,1.6
			c0.1-0.7,0.4-1.6,0.9-2.1c0.4-0.4,1.8-1.1,2.5-0.2c0.3,0.4,0.4,0.9,0.4,1.5V20c-1.1,0.1-3.7,0-5.8,1.8c-0.7,0.6-1.1,1.3-1.2,2.2
			c-0.2,1.2,0.2,2.3,1,3.1c0.8,0.9,2.1,1.4,3.4,1.4c1.2,0,2.5-0.4,3.4-1.1c0.3,0.6,0.9,0.9,1.5,0.9c0.4,0,0.8-0.1,1.2-0.6
			c0.2-0.3,0-0.5,1.4-0.9v-0.3C114.9,26.6,113.4,26.9,113.2,26.8 M110.1,26.4c-0.6,0.4-0.9,0.7-1.6,0.8c-0.7,0.1-1.3-0.1-1.7-0.6
			c-0.7-0.7-0.7-2-0.4-3c0.2-0.7,0.6-1.2,1.2-1.5c0.6-0.4,1.7-0.6,2.6-0.8V26.4z"/>
		<path class="st0" d="M125.2,15.6c-0.9,2.1-2.9,6.1-4.3,8.8c-1.3-2.7-2.6-6.4-3.4-8.8l-3.2,1.7c1.5,3.3,4,7,5.9,8.3
			c0,0-3.1,6.7-3.8,7.8h2.2l8.7-17.3L125.2,15.6z"/>
		<path class="st0" d="M72.3,18.8c-0.6,2.3-1.6,4.6-3.1,6.5l2.7,2.3c0.8-2.1,1.2-5.2,0.7-8.8L72.3,18.8z"/>
		<path class="st0" d="M69.7,14l-0.2,0.2c0.8,0.7,0.8,1.1,1.1,2.7c0.1,0.5,0.6,0.7,1.1,0.7c0.6,0,1.4-0.4,1.4-1.2
			C72.8,14.6,70.7,14.4,69.7,14"/>
		<path class="st0" d="M76,23.2h10.4v-0.9H73.9l-0.3,2.6h10.7c-0.1,1.4-0.2,1.8-1.2,1.8c-0.8,0-4.2,0-5.1,0l-0.1,0.3
			c1.6,0.2,2.6,0.4,3.8,0.6c0.7,0.1,0.9,0.6,1.8,0.7c0.8,0.1,2.4,0,2.9-1.3c0.2-0.7,0.3-2,0.4-2.9H76L76,23.2z"/>
		<path class="st0" d="M69.9,10.2l-0.2,0.2c0.5,0.4,1,0.9,1.3,2c0.2,0.8,0.4,1.2,1.3,1.2c0.7,0,1.1-0.5,1.2-1.2
			C73.5,10.8,70.8,10.4,69.9,10.2"/>
		<path class="st0" d="M103.2,16.5c0-1.4-0.4-2.7-1.3-3.6c-0.8-0.8-2.3-1.5-3.7-1.5h-7.8v8h3.1v-6.8h3.2c1.5,0,2.3,1.3,2.6,2.1
			c0.4,0.9,0.5,2.8,0,3.8c-0.4,1-1.4,1.8-2.5,1.8H73.6v1.1h16.8V28h3.1v-6.6h4.9c1.7,0,3.1-0.5,3.9-1.6
			C103,19,103.3,17.8,103.2,16.5"/>
		<path class="st0" d="M83,12h-1.5c0.2-0.2,0.4-0.3,0.4-0.6c0-1.8-2.7-1.8-3.8-1.5l0,0.2c0.2,0.2,0.6,0.5,0.8,0.7
			c0.3,0.4,0.3,0.9,0.6,1.2h-1.9v0.9H83V12z"/>
		<rect x="78.4" y="15.1" class="st0" width="3.7" height="0.9"/>
		<rect x="78.4" y="13.6" class="st0" width="3.7" height="0.9"/>
		<path class="st0" d="M83.1,15.8c0.5-0.1,0.9-0.2,1.2-0.3c-0.3,0.6-0.9,1.8-1.1,2c-0.1,0.1-0.3,0.2-0.4,0.2l0.2,1.9
			c1.1-0.2,2.3-0.9,3-1.6c0,0,0.2,1,0.6,0.9c0.3,0,0.6-0.1,0.6-0.7c0-1.2-1.7-2-1.7-2c0.1,0.4,0.2,0.6,0.3,1.1
			c-0.9,0.2-1.6,0.4-2,0.4c1.5-1,2.2-2.6,3-4.2h-1.7c-0.1,0.3-0.1,0.4-0.2,0.7c-0.4,0-0.3,0-0.7,0c0.8-0.5,1.7-2.5,1.9-3.1L84.1,11
			c-0.2,1.8-0.6,2.5-0.7,2.8c-0.1,0.2-0.2,0.3-0.4,0.3L83.1,15.8z"/>
		<path class="st0" d="M73.9,17.7l0.2,1.9c1.1-0.2,2.3-0.9,3-1.6c0,0,0.2,1,0.6,0.9c0.2,0,0.3-0.1,0.5-0.2v0.8h4.3v-2.9h-4.3v0.9
			c-0.4-0.8-1.5-1.3-1.5-1.3c0.1,0.4,0.2,0.6,0.3,1.1c-0.9,0.2-1.6,0.4-2,0.4c1.5-1,2.2-2.6,3-4.2h-1.7c0,0.3-0.1,0.4-0.2,0.7
			c-0.4,0-0.3,0-0.7,0c0.8-0.5,1.7-2.5,1.9-3.1L75.1,11c-0.2,1.8-0.6,2.5-0.7,2.8c-0.1,0.2-0.2,0.3-0.4,0.3l0.2,1.7
			c0.5-0.1,0.9-0.2,1.2-0.3c-0.3,0.6-0.9,1.8-1.1,2C74.2,17.6,74,17.6,73.9,17.7 M79.6,17.5H81v1.1h-1.4V17.5z"/>
		<path class="st0" d="M61.4,12l-0.2,0.2c1.4,0.9,1.8,1.4,2.7,2.9c-2.6,0.1-9.6,0.3-10.9,0.2c2.5-1,5.4-2.3,7.2-4.7h-4.2
			c-1.8,2.6-3.4,4-4,4.4c-0.3,0.2-0.8,0.2-1.1,0.3l0.4,2.5c4.6-0.3,9.3-0.9,12.9-2.3c0.5,0.8,0.7,1.9,2,2.1c0.8,0.1,1.6-0.4,1.5-1.4
			C67.4,13.4,64.4,12.7,61.4,12"/>
		<path class="st0" d="M52.5,28h12.7v-8.9H52.5V28z M55.4,20.1h6.9V27h-6.9V20.1z"/>
	</g>
	<g>
		<g>
			<defs>
				<path id="SVGID_1_" d="M24,26v7.8c10.5-0.2,18.9-2.8,18.9-5.9c0-2-2.2-3.8-5.8-5.1C33.7,24.6,29.1,25.8,24,26"/>
			</defs>
			<clipPath id="SVGID_00000149377334910439691200000002392910601709476539_">
				<use xlink:href="#SVGID_1_"  style="overflow:visible;"/>
			</clipPath>
			
				<radialGradient id="SVGID_00000167392013531531234020000006678781073762087865_" cx="-241.1425" cy="457.5211" r="1.0726" gradientTransform="matrix(-8.6459 5.2907 -4.1571 -6.7933 -142.6694 4408.3613)" gradientUnits="userSpaceOnUse">
				<stop  offset="0" style="stop-color:#A30000"/>
				<stop  offset="3.394870e-02" style="stop-color:#A30000"/>
				<stop  offset="0.2956" style="stop-color:#B40005"/>
				<stop  offset="0.5365" style="stop-color:#BE0008"/>
				<stop  offset="0.8502" style="stop-color:#E06651"/>
				<stop  offset="1" style="stop-color:#F19975"/>
			</radialGradient>
			
				<polygon style="clip-path:url(#SVGID_00000149377334910439691200000002392910601709476539_);fill:url(#SVGID_00000167392013531531234020000006678781073762087865_);" points="
				37.7,14.4 19.1,25.8 29.1,42.1 47.8,30.8 			"/>
		</g>
		<g>
			<defs>
				<path id="SVGID_00000008864261818314254350000016518931980736659855_" d="M2.4,27.9c0,4.1,13.2,6.2,21.6,5.9V26
					c-6.3,0.2-12.1-1.2-15.8-3.2C4.6,24.1,2.4,25.9,2.4,27.9"/>
			</defs>
			<clipPath id="SVGID_00000078733732772917443620000005045358860217613185_">
				<use xlink:href="#SVGID_00000008864261818314254350000016518931980736659855_"  style="overflow:visible;"/>
			</clipPath>
			
				<radialGradient id="SVGID_00000004515007234593090120000017051492923322332845_" cx="-219.3845" cy="447.0777" r="1.0727" gradientTransform="matrix(-14.0635 -4.6448 2.9053 -8.7965 -4366.4902 2944.2942)" gradientUnits="userSpaceOnUse">
				<stop  offset="0" style="stop-color:#00388A"/>
				<stop  offset="0.1555" style="stop-color:#004194"/>
				<stop  offset="0.4083" style="stop-color:#004DA0"/>
				<stop  offset="0.5156" style="stop-color:#1B5FAB"/>
				<stop  offset="0.8473" style="stop-color:#6895CC"/>
				<stop  offset="1" style="stop-color:#87AAD9"/>
			</radialGradient>
			
				<polygon style="clip-path:url(#SVGID_00000078733732772917443620000005045358860217613185_);fill:url(#SVGID_00000004515007234593090120000017051492923322332845_);" points="
				27.4,23.9 4.5,16.3 -1,32.9 21.9,40.5 			"/>
		</g>
		<g>
			<defs>
				<path id="SVGID_00000096754675581700624410000016080934903899974571_" d="M15,2.9c-3.4,1-4.4,8.3-2.3,17.2
					C14.9,29.7,20,37.5,24,37.5c0.3,0,0.6,0,0.8-0.1c0.8-0.2,3.9-1.1,3.9-1.1c0,0,0,0,0,0c-0.3,0.1-0.5,0.1-0.8,0.1
					c-4,0-9.1-7.8-11.4-17.4c-2.1-8.9-1-16.3,2.4-17.3l0,0L15,2.9z"/>
			</defs>
			<clipPath id="SVGID_00000070833422528646815730000003109992144745707454_">
				<use xlink:href="#SVGID_00000096754675581700624410000016080934903899974571_"  style="overflow:visible;"/>
			</clipPath>
			
				<linearGradient id="SVGID_00000176750298665094700010000008368105825832028074_" gradientUnits="userSpaceOnUse" x1="-242.1896" y1="416.5838" x2="-241.1168" y2="416.5838" gradientTransform="matrix(10.1514 31.4867 -31.4867 10.1514 15589.7949 3400.2175)">
				<stop  offset="0" style="stop-color:#7C5430"/>
				<stop  offset="8.758803e-04" style="stop-color:#7D5530"/>
				<stop  offset="3.913368e-02" style="stop-color:#987042"/>
				<stop  offset="8.057296e-02" style="stop-color:#AD8550"/>
				<stop  offset="0.1269" style="stop-color:#BC945A"/>
				<stop  offset="0.1816" style="stop-color:#C49C60"/>
				<stop  offset="0.2653" style="stop-color:#C79F62"/>
				<stop  offset="0.3977" style="stop-color:#C29A5F"/>
				<stop  offset="0.5505" style="stop-color:#B48D57"/>
				<stop  offset="0.7133" style="stop-color:#9D784A"/>
				<stop  offset="0.8821" style="stop-color:#7D5937"/>
				<stop  offset="1" style="stop-color:#624027"/>
			</linearGradient>
			
				<polygon style="clip-path:url(#SVGID_00000070833422528646815730000003109992144745707454_);fill:url(#SVGID_00000176750298665094700010000008368105825832028074_);" points="
				0.1,5.1 12.2,42.8 39.1,34.1 27,-3.5 			"/>
		</g>
		<g>
			<defs>
				<path id="SVGID_00000114757882291678199030000018419004854701347246_" d="M16.5,19c2.3,9.6,7.4,17.4,11.4,17.4
					c4,0,5.4-7.8,3.2-17.4C28.8,9.4,23.7,1.7,19.7,1.7C15.7,1.7,14.3,9.4,16.5,19"/>
			</defs>
			<clipPath id="SVGID_00000091703973228373573300000006928266199494103428_">
				<use xlink:href="#SVGID_00000114757882291678199030000018419004854701347246_"  style="overflow:visible;"/>
			</clipPath>
			
				<linearGradient id="SVGID_00000052814044023590357390000004520112085657581458_" gradientUnits="userSpaceOnUse" x1="-241.0616" y1="416.6448" x2="-239.9884" y2="416.6448" gradientTransform="matrix(11.3727 35.3679 -35.3679 11.3727 17494.4414 3785.5952)">
				<stop  offset="0" style="stop-color:#C79F62"/>
				<stop  offset="1.383310e-02" style="stop-color:#C79F62"/>
				<stop  offset="2.289795e-02" style="stop-color:#C9A267"/>
				<stop  offset="0.1362" style="stop-color:#DCC39D"/>
				<stop  offset="0.2417" style="stop-color:#EBDDC7"/>
				<stop  offset="0.3364" style="stop-color:#F6F0E6"/>
				<stop  offset="0.4169" style="stop-color:#FDFBF8"/>
				<stop  offset="0.4736" style="stop-color:#FFFFFF"/>
				<stop  offset="0.5355" style="stop-color:#FDFBF9"/>
				<stop  offset="0.6217" style="stop-color:#F6F0E7"/>
				<stop  offset="0.7222" style="stop-color:#ECDEC9"/>
				<stop  offset="0.8335" style="stop-color:#DDC5A0"/>
				<stop  offset="0.9523" style="stop-color:#CAA56B"/>
				<stop  offset="0.9717" style="stop-color:#C79F62"/>
				<stop  offset="1" style="stop-color:#C79F62"/>
			</linearGradient>
			
				<polygon style="clip-path:url(#SVGID_00000091703973228373573300000006928266199494103428_);fill:url(#SVGID_00000052814044023590357390000004520112085657581458_);" points="
				4.1,4.9 16,41.9 43.4,33.1 31.5,-3.9 			"/>
		</g>
		<g>
			<defs>
				<polygon id="SVGID_00000160879109314344004260000017457914288803545217_" points="24,20.4 27.2,24.3 27.2,18.9 24,14.2 				"/>
			</defs>
			<clipPath id="SVGID_00000146496921109578288520000004305408091124402871_">
				<use xlink:href="#SVGID_00000160879109314344004260000017457914288803545217_"  style="overflow:visible;"/>
			</clipPath>
			
				<linearGradient id="SVGID_00000164482085066556323710000006268996581523337389_" gradientUnits="userSpaceOnUse" x1="-265.9181" y1="415.458" x2="-264.8454" y2="415.458" gradientTransform="matrix(3.0958 9.4161 -9.4161 3.0958 4759.1816 1232.0807)">
				<stop  offset="0" style="stop-color:#7C5430"/>
				<stop  offset="8.758803e-04" style="stop-color:#7D5530"/>
				<stop  offset="3.913368e-02" style="stop-color:#987042"/>
				<stop  offset="8.057296e-02" style="stop-color:#AD8550"/>
				<stop  offset="0.1269" style="stop-color:#BC945A"/>
				<stop  offset="0.1816" style="stop-color:#C49C60"/>
				<stop  offset="0.2653" style="stop-color:#C79F62"/>
				<stop  offset="0.3977" style="stop-color:#C29A5F"/>
				<stop  offset="0.5505" style="stop-color:#B48D57"/>
				<stop  offset="0.7133" style="stop-color:#9D784A"/>
				<stop  offset="0.8821" style="stop-color:#7D5937"/>
				<stop  offset="1" style="stop-color:#624027"/>
			</linearGradient>
			
				<polygon style="clip-path:url(#SVGID_00000146496921109578288520000004305408091124402871_);fill:url(#SVGID_00000164482085066556323710000006268996581523337389_);" points="
				21,15.2 24.3,25.3 30.2,23.3 26.9,13.3 			"/>
		</g>
		<g>
			<defs>
				<path id="SVGID_00000086691273702248246760000008612693882117305770_" d="M30.4,13.2v8c0.8,0.1,1.5,0.2,2.2,0.4l0,0v-8
					C31.9,13.4,31.2,13.3,30.4,13.2L30.4,13.2z"/>
			</defs>
			<clipPath id="SVGID_00000106147104110586711940000006714383794953442238_">
				<use xlink:href="#SVGID_00000086691273702248246760000008612693882117305770_"  style="overflow:visible;"/>
			</clipPath>
			
				<radialGradient id="SVGID_00000085972589866815140350000010289512323293596849_" cx="-217.5703" cy="430.5047" r="1.0733" gradientTransform="matrix(-14.4409 -8.8966 8.8966 -14.4409 -6929.4434 4304.5874)" gradientUnits="userSpaceOnUse">
				<stop  offset="0" style="stop-color:#FFE9B3"/>
				<stop  offset="0.3559" style="stop-color:#F9BF2C"/>
				<stop  offset="0.4828" style="stop-color:#F1B226"/>
				<stop  offset="0.7195" style="stop-color:#DA8E16"/>
				<stop  offset="1" style="stop-color:#BB5D00"/>
			</radialGradient>
			
				<polygon style="clip-path:url(#SVGID_00000106147104110586711940000006714383794953442238_);fill:url(#SVGID_00000085972589866815140350000010289512323293596849_);" points="
				36.4,15.5 31,12.2 26.7,19.3 32,22.5 			"/>
		</g>
		<g>
			<defs>
				<path id="SVGID_00000041990645281078131050000018075076227101296539_" d="M28.8,20.9c0.3,0,0.5,0.1,0.8,0.1v-8
					c-0.3,0-0.5-0.1-0.8-0.1V20.9z"/>
			</defs>
			<clipPath id="SVGID_00000111171693793948136850000002535574811633660550_">
				<use xlink:href="#SVGID_00000041990645281078131050000018075076227101296539_"  style="overflow:visible;"/>
			</clipPath>
			
				<radialGradient id="SVGID_00000063599569793229433330000006742766148030480316_" cx="-217.5598" cy="430.5138" r="1.0725" gradientTransform="matrix(-14.4367 -8.894 8.894 -14.4367 -6927.3711 4303.5801)" gradientUnits="userSpaceOnUse">
				<stop  offset="0" style="stop-color:#FFE9B3"/>
				<stop  offset="0.3559" style="stop-color:#F9BF2C"/>
				<stop  offset="0.4828" style="stop-color:#F1B226"/>
				<stop  offset="0.7195" style="stop-color:#DA8E16"/>
				<stop  offset="1" style="stop-color:#BB5D00"/>
			</radialGradient>
			
				<polygon style="clip-path:url(#SVGID_00000111171693793948136850000002535574811633660550_);fill:url(#SVGID_00000063599569793229433330000006742766148030480316_);" points="
				33.2,15.2 29,12.6 25.2,18.8 29.4,21.4 			"/>
		</g>
		<g>
			<defs>
				<path id="SVGID_00000072278183968838848350000014024091241314861711_" d="M41.5,17.3v8c0.9,0.8,1.4,1.7,1.4,2.6v-8
					C42.9,19,42.4,18.1,41.5,17.3z"/>
			</defs>
			<clipPath id="SVGID_00000178887783934271716050000005681880034108555184_">
				<use xlink:href="#SVGID_00000072278183968838848350000014024091241314861711_"  style="overflow:visible;"/>
			</clipPath>
			
				<radialGradient id="SVGID_00000117671316579207253450000003787973511207770524_" cx="-217.5831" cy="430.4829" r="1.0735" gradientTransform="matrix(-14.4539 -8.9046 8.9046 -14.4539 -6935.7329 4308.0439)" gradientUnits="userSpaceOnUse">
				<stop  offset="0" style="stop-color:#FFE9B3"/>
				<stop  offset="0.3559" style="stop-color:#F9BF2C"/>
				<stop  offset="0.4828" style="stop-color:#F1B226"/>
				<stop  offset="0.7195" style="stop-color:#DA8E16"/>
				<stop  offset="1" style="stop-color:#BB5D00"/>
			</radialGradient>
			
				<polygon style="clip-path:url(#SVGID_00000178887783934271716050000005681880034108555184_);fill:url(#SVGID_00000117671316579207253450000003787973511207770524_);" points="
				47.6,20.2 41.9,16.7 36.7,25 42.5,28.5 			"/>
		</g>
		<g>
			<defs>
				<path id="SVGID_00000176747431953671931080000014592058501914108859_" d="M37.3,22.9c1.3,0.5,2.4,1.1,3.3,1.7v-8
					c-0.9-0.6-2-1.2-3.3-1.7V22.9z"/>
			</defs>
			<clipPath id="SVGID_00000121276267831123489920000001058475979549597063_">
				<use xlink:href="#SVGID_00000176747431953671931080000014592058501914108859_"  style="overflow:visible;"/>
			</clipPath>
			
				<radialGradient id="SVGID_00000156545665996190880000000000478551102813481149_" cx="-217.5224" cy="430.5144" r="1.073" gradientTransform="matrix(-14.4389 -8.8954 8.8954 -14.4389 -6927.9146 4304.5713)" gradientUnits="userSpaceOnUse">
				<stop  offset="0" style="stop-color:#FFE9B3"/>
				<stop  offset="0.3559" style="stop-color:#F9BF2C"/>
				<stop  offset="0.4828" style="stop-color:#F1B226"/>
				<stop  offset="0.7195" style="stop-color:#DA8E16"/>
				<stop  offset="1" style="stop-color:#BB5D00"/>
			</radialGradient>
			
				<polygon style="clip-path:url(#SVGID_00000121276267831123489920000001058475979549597063_);fill:url(#SVGID_00000156545665996190880000000000478551102813481149_);" points="
				45,17.6 38.2,13.4 33,21.9 39.7,26 			"/>
		</g>
		<g>
			<defs>
				<path id="SVGID_00000047061399365841806170000017570926915087883959_" d="M33.5,13.8v8c1.1,0.2,2.1,0.5,3,0.8v0v-8
					C35.6,14.3,34.5,14,33.5,13.8z"/>
			</defs>
			<clipPath id="SVGID_00000085932394002857209270000008981150819225984949_">
				<use xlink:href="#SVGID_00000047061399365841806170000017570926915087883959_"  style="overflow:visible;"/>
			</clipPath>
			
				<radialGradient id="SVGID_00000157999193703680315110000015426687709880927660_" cx="-217.5204" cy="430.472" r="1.0713" gradientTransform="matrix(-14.438 -8.8949 8.8949 -14.438 -6927.1162 4303.7383)" gradientUnits="userSpaceOnUse">
				<stop  offset="0" style="stop-color:#FFE9B3"/>
				<stop  offset="0.3559" style="stop-color:#F9BF2C"/>
				<stop  offset="0.4828" style="stop-color:#F1B226"/>
				<stop  offset="0.7195" style="stop-color:#DA8E16"/>
				<stop  offset="1" style="stop-color:#BB5D00"/>
			</radialGradient>
			
				<polygon style="clip-path:url(#SVGID_00000085932394002857209270000008981150819225984949_);fill:url(#SVGID_00000157999193703680315110000015426687709880927660_);" points="
				40.4,16.2 34.3,12.4 29.5,20.2 35.7,23.9 			"/>
		</g>
		<g>
			<defs>
				<path id="SVGID_00000102521222580095366690000013945780781697453986_" d="M3.8,17.2v8c0.3-0.3,0.7-0.6,1.1-0.8v-8l0,0
					C4.5,16.6,4.2,16.9,3.8,17.2"/>
			</defs>
			<clipPath id="SVGID_00000049204035414626010450000009193073997318029956_">
				<use xlink:href="#SVGID_00000102521222580095366690000013945780781697453986_"  style="overflow:visible;"/>
			</clipPath>
			
				<radialGradient id="SVGID_00000072973889246331165370000003247316911819354775_" cx="-233.5482" cy="436.3363" r="1.0729" gradientTransform="matrix(-16.2616 5.9368 -5.9368 -16.2616 -1187.5262 8499.1768)" gradientUnits="userSpaceOnUse">
				<stop  offset="0" style="stop-color:#B3D796"/>
				<stop  offset="0.5858" style="stop-color:#40B15D"/>
				<stop  offset="0.6792" style="stop-color:#3AAC59"/>
				<stop  offset="0.7981" style="stop-color:#2B9E4F"/>
				<stop  offset="0.9302" style="stop-color:#11863E"/>
				<stop  offset="1" style="stop-color:#007733"/>
			</radialGradient>
			
				<polygon style="clip-path:url(#SVGID_00000049204035414626010450000009193073997318029956_);fill:url(#SVGID_00000072973889246331165370000003247316911819354775_);" points="
				4.8,16 1,17.4 4,25.5 7.8,24.1 			"/>
		</g>
		<g>
			<defs>
				<path id="SVGID_00000168112603680657895970000007196060215494918541_" d="M2.4,19.9v8c0-0.6,0.2-1.2,0.6-1.8v-8v0
					C2.6,18.7,2.4,19.3,2.4,19.9"/>
			</defs>
			<clipPath id="SVGID_00000051348173328723456750000001886391746909964449_">
				<use xlink:href="#SVGID_00000168112603680657895970000007196060215494918541_"  style="overflow:visible;"/>
			</clipPath>
			
				<radialGradient id="SVGID_00000064315956648514829470000009704693611118834832_" cx="-233.5162" cy="436.354" r="1.0727" gradientTransform="matrix(-16.2499 5.9325 -5.9325 -16.2499 -1186.0199 8493.1953)" gradientUnits="userSpaceOnUse">
				<stop  offset="0" style="stop-color:#B3D796"/>
				<stop  offset="0.5858" style="stop-color:#40B15D"/>
				<stop  offset="0.6792" style="stop-color:#3AAC59"/>
				<stop  offset="0.7981" style="stop-color:#2B9E4F"/>
				<stop  offset="0.9302" style="stop-color:#11863E"/>
				<stop  offset="1" style="stop-color:#007733"/>
			</radialGradient>
			
				<polygon style="clip-path:url(#SVGID_00000051348173328723456750000001886391746909964449_);fill:url(#SVGID_00000064315956648514829470000009704693611118834832_);" points="
				2.9,17.9 -0.8,19.2 2.4,28.1 6.2,26.7 			"/>
		</g>
		<g>
			<defs>
				<path id="SVGID_00000122719197863221640800000005867199167742135979_" d="M14.4,12.1v1.1c-0.5,0.1-0.9,0.2-1.4,0.2v8
					c0.5-0.1,0.9-0.2,1.4-0.2v0.9c0,0.3,0.4,0.5,0.6,0.3l6.2-5.5c0.2-0.2,0.2-0.5,0-0.6L15,11.8c-0.1-0.1-0.1-0.1-0.2-0.1
					C14.5,11.8,14.4,11.9,14.4,12.1"/>
			</defs>
			<clipPath id="SVGID_00000168099702945168085830000007635519861080576687_">
				<use xlink:href="#SVGID_00000122719197863221640800000005867199167742135979_"  style="overflow:visible;"/>
			</clipPath>
			
				<radialGradient id="SVGID_00000127748060648783117870000009786424649691612310_" cx="-233.5394" cy="436.3724" r="1.0726" gradientTransform="matrix(-16.2603 5.9363 -5.9363 -16.2603 -1187.0176 8499.0254)" gradientUnits="userSpaceOnUse">
				<stop  offset="0" style="stop-color:#B3D796"/>
				<stop  offset="0.5858" style="stop-color:#40B15D"/>
				<stop  offset="0.6792" style="stop-color:#3AAC59"/>
				<stop  offset="0.7981" style="stop-color:#2B9E4F"/>
				<stop  offset="0.9302" style="stop-color:#11863E"/>
				<stop  offset="1" style="stop-color:#007733"/>
			</radialGradient>
			
				<polygon style="clip-path:url(#SVGID_00000168099702945168085830000007635519861080576687_);fill:url(#SVGID_00000127748060648783117870000009786424649691612310_);" points="
				20.4,9 9.5,13 14,25.3 24.9,21.3 			"/>
		</g>
		<g>
			<defs>
				<path id="SVGID_00000139277291909031459900000002855631666958740379_" d="M8.5,14.7v8c1.1-0.4,2.3-0.7,3.6-1v-8
					C10.8,14,9.6,14.3,8.5,14.7"/>
			</defs>
			<clipPath id="SVGID_00000142134030902695052620000004062087643210712474_">
				<use xlink:href="#SVGID_00000139277291909031459900000002855631666958740379_"  style="overflow:visible;"/>
			</clipPath>
			
				<radialGradient id="SVGID_00000146467759060497503910000012786823728237324193_" cx="-233.4971" cy="436.3736" r="1.0722" gradientTransform="matrix(-16.2471 5.9315 -5.9315 -16.2471 -1185.3773 8491.8926)" gradientUnits="userSpaceOnUse">
				<stop  offset="0" style="stop-color:#B3D796"/>
				<stop  offset="0.5858" style="stop-color:#40B15D"/>
				<stop  offset="0.6792" style="stop-color:#3AAC59"/>
				<stop  offset="0.7981" style="stop-color:#2B9E4F"/>
				<stop  offset="0.9302" style="stop-color:#11863E"/>
				<stop  offset="1" style="stop-color:#007733"/>
			</radialGradient>
			
				<polygon style="clip-path:url(#SVGID_00000142134030902695052620000004062087643210712474_);fill:url(#SVGID_00000146467759060497503910000012786823728237324193_);" points="
				11.7,12.5 5.7,14.7 9,23.8 15,21.6 			"/>
		</g>
		<g>
			<defs>
				<path id="SVGID_00000067236653409253902970000004857683378107090861_" d="M5.8,15.9v8l0,0C6.4,23.5,7,23.2,7.7,23v-8l0,0
					C7,15.3,6.4,15.6,5.8,15.9"/>
			</defs>
			<clipPath id="SVGID_00000041976473285080981100000004264649447514687919_">
				<use xlink:href="#SVGID_00000067236653409253902970000004857683378107090861_"  style="overflow:visible;"/>
			</clipPath>
			
				<radialGradient id="SVGID_00000036243830820838644950000003671456125061251731_" cx="-233.5017" cy="436.3582" r="1.0728" gradientTransform="matrix(-16.2678 5.939 -5.939 -16.2678 -1187.118 8502.4717)" gradientUnits="userSpaceOnUse">
				<stop  offset="0" style="stop-color:#B3D796"/>
				<stop  offset="0.5858" style="stop-color:#40B15D"/>
				<stop  offset="0.6792" style="stop-color:#3AAC59"/>
				<stop  offset="0.7981" style="stop-color:#2B9E4F"/>
				<stop  offset="0.9302" style="stop-color:#11863E"/>
				<stop  offset="1" style="stop-color:#007733"/>
			</radialGradient>
			
				<polygon style="clip-path:url(#SVGID_00000041976473285080981100000004264649447514687919_);fill:url(#SVGID_00000036243830820838644950000003671456125061251731_);" points="
				7.5,14.4 2.9,16 6,24.5 10.6,22.8 			"/>
		</g>
	</g>
</g>
</svg>
