<?xml version="1.0" encoding="utf-8"?>
<!-- Generator: Adobe Illustrator 26.5.0, SVG Export Plug-In . SVG Version: 6.00 Build 0)  -->
<svg version="1.1" id="圖層_1" xmlns="http://www.w3.org/2000/svg" xmlns:xlink="http://www.w3.org/1999/xlink" x="0px" y="0px"
	 viewBox="0 0 111.5 31.9" style="enable-background:new 0 0 111.5 31.9;" xml:space="preserve">
<style type="text/css">
	.st0{clip-path:url(#SVGID_00000080200235057324588050000013270566843993505974_);}
	.st1{fill:#BF3019;}
	.st2{fill:#221E1F;}
</style>
<g>
	<g>
		<defs>
			<rect id="SVGID_1_" x="-35.6" y="-6.5" width="253.5" height="50.7"/>
		</defs>
		<clipPath id="SVGID_00000135667291051601164660000005019669708011448454_">
			<use xlink:href="#SVGID_1_"  style="overflow:visible;"/>
		</clipPath>
		<g style="clip-path:url(#SVGID_00000135667291051601164660000005019669708011448454_);">
			<defs>
				<rect id="SVGID_00000062192729960251420190000010926011955762673077_" x="-35.6" y="-6.5" width="253.5" height="50.7"/>
			</defs>
			<clipPath id="SVGID_00000127038943966311208590000002728356536828618680_">
				<use xlink:href="#SVGID_00000062192729960251420190000010926011955762673077_"  style="overflow:visible;"/>
			</clipPath>
		</g>
	</g>
</g>
<path class="st1" d="M18.1,9.6c0-0.3-0.3-0.6-0.6-0.6c-0.3,0-0.6,0.3-0.6,0.6l0,3.8c0,2.5-2.5,2.5-2.5,2.5V9.6
	c0-1.7,1.4-3.2,3.2-3.2c1.7,0,3.2,1.4,3.2,3.2L18.1,9.6z"/>
<path class="st1" d="M17.5,12.8h6.2c0,0,0-2.5-2.5-2.5h-3.6L17.5,12.8z"/>
<path class="st1" d="M10.5,15.9c-0.3,0-0.6,0.3-0.6,0.6c0,0.3,0.3,0.6,0.6,0.6l3.8,0c2.5,0,2.5,2.5,2.5,2.5h-6.3
	c-1.7,0-3.2-1.4-3.2-3.2c0-1.7,1.4-3.2,3.2-3.2L10.5,15.9z"/>
<path class="st1" d="M13.7,16.6v-6.2c0,0-2.5,0-2.5,2.5v3.6L13.7,16.6z"/>
<path class="st1" d="M24.4,17.2c0.3,0,0.6-0.3,0.6-0.6c0-0.3-0.3-0.6-0.6-0.6l-3.8,0c-2.5,0-2.5-2.5-2.5-2.5h6.3
	c1.7,0,3.2,1.4,3.2,3.2c0,1.7-1.4,3.2-3.2,3.2L24.4,17.2z"/>
<path class="st1" d="M21.3,16.6v6.2c0,0,2.5,0,2.5-2.5v-3.6L21.3,16.6z"/>
<path class="st1" d="M16.8,23.5c0,0.3,0.3,0.6,0.6,0.6c0.3,0,0.6-0.3,0.6-0.6l0-3.8c0-2.5,2.5-2.5,2.5-2.5v6.3
	c0,1.7-1.4,3.2-3.2,3.2c-1.7,0-3.2-1.4-3.2-3.2L16.8,23.5z"/>
<path class="st1" d="M17.5,20.3h-6.2c0,0,0,2.5,2.5,2.5h3.6L17.5,20.3z"/>
<path class="st2" d="M45.1,14.6h3c0.1-0.2,0.3-0.3,0.4-0.4c0.1-0.1,0.2-0.2,0.3-0.2c0.1,0,0.4,0.1,0.8,0.4c0.4,0.3,0.7,0.5,0.7,0.6
	c0,0.1-0.1,0.2-0.2,0.3c-0.2,0.1-0.3,0.2-0.3,0.3v1.3c0,0.1-0.1,0.2-0.4,0.3c0.3,0.2,0.5,0.3,0.7,0.5c0.3,0.2,0.4,0.3,0.4,0.4
	c0,0.1-0.1,0.2-0.2,0.2l-0.6-0.1c-0.3,0.1-0.7,0.3-1.1,0.4c0.1,0,0.1,0,0.1,0.1c0.6,0.3,1,0.5,1.3,0.8c0.2,0.2,0.3,0.5,0.3,0.7
	c0,0.2-0.1,0.3-0.2,0.5c-0.1,0.2-0.2,0.2-0.4,0.2c-0.2,0-0.6-0.3-1.2-1c-0.6-0.6-1.4-1.2-2.3-1.6l0.1-0.2c0.7,0.1,1.3,0.3,1.8,0.4
	c0.1-0.1,0.2-0.3,0.4-0.4c0.2-0.3,0.4-0.5,0.5-0.8c-0.2,0-0.3,0-0.4,0c-0.2,0-0.4-0.1-0.4-0.3v-0.3h-1.1c-0.5,0.6-1,1-1.4,1.2v1.5
	c0.5-0.1,1-0.2,1.4-0.3l0.1,0.2c-0.9,0.7-1.9,1.2-2.9,1.5c-0.1,0-0.2,0.1-0.2,0.1c0,0,0,0.1,0,0.1c0,0,0,0.1,0,0.1
	c0.7,0,1.7,0.1,3,0.1c1.2,0,2.5-0.1,4-0.3l0.1,0.3c-0.3,0.1-0.6,0.4-0.8,0.9c0,0.2-0.1,0.4-0.2,0.4h-3.4c-0.8,0-1.7-0.1-2.9-0.1
	c-1.2-0.2-2-0.8-2.5-1.6c0,0-0.1,0-0.1,0.1c-0.3,0.5-0.6,1-1,1.4c0,0.3-0.1,0.5-0.2,0.5c-0.1,0-0.2-0.1-0.3-0.3
	c-0.2-0.4-0.5-1-0.7-1.6c0.6-0.1,1-0.2,1.4-0.3v-3.4c-0.5,0-0.9,0-1.2,0.1L39,16.8c0.3,0.1,0.7,0.2,1.1,0.2c0.2-0.1,0.3-0.3,0.4-0.4
	c0.2-0.2,0.3-0.3,0.4-0.3c0.1,0,0.4,0.2,0.7,0.5c0.4,0.3,0.6,0.5,0.6,0.6c0,0.1-0.1,0.2-0.2,0.3c-0.2,0.1-0.2,0.3-0.2,0.4v2.3
	c0.4,0.5,0.9,0.7,1.5,0.8c0.2,0,0.4,0.1,0.7,0.1c-0.1-0.1-0.2-0.4-0.3-0.7c-0.1-0.1-0.2-0.4-0.3-0.7c0.5,0,0.9-0.1,1.3-0.1v-1.1
	c-0.1,0.1-0.2,0.1-0.3,0.1c-0.6,0.2-1.2,0.4-1.9,0.6l-0.1-0.2c0.7-0.3,1.3-0.6,1.8-1c0.5-0.4,1-0.8,1.3-1.3h-0.6v0.2
	c0,0.2-0.2,0.3-0.6,0.4c-0.2,0-0.3,0-0.4,0c-0.3,0-0.4-0.1-0.4-0.4c0-0.2,0.1-0.5,0.1-0.8v-1c0-0.3,0-0.7-0.1-1.1
	C44,14.2,44.5,14.4,45.1,14.6 M41.2,14c0.3,0.2,0.5,0.4,0.5,0.7c0,0.2-0.1,0.5-0.3,0.7c-0.1,0.2-0.3,0.2-0.6,0.2
	c-0.2,0-0.4-0.2-0.5-0.5c-0.2-0.5-0.6-1-1.1-1.4l0.1-0.2C40.2,13.6,40.8,13.8,41.2,14 M41.6,11.6c0.3,0.2,0.5,0.4,0.5,0.6
	c0,0.3-0.1,0.5-0.3,0.7c-0.1,0.2-0.3,0.2-0.6,0.2c-0.2,0-0.4-0.2-0.5-0.5c-0.2-0.5-0.5-0.9-1-1.4l0.1-0.2
	C40.7,11.3,41.3,11.5,41.6,11.6 M44.8,12h0.9v-0.2c0-0.4,0-0.7-0.1-1.1c0.6,0.1,1.1,0.1,1.7,0.2c0.3,0,0.5,0.1,0.5,0.3
	c0,0.1-0.1,0.1-0.3,0.2c-0.2,0.1-0.3,0.2-0.3,0.4V12H48c0,0,0.2-0.1,0.4-0.4c0.3-0.3,0.5-0.5,0.5-0.5c0.1,0,0.3,0.2,0.6,0.5
	c0.3,0.3,0.5,0.5,0.5,0.6c0,0.1-0.1,0.2-0.2,0.2h-2.5v1.1h1.6c0,0,0.1-0.2,0.4-0.5c0.3-0.3,0.4-0.5,0.5-0.5c0.1,0,0.4,0.2,0.7,0.5
	c0.3,0.3,0.5,0.5,0.5,0.6c0,0.1-0.1,0.2-0.2,0.2h-6.1c-0.8,0-1.3,0-1.6,0.1l-0.2-0.5c0.4,0.1,1,0.1,1.8,0.1h1.2v-1.1h-0.9
	c-0.8,0-1.3,0-1.6,0.1L43,11.8C43.4,11.9,44,12,44.8,12 M48.3,15h-3.4v1.3h3.4V15z"/>
<path class="st2" d="M59.1,12.3h3.2c0-0.6,0-1.2-0.1-1.7c0.4,0.1,1,0.1,1.6,0.2c0.5,0.1,0.7,0.2,0.7,0.3c0,0.1-0.1,0.2-0.4,0.3
	c-0.2,0.1-0.3,0.2-0.3,0.3v0.5h2.7c0,0,0.2-0.2,0.5-0.6c0.3-0.4,0.5-0.6,0.6-0.6c0.2,0,0.5,0.2,0.8,0.6c0.4,0.4,0.6,0.7,0.6,0.7
	c0,0.1-0.1,0.2-0.3,0.2h-4.9V14h1.8c0.2-0.2,0.4-0.5,0.6-0.6c0.1-0.2,0.3-0.2,0.4-0.2c0.1,0,0.4,0.1,0.8,0.4
	c0.5,0.3,0.7,0.5,0.7,0.7c0,0.1-0.1,0.3-0.3,0.4c-0.1,0.1-0.2,0.3-0.2,0.4v1.7c0,0.4,0,1,0.1,1.7c0,0.2-0.2,0.3-0.7,0.4
	c-0.2,0-0.4,0-0.5,0c-0.3,0-0.4-0.1-0.4-0.4V18h-2c0.8,0.7,1.6,1.3,2.4,1.6c0.9,0.4,1.9,0.7,2.8,0.9l0,0.3c-0.4,0.1-0.6,0.4-0.8,0.8
	C68.2,21.8,68.1,22,68,22c-0.2,0-0.6-0.2-1.2-0.6c-0.7-0.4-1.3-0.9-1.9-1.5c-0.5-0.5-0.9-1-1.2-1.5V20c0,0.8,0,1.6,0.1,2.4
	c0,0.2-0.2,0.3-0.7,0.4c-0.2,0-0.3,0-0.4,0c-0.3,0-0.5-0.1-0.5-0.4c0.1-0.9,0.1-1.7,0.1-2.4v-0.8c-0.3,0.4-0.6,0.7-0.9,0.9
	c-0.6,0.5-1.2,0.9-1.9,1.2c-0.7,0.3-1.5,0.6-2.4,0.9l-0.1-0.2c0.9-0.4,1.8-1,2.6-1.6c0.8-0.7,1.4-1.4,2-2.3H60v0.4
	c0,0.2-0.2,0.3-0.7,0.4c-0.2,0-0.3,0-0.4,0c-0.3,0-0.4-0.1-0.4-0.4c0-0.5,0-0.9,0-1.4v-1.7c0-0.7,0-1.3-0.1-1.9
	c0.6,0.2,1.2,0.4,1.9,0.7h1.9v-1.3h-3.2c-0.8,0-1.3,0-1.6,0.1l-0.2-0.5C57.6,12.2,58.3,12.3,59.1,12.3 M62.2,14.3H60v1.4h2.2V14.3z
	 M62.2,16.2H60v1.5h2.2V16.2z M63.7,15.8h2.2v-1.4h-2.2V15.8z M63.7,17.6h2.2v-1.5h-2.2V17.6z"/>
<path class="st2" d="M81,10.8c0.3,0,0.5,0.1,0.5,0.3c0,0.1-0.1,0.1-0.3,0.2c-0.2,0.1-0.3,0.2-0.3,0.3v0.6h2.9c0,0,0.2-0.2,0.5-0.6
	c0.3-0.4,0.5-0.6,0.6-0.6c0.2,0,0.5,0.2,0.8,0.6c0.4,0.4,0.6,0.7,0.6,0.7c0,0.1-0.1,0.2-0.3,0.2h-3.7c0.1,0.1,0.3,0.1,0.4,0.1
	c0.4,0.1,0.5,0.2,0.5,0.3c0,0.1-0.1,0.2-0.3,0.2c-0.2,0-0.3,0.1-0.4,0.1c-0.2,0.3-0.3,0.6-0.6,0.9c-0.1,0.1-0.3,0.3-0.4,0.4h2
	c0.1-0.1,0.2-0.2,0.3-0.3c0.3-0.2,0.4-0.3,0.5-0.3c0.1,0,0.4,0.2,0.8,0.5c0.4,0.3,0.6,0.5,0.6,0.6c0,0.1-0.1,0.2-0.3,0.4
	c-0.3,0.2-0.4,0.3-0.4,0.5v5.4c0,0.4-0.3,0.8-0.7,1c-0.4,0.2-0.7,0.3-1,0.3c-0.1,0-0.2-0.2-0.3-0.5c-0.1-0.4-0.5-0.7-1.2-1l0,0
	c-0.2,0-0.3,0-0.4,0c-0.2,0-0.4-0.1-0.4-0.4v-0.2h-2.3v0.5c0,0.2-0.2,0.3-0.6,0.4c-0.2,0-0.3,0-0.4,0c-0.3,0-0.4-0.1-0.4-0.4
	c0-0.4,0.1-0.8,0.1-1.3v-0.6c0-0.5,0-1-0.1-1.5c-0.2,0.1-0.4,0.1-0.6,0.2l-0.2-0.1c0.3-0.1,0.5-0.3,0.7-0.5c0.2-0.2,0.4-0.4,0.5-0.6
	C78,16.4,78,16,78,15.6V15h-1.5v7.3c0,0.2-0.2,0.3-0.6,0.4c-0.2,0-0.3,0-0.4,0c-0.3,0-0.5-0.1-0.5-0.4c0.1-0.9,0.1-1.8,0.1-2.5v-3.5
	c0-0.6,0-1.4-0.1-2.3c0.6,0.1,1.1,0.3,1.6,0.6h1.6c-0.1-0.2-0.1-0.4-0.2-0.7c-0.2-0.5-0.4-0.9-0.6-1.3l0-0.1h-1.4
	c-0.8,0-1.3,0-1.6,0.1l-0.2-0.5c0.4,0.1,1,0.1,1.8,0.1h3.5v-0.5c0-0.4,0-0.7-0.1-1.1C79.9,10.6,80.4,10.7,81,10.8 M80.8,18
	c0.2-0.2,0.4-0.3,0.5-0.5c0.1-0.1,0.3-0.2,0.4-0.2c0.1,0,0.3,0.1,0.7,0.4c0.4,0.3,0.7,0.5,0.7,0.6c0,0.1-0.1,0.2-0.3,0.3
	c-0.1,0.1-0.2,0.2-0.2,0.4v0.2c0,0.4,0,0.9,0.1,1.5c0,0.1-0.1,0.2-0.1,0.2c0.4,0,0.7,0.1,0.9,0.1c0.2,0,0.4-0.1,0.4-0.4V17
	c-0.3,0.1-0.7,0.2-1.2,0.2h-0.7c-0.2,0-0.5,0-0.6-0.1c-0.4-0.1-0.6-0.3-0.6-0.7V15h-1.3v0.6c0,0.5-0.1,0.8-0.3,1.1
	c-0.2,0.3-0.5,0.5-0.9,0.7c-0.1,0.1-0.3,0.1-0.4,0.2c0.4,0.1,0.8,0.3,1.3,0.5H80.8z M81.1,14.7c0.1-0.3,0.2-0.7,0.3-1
	c0.1-0.3,0.1-0.7,0.1-1.1h-3.3c0.1,0.1,0.2,0.1,0.3,0.2c0.3,0.2,0.5,0.3,0.6,0.5c0.1,0.2,0.2,0.3,0.2,0.5c0,0.3-0.1,0.5-0.3,0.7
	c-0.1,0.1-0.1,0.2-0.2,0.2H81.1z M81.3,18.4h-2.3v1.9h2.3V18.4z M81.8,15.8c0,0.2,0.1,0.3,0.2,0.4c0.1,0,0.3,0,0.5,0
	c0.2,0,0.3-0.1,0.4-0.1c0-0.1,0.1-0.4,0.2-0.9h0.2l0.1,0.6c0,0.1,0.1,0.2,0.4,0.3c0,0,0.1,0,0.1,0V15h-2V15.8z"/>
<path class="st2" d="M95.2,10.9c0.4,0.1,0.7,0.2,0.7,0.3c0,0.1-0.1,0.2-0.4,0.2c-0.2,0-0.3,0.1-0.4,0.1c0.8,0.2,1.3,0.5,1.7,0.7
	c0.4,0.3,0.6,0.7,0.6,1.1c0,0.2-0.1,0.3-0.2,0.5c-0.1,0.1-0.2,0.1-0.4,0.1c-0.3,0-0.6-0.2-0.9-0.6c-0.2-0.5-0.6-0.9-1.1-1.3
	c-0.3,0.6-0.7,1-1.1,1.4c-0.3,0.3-0.5,0.6-0.9,0.8c0.4,0,0.9,0.1,1.5,0.1h0.6c0,0,0.1-0.1,0.3-0.4c0.2-0.3,0.4-0.4,0.4-0.4
	c0.1,0,0.3,0.1,0.6,0.4c0.3,0.3,0.4,0.5,0.4,0.5c0,0.1-0.1,0.2-0.1,0.2H95v1.8h0.4c0,0,0.1-0.1,0.3-0.4c0.2-0.3,0.3-0.4,0.4-0.4
	c0.1,0,0.3,0.1,0.6,0.4c0.3,0.3,0.4,0.5,0.4,0.5c0,0.1-0.1,0.2-0.2,0.2H95v3.4c0.7-0.1,1.3-0.3,2-0.5l0.1,0.2c-1.3,1-2.6,1.6-4,2.1
	c-0.2,0-0.2,0.1-0.2,0.2c0,0,0,0.1-0.1,0.2c0,0.1-0.1,0.2-0.1,0.2c-0.2,0-0.4-0.3-0.7-1c-0.1-0.2-0.2-0.5-0.4-0.9
	c0.7-0.1,1.4-0.1,2-0.2v-3.7h-0.2c-0.8,0-1.3,0-1.6,0.1l-0.2-0.5c0.4,0.1,1,0.1,1.8,0.1h0.2v-1.8c-0.5,0-0.8,0-1,0.1l-0.1-0.3
	c-0.3,0.2-0.6,0.4-0.9,0.6l-0.1-0.2c0.4-0.4,0.9-1.1,1.3-1.8c0.4-0.6,0.7-1.4,1-2.4C94.4,10.7,94.8,10.8,95.2,10.9 M93.2,18.3
	c0.2,0.3,0.3,0.7,0.3,1c0,0.3-0.1,0.5-0.2,0.7c-0.2,0.2-0.4,0.3-0.5,0.3c-0.1,0-0.2-0.1-0.3-0.2c-0.1-0.1-0.1-0.4-0.1-0.8
	c0-0.5-0.1-1.1-0.2-1.8l0.1-0.1C92.7,17.6,93,17.9,93.2,18.3 M96.8,17.5c0.3,0.1,0.5,0.3,0.5,0.4c0,0.1-0.1,0.1-0.3,0.1
	c-0.2,0-0.3,0.1-0.3,0.1c-0.4,0.6-0.8,1.2-1.3,1.7l-0.2-0.2c0.2-0.8,0.3-1.6,0.4-2.5C96.1,17.2,96.4,17.4,96.8,17.5 M99,11.5h2
	c0.2-0.2,0.4-0.4,0.6-0.6c0.1-0.1,0.3-0.2,0.4-0.2c0.1,0,0.4,0.1,0.8,0.4c0.5,0.3,0.7,0.5,0.7,0.7c0,0.1-0.1,0.3-0.3,0.4
	c-0.2,0.1-0.2,0.3-0.2,0.4v2.4c0,0.4,0,1,0.1,1.7c0,0.2-0.2,0.3-0.5,0.3c0.3,0.2,0.7,0.4,1,0.6c0.3,0.3,0.5,0.5,0.5,0.6
	c0,0.1-0.1,0.2-0.2,0.2l-0.7-0.1c-0.4,0.3-0.9,0.6-1.6,0.9c0.1,0.1,0.1,0.2,0.2,0.3c0.3,0.4,0.6,0.7,1,1c0.4,0.3,0.8,0.5,1.4,0.7
	l-0.1,0.3c-0.4,0.1-0.7,0.3-0.9,0.8c-0.1,0.3-0.2,0.5-0.3,0.5c-0.1,0-0.3-0.1-0.6-0.4c-0.3-0.3-0.6-0.7-0.9-1.3
	c-0.1-0.1-0.1-0.3-0.2-0.4c-1,0.7-2,1.3-3.1,1.6c-0.1,0-0.2,0.1-0.2,0.2c0,0.1,0,0.1-0.1,0.2c0,0.1-0.1,0.2-0.2,0.2
	c-0.2,0-0.4-0.3-0.7-1c-0.1-0.2-0.2-0.5-0.4-0.9c0.4,0,0.7-0.1,1.1-0.1v-7.2c0-1.1-0.1-2-0.2-2.5C97.8,11.1,98.4,11.3,99,11.5
	 M101.4,11.9h-2.4v1.9h2.4V11.9z M101.4,14.1h-2.4v1.9h2.4V14.1z M100.4,18.9c-0.2-0.6-0.3-1.5-0.4-2.5h-1v4
	c0.6-0.1,1.2-0.2,1.8-0.4C100.6,19.7,100.5,19.3,100.4,18.9 M100.7,17.8c0.1,0.4,0.3,0.7,0.4,1c0.1-0.2,0.2-0.4,0.4-0.6
	c0.2-0.4,0.4-0.7,0.5-1.2c-0.1,0-0.2,0-0.3,0c-0.2,0-0.4-0.1-0.4-0.4v-0.2h-1.1C100.4,16.8,100.5,17.3,100.7,17.8"/>
</svg>
