<?xml version="1.0" encoding="utf-8"?>
<!-- Generator: Adobe Illustrator 27.1.1, SVG Export Plug-In . SVG Version: 6.00 Build 0)  -->
<svg version="1.1" id="圖層_1" xmlns="http://www.w3.org/2000/svg" xmlns:xlink="http://www.w3.org/1999/xlink" x="0px" y="0px"
	 viewBox="0 0 120 28.9" style="enable-background:new 0 0 120 28.9;" xml:space="preserve">
<style type="text/css">
	.st0{fill:#3F464B;}
	.st1{fill:#96694C;}
	.st2{fill:#85754E;}
</style>
<g id="XMLID_144_">
	<g id="XMLID_304_">
		<path id="XMLID_311_" class="st0" d="M58,14.8H47.2c-0.2,0-0.3,0.1-0.3,0.3V16c0,0.2,0.1,0.3,0.3,0.3h3.9c0.2,0,0.3,0.1,0.3,0.3
			l0,0v9c0,0.2,0.1,0.3,0.3,0.3h1.9c0.2,0,0.3-0.1,0.3-0.3v-9l0,0c0-0.2,0.1-0.3,0.3-0.3H58c0.2,0,0.3-0.1,0.3-0.3v-0.9
			C58.3,14.9,58.2,14.8,58,14.8z"/>
		<path id="XMLID_310_" class="st0" d="M42.3,19.3h-3.5c-2.3,0-2.5-0.3-2.5-1.4c0-1.6,0.8-1.5,3.4-1.5c0,0,6.1,0,6.1,0
			c0.1,0,0.3-0.1,0.3-0.3v-1.1c0-0.1-0.1-0.3-0.3-0.3h-7.3c-2.9,0-4.5,0.4-4.5,3c0,2.9,1.5,3.2,5.9,3.2h1.9c1.8,0,2.2,0.2,2.2,1.5
			c0,1.5-0.6,1.7-2.6,1.7h-7.4c-0.1,0-0.3,0.1-0.3,0.3v1.2c0,0.1,0.1,0.3,0.3,0.3h8c2.2,0,4.4-0.2,4.4-2.9V22
			C46.4,20.2,45.1,19.3,42.3,19.3z"/>
		<path id="XMLID_309_" class="st0" d="M78.9,21.3c-0.1-0.1-0.1-0.2-0.1-0.3c0,0,0.1-0.1,0.3-0.2c0,0,2.7-0.7,2.7-2.9
			c0-0.9-0.6-1.7-1.6-2.4c-1.2-0.7-2.6-0.7-2.8-0.7c-0.1,0-0.2,0-0.5,0h-6.1c-0.2,0-0.3,0.1-0.3,0.3c0,0,0,0,0,0c0,0,0,0,0,0v10.4
			c0,0.2,0.1,0.3,0.3,0.3h1.9c0.2,0,0.3-0.1,0.3-0.3v-8.9c0-0.3,0.2-0.4,0.4-0.4h3c0.3,0,0.8,0,1.1,0c0.3,0,0.9,0.1,1.3,0.3
			c0.6,0.3,0.8,0.7,0.8,1.3c-0.1,1.3-1.5,1.7-2.3,1.7c-0.4,0-0.8,0-1,0h-1l4.1,5.9c0.2,0.2,0.5,0.3,0.7,0.3h2.4
			C82.4,25.9,82.1,25.6,78.9,21.3z"/>
		<path id="XMLID_308_" class="st0" d="M93.2,24.3h-7.3c-0.2,0-0.3-0.1-0.3-0.3v-8.7c0-0.3-0.2-0.5-0.5-0.5h-1.5
			c-0.3,0-0.5,0.2-0.5,0.5v10.1c0,0.3,0.2,0.5,0.5,0.5h9.6c0.2,0,0.3-0.1,0.3-0.3v-1C93.5,24.4,93.4,24.3,93.2,24.3z"/>
		<path id="XMLID_307_" class="st0" d="M105.1,14.7h-1.5c-0.3,0-0.5,0.2-0.5,0.5v6.7c0,1.5-1.3,2.4-3.3,2.4c-2.1,0-3.3-0.9-3.3-2.4
			v-6.7c0-0.3-0.2-0.5-0.5-0.5h-1.5c-0.3,0-0.5,0.2-0.5,0.5V22c0,2.2,2.4,3.8,5.8,3.8c3.3,0,5.8-1.6,5.8-3.8v-6.8
			C105.5,14.9,105.3,14.7,105.1,14.7z"/>
		<path id="XMLID_306_" class="st0" d="M113.7,20.3c-0.1-0.1-0.1-0.2,0-0.2l4.1-4.7c0-0.1,0.1-0.1,0.1-0.2c0-0.2-0.1-0.3-0.3-0.3
			c0,0-1.5,0-1.5,0c-0.3,0-0.7,0.1-0.8,0.3l-2.9,3.3c0,0-0.1,0.1-0.2,0.1c-0.1,0-0.1,0-0.2-0.1l-2.9-3.3c-0.2-0.2-0.5-0.3-0.8-0.3
			c0,0-1.5,0-1.5,0c-0.2,0-0.3,0.1-0.3,0.3c0,0.1,0,0.1,0.1,0.2l4.1,4.7c0.1,0.1,0.1,0.2,0,0.2l-4.9,5.6h2.2c0.5,0,0.7-0.1,0.8-0.3
			l3.2-3.6l0,0c0,0,0.1-0.1,0.2-0.1c0.1,0,0.1,0,0.2,0.1l0,0l3.2,3.7c0.2,0.2,0.4,0.3,0.8,0.3h2.2L113.7,20.3z"/>
		<path id="XMLID_305_" class="st0" d="M67.4,25.9c0.6,0,2.1,0,2.1,0L63.7,15l0,0c-0.1-0.1-0.2-0.2-0.4-0.2c0,0-1.4,0-1.4,0
			c-0.2,0-0.4,0.1-0.4,0.2l0,0l-5.8,10.8c0,0,1.5,0,2.1,0c0.3,0,0.6-0.2,0.7-0.4l0,0c0.6-1.3,4-8.1,4-8.1c0,0,0.1-0.1,0.1-0.1
			c0,0,0.1,0,0.1,0.1c0,0,3.5,7,4,8.2C66.8,25.7,67,25.9,67.4,25.9z"/>
	</g>
	<g id="XMLID_214_">
		<path id="XMLID_245_" class="st1" d="M13.5,13.2L13.5,13.2l7.8-7.8c0.8-0.8,1.8-1.4,3-1.7H23h-2.8h-3.7c-0.1,0-0.2,0-0.3,0
			c0,0-0.1,0-0.1,0c0,0-0.1,0-0.1,0c-0.2,0-0.5,0.1-0.7,0.1c0,0,0,0,0,0c0,0-0.1,0-0.1,0c-0.7,0.2-1.4,0.6-2,1
			c-0.2,0.1-0.3,0.3-0.5,0.4l-9.5,9.5h6.5C11.1,14.8,12.5,14.2,13.5,13.2z"/>
		<path id="XMLID_244_" class="st2" d="M12.6,16.4L12.6,16.4l-7.7,7.7c-0.8,0.7-1.8,1.4-3,1.7h1.3h2.8h3.7c0.1,0,0.2,0,0.3,0
			c0,0,0.1,0,0.1,0c0,0,0.1,0,0.1,0c0.2,0,0.5-0.1,0.7-0.1c0,0,0,0,0,0c0,0,0.1,0,0.1,0c0.7-0.2,1.4-0.6,2-1
			c0.2-0.1,0.3-0.3,0.5-0.4l9.5-9.5h-6.5C15,14.8,13.6,15.4,12.6,16.4z"/>
		<path id="XMLID_243_" class="st1" d="M26.2,9.8L26.2,9.8L26.2,9.8c0-0.1,0-0.1,0.1-0.1l0,0c0.9-0.3,3.3-0.5,3.3-0.5
			S27.1,9,26.3,8.8l0,0c0,0-0.1,0-0.1-0.1v0l0,0c0.1-0.3,0.9-1.3,0.9-1.3l-1.3,0.9h0c0,0-0.1,0-0.1-0.1l0,0
			c-0.3-1.3-0.4-3.7-0.4-3.7l0,0l0,0l0,0l0,0c0,0-0.2,2.4-0.4,3.7l0,0c0,0,0,0.1-0.1,0.1h0l-1.3-0.9c0,0,0.8,1,0.9,1.3l0,0v0
			c0,0,0,0.1-0.1,0.1l0,0c-0.9,0.3-3.3,0.4-3.3,0.4s2.5,0.2,3.3,0.5l0,0c0,0,0.1,0,0.1,0.1v0l0,0c-0.1,0.3-0.9,1.2-0.9,1.2l1.3-0.8
			h0c0,0,0.1,0,0.1,0.1l0,0c0.3,1.3,0.4,3.7,0.4,3.7l0,0l0,0l0,0l0,0c0,0,0.2-2.4,0.5-3.7l0,0c0,0,0-0.1,0.1-0.1h0l1.3,0.8
			C27.1,11.1,26.3,10.1,26.2,9.8z"/>
	</g>
</g>
</svg>
