<?xml version="1.0" encoding="UTF-8"?>
<svg xmlns="http://www.w3.org/2000/svg" version="1.1" viewBox="0 0 288.2 132.2">
  <defs>
    <style>
      .cls-1 {
        fill: #c7000b;
      }

      .cls-2 {
        fill: #e60012;
      }
    </style>
  </defs>
  <!-- Generator: Adobe Illustrator 28.7.1, SVG Export Plug-In . SVG Version: 1.2.0 Build 142)  -->
  <g>
    <g id="_圖層_1" data-name="圖層_1">
      <g id="_圖層_1-2" data-name="_圖層_1">
        <g>
          <g>
            <path d="M54,53.2l-7.3,6.3c-5-4.7-10.6-7.1-16.8-7.1s-9.7,1.6-13.3,4.9c-3.6,3.2-5.4,7.2-5.4,12s.8,6.2,2.4,8.8c1.6,2.6,3.9,4.6,6.8,6,2.9,1.5,6.2,2.2,9.7,2.2s5.8-.5,8.3-1.5,5.3-2.9,8.3-5.6l7.1,6.7c-4.1,3.6-7.9,6-11.5,7.4s-7.7,2.1-12.4,2.1c-8.6,0-15.6-2.4-21-7.3-5.4-4.9-8.2-11.1-8.2-18.8s1.2-9.3,3.7-13.2c2.5-3.8,6-6.9,10.7-9.3,4.6-2.3,9.6-3.5,14.9-3.5s8.9.9,13.1,2.6c4.2,1.7,7.8,4.2,10.9,7.3Z"/>
            <path d="M84.4,57.4h10.2v36.6h-10.2v-3.9c-2,1.7-4,2.9-6,3.7-2,.8-4.2,1.1-6.5,1.1-5.3,0-9.8-1.8-13.6-5.5s-5.8-8.2-5.8-13.7,1.9-10.3,5.6-13.9,8.2-5.4,13.5-5.4,4.7.4,6.9,1.2c2.1.8,4.1,2.1,5.9,3.7,0,0,0-3.9,0-3.9ZM73.7,65c-3.2,0-5.8,1-7.9,3s-3.1,4.6-3.1,7.7,1.1,5.8,3.2,7.8,4.7,3.1,7.8,3.1,5.9-1,8-3,3.2-4.6,3.2-7.9-1.1-5.8-3.2-7.7c-2.1-2-4.8-3-8-3Z"/>
            <path d="M97.3,57.4h10.2v3.8c2.3-1.8,4.4-3,6.3-3.7s3.8-1,5.8-1c4,0,7.5,1.3,10.3,3.8,2.4,2.2,3.5,5.3,3.5,9.6v24.2h-10.1v-16.1c0-4.4-.2-7.3-.7-8.7-.4-1.4-1.2-2.5-2.3-3.3s-2.4-1.1-4-1.1-3.8.6-5.3,1.9c-1.5,1.2-2.5,3-3.1,5.2s-.4,3.6-.4,7.4v14.7h-10.2v-36.7Z"/>
            <path class="cls-2" d="M136.7,44.5h10.5v40.5h15.3v9h-25.7v-49.5h-.1Z"/>
            <path class="cls-2" d="M202.4,78.4h-32.8c.5,2.6,1.7,4.7,3.8,6.2s4.7,2.3,7.9,2.3,7.1-1.2,9.8-3.6l8.6,3.6c-2.1,2.7-4.7,4.8-7.7,6.1-3,1.3-6.5,2-10.7,2-6.4,0-11.6-1.8-15.6-5.4s-6-8.2-6-13.6,2-10.2,6-13.9c4-3.7,9-5.5,15.1-5.5s11.6,1.8,15.6,5.5c4,3.7,6,8.6,6,14.6v1.7h0ZM192.2,71.2c-.7-2-2-3.7-4-5s-4.3-1.9-6.9-1.9-5.3.7-7.5,2.2c-1.3.9-2.6,2.5-3.7,4.7h22.1,0Z"/>
            <path class="cls-2" d="M233.1,57.4h10.2v36.6h-10.2v-3.9c-2,1.7-4,2.9-6,3.7-2,.8-4.2,1.1-6.5,1.1-5.3,0-9.8-1.8-13.6-5.5s-5.8-8.2-5.8-13.7,1.9-10.3,5.6-13.9c3.7-3.6,8.2-5.4,13.5-5.4s4.7.4,6.9,1.2c2.1.8,4.1,2.1,5.9,3.7v-3.9h0ZM222.3,65c-3.2,0-5.8,1-7.9,3-2.1,2-3.1,4.6-3.1,7.7s1.1,5.8,3.2,7.8c2.1,2,4.7,3.1,7.8,3.1s5.9-1,8-3,3.2-4.6,3.2-7.9-1.1-5.8-3.2-7.7c-2.1-2-4.7-3-8-3Z"/>
            <path class="cls-2" d="M276,43.3h10.2v50.8h-10.2v-3.9c-2,1.7-4,2.9-6,3.7-2,.8-4.2,1.1-6.5,1.1-5.3,0-9.8-1.8-13.6-5.5s-5.8-8.2-5.8-13.7,1.9-10.3,5.6-13.9,8.2-5.4,13.5-5.4,4.7.4,6.9,1.2c2.1.8,4.1,2.1,5.9,3.7,0,0,0-18.1,0-18.1ZM265.3,65c-3.2,0-5.8,1-7.9,3s-3.1,4.6-3.1,7.7,1.1,5.8,3.2,7.8,4.7,3.1,7.8,3.1,5.9-1,8-3,3.2-4.6,3.2-7.9-1.1-5.8-3.2-7.7c-2.1-2-4.8-3-8-3Z"/>
          </g>
          <g>
            <path class="cls-2" d="M142.9,19.5c-8.4,0-16,3.4-21.5,8.9h0l-3.8-3.8c6.5-6.5,15.4-10.5,25.3-10.5h0c9.9,0,18.8,4,25.3,10.5h0l-3.8,3.8c-5.5-5.5-13.1-8.9-21.5-8.9h0Z"/>
            <path class="cls-2" d="M124.6,36.3c4.7-4.7,11.1-7.6,18.3-7.6h0c7.1,0,13.6,2.9,18.3,7.6h0l-3.8,3.8c-3.7-3.7-8.8-6-14.5-6h0c-5.7,0-10.8,2.3-14.5,6h0l-3.8-3.8h0Z"/>
            <path class="cls-2" d="M109.3,13.9C117.9,5.3,129.8,0,142.9,0h0c13.1,0,25,5.3,33.6,13.9h0l-3.8,3.8c-7.6-7.6-18.2-12.4-29.9-12.4h0c-11.7,0-22.2,4.7-29.9,12.4h0l-3.6-3.8h0Z"/>
          </g>
          <g>
            <g>
              <path d="M198.9,114.4h10.5v2.2h-24.2v-2.2h4.1v-4.2h2.6v4.2h4.4v-5.4h2.6v1.6h9v2.1h-9v1.7h0ZM207.1,129c0,1.2-.2,1.9-.5,2.3-.3.4-1.1.6-2.4.6h-4l-.6-2.4h4.1c.6.1.8-.2.8-.7v-1.4h-14.4v4.6h-2.6v-14.1h19.5v11.1h0ZM204.5,120h-14.4v1.7h14.4v-1.7ZM190.1,125.4h14.4v-1.8h-14.4v1.8Z"/>
              <path d="M213.6,123.5v1.1c0,2.4-.1,4.4-.4,5.9l-1.4-.3c.3-1.8.5-4.1.5-6.8h1.3,0ZM221.3,115.2h-2.3v1.8h2.3v1.6h-2.3v2.1h2.6c-.2,6.1-.4,9.4-.7,10s-.8.9-1.4,1c-.7.1-1.5.2-2.5.2l-.6-2c.5,0,1.1.1,1.7.1s1.2-.2,1.4-.6c.1-.4.2-1.9.2-4.6v-2.2h-7.2v-12.7h8.9v2h-2.4v1.8h2.3s0,1.5,0,1.5ZM214.2,129.8c.1-.9.1-1.9.2-2.9v-.7c0-.9,0-1.8-.1-2.8h1.1c.1,1.6.2,3.7.3,6.3h-1.5ZM214.6,113.6h2.5v-1.8h-2.5v1.8ZM217.1,117.1v-1.8h-2.5v1.8h2.5ZM217.1,120.7v-2.1h-2.5v2.1h2.5ZM216.4,128.3c-.1-1.7-.2-3.3-.4-4.8h1c.2,1.4.4,3,.6,4.6l-1.2.2h0ZM218.3,127.4c-.1-1.4-.3-2.7-.6-4l.8-.2c.3.9.5,2.2.8,3.9,0,0-1,.3-1,.3ZM229.9,115.3v1.2h5.1v1.8h-5.1v1.4h5.8v1.9h-2.4c-.3.7-.6,1.3-.9,1.9h3.1v1.9h-5.5v1.6h5.2v1.8h-5.2v3.4h-2.2v-3.4h-5.1v-1.8h5.1v-1.6h-5.4v-1.9h3.1c-.4-.8-.7-1.4-.9-1.9h-2.2v-1.9h5.5v-1.4h-5.1v-1.8h5.1v-1.2h-5.5v-5.5h13v5.5h-5.5ZM224.2,111.6v2h1.7v-2h-1.7ZM230,123.4c.5-.5.8-1.1,1.1-1.9h-4.5c.4.6.7,1.2.9,1.9h2.5ZM227.8,111.6v2h1.7v-2h-1.7ZM233.1,113.5v-2h-1.8v2h1.8Z"/>
              <path d="M238.5,109.7h22.8v22.3h-2.4v-1h-18v1h-2.4v-22.3h0ZM240.9,111.6v17.5h18.1v-17.5h-18.1,0ZM252,124.2c-.8-2.2-1.3-4.9-1.5-7.9h-8.5v-1.9h8.4v-2h2.2v2h5.5v1.9h-5.5c.1,2.3.4,4.2.9,5.8,1-1.7,1.7-3.4,2.1-4.9l1.8,1.1c-.8,2.2-1.8,4.3-3,6.3,0,0,.2.4.5,1,.3.5.6.8.8.8.3,0,.7-1,1.1-2.9l1.8,1.3c-.8,2.6-1.8,3.9-3,3.9s-1.9-.8-2.7-2.4c-1,1.2-1.8,2.1-2.6,2.7l-1.6-1.7c.8-.5,1.4-1,1.9-1.5-2.1.5-4.9,1-8.4,1.5l-.4-2.1c2.8,0,5.8-.6,9.1-1.3v1.6l1.1-1.3h0ZM242.7,117.6h6.5v5.7h-6.5v-5.7ZM247.3,119.4h-2.6v2.1h2.6v-2.1ZM255.4,114.4c-.4-.9-.8-1.6-1.3-2.1l1.8-.6c.3.3.6.6.8.9.3.4.5.8.7,1.1l-2,.7h0Z"/>
              <path d="M271,114.5c.3,0,1-.6,1.9-1.7,1-1.1,1.7-2.3,2.2-3.7l2.1.3-.5,1.1h3.8c.7,1.9,1.5,3.5,2.5,4.8.9-.9,1.5-1.9,1.9-2.9h-3.1v-1.9h5.5v1.8c-.7,1.6-1.7,3.1-3,4.6,0,0,.4.4,1.2,1,.8.6,1.6,1.1,2.6,1.6l-1.3,2.1c-1.1-.7-2.1-1.4-3-2.2v1.2h-7.9v-1.2c-1.3,1-2.4,1.8-3.2,2.3l-1.7-1.7c1.4-.6,2.4-1.2,3.2-1.9-.6-.5-1.2-.9-1.8-1.2l1.2-1.1c.7.4,1.3.9,1.8,1.3.2-.2.5-.6,1-1.1-.4-.2-.7-.4-.9-.6-.3-.2-.6-.4-1-.6l1-1.2c1,.5,1.6.9,1.8,1.1.4-.7.7-1.4.9-2h-2.8c-1.2,1.9-2.5,3.2-3.9,4.1l-.9-1.6-1.2,3.2c1.4,2,2.2,3.9,2.2,5.5s-1.1,3-3.3,3h-.7l-.6-2.3c.4,0,.8.2,1.2.2.9,0,1.3-.4,1.3-1.1,0-1.4-.7-3.1-2.2-5.1.9-2.1,1.7-4.2,2.3-6.3h-2.7v19.7h-2.2v-22.1h7.2v1.4c-.5,2.1-.9,3.2-.9,3.2h0ZM276.9,125.9c-1.4,1.9-3.1,3.5-5.1,4.8l-1.8-1.7c2.2-1.3,3.9-2.7,5-4.1l1.9,1ZM281.1,128.9c0,1.1-.2,1.9-.6,2.3-.4.4-1.2.6-2.4.6h-1.7l-.6-2.3h2c.6.1.9-.2.9-.7v-4.4h-6.1v-2h14.8v2h-6.3v4.5h0ZM280,113.7c-.7,2-1.7,3.6-3.1,4.7h6.2c-1.2-1-2.3-2.5-3.1-4.7ZM286.6,130.7c-1.3-1.5-2.7-3-4.4-4.6l1.7-1.1c1.5,1.2,2.9,2.6,4.3,4.1l-1.6,1.6h0Z"/>
            </g>
            <g>
              <g>
                <path d="M18.3,125.5l.4.7c-1,.6-2,1-3,1.3-.9.3-1.9.4-2.9.4s-2.5-.3-3.5-.8c-1.1-.5-1.8-1.3-2.4-2.2-.5-1-.8-2-.8-3.2,0-1.9.7-3.5,2.1-4.7,1.4-1.2,3.2-1.8,5.5-1.8s3,.3,4.7.8v3.4h-.8c-.2-1-.5-1.7-.8-2.1s-.7-.7-1.3-.9c-.6-.2-1.3-.3-2.2-.3-1.9,0-3.3.6-4.2,1.8-.7.9-1.1,2.1-1.1,3.5s.5,3,1.5,4c1,1,2.4,1.5,4,1.5s1.4,0,2.1-.3c.8-.3,1.6-.6,2.6-1.1h0Z"/>
                <path d="M20.3,121.8h-.6c0-.7.2-1.3.3-1.9,1.2-.5,2.4-.8,3.4-.8s.8,0,1.2.2.6.3.8.5.4.4.5.7c0,.3.2.7.2,1.3v3.6c0,.5,0,.8.1,1,0,0,.3.2.5.2s.6-.2,1.1-.5l.3.4c-.9.7-1.4,1.1-1.5,1.2-.2,0-.4,0-.7,0s-.7,0-1-.3c-.2-.2-.4-.5-.5-.9-.8.5-1.3.9-1.7,1s-.8.2-1.2.2c-.7,0-1.3-.2-1.7-.6-.4-.4-.7-.9-.7-1.5s0-.7.2-1,.4-.6.7-.8c.2-.2.6-.4,1.1-.6,1.3-.5,2.3-1,3.3-1.3,0-.8-.2-1.4-.5-1.6-.3-.3-.7-.4-1.2-.4s-1,0-1.3.4c-.5.3-.8.7-1.1,1.4h0ZM24.3,122.7c-1.7.7-2.7,1.2-3,1.5-.4.3-.5.7-.5,1.1s0,.8.4,1c.3.3.6.4.9.4s.8,0,1.2-.3.7-.5.8-.7c0-.3.2-.8.2-1.5v-1.5Z"/>
                <path d="M27.3,120.8v-.5c1.2-.2,2.2-.6,3.1-1.1h.3c0,.6,0,1.1-.2,1.6l1.2-1.1c.2-.2.4-.3.7-.4.4,0,.8-.2,1.2-.2.9,0,1.6.3,2.1.8.3.4.5,1,.5,1.9v4.6c0,.2,0,.3.2.4,0,0,.4.2.9.3,0,0,.2,0,.4,0v.5c-.8,0-1.4,0-2,0s-1.4,0-2.6,0v-.5c.7-.2,1.2-.3,1.3-.4,0,0,0-.2.2-.3v-4.9c0-.4-.3-.7-.6-.9-.3-.2-.6-.3-1-.3s-.8,0-1.3.3c-.4.2-.7.5-.9.9s-.3.9-.3,1.7v3.4c0,.2.5.3,1.1.5,0,0,.2,0,.4,0v.5c-.9,0-1.6,0-2.2,0s-1.4,0-2.5,0v-.5c.8-.2,1.2-.3,1.3-.4v-5.8c0-.2-.3-.4-.6-.4h-.7c0,0-.1,0-.3,0h.3Z"/>
                <path d="M37.3,115.9v-.5h6.5v.5c-1.2.2-1.8.3-2,.4,0,0-.2,0-.3.2,0,0-.2.4-.2.8v9.5h4.2c.6,0,1,0,1.2,0s.4-.2.6-.5c.2-.2.6-.8,1.2-1.8h.9l-.8,1.9c0,.4-.3.8-.5,1.4-2.7,0-5,0-6.9,0s-2.7,0-3.9,0v-.5c1-.2,1.6-.3,1.7-.3.2,0,.3,0,.3-.2v-10.2c0,0-.6-.2-1.4-.4,0,0-.3-.2-.6-.2Z"/>
                <path d="M57,125.5l.4.5-1.9,1.3c-.3.2-.5.3-.8.4-.4,0-.8.2-1.3.2-1,0-1.9-.4-2.7-1.1-.7-.8-1.1-1.8-1.1-3.1s.4-2.5,1.3-3.3,2-1.3,3.3-1.3,1.8.2,2.3.7.8,1.2.8,2.3c-.3,0-.5.3-.7.5h-.9c-1.7,0-3.2,0-4.4,0,0,1.3.2,2.3.7,2.9.5.7,1.2,1,2,1s.9,0,1.3-.2c.4-.2,1-.5,1.7-.9ZM55.6,121.8c0-.6-.2-1-.4-1.3-.4-.4-.8-.7-1.5-.7s-1,.2-1.4.5-.7.9-.9,1.6h.5c1.1,0,2.3,0,3.7,0Z"/>
                <path d="M58.8,121.8h-.6c0-.7.2-1.3.3-1.9,1.2-.5,2.4-.8,3.4-.8s.8,0,1.2.2c.4,0,.6.3.8.5s.4.4.5.7c0,.3.2.7.2,1.3v4.6c0,0,.3.2.5.2s.6-.2,1.1-.5l.3.4c-.9.7-1.4,1.1-1.5,1.2-.2,0-.4,0-.7,0s-.7,0-1-.3c-.2-.2-.4-.5-.5-.9-.8.5-1.3.9-1.7,1s-.8.2-1.2.2c-.7,0-1.3-.2-1.7-.6s-.7-.9-.7-1.5,0-.7.2-1,.4-.6.7-.8c.2-.2.6-.4,1.1-.6,1.3-.5,2.3-1,3.3-1.3,0-.8-.2-1.4-.5-1.6-.3-.3-.7-.4-1.2-.4s-1,0-1.3.4c-.4.3-.8.7-1.1,1.4h0ZM62.9,122.7c-1.7.7-2.7,1.2-3,1.5-.4.3-.5.7-.5,1.1s0,.8.4,1c.3.3.6.4.9.4s.8,0,1.2-.3c.4-.2.7-.5.8-.7,0-.3.2-.8.2-1.5,0,0,0-1.5,0-1.5Z"/>
                <path d="M71.3,116.5v-.5c.7-.2,1.2-.3,1.5-.4s.8-.3,1.6-.7l.2.2c0,1.3-.2,3.8-.2,7.5s0,3.1,0,3.4.3.3.6.3.5,0,1,0v.5c-1.3.4-2.4.7-3.1,1.1l-.2-.2v-1.3c-.8.7-1.4,1.1-1.8,1.2-.4.2-.8.2-1.3.2-1,0-1.8-.3-2.4-1s-1-1.6-1-2.8.2-1.5.5-2.1c.2-.5.6-.9,1-1.3s1-.7,1.5-1c.6-.2,1.1-.4,1.7-.4h.9c.3,0,.7,0,1,.3v-2.8c0-.2-.3-.3-.6-.3h-1v.2ZM72.9,123.2v-2c0-.3-.4-.6-.8-.9-.4-.2-.9-.4-1.5-.4s-1.4.3-1.9.8-.8,1.3-.8,2.4.3,1.9.8,2.5,1.1.9,1.9.9.9,0,1.3-.4c.4-.2.7-.5.8-.9.2-.2.3-.9.3-2h-.1Z"/>
              </g>
              <g>
                <g>
                  <path d="M77.8,120.8v-.5c1.1-.2,2.1-.6,3-1.1l.2.2c0,1.2-.2,3-.2,5.2s0,1.7,0,1.9,0,.3.2.4c0,0,.4.2,1,.3,0,0,.2,0,.3,0v.5c-.8,0-1.5,0-2.1,0s-1.2,0-2.6,0v-.5c.9-.2,1.4-.4,1.5-.5,0-.2.2-1,.2-2.5v-3.5s-.3-.2-.5-.2c0,0-.5,0-1,.2ZM80.2,115c.3,0,.5,0,.7.3.2.2.3.4.3.6s0,.5-.3.6c-.2.2-.4.3-.7.3s-.5,0-.7-.3c-.2-.2-.3-.4-.3-.6,0-.3,0-.5.3-.6.2-.2.4-.3.7-.3Z"/>
                  <path d="M82.1,120.8v-.5c1.2-.2,2.2-.6,3.1-1.1h.3c0,.6,0,1.1-.2,1.6l1.2-1.1c.2-.2.4-.3.7-.4.4,0,.8-.2,1.2-.2.9,0,1.6.3,2.1.8.3.4.5,1,.5,1.9v4.6c0,.2,0,.3.2.4,0,0,.4.2.9.3,0,0,.2,0,.4,0v.5c-.8,0-1.4,0-2,0s-1.4,0-2.6,0v-.5c.7-.2,1.2-.3,1.3-.4,0,0,0-.2.2-.3v-4.9c0-.4-.3-.7-.6-.9-.3-.2-.6-.3-1-.3s-.8,0-1.3.3c-.4.2-.7.5-.9.9-.2.4-.3.9-.3,1.7v3.4c0,.2.5.3,1.1.5,0,0,.2,0,.4,0v.5c-.9,0-1.6,0-2.2,0s-1.4,0-2.5,0v-.5c.8-.2,1.2-.3,1.3-.4v-5.8c0-.2-.3-.4-.6-.4h-1,.3Z"/>
                  <path d="M94.5,117.3h.6l-.2,2.2h2.8c-.2.3-.3.6-.4.9h-2.3v4.5h0c0,.8,0,1.3.3,1.6.2.3.5.5.9.5s.8,0,1.3-.4l.3.5c-.7.4-1.2.7-1.6.8-.4,0-.7.2-1,.2s-.8-.1-1.1-.3c-.3-.2-.5-.5-.6-.8v-6.4h-1.4v-.5c.5-.2,1-.5,1.4-.9.3-.5.7-1.1,1.1-1.9h-.1Z"/>
                  <path d="M104.8,125.6l.4.5-1.9,1.3c-.3.2-.5.3-.8.4-.4,0-.8.2-1.3.2-1,0-1.9-.4-2.7-1.1-.7-.8-1.1-1.8-1.1-3.1s.4-2.5,1.3-3.3,2-1.3,3.3-1.3,1.8.2,2.3.7.8,1.2.8,2.3c-.3,0-.5.3-.7.5h-.9c-1.7,0-3.2,0-4.4,0,0,1.3.2,2.3.7,2.9.5.7,1.2,1,2,1s.9,0,1.3-.2c.4-.2,1-.5,1.7-.9ZM103.4,121.9c0-.6-.2-1-.4-1.3-.4-.4-.8-.7-1.5-.7s-1,.2-1.4.5-.7.9-.9,1.6h.5c1.1,0,2.3,0,3.7,0Z"/>
                  <path d="M105,120.8v-.5c1.2-.3,2.2-.6,3.1-1.1l.2.2c0,.6-.2,1.2-.2,1.8.8-.9,1.3-1.4,1.6-1.6s.7-.3,1.1-.3.6,0,.9.2c0,.6-.3,1.2-.3,1.8h-.5c0-.3-.2-.5-.3-.6s-.3-.2-.5-.2c-.3,0-.5,0-.8.3-.4.3-.8.7-.9,1.1-.2.4-.3,1-.3,1.8,0,1.3,0,2.2,0,2.7,0,.2,0,.3.3.4,0,0,.6.2,1.4.4v.5c-.8,0-1.5,0-2.2,0s-1.4,0-2.7,0v-.5c.9-.2,1.4-.3,1.5-.5,0,0,.2-.4.2-.9v-1.9c0-1.8,0-2.8,0-3s-.2-.4-.5-.4h-.8c0,.2-.2.2-.3.2h0Z"/>
                  <path d="M110.9,120.8v-.5c1.2-.2,2.2-.6,3.1-1.1h.3c0,.6,0,1.1-.2,1.6l1.2-1.1c.2-.2.4-.3.7-.4.4,0,.8-.2,1.2-.2.9,0,1.6.3,2.1.8.3.4.5,1,.5,1.9v2.1c0,1.4,0,2.2,0,2.5,0,.2,0,.3.2.4s.4.2.9.3c0,0,.2,0,.4,0v.5c-.8,0-1.4,0-2,0s-1.4,0-2.6,0v-.5c.7-.2,1.2-.3,1.3-.4,0,0,0-.2.2-.3,0-.6,0-1.4,0-2.6s0-2,0-2.3c0-.4-.3-.7-.6-.9-.3-.2-.6-.3-1-.3s-.8,0-1.3.3c-.4.2-.7.5-.9.9s-.3.9-.3,1.7c0,2.1,0,3.2,0,3.4s.5.3,1.1.5c0,0,.2,0,.4,0v.5c-.9,0-1.6,0-2.2,0s-1.4,0-2.5,0v-.5c.8-.2,1.2-.3,1.3-.4,0,0,0-.2,0-.4,0-.5,0-1.3,0-2.2,0-2,0-3,0-3.2s-.3-.4-.6-.4h-1,0Z"/>
                  <path d="M122.5,121.9h-.6c0-.7.2-1.3.3-1.9,1.2-.5,2.4-.8,3.4-.8s.8,0,1.2.2.6.3.8.5.4.4.5.7c0,.3.2.7.2,1.3v3.6c0,.5,0,.8,0,1,0,0,.3.2.5.2s.6-.2,1.1-.5l.3.4c-.9.7-1.4,1.1-1.5,1.2-.2,0-.4,0-.7,0s-.7,0-1-.3c-.2-.2-.4-.5-.5-.9-.8.5-1.3.9-1.7,1s-.8.2-1.2.2c-.7,0-1.3-.2-1.7-.6-.4-.4-.7-.9-.7-1.5s0-.7.2-1c.2-.3.4-.6.7-.8.2-.2.6-.4,1.1-.6,1.3-.5,2.3-1,3.3-1.3,0-.8-.2-1.4-.5-1.6-.3-.3-.7-.4-1.2-.4s-1,0-1.3.4c-.4.3-.8.7-1.1,1.4h0ZM126.6,122.8c-1.7.7-2.7,1.2-3,1.5s-.5.7-.5,1.1,0,.8.4,1c.3.3.6.4.9.4s.8,0,1.2-.3.7-.5.8-.7c0-.3.2-.8.2-1.5v-1.5h0Z"/>
                  <path d="M132.1,117.3h.6l-.2,2.2h2.8c-.2.3-.3.6-.4.9h-2.3v4.5c-.1,0-.1,0-.1,0,0,.7.1,1.2.3,1.5s.5.5.9.5.8,0,1.3-.4l.3.5c-.7.4-1.2.7-1.6.8-.4,0-.7.2-1,.2s-.8-.1-1.1-.3-.5-.5-.6-.8c-.1-.2-.1-.8-.1-1.8s0-2.6.1-4.6h-1.4v-.5c.5-.2,1-.5,1.4-.9.3-.5.7-1.1,1.1-1.9Z"/>
                  <path d="M134.7,120.8v-.5c1.1-.2,2.1-.6,3-1.1l.2.2c-.1,1.2-.2,3-.2,5.2s0,1.7.1,1.9c0,.2.1.3.2.4s.4.2,1,.3c.1,0,.2,0,.3,0v.5c-.8,0-1.5,0-2.1,0s-1.2,0-2.6,0v-.5c.9-.2,1.4-.4,1.5-.5.1-.2.2-1,.2-2.5v-2.3c0-.6,0-1-.1-1.2s-.3-.2-.5-.2c0,0-.4,0-1,.2h0ZM137.1,115c.3,0,.5,0,.7.3.2.2.3.4.3.6s-.1.5-.3.6c-.2.2-.4.3-.7.3s-.5,0-.7-.3c-.2-.2-.3-.4-.3-.6,0-.3.1-.5.3-.6.2-.2.5-.3.7-.3Z"/>
                  <path d="M139.5,123.7c0-1.4.4-2.5,1.3-3.3.9-.8,2-1.2,3.5-1.2s2.4.4,3.2,1.1,1.2,1.8,1.2,3.1-.4,2.5-1.3,3.4c-.9.8-2,1.2-3.5,1.2s-2.4-.4-3.2-1.1c-.8-.8-1.2-1.8-1.2-3.2ZM141.3,122.9c0,.9.1,1.6.2,2.1.2.7.5,1.3,1,1.6.5.4,1,.5,1.6.5s1.4-.3,1.9-.8.8-1.4.8-2.6-.3-2.3-.9-3c-.6-.6-1.3-1-2-1s-1.4.3-1.9.8c-.4.6-.7,1.4-.7,2.4h0Z"/>
                  <path d="M148.7,120.8v-.5c1.2-.2,2.2-.6,3.1-1.1h.3c-.1.6-.1,1.1-.2,1.6l1.2-1.1c.2-.2.4-.3.7-.4.4,0,.8-.2,1.2-.2.9,0,1.6.3,2.1.8.3.4.5,1,.5,1.9v2.1c0,1.4,0,2.2.1,2.5,0,.2.1.3.2.4s.4.2.9.3c.1,0,.2,0,.4,0v.5c-.8,0-1.4,0-2,0s-1.4,0-2.6,0v-.5c.7-.2,1.2-.3,1.3-.4s.1-.2.2-.3c.1-.6.1-1.4.1-2.6s0-2-.1-2.3c-.1-.4-.3-.7-.6-.9-.3-.2-.6-.3-1-.3s-.8,0-1.3.3c-.4.2-.7.5-.9.9s-.3.9-.3,1.7c0,2.1,0,3.2.1,3.4s.5.3,1.1.5c.1,0,.2,0,.4,0v.5c-.9,0-1.6,0-2.2,0s-1.4,0-2.5,0v-.5c.8-.2,1.2-.3,1.3-.4.1,0,.1-.2.1-.4.1-.5.1-1.3.1-2.2,0-2,0-3-.1-3.2s-.3-.4-.6-.4h-1Z"/>
                  <path d="M160.3,121.9h-.6c.1-.7.2-1.3.3-1.9,1.2-.5,2.4-.8,3.4-.8s.8,0,1.2.2.6.3.8.5.4.4.5.7c.1.3.2.7.2,1.3v3.6c-.1.5,0,.8,0,1,.1,0,.3.2.5.2s.6-.2,1.1-.5l.3.4c-.9.7-1.4,1.1-1.5,1.2-.2,0-.4,0-.7,0s-.7,0-1-.3c-.2-.2-.4-.5-.5-.9-.8.5-1.3.9-1.7,1s-.8.2-1.2.2c-.7,0-1.3-.2-1.7-.6s-.7-.9-.7-1.5.1-.7.2-1c.2-.3.4-.6.7-.8.2-.2.6-.4,1.1-.6,1.3-.5,2.3-1,3.3-1.3,0-.8-.2-1.4-.5-1.6-.3-.3-.7-.4-1.2-.4s-1,0-1.3.4c-.5.3-.8.7-1.1,1.4h0ZM164.3,122.8c-1.7.7-2.7,1.2-3,1.5-.4.3-.5.7-.5,1.1s.1.8.4,1c.3.3.6.4.9.4s.8,0,1.2-.3.7-.5.8-.7c.1-.3.2-.8.2-1.5v-1.5h0Z"/>
                  <path d="M167.3,116.6v-.5c1.1-.3,2.2-.7,3.1-1.1l.3.2c-.2,1.1-.2,3.1-.2,6.1v4.9c0,.3.1.5.2.6.1,0,.6.3,1.4.5v.5c-1,0-1.8,0-2.4,0s-1.4,0-2.4,0v-.5c.9-.2,1.3-.4,1.4-.5.1,0,.1-.2.1-.5v-8.9h0c0-.4,0-.6-.1-.7s-.2,0-.5,0c-.1,0-.4,0-.9,0h0Z"/>
                </g>
                <path class="cls-1" d="M81.9,115.6c0,.9-.8,1.7-1.7,1.7s-1.7-.8-1.7-1.7.8-1.7,1.7-1.7,1.7.8,1.7,1.7Z"/>
              </g>
            </g>
          </g>
        </g>
      </g>
    </g>
  </g>
</svg>