<svg width="99" height="45" viewBox="0 0 99 45" fill="none" xmlns="http://www.w3.org/2000/svg">
<g clip-path="url(#clip0_114_32)">
<path d="M18.176 18.148L15.6789 20.2905C13.9811 18.6735 12.0686 17.865 9.94472 17.865C8.15355 17.865 6.64226 18.4154 5.41394 19.5193C4.18562 20.6232 3.57301 21.9822 3.57301 23.5992C3.57301 24.7249 3.84356 25.7262 4.38775 26.5969C4.93194 27.4707 5.70003 28.1549 6.69512 28.6524C7.69021 29.15 8.79415 29.3987 10.01 29.3987C11.0455 29.3987 11.994 29.2246 12.8523 28.8763C13.7105 28.528 14.6528 27.8937 15.6821 26.9763L18.1045 29.2495C16.7176 30.4685 15.4084 31.3112 14.177 31.7807C12.9456 32.2503 11.5369 32.4866 9.95405 32.4866C7.03718 32.4866 4.64896 31.6532 2.79249 29.9896C0.936016 28.3259 0.00622559 26.1927 0.00622559 23.5899C0.00622559 21.9075 0.42914 20.4087 1.27497 19.1026C2.1208 17.7935 3.33357 16.7424 4.91017 15.9463C6.48677 15.1502 8.18465 14.7522 10.0069 14.7522C11.5555 14.7522 13.0451 15.0476 14.4786 15.6353C15.9122 16.2231 17.1467 17.0596 18.1822 18.1448L18.176 18.148Z" fill="white"/>
<path d="M28.5467 19.5753H32.0296V32.0637H28.5467V30.7421C27.8657 31.3236 27.1847 31.7434 26.5006 31.9984C25.8165 32.2534 25.0764 32.384 24.2772 32.384C22.486 32.384 20.9343 31.759 19.6282 30.5058C18.319 29.2557 17.666 27.6977 17.666 25.8382C17.666 23.9786 18.3004 22.3305 19.5629 21.0959C20.8285 19.8645 22.3647 19.2488 24.1745 19.2488C25.0079 19.2488 25.7885 19.3918 26.5192 19.6748C27.25 19.9578 27.9248 20.3838 28.5436 20.9498V19.5722L28.5467 19.5753ZM24.8867 22.147C23.8107 22.147 22.9151 22.4891 22.203 23.1732C21.4909 23.8573 21.1364 24.7373 21.1364 25.8071C21.1364 26.8768 21.4971 27.7755 22.2248 28.4689C22.9493 29.1655 23.8418 29.5138 24.8991 29.5138C25.9564 29.5138 26.8986 29.1717 27.6201 28.4876C28.3415 27.8035 28.6991 26.9048 28.6991 25.7946C28.6991 24.6845 28.3384 23.8293 27.6201 23.1545C26.8986 22.4797 25.9875 22.1439 24.8867 22.1439V22.147Z" fill="white"/>
<path d="M32.9376 19.5754H36.4204V20.8566C37.2103 20.2564 37.9255 19.8397 38.5661 19.6065C39.2067 19.3733 39.8628 19.2551 40.5345 19.2551C41.909 19.2551 43.0782 19.6874 44.036 20.5519C44.8414 21.2857 45.2457 22.3741 45.2457 23.8108V32.0638H41.8033V26.5939C41.8033 25.1044 41.7287 24.1124 41.5794 23.6242C41.4301 23.136 41.172 22.7628 40.802 22.5047C40.4319 22.2497 39.9779 22.1191 39.4337 22.1191C38.7309 22.1191 38.1245 22.3306 37.6208 22.7566C37.117 23.1826 36.7656 23.7673 36.5697 24.5167C36.4671 24.9054 36.4173 25.7512 36.4173 27.0511V32.0607H32.9345V19.5723L32.9376 19.5754Z" fill="white"/>
<path d="M46.3838 15.1814H49.9537V29.0039H55.1562V32.07H46.3807V15.1845L46.3838 15.1814Z" fill="#E60012"/>
<path d="M68.7827 26.7275H57.5973C57.759 27.6137 58.1912 28.3227 58.8909 28.8452C59.5937 29.3707 60.4861 29.6319 61.5745 29.6319C62.8744 29.6319 63.9938 29.2214 64.9299 28.4036L67.8623 29.6443C67.1315 30.5772 66.2546 31.2676 65.2346 31.7154C64.2146 32.1632 63.0019 32.3871 61.5994 32.3871C59.4226 32.3871 57.6501 31.7683 56.2819 30.5337C54.9136 29.2992 54.2295 27.7506 54.2295 25.891C54.2295 24.0314 54.9105 22.4019 56.2757 21.1456C57.6408 19.8862 59.3511 19.2581 61.4097 19.2581C63.5958 19.2581 65.3714 19.8862 66.7397 21.1456C68.1079 22.405 68.7921 24.0656 68.7921 26.1335L68.7796 26.7306L68.7827 26.7275ZM65.2999 24.2584C65.0698 23.5618 64.6158 22.9959 63.9379 22.5605C63.26 22.1252 62.4763 21.9075 61.5807 21.9075C60.6105 21.9075 59.7585 22.1532 59.0246 22.6414C58.5644 22.9461 58.1383 23.4872 57.7465 24.2615H65.2968L65.2999 24.2584Z" fill="#E60012"/>
<path d="M79.2312 19.5753H82.714V32.0637H79.2312V30.7421C78.5502 31.3236 77.8692 31.7434 77.1851 31.9984C76.5009 32.2534 75.7608 32.384 74.9616 32.384C73.1705 32.384 71.6188 31.759 70.3127 30.5058C69.0035 29.2557 68.3505 27.6977 68.3505 25.8382C68.3505 23.9786 68.9849 22.3305 70.2474 21.0959C71.513 19.8645 73.0492 19.2488 74.859 19.2488C75.6924 19.2488 76.4729 19.3918 77.2037 19.6748C77.9345 19.9578 78.6093 20.3838 79.2281 20.9498V19.5722L79.2312 19.5753ZM75.5711 22.147C74.4952 22.147 73.5996 22.4891 72.8875 23.1732C72.1754 23.8573 71.8209 24.7373 71.8209 25.8071C71.8209 26.8768 72.1816 27.7755 72.9093 28.4689C73.6338 29.1655 74.5263 29.5138 75.5836 29.5138C76.6409 29.5138 77.5831 29.1717 78.3045 28.4876C79.026 27.8035 79.3836 26.9048 79.3836 25.7946C79.3836 24.6845 79.0229 23.8293 78.3045 23.1545C77.5831 22.4797 76.672 22.1439 75.5711 22.1439V22.147Z" fill="#E60012"/>
<path d="M93.8622 14.7554H97.345V32.0669H93.8622V30.7453C93.1812 31.3268 92.5002 31.7466 91.816 32.0016C91.1319 32.2566 90.3918 32.3872 89.5926 32.3872C87.8015 32.3872 86.2497 31.7621 84.9437 30.5089C83.6345 29.2589 82.9815 27.7009 82.9815 25.8413C82.9815 23.9818 83.6158 22.3336 84.8784 21.0991C86.144 19.8677 87.6802 19.252 89.49 19.252C90.3234 19.252 91.1039 19.395 91.8347 19.678C92.5655 19.961 93.2403 20.387 93.8591 20.9529V14.7554H93.8622ZM90.2021 22.1471C89.1262 22.1471 88.2306 22.4891 87.5185 23.1732C86.8064 23.8574 86.4519 24.7374 86.4519 25.8071C86.4519 26.8769 86.8126 27.7755 87.5402 28.469C88.2648 29.1656 89.1573 29.5139 90.2146 29.5139C91.2718 29.5139 92.2141 29.1718 92.9355 28.4877C93.657 27.8035 94.0146 26.9048 94.0146 25.7947C94.0146 24.6845 93.6538 23.8294 92.9355 23.1546C92.2141 22.4798 91.3029 22.1439 90.2021 22.1439V22.1471Z" fill="#E60012"/>
<path d="M48.4953 6.63904C45.625 6.63904 43.0347 7.79895 41.1533 9.67719L39.8722 8.39601C42.0769 6.18814 45.1306 4.823 48.4953 4.823C51.8599 4.823 54.9167 6.18814 57.1184 8.39601L55.8372 9.67719C53.9558 7.79584 51.3655 6.63904 48.4953 6.63904Z" fill="#E60012"/>
<path d="M42.2666 12.3733C43.8588 10.7811 46.0666 9.79224 48.4953 9.79224C50.9239 9.79224 53.1349 10.7811 54.7239 12.3733L53.4427 13.6544C52.174 12.3857 50.4326 11.6083 48.4953 11.6052C46.5611 11.6052 44.8165 12.3857 43.5478 13.6544L42.2666 12.3733Z" fill="#E60012"/>
<path d="M37.0299 4.74846C39.9592 1.81605 44.0173 0 48.4921 0C52.967 0 57.0251 1.81605 59.9575 4.74846L58.6763 6.02965C56.0704 3.42374 52.4756 1.81294 48.4952 1.81294C44.5149 1.81294 40.9232 3.42063 38.3142 6.02965L37.033 4.74846H37.0299Z" fill="#E60012"/>
<path d="M67.5731 39.0013H71.1585V39.7414H62.9117V39.0013H64.3204V37.5553H65.1942V39.0013H66.6806V37.1729H67.5731V37.7295H70.633V38.4447H67.5731V39.0013ZM70.3811 43.9706C70.3811 44.3624 70.3189 44.6236 70.1976 44.7511C70.0826 44.8848 69.8058 44.9501 69.3767 44.9501H68.0302L67.8219 44.1447L69.2305 44.1852C69.4233 44.1852 69.5197 44.095 69.5197 43.9208V43.4295H64.6033V44.9999H63.7295V40.1799H70.3935L70.3842 43.9675L70.3811 43.9706ZM69.5042 40.9045H64.5878V41.4704H69.5042V40.9045ZM64.5909 42.7547H69.5073V42.139H64.5909V42.7547Z" fill="white"/>
<path d="M72.5734 42.0924V42.4594C72.5734 43.2896 72.5299 43.9676 72.4428 44.4869L71.9608 44.3967C72.0728 43.7717 72.1256 43.0036 72.1256 42.0955H72.5703L72.5734 42.0924ZM75.2166 39.2844H74.4392V39.9063H75.2166V40.4381H74.4392V41.144H75.3317C75.2726 43.2212 75.198 44.3532 75.1047 44.5428C75.0052 44.7325 74.8435 44.8445 74.6134 44.8849C74.3864 44.9222 74.0972 44.944 73.7489 44.944L73.5467 44.2723C73.7333 44.2879 73.9323 44.2972 74.1407 44.2972C74.4019 44.2972 74.5574 44.2319 74.604 44.0982C74.6507 43.9707 74.6756 43.4451 74.6756 42.5185V41.7784H72.2345V37.4404H75.2695V38.1121H74.4485V38.734H75.226L75.2166 39.2813V39.2844ZM72.7849 44.2599C72.8129 43.9551 72.8315 43.6255 72.8377 43.271V43.0471C72.8377 42.7361 72.8284 42.4252 72.8129 42.108L73.1798 42.0924C73.2202 42.6522 73.2482 43.3643 73.2669 44.2288L72.7849 44.263V44.2599ZM72.9248 38.734H73.7831V38.1121H72.9248V38.734ZM73.7831 39.9063V39.2844H72.9248V39.9063H73.7831ZM73.7831 41.144V40.4381H72.9248V41.144H73.7831ZM73.5467 43.7374C73.5219 43.1435 73.4721 42.5962 73.3975 42.0924L73.7458 42.052C73.8266 42.5682 73.895 43.1031 73.9479 43.6628L73.5467 43.7374ZM74.2091 43.4203C74.1687 42.9538 74.094 42.4967 73.9914 42.0396L74.2806 41.9805C74.3677 42.2914 74.4579 42.733 74.5512 43.3114L74.2091 43.4203ZM78.1366 39.2999V39.7229H79.8594V40.3199H78.1366V40.7926H80.1144V41.4332H79.2841C79.197 41.654 79.0913 41.8654 78.97 42.0644H80.0273V42.6957H78.1397V43.2368H79.9247V43.8525H78.1397V45H77.4058V43.8525H75.6582V43.2368H77.4058V42.6957H75.5618V42.0644H76.6191C76.4916 41.7815 76.3828 41.5731 76.2957 41.4332H75.5431V40.7926H77.4058V40.3199H75.6644V39.7229H77.4058V39.2999H75.5245V37.4373H79.9402V39.2999H78.1397H78.1366ZM76.2117 38.0281V38.7184H76.8057V38.0281H76.2117ZM78.1988 42.0676C78.3574 41.8965 78.4787 41.6851 78.5657 41.4363H77.0358C77.1571 41.6353 77.2597 41.8468 77.3405 42.0676H78.1988ZM77.4276 38.0281V38.7184H78.0122V38.0281H77.4276ZM79.2468 38.7091V38.0188H78.6342V38.7091H79.2468Z" fill="white"/>
<path d="M81.0846 37.3813H88.8432V45H88.0378V44.658H81.89V45H81.0846V37.3813ZM81.89 38.0375V43.9956H88.0471V38.0375H81.89ZM85.6682 42.3319C85.3884 41.567 85.2142 40.6714 85.1427 39.639H82.229V38.9828H85.1054V38.2925H85.8579V38.9828H87.7393V39.639H85.8673C85.9015 40.4319 86.0072 41.0881 86.1813 41.6074C86.5203 41.0197 86.7628 40.4599 86.9059 39.9282L87.5278 40.2951C87.2542 41.0445 86.909 41.7535 86.4954 42.4314C86.4954 42.4657 86.5545 42.5745 86.6696 42.7549C86.7815 42.9321 86.8748 43.0223 86.9494 43.0223C87.0489 43.0223 87.1733 42.6958 87.3257 42.0427L87.9383 42.4999C87.6771 43.3861 87.335 43.8308 86.9152 43.8308C86.5887 43.8308 86.2808 43.554 85.9885 43.0005C85.6558 43.411 85.3573 43.722 85.0961 43.9303L84.5457 43.3643C84.8193 43.1809 85.037 43.0067 85.1925 42.8419C84.4803 43.0254 83.5319 43.1995 82.3409 43.3643L82.2103 42.6491C83.1712 42.5994 84.2036 42.4501 85.3075 42.2013V42.7331L85.6651 42.335L85.6682 42.3319ZM82.5026 40.1054H84.7322V42.049H82.5026V40.1054ZM84.0668 40.7118H83.1743V41.4426H84.0668V40.7118ZM86.8406 38.9828C86.7131 38.6719 86.5607 38.4293 86.3866 38.2521L86.9899 38.0624C87.0956 38.1619 87.1826 38.2676 87.2511 38.3796C87.3381 38.5133 87.419 38.6377 87.4967 38.7527L86.8406 38.9859V38.9828Z" fill="white"/>
<path d="M92.1488 39.0262C92.2607 39.0107 92.4784 38.8148 92.8049 38.4447C93.1314 38.0684 93.3802 37.6455 93.5481 37.1729L94.2665 37.263L94.1016 37.6455H95.4139C95.6409 38.2892 95.927 38.8334 96.2722 39.2812C96.5707 38.9671 96.7915 38.6375 96.9377 38.3017H95.8959V37.6362H97.7866V38.2426C97.5534 38.7899 97.2113 39.3154 96.7635 39.813C96.7635 39.8472 96.8941 39.9591 97.1585 40.155C97.4197 40.354 97.712 40.5344 98.0323 40.6961L97.5938 41.402C97.2144 41.175 96.8786 40.9231 96.5894 40.6464V41.0444H93.9057V40.6277C93.4517 40.9822 93.0879 41.2434 92.8111 41.4082L92.2265 40.836C92.6868 40.6308 93.0537 40.4131 93.3273 40.1799C93.119 40.012 92.9107 39.872 92.7054 39.757L93.1252 39.3745C93.3709 39.5175 93.5792 39.6668 93.7534 39.8161C93.828 39.7508 93.94 39.6264 94.0861 39.4429C93.9648 39.3652 93.856 39.2968 93.7627 39.2346C93.6632 39.1724 93.5481 39.1102 93.4144 39.0449L93.7565 38.622C94.083 38.7899 94.2913 38.9143 94.3877 39.0044C94.5339 38.7557 94.6427 38.5224 94.7112 38.3048H93.7565C93.3584 38.9423 92.9138 39.4056 92.4193 39.6917L92.1208 39.1506L91.7197 40.2483C92.211 40.9449 92.4535 41.5699 92.4535 42.1172C92.4535 42.792 92.0741 43.131 91.3154 43.131C91.2283 43.131 91.1506 43.131 91.0884 43.1216L90.8956 42.3411C91.0293 42.3784 91.1661 42.4002 91.3061 42.4002C91.6046 42.4002 91.7507 42.2727 91.7507 42.0177C91.7507 41.5295 91.4958 40.948 90.9889 40.2732C91.303 39.5486 91.5611 38.8303 91.7601 38.1213H90.8241V44.9937H90.0622V37.4745H92.5033V37.9658C92.2887 38.6686 92.1706 39.0231 92.155 39.0293L92.1488 39.0262ZM94.1763 42.9071C93.7036 43.5539 93.1252 44.1043 92.4349 44.5521L91.8067 43.9613C92.5717 43.501 93.1377 43.0315 93.5108 42.5495L94.1763 42.9071ZM95.6036 43.927C95.6036 44.3158 95.5383 44.5739 95.4108 44.7014C95.2895 44.8351 95.0159 44.9004 94.5961 44.9004H94.0177L93.8249 44.1292L94.5059 44.1634C94.7049 44.1634 94.8044 44.0732 94.8044 43.8991V42.394H92.7303V41.7036H97.7586V42.394H95.6067L95.5974 43.9302L95.6036 43.927ZM95.218 38.7774C94.9848 39.4647 94.6334 39.9995 94.1701 40.382H96.2784C95.8648 40.04 95.5103 39.5051 95.2211 38.7774H95.218ZM97.4912 44.5428C97.059 44.0328 96.5614 43.5072 95.9954 42.9631L96.5894 42.5899C97.0963 42.9942 97.5907 43.4637 98.0665 44.0017L97.4881 44.5428H97.4912Z" fill="white"/>
<path d="M6.01099 42.7984L6.14781 43.0223C5.79642 43.2213 5.45746 43.3674 5.13717 43.4607C4.81376 43.554 4.48103 43.6038 4.13586 43.6038C3.69739 43.6038 3.29936 43.5136 2.94174 43.3332C2.58413 43.1529 2.31359 42.8979 2.12701 42.5682C1.94354 42.2386 1.85025 41.8717 1.85025 41.4705C1.85025 40.8144 2.08658 40.2795 2.56236 39.8628C3.03814 39.4461 3.6663 39.2378 4.44682 39.2378C4.92571 39.2378 5.46057 39.328 6.05141 39.5052C6.0483 39.6794 6.04519 39.8069 6.04519 39.8939C6.04519 40.1458 6.06074 40.4101 6.09495 40.6869H5.81819C5.73733 40.3417 5.65026 40.1054 5.56008 39.9748C5.4699 39.8442 5.32064 39.7416 5.1154 39.6638C4.91016 39.5861 4.65828 39.5456 4.35664 39.5456C3.72227 39.5456 3.24649 39.7478 2.9262 40.1551C2.67742 40.4723 2.55304 40.8704 2.55304 41.3461C2.55304 41.9183 2.72718 42.3661 3.07857 42.6957C3.42996 43.0254 3.88708 43.1902 4.45615 43.1902C4.70182 43.1902 4.93815 43.1622 5.17138 43.1062C5.4046 43.0502 5.68447 42.9445 6.01721 42.7953L6.01099 42.7984Z" fill="white"/>
<path d="M6.69824 41.5109L6.48367 41.4892C6.52721 41.2839 6.5583 41.0818 6.57696 40.8797C7.00299 40.7055 7.38548 40.6216 7.73065 40.6216C7.87991 40.6216 8.01363 40.6402 8.1318 40.6776C8.25307 40.7149 8.34636 40.7677 8.41788 40.8361C8.4863 40.9046 8.54227 40.9854 8.57648 41.0787C8.61379 41.172 8.62934 41.3244 8.62934 41.5296L8.60135 42.7486C8.60135 42.9134 8.62312 43.0222 8.66355 43.072C8.70397 43.1218 8.75995 43.1497 8.82525 43.1497C8.90299 43.1497 9.02738 43.0969 9.1953 42.9911L9.29792 43.1124C8.99006 43.3612 8.82214 43.4918 8.79415 43.5074C8.73196 43.5384 8.65733 43.554 8.56404 43.554C8.42099 43.554 8.31216 43.5229 8.23441 43.4576C8.15667 43.3923 8.10381 43.2866 8.07893 43.1342C7.81772 43.3177 7.62181 43.4327 7.49431 43.4825C7.36682 43.5322 7.22999 43.554 7.08073 43.554C6.83817 43.554 6.64226 43.4887 6.493 43.355C6.34374 43.2213 6.2691 43.0533 6.2691 42.845C6.2691 42.7206 6.29398 42.6055 6.34685 42.5029C6.39971 42.4003 6.47434 42.3132 6.57385 42.2355C6.65159 42.1795 6.77909 42.1111 6.95945 42.0303C7.38547 41.8437 7.75863 41.6913 8.07582 41.5794C8.06338 41.3026 8.01363 41.1191 7.92345 41.0258C7.83327 40.9357 7.69022 40.889 7.50053 40.889C7.32017 40.889 7.1678 40.9388 7.0403 41.0383C6.91281 41.1378 6.79775 41.2933 6.69824 41.5047V41.5109ZM8.07271 41.8375C7.50053 42.0676 7.15847 42.2355 7.03719 42.3412C6.91902 42.447 6.85683 42.5745 6.85683 42.7206C6.85683 42.8668 6.90037 42.9849 6.99055 43.0751C7.08073 43.1622 7.18646 43.2088 7.30462 43.2088C7.42279 43.2088 7.56273 43.1715 7.70888 43.0969C7.85503 43.0222 7.95143 42.9414 7.99808 42.8481C8.04472 42.7548 8.0696 42.5869 8.0696 42.3443V41.8406L8.07271 41.8375Z" fill="white"/>
<path d="M9.07712 41.1659V40.9949C9.47205 40.9109 9.82655 40.7865 10.1468 40.6186L10.237 40.6683C10.2059 40.8363 10.1873 41.0073 10.1811 41.1845L10.5977 40.8114C10.6662 40.7554 10.7501 40.7119 10.8434 40.6808C10.974 40.6372 11.1077 40.6155 11.2477 40.6155C11.5617 40.6155 11.795 40.7088 11.9567 40.8953C12.0624 41.0197 12.1184 41.2312 12.1184 41.5359L12.109 42.2512C12.109 42.7301 12.1153 43.013 12.1277 43.097C12.1401 43.1561 12.1588 43.1965 12.1899 43.2214C12.221 43.2463 12.3236 43.2742 12.5009 43.3116C12.5351 43.3209 12.5817 43.3302 12.647 43.3427V43.5075C12.3889 43.4857 12.1588 43.4764 11.9567 43.4764C11.7825 43.4764 11.4809 43.4888 11.0549 43.5075V43.3427C11.3099 43.2742 11.4529 43.2307 11.4871 43.2058C11.5182 43.181 11.5369 43.1436 11.5462 43.0908C11.5711 42.8949 11.5835 42.5994 11.5835 42.1952C11.5835 41.7661 11.5742 41.508 11.5555 41.4178C11.5244 41.2872 11.4591 41.1877 11.3627 41.1161C11.2632 41.0446 11.145 41.0104 11.0082 41.0104C10.8714 41.0104 10.7221 41.0477 10.5822 41.1255C10.4423 41.2001 10.3396 41.3027 10.2712 41.4302C10.2059 41.5577 10.1717 41.7474 10.1717 41.9962C10.1717 42.7052 10.1873 43.0877 10.2215 43.1467C10.2557 43.2058 10.3832 43.2587 10.604 43.3116C10.632 43.3178 10.6724 43.3271 10.7284 43.3427V43.5075C10.436 43.4857 10.1873 43.4764 9.98825 43.4764C9.78923 43.4764 9.50936 43.4888 9.12687 43.5075V43.3427C9.38497 43.2867 9.53424 43.2463 9.56845 43.2214C9.59021 43.2058 9.60576 43.1654 9.61509 43.097C9.63997 42.9104 9.65241 42.6554 9.65241 42.332C9.65241 41.6665 9.64308 41.3027 9.63064 41.2467C9.60576 41.1628 9.54046 41.1224 9.43784 41.1224C9.38808 41.1224 9.31345 41.1286 9.21083 41.1441C9.18285 41.1472 9.13931 41.1535 9.08334 41.1597L9.07712 41.1659Z" fill="white"/>
<path d="M12.5071 39.4991V39.325C13.0419 39.3467 13.4058 39.356 13.5955 39.356C13.7136 39.356 14.0899 39.3467 14.7274 39.325V39.4991C14.3325 39.5613 14.1023 39.6017 14.037 39.6204C13.9873 39.6328 13.9531 39.6546 13.9313 39.6857C13.8971 39.7261 13.8815 39.8132 13.8753 39.9438C13.8722 40.0744 13.8691 40.802 13.8691 42.1268C13.8691 42.388 13.8722 42.7394 13.8784 43.1747H15.3244C15.5421 43.1747 15.682 43.1623 15.7474 43.1405C15.8127 43.1156 15.8811 43.0659 15.9495 42.985C16.0179 42.9042 16.1516 42.7021 16.3444 42.3755H16.6243L16.3631 43.0348C16.3164 43.1561 16.2604 43.3178 16.1951 43.5168C15.2902 43.495 14.5035 43.4857 13.8318 43.4857C13.3591 43.4857 12.9176 43.4981 12.5102 43.5168V43.3426C12.8429 43.2867 13.0388 43.2494 13.0979 43.2276C13.157 43.2058 13.1974 43.1778 13.2161 43.1436C13.2378 43.1094 13.2472 43.0037 13.2472 42.8327L13.2627 41.0228L13.2534 39.8567C13.2534 39.7572 13.2378 39.6919 13.2036 39.667C13.1539 39.6266 12.9922 39.5862 12.7185 39.5426C12.6688 39.5333 12.6004 39.5209 12.504 39.4991H12.5071Z" fill="white"/>
<path d="M19.1991 42.8014L19.3235 42.9755L18.6704 43.4109C18.5803 43.4668 18.487 43.5073 18.3906 43.5321C18.2506 43.5695 18.1076 43.5881 17.9614 43.5881C17.6038 43.5881 17.2991 43.4606 17.0472 43.2025C16.7953 42.9444 16.6678 42.5961 16.6678 42.1577C16.6678 41.685 16.8202 41.3056 17.1218 41.0226C17.4235 40.7366 17.7966 40.5935 18.232 40.5935C18.5709 40.5935 18.8321 40.6775 19.0187 40.8454C19.2022 41.0133 19.2986 41.2714 19.3017 41.6166C19.2115 41.6632 19.1276 41.7223 19.0498 41.7907C18.8943 41.7907 18.7979 41.7907 18.7575 41.7907C18.1791 41.7907 17.6722 41.8001 17.2431 41.8156C17.2431 42.2572 17.324 42.5899 17.4919 42.8169C17.6598 43.0439 17.8868 43.159 18.1667 43.159C18.3097 43.159 18.459 43.1341 18.6114 43.0844C18.7668 43.0346 18.9596 42.9413 19.1929 42.8076L19.1991 42.8014ZM18.7233 41.5077C18.7109 41.3118 18.6611 41.1657 18.5803 41.0662C18.4559 40.92 18.2911 40.8454 18.0827 40.8454C17.9024 40.8454 17.7438 40.9014 17.6038 41.0133C17.4639 41.1253 17.3582 41.3087 17.2929 41.5637C17.3737 41.5637 17.4359 41.5637 17.4763 41.5637C17.8371 41.5637 18.2506 41.5451 18.7264 41.5077H18.7233Z" fill="white"/>
<path d="M19.8335 41.5109L19.6189 41.4892C19.6624 41.2839 19.6935 41.0818 19.7122 40.8797C20.1382 40.7055 20.5207 40.6216 20.8659 40.6216C21.0151 40.6216 21.1489 40.6402 21.267 40.6776C21.3883 40.7149 21.4816 40.7677 21.5531 40.8361C21.6215 40.9046 21.6775 40.9854 21.7117 41.0787C21.749 41.172 21.7646 41.3244 21.7646 41.5296L21.7366 42.7486C21.7366 42.9134 21.7583 43.0222 21.7988 43.072C21.8392 43.1218 21.8952 43.1497 21.9605 43.1497C22.0382 43.1497 22.1626 43.0969 22.3305 42.9911L22.4331 43.1124C22.1253 43.3612 21.9574 43.4918 21.9294 43.5074C21.8672 43.5384 21.7926 43.554 21.6993 43.554C21.5562 43.554 21.4474 43.5229 21.3696 43.4576C21.2919 43.3923 21.239 43.2866 21.2142 43.1342C20.9529 43.3177 20.757 43.4327 20.6295 43.4825C20.502 43.5322 20.3652 43.554 20.216 43.554C19.9734 43.554 19.7775 43.4887 19.6282 43.355C19.479 43.2213 19.4043 43.0533 19.4043 42.845C19.4043 42.7206 19.4292 42.6055 19.4821 42.5029C19.5349 42.4003 19.6096 42.3132 19.7091 42.2355C19.7868 42.1795 19.9143 42.1111 20.0947 42.0303C20.5207 41.8437 20.8939 41.6913 21.211 41.5794C21.1986 41.3026 21.1489 41.1191 21.0587 41.0258C20.9685 40.9357 20.8254 40.889 20.6358 40.889C20.4554 40.889 20.303 40.9388 20.1755 41.0383C20.048 41.1378 19.933 41.2933 19.8335 41.5047V41.5109ZM21.211 41.8375C20.642 42.0676 20.2968 42.2355 20.1755 42.3412C20.0574 42.447 19.9952 42.5745 19.9952 42.7206C19.9952 42.8668 20.0387 42.9849 20.1289 43.0751C20.2191 43.1622 20.3248 43.2088 20.443 43.2088C20.5611 43.2088 20.7011 43.1715 20.8472 43.0969C20.9934 43.0222 21.0898 42.9414 21.1364 42.8481C21.1831 42.7548 21.2079 42.5869 21.2079 42.3443V41.8406L21.211 41.8375Z" fill="white"/>
<path d="M24.0657 39.7259V39.5611C24.3021 39.4989 24.4731 39.4492 24.5819 39.4119C24.6877 39.3746 24.8711 39.2937 25.1261 39.1755L25.207 39.2346C25.1572 39.6917 25.1355 40.5407 25.1355 41.7845C25.1355 42.4718 25.1448 42.8574 25.1634 42.9351C25.1821 43.0129 25.2474 43.0533 25.3594 43.0533C25.4247 43.0533 25.5397 43.0409 25.7076 43.016V43.1746C25.2505 43.2958 24.896 43.4233 24.6441 43.5539L24.5633 43.498C24.5882 43.3518 24.6068 43.2026 24.613 43.0564C24.3394 43.2803 24.1404 43.4171 24.0098 43.4731C23.8823 43.5291 23.7299 43.5571 23.5526 43.5571C23.2168 43.5571 22.94 43.4451 22.7224 43.2181C22.5016 42.9942 22.3927 42.6739 22.3927 42.2603C22.3927 41.9773 22.4456 41.7317 22.5544 41.5296C22.6353 41.371 22.7535 41.2217 22.9058 41.0818C23.0582 40.9418 23.2292 40.8299 23.4189 40.7459C23.6086 40.662 23.7983 40.6215 23.988 40.6215C24.0751 40.6215 24.1715 40.6309 24.2803 40.6495C24.386 40.6682 24.5042 40.6993 24.6317 40.7366C24.6348 40.6371 24.6379 40.5811 24.6379 40.5656C24.6379 40.1022 24.6286 39.8472 24.6068 39.7975C24.5819 39.7259 24.5073 39.6886 24.3891 39.6886C24.3487 39.6886 24.2803 39.6948 24.1777 39.7104C24.1528 39.7135 24.1124 39.7197 24.0626 39.7259H24.0657ZM24.6286 42.0116C24.6286 41.6228 24.6193 41.3989 24.6006 41.3399C24.5633 41.2217 24.4762 41.1222 24.3425 41.0413C24.2088 40.9605 24.0409 40.9201 23.8418 40.9201C23.5931 40.9201 23.3816 41.0134 23.2044 41.1999C23.0271 41.3865 22.9431 41.6602 22.9431 42.0178C22.9431 42.3754 23.0302 42.6708 23.2075 42.8636C23.3847 43.0564 23.5962 43.1528 23.8449 43.1528C24.0098 43.1528 24.159 43.1093 24.2927 43.0253C24.4296 42.9413 24.5166 42.8387 24.5633 42.7174C24.6068 42.5962 24.6286 42.3629 24.6286 42.0116Z" fill="white"/>
<path d="M26.2953 41.1658V41.0009C26.6623 40.917 27.0075 40.7895 27.3309 40.6247L27.4148 40.6869C27.3713 41.1036 27.3495 41.6944 27.3495 42.4594C27.3495 42.817 27.3589 43.0378 27.3806 43.1217C27.3931 43.1777 27.4179 43.215 27.449 43.2399C27.4801 43.2648 27.5952 43.3021 27.7911 43.355C27.816 43.3612 27.8502 43.3705 27.8999 43.3861V43.5509C27.6138 43.5291 27.3775 43.5198 27.194 43.5198C27.0821 43.5198 26.7836 43.5322 26.2953 43.5509V43.3861C26.5908 43.3208 26.7556 43.2617 26.7929 43.2088C26.8302 43.1559 26.8489 42.873 26.8489 42.3599V41.7317L26.8458 41.6104C26.8458 41.3896 26.8302 41.2559 26.796 41.2124C26.7618 41.1657 26.712 41.144 26.6374 41.144C26.5908 41.144 26.4757 41.1533 26.2922 41.1689L26.2953 41.1658ZM27.1101 39.2004C27.2065 39.2004 27.2873 39.2315 27.3557 39.2906C27.421 39.3497 27.4553 39.4243 27.4553 39.5114C27.4553 39.5985 27.421 39.67 27.3557 39.7291C27.2904 39.7913 27.2065 39.8193 27.1101 39.8193C27.0137 39.8193 26.9359 39.7882 26.8675 39.7291C26.8022 39.6669 26.768 39.5954 26.768 39.5114C26.768 39.4274 26.8022 39.3528 26.8675 39.2906C26.9328 39.2315 27.0137 39.2004 27.1101 39.2004Z" fill="white"/>
<path d="M27.7507 41.197V41.0259C28.1456 40.942 28.5001 40.8176 28.8204 40.6528L28.9106 40.7025C28.8795 40.8704 28.8608 41.0415 28.8546 41.2187L29.2713 40.8456C29.3397 40.7896 29.4237 40.7461 29.517 40.715C29.6445 40.6714 29.7813 40.6497 29.9212 40.6497C30.2353 40.6497 30.4685 40.7429 30.6302 40.9295C30.736 41.0539 30.7919 41.2654 30.7919 41.5701L30.7826 42.2853C30.7826 42.7642 30.7888 43.0472 30.8013 43.1312C30.8137 43.1903 30.8324 43.2307 30.8634 43.2556C30.8945 43.2804 30.9972 43.3084 31.1744 43.3457C31.2086 43.3551 31.2553 43.3644 31.3206 43.3768V43.5417C31.0625 43.5199 30.8324 43.5106 30.6302 43.5106C30.4561 43.5106 30.1544 43.523 29.7284 43.5417V43.3768C29.9834 43.3084 30.1265 43.2649 30.1607 43.24C30.1918 43.2151 30.2104 43.1778 30.2197 43.125C30.2446 42.929 30.2571 42.6336 30.2571 42.2294C30.2571 41.8002 30.2477 41.5421 30.2291 41.452C30.198 41.3213 30.1327 41.2218 30.0363 41.1503C29.9368 41.0788 29.8186 41.0446 29.6818 41.0446C29.5449 41.0446 29.3957 41.0819 29.2558 41.1596C29.1158 41.2343 29.0132 41.3369 28.9448 41.4644C28.8795 41.5919 28.8453 41.7816 28.8453 42.0304C28.8453 42.7394 28.8608 43.1218 28.895 43.1809C28.9292 43.24 29.0567 43.2929 29.2775 43.3457C29.3055 43.352 29.3459 43.3613 29.4019 43.3768V43.5417C29.1096 43.5199 28.8608 43.5106 28.6618 43.5106C28.4628 43.5106 28.1829 43.523 27.8004 43.5417V43.3768C28.0585 43.3209 28.2078 43.2804 28.242 43.2556C28.2638 43.24 28.2793 43.1996 28.2886 43.1312C28.3135 42.9446 28.326 42.6896 28.326 42.3662C28.326 41.7007 28.3166 41.3369 28.3042 41.2809C28.2793 41.197 28.214 41.1565 28.1114 41.1565C28.0616 41.1565 27.987 41.1628 27.8844 41.1783C27.8564 41.1814 27.8129 41.1876 27.7569 41.1939L27.7507 41.197Z" fill="white"/>
<path d="M31.9954 40.0027H32.1851L32.1104 40.7552L33.0184 40.7459L33.0433 40.7925C32.9874 40.8734 32.9376 40.9574 32.891 41.0506C32.6328 41.0413 32.3716 41.032 32.1073 41.0289L32.0793 42.5464V42.5651C32.0793 42.7983 32.1073 42.9693 32.1664 43.0719C32.2255 43.1745 32.3219 43.2274 32.4649 43.2274C32.58 43.2274 32.7324 43.1839 32.9252 43.0937L33.0216 43.2616C32.7821 43.3953 32.6018 43.4824 32.4774 43.5259C32.353 43.5695 32.2441 43.5881 32.154 43.5881C32.0109 43.5881 31.8865 43.5539 31.787 43.4855C31.6875 43.4171 31.6191 43.3238 31.588 43.2025C31.5693 43.1372 31.56 42.932 31.56 42.5899C31.56 42.223 31.5725 41.7037 31.5973 41.0289C31.445 41.032 31.2864 41.0382 31.1216 41.0506V40.8921C31.305 40.8174 31.4636 40.7148 31.5973 40.5873C31.731 40.4567 31.8679 40.2639 32.0016 40.0058L31.9954 40.0027Z" fill="white"/>
<path d="M35.4968 42.8326L35.6212 43.0068L34.9682 43.4421C34.878 43.4981 34.7847 43.5385 34.6883 43.5634C34.5484 43.6007 34.4054 43.6194 34.2592 43.6194C33.9016 43.6194 33.5968 43.4919 33.345 43.2338C33.0931 42.9757 32.9656 42.6274 32.9656 42.1889C32.9656 41.7162 33.1179 41.3369 33.4196 41.0539C33.7212 40.7678 34.0944 40.6248 34.5297 40.6248C34.8687 40.6248 35.1299 40.7087 35.3165 40.8766C35.5 41.0446 35.5964 41.3027 35.5995 41.6478C35.5093 41.6945 35.4253 41.7536 35.3476 41.822C35.1921 41.822 35.0957 41.822 35.0553 41.822C34.4769 41.822 33.97 41.8313 33.5409 41.8469C33.5409 42.2884 33.6217 42.6212 33.7896 42.8482C33.9576 43.0752 34.1846 43.1902 34.4644 43.1902C34.6075 43.1902 34.7567 43.1654 34.9091 43.1156C35.0646 43.0658 35.2574 42.9726 35.4906 42.8388L35.4968 42.8326ZM35.0211 41.539C35.0086 41.3431 34.9589 41.1969 34.878 41.0974C34.7536 40.9513 34.5888 40.8766 34.3805 40.8766C34.2001 40.8766 34.0415 40.9326 33.9016 41.0446C33.7616 41.1565 33.6559 41.34 33.5906 41.595C33.6715 41.595 33.7337 41.595 33.7741 41.595C34.1348 41.595 34.5484 41.5763 35.0242 41.539H35.0211Z" fill="white"/>
<path d="M35.5684 41.1968V41.032C35.9757 40.9387 36.324 40.8112 36.6132 40.6526L36.6972 40.7086C36.663 40.9014 36.6412 41.1097 36.635 41.3367C36.8993 41.0475 37.0859 40.8672 37.1885 40.8019C37.2942 40.7366 37.4155 40.7023 37.5586 40.7023C37.6519 40.7023 37.7576 40.7241 37.8726 40.7645C37.8229 40.9667 37.7856 41.1719 37.7545 41.3803H37.5897C37.571 41.287 37.5368 41.2185 37.4902 41.175C37.4435 41.1346 37.3938 41.1128 37.3347 41.1128C37.2476 41.1128 37.1543 41.1501 37.0517 41.2217C36.9024 41.3305 36.7936 41.4549 36.7283 41.5948C36.663 41.7348 36.6288 41.9338 36.6288 42.1919C36.6288 42.649 36.6443 42.9537 36.6723 43.1123C36.6848 43.1714 36.7127 43.2181 36.7625 43.2523C36.8123 43.2865 36.9677 43.33 37.2258 43.3829V43.5477C36.9522 43.5259 36.7034 43.5166 36.4826 43.5166C36.296 43.5166 35.9913 43.529 35.5622 43.5477V43.3829C35.8607 43.3145 36.0317 43.2647 36.069 43.2274C36.1064 43.1901 36.125 43.0937 36.125 42.9351L36.1312 42.2945C36.1312 41.6663 36.125 41.3305 36.1126 41.2807C36.0908 41.1999 36.0286 41.1595 35.9291 41.1595C35.8731 41.1595 35.7798 41.1688 35.6492 41.1875C35.6306 41.1875 35.6026 41.1937 35.5653 41.1968H35.5684Z" fill="white"/>
<path d="M37.5959 41.197V41.0259C37.9908 40.942 38.3453 40.8176 38.6656 40.6528L38.7558 40.7025C38.7247 40.8704 38.706 41.0415 38.6998 41.2187L39.1165 40.8456C39.1849 40.7896 39.2689 40.7461 39.3622 40.715C39.4897 40.6714 39.6265 40.6497 39.7664 40.6497C40.0805 40.6497 40.3137 40.7429 40.4754 40.9295C40.5812 41.0539 40.6371 41.2654 40.6371 41.5701L40.6278 42.2853C40.6278 42.7642 40.634 43.0472 40.6465 43.1312C40.6589 43.1903 40.6776 43.2307 40.7087 43.2556C40.7398 43.2804 40.8424 43.3084 41.0196 43.3457C41.0538 43.3551 41.1005 43.3644 41.1658 43.3768V43.5417C40.9077 43.5199 40.6776 43.5106 40.4754 43.5106C40.3013 43.5106 39.9997 43.523 39.5736 43.5417V43.3768C39.8286 43.3084 39.9717 43.2649 40.0059 43.24C40.037 43.2151 40.0556 43.1778 40.065 43.125C40.0898 42.929 40.1023 42.6336 40.1023 42.2294C40.1023 41.8002 40.0929 41.5421 40.0743 41.452C40.0432 41.3213 39.9779 41.2218 39.8815 41.1503C39.782 41.0788 39.6638 41.0446 39.527 41.0446C39.3902 41.0446 39.2409 41.0819 39.101 41.1596C38.961 41.2343 38.8584 41.3369 38.79 41.4644C38.7247 41.5919 38.6905 41.7816 38.6905 42.0304C38.6905 42.7394 38.706 43.1218 38.7402 43.1809C38.7745 43.24 38.9019 43.2929 39.1227 43.3457C39.1507 43.352 39.1911 43.3613 39.2471 43.3768V43.5417C38.9548 43.5199 38.706 43.5106 38.507 43.5106C38.308 43.5106 38.0281 43.523 37.6456 43.5417V43.3768C37.9069 43.3209 38.053 43.2804 38.0872 43.2556C38.109 43.24 38.1245 43.1996 38.1339 43.1312C38.1587 42.9446 38.1712 42.6896 38.1712 42.3662C38.1712 41.7007 38.1618 41.3369 38.1494 41.2809C38.1245 41.197 38.0592 41.1565 37.9566 41.1565C37.9069 41.1565 37.8322 41.1628 37.7296 41.1783C37.7016 41.1814 37.6581 41.1876 37.6021 41.1939L37.5959 41.197Z" fill="white"/>
<path d="M41.542 41.542L41.3275 41.5202C41.371 41.3149 41.4021 41.1128 41.4208 40.9107C41.8468 40.7365 42.2293 40.6526 42.5745 40.6526C42.7237 40.6526 42.8574 40.6712 42.9756 40.7086C43.0969 40.7459 43.1902 40.7987 43.2617 40.8672C43.3301 40.9356 43.3861 41.0164 43.4203 41.1097C43.4576 41.203 43.4732 41.3554 43.4732 41.5606L43.4452 42.7796C43.4452 42.9444 43.4669 43.0533 43.5074 43.103C43.5478 43.1528 43.6038 43.1807 43.6691 43.1807C43.7468 43.1807 43.8712 43.1279 44.0391 43.0222L44.1417 43.1434C43.8339 43.3922 43.666 43.5228 43.638 43.5384C43.5758 43.5695 43.5011 43.585 43.4078 43.585C43.2648 43.585 43.156 43.5539 43.0782 43.4886C43.0005 43.4233 42.9476 43.3176 42.9227 43.1652C42.6615 43.3487 42.4656 43.4637 42.3381 43.5135C42.2106 43.5632 42.0738 43.585 41.9245 43.585C41.682 43.585 41.4861 43.5197 41.3368 43.386C41.1875 43.2523 41.1129 43.0844 41.1129 42.876C41.1129 42.7516 41.1378 42.6366 41.1907 42.5339C41.2435 42.4313 41.3182 42.3442 41.4177 42.2665C41.4954 42.2105 41.6229 42.1421 41.8033 42.0613C42.2293 41.8747 42.6024 41.7223 42.9196 41.6104C42.9072 41.3336 42.8574 41.1501 42.7673 41.0568C42.6771 40.9667 42.534 40.92 42.3443 40.92C42.164 40.92 42.0116 40.9698 41.8841 41.0693C41.7566 41.1688 41.6416 41.3243 41.542 41.5357V41.542ZM42.9196 41.8716C42.3506 42.1017 42.0054 42.2696 41.8841 42.3753C41.7659 42.4811 41.7038 42.6086 41.7038 42.7547C41.7038 42.9009 41.7473 43.019 41.8375 43.1092C41.9276 43.1963 42.0334 43.2429 42.1515 43.2429C42.2697 43.2429 42.4096 43.2056 42.5558 43.131C42.702 43.0564 42.7984 42.9755 42.845 42.8822C42.8916 42.7889 42.9165 42.621 42.9165 42.3785V41.8747L42.9196 41.8716Z" fill="white"/>
<path d="M44.7948 40.0027H44.9845L44.9098 40.7552L45.8179 40.7459L45.8427 40.7925C45.7868 40.8734 45.737 40.9574 45.6904 41.0506C45.4323 41.0413 45.171 41.032 44.9067 41.0289L44.8787 42.5464V42.5651C44.8787 42.7983 44.9067 42.9693 44.9658 43.0719C45.0249 43.1745 45.1213 43.2274 45.2643 43.2274C45.3794 43.2274 45.5318 43.1839 45.7246 43.0937L45.821 43.2616C45.5815 43.3953 45.4012 43.4824 45.2768 43.5259C45.1524 43.5695 45.0435 43.5881 44.9534 43.5881C44.8103 43.5881 44.6859 43.5539 44.5864 43.4855C44.4869 43.4171 44.4185 43.3238 44.3874 43.2025C44.3688 43.1372 44.3594 42.932 44.3594 42.5899C44.3594 42.223 44.3719 41.7037 44.3967 41.0289C44.2444 41.032 44.0858 41.0382 43.921 41.0506V40.8921C44.1044 40.8174 44.263 40.7148 44.3967 40.5873C44.5305 40.4567 44.6673 40.2639 44.801 40.0058L44.7948 40.0027Z" fill="white"/>
<path d="M45.7059 41.1658V41.0009C46.0728 40.917 46.418 40.7895 46.7414 40.6247L46.8254 40.6869C46.7818 41.1036 46.7601 41.6944 46.7601 42.4594C46.7601 42.817 46.7694 43.0378 46.7912 43.1217C46.8036 43.1777 46.8285 43.215 46.8596 43.2399C46.8938 43.2648 47.0057 43.3021 47.2016 43.355C47.2265 43.3612 47.2607 43.3705 47.3105 43.3861V43.5509C47.0244 43.5291 46.7881 43.5198 46.6046 43.5198C46.4926 43.5198 46.1941 43.5322 45.7059 43.5509V43.3861C46.0013 43.3208 46.1661 43.2617 46.2034 43.2088C46.2408 43.1559 46.2594 42.873 46.2594 42.3599V41.7317L46.2563 41.6104C46.2563 41.3896 46.2408 41.2559 46.2066 41.2124C46.1723 41.1657 46.1226 41.144 46.048 41.144C46.0013 41.144 45.8863 41.1533 45.7028 41.1689L45.7059 41.1658ZM46.5237 39.2004C46.6201 39.2004 46.701 39.2315 46.7694 39.2906C46.8347 39.3497 46.8689 39.4243 46.8689 39.5114C46.8689 39.5985 46.8347 39.67 46.7694 39.7291C46.7041 39.7913 46.6201 39.8193 46.5237 39.8193C46.4273 39.8193 46.3496 39.7882 46.2812 39.7291C46.2159 39.6669 46.1817 39.5954 46.1817 39.5114C46.1817 39.4274 46.2159 39.3528 46.2812 39.2906C46.3465 39.2315 46.4273 39.2004 46.5237 39.2004Z" fill="white"/>
<path d="M47.326 42.167C47.326 41.6912 47.4753 41.315 47.777 41.0351C48.0755 40.7583 48.4704 40.6184 48.9586 40.6184C49.422 40.6184 49.7858 40.7428 50.0563 40.9947C50.3269 41.2435 50.4606 41.5948 50.4606 42.0426C50.4606 42.5277 50.3082 42.9102 50.0066 43.1932C49.7049 43.4762 49.31 43.6161 48.828 43.6161C48.346 43.6161 47.9946 43.4917 47.7272 43.2399C47.4598 42.988 47.326 42.6304 47.326 42.167ZM47.9542 41.912C47.9542 42.2354 47.976 42.4718 48.0226 42.6273C48.0941 42.876 48.2092 43.0626 48.3647 43.187C48.5202 43.3114 48.7036 43.3736 48.912 43.3736C49.1825 43.3736 49.4033 43.2834 49.5743 43.0968C49.7485 42.9133 49.8324 42.6179 49.8324 42.2106C49.8324 41.7534 49.736 41.4176 49.537 41.1968C49.3411 40.976 49.111 40.8672 48.8467 40.8672C48.5824 40.8672 48.3678 40.9543 48.1999 41.1253C48.0319 41.2963 47.948 41.5606 47.948 41.912H47.9542Z" fill="white"/>
<path d="M50.4668 41.197V41.0259C50.8617 40.942 51.2162 40.8176 51.5365 40.6528L51.6267 40.7025C51.5956 40.8704 51.5769 41.0415 51.5707 41.2187L51.9874 40.8456C52.0558 40.7896 52.1398 40.7461 52.2331 40.715C52.3606 40.6714 52.4974 40.6497 52.6373 40.6497C52.9514 40.6497 53.1846 40.7429 53.3464 40.9295C53.4521 41.0539 53.5081 41.2654 53.5081 41.5701L53.4987 42.2853C53.4987 42.7642 53.5049 43.0472 53.5174 43.1312C53.5298 43.1903 53.5485 43.2307 53.5796 43.2556C53.6107 43.2804 53.7133 43.3084 53.8905 43.3457C53.9248 43.3551 53.9714 43.3644 54.0367 43.3768V43.5417C53.7786 43.5199 53.5485 43.5106 53.3464 43.5106C53.1722 43.5106 52.8706 43.523 52.4445 43.5417V43.3768C52.6995 43.3084 52.8426 43.2649 52.8768 43.24C52.9079 43.2151 52.9265 43.1778 52.9359 43.125C52.9608 42.929 52.9732 42.6336 52.9732 42.2294C52.9732 41.8002 52.9639 41.5421 52.9452 41.452C52.9141 41.3213 52.8488 41.2218 52.7524 41.1503C52.6529 41.0788 52.5347 41.0446 52.3979 41.0446C52.2611 41.0446 52.1118 41.0819 51.9719 41.1596C51.8319 41.2343 51.7293 41.3369 51.6609 41.4644C51.5956 41.5919 51.5614 41.7816 51.5614 42.0304C51.5614 42.7394 51.577 43.1218 51.6112 43.1809C51.6454 43.24 51.7729 43.2929 51.9936 43.3457C52.0216 43.352 52.0621 43.3613 52.118 43.3768V43.5417C51.8257 43.5199 51.577 43.5106 51.3779 43.5106C51.1789 43.5106 50.899 43.523 50.5166 43.5417V43.3768C50.7747 43.3209 50.9239 43.2804 50.9581 43.2556C50.9799 43.24 50.9954 43.1996 51.0048 43.1312C51.0297 42.9446 51.0421 42.6896 51.0421 42.3662C51.0421 41.7007 51.0328 41.3369 51.0203 41.2809C50.9954 41.197 50.9301 41.1565 50.8275 41.1565C50.7778 41.1565 50.7031 41.1628 50.6005 41.1783C50.5725 41.1814 50.529 41.1876 50.473 41.1939L50.4668 41.197Z" fill="white"/>
<path d="M54.4161 41.542L54.2015 41.5202C54.245 41.3149 54.2761 41.1128 54.2948 40.9107C54.7208 40.7365 55.1033 40.6526 55.4485 40.6526C55.5977 40.6526 55.7315 40.6712 55.8496 40.7086C55.9709 40.7459 56.0642 40.7987 56.1357 40.8672C56.2041 40.9356 56.2601 41.0164 56.2943 41.1097C56.3316 41.203 56.3472 41.3554 56.3472 41.5606L56.3192 42.7796C56.3192 42.9444 56.341 43.0533 56.3814 43.103C56.4218 43.1528 56.4778 43.1807 56.5431 43.1807C56.6208 43.1807 56.7452 43.1279 56.9131 43.0222L57.0158 43.1434C56.7079 43.3922 56.54 43.5228 56.512 43.5384C56.4498 43.5695 56.3752 43.585 56.2819 43.585C56.1388 43.585 56.03 43.5539 55.9522 43.4886C55.8745 43.4233 55.8216 43.3176 55.7968 43.1652C55.5356 43.3487 55.3396 43.4637 55.2121 43.5135C55.0847 43.5632 54.9478 43.585 54.7986 43.585C54.556 43.585 54.3601 43.5197 54.2108 43.386C54.0616 43.2523 53.9869 43.0844 53.9869 42.876C53.9869 42.7516 54.0118 42.6366 54.0647 42.5339C54.1175 42.4313 54.1922 42.3442 54.2917 42.2665C54.3694 42.2105 54.4969 42.1421 54.6773 42.0613C55.1033 41.8747 55.4765 41.7223 55.7937 41.6104C55.7812 41.3336 55.7315 41.1501 55.6413 41.0568C55.5511 40.9667 55.4081 40.92 55.2184 40.92C55.038 40.92 54.8856 40.9698 54.7581 41.0693C54.6306 41.1688 54.5156 41.3243 54.4161 41.5357V41.542ZM55.7937 41.8716C55.2246 42.1017 54.8794 42.2696 54.7581 42.3753C54.64 42.4811 54.5778 42.6086 54.5778 42.7547C54.5778 42.9009 54.6213 43.019 54.7115 43.1092C54.8017 43.1963 54.9074 43.2429 55.0256 43.2429C55.1437 43.2429 55.2868 43.2056 55.4298 43.131C55.576 43.0564 55.6724 42.9755 55.719 42.8822C55.7657 42.7889 55.7905 42.621 55.7905 42.3785V41.8747L55.7937 41.8716Z" fill="white"/>
<path d="M56.8012 39.7601V39.5953C57.1899 39.4834 57.5413 39.3528 57.8585 39.2097L57.9455 39.2626C57.8927 39.6326 57.8678 40.3199 57.8678 41.3243C57.8678 42.3287 57.8709 42.9009 57.8802 43.0097C57.8896 43.1155 57.9144 43.1901 57.9549 43.2243C57.9953 43.2616 58.1539 43.3145 58.4275 43.3829V43.5477C58.0761 43.5259 57.8025 43.5166 57.6097 43.5166C57.4013 43.5166 57.1339 43.529 56.8043 43.5477V43.3829C57.0997 43.2989 57.2614 43.2461 57.2863 43.2243C57.3112 43.1994 57.3298 43.1434 57.336 43.0533C57.3423 42.932 57.3454 42.3909 57.3454 41.4269L57.3391 40.0245V39.984C57.3391 39.8752 57.3236 39.8037 57.2894 39.7726C57.2552 39.7384 57.2054 39.7228 57.1339 39.7228C57.0748 39.7228 56.9629 39.7353 56.7981 39.7632L56.8012 39.7601Z" fill="white"/>
<path d="M27.6791 39.4244C27.6791 39.7416 27.421 39.9997 27.1039 39.9997C26.7867 39.9997 26.5286 39.7416 26.5286 39.4244C26.5286 39.1072 26.7867 38.8491 27.1039 38.8491C27.421 38.8491 27.6791 39.1072 27.6791 39.4244Z" fill="white"/>
</g>
<defs>
<clipPath id="clip0_114_32">
<rect width="98.0696" height="45" fill="white"/>
</clipPath>
</defs>
</svg>
