<svg width="348" height="145" viewBox="0 0 348 145" fill="none" xmlns="http://www.w3.org/2000/svg">
<path d="M81.6 60.2001L74.3 66.5C69.3 61.8 63.7 59.4001 57.5 59.4001C52.2 59.4001 47.8 61.0001 44.2 64.3001C40.6 67.5001 38.8 71.5001 38.8 76.3001C38.8 79.6001 39.6 82.5 41.2 85.1C42.8 87.7 45.1 89.7 48 91.1C50.9 92.6 54.2 93.3001 57.7 93.3001C60.7 93.3001 63.5 92.8001 66 91.8001C68.5 90.8001 71.3 88.9 74.3 86.2L81.4 92.9001C77.3 96.5001 73.5 98.9001 69.9 100.3C66.3 101.7 62.2 102.4 57.5 102.4C48.9 102.4 41.9 100 36.5 95.1C31.1 90.2 28.3 84.0001 28.3 76.3001C28.3 71.4001 29.5 67 32 63.1C34.5 59.3 38 56.2 42.7 53.8C47.3 51.5 52.3 50.3 57.6 50.3C62.1 50.3 66.5 51.2001 70.7 52.9001C74.9 54.6001 78.5 57.1001 81.6 60.2001Z" fill="white"/>
<path d="M112 64.4H122.2V101H112V97.1C110 98.8 108 100 106 100.8C104 101.6 101.8 101.9 99.5 101.9C94.2 101.9 89.7 100.1 85.9 96.4C82.1 92.7 80.1 88.2 80.1 82.7C80.1 77 82 72.4 85.7 68.8C89.4 65.2 93.9 63.4 99.2 63.4C101.6 63.4 103.9 63.8 106.1 64.6C108.2 65.4 110.2 66.7 112 68.3V64.4V64.4ZM101.3 72C98.1 72 95.5 73 93.4 75C91.3 77 90.3 79.6 90.3 82.7C90.3 85.9 91.4 88.5 93.5 90.5C95.6 92.5 98.2 93.6 101.3 93.6C104.5 93.6 107.2 92.6 109.3 90.6C111.4 88.6 112.5 86 112.5 82.7C112.5 79.5 111.4 76.9 109.3 75C107.2 73 104.5 72 101.3 72Z" fill="white"/>
<path d="M124.9 64.4H135.1V68.2C137.4 66.4 139.5 65.2 141.4 64.5C143.3 63.8 145.2 63.5 147.2 63.5C151.2 63.5 154.7 64.8 157.5 67.3C159.9 69.5 161 72.6 161 76.9V101.1H150.9V85C150.9 80.6 150.7 77.7 150.2 76.3C149.8 74.9 149 73.8 147.9 73C146.8 72.2 145.5 71.9 143.9 71.9C141.8 71.9 140.1 72.5 138.6 73.8C137.1 75 136.1 76.8 135.5 79C135.2 80.1 135.1 82.6 135.1 86.4V101.1H124.9V64.4V64.4Z" fill="white"/>
<path d="M164.3 51.5H174.8V92H190.1V101H164.4V51.5H164.3Z" fill="white"/>
<path d="M230 85.4001H197.2C197.7 88.0001 198.9 90.1001 201 91.6001C203.1 93.1001 205.7 93.9001 208.9 93.9001C212.7 93.9001 216 92.7001 218.7 90.3001L227.3 93.9001C225.2 96.6001 222.6 98.7001 219.6 100C216.6 101.3 213.1 102 208.9 102C202.5 102 197.3 100.2 193.3 96.6001C189.3 93.0001 187.3 88.4001 187.3 83.0001C187.3 77.4001 189.3 72.8001 193.3 69.1001C197.3 65.4001 202.3 63.6001 208.4 63.6001C214.8 63.6001 220 65.4001 224 69.1001C228 72.8001 230 77.7001 230 83.7001V85.4001ZM219.8 78.2001C219.1 76.2001 217.8 74.5001 215.8 73.2001C213.8 71.9001 211.5 71.3001 208.9 71.3001C206.1 71.3001 203.6 72.0001 201.4 73.5001C200.1 74.4001 198.8 76.0001 197.7 78.2001H219.8Z" fill="white"/>
<path d="M260.7 64.4H270.9V101H260.7V97.1C258.7 98.8 256.7 100 254.7 100.8C252.7 101.6 250.5 101.9 248.2 101.9C242.9 101.9 238.4 100.1 234.6 96.4C230.8 92.7 228.8 88.2 228.8 82.7C228.8 77 230.7 72.4 234.4 68.8C238.1 65.2 242.6 63.4 247.9 63.4C250.3 63.4 252.6 63.8 254.8 64.6C256.9 65.4 258.9 66.7 260.7 68.3V64.4ZM249.9 72C246.7 72 244.1 73 242 75C239.9 77 238.9 79.6 238.9 82.7C238.9 85.9 240 88.5 242.1 90.5C244.2 92.5 246.8 93.6 249.9 93.6C253.1 93.6 255.8 92.6 257.9 90.6C260 88.6 261.1 86 261.1 82.7C261.1 79.5 260 76.9 257.9 75C255.8 73 253.2 72 249.9 72Z" fill="white"/>
<path d="M303.6 50.3H313.8V101.1H303.6V97.2C301.6 98.9 299.6 100.1 297.6 100.9C295.6 101.7 293.4 102 291.1 102C285.8 102 281.3 100.2 277.5 96.5C273.7 92.8 271.7 88.3001 271.7 82.8001C271.7 77.1001 273.6 72.5001 277.3 68.9001C281 65.3001 285.5 63.5 290.8 63.5C293.2 63.5 295.5 63.9 297.7 64.7C299.8 65.5 301.8 66.8001 303.6 68.4001V50.3V50.3ZM292.9 72C289.7 72 287.1 73 285 75C282.9 77 281.9 79.6 281.9 82.7C281.9 85.9 283 88.5 285.1 90.5C287.2 92.5 289.8 93.6 292.9 93.6C296.1 93.6 298.8 92.6 300.9 90.6C303 88.6 304.1 86 304.1 82.7C304.1 79.5 303 76.9 300.9 75C298.8 73 296.1 72 292.9 72Z" fill="white"/>
<path d="M170.5 26.5C162.1 26.5 154.5 29.9 149 35.4L145.2 31.6C151.7 25.1 160.6 21.1 170.5 21.1C180.4 21.1 189.3 25.1 195.8 31.6L192 35.4C186.5 29.9 178.9 26.5 170.5 26.5Z" fill="white"/>
<path d="M152.2 43.2999C156.9 38.5999 163.3 35.7 170.5 35.7C177.6 35.7 184.1 38.5999 188.8 43.2999L185 47.0999C181.3 43.3999 176.2 41.0999 170.5 41.0999C164.8 41.0999 159.7 43.3999 156 47.0999L152.2 43.2999Z" fill="white"/>
<path d="M136.9 20.9C145.5 12.3 157.4 7 170.5 7C183.6 7 195.5 12.3 204.1 20.9L200.3 24.7C192.7 17.1 182.1 12.3 170.4 12.3C158.7 12.3 148.2 17 140.5 24.7L136.9 20.9Z" fill="white"/>
<path d="M226.5 121.4H237V123.6H212.8V121.4H216.9V117.2H219.5V121.4H223.9V116H226.5V117.6H235.5V119.7H226.5V121.4ZM234.7 136C234.7 137.2 234.5 137.9 234.2 138.3C233.9 138.7 233.1 138.9 231.8 138.9H227.8L227.2 136.5L231.3 136.6C231.9 136.6 232.1 136.3 232.1 135.8V134.4H217.7V139H215.1V124.9H234.6L234.7 136ZM232.1 127H217.7V128.7H232.1V127ZM217.7 132.4H232.1V130.6H217.7V132.4Z" fill="white"/>
<path d="M241.2 130.5C241.2 130.8 241.2 131.1 241.2 131.6C241.2 134 241.1 136 240.8 137.5L239.4 137.2C239.7 135.4 239.9 133.1 239.9 130.4H241.2V130.5ZM248.9 122.2H246.6V124H248.9V125.6H246.6V127.7H249.2C249 133.8 248.8 137.1 248.5 137.7C248.2 138.3 247.7 138.6 247.1 138.7C246.4 138.8 245.6 138.9 244.6 138.9L244 136.9C244.5 136.9 245.1 137 245.7 137C246.5 137 246.9 136.8 247.1 136.4C247.2 136 247.3 134.5 247.3 131.8C247.3 131 247.3 130.3 247.3 129.6H240.1V116.9H249V118.9H246.6V120.7H248.9V122.2ZM241.8 136.8C241.9 135.9 241.9 134.9 242 133.9C242 133.7 242 133.5 242 133.2C242 132.3 242 131.4 241.9 130.4H243C243.1 132 243.2 134.1 243.3 136.7L241.8 136.8ZM242.2 120.6H244.7V118.8H242.2V120.6ZM244.7 124.1V122.3H242.2V124.1H244.7ZM244.7 127.7V125.6H242.2V127.7H244.7ZM244 135.3C243.9 133.6 243.8 132 243.6 130.5L244.6 130.4C244.8 131.9 245 133.5 245.2 135.1L244 135.3ZM245.9 134.4C245.8 133 245.6 131.7 245.3 130.4L246.1 130.2C246.4 131.1 246.6 132.4 246.9 134.1L245.9 134.4ZM257.5 122.3V123.5H262.6V125.3H257.5V126.7H263.3V128.6H260.9C260.6 129.3 260.3 129.9 260 130.5H263.1V132.4H257.6V134H262.8V135.8H257.6V139.2H255.4V135.8H250.3V134H255.4V132.4H250V130.5H253.1C252.7 129.7 252.4 129.1 252.2 128.6H250V126.7H255.5V125.3H250.4V123.5H255.5V122.3H250V116.8H263V122.3H257.5V122.3ZM251.8 118.6V120.6H253.5V118.6H251.8ZM257.6 130.4C258.1 129.9 258.4 129.3 258.7 128.5H254.2C254.6 129.1 254.9 129.7 255.1 130.4H257.6ZM255.4 118.6V120.6H257.1V118.6H255.4ZM260.7 120.5V118.5H258.9V120.5H260.7Z" fill="white"/>
<path d="M266.1 116.7H288.9V139H286.5V138H268.5V139H266.1V116.7V116.7ZM268.5 118.6V136.1H286.6V118.6H268.5ZM279.6 131.2C278.8 129 278.3 126.3 278.1 123.3H269.6V121.4H278V119.4H280.2V121.4H285.7V123.3H280.2C280.3 125.6 280.6 127.5 281.1 129.1C282.1 127.4 282.8 125.7 283.2 124.2L285 125.3C284.2 127.5 283.2 129.6 282 131.6C282 131.7 282.2 132 282.5 132.6C282.8 133.1 283.1 133.4 283.3 133.4C283.6 133.4 284 132.4 284.4 130.5L286.2 131.8C285.4 134.4 284.4 135.7 283.2 135.7C282.2 135.7 281.3 134.9 280.5 133.3C279.5 134.5 278.7 135.4 277.9 136L276.3 134.3C277.1 133.8 277.7 133.3 278.2 132.8C276.1 133.3 273.3 133.8 269.8 134.3L269.4 132.2C272.2 132.1 275.2 131.6 278.5 130.9V132.5L279.6 131.2ZM270.3 124.6H276.8V130.3H270.3V124.6ZM274.9 126.4H272.3V128.5H274.9V126.4ZM283 121.4C282.6 120.5 282.2 119.8 281.7 119.3L283.5 118.7C283.8 119 284.1 119.3 284.3 119.6C284.6 120 284.8 120.4 285 120.7L283 121.4Z" fill="white"/>
<path d="M298.6 121.5C298.9 121.5 299.6 120.9 300.5 119.8C301.5 118.7 302.2 117.5 302.7 116.1L304.8 116.4L304.3 117.5H308.1C308.8 119.4 309.6 121 310.6 122.3C311.5 121.4 312.1 120.4 312.5 119.4H309.4V117.5H314.9V119.3C314.2 120.9 313.2 122.4 311.9 123.9C311.9 124 312.3 124.3 313.1 124.9C313.9 125.5 314.7 126 315.7 126.5L314.4 128.6C313.3 127.9 312.3 127.2 311.4 126.4V127.6H303.5V126.4C302.2 127.4 301.1 128.2 300.3 128.7L298.6 127C300 126.4 301 125.8 301.8 125.1C301.2 124.6 300.6 124.2 300 123.9L301.2 122.8C301.9 123.2 302.5 123.7 303 124.1C303.2 123.9 303.5 123.5 304 123C303.6 122.8 303.3 122.6 303.1 122.4C302.8 122.2 302.5 122 302.1 121.8L303.1 120.6C304.1 121.1 304.7 121.5 304.9 121.7C305.3 121 305.6 120.3 305.8 119.7H303C301.8 121.6 300.5 122.9 299.1 123.8L298.2 122.2L297 125.4C298.4 127.4 299.2 129.3 299.2 130.9C299.2 132.9 298.1 133.9 295.9 133.9C295.6 133.9 295.4 133.9 295.2 133.9L294.6 131.6C295 131.7 295.4 131.8 295.8 131.8C296.7 131.8 297.1 131.4 297.1 130.7C297.1 129.3 296.4 127.6 294.9 125.6C295.8 123.5 296.6 121.4 297.2 119.3H294.5V139H292.3V116.9H299.5V118.3C299 120.4 298.6 121.5 298.6 121.5ZM304.5 132.9C303.1 134.8 301.4 136.4 299.4 137.7L297.6 136C299.8 134.7 301.5 133.3 302.6 131.9L304.5 132.9ZM308.7 135.9C308.7 137 308.5 137.8 308.1 138.2C307.7 138.6 306.9 138.8 305.7 138.8H304L303.4 136.5L305.4 136.6C306 136.6 306.3 136.3 306.3 135.8V131.4H300.2V129.4H315V131.4H308.7V135.9ZM307.6 120.7C306.9 122.7 305.9 124.3 304.5 125.4H310.7C309.5 124.4 308.4 122.9 307.6 120.7ZM314.2 137.7C312.9 136.2 311.5 134.7 309.8 133.1L311.5 132C313 133.2 314.4 134.6 315.8 136.1L314.2 137.7Z" fill="white"/>
<path d="M45.9 132.5L46.3 133.2C45.3 133.8 44.3 134.2 43.3 134.5C42.4 134.8 41.4 134.9 40.4 134.9C39.1 134.9 37.9 134.6 36.9 134.1C35.8 133.6 35.1 132.8 34.5 131.9C34 130.9 33.7 129.9 33.7 128.7C33.7 126.8 34.4 125.2 35.8 124C37.2 122.8 39 122.2 41.3 122.2C42.7 122.2 44.3 122.5 46 123C46 123.5 46 123.9 46 124.1C46 124.8 46 125.6 46.1 126.4H45.3C45.1 125.4 44.8 124.7 44.5 124.3C44.2 123.9 43.8 123.6 43.2 123.4C42.6 123.2 41.9 123.1 41 123.1C39.1 123.1 37.7 123.7 36.8 124.9C36.1 125.8 35.7 127 35.7 128.4C35.7 130.1 36.2 131.4 37.2 132.4C38.2 133.4 39.6 133.9 41.2 133.9C41.9 133.9 42.6 133.8 43.3 133.6C44.1 133.3 44.9 133 45.9 132.5Z" fill="white"/>
<path d="M47.9 128.8L47.3 128.7C47.4 128.1 47.5 127.5 47.6 126.9C48.8 126.4 50 126.1 51 126.1C51.4 126.1 51.8 126.2 52.2 126.3C52.6 126.4 52.8 126.6 53 126.8C53.2 127 53.4 127.2 53.5 127.5C53.6 127.8 53.7 128.2 53.7 128.8L53.6 132.4C53.6 132.9 53.7 133.2 53.8 133.4C53.9 133.5 54.1 133.6 54.3 133.6C54.5 133.6 54.9 133.4 55.4 133.1L55.7 133.5C54.8 134.2 54.3 134.6 54.2 134.7C54 134.8 53.8 134.8 53.5 134.8C53.1 134.8 52.8 134.7 52.5 134.5C52.3 134.3 52.1 134 52 133.6C51.2 134.1 50.7 134.5 50.3 134.6C49.9 134.7 49.5 134.8 49.1 134.8C48.4 134.8 47.8 134.6 47.4 134.2C47 133.8 46.7 133.3 46.7 132.7C46.7 132.3 46.8 132 46.9 131.7C47.1 131.4 47.3 131.1 47.6 130.9C47.8 130.7 48.2 130.5 48.7 130.3C50 129.8 51 129.3 52 129C52 128.2 51.8 127.6 51.5 127.4C51.2 127.1 50.8 127 50.3 127C49.8 127 49.3 127.1 49 127.4C48.5 127.7 48.2 128.1 47.9 128.8ZM51.9 129.7C50.2 130.4 49.2 130.9 48.9 131.2C48.5 131.5 48.4 131.9 48.4 132.3C48.4 132.7 48.5 133.1 48.8 133.3C49.1 133.6 49.4 133.7 49.7 133.7C50.1 133.7 50.5 133.6 50.9 133.4C51.3 133.2 51.6 132.9 51.7 132.7C51.8 132.4 51.9 131.9 51.9 131.2V129.7Z" fill="white"/>
<path d="M54.9 127.8V127.3C56.1 127.1 57.1 126.7 58 126.2L58.3 126.3C58.2 126.8 58.2 127.3 58.1 127.8L59.3 126.7C59.5 126.5 59.7 126.4 60 126.3C60.4 126.2 60.8 126.1 61.2 126.1C62.1 126.1 62.8 126.4 63.3 126.9C63.6 127.3 63.8 127.9 63.8 128.8V130.9C63.8 132.3 63.8 133.1 63.9 133.4C63.9 133.6 64 133.7 64.1 133.8C64.2 133.9 64.5 134 65 134.1C65.1 134.1 65.2 134.2 65.4 134.2V134.7C64.6 134.6 64 134.6 63.4 134.6C62.9 134.6 62 134.6 60.8 134.7V134.2C61.5 134 62 133.9 62.1 133.8C62.2 133.7 62.2 133.6 62.3 133.5C62.4 132.9 62.4 132.1 62.4 130.9C62.4 129.6 62.4 128.9 62.3 128.6C62.2 128.2 62 127.9 61.7 127.7C61.4 127.5 61.1 127.4 60.7 127.4C60.3 127.4 59.9 127.5 59.4 127.7C59 127.9 58.7 128.2 58.5 128.6C58.3 129 58.2 129.5 58.2 130.3C58.2 132.4 58.2 133.5 58.3 133.7C58.4 133.9 58.8 134 59.4 134.2C59.5 134.2 59.6 134.2 59.8 134.3V134.8C58.9 134.7 58.2 134.7 57.6 134.7C57 134.7 56.2 134.7 55.1 134.8V134.3C55.9 134.1 56.3 134 56.4 133.9C56.5 133.9 56.5 133.7 56.5 133.5C56.6 133 56.6 132.2 56.6 131.3C56.6 129.3 56.6 128.3 56.5 128.1C56.4 127.9 56.2 127.7 55.9 127.7C55.8 127.7 55.5 127.7 55.2 127.8C55.2 127.7 55.1 127.7 54.9 127.8Z" fill="white"/>
<path d="M64.9 122.9V122.4C66.5 122.5 67.5 122.5 68.1 122.5C68.4 122.5 69.6 122.5 71.4 122.4V122.9C70.2 123.1 69.6 123.2 69.4 123.3C69.3 123.3 69.2 123.4 69.1 123.5C69 123.6 68.9 123.9 68.9 124.3C68.9 124.7 68.9 126.8 68.9 130.7C68.9 131.5 68.9 132.5 68.9 133.8H73.1C73.7 133.8 74.1 133.8 74.3 133.7C74.5 133.6 74.7 133.5 74.9 133.2C75.1 133 75.5 132.4 76.1 131.4H77L76.2 133.3C76.1 133.7 75.9 134.1 75.7 134.7C73 134.6 70.7 134.6 68.8 134.6C67.4 134.6 66.1 134.6 64.9 134.7V134.2C65.9 134 66.5 133.9 66.6 133.9C66.8 133.8 66.9 133.8 66.9 133.7C67 133.6 67 133.3 67 132.8V127.5V124.1C67 123.8 67 123.6 66.9 123.5C66.8 123.4 66.3 123.3 65.5 123.1C65.4 123 65.2 122.9 64.9 122.9Z" fill="white"/>
<path d="M84.6 132.5L85 133L83.1 134.3C82.8 134.5 82.6 134.6 82.3 134.7C81.9 134.8 81.5 134.9 81 134.9C80 134.9 79.1 134.5 78.3 133.8C77.6 133 77.2 132 77.2 130.7C77.2 129.3 77.6 128.2 78.5 127.4C79.4 126.6 80.5 126.1 81.8 126.1C82.8 126.1 83.6 126.3 84.1 126.8C84.6 127.3 84.9 128 84.9 129.1C84.6 129.2 84.4 129.4 84.2 129.6C83.7 129.6 83.5 129.6 83.3 129.6C81.6 129.6 80.1 129.6 78.9 129.7C78.9 131 79.1 132 79.6 132.6C80.1 133.3 80.8 133.6 81.6 133.6C82 133.6 82.5 133.5 82.9 133.4C83.3 133.2 83.9 132.9 84.6 132.5ZM83.2 128.8C83.2 128.2 83 127.8 82.8 127.5C82.4 127.1 82 126.8 81.3 126.8C80.8 126.8 80.3 127 79.9 127.3C79.5 127.6 79.2 128.2 79 128.9C79.2 128.9 79.4 128.9 79.5 128.9C80.6 128.9 81.8 128.9 83.2 128.8Z" fill="white"/>
<path d="M86.4 128.8L85.8 128.7C85.9 128.1 86 127.5 86.1 126.9C87.3 126.4 88.5 126.1 89.5 126.1C89.9 126.1 90.3 126.2 90.7 126.3C91.1 126.4 91.3 126.6 91.5 126.8C91.7 127 91.9 127.2 92 127.5C92.1 127.8 92.2 128.2 92.2 128.8L92.1 132.4C92.1 132.9 92.2 133.2 92.3 133.4C92.4 133.5 92.6 133.6 92.8 133.6C93 133.6 93.4 133.4 93.9 133.1L94.2 133.5C93.3 134.2 92.8 134.6 92.7 134.7C92.5 134.8 92.3 134.8 92 134.8C91.6 134.8 91.3 134.7 91 134.5C90.8 134.3 90.6 134 90.5 133.6C89.7 134.1 89.2 134.5 88.8 134.6C88.4 134.7 88 134.8 87.6 134.8C86.9 134.8 86.3 134.6 85.9 134.2C85.5 133.8 85.2 133.3 85.2 132.7C85.2 132.3 85.3 132 85.4 131.7C85.6 131.4 85.8 131.1 86.1 130.9C86.3 130.7 86.7 130.5 87.2 130.3C88.5 129.8 89.5 129.3 90.5 129C90.5 128.2 90.3 127.6 90 127.4C89.7 127.1 89.3 127 88.8 127C88.3 127 87.8 127.1 87.5 127.4C87.1 127.7 86.7 128.1 86.4 128.8ZM90.5 129.7C88.8 130.4 87.8 130.9 87.5 131.2C87.1 131.5 87 131.9 87 132.3C87 132.7 87.1 133.1 87.4 133.3C87.7 133.6 88 133.7 88.3 133.7C88.7 133.7 89.1 133.6 89.5 133.4C89.9 133.2 90.2 132.9 90.3 132.7C90.4 132.4 90.5 131.9 90.5 131.2V129.7V129.7Z" fill="white"/>
<path d="M98.9 123.5V123C99.6 122.8 100.1 122.7 100.4 122.6C100.7 122.5 101.2 122.3 102 121.9L102.2 122.1C102.1 123.4 102 125.9 102 129.6C102 131.6 102 132.7 102.1 133C102.2 133.2 102.4 133.3 102.7 133.3C102.9 133.3 103.2 133.3 103.7 133.2V133.7C102.4 134.1 101.3 134.4 100.6 134.8L100.4 134.6C100.5 134.2 100.5 133.7 100.5 133.3C99.7 134 99.1 134.4 98.7 134.5C98.3 134.7 97.9 134.7 97.4 134.7C96.4 134.7 95.6 134.4 95 133.7C94.4 133 94 132.1 94 130.9C94 130.1 94.2 129.4 94.5 128.8C94.7 128.3 95.1 127.9 95.5 127.5C95.9 127.1 96.5 126.8 97 126.5C97.6 126.3 98.1 126.1 98.7 126.1C99 126.1 99.2 126.1 99.6 126.2C99.9 126.3 100.3 126.3 100.6 126.5C100.6 126.2 100.6 126 100.6 126C100.6 124.6 100.6 123.9 100.5 123.7C100.4 123.5 100.2 123.4 99.9 123.4C99.8 123.4 99.6 123.4 99.3 123.5C99.1 123.5 99 123.5 98.9 123.5ZM100.5 130.2C100.5 129.1 100.5 128.4 100.4 128.2C100.3 127.9 100 127.6 99.6 127.3C99.2 127.1 98.7 126.9 98.1 126.9C97.4 126.9 96.7 127.2 96.2 127.7C95.7 128.2 95.4 129 95.4 130.1C95.4 131.2 95.7 132 96.2 132.6C96.7 133.2 97.3 133.5 98.1 133.5C98.6 133.5 99 133.4 99.4 133.1C99.8 132.9 100.1 132.6 100.2 132.2C100.4 132 100.5 131.3 100.5 130.2Z" fill="white"/>
<path d="M105.4 127.8V127.3C106.5 127.1 107.5 126.7 108.4 126.2L108.6 126.4C108.5 127.6 108.4 129.4 108.4 131.6C108.4 132.7 108.4 133.3 108.5 133.5C108.5 133.7 108.6 133.8 108.7 133.9C108.8 134 109.1 134.1 109.7 134.2C109.8 134.2 109.9 134.2 110 134.3V134.8C109.2 134.7 108.5 134.7 107.9 134.7C107.6 134.7 106.7 134.7 105.3 134.8V134.3C106.2 134.1 106.7 133.9 106.8 133.8C106.9 133.6 107 132.8 107 131.3V129.5V129C107 128.4 107 128 106.9 127.8C106.8 127.7 106.6 127.6 106.4 127.6C106.3 127.7 105.9 127.7 105.4 127.8ZM107.8 122C108.1 122 108.3 122.1 108.5 122.3C108.7 122.5 108.8 122.7 108.8 122.9C108.8 123.1 108.7 123.4 108.5 123.5C108.3 123.7 108.1 123.8 107.8 123.8C107.5 123.8 107.3 123.7 107.1 123.5C106.9 123.3 106.8 123.1 106.8 122.9C106.8 122.6 106.9 122.4 107.1 122.3C107.3 122.1 107.5 122 107.8 122Z" fill="white"/>
<path d="M109.7 127.8V127.3C110.9 127.1 111.9 126.7 112.8 126.2L113.1 126.3C113 126.8 113 127.3 112.9 127.8L114.1 126.7C114.3 126.5 114.5 126.4 114.8 126.3C115.2 126.2 115.6 126.1 116 126.1C116.9 126.1 117.6 126.4 118.1 126.9C118.4 127.3 118.6 127.9 118.6 128.8V130.9C118.6 132.3 118.6 133.1 118.7 133.4C118.7 133.6 118.8 133.7 118.9 133.8C119 133.9 119.3 134 119.8 134.1C119.9 134.1 120 134.2 120.2 134.2V134.7C119.4 134.6 118.8 134.6 118.2 134.6C117.7 134.6 116.8 134.6 115.6 134.7V134.2C116.3 134 116.8 133.9 116.9 133.8C117 133.7 117 133.6 117.1 133.5C117.2 132.9 117.2 132.1 117.2 130.9C117.2 129.6 117.2 128.9 117.1 128.6C117 128.2 116.8 127.9 116.5 127.7C116.2 127.5 115.9 127.4 115.5 127.4C115.1 127.4 114.7 127.5 114.2 127.7C113.8 127.9 113.5 128.2 113.3 128.6C113.1 129 113 129.5 113 130.3C113 132.4 113 133.5 113.1 133.7C113.2 133.9 113.6 134 114.2 134.2C114.3 134.2 114.4 134.2 114.6 134.3V134.8C113.7 134.7 113 134.7 112.4 134.7C111.8 134.7 111 134.7 109.9 134.8V134.3C110.7 134.1 111.1 134 111.2 133.9C111.3 133.9 111.3 133.7 111.3 133.5C111.4 133 111.4 132.2 111.4 131.3C111.4 129.3 111.4 128.3 111.3 128.1C111.2 127.9 111 127.7 110.7 127.7C110.6 127.7 110.3 127.7 110 127.8C110 127.8 109.8 127.8 109.7 127.8Z" fill="white"/>
<path d="M122.1 124.3H122.7L122.5 126.5H125.2L125.3 126.6C125.1 126.8 125 127.1 124.9 127.4C124.1 127.4 123.4 127.3 122.6 127.3L122.5 131.8V131.9C122.5 132.6 122.6 133.1 122.8 133.4C123 133.7 123.3 133.9 123.7 133.9C124 133.9 124.5 133.8 125 133.5L125.3 134C124.6 134.4 124.1 134.7 123.7 134.8C123.3 134.9 123 135 122.7 135C122.3 135 121.9 134.9 121.6 134.7C121.3 134.5 121.1 134.2 121 133.9C120.9 133.7 120.9 133.1 120.9 132.1C120.9 131 120.9 129.5 121 127.5C120.6 127.5 120.1 127.5 119.6 127.6V127.1C120.1 126.9 120.6 126.6 121 126.2C121.3 125.7 121.7 125.1 122.1 124.3Z" fill="white"/>
<path d="M132.4 132.6L132.8 133.1L130.9 134.4C130.6 134.6 130.4 134.7 130.1 134.8C129.7 134.9 129.3 135 128.8 135C127.8 135 126.9 134.6 126.1 133.9C125.4 133.1 125 132.1 125 130.8C125 129.4 125.4 128.3 126.3 127.5C127.2 126.7 128.3 126.2 129.6 126.2C130.6 126.2 131.4 126.4 131.9 126.9C132.4 127.4 132.7 128.1 132.7 129.2C132.4 129.3 132.2 129.5 132 129.7C131.5 129.7 131.3 129.7 131.1 129.7C129.4 129.7 127.9 129.7 126.7 129.8C126.7 131.1 126.9 132.1 127.4 132.7C127.9 133.4 128.6 133.7 129.4 133.7C129.8 133.7 130.3 133.6 130.7 133.5C131.1 133.3 131.7 133 132.4 132.6ZM131 128.9C131 128.3 130.8 127.9 130.6 127.6C130.2 127.2 129.8 126.9 129.1 126.9C128.6 126.9 128.1 127.1 127.7 127.4C127.3 127.7 127 128.3 126.8 129C127 129 127.2 129 127.3 129C128.4 129 129.6 129 131 128.9Z" fill="white"/>
<path d="M132.6 127.8V127.3C133.8 127 134.8 126.7 135.7 126.2L135.9 126.4C135.8 127 135.7 127.6 135.7 128.2C136.5 127.3 137 126.8 137.3 126.6C137.6 126.4 138 126.3 138.4 126.3C138.7 126.3 139 126.4 139.3 126.5C139.2 127.1 139 127.7 139 128.3H138.5C138.4 128 138.3 127.8 138.2 127.7C138.1 127.6 137.9 127.5 137.7 127.5C137.4 127.5 137.2 127.6 136.9 127.8C136.5 128.1 136.1 128.5 136 128.9C135.8 129.3 135.7 129.9 135.7 130.7C135.7 132 135.7 132.9 135.8 133.4C135.8 133.6 135.9 133.7 136.1 133.8C136.2 133.9 136.7 134 137.5 134.2V134.7C136.7 134.6 136 134.6 135.3 134.6C134.8 134.6 133.9 134.6 132.6 134.7V134.2C133.5 134 134 133.9 134.1 133.7C134.2 133.6 134.3 133.3 134.3 132.8V130.9C134.3 129.1 134.3 128.1 134.2 127.9C134.1 127.7 134 127.5 133.7 127.5C133.5 127.5 133.3 127.5 132.9 127.6C132.8 127.8 132.7 127.8 132.6 127.8Z" fill="white"/>
<path d="M138.5 127.8V127.3C139.7 127.1 140.7 126.7 141.6 126.2L141.9 126.3C141.8 126.8 141.8 127.3 141.7 127.8L142.9 126.7C143.1 126.5 143.3 126.4 143.6 126.3C144 126.2 144.4 126.1 144.8 126.1C145.7 126.1 146.4 126.4 146.9 126.9C147.2 127.3 147.4 127.9 147.4 128.8V130.9C147.4 132.3 147.4 133.1 147.5 133.4C147.5 133.6 147.6 133.7 147.7 133.8C147.8 133.9 148.1 134 148.6 134.1C148.7 134.1 148.8 134.2 149 134.2V134.7C148.2 134.6 147.6 134.6 147 134.6C146.5 134.6 145.6 134.6 144.4 134.7V134.2C145.1 134 145.6 133.9 145.7 133.8C145.8 133.7 145.8 133.6 145.9 133.5C146 132.9 146 132.1 146 130.9C146 129.6 146 128.9 145.9 128.6C145.8 128.2 145.6 127.9 145.3 127.7C145 127.5 144.7 127.4 144.3 127.4C143.9 127.4 143.5 127.5 143 127.7C142.6 127.9 142.3 128.2 142.1 128.6C141.9 129 141.8 129.5 141.8 130.3C141.8 132.4 141.8 133.5 141.9 133.7C142 133.9 142.4 134 143 134.2C143.1 134.2 143.2 134.2 143.4 134.3V134.8C142.5 134.7 141.8 134.7 141.2 134.7C140.6 134.7 139.8 134.7 138.7 134.8V134.3C139.5 134.1 139.9 134 140 133.9C140.1 133.9 140.1 133.7 140.1 133.5C140.2 133 140.2 132.2 140.2 131.3C140.2 129.3 140.2 128.3 140.1 128.1C140 127.9 139.8 127.7 139.5 127.7C139.4 127.7 139.1 127.7 138.8 127.8C138.8 127.8 138.7 127.8 138.5 127.8Z" fill="white"/>
<path d="M150.1 128.9L149.5 128.8C149.6 128.2 149.7 127.6 149.8 127C151 126.5 152.2 126.2 153.2 126.2C153.6 126.2 154 126.3 154.4 126.4C154.8 126.5 155 126.7 155.2 126.9C155.4 127.1 155.6 127.3 155.7 127.6C155.8 127.9 155.9 128.3 155.9 128.9L155.8 132.5C155.8 133 155.9 133.3 156 133.5C156.1 133.6 156.3 133.7 156.5 133.7C156.7 133.7 157.1 133.5 157.6 133.2L157.9 133.6C157 134.3 156.5 134.7 156.4 134.8C156.2 134.9 156 134.9 155.7 134.9C155.3 134.9 155 134.8 154.7 134.6C154.5 134.4 154.3 134.1 154.2 133.7C153.4 134.2 152.9 134.6 152.5 134.7C152.1 134.8 151.7 134.9 151.3 134.9C150.6 134.9 150 134.7 149.6 134.3C149.2 133.9 148.9 133.4 148.9 132.8C148.9 132.4 149 132.1 149.1 131.8C149.3 131.5 149.5 131.2 149.8 131C150 130.8 150.4 130.6 150.9 130.4C152.2 129.9 153.2 129.4 154.2 129.1C154.2 128.3 154 127.7 153.7 127.5C153.4 127.2 153 127.1 152.5 127.1C152 127.1 151.5 127.2 151.2 127.5C150.8 127.8 150.4 128.2 150.1 128.9ZM154.2 129.8C152.5 130.5 151.5 131 151.2 131.3C150.9 131.6 150.7 132 150.7 132.4C150.7 132.8 150.8 133.2 151.1 133.4C151.4 133.7 151.7 133.8 152 133.8C152.4 133.8 152.8 133.7 153.2 133.5C153.6 133.3 153.9 133 154 132.8C154.1 132.5 154.2 132 154.2 131.3V129.8Z" fill="white"/>
<path d="M159.7 124.3H160.3L160.1 126.5H162.8L162.9 126.6C162.7 126.8 162.6 127.1 162.5 127.4C161.7 127.4 161 127.3 160.2 127.3L160.1 131.8V131.9C160.1 132.6 160.2 133.1 160.4 133.4C160.6 133.7 160.9 133.9 161.3 133.9C161.6 133.9 162.1 133.8 162.6 133.5L162.9 134C162.2 134.4 161.7 134.7 161.3 134.8C160.9 134.9 160.6 135 160.3 135C159.9 135 159.5 134.9 159.2 134.7C158.9 134.5 158.7 134.2 158.6 133.9C158.5 133.7 158.5 133.1 158.5 132.1C158.5 131 158.5 129.5 158.6 127.5C158.2 127.5 157.7 127.5 157.2 127.6V127.1C157.7 126.9 158.2 126.6 158.6 126.2C158.9 125.7 159.3 125.1 159.7 124.3Z" fill="white"/>
<path d="M162.3 127.8V127.3C163.4 127.1 164.4 126.7 165.3 126.2L165.5 126.4C165.4 127.6 165.3 129.4 165.3 131.6C165.3 132.7 165.3 133.3 165.4 133.5C165.4 133.7 165.5 133.8 165.6 133.9C165.7 134 166 134.1 166.6 134.2C166.7 134.2 166.8 134.2 166.9 134.3V134.8C166.1 134.7 165.4 134.7 164.8 134.7C164.5 134.7 163.6 134.7 162.2 134.8V134.3C163.1 134.1 163.6 133.9 163.7 133.8C163.8 133.6 163.9 132.8 163.9 131.3V129.5V129C163.9 128.4 163.9 128 163.8 127.8C163.7 127.6 163.5 127.6 163.3 127.6C163.2 127.7 162.9 127.7 162.3 127.8ZM164.7 122C165 122 165.2 122.1 165.4 122.3C165.6 122.5 165.7 122.7 165.7 122.9C165.7 123.1 165.6 123.4 165.4 123.5C165.2 123.7 165 123.8 164.7 123.8C164.4 123.8 164.2 123.7 164 123.5C163.8 123.3 163.7 123.1 163.7 122.9C163.7 122.6 163.8 122.4 164 122.3C164.2 122.1 164.5 122 164.7 122Z" fill="white"/>
<path d="M167.1 130.7C167.1 129.3 167.5 128.2 168.4 127.4C169.3 126.6 170.4 126.2 171.9 126.2C173.3 126.2 174.3 126.6 175.1 127.3C175.9 128 176.3 129.1 176.3 130.4C176.3 131.8 175.9 132.9 175 133.8C174.1 134.6 173 135 171.5 135C170.1 135 169.1 134.6 168.3 133.9C167.5 133.1 167.1 132.1 167.1 130.7ZM168.9 129.9C168.9 130.8 169 131.5 169.1 132C169.3 132.7 169.6 133.3 170.1 133.6C170.6 134 171.1 134.1 171.7 134.1C172.5 134.1 173.1 133.8 173.6 133.3C174.1 132.8 174.4 131.9 174.4 130.7C174.4 129.4 174.1 128.4 173.5 127.7C172.9 127.1 172.2 126.7 171.5 126.7C170.7 126.7 170.1 127 169.6 127.5C169.2 128.1 168.9 128.9 168.9 129.9Z" fill="white"/>
<path d="M176.3 127.8V127.3C177.5 127.1 178.5 126.7 179.4 126.2L179.7 126.3C179.6 126.8 179.6 127.3 179.5 127.8L180.7 126.7C180.9 126.5 181.1 126.4 181.4 126.3C181.8 126.2 182.2 126.1 182.6 126.1C183.5 126.1 184.2 126.4 184.7 126.9C185 127.3 185.2 127.9 185.2 128.8V130.9C185.2 132.3 185.2 133.1 185.3 133.4C185.3 133.6 185.4 133.7 185.5 133.8C185.6 133.9 185.9 134 186.4 134.1C186.5 134.1 186.6 134.2 186.8 134.2V134.7C186 134.6 185.4 134.6 184.8 134.6C184.3 134.6 183.4 134.6 182.2 134.7V134.2C182.9 134 183.4 133.9 183.5 133.8C183.6 133.7 183.6 133.6 183.7 133.5C183.8 132.9 183.8 132.1 183.8 130.9C183.8 129.6 183.8 128.9 183.7 128.6C183.6 128.2 183.4 127.9 183.1 127.7C182.8 127.5 182.5 127.4 182.1 127.4C181.7 127.4 181.3 127.5 180.8 127.7C180.4 127.9 180.1 128.2 179.9 128.6C179.7 129 179.6 129.5 179.6 130.3C179.6 132.4 179.6 133.5 179.7 133.7C179.8 133.9 180.2 134 180.8 134.2C180.9 134.2 181 134.2 181.2 134.3V134.8C180.3 134.7 179.6 134.7 179 134.7C178.4 134.7 177.6 134.7 176.5 134.8V134.3C177.3 134.1 177.7 134 177.8 133.9C177.9 133.9 177.9 133.7 177.9 133.5C178 133 178 132.2 178 131.3C178 129.3 178 128.3 177.9 128.1C177.8 127.9 177.6 127.7 177.3 127.7C177.2 127.7 176.9 127.7 176.6 127.8C176.6 127.8 176.5 127.8 176.3 127.8Z" fill="white"/>
<path d="M187.9 128.9L187.3 128.8C187.4 128.2 187.5 127.6 187.6 127C188.8 126.5 190 126.2 191 126.2C191.4 126.2 191.8 126.3 192.2 126.4C192.6 126.5 192.8 126.7 193 126.9C193.2 127.1 193.4 127.3 193.5 127.6C193.6 127.9 193.7 128.3 193.7 128.9L193.6 132.5C193.6 133 193.7 133.3 193.8 133.5C193.9 133.6 194.1 133.7 194.3 133.7C194.5 133.7 194.9 133.5 195.4 133.2L195.7 133.6C194.8 134.3 194.3 134.7 194.2 134.8C194 134.9 193.8 134.9 193.5 134.9C193.1 134.9 192.8 134.8 192.5 134.6C192.3 134.4 192.1 134.1 192 133.7C191.2 134.2 190.7 134.6 190.3 134.7C189.9 134.8 189.5 134.9 189.1 134.9C188.4 134.9 187.8 134.7 187.4 134.3C187 133.9 186.7 133.4 186.7 132.8C186.7 132.4 186.8 132.1 186.9 131.8C187.1 131.5 187.3 131.2 187.6 131C187.8 130.8 188.2 130.6 188.7 130.4C190 129.9 191 129.4 192 129.1C192 128.3 191.8 127.7 191.5 127.5C191.2 127.2 190.8 127.1 190.3 127.1C189.8 127.1 189.3 127.2 189 127.5C188.5 127.8 188.2 128.2 187.9 128.9ZM191.9 129.8C190.2 130.5 189.2 131 188.9 131.3C188.5 131.6 188.4 132 188.4 132.4C188.4 132.8 188.5 133.2 188.8 133.4C189.1 133.7 189.4 133.8 189.7 133.8C190.1 133.8 190.5 133.7 190.9 133.5C191.3 133.3 191.6 133 191.7 132.8C191.8 132.5 191.9 132 191.9 131.3V129.8Z" fill="white"/>
<path d="M194.9 123.6V123.1C196 122.8 197.1 122.4 198 122L198.3 122.2C198.1 123.3 198.1 125.3 198.1 128.3C198.1 131.3 198.1 132.9 198.1 133.2C198.1 133.5 198.2 133.7 198.3 133.8C198.4 133.9 198.9 134.1 199.7 134.3V134.8C198.7 134.7 197.9 134.7 197.3 134.7C196.7 134.7 195.9 134.7 194.9 134.8V134.3C195.8 134.1 196.2 133.9 196.3 133.8C196.4 133.7 196.4 133.6 196.4 133.3C196.4 132.9 196.4 131.4 196.4 128.5V124.4V124.3C196.4 124 196.4 123.8 196.3 123.7C196.2 123.6 196.1 123.6 195.8 123.6C195.7 123.5 195.4 123.5 194.9 123.6Z" fill="white"/>
<path d="M109.5 122.6C109.5 123.5 108.7 124.3 107.8 124.3C106.9 124.3 106.1 123.5 106.1 122.6C106.1 121.7 106.9 120.9 107.8 120.9C108.7 121 109.5 121.7 109.5 122.6Z" fill="white"/>
</svg>
