<?xml version="1.0" encoding="utf-8"?>
<!-- Generator: Adobe Illustrator 25.2.0, SVG Export Plug-In . SVG Version: 6.00 Build 0)  -->
<svg version="1.1" id="圖層_1" xmlns="http://www.w3.org/2000/svg" xmlns:xlink="http://www.w3.org/1999/xlink" x="0px" y="0px"
	 viewBox="0 0 111.5 42" style="enable-background:new 0 0 111.5 42;" xml:space="preserve">
<style type="text/css">
	.st0{fill:#E72410;}
	.st1{fill:url(#SVGID_1_);}
	.st2{fill:url(#SVGID_2_);}
</style>
<g>
	<g>
		<path d="M72.3,22.5c0.3,0,0.5-0.2,0.5-0.5v-2c0-0.3-0.2-0.5-0.5-0.5H62.1c-0.9,0-1.6,0.7-1.6,1.5v0.1v0.1v13.7
			c0,0.2,0.2,0.4,0.5,0.4h2.7c0.3,0,0.5-0.2,0.5-0.4v-6.1h8.1c0.3,0,0.5-0.2,0.5-0.5v-2c0-0.2-0.2-0.5-0.5-0.5h-6
			c-0.3,0-0.5,0.1-0.8,0.4l-1.3,1.8v-5.7H72.3z"/>
		<path d="M88.1,22.5c0.3,0,0.5-0.2,0.5-0.5v-2c0-0.2-0.2-0.5-0.5-0.5H77.8c-0.9,0-1.6,0.8-1.6,1.4v13.3c0,0.6,0.6,1.1,1.2,1.1h10.6
			c0.3,0,0.5-0.2,0.5-0.4v-2c0-0.2-0.2-0.5-0.5-0.5h-0.7h-3.5h-3.6H80v-3.7h8.1c0.3,0,0.5-0.2,0.5-0.5v-2c0-0.3-0.2-0.5-0.5-0.5h-6
			c-0.6,0-0.8,0.4-1,0.7L80,28.2v-5.7H88.1z"/>
		<path d="M105.6,19.6h-4.8h-3.4h-5.1c-0.3,0-0.5,0.2-0.5,0.5v2c0,0.2,0.2,0.4,0.5,0.4l7.7,0c-0.4,0-0.9,0.1-1.1,0.4
			c0,0-1.1,1.3-1.6,2c-0.2,0.3-0.2,0.7-0.2,0.7v9.3c0,0.2,0.2,0.4,0.5,0.4h2.7c0.3,0,0.5-0.2,0.5-0.4V22.5h4.8
			c0.3,0,0.5-0.2,0.5-0.5v-2C106.1,19.8,105.9,19.6,105.6,19.6z"/>
	</g>
	<g>
		<g>
			<g>
				<path d="M5.8,26c0,0,0,6.9,0,7.4c1.5,0,2.6-0.8,2.6-2.4c0-0.7,0-3,0-3.6c0-1.1-0.4-1.4-1.1-1.4C7.1,25.9,5.8,25.9,5.8,26L5.8,26
					z"/>
				<polygon points="5.8,21.3 5.8,21.3 5.8,21.3 				"/>
				<g>
					<path d="M29.2,24.6v-0.8H12.3v-1.2h7.3v-0.9h-7.3v-1.2h7.3v-0.9H5.8v0.9h4.7v1.2H5.8v0.9h4.7v1.2H5.8v1c0,0,1.8,0,2.5,0
						c1.3,0,2.2,0.6,2.2,2.1c0,0.6,0,3.9,0,4.2c0,1.2,1.4,2.3,2.5,2.3c0.6,0,3.3,0,3.3,0l0-2.8l-4,1.4v-1.4l6.1-2.1v4.8h10.8v-0.7
						h-3.9l-6-2l6-2h3.9V28H12.3c0,0,0-2,0-2.2c0-0.7,0.8-1.2,1.8-1.2C14.6,24.6,29.2,24.6,29.2,24.6z"/>
				</g>
				<path d="M13,34.6c-1.2,0-2.1,0-3.5-1.1c-1.4,1.2-2.3,1.1-3.7,1.1v0.7h23.4v-0.7C29.2,34.6,14,34.6,13,34.6z"/>
				<polyline points="29.7,21.7 21.6,21.7 21.6,22.6 29.2,22.6 				"/>
				<rect x="21.6" y="19.6" width="7.6" height="0.9"/>
				<path d="M14.3,26.8h14.8v-1c0,0-13.8,0-14.1,0c-0.3,0-0.7,0-0.7,0.3C14.3,26.2,14.3,26.8,14.3,26.8z"/>
				<polygon class="st0" points="29.2,32.7 29.2,28.7 23.3,30.7 				"/>
			</g>
			<g>
				<polygon points="29.2,23.8 32.8,22.2 32.8,35.4 34.9,35.4 34.9,19.6 29.2,21.9 				"/>
				<rect x="36.4" y="32.7" width="10.3" height="1.2"/>
			</g>
		</g>
		<g>
			<path d="M55.3,21.3v-1.2h-8.5v-0.7h-2.1v0.7h-8.3v1.2h8.3v0.8h-8.3l0,5.4h8.4v0.9h-8.4v1.2c0,0,16.9,0,17,0
				c1.4,0,1.9-0.4,1.9-1.1c0-0.4,0-0.6,0-0.6h-2.1c0,0,0,0.2,0,0.2c0,0.1,0,0.2-0.2,0.2c-0.2,0-6.2,0-6.2,0v-0.9h8.5c0,0,0-3.4,0-4
				c0-0.7-0.6-1.4-2.1-1.4c-1.2,0-6.4,0-6.4,0v-0.8H55.3z M44.7,26.3h-6.3v-0.9h6.3V26.3z M44.7,24.2h-6.3l0-0.9h6.2V24.2z
				 M53.2,26.3h-6.4v-0.9h6.4V26.3z M52.5,23.3c0.6,0,0.6,0.3,0.6,0.6c0,0.2,0,0.3,0,0.3h-6.4v-0.9C46.8,23.3,51.9,23.3,52.5,23.3z"
				/>
			<path d="M36.3,31.8h16.8v1.7c0,0.2-0.1,0.4-0.4,0.4c-0.1,0-0.1,0-0.1,0h-6v1.2c0,0,5.7,0,6.6,0c1,0,1.9-0.6,1.9-1.7
				c0-0.8,0-2.9,0-2.9H36.3V31.8z"/>
		</g>
	</g>
	<g>
		<g>
			<g>
				<linearGradient id="SVGID_1_" gradientUnits="userSpaceOnUse" x1="102.9139" y1="7.7572" x2="7.671" y2="19.4026">
					<stop  offset="0" style="stop-color:#AD1401"/>
					<stop  offset="8.743753e-02" style="stop-color:#B61603"/>
					<stop  offset="0.2288" style="stop-color:#CE1D0A"/>
					<stop  offset="0.3435" style="stop-color:#E62310"/>
					<stop  offset="1" style="stop-color:#E62310"/>
				</linearGradient>
				<polygon class="st1" points="5.8,11.7 5.8,15.3 106.1,15.3 101,11.7 				"/>
			</g>
		</g>
		<linearGradient id="SVGID_2_" gradientUnits="userSpaceOnUse" x1="71.5737" y1="-11.8343" x2="103.6551" y2="11.2231">
			<stop  offset="0" style="stop-color:#AD1401"/>
			<stop  offset="2.279841e-02" style="stop-color:#B21502"/>
			<stop  offset="0.1773" style="stop-color:#CE1D0A"/>
			<stop  offset="0.3119" style="stop-color:#E0210E"/>
			<stop  offset="0.4106" style="stop-color:#E62310"/>
			<stop  offset="0.6924" style="stop-color:#E62310"/>
			<stop  offset="1" style="stop-color:#E73817"/>
		</linearGradient>
		<polygon class="st2" points="95.8,3.2 95.8,7.9 106.1,15.3 106.1,10.6 		"/>
	</g>
</g>
</svg>
