<svg width="1121" height="366" viewBox="0 0 1121 366" fill="none" xmlns="http://www.w3.org/2000/svg">
<g clip-path="url(#clip0_2637_16597)">
<path d="M182.833 0C154.954 0 128.551 6.2344 104.862 17.376H260.767C237.115 6.2344 210.712 0 182.833 0ZM124.349 34.8439H75.4823C68.1777 40.11 61.3111 45.9607 54.9073 52.2532H99.7338C107.251 45.6098 115.481 39.7515 124.349 34.8439ZM217.941 87.1222H338.588C334.873 81.0964 330.796 75.2628 326.43 69.6963H217.941V87.1222ZM83.0742 69.6963H39.2484C34.8584 75.2628 30.768 81.0964 27.041 87.1222H71.1798C74.7065 81.0216 78.6965 75.1628 83.0742 69.6963ZM217.941 52.2532H310.771C304.342 45.9607 297.451 40.11 290.172 34.8439H217.941V52.2532ZM365.679 182.991C365.679 180.111 365.591 177.166 365.441 174.286H302.366C299.89 168.252 297.038 162.435 293.811 156.851H363.778C362.94 150.943 361.801 145.118 360.426 139.409H281.854C276.826 133.116 271.223 127.316 265.157 121.999H355.26C353.159 116.015 350.72 110.207 348.068 104.573H147.537V191.729H217.941V278.886H27.041C30.768 284.92 34.8584 290.738 39.2484 296.262H147.45V313.722H54.9073C61.3239 320.023 68.2152 325.865 75.507 331.098H147.45V348.566H104.862C128.551 359.783 154.954 366 182.833 366C210.712 366 237.115 359.783 260.767 348.566H241.093C249.898 343.642 258.09 337.808 265.607 331.098H290.172C297.451 325.865 304.342 320.023 310.771 313.722H282.154C286.519 308.23 290.472 302.405 294.036 296.262H326.393C330.796 290.738 334.873 284.92 338.588 278.886H302.491C304.755 273.203 306.694 267.402 308.207 261.444H348.068C350.72 255.735 353.159 249.968 355.26 243.984H311.509C312.185 238.325 312.56 232.6 312.56 226.742V226.566H360.426C361.801 220.858 362.94 215.049 363.778 209.157H311.459C310.683 203.198 309.583 197.396 308.12 191.729H365.441C365.591 188.808 365.679 185.895 365.679 182.991ZM83.0742 243.984H10.4185C12.545 249.968 14.9089 255.735 17.5856 261.444H99.7338C93.7053 256.086 88.1272 250.252 83.0742 243.984ZM62.6747 209.157H1.88869C2.70156 215.049 3.80214 220.858 5.21567 226.566H71.1922C67.9527 220.958 65.0761 215.141 62.6747 209.157ZM52.5563 156.851C52.5563 150.943 52.9311 145.118 53.6317 139.409H5.21567C3.80214 145.118 2.70156 150.943 1.88869 156.851H52.5563ZM62.6747 104.573H17.5856C14.9089 110.207 12.545 116.015 10.4185 121.999H56.9587C58.4597 116.015 60.3984 110.207 62.6747 104.573ZM53.6317 174.286H0.200225C0.0751377 177.166 0 180.111 0 182.991C0 185.895 0.0751377 188.808 0.200225 191.729H56.9587C55.4576 186.045 54.3447 180.211 53.6317 174.286Z" fill="#0065AC"/>
<path d="M506.962 296.974C503.06 299.319 497.432 301.723 486.638 301.723C469.027 301.723 456.995 288.027 456.995 271.811C456.995 255.436 469.027 241.641 486.638 241.641C498.22 241.641 503.585 244.512 506.087 246.014L503.248 252.958C501.334 252.031 496.494 249.394 487.388 249.394C477.094 249.394 467.664 258.758 467.664 271.811C467.664 284.522 477.257 294.019 487.939 294.019C496.931 294.019 500.996 291.791 503.785 290.389L506.962 296.974ZM539.194 300.671V275.391C539.194 271.585 537.63 268.823 533.028 268.823C528.888 268.823 525.086 271.402 523.434 272.554V300.671H514.142V245.346L523.434 242.817V266.478C525.16 265.017 528.988 261.621 537.143 261.621C544.647 261.621 548.474 266.403 548.474 273.313V300.671H539.194ZM715.136 300.671V275.391C715.136 271.585 713.597 268.823 708.969 268.823C704.804 268.823 701.039 271.402 699.363 272.554V300.671H690.095V245.346L699.363 242.817V266.478C701.077 265.017 704.892 261.621 713.047 261.621C720.563 261.621 724.378 266.403 724.378 273.313V300.671H715.136ZM626.946 300.671V275.391C626.946 271.585 625.37 268.823 620.842 268.823C616.527 268.823 612.9 271.402 611.136 272.554V300.671H601.881V264.867L610.736 262.488L610.999 266.478C612.737 265.076 616.865 261.621 624.557 261.621C632.049 261.621 636.214 266.328 636.214 273.313V300.671H626.946ZM658.302 286.157C655.975 286.157 651.698 286.833 651.698 289.963C651.698 293.368 655.7 293.669 658.227 293.669H669.108C677.438 293.669 683.517 298.551 682.529 306.93C681.49 315.551 671.71 321.452 662.629 321.452C652.761 321.452 641.854 319.057 641.854 310.569C641.854 304.777 646.345 301.581 648.771 300.379C647.045 299.394 644.006 297.216 644.006 292.041C644.006 287.451 647.458 283.529 650.76 282.444C648.771 281.192 646.095 278.696 646.095 273.856C646.095 268.131 650.835 261.621 660.466 261.621C664.593 261.621 666.607 262.163 668.007 262.488H682.716V267.404H674.499C675.274 268.197 677.163 270.509 677.163 273.856C677.163 281.951 669.809 286.157 662.116 286.157H658.302ZM649.659 309.543C649.822 313.866 656.501 315.451 661.866 315.451C667.845 315.451 673.636 311.821 674.149 307.806C674.849 303.433 671.71 301.505 667.932 301.505H655.5C653.549 302.699 649.534 305.753 649.659 309.543ZM654.574 273.931C654.574 277.595 657.089 280.474 661.541 280.474C666.194 280.474 668.445 277.595 668.445 273.931C668.445 270.701 666.344 267.154 661.541 267.154C657.089 267.154 654.574 270.701 654.574 273.931ZM749.631 262.488H758.211L766.528 287.526L775.183 262.488H783L768.179 301.28H763.139L756.297 281.717L748.78 301.28H743.752L730.069 262.488H739.012L747.592 288.311L753.383 273.28L749.631 262.488ZM797.271 301.505C790.017 301.505 785.502 297.266 785.502 290.906C785.502 284.305 790.68 278.596 800.311 278.087L808.365 277.711V274.506C808.365 271.152 807.24 267.746 801.374 267.746C796.133 267.746 792.494 269.474 790.68 270.25L788.529 265.326C790.88 264.216 796.233 261.621 804.138 261.621C812.868 261.621 817.533 266.203 817.533 272.854V294.637C817.633 296.64 818.321 299.494 818.922 300.671H809.254C808.691 299.594 808.365 298.092 808.466 297.266C806.477 298.743 802.762 301.505 797.271 301.505ZM808.365 283.094L803 283.529C797.972 283.979 794.095 285.757 794.095 289.963C794.095 293.769 797.171 295.096 800.473 295.096C803.888 295.096 806.652 292.984 808.365 291.791V283.094ZM567.511 262.488V287.726C567.511 291.515 568.811 294.286 573.264 294.286C577.479 294.286 580.856 291.791 582.507 290.564V262.488H591.762V298.242L582.932 300.671L582.669 296.64C580.943 298.017 576.453 301.505 569.274 301.505C561.87 301.505 558.205 296.923 558.205 289.788V262.488H567.511ZM830.816 242.817H877.606V250.254H859.258V300.671H849.277V250.254H830.816V242.817ZM890.601 295.146C896.568 295.146 899.369 293.944 901.095 293.16L903.196 298.301C900.908 299.319 897.268 301.505 887.862 301.505C876.131 301.505 868.714 294.119 868.714 281.876C868.714 270.25 876.818 261.621 887.174 261.621C896.492 261.621 904.66 267.88 904.66 282.494H878.557C878.557 290.314 882.572 295.146 890.601 295.146ZM886.874 267.88C881.859 267.88 879.332 271.836 878.745 276.768H894.804C894.329 271.051 891.477 267.88 886.874 267.88ZM912.352 245.313L921.732 242.817V300.671H912.352V245.313ZM951.675 295.146C957.654 295.146 960.43 293.944 962.169 293.16L964.245 298.301C961.981 299.319 958.317 301.505 948.924 301.505C937.217 301.505 929.75 294.119 929.75 281.876C929.75 270.25 937.904 261.621 948.248 261.621C957.541 261.621 965.671 267.88 965.671 282.494H939.63C939.63 290.314 943.645 295.146 951.675 295.146ZM947.935 267.88C942.907 267.88 940.419 271.836 939.793 276.768H955.84C955.352 271.051 952.575 267.88 947.935 267.88ZM991.599 261.621C999.053 261.621 1002.52 263.098 1004.57 263.991L1002.61 269.75C1000.62 268.957 998.178 267.947 992.812 267.947C987.771 267.947 981.28 272.437 981.28 281.575C981.28 290.138 987.771 295.146 992.812 295.146C998.178 295.146 1000.69 294.119 1002.77 293.418L1004.94 299.052C1002.94 300.128 999.328 301.505 991.498 301.505C979.191 301.505 971.312 293.368 971.312 281.575C971.312 269.474 981.13 261.621 991.599 261.621ZM1049.5 281.575C1049.5 293.769 1040.44 301.505 1028.7 301.505C1017.09 301.505 1008.01 293.769 1008.01 281.575C1008.01 269.324 1017.09 261.621 1028.7 261.621C1040.44 261.621 1049.5 269.324 1049.5 281.575ZM1017.94 281.575C1017.94 289.454 1022.18 295.321 1028.7 295.321C1034.7 295.321 1039.36 289.454 1039.36 281.575C1039.36 273.63 1034.7 267.746 1028.7 267.746C1021.68 267.746 1017.94 273.555 1017.94 281.575ZM1112.55 300.671H1103.26V275.391C1103.26 271.585 1101.8 268.706 1097.61 268.706C1094.23 268.706 1091.22 271.051 1089.61 272.312V300.671H1080.41V275.391C1080.41 271.585 1079.2 268.706 1074.84 268.706C1071.66 268.706 1068.44 271.152 1066.81 272.387V300.671H1057.51V264.867L1066.28 262.488L1066.61 266.553C1068.44 264.901 1072.78 261.621 1078.5 261.621C1083.67 261.621 1086.45 263.448 1088.34 266.745C1090.31 264.901 1094.6 261.621 1101.18 261.621C1108.84 261.621 1112.55 266.553 1112.55 273.163V300.671Z" fill="#231815"/>
<path d="M1006.38 68.7908C1008.45 69.2497 1009.75 70.4517 1010.5 71.4533C1011.47 72.8053 1011.82 74.9085 1011.42 77.1032C1009.06 88.5537 1006.34 98.5356 1003.27 106.406V198.185C1003.27 200.323 1002.6 202.051 1001.27 203.378C1000.04 204.63 998.44 205.272 996.501 205.398C994.662 205.398 993.074 204.78 991.711 203.52C990.485 202.193 989.822 200.423 989.822 198.185V132.144C986.495 136.993 984.344 137.577 982.78 137.794C981.417 137.994 979.441 137.644 978.065 136.417C976.739 135.299 975.752 133.446 975.639 131.919C975.539 130.416 976.289 128.263 977.59 126.502C988.534 110.578 995.5 93.2024 998.265 74.8248C998.577 72.5968 999.766 70.7688 1001.1 69.8757C1002.18 69.1497 1004.57 68.3485 1006.38 68.7908ZM1028.22 155.429H1102.96C1106.04 155.429 1108.53 156.205 1110.42 158.075C1112.27 159.961 1113.15 161.613 1113.15 164.142V192.91C1113.15 195.581 1111.98 197.942 1109.84 200.073C1107.89 202.051 1105.53 203.269 1102.96 203.269H1028.21C1025.58 203.269 1023.64 202.193 1021.98 200.173C1020.13 198.06 1019.48 195.664 1019.48 192.91V164.142C1019.48 161.805 1020.45 159.577 1022.02 157.958C1023.58 156.422 1025.81 155.429 1028.22 155.429ZM1036.98 168.315C1035 168.315 1034.32 168.791 1033.86 169.216C1033.4 169.717 1032.89 170.677 1032.89 172.054V186.225C1032.89 187.802 1033.3 188.696 1033.84 189.196C1034.57 189.93 1035.61 190.306 1037.1 190.306H1095.41C1097.05 190.306 1098.27 189.88 1098.85 189.271C1099.45 188.696 1099.7 187.669 1099.7 186.267V172.496C1099.7 171.044 1099.45 170.101 1098.91 169.525C1098.1 168.716 1097.09 168.315 1095.58 168.315H1036.98ZM1027.56 133.796C1025.63 133.796 1023.97 134.489 1022.78 135.674C1021.62 136.818 1021.09 138.754 1021.09 140.173C1021.09 141.658 1021.59 143.611 1022.78 144.83C1024 146.057 1025.67 146.708 1027.56 146.708H1105.15C1107.25 146.708 1108.86 145.881 1109.84 144.83C1110.96 143.678 1111.51 141.858 1111.51 140.173C1111.51 138.52 1111.01 136.642 1109.84 135.516C1108.84 134.472 1107.32 133.796 1105.19 133.796H1027.56ZM1027.56 113.441C1025.37 113.441 1024.05 114.017 1022.78 115.286C1021.68 116.462 1021.09 118.273 1021.09 119.876C1021.09 121.503 1021.67 123.331 1022.78 124.458C1024 125.659 1025.37 126.352 1027.56 126.352H1105.15C1107.17 126.352 1108.67 125.484 1109.84 124.349C1110.96 123.222 1111.51 121.503 1111.51 119.876C1111.51 118.273 1111.01 116.588 1109.84 115.469C1108.75 114.317 1107.17 113.441 1105.19 113.441H1027.56ZM1018.1 92.7768C1015.79 92.7768 1014.51 93.428 1013.31 94.6381C1012.24 95.7564 1011.6 97.6173 1011.6 99.2364C1011.6 100.839 1012.24 102.692 1013.31 103.818C1014.5 104.995 1015.79 105.646 1018.1 105.646H1114.66C1116.83 105.646 1118.29 104.878 1119.32 103.818C1120.45 102.667 1121 100.797 1121 99.2116C1121 97.6173 1120.41 95.7645 1119.32 94.6381C1118.25 93.5865 1116.76 92.7768 1114.71 92.7768H1018.1ZM1027.56 72.3964C1025.37 72.3964 1023.9 73.1057 1022.78 74.2239C1021.68 75.3589 1021.09 76.7028 1021.09 78.8641C1021.09 80.9839 1021.72 82.3697 1022.78 83.4879C1023.85 84.5144 1025.41 85.2989 1027.56 85.2989H1105.15C1107.34 85.2989 1108.79 84.5644 1109.84 83.4879C1111.01 82.336 1111.51 80.9425 1111.51 78.8308C1111.51 76.7028 1110.94 75.3589 1109.81 74.1821C1108.78 73.1476 1107.43 72.3964 1105.19 72.3964H1027.56Z" fill="#231815"/>
<path d="M773.669 82.8215C773.669 84.3153 773.044 86.0934 772.031 87.1197C770.855 88.2713 769.442 89.0058 767.578 89.0058H736.972V89.4733C736.972 91.6099 736.385 93.3875 735.059 94.6809C733.833 95.9663 732.157 96.6589 730.256 96.6589C728.342 96.6589 726.691 96.0081 725.403 94.6809C724.065 93.3875 723.552 91.6099 723.552 89.4733V89.0058H685.18V89.4733C685.18 91.6099 684.604 93.3875 683.253 94.7143C682.052 95.9663 680.364 96.7175 678.475 96.7175C676.537 96.7175 674.898 96.0081 673.598 94.6809C672.297 93.3875 671.747 91.6265 671.747 89.4733V89.0058H641.241C639.252 89.0058 637.789 88.3213 636.701 87.2783C635.563 86.1681 634.987 84.3153 634.987 82.8215C634.987 81.2943 635.663 79.4834 636.701 78.4651C637.764 77.3883 639.252 76.7042 641.241 76.7042H671.721V73.6493C671.721 71.4795 672.297 69.7519 673.598 68.3999C674.873 67.165 676.537 66.4219 678.475 66.4219C680.326 66.4219 682.015 67.2397 683.241 68.3999C684.604 69.7519 685.142 71.5213 685.142 73.6493V76.7042H723.552V73.6493C723.552 71.5213 724.052 69.7519 725.403 68.3999C726.691 67.165 728.342 66.4638 730.256 66.4638C732.157 66.4638 733.833 67.2397 735.059 68.3999C736.385 69.7519 736.947 71.5713 736.947 73.6493V76.7042H767.578C769.429 76.7042 770.942 77.4554 771.993 78.4903C773.044 79.5666 773.669 81.3442 773.669 82.8215ZM676.824 137.403V149.864H697.712V137.403H676.824ZM711.107 112.057V125.102H732.045V112.057H711.107ZM732.045 139.256V137.403H711.107V149.864H763.788C765.639 149.864 767.053 150.339 768.179 151.466C769.367 152.626 769.892 154.771 769.892 156.006C769.892 157.25 769.329 159.152 768.216 160.304C767.015 161.456 765.664 162.19 763.788 162.19H711.107V172.373H767.578C769.429 172.373 770.905 172.948 771.943 174.025C773.044 175.135 773.657 176.987 773.657 178.556C773.657 180.109 772.956 181.862 771.968 183.089C770.942 184.315 769.429 184.716 767.578 184.716H711.107V198.219C711.107 200.325 710.519 202.102 709.206 203.446C707.98 204.656 706.279 205.399 704.378 205.399C702.489 205.399 700.814 204.706 699.563 203.379C698.237 202.102 697.712 200.366 697.712 198.219V184.716H641.241C639.315 184.716 637.939 184.165 636.751 182.988C635.613 181.862 635.062 179.667 635.062 178.556C635.062 177.363 635.613 175.285 636.751 174.133C637.851 173.057 639.315 172.373 641.278 172.373H697.712V162.19H645.018C643.129 162.19 641.566 161.615 640.415 160.455C639.252 159.361 638.877 157.308 638.877 156.081C638.877 154.871 639.315 152.851 640.528 151.625C641.541 150.623 643.129 149.864 645.068 149.864H663.391V137.403H637.263C635.412 137.403 633.936 136.819 632.798 135.717C631.66 134.566 631.072 132.763 631.072 131.219C631.072 129.692 631.735 128.081 632.798 126.863C633.849 125.703 635.412 125.102 637.301 125.102H663.391V123.658C663.391 121.546 663.929 119.744 665.218 118.475C666.531 117.165 668.132 116.497 670.058 116.497C671.972 116.497 673.685 117.215 674.898 118.475C676.186 119.744 676.787 121.546 676.787 123.658L676.824 125.102H697.712V112.057H645.068C643.129 112.057 641.629 111.331 640.578 110.329C639.427 109.203 638.877 106.983 638.877 105.831C638.877 104.746 639.515 102.526 640.54 101.499C641.604 100.465 643.129 99.7719 645.068 99.7719H763.788C765.639 99.7719 767.103 100.265 768.166 101.341C769.292 102.451 769.892 104.421 769.892 105.831C769.892 107.333 769.216 108.953 768.216 110.137C767.14 111.406 765.664 112.057 763.788 112.057H745.465V125.102H771.518C773.532 125.102 774.757 125.577 775.846 126.687C777.121 127.931 777.572 129.633 777.572 131.219C777.572 132.871 777.159 134.223 775.908 135.517C774.757 136.719 773.569 137.403 771.518 137.403H745.465L745.44 139.256C745.365 141.159 744.765 142.786 743.551 144.055C742.326 145.282 740.6 146.058 738.711 146.058C736.797 146.058 735.159 145.34 733.883 144.013C732.645 142.786 732.157 141.176 732.07 139.256H732.045Z" fill="#231815"/>
<path d="M521.208 68.3999C519.982 69.6519 519.369 71.5713 519.369 73.7997V84.1487H470.165C466.55 84.1487 463.424 85.3755 460.872 87.821C458.358 90.3997 457.032 93.4626 457.032 96.9093V167.715C457.032 171.045 458.358 174.058 460.997 176.629C463.649 179.066 466.751 180.409 470.165 180.409H519.369V197.485C519.369 200.166 520.207 202.294 521.333 203.371C522.309 204.322 524.109 205.399 526.636 205.399C529.112 205.399 530.801 204.322 531.752 203.371C532.852 202.294 533.89 200.116 533.89 197.485V180.409H583.232C586.947 180.409 590.536 178.465 592.512 176.479C594.463 174.501 596.215 170.728 596.215 167.34V97.2683C596.215 93.7379 594.964 90.7001 592.8 88.1713C590.361 85.4003 587.109 84.1487 583.194 84.1487H533.89V73.7997C533.89 71.5713 533.19 69.6519 531.964 68.3999C530.776 67.2397 528.475 66.4219 526.636 66.4219C524.735 66.4219 522.521 67.165 521.208 68.3999ZM472.279 165.162C471.466 164.335 471.041 163.417 471.041 162.232V102.668C471.041 101.416 471.491 100.54 472.342 99.5215C473.304 98.5369 474.343 98.1947 475.443 98.1947H519.369V166.413H475.531C474.28 166.413 473.217 166.021 472.279 165.162ZM577.641 98.1947C578.879 98.1947 580.03 98.6621 580.943 99.5719C581.769 100.423 582.206 101.374 582.206 102.668V162.232C582.206 163.384 581.518 164.644 580.918 165.195C580.343 165.796 579.442 166.413 578.004 166.413H533.89V98.1947H577.641Z" fill="#231815"/>
<path d="M853.891 106.933C855.292 106.933 856.393 107.334 857.268 108.185C858.094 109.028 858.519 110.205 858.519 111.607C858.519 112.909 858.094 114.019 857.268 114.987C856.393 115.897 855.292 116.398 853.891 116.398H830.127C828.626 116.398 827.451 115.897 826.613 114.987C825.762 114.136 825.35 113.009 825.35 111.607C825.35 110.289 825.762 109.137 826.613 108.185C827.451 107.334 828.626 106.933 830.127 106.933H853.891ZM862.047 121.355C863.435 121.355 864.548 121.781 865.398 122.624C866.224 123.475 866.699 124.626 866.699 126.037C866.699 127.389 866.224 128.466 865.398 129.384C864.548 130.343 863.435 130.819 862.047 130.819H838.282C836.781 130.819 835.593 130.343 834.755 129.384C833.917 128.591 833.504 127.431 833.504 126.037C833.504 124.71 833.917 123.583 834.755 122.624C835.593 121.781 836.781 121.355 838.282 121.355H862.047ZM917.992 106.933C919.43 106.933 920.531 107.334 921.407 108.185C922.232 109.028 922.657 110.205 922.657 111.607C922.657 112.909 922.232 114.019 921.407 114.987C920.531 115.897 919.43 116.398 917.992 116.398H894.253C892.777 116.398 891.551 115.897 890.751 114.987C889.888 114.136 889.462 113.009 889.462 111.607C889.462 110.289 889.888 109.137 890.751 108.185C891.551 107.334 892.777 106.933 894.253 106.933H917.992ZM926.147 121.355C927.573 121.355 928.661 121.781 929.524 122.624C930.387 123.475 930.8 124.626 930.8 126.037C930.8 127.389 930.387 128.466 929.524 129.384C928.661 130.343 927.573 130.819 926.147 130.819H902.395C900.894 130.819 899.719 130.343 898.881 129.384C898.043 128.591 897.58 127.431 897.58 126.037C897.58 124.71 898.043 123.583 898.881 122.624C899.719 121.781 900.894 121.355 902.395 121.355H926.147ZM830.853 149.948C830.853 149.013 831.103 148.22 831.691 147.536C832.116 147.019 832.992 146.71 834.292 146.71H871.352V154.696H830.828C830.828 154.696 830.853 150.123 830.853 149.948ZM871.352 165.338V173.208H834.292C833.079 173.208 832.204 172.907 831.653 172.298C831.103 171.772 830.828 170.946 830.828 169.794V165.338H871.352ZM921.769 146.71C923.008 146.71 923.92 147.093 924.546 147.82C925.034 148.321 925.246 149.197 925.246 150.373V154.696H884.747V146.71H921.769ZM925.246 165.338V169.753C925.246 170.871 924.921 171.772 924.371 172.298C923.795 172.874 922.945 173.174 921.731 173.208H884.747V165.338H925.246ZM937.854 192.111H890.638C888.912 192.111 886.999 191.785 885.761 190.6C884.585 189.348 884.747 186.928 884.747 183.874H928.949C931.174 183.874 933.289 182.989 935.177 181.161C937.041 179.283 938.079 177.13 938.141 174.71V144.014C938.079 141.752 937.228 139.908 935.728 138.481C933.801 136.895 931.537 136.069 928.973 136.069H825.712C823.499 136.069 821.598 136.853 820.097 138.372C818.546 140.008 817.82 141.902 817.958 144.014V174.685C817.82 177.089 818.583 179.242 820.159 181.145C821.485 182.772 823.336 183.665 825.637 183.874H871.352V188.698C871.352 194.056 874.291 198.095 876.817 200.175C879.619 202.479 883.422 203.271 886.398 203.271H937.854C940.93 203.271 943.407 200.751 943.407 197.661C943.407 194.556 940.93 192.111 937.854 192.111ZM933.889 101.651C934.664 101.651 935.565 102.093 936.065 102.594C936.565 103.103 936.853 103.979 936.891 104.88V124.66C936.891 126.83 937.829 128.841 938.954 129.918C940.08 131.069 941.881 131.612 943.469 131.612C944.82 131.612 947.047 130.636 947.935 129.693C948.96 128.716 949.798 126.58 949.798 124.66V101.116C949.986 98.312 948.76 95.6166 946.784 93.5886C944.82 91.6272 942.031 90.4004 939.329 90.4752H884.497V83.5734H931.4C933.063 83.5734 934.414 82.7474 935.34 81.8376C936.265 80.9112 936.866 79.1836 936.866 77.915C936.866 76.7048 936.265 74.802 935.34 73.8338C934.376 72.8992 932.989 72.3984 931.4 72.3984H824.874C823.211 72.3984 821.86 72.9574 820.822 73.9756C819.709 75.0358 819.221 76.3544 819.221 77.915C819.221 79.5673 819.884 81.0612 820.822 82.021C821.71 82.914 823.123 83.5734 824.874 83.5734H871.602V90.4752H816.744C814.093 90.4004 811.266 91.6272 809.34 93.5886C807.351 95.6166 806.151 98.312 806.314 101.116V124.66C806.314 126.58 807.126 128.716 808.165 129.693C809.053 130.636 811.266 131.612 812.63 131.612C814.218 131.612 816.019 131.069 817.157 129.918C818.308 128.841 819.221 126.83 819.221 124.66V104.88C819.259 103.979 819.546 103.103 820.047 102.594C820.572 102.093 821.397 101.651 822.198 101.651H871.602V125.828C871.602 128.057 872.378 129.884 873.491 131.019C874.591 132.146 876.505 132.747 878.031 132.747C879.632 132.747 881.646 132.046 882.571 130.936C883.622 129.768 884.497 128.057 884.497 125.828V101.651H933.889Z" fill="#231815"/>
</g>
<defs>
<clipPath id="clip0_2637_16597">
<rect width="1121" height="366" fill="white"/>
</clipPath>
</defs>
</svg>
