<svg xmlns="http://www.w3.org/2000/svg" viewBox="0 0 276.2 71.5"><path d="M458.4,1182.8c-.1,10.3,0,19.5-.1,29.6h-5.9v-21.9c0-.3-.4,0-.7-.1-10.1,2.7-19.2,12.6-20.6,23.1a2.8,2.8,0,0,0-.2,1.8,12.2,12.2,0,0,0,2.7,0,34.6,34.6,0,0,1,1.8-6.5c2.3-6.5,8.4-12.1,14.7-14.4-.2,6.5,0,11.8-.2,18h-5.7c-.2-1.7.3-3.3-.2-4.9a16.1,16.1,0,0,0-3.3,7.8l17.6.2V1254l-.4.2a44,44,0,0,1-6.5-1.2h-.2c-11.8-2.4-23.2-13.2-26.1-25a14.3,14.3,0,0,1-.6-3.6c2.1-.4,4.4.1,6.7-.2,1.8,10.1,10.8,20.1,21,22.3l.2-.2v-25.1c-4.3-.1-7.6,0-11.6,0a12.4,12.4,0,0,0,1.1,4.5,13.6,13.6,0,0,0,2.1,3.7h.2c0-1.6.1-3.4,0-5a55.2,55.2,0,0,1,5.7-.2v18.5c-8.7-3.3-15.2-12.3-16.3-21.5H424a36.6,36.6,0,0,1,10.8-28.4c6.5-6.1,14.5-9.9,23.5-10Z" transform="translate(-424 -1182.7)" fill="#d70c18"/><path d="M481.3,1246.8v-8.9a27.7,27.7,0,0,0,6.8-13.4,36.9,36.9,0,0,0-2.5-3.4h-3.4a24.8,24.8,0,0,0,2.8,3.6v.4a25.2,25.2,0,0,1-3.7,8v-17.7h4.3a21.9,21.9,0,0,0,2.5-3.7c-.3-1.2-.8-2.7-1.3-4.1a30.3,30.3,0,0,0-5.5-8.7v-8.8a33.5,33.5,0,0,1,11.7,15.5,27.1,27.1,0,0,1,1.8,6.5l-.3.8-3.8,5.5,4.3,5.7c-1.2,8.5-6.4,17.1-13.7,22.6Zm0-34.3h3.8a21.7,21.7,0,0,0-3.8-8.5Zm-3.9,13.5v11.6a18.8,18.8,0,0,1-4.1,3.2v-16.6H475v.2c.2,1.8,0,3.7.2,5.5a14.5,14.5,0,0,0,2.1-3.9Zm3.9-35.8v8.8a22.1,22.1,0,0,0-3.9-3.5v-7.9a26.5,26.5,0,0,1,3.9,2.6Zm0,13.7v8.6h-3.2a6.1,6.1,0,0,0-.7-1.4v-11.7a27.4,27.4,0,0,1,3.9,4.5Zm0,11.6h-3.5l-.4-.5v8.7l.5.7a2.7,2.7,0,0,1-.5,1.6v11.6a23.2,23.2,0,0,0,3.9-4.4v-17.7Zm0,22.4a18.8,18.8,0,0,1-3.9,3.5v8a26.5,26.5,0,0,0,3.9-2.6v-8.9Zm-8,13.5v-7.3a19.4,19.4,0,0,0,4.1-2.7v8a19.5,19.5,0,0,1-4.1,2Zm0-30.3h2.3l1.8,2.6V1215l-2.1-2.9v-4.8a13,13,0,0,1,2.1,3.8v-11.7a21.5,21.5,0,0,0-4.1-3.2v24.9Zm0-28.3a29,29,0,0,1,4.1,2.7v-7.9a26.3,26.3,0,0,0-4.1-2.1Zm0,48-2.2,1.3c-.5.1-1.2.6-1.9.4v-18.1l.2-.2h3.9v16.6Zm0-55.3a31.9,31.9,0,0,0-12.1-2.8v71.5a43.9,43.9,0,0,0,11-2.3l1.1-.5v-7.3l-2.4,1.1a16.4,16.4,0,0,1-3.9,1.4v-25.4h6.3v-24.9a13.8,13.8,0,0,0-3.9-1.8h-.2v18c.7,1,1.7,2,2.2,2.9H467v-24.9h.1a24.8,24.8,0,0,1,6.2,2.4Z" transform="translate(-424 -1182.7)" fill="#d70c18"/><path d="M528.8,1202.5c2.1,1.2,4.3,2.7,4.8,5.2s-.2,2.4.7,2.9a23.8,23.8,0,0,0,4.2-.9c2.2,0,2.9,2.6,4.6,3.8-.7,1.9-1.2,3.8-2.8,5s-4.3,0-6.7.2-.7,2.7-1.2,3.9a20.3,20.3,0,0,1-.3,4.2,4.7,4.7,0,0,0,3.6,1.2c3.1-.5,6.4-.5,9.3-1.2,2.4,1,2.6,3.6,4.1,5.3s-1.3,4.3-3.1,5.5a1.7,1.7,0,0,1-1.7.5c-2.7-1.5-6.5-.5-9.3-1.7-4.5-.7-9.6.2-13.8,1.2a56.3,56.3,0,0,0-6.9,1.4c-1.5.5-1.5,2.9-2.9,2.4a2.9,2.9,0,0,1-1.7-1.5,54.2,54.2,0,0,1,0-5.7c-.2-1.2-1.2-3.3.8-4.1s7.6-1.8,11.8-1.6c1-5.3,1.5-11.7,0-17.2-.4-2.1-1.6-3.8-2.5-5.9s2.1-2.4,3.3-3.6,2.6-1.4,4-1.2Z" transform="translate(-424 -1182.7)" fill="#d70c18"/><path d="M580,1214.3h0v-15.5h-1.6c-1.3.2-2.2,1.5-3.1,2.2s1.1,2.4,1.8,3.8-.7,5.7-.7,8.6a1.9,1.9,0,0,0,2,1.1c-.8.5-1.5.5-2,1s-.4.7-.7,1.2c1.2,2.1,0,4.3-.4,6.2s-3.1.9-4.6,1.6h0v2.4a3.7,3.7,0,0,1,0,1.8c.5,1,1.7,1,2.6,1.7s-.7,3.8-.4,6,1.1,3.5,3.1,4.2,1.9-.2,3.1-.7.4-.2.9-.2v-7.4c-.2,0-.7,0-.9.3s.7-2,.9-2.9v-15.5Zm-9.3-2.5v-4.2a7.5,7.5,0,0,1,0,4.2Zm9.3,2.5v-15.5l1.5.7v13.4l-1.5,1.4Zm1.5,0v6.7l-1,.2c.2.4.2,1.4.7,1.4h.3v17.2H580v-7.4h.7c0-.5.5-1.2.3-1.7s-.8-.9-1-.9v-15.5Zm0-1.4a7,7,0,0,1,4.9-1.3h.3v-8.2a3.2,3.2,0,0,1-2.4-1.1,6.9,6.9,0,0,0-2.8-2.8v13.4Zm5.2,1.2a42.7,42.7,0,0,0-5.2.2v6.7c.2-.3.7-.3.7.4a1.2,1.2,0,0,1-.7,1.2v17.2a15.9,15.9,0,0,1,3.1,0c.7.5,1.2,1.4,2.1,2.1v-9.5c-.7-.2-1.6-.5-1.4-1.2s.7-1.2,1.4-1.9v-15.2Zm1.2,15.9v.5h-.2l.2-.5Zm-1.2,11.9v-9.5s.2,0,.2.3.5-1.7,1-2.2v12.2a1.3,1.3,0,0,1-1.2-.8Zm0-30.3v-8.2a2.3,2.3,0,0,0,1.2-.3v8.8c-.5,0-1,0-1.2-.3Zm1.2,2.5v6.2a2.7,2.7,0,0,0-1.2.7c.2.4.2,1.4,1.2,1.1v7.9c-.2-.4-.5-.9-1-.9l-.2.2v-15.2Zm0-2.2c.3.2.7.2.7.7s1.6,0,2.4,0,1.7-1.4,2.8-1.6,1.2-2.9,1.4-4.6a14.5,14.5,0,0,0-2.5-3.6c-1.2-.7-2.5-.2-3.8,0l-1,.3v8.8Zm14.7,11.5a3.7,3.7,0,0,0-2.9-1.8c-1.4-.2-3,.5-4.3-.2a1.5,1.5,0,0,1,.3-1.1c1-2-.5-3.6-1.7-4.8s-1.1-1.4-1.6-2.1l-4.5.7v6.2c.7-.3,1.4-.5,1,.9s-.3,1.2-1,.9v20.6h.3c1.6,0,2.3-1.7,3.3-2.4-.2-3.4,3.7-1.5,4.9-3.6s-.7-2.9-1.4-3.8.2-2.6.2-3.8,2.4,0,3.3.2,2.7-3.6,4.1-5.2Zm-31.9,1.2a2.5,2.5,0,0,0,0,2.4v-2.4Zm0-17v4.2a1.1,1.1,0,0,1-.2.6,2.2,2.2,0,0,1-1.4,1.4c-.5-.2-1.2,0-2-.2-2.8-1.2-4.2-3.8-6.4-6-.5-.7.2-.7.5-1.2s2.1-2.6,3.3-3.8,3.1,0,4.1,1l.5.9a7.1,7.1,0,0,1,1.6,3.1Zm-2.1,16.5.7.2c-.2,5.7.9,12.2-3.1,16.7-.5.4-.9.7-1.4.4s-2.4-2.3-3.9-3.3a7.1,7.1,0,0,1-.4-6.9c2.4-3.1,4.8-5.7,8.1-7.1Zm-2.2-1.7c.7-1.2,2-1.9,2-3.4s-1-2.1-2-2.5l-2.6-.3c-1.9-.5-3.6-2.4-5.5-1.7a42.8,42.8,0,0,0-1.4,4.3c0,2.4,2.6,3.1,3.8,4.3A8.9,8.9,0,0,0,566.4,1222.4Z" transform="translate(-424 -1182.7)" fill="#d70c18"/><path d="M635.6,1213.2v3.4a2.1,2.1,0,0,0-1.1.4h-.2v-4.3l.4.4Zm-1.3,5.7c.2.4.5.7.6,1l.7-.2v2.4a3.8,3.8,0,0,0-1.3.6v-3.8Zm0,10a4.4,4.4,0,0,0,1.3-1.4v5.5a22,22,0,0,1-1.3,3.6v-7.7Zm15.3,5.6c-.1-1.5-1-2.9-1.6-4.4s-3.5-2.6-6.2-2.6a.2.2,0,0,1-.2-.2c.7-1.6,1.4-3.6.4-5.2a46.3,46.3,0,0,0,2.7-8.2,31.1,31.1,0,0,0,1.6-4.9c-1.1-2.4-3.3-3.8-4.9-5.8l-.5-.2a28.1,28.1,0,0,0-5.3,2.2v6.6a8.1,8.1,0,0,1,2.2,0c.9,1,.2,2.1,0,3.1s-.5-.5-.8-.7-.9-1-1.4-1v3.4l1.9.2a10.9,10.9,0,0,1-.7,2.4c-.5,0-.7.2-1.2.5v2.4c.9-.2,1.7-.2,2.2.5a13.5,13.5,0,0,1-2.2,4.9v5.5l.7-1.6a1.8,1.8,0,0,1,2,0c1.6,1.2,3.5,2.1,4.9,3.8s1.3,3.3,3.1,3.6,2-1,2.6-2a3.4,3.4,0,0,0,.7-1.8v-.5Zm-15.3-22.6v-6.6h1.3v6.6A5.3,5.3,0,0,1,634.3,1211.9Zm0,5.2c-.8.7-.4,1.2,0,1.8v3.8l-.6.5c0,2-1.4,4.3-.3,6.3l.9-.6v7.7a5.8,5.8,0,0,1-2.3,2.6c-2.4-.4-3.1-3.1-4.7-5-.5.3-.5.8-.8,1.2s-1.6,1.4-2.6,1.4a13.7,13.7,0,0,0-5.7.2,20.8,20.8,0,0,0-4.8,3.4,2.3,2.3,0,0,1-1.4-.7c-.7-1.9.3-4-.4-6.2s4.5-.5,4-3.1l-1.2-1.4c.5-1.7.5-3.3,1.7-4.8.4,0,1.1-.7,1.9,0s1.2,1,1.4,1.7.5-.7.5-1.2-.3-.8-.7-1a2.7,2.7,0,0,1-2.2-.9,7.3,7.3,0,0,1-.9-3.1c1.1-1,2.8-1.4,3.8-2.4s-1.4-1.2-2.2-1.9c-1.9,3.1-4.3,7.4-8.3,7.6-1.4-.4-1.7-2.2-2.2-3.6s0-3.3,1.5-4c3.3-1.9,4.7-5.5,6.2-8.6a47.7,47.7,0,0,0,2.1-7.1c.7-2,2.9-2,4.3-2.2l2.1,2.4c.8.5,2,.5,2.2,1.4s-.2,2.4.9,3.1,2.2-.5,3.1.2,2,2.4,1.5,4.4a5.1,5.1,0,0,1-1.7,2.6c-.7.2-1.1-.3-1.9-.5-2.4.2-4.1-5.2-5.9-1.4a2.4,2.4,0,0,0-.5,1.4,6.2,6.2,0,0,0,3.6-.3,1.3,1.3,0,0,1,1.6,1c0,.5.7,1.2.2,1.7s-3.1,1.4-3.1,3.5,3.4-.7,3.6,1.3-.2,2.5-1.2,3.6-3.1,1.6-2.8,3.8c.2.2.7.4.9,0s1.5-1.8,2.4-2.2,1.2.2,1.2.9,0,1.7.3,2.6-3.4,2-1.3,3.6c.5.3,1,0,1.5-.2a5.1,5.1,0,0,0,1.4-4.7c.9-1.8-1.4-3.6,0-5.3s.2-2.1.5-3.6,0-3.3.2-5a2.1,2.1,0,0,1,1.7-.5,10,10,0,0,1,2.1,1l.4.5v4.3Zm0-11.8a1.5,1.5,0,0,0-1.3.8,20,20,0,0,0,.9,5.7h.4Z" transform="translate(-424 -1182.7)" fill="#d70c18"/><path d="M686.2,1243v-26.3a11.5,11.5,0,0,0,2.8-.6c3.6-.2,6.8-2,10.4-1.8a1.9,1.9,0,0,1,.4,2l-.4,3.4c0,1.1,1.4,2.2.4,3.4s-.8,1.3-1.8,1.8-4.4-1.2-6.2.2a69.7,69.7,0,0,1-1.4,13.9c-.7,1.6-1.8,3.9-3.8,4.1Zm0-29.6v-10.8a7.8,7.8,0,0,1,2.6.2c1.2-.5,1.4.9,2.2,1.3a4.7,4.7,0,0,1,2.1,4.6c.7,2.6-2.5,3.1-3.8,4.4A10.9,10.9,0,0,1,686.2,1213.4Zm-17.2-.5.7-.4a11.8,11.8,0,0,1,3.8-.9,2.8,2.8,0,0,0,1.4-1.6c-.3-2.5.2-4.1-.3-6.1a3.9,3.9,0,0,0-2-1.6c-.6-1-1.8-2-3.1-1.5l-.5.2v11.9Zm17.2-10.3v10.8a10.7,10.7,0,0,1-4.4-1.3c-1.1-1.4-3.3-3-2.4-5a7.3,7.3,0,0,1,6.3-4.5Zm0,14.1V1243a5.5,5.5,0,0,1-2.8-.6c-.4-1.1-1.3-2.3-2.4-2.3s-1.8-1.8-2.8-2.4a1.9,1.9,0,0,1,1-2,4.9,4.9,0,0,0,2.9.2c3.6-2,2.2-6.6,2.7-9.9-.2-.3-.5-.9-.9-.9h-5c-.9-1.2-1.5-2.7-2.7-3.8-1.6,1.1-3.4,1.5-4.5,3.1-.4,4.9,1.4,10.8-1.5,15.3a2.9,2.9,0,0,1-1.2.7v-23.2a19.4,19.4,0,0,0,2.7-4.3,4,4,0,0,1,3.4,0c1.8,1,1.8,3,3.4,4.1S683.6,1216.9,686.2,1216.7Zm-20.1-.6c1-.8,1.8-2.2,2.9-3.2V1201c-1,.6-.7,2.1-1.3,3.1-.9,3-5.2,4.4-4.5,8,.9,1.3.6,3.8,2.9,4Zm2.9,1.1v23.2a.8.8,0,0,1-.9,0c-2-1.8-3.3-4.1-2.9-6.5s.7-2.3.4-3.4c-1.8,1.1-3.8,1.8-5.1,3.4s-1.8-1.2-2.5-1.8.2-3.6,1.4-5.2,5.1-4.5,7.4-7A28.8,28.8,0,0,0,669,1217.2Z" transform="translate(-424 -1182.7)" fill="#d70c18"/></svg>