<svg width="1583" height="192" viewBox="0 0 1583 192" fill="none" xmlns="http://www.w3.org/2000/svg">
<path fill-rule="evenodd" clip-rule="evenodd" d="M242.794 69.9182C243.558 75.8405 246.322 81.3243 250.629 85.461C258.179 92.7523 262.452 102.792 262.474 113.288C262.474 135.025 244.852 152.646 223.115 152.646H166.71C164.117 152.663 161.636 153.709 159.815 155.554C157.993 157.399 156.979 159.893 156.995 162.486V164.742C156.976 169.911 160.777 174.3 165.895 175.02L211.834 182.917C213.443 183.037 214.723 184.316 214.842 185.926V191.566H47.694V185.926C47.8137 184.316 49.0931 183.037 50.7023 182.917L96.6415 175.02C101.76 174.3 105.56 169.911 105.541 164.742V162.486C105.405 157.184 101.067 152.958 95.7641 152.96H39.3586C37.5554 152.958 35.7545 152.833 33.9687 152.584C14.6887 149.92 0.25079 133.564 3.72069e-05 114.102V113.601C-0.0146768 102.968 4.33535 92.7957 12.0332 85.461C16.3315 81.3183 19.094 75.8376 19.8673 69.9182C21.2051 55.9514 30.5949 44.061 43.871 39.5219C49.5849 37.6714 54.423 33.792 57.471 28.6168C64.6529 15.6295 79.0406 8.34872 93.7585 10.2537C99.6835 10.9816 105.679 9.65418 110.743 6.49329C123.08 -2.16443 139.519 -2.16443 151.856 6.49329C156.922 9.64943 162.916 10.9764 168.841 10.2537C183.559 8.34872 197.946 15.6295 205.128 28.6168C207.688 33.0058 211.571 36.4721 216.221 38.5191C213.714 37.955 211.145 37.5163 208.575 37.1403C211.166 37.5581 213.714 38.0177 216.221 38.5191L218.728 39.5219C230.197 43.4233 238.92 52.8533 241.917 64.591C242.346 66.3415 242.639 68.1225 242.794 69.9182ZM181.062 35.3235H172.288C175.421 35.3652 178.43 35.3652 181.312 35.3235H181.062ZM170.282 35.6984C166.731 35.9073 163.117 36.2207 159.44 36.6385C163.158 36.2625 166.772 35.9491 170.282 35.6984ZM122.087 43.9088C125.346 43.0314 128.584 42.2166 131.801 41.4645L131.613 41.5272C128.396 42.2793 125.22 43.0731 122.087 43.9088ZM145.213 38.7692C141.453 39.4377 137.671 40.1898 133.869 41.0254C137.63 40.148 141.411 39.3959 145.213 38.7692ZM107.359 48.6101C111.307 47.3566 115.193 46.1659 119.078 45.0378L119.016 44.7871C115.13 45.8525 111.244 47.0433 107.359 48.6101ZM105.98 49.111C102.47 50.3018 98.9604 51.5552 95.4507 52.934C98.8977 51.3045 102.407 50.0511 105.917 48.8603L105.98 49.111ZM80.5346 59.076C84.483 57.3212 88.4314 55.6917 92.3797 54.1249V53.8115C88.4314 55.3783 84.483 57.0078 80.5346 59.076Z" fill="#444444"/>
<path fill-rule="evenodd" clip-rule="evenodd" d="M590.629 106.895C590.629 94.8285 585.95 83.8842 568.692 83.8321L568.756 83.8319H568.568L568.692 83.8321C560.938 83.8629 553.49 86.8684 547.886 92.2301V58.1987L533.784 60.2669V152.96H547.51V102.822C551.758 98.0842 557.817 95.3733 564.181 95.3637C573.832 95.3637 576.715 101.756 576.715 110.405V152.835H590.629V106.895ZM664.206 151.706L652.424 153.775C650.062 150.505 648.573 146.687 648.1 142.681C643.993 150.009 636.192 154.488 627.794 154.339C621.961 154.919 616.168 152.911 611.946 148.846C607.724 144.781 605.499 139.068 605.858 133.218C605.858 116.86 614.632 111.972 646.533 110.593V106.081C646.533 99.1865 645.279 94.6741 634.437 94.6741C627.374 94.8197 620.451 96.6687 614.256 100.064L611.248 88.4068C619.144 84.9016 627.678 83.0666 636.317 83.0169C654.179 83.0169 660.007 90.475 660.007 106.018V132.34C659.419 139.207 661.045 146.081 664.645 151.957L664.206 151.706ZM717.571 85.0855H717.541L717.604 84.9601L717.571 85.0855ZM717.571 85.0855H732.958C727.381 102.007 716.726 133.093 709.895 150.391C706.118 161.294 700.57 171.5 693.475 180.599L679.812 174.332C687.001 166.728 692.623 157.784 696.358 148.009L670.035 84.9601H685.641L703.377 132.968C708.25 118.909 714.058 98.6847 717.571 85.0855ZM630.238 142.807C625.611 142.807 618.739 141.061 618.706 132.839C618.738 123.934 625.214 122.185 646.345 120.997V130.273C644.56 137.699 637.875 142.901 630.238 142.807ZM618.706 132.839L618.706 132.779V132.905L618.706 132.839ZM517.74 142.493V153.085L511.473 153.461C499.941 154.025 492.671 149.826 492.671 137.354V96.8673H481.39V85.8996H492.107V70.5447L505.832 67.035V85.8369H519.996V96.8046H505.895V132.027C505.895 139.924 507.65 142.368 513.604 142.368L517.74 142.493ZM439.587 142.932C434.949 142.932 428.055 141.178 428.055 132.905C428.055 123.943 434.511 122.188 455.694 120.997V130.398C453.91 137.824 447.224 143.027 439.587 142.932ZM473.493 151.706L473.356 151.73C469.855 145.903 468.279 139.118 468.855 132.34V106.018C468.855 90.475 463.027 83.0169 445.165 83.0169C436.527 83.0666 427.992 84.9016 420.096 88.4068L423.104 100.064C429.299 96.6687 436.222 94.8197 443.285 94.6741C454.127 94.6741 455.381 99.1865 455.381 106.081V110.656C423.48 112.034 414.706 116.923 414.706 133.281C414.432 139.126 416.732 144.798 421 148.801C425.269 152.804 431.076 154.736 436.892 154.088C445.305 154.357 453.182 149.973 457.386 142.681C457.86 146.687 459.348 150.505 461.711 153.775L473.356 151.73C473.401 151.806 473.447 151.882 473.493 151.957V151.706ZM381.615 61.4578C347.207 61.4578 338.245 84.6468 338.245 109.152V109.215C338.245 133.281 348.21 154.464 382.116 154.464C389.415 154.45 396.675 153.395 403.676 151.331L402.171 138.295C395.796 140.392 389.14 141.512 382.43 141.616C362.75 141.616 353.537 129.207 353.537 109.403C353.537 88.5325 361.622 74.1804 382.116 74.1804C388.411 74.1992 394.651 75.3454 400.542 77.5647L402.861 64.5915C395.956 62.5789 388.807 61.5245 381.615 61.4578Z" fill="#444444"/>
<path fill-rule="evenodd" clip-rule="evenodd" d="M870.4 96.8045V85.8994H881.932V83.0791C881.932 71.8607 886.444 58.01 905.371 58.01C909.59 57.9583 913.799 58.4214 917.906 59.3888L916.088 70.7952C913.222 70.0465 910.276 69.6467 907.314 69.6045C898.916 69.6045 895.782 73.8035 895.782 83.5805V85.8994H910.824V96.8671H895.782V152.834H882.12V96.8671L870.4 96.8045ZM973.81 139.046C967.538 141.583 960.834 142.882 954.068 142.869L953.692 142.932C947.833 143.689 941.958 141.649 937.83 137.422C933.702 133.196 931.801 127.275 932.697 121.435H977.257V113.288C977.257 95.238 969.862 82.7034 951.06 82.7034C929.876 82.7034 918.783 99.8758 918.783 119.806C918.783 139.736 928.56 154.777 952.94 154.777C960.985 154.888 968.966 153.33 976.38 150.202L973.81 139.046ZM933.073 111.407C932.95 102.044 940.152 94.209 949.493 93.5457H949.618C960.461 93.5457 964.409 100.44 964.409 111.407H933.073ZM843.263 152.771H857.364V85.0842H843.263V152.771ZM857.364 74.8692H842.761V62.2093H857.364V74.8692ZM829.537 140.299H792.811V63.337H778.584V152.834H829.537V140.299Z" fill="#444444"/>
<path fill-rule="evenodd" clip-rule="evenodd" d="M1028.27 153.21H1042.75V63.3369H1028.27V153.21ZM1558.8 142.869C1565.56 142.88 1572.27 141.582 1578.54 139.046L1581.11 150.265C1573.7 153.393 1565.72 154.951 1557.67 154.84C1533.29 154.84 1523.51 139.798 1523.51 119.868C1523.51 99.9384 1534.61 82.766 1555.79 82.766C1574.59 82.766 1582.05 95.3006 1582.05 113.35V121.498H1537.49C1536.6 127.377 1538.54 133.332 1542.72 137.555C1546.91 141.778 1552.85 143.772 1558.74 142.932L1558.8 142.869ZM1554.22 93.5456C1544.88 94.2089 1537.68 102.043 1537.8 111.407H1569.14C1569.14 100.44 1565.19 93.5456 1554.35 93.5456H1554.22ZM1498.38 82.9527C1472.25 82.9527 1464.79 100.626 1464.79 119.428L1464.6 119.616C1464.6 137.729 1472.06 154.838 1498.07 154.838C1503.61 154.877 1509.13 154.053 1514.43 152.394L1512.42 140.361C1508.1 142.001 1503.51 142.83 1498.88 142.805C1484.97 142.805 1478.7 134.031 1478.7 119.616C1478.7 105.202 1484.22 94.9232 1498.44 94.9232C1502.89 94.9617 1507.29 95.7455 1511.48 97.2421L1514.24 85.397C1509.11 83.7779 1503.76 82.9536 1498.38 82.9527ZM1402.12 83.9562C1403.18 86.8101 1403.91 89.7744 1404.31 92.7931C1410.05 87.0941 1417.78 83.8377 1425.87 83.7055C1443.35 83.7055 1448.05 94.6733 1448.05 106.769V152.708H1434.08V110.404C1434.08 101.755 1431.13 95.3627 1421.54 95.3627C1415.27 95.4578 1409.29 98.0519 1404.94 102.57V152.708H1390.96V99.8124C1391.03 95.1024 1390.49 90.4032 1389.33 85.8364L1402.12 83.9562ZM1341.26 142.931C1336.62 142.931 1329.73 141.176 1329.73 132.903C1329.73 123.941 1336.12 122.186 1357.37 120.996V130.396C1355.58 137.822 1348.9 143.025 1341.26 142.931ZM1375.23 151.705L1375.23 151.705C1371.76 145.897 1370.21 139.146 1370.78 132.402V106.079C1370.78 90.5362 1364.95 83.0782 1347.09 83.0782C1338.46 83.1081 1329.92 84.9218 1322.02 88.4054L1325.03 100.063C1331.22 96.6673 1338.15 94.8183 1345.21 94.6726C1356.05 94.6726 1357.37 99.1851 1357.37 106.079V110.341C1325.4 111.72 1316.69 116.608 1316.69 132.966C1316.33 138.816 1318.56 144.529 1322.78 148.594C1327 152.659 1332.8 154.667 1338.63 154.086C1347.04 154.356 1354.92 149.972 1359.12 142.68C1359.6 146.685 1361.09 150.502 1363.45 153.773L1375.23 151.705L1375.29 151.804L1375.33 151.871C1375.36 151.92 1375.39 151.969 1375.42 152.018L1375.23 151.705ZM1308.86 96.6792L1309.55 84.1446L1309.23 84.2073C1300.85 83.8513 1292.83 87.6495 1287.8 94.3603C1287.41 90.8587 1286.63 87.4113 1285.48 84.0819L1272.95 85.8368C1274.18 91.2628 1274.72 96.8209 1274.58 102.382V152.897H1288.55V106.581C1291.81 99.3741 1300.96 96.6792 1308.86 96.6792ZM1218.86 154.338C1201.37 154.338 1196.74 143.244 1196.74 131.149V85.0841H1210.65V127.764C1210.65 136.288 1213.47 142.68 1223.19 142.68C1229.49 142.623 1235.5 140.024 1239.86 135.473V85.3348H1253.96V133.593C1253.81 139.921 1254.48 146.241 1255.96 152.395L1242.8 154.275C1241.82 151.513 1241.13 148.656 1240.73 145.751C1234.88 151.329 1227.13 154.486 1219.05 154.588L1218.86 154.338ZM1162.33 94.4221C1167.48 94.5391 1172.55 95.69 1177.25 97.8065L1180.69 86.2747C1174.79 84.3262 1168.61 83.3112 1162.39 83.2664C1152.3 83.2664 1138.64 86.7761 1138.64 102.758C1138.64 113.6 1145.16 117.736 1154.24 122.124C1163.33 126.511 1168.1 129.394 1168.1 134.658C1168.1 141.427 1163.4 143.182 1158.07 143.182C1151.6 142.925 1145.23 141.503 1139.27 138.983L1136.13 150.89C1143.64 153.458 1151.51 154.833 1159.45 154.964C1169.91 154.964 1181.95 150.452 1181.95 134.094C1181.95 122.437 1173.74 117.548 1164.08 112.973C1155.56 108.9 1152.3 106.831 1152.3 102.256C1152.3 95.9263 1158.01 94.4221 1162.33 94.4221ZM1075.53 84.2699C1076.59 87.1249 1077.32 90.0888 1077.72 93.1067C1083.47 87.4078 1091.19 84.1514 1099.28 84.0192C1116.77 84.0192 1121.47 94.9869 1121.47 107.083V153.022H1107.49V110.404C1107.49 101.756 1104.61 95.363 1094.96 95.363C1088.62 95.4079 1082.56 98.0061 1078.16 102.57V152.709H1064.18V99.8127C1064.25 95.1028 1063.71 90.404 1062.55 85.8367L1075.53 84.2699Z" fill="#444444"/>
<path d="M110.68 6.49329C105.616 9.65418 99.6209 10.9816 93.6959 10.2537C78.9993 8.37585 64.644 15.6528 57.471 28.6168C54.423 33.792 49.5849 37.6714 43.871 39.5219C30.5949 44.061 21.2051 55.9514 19.8673 69.9182C19.094 75.8376 16.3315 81.3183 12.0332 85.461C4.33535 92.7957 -0.0146768 102.968 3.72069e-05 113.601V114.102C23.0928 90.7159 50.4234 71.9354 80.5346 58.7624C129.106 37.1403 178.43 30.873 216.284 38.5191C211.634 36.4721 207.75 33.0058 205.191 28.6168C198.009 15.6295 183.621 8.34872 168.903 10.2537C162.979 10.9764 156.985 9.64943 151.919 6.49329C139.582 -2.16443 123.143 -2.16443 110.806 6.49329" fill="#444444"/>
<path d="M80.5346 58.8247C50.4285 71.979 23.0983 90.7379 9.15527e-05 114.102C0.250844 133.564 14.6887 149.919 33.9687 152.583C58.5465 124.428 89.1014 102.117 123.403 87.2781C160.374 69.8689 201.125 62.0246 241.917 64.4652C238.92 52.7275 230.197 43.2976 218.728 39.3961L216.221 38.456C205.221 36.2874 194.029 35.2375 182.817 35.3224C147.419 35.9558 112.541 43.9601 80.4093 58.8247" fill="#444444"/>
<path d="M250.629 85.4613C246.322 81.3246 243.558 75.8408 242.795 69.9184C242.619 68.1212 242.304 66.3401 241.854 64.5912C201.094 62.1222 160.366 69.923 123.403 87.2788C89.0736 102.1 58.4947 124.413 33.9061 152.584C35.6919 152.833 37.4928 152.959 39.296 152.96H95.7015C101.029 152.924 105.405 157.16 105.541 162.486V164.742C105.56 169.911 101.76 174.3 96.6416 175.021L50.7024 182.917C49.0932 183.037 47.8138 184.317 47.6941 185.926V191.566H214.842V185.926C214.723 184.317 213.443 183.037 211.834 182.917L165.895 175.021C160.777 174.3 156.976 169.911 156.995 164.742V162.486C156.979 159.893 157.993 157.4 159.815 155.554C161.636 153.709 164.117 152.663 166.71 152.647H223.115C244.852 152.647 262.474 135.025 262.474 113.288C262.538 102.683 258.257 92.5146 250.629 85.1479" fill="#444444"/>
</svg>
