<svg width="185" height="95" viewBox="0 0 185 95" fill="none" xmlns="http://www.w3.org/2000/svg">
<g clip-path="url(#clip0_155_7296)">
<path d="M18.2733 40.7944C18.2733 43.5059 18.1421 45.2377 17.8883 45.9637C17.6257 46.6897 17.0394 47.057 16.1292 47.057C15.3328 47.057 14.799 46.7247 14.5452 46.0599C14.2826 45.3952 14.1513 43.882 14.1513 41.4942V0.612427H0V32.87C0 39.0189 0.113771 43.0511 0.332561 44.9753C0.551351 46.8996 1.28649 48.7189 2.52046 50.442C3.74569 52.1826 5.61853 53.582 8.10398 54.6579C10.5982 55.7337 13.46 56.276 16.7156 56.276C19.6561 56.276 22.2116 55.8211 24.3732 54.9115C26.5349 54.0019 28.2852 52.6724 29.6067 50.9055C30.9282 49.1387 31.7246 47.4244 31.9959 45.7538C32.2672 44.0832 32.3984 41.1793 32.3984 37.0509V0.612427H18.2558V40.7857L18.2733 40.7944Z" fill="white"/>
<path d="M76.9004 32.2227H85.6782V21.8667H76.9004V11.5107H86.7372V0.612427H62.7578V53.512C66.5735 51.6403 71.2906 49.095 76.9004 46.0949V32.214V32.2227Z" fill="white"/>
<path d="M103.811 32.424V13.9598H89.8438V39.3076C92.4955 37.9431 95.261 36.5524 98.1753 35.1179C100.048 34.1995 101.93 33.3074 103.82 32.424H103.811Z" fill="white"/>
<path d="M130.425 9.65645C126.67 9.9101 123.8 12.1317 121.813 16.3476L122.347 10.4436H108.729V30.176C116.221 26.8348 123.616 23.8435 130.425 21.2632V9.64771V9.65645Z" fill="white"/>
<path d="M109.807 55.1302H122.339V41.223C117.744 45.3602 113.15 50.1271 109.807 55.1302Z" fill="white"/>
<path d="M154.001 10.7848C151.927 10.0326 149.398 9.65649 146.44 9.65649C143.482 9.65649 140.822 10.1201 138.572 11.0385C136.314 11.9569 134.713 13.2688 133.776 14.9569C133.05 16.2514 132.604 18.1145 132.438 20.5111C142.721 16.6625 151.463 13.8111 156.828 12.1318C156.014 11.6245 155.078 11.1697 154.01 10.7848H154.001Z" fill="white"/>
<path d="M140.988 35.4678C145.749 38.1093 148.401 39.7099 148.908 40.2434C149.407 40.7857 149.652 42.124 149.652 44.2494C149.652 45.7975 149.459 46.8122 149.074 47.2932C148.689 47.7743 147.998 48.0192 147.018 48.0192C146.108 48.0192 145.495 47.6606 145.189 46.9434C144.882 46.2261 144.725 44.6692 144.725 42.2552V39.4213H132.691V41.5817C132.691 45.299 133.155 48.0892 134.074 49.926C134.993 51.7715 136.691 53.2322 139.15 54.308C141.609 55.3838 144.576 55.9174 148.042 55.9174C151.157 55.9174 153.835 55.4188 156.049 54.4305C158.272 53.4246 159.848 51.9989 160.793 50.1534C161.738 48.3078 162.211 45.5614 162.211 41.9228C162.211 38.669 161.589 36.1938 160.355 34.4794C159.112 32.7738 156.513 30.9633 152.549 29.0303C149.573 27.5783 147.613 26.4675 146.65 25.6978C146.125 25.278 145.731 24.8844 145.434 24.4995C138.074 29.074 137.225 29.3714 134.888 31.0595C136.166 32.424 138.179 33.8934 140.979 35.459L140.988 35.4678Z" fill="white"/>
<path d="M149.04 22.3303V24.7531H161.161V22.1641C161.161 19.9162 161.038 18.2631 160.811 17.2135C160.671 16.6013 160.382 15.954 159.953 15.2805C155.455 18.1844 151.902 20.4585 149.049 22.2603V22.339L149.04 22.3303Z" fill="white"/>
<path d="M180.546 47.4331C180.239 47.1007 180.09 45.4651 180.09 42.5263V18.7005H183.775V11.5982H180.09V4.56592H166.473V11.5895H165.624C164.924 12.0443 164.241 12.4904 163.576 12.9189V18.6917H166.473V41.328C166.473 45.7625 166.604 48.5789 166.849 49.7685C167.103 50.9668 167.724 52.0338 168.74 52.9522C169.746 53.8881 170.919 54.4829 172.249 54.7366C173.579 54.9902 175.793 55.1214 178.9 55.1214H184.396V47.9229C182.138 47.9229 180.861 47.7567 180.554 47.4156L180.546 47.4331Z" fill="white"/>
<path d="M103.208 6.55139C103.208 10.05 100.372 12.8752 96.8802 12.8752C93.3883 12.8752 90.5615 10.05 90.5615 6.55139C90.5615 3.05274 93.3883 0.236328 96.8802 0.236328C100.372 0.236328 103.208 3.06149 103.208 6.55139Z" fill="white"/>
<path d="M46.9869 49.6373C46.9869 53.1272 44.1601 55.9523 40.6595 55.9523C37.1588 55.9523 34.3408 53.1272 34.3408 49.6373C34.3408 46.1474 37.1763 43.3135 40.6595 43.3135C44.1426 43.3135 46.9869 46.1474 46.9869 49.6373Z" fill="white"/>
<path d="M126.74 27.9543H130.136C132.324 26.6511 134.442 25.4178 136.498 24.2545L132.98 24.5344C130.976 25.6102 128.902 26.7473 126.74 27.9543Z" fill="white"/>
<path d="M136.517 22.654L139.457 22.5928C141.05 21.7093 142.625 20.8609 144.157 20.0475H141.601C139.956 20.8697 138.258 21.7443 136.517 22.6452V22.654Z" fill="white"/>
<path d="M114.278 35.1179H118.427C120.965 33.526 123.406 32.0129 125.76 30.5872H122.085C119.591 32.0129 117 33.5173 114.278 35.1179Z" fill="white"/>
<path d="M101.353 43.5147H106.306C108.818 41.5729 111.636 39.5349 114.777 37.4532H110.454C108.013 39.0101 104.739 41.1881 101.353 43.5147Z" fill="white"/>
<path d="M145.119 18.3419H147.5C148.961 17.6072 150.405 16.9162 151.832 16.2427H149.661C148.182 16.9162 146.668 17.6072 145.128 18.3419H145.119Z" fill="white"/>
<path d="M85.1703 56.311L92.3116 56.5384C93.9394 54.5267 97.2125 51.0456 102.175 46.8472H96.5648C90.4387 51.203 85.109 55.3226 85.1615 56.3023L85.1703 56.311Z" fill="white"/>
<path d="M161.624 11.3795C161.196 11.537 160.767 11.6944 160.329 11.8518H162.149C162.561 11.6944 162.981 11.5282 163.401 11.3795H161.624Z" fill="white"/>
<path d="M156.732 13.2426C155.586 13.6974 154.439 14.1609 153.275 14.6595H155.288C156.251 14.2397 157.205 13.8286 158.168 13.435H156.732V13.2426Z" fill="white"/>
<path d="M4.5858 79.5595C4.78709 79.717 4.90961 79.9181 4.94461 80.163C4.97962 80.4079 4.92711 80.6354 4.78709 80.8453C4.66456 81.0289 4.48953 81.1427 4.24449 81.1776C4.00819 81.2126 3.7894 81.1601 3.60562 81.0202C2.6517 80.338 1.5665 79.717 0.350026 79.1484C0.174994 79.0435 0.0612237 78.9035 -0.00878906 78.7111V78.5274C-0.00878906 78.3875 0.0262173 78.2738 0.0962301 78.1688C0.253759 77.9851 0.437542 77.8539 0.656332 77.784C0.875122 77.714 1.10266 77.7227 1.32145 77.8102C2.55543 78.3525 3.64063 78.9385 4.57705 79.5508L4.5858 79.5595ZM4.40202 84.9912C4.48953 84.79 4.63831 84.6588 4.84835 84.6063C5.05838 84.5538 5.25092 84.6063 5.42595 84.7375C5.60974 84.895 5.74101 85.0961 5.79352 85.341C5.85478 85.5859 5.82853 85.8221 5.73226 86.0495C4.63831 88.4548 3.47435 90.7814 2.24912 93.0206C2.1266 93.2392 1.94282 93.3792 1.69777 93.4317C1.45273 93.4841 1.22519 93.4317 1.01515 93.2742C0.813861 93.1343 0.682587 92.9419 0.630077 92.6882C0.612574 92.6007 0.603823 92.522 0.603823 92.4608C0.603823 92.2859 0.647581 92.1284 0.735097 91.971C1.95157 89.9418 3.16804 87.6152 4.40202 84.9999V84.9912ZM5.86353 72.7459C6.06482 72.9033 6.18734 73.0958 6.2136 73.3319C6.23985 73.5681 6.17859 73.7955 6.02106 73.9967C5.88104 74.1803 5.69725 74.294 5.46971 74.3203C5.24217 74.3465 5.04088 74.2853 4.86585 74.1279C3.92943 73.3931 2.85298 72.7284 1.66277 72.1249C1.47023 72.0199 1.35646 71.8712 1.30395 71.6788C1.25144 71.4864 1.2952 71.3027 1.43522 71.1278C1.57525 70.9441 1.75903 70.8216 1.98657 70.7691C2.21412 70.7167 2.44166 70.7429 2.6692 70.8479C3.92068 71.4601 4.98837 72.0986 5.87228 72.7459H5.86353ZM19.7873 70.6467C20.0236 70.5417 20.2599 70.4893 20.4787 70.4893C20.8375 70.4893 21.1701 70.6292 21.4764 70.9004C21.6427 71.0578 21.7127 71.2502 21.6777 71.4776C21.6427 71.705 21.5114 71.8625 21.2926 71.9499C18.5271 73.0083 14.7989 73.9792 10.1168 74.8713C9.97678 74.8888 9.91552 74.9675 9.91552 75.0987V80.0143C9.91552 85.9096 8.88283 90.4403 6.81746 93.6241C6.69493 93.799 6.5199 93.8865 6.29236 93.904C6.06482 93.9215 5.86353 93.8515 5.6885 93.7028C5.49597 93.5454 5.39095 93.3617 5.35594 93.143C5.33844 93.0905 5.32968 93.0293 5.32968 92.9594C5.32968 92.8019 5.38219 92.6532 5.48721 92.4958C6.08232 91.5774 6.58116 90.5715 6.97498 89.4957C7.36881 88.4199 7.65761 87.309 7.83264 86.1545C8.00767 84.9999 8.13019 83.9678 8.19146 83.0407C8.25272 82.1223 8.27897 81.0989 8.27897 79.9881V74.3465C8.27897 74.0054 8.419 73.7255 8.6903 73.4981C8.89158 73.3582 9.10162 73.2969 9.30291 73.2969C9.40793 73.2969 9.51295 73.3144 9.63547 73.3494C9.74049 73.3844 9.84551 73.3844 9.96803 73.3494C14.1688 72.4747 17.4419 71.5738 19.7873 70.6292V70.6467ZM21.7914 81.0989C21.9577 80.924 22.159 80.8453 22.3778 80.8453C22.5966 80.8453 22.7891 80.924 22.9554 81.0902C23.1217 81.2564 23.1917 81.4488 23.1829 81.6762C23.1742 81.9036 23.0867 82.096 22.9116 82.2535C21.5639 83.4168 20.2949 84.3877 19.1134 85.1748C19.0084 85.2623 18.9734 85.3585 19.0084 85.481C19.4723 86.9679 20.0324 88.2712 20.6887 89.3907C21.3451 90.5103 22.1152 91.4374 22.9817 92.1722C23.2004 92.3471 23.3142 92.5745 23.3142 92.8631C23.3142 93.0818 23.2442 93.283 23.1129 93.4492C22.9379 93.6503 22.7279 93.7815 22.4741 93.8165C22.2203 93.8515 21.9927 93.799 21.8089 93.6241C20.3212 92.2596 19.1397 90.3966 18.2733 88.0525C17.4069 85.7084 16.733 82.9007 16.2692 79.6382C16.2517 79.4983 16.1817 79.4546 16.0679 79.4808C15.3503 79.6557 14.7902 79.7694 14.4051 79.8394C14.2651 79.8744 14.2038 79.9531 14.2038 80.0668V93.2917C14.2038 93.5279 14.125 93.7291 13.9588 93.8952C13.7925 94.0614 13.5999 94.1401 13.3724 94.1401C13.1449 94.1401 12.9436 94.0614 12.786 93.8952C12.6198 93.7291 12.541 93.5279 12.541 93.2917V80.4254C12.541 80.2855 12.4797 80.2417 12.3572 80.268C12.1209 80.3205 11.8234 80.3729 11.4821 80.4254C11.2808 80.4604 11.0882 80.4254 10.9045 80.3117C10.7207 80.198 10.5894 80.0406 10.5106 79.8394C10.4756 79.7694 10.4581 79.6907 10.4581 79.612C10.4581 79.5333 10.4756 79.4371 10.5106 79.3583C10.5981 79.1834 10.7294 79.0872 10.922 79.0522C15.0265 78.265 18.2733 77.3991 20.6625 76.437C20.8638 76.3495 21.0738 76.3058 21.2751 76.3058C21.6339 76.3058 21.9577 76.4457 22.2465 76.7169C22.404 76.8743 22.4566 77.058 22.4303 77.2766C22.3953 77.4953 22.264 77.6527 22.0452 77.7402C20.8813 78.1863 19.4985 78.6149 17.8882 79.0172C17.7657 79.0522 17.7044 79.1309 17.7044 79.2446C17.9232 80.889 18.212 82.3759 18.5533 83.7317C18.5533 83.7841 18.5708 83.8104 18.6146 83.8191C18.6584 83.8191 18.6934 83.8191 18.7284 83.8104C19.9273 82.857 20.9425 81.9473 21.7827 81.0902L21.7914 81.0989Z" fill="white"/>
<path d="M75.5177 88.1137C75.7365 88.1137 75.929 88.1924 76.0778 88.3411C76.2266 88.4898 76.3053 88.6823 76.3053 88.9009C76.3053 89.1196 76.2266 89.312 76.0778 89.4607C75.929 89.6094 75.7365 89.6881 75.5177 89.6881H65.5934C65.4533 89.6881 65.3921 89.7493 65.3921 89.8718V92.7669C65.3921 93.0031 65.3046 93.213 65.1383 93.3792C64.9633 93.5541 64.762 93.6328 64.5257 93.6328C64.2894 93.6328 64.0793 93.5454 63.9131 93.3792C63.738 93.2043 63.6593 93.0031 63.6593 92.7669V89.8718C63.6593 89.7493 63.5893 89.6881 63.458 89.6881H53.7437C53.5249 89.6881 53.3324 89.6094 53.1836 89.4607C53.0348 89.312 52.9561 89.1196 52.9561 88.9009C52.9561 88.6823 53.0348 88.4898 53.1836 88.3411C53.3324 88.1924 53.5249 88.1137 53.7437 88.1137H63.458C63.598 88.1137 63.6593 88.0525 63.6593 87.93V86.032C63.6593 85.9096 63.5893 85.8483 63.458 85.8483H57.2268C56.8155 85.8483 56.4654 85.6997 56.1591 85.4023C55.8616 85.1049 55.7128 84.7463 55.7128 84.3352V77.2592C55.7128 76.8481 55.8616 76.4982 56.1591 76.1921C56.4567 75.8947 56.8155 75.746 57.2268 75.746H63.458C63.598 75.746 63.6593 75.6848 63.6593 75.5623V73.8742C63.6593 73.7518 63.5893 73.6905 63.458 73.6905H54.5839C54.3476 73.6905 54.1463 73.6118 53.9975 73.4631C53.8487 73.3144 53.77 73.1133 53.77 72.8858C53.77 72.6584 53.8487 72.466 53.9975 72.3086C54.1463 72.1511 54.3476 72.0812 54.5839 72.0812H63.458C63.598 72.0812 63.6593 72.0112 63.6593 71.88V70.5767C63.6593 70.3406 63.7468 70.1307 63.9131 69.9645C64.0793 69.7895 64.2894 69.7108 64.5257 69.7108C64.762 69.7108 64.972 69.7983 65.1383 69.9645C65.3046 70.1394 65.3921 70.3406 65.3921 70.5767V71.88C65.3921 72.0199 65.4621 72.0812 65.5934 72.0812H74.5638C74.8 72.0812 75.0013 72.1599 75.1501 72.3086C75.2989 72.4573 75.3776 72.6584 75.3776 72.8858C75.3776 73.1133 75.2989 73.3057 75.1501 73.4631C75.0013 73.6206 74.8 73.6905 74.5638 73.6905H65.5934C65.4533 73.6905 65.3921 73.7518 65.3921 73.8742V75.5623C65.3921 75.6848 65.4621 75.746 65.5934 75.746H72.0258C72.4371 75.746 72.7872 75.8947 73.0935 76.1921C73.391 76.4894 73.5398 76.8481 73.5398 77.2592V84.3352C73.5398 84.7463 73.391 85.0961 73.0935 85.4023C72.7959 85.6997 72.4371 85.8483 72.0258 85.8483H65.5934C65.4533 85.8483 65.3921 85.9096 65.3921 86.032V87.93C65.3921 88.0525 65.4621 88.1137 65.5934 88.1137H75.5177ZM57.5419 77.2242C57.4194 77.2242 57.3581 77.2941 57.3581 77.4253V79.8831C57.3581 80.0056 57.4194 80.0668 57.5419 80.0668H63.4405C63.5805 80.0668 63.6418 80.0056 63.6418 79.8831V77.4253C63.6418 77.2854 63.5717 77.2242 63.4405 77.2242H57.5419ZM57.3581 84.1952C57.3581 84.3177 57.4194 84.3789 57.5419 84.3789H63.4405C63.5805 84.3789 63.6418 84.3177 63.6418 84.1952V81.685C63.6418 81.5625 63.5717 81.5013 63.4405 81.5013H57.5419C57.4194 81.5013 57.3581 81.5625 57.3581 81.685V84.1952ZM71.7895 77.4341C71.7895 77.2941 71.7195 77.2329 71.5882 77.2329H65.5846C65.4446 77.2329 65.3833 77.3029 65.3833 77.4341V79.8919C65.3833 80.0143 65.4533 80.0756 65.5846 80.0756H71.5882C71.7282 80.0756 71.7895 80.0143 71.7895 79.8919V77.4341ZM71.5882 84.3789C71.7282 84.3789 71.7895 84.3177 71.7895 84.1952V81.685C71.7895 81.5625 71.7195 81.5013 71.5882 81.5013H65.5846C65.4446 81.5013 65.3833 81.5625 65.3833 81.685V84.1952C65.3833 84.3177 65.4533 84.3789 65.5846 84.3789H71.5882Z" fill="white"/>
<path d="M128.832 85.656C128.972 85.8134 129.033 85.9796 129.033 86.172C129.033 86.2245 129.025 86.2682 129.007 86.3032C128.972 86.5569 128.85 86.7581 128.648 86.8893C128.447 87.0467 128.211 87.0992 127.957 87.0554C127.703 87.0117 127.493 86.8892 127.344 86.6881C127.003 86.2595 126.635 85.8397 126.242 85.4286C126.154 85.3411 126.049 85.2974 125.909 85.2974C122.767 85.4023 120.308 85.4723 118.549 85.4985C118.426 85.4985 118.365 85.5598 118.365 85.6822V93.2393C118.365 93.493 118.278 93.7116 118.094 93.8953C117.91 94.079 117.7 94.1664 117.455 94.1664C117.21 94.1664 116.991 94.079 116.816 93.8953C116.641 93.7116 116.545 93.5017 116.545 93.2393V85.7347C116.545 85.6122 116.484 85.551 116.361 85.551C113.219 85.6385 110.095 85.7085 107.006 85.7522C106.752 85.7697 106.533 85.691 106.367 85.5248C106.148 85.3411 106.034 85.1049 106.034 84.8338C106.034 84.6326 106.113 84.4489 106.262 84.2915C106.419 84.1166 106.612 84.0291 106.848 84.0116C107.688 84.0116 109.237 84.0116 111.513 83.9854C111.653 83.9679 111.766 83.9241 111.871 83.8542C112.37 83.4781 113.044 82.9445 113.893 82.2623C113.998 82.1748 113.998 82.0874 113.893 82.0086C112.493 80.7141 110.716 79.3934 108.563 78.0639C108.388 77.9589 108.301 77.8103 108.283 77.6178C108.266 77.4254 108.336 77.2505 108.485 77.1193C108.651 76.9443 108.861 76.8481 109.097 76.8219C109.334 76.7956 109.57 76.8394 109.789 76.9618C110.147 77.1805 110.48 77.3992 110.786 77.6003C110.891 77.6703 110.979 77.6528 111.066 77.5479C112.379 76.2359 113.526 74.9414 114.506 73.6818C114.523 73.6469 114.523 73.6119 114.506 73.5769C114.488 73.5419 114.462 73.5244 114.427 73.5244C112.292 73.6643 110.147 73.7518 107.995 73.8043C107.776 73.8218 107.574 73.7606 107.391 73.6119C107.207 73.4632 107.084 73.2795 107.023 73.0608C106.971 72.8597 107.006 72.676 107.111 72.5098C107.224 72.3436 107.382 72.2649 107.583 72.2649C115.136 71.9937 120.982 71.5127 125.121 70.8304C125.244 70.8129 125.349 70.8042 125.454 70.8042C125.953 70.8042 126.364 70.9879 126.688 71.364C126.845 71.5389 126.88 71.7226 126.802 71.915C126.723 72.1074 126.583 72.2386 126.382 72.2824C123.8 72.7285 120.518 73.0958 116.536 73.3845H116.51L116.536 73.4107C116.606 73.4457 116.65 73.5069 116.667 73.5944C116.685 73.6818 116.667 73.7693 116.615 73.848C115.302 75.4924 113.884 76.9968 112.388 78.3875C112.283 78.4925 112.283 78.5712 112.388 78.6412C113.569 79.4809 114.514 80.2243 115.232 80.8716C115.337 80.959 115.433 80.959 115.538 80.8716C117.796 78.8861 119.73 76.9968 121.358 75.1863C121.542 74.9851 121.77 74.8539 122.041 74.8189C122.303 74.7752 122.557 74.8189 122.793 74.9326C122.995 75.0551 123.117 75.23 123.152 75.4574C123.187 75.6848 123.126 75.886 122.969 76.0609C120.317 78.7899 117.455 81.3701 114.383 83.8017C114.366 83.8192 114.366 83.8367 114.374 83.8629C114.374 83.8892 114.392 83.8979 114.409 83.8979C116.597 83.8804 119.923 83.8192 124.386 83.7142C124.421 83.7142 124.448 83.7055 124.465 83.6792C124.483 83.653 124.465 83.6268 124.439 83.5918C123.739 82.9095 122.977 82.2273 122.155 81.5451C121.997 81.4051 121.927 81.2389 121.936 81.029C121.936 80.8278 122.032 80.6616 122.207 80.5392C122.426 80.3993 122.662 80.338 122.916 80.3468C123.161 80.3468 123.389 80.443 123.599 80.6179C125.717 82.376 127.458 84.0553 128.832 85.6385V85.656ZM111.014 87.8339C111.198 87.6152 111.425 87.4665 111.679 87.3878C111.933 87.3091 112.195 87.3266 112.449 87.4228C112.668 87.4928 112.808 87.6327 112.869 87.8601C112.93 88.0788 112.887 88.28 112.755 88.4462C111.408 90.073 109.771 91.5862 107.855 93.0031C107.653 93.1606 107.408 93.2306 107.137 93.2306H107.084C106.796 93.2306 106.533 93.1343 106.314 92.9507C106.139 92.8107 106.06 92.627 106.06 92.3996C106.06 92.1722 106.157 91.9973 106.34 91.8748C108.17 90.6765 109.727 89.3296 111.005 87.8251L111.014 87.8339ZM121.988 88.4462C121.813 88.3237 121.735 88.1663 121.735 87.9563C121.735 87.7464 121.831 87.589 122.015 87.4665C122.233 87.3091 122.461 87.2391 122.68 87.2391C122.916 87.2391 123.152 87.3266 123.371 87.4928C125.524 89.1022 127.274 90.5453 128.631 91.8224C128.788 91.9798 128.858 92.1547 128.858 92.3646C128.858 92.6358 128.745 92.8545 128.526 93.0031C128.333 93.1431 128.141 93.2043 127.939 93.2043H127.834C127.581 93.1693 127.353 93.0644 127.169 92.8982C125.734 91.4637 124.01 89.9768 121.988 88.4374V88.4462Z" fill="white"/>
<path d="M159.734 85.8396C159.769 85.6384 159.874 85.4722 160.041 85.3498C160.207 85.2273 160.399 85.1836 160.601 85.2186C160.802 85.2536 160.968 85.3585 161.1 85.5422C161.231 85.7259 161.275 85.9183 161.24 86.1457C160.881 88.2099 160.399 89.9418 159.804 91.3237C159.717 91.5074 159.577 91.6386 159.384 91.6911C159.192 91.7523 158.999 91.7348 158.807 91.6561C158.614 91.5686 158.483 91.4287 158.395 91.2188C158.36 91.1313 158.343 91.0438 158.343 90.9651C158.343 90.8602 158.369 90.7639 158.422 90.659C158.982 89.4082 159.419 87.8076 159.726 85.8396H159.734ZM166.482 83.3031C166.429 83.1806 166.342 83.1194 166.228 83.1194L164.408 83.2243C164.268 83.2418 164.206 83.3118 164.206 83.4255V93.4666C164.206 93.6678 164.136 93.8515 163.988 94.0089C163.839 94.1664 163.664 94.2364 163.445 94.2364C163.226 94.2364 163.051 94.1576 162.894 94.0089C162.736 93.8602 162.666 93.6766 162.666 93.4666V83.5217C162.666 83.3993 162.596 83.3381 162.465 83.3381C161.73 83.3905 160.662 83.4605 159.262 83.5392C159.043 83.5567 158.842 83.4867 158.675 83.3381C158.483 83.1806 158.395 82.9794 158.395 82.7258C158.395 82.5421 158.465 82.3672 158.597 82.2097C158.737 82.0523 158.912 81.9736 159.139 81.9561L159.831 81.9298C159.971 81.9298 160.067 81.8774 160.137 81.7724C160.618 81.1776 161.161 80.4167 161.782 79.4895C161.852 79.3846 161.852 79.2884 161.782 79.1834C160.995 78.1426 160.067 77.1192 158.99 76.1046C158.833 75.9646 158.754 75.7985 158.737 75.5885C158.719 75.3874 158.772 75.2037 158.894 75.0462C159.034 74.8888 159.192 74.8101 159.384 74.7926C159.568 74.7751 159.743 74.8276 159.901 74.95C159.971 75.02 160.032 75.0812 160.084 75.1337C160.154 75.1862 160.207 75.1774 160.242 75.1075C161.012 73.813 161.695 72.4485 162.29 71.0315C162.377 70.8129 162.517 70.6554 162.727 70.568C162.832 70.5155 162.937 70.4893 163.06 70.4893C163.165 70.4893 163.252 70.5155 163.34 70.568C163.541 70.638 163.69 70.7691 163.778 70.9791C163.865 71.1802 163.856 71.3902 163.751 71.5913C162.762 73.5418 161.931 75.0025 161.266 75.9734C161.196 76.0783 161.205 76.1746 161.292 76.2795C161.835 76.8218 162.299 77.3466 162.675 77.8452C162.692 77.8802 162.727 77.8977 162.78 77.8977C162.832 77.8977 162.867 77.8802 162.885 77.8452C163.743 76.4632 164.495 75.1512 165.143 73.9267C165.248 73.7255 165.405 73.5768 165.615 73.5068C165.825 73.4281 166.044 73.4456 166.272 73.5418C166.456 73.6293 166.587 73.778 166.657 73.9879C166.727 74.1978 166.701 74.399 166.578 74.5914C164.933 77.3204 163.366 79.6995 161.861 81.7112C161.826 81.7287 161.817 81.7549 161.835 81.7899C161.852 81.8249 161.878 81.8424 161.913 81.8424L165.659 81.6587C165.712 81.6587 165.747 81.6412 165.773 81.5975C165.799 81.5537 165.799 81.5188 165.782 81.4838C165.51 80.9065 165.222 80.3467 164.906 79.8219C164.819 79.6645 164.81 79.507 164.871 79.3321C164.933 79.1572 165.038 79.0435 165.195 78.9735C165.379 78.9035 165.572 78.9035 165.755 78.9647C165.939 79.026 166.088 79.1397 166.193 79.3146C167.016 80.7141 167.654 82.0523 168.118 83.3381C168.188 83.5392 168.171 83.7404 168.083 83.9241C167.987 84.1078 167.847 84.2565 167.663 84.3614C167.488 84.4489 167.313 84.4489 167.138 84.3614C166.963 84.2739 166.841 84.1427 166.788 83.9503C166.718 83.7317 166.631 83.5042 166.534 83.2856L166.482 83.3031ZM168.022 88.9621C168.092 89.1633 168.075 89.3557 167.97 89.5394C167.865 89.7231 167.716 89.8455 167.506 89.9068C167.331 89.9767 167.164 89.9593 166.989 89.8543C166.814 89.7493 166.718 89.6181 166.683 89.4432C166.412 88.3499 166.009 87.1866 165.475 85.962C165.44 85.8746 165.423 85.7871 165.423 85.7084C165.423 85.6297 165.44 85.5335 165.475 85.4547C165.545 85.2973 165.659 85.2011 165.834 85.1486C166.018 85.0786 166.202 85.0874 166.385 85.1573C166.569 85.2273 166.701 85.3585 166.779 85.5247C167.304 86.723 167.716 87.8688 168.013 88.9621H168.022ZM171.278 83.9678C171.295 83.7491 171.391 83.5567 171.558 83.3905C171.724 83.2243 171.934 83.1456 172.17 83.1456C172.389 83.1456 172.582 83.2243 172.73 83.3905C172.879 83.5567 172.958 83.7491 172.958 83.9678C172.87 85.2973 172.748 86.4344 172.573 87.379C172.398 88.3149 172.135 89.2158 171.776 90.0817C171.418 90.9476 170.928 91.6911 170.306 92.3121C169.685 92.9331 168.897 93.4754 167.961 93.939C167.838 93.9914 167.724 94.0177 167.602 94.0177C167.497 94.0177 167.409 94.0002 167.322 93.9652C167.103 93.8952 166.911 93.7728 166.762 93.5804C166.674 93.4579 166.631 93.3354 166.631 93.1955V93.0643C166.683 92.8806 166.797 92.7407 166.963 92.6532C167.786 92.2596 168.46 91.796 169.002 91.2538C169.545 90.7115 169.965 90.073 170.28 89.3207C170.595 88.5685 170.823 87.7813 170.963 86.9592C171.103 86.137 171.199 85.1399 171.269 83.9591L171.278 83.9678ZM167.917 81.3263C167.882 81.1077 167.935 80.9065 168.083 80.7403C168.232 80.5654 168.416 80.4867 168.635 80.4867L169.991 80.4079C170.131 80.3904 170.219 80.3292 170.271 80.2243C170.936 78.8423 171.54 77.2854 172.092 75.5623C172.109 75.5098 172.1 75.4661 172.083 75.4311C172.065 75.3961 172.022 75.3786 171.969 75.3786H168.53C168.311 75.3786 168.118 75.2999 167.97 75.1337C167.821 74.9675 167.742 74.7751 167.742 74.5564C167.742 74.3378 167.821 74.1453 167.97 73.9967C168.118 73.848 168.311 73.7692 168.53 73.7692H173.606C173.728 73.7692 173.789 73.708 173.789 73.5856V71.1278C173.789 70.8916 173.877 70.6817 174.043 70.5155C174.209 70.3406 174.419 70.2618 174.656 70.2618C174.892 70.2618 175.102 70.3493 175.268 70.5155C175.435 70.6904 175.522 70.8916 175.522 71.1278V73.5856C175.522 73.708 175.583 73.7692 175.706 73.7692H181.167C181.386 73.7692 181.578 73.848 181.745 73.9967C181.911 74.1541 181.99 74.3378 181.99 74.5564C181.99 74.7751 181.911 74.9675 181.745 75.1337C181.578 75.2999 181.386 75.3786 181.167 75.3786H174.349C174.209 75.3786 174.131 75.4398 174.096 75.5623C173.255 77.5653 172.582 79.0697 172.074 80.1018C172.057 80.1543 172.057 80.198 172.074 80.233C172.092 80.268 172.127 80.2855 172.179 80.2855C172.398 80.268 173.308 80.2155 174.901 80.1193C176.494 80.0231 177.719 79.9444 178.594 79.8744C178.646 79.8744 178.681 79.8569 178.699 79.8219C178.717 79.7869 178.699 79.7519 178.673 79.717C178.191 79.0522 177.719 78.4137 177.237 77.7927C177.097 77.6353 177.054 77.4691 177.097 77.2766C177.141 77.093 177.246 76.9443 177.421 76.8393C177.605 76.7344 177.815 76.7081 178.034 76.7518C178.253 76.7956 178.436 76.9005 178.576 77.0755C179.994 78.7286 181.132 80.2942 181.99 81.7637C182.112 81.9648 182.138 82.1835 182.068 82.4197C181.998 82.6471 181.867 82.822 181.657 82.9445C181.465 83.0669 181.263 83.0931 181.044 83.0232C180.826 82.9532 180.651 82.822 180.528 82.6121C180.327 82.2535 180.099 81.8774 179.863 81.4838C179.81 81.3788 179.714 81.3351 179.583 81.3526C177.789 81.475 174.209 81.7199 168.836 82.096C168.6 82.1135 168.39 82.0436 168.223 81.8949C168.048 81.7374 167.961 81.5537 167.943 81.3351L167.917 81.3263ZM178.506 92.4258H180.458C180.729 92.4258 180.913 92.2684 181.009 91.9622C181.106 91.6561 181.167 90.9826 181.202 89.9418C181.202 89.7668 181.281 89.6444 181.429 89.5569C181.578 89.4694 181.745 89.4607 181.92 89.5307C182.138 89.6356 182.322 89.7843 182.462 89.9942C182.602 90.1692 182.663 90.3529 182.663 90.554C182.663 91.7698 182.471 92.6795 182.103 93.2917C181.815 93.7553 181.316 93.9827 180.616 93.9827H178.279C177.439 93.9827 176.879 93.8253 176.599 93.5191C176.319 93.213 176.179 92.6095 176.179 91.6998V83.8803C176.179 83.6617 176.257 83.4693 176.424 83.3206C176.59 83.1631 176.782 83.0932 177.001 83.0932C177.22 83.0932 177.413 83.1719 177.579 83.3206C177.745 83.478 177.824 83.6617 177.824 83.8803V91.6736C177.824 91.9972 177.868 92.2071 177.955 92.2859C178.043 92.3733 178.226 92.4171 178.515 92.4171L178.506 92.4258Z" fill="white"/>
</g>
<defs>
<clipPath id="clip0_155_7296">
<rect width="184.387" height="94" fill="white" transform="translate(0 0.236328)"/>
</clipPath>
</defs>
</svg>
